<svg width="51" height="30" fill="none" xmlns="http://www.w3.org/2000/svg"><path d="M25.062 26.12A14.931 14.931 0 0030 15.014c0-4.408-1.911-8.373-4.938-11.136A14.866 14.866 0 0015.014 0C6.73 0 0 6.729 0 15.013 0 23.3 6.73 29.998 15.014 29.998c3.88 0 7.403-1.468 10.048-3.878z" fill="#009DDD"/><path d="M25.063 26.12A14.93 14.93 0 0030 15.014c0-4.408-1.911-8.373-4.938-11.136V26.12z" fill="#009DDD"/><path d="M35.142 0c-3.88 0-7.406 1.47-10.08 3.879-.528.5-1.027 1.028-1.498 1.588h3.026c.412.498.794 1.057 1.146 1.585h-5.319c-.322.53-.616 1.06-.881 1.587h7.052c.236.528.47 1.059.646 1.587h-8.313a14.356 14.356 0 00-.441 1.616h9.195c.206.999.325 2.087.325 3.172 0 1.646-.266 3.263-.766 4.76h-8.313c.175.529.381 1.059.616 1.588h7.052c-.264.529-.53 1.087-.853 1.586h-5.319c.355.559.736 1.087 1.147 1.587h3.026c-.47.558-.97 1.088-1.527 1.587A14.993 14.993 0 0035.142 30c8.285 0 14.984-6.698 14.984-14.985C50.127 6.73 43.428.001 35.142.001z" fill="#ED1C2E"/><path d="M44.953 18.246c0-.265.236-.47.5-.47.265 0 .47.205.47.47s-.205.5-.47.5a.516.516 0 01-.5-.5zm.5.382c.205 0 .352-.176.352-.382a.34.34 0 00-.352-.353c-.206 0-.38.148-.38.353 0 .206.174.382.38.382zm-.059-.176h-.117v-.412h.176c.058 0 .088 0 .118.03s.058.058.058.088c0 .06-.03.118-.088.118l.088.176h-.118l-.058-.147h-.059v.147zm0-.235H45.511v-.089H45.394v.09zM13.134 18.746h-1.88L12.37 12.9l-2.555 5.847H8.109l-.293-5.818L6.7 18.746H4.995l1.44-7.61h2.937l.147 4.7 2.06-4.7h3.023l-1.468 7.61zM33.995 18.659c-.53.145-.911.204-1.352.204-.94 0-1.47-.47-1.47-1.35 0-.177.03-.354.059-.56l.117-.617.09-.47.851-4.729h1.85l-.263 1.41h.969l-.264 1.5h-.97l-.47 2.584c-.03.117-.058.206-.058.264 0 .324.206.47.647.47.206 0 .38-.03.5-.059l-.236 1.353zM39.43 12.606c-.147-.06-.175-.06-.204-.06-.09-.03-.148-.03-.148-.058h-.205c-.618 0-1.058.264-1.617.998l.176-.94h-1.705l-1.145 6.2h1.88c.676-3.791.94-4.466 1.85-4.466.06 0 .149.03.236.03l.206.058.677-1.762zM26.59 14.514c0 .765.441 1.323 1.44 1.706.765.322.882.41.882.705 0 .381-.353.558-1.087.558-.559 0-1.088-.088-1.705-.264l-.235 1.44h.089l.322.088c.117 0 .293.03.499.03.441.057.794.057 1.058.057 1.97 0 2.91-.646 2.91-2.056 0-.852-.383-1.351-1.352-1.733-.794-.294-.882-.382-.882-.676 0-.322.323-.5.94-.5.353 0 .881.03 1.351.088l.265-1.41c-.5-.086-1.233-.117-1.645-.117-2.115 0-2.85.939-2.85 2.084zM19.187 18.746h-1.529l.03-.647c-.47.5-1.116.735-1.968.735-.998 0-1.704-.676-1.704-1.675 0-1.5 1.203-2.38 3.291-2.38.204 0 .47 0 .763.03.06-.205.06-.295.06-.382 0-.411-.325-.558-1.206-.558-.53 0-1.115.058-1.527.147l-.264.088-.177.029.264-1.38c.941-.237 1.528-.324 2.234-.324 1.615 0 2.438.617 2.438 1.791 0 .324-.029.56-.146 1.235l-.382 2.204-.059.382-.06.324-.029.204-.03.177zm-1.352-2.763c-.207-.029-.294-.029-.41-.029-1.06 0-1.588.323-1.588.941 0 .382.235.646.646.646.765 0 1.322-.646 1.352-1.558zM25.326 18.599a7.11 7.11 0 01-1.91.264c-2.083 0-3.172-.97-3.172-2.792 0-2.116 1.381-3.673 3.262-3.673 1.527 0 2.499.882 2.499 2.233 0 .47-.06.913-.206 1.529h-3.733v.206c0 .705.529 1.086 1.616 1.086.676 0 1.293-.117 1.938-.38l-.294 1.527zm-.998-3.672v-.324c0-.499-.324-.794-.881-.794-.588 0-1 .411-1.177 1.118h2.058zM45.247 15.925c-.294 2.055-1.733 2.967-3.644 2.967-2.085 0-2.936-1.263-2.936-2.85 0-2.174 1.438-3.674 3.671-3.674 1.94 0 2.968 1.234 2.968 2.792 0 .384 0 .413-.059.765zm-1.938-.794c0-.646-.265-1.232-1.027-1.232-.943 0-1.53 1.115-1.53 2.115 0 .823.412 1.38 1.059 1.38.41 0 1.292-.557 1.44-1.498.058-.236.058-.5.058-.765z" fill="#fff"/></svg>