<svg width="55" height="30" fill="none" xmlns="http://www.w3.org/2000/svg"><g clip-path="url(#clip0)"><path d="M17.787 0C9.616.052 3 6.714 3 14.915c0 8.232 6.667 14.913 14.883 14.913 3.854 0 7.369-1.472 10.013-3.886h.002a14.971 14.971 0 001.511-1.598h-3.048a14.44 14.44 0 01-1.11-1.537h5.258c.32-.512.609-1.044.867-1.596h-6.992a14.522 14.522 0 01-.623-1.566H32a15.047 15.047 0 00.423-7.925h-9.098c.114-.53.255-1.054.424-1.566h8.241a14.975 14.975 0 00-.641-1.597h-6.965c.25-.539.535-1.06.853-1.567h5.255a14.805 14.805 0 00-1.155-1.596h-2.93c.454-.535.952-1.039 1.492-1.506A14.801 14.801 0 0017.884 0h-.097z" fill="#931B1D"/><path d="M52.727 14.92c.001 8.235-6.658 14.913-14.88 14.916-8.218.002-14.882-6.673-14.885-14.91v-.007C22.96 6.681 29.622.002 37.841 0c8.219-.003 14.884 6.673 14.886 14.911v.008z" fill="#F16622"/><path d="M52.727 15.083c.001 8.236-6.658 14.915-14.88 14.917-8.218.003-14.882-6.674-14.885-14.91v-.007C22.96 6.846 29.622.167 37.841.165c8.219-.003 14.884 6.673 14.886 14.91v.008z" fill="#F7981D"/><path d="M17.787.169C9.615.222 3 6.883 3 15.084c0 8.233 6.667 14.914 14.882 14.914a14.81 14.81 0 0010.013-3.887v-.001h.002a14.737 14.737 0 001.512-1.597H26.36a14.31 14.31 0 01-1.11-1.535h5.258c.321-.513.61-1.047.868-1.598h-6.993a14.647 14.647 0 01-.622-1.566h8.237a15.042 15.042 0 00.423-7.925h-9.098c.114-.53.256-1.054.424-1.566h8.242a14.992 14.992 0 00-.642-1.598h-6.965c.251-.536.536-1.06.853-1.566h5.255a15.093 15.093 0 00-1.154-1.597h-2.93c.453-.534.951-1.038 1.492-1.506A14.803 14.803 0 0017.883.17h-.096z" fill="#CB2026"/><path d="M23.233 18.881l.2-1.35c-.11 0-.269.047-.41.047-.55 0-.612-.294-.576-.511l.445-2.755h.838l.203-1.493h-.79l.16-.928H21.72c-.034.035-.936 5.222-.936 5.853 0 .935.523 1.352 1.263 1.345.577-.005 1.029-.165 1.187-.208zM23.737 16.308c0 2.244 1.477 2.778 2.736 2.778 1.163 0 1.674-.261 1.674-.261l.28-1.532s-.884.393-1.683.393c-1.701 0-1.403-1.272-1.403-1.272h3.22s.208-1.03.208-1.45c0-1.045-.52-2.32-2.26-2.32-1.594 0-2.772 1.72-2.772 3.664zm2.779-2.243c.894 0 .729 1.007.729 1.089h-1.76c0-.104.166-1.089 1.03-1.089zM36.548 18.88l.284-1.732s-.778.393-1.312.393c-1.123 0-1.574-.862-1.574-1.785 0-1.875.967-2.907 2.044-2.907.807 0 1.456.455 1.456.455l.258-1.681s-.96-.391-1.784-.391c-1.83 0-3.61 1.589-3.61 4.578 0 1.979.962 3.288 2.853 3.288.534 0 1.385-.217 1.385-.217zM14.518 12.668c-1.086 0-1.92.349-1.92.349l-.229 1.368s.688-.279 1.727-.279c.59 0 1.021.066 1.021.547 0 .292-.053.4-.053.4s-.464-.04-.68-.04c-1.37 0-2.81.586-2.81 2.354 0 1.392.944 1.712 1.53 1.712 1.118 0 1.598-.726 1.625-.73l-.052.608h1.395l.623-4.375c0-1.855-1.616-1.914-2.177-1.914zm.34 3.56c.03.267-.167 1.52-1.121 1.52-.492 0-.62-.378-.62-.6 0-.435.235-.957 1.397-.957.27 0 .298.03.344.037zM18.179 19.046c.356 0 2.396.091 2.396-2.018 0-1.973-1.888-1.584-1.888-2.377 0-.393.308-.519.87-.519.224 0 1.083.072 1.083.072l.2-1.402s-.556-.124-1.46-.124c-1.174 0-2.363.467-2.363 2.072 0 1.82 1.984 1.636 1.984 2.402 0 .511-.555.553-.982.553-.739 0-1.404-.254-1.407-.242l-.211 1.387c.037.013.448.196 1.778.196zM49.673 11.41l-.34 2.124s-.597-.825-1.53-.825c-1.453 0-2.663 1.754-2.663 3.77 0 1.302.645 2.575 1.965 2.575.95 0 1.475-.663 1.475-.663l-.07.566h1.542l1.211-7.551-1.59.003zm-.735 4.144c0 .838-.415 1.958-1.274 1.958-.57 0-.837-.48-.837-1.233 0-1.23.552-2.044 1.247-2.044.571 0 .864.394.864 1.32zM5.938 18.964l.966-5.701.14 5.701h1.093l2.036-5.701-.902 5.701h1.621l1.25-7.56H9.635l-1.562 4.638-.082-4.638H5.68l-1.268 7.56h1.527zM30.352 18.974c.461-2.627.547-4.762 1.648-4.373.193-1.016.379-1.41.588-1.84 0 0-.098-.021-.306-.021-.708 0-1.234.971-1.234.971l.14-.892h-1.476l-.987 6.155h1.627zM40.203 12.668c-1.087 0-1.92.349-1.92.349l-.228 1.368s.687-.279 1.726-.279c.59 0 1.022.066 1.022.547 0 .292-.053.4-.053.4s-.465-.04-.683-.04c-1.37 0-2.808.586-2.808 2.354 0 1.392.944 1.712 1.53 1.712 1.117 0 1.599-.726 1.624-.73l-.051.608h1.395l.623-4.375c0-1.855-1.615-1.914-2.177-1.914zm.34 3.56c.03.267-.166 1.52-1.122 1.52-.491 0-.619-.378-.619-.6 0-.435.236-.957 1.396-.957.27 0 .299.03.346.037zM43.655 18.974c.461-2.627.547-4.762 1.648-4.373.193-1.016.379-1.41.59-1.84 0 0-.1-.021-.307-.021-.71 0-1.235.971-1.235.971l.141-.892h-1.476l-.988 6.155h1.627z" fill="#fff"/></g><defs><clipPath id="clip0"><path fill="#fff" transform="translate(.272)" d="M0 0h54.545v30H0z"/></clipPath></defs></svg>