<svg width="80" height="44" viewBox="0 0 80 44" fill="none" xmlns="http://www.w3.org/2000/svg">
<g clip-path="url(#clip0)">
<path d="M25.6886 0C13.7039 0.0757595 4.00049 9.84734 4.00049 21.8747C4.00049 33.9493 13.7789 43.7479 25.8287 43.7479C31.481 43.7479 36.636 41.5888 40.5146 38.0485L40.5138 38.0477H40.5168C41.3125 37.3226 42.0534 36.5381 42.7337 35.705H38.2626C37.665 34.9829 37.122 34.2283 36.6346 33.4506H44.3463C44.8172 32.6993 45.2401 31.9186 45.6189 31.1101H35.3629C35.0128 30.3587 34.709 29.5929 34.4502 28.8123H46.5317C47.2614 26.6315 47.655 24.2978 47.655 21.8747C47.655 20.2653 47.4803 18.6994 47.1526 17.189H33.8091C33.9756 16.4114 34.1833 15.6441 34.4308 14.892H46.5182C46.2483 14.0895 45.934 13.3088 45.577 12.5498H35.3615C35.7297 11.7602 36.1474 10.9946 36.6132 10.252H44.3202C43.8065 9.43226 43.2395 8.64941 42.6268 7.91146H38.3298C38.995 7.12621 39.7253 6.38765 40.518 5.70301C36.6408 2.16115 31.4852 0.000600936 25.8299 0.000600936C25.7808 -3.30291e-07 25.7343 0 25.6886 0Z" fill="#931B1D"/>
<path d="M76.9329 21.8815C76.9351 33.9607 67.1682 43.7555 55.11 43.7592C43.057 43.763 33.2824 33.9717 33.2788 21.8905V21.8815C33.275 9.79864 43.0452 0.00300782 55.1004 1.48855e-06C67.1547 -0.0044078 76.9301 9.78741 76.9331 21.8695C76.9329 21.8695 76.9329 21.8749 76.9329 21.8815Z" fill="#F16622"/>
<path d="M76.9329 22.1215C76.9351 34.2014 67.1682 43.9978 55.11 44C43.057 44.0044 33.2824 34.212 33.2788 22.1328V22.1215C33.275 10.0409 43.0452 0.244463 55.1004 0.241457C67.1547 0.237047 76.9301 10.0289 76.9331 22.1101C76.9329 22.1103 76.9329 22.1171 76.9329 22.1215Z" fill="#F7981D"/>
<path d="M25.6881 0.248003C13.7034 0.325166 4 10.0945 4 22.1227C4 34.1981 13.7784 43.9973 25.8282 43.9973C31.4805 43.9973 36.6355 41.8368 40.5141 38.2971L40.5133 38.2949H40.5163C41.312 37.5704 42.0529 36.7884 42.7332 35.9522H38.2622C37.6645 35.2315 37.1216 34.4785 36.6341 33.7009H44.3458C44.8168 32.9487 45.2396 32.1658 45.6184 31.3581H35.3624C35.0123 30.6059 34.7085 29.8403 34.4497 29.0611H46.5312C47.2609 26.8787 47.6545 24.5458 47.6545 22.1227C47.6545 20.5141 47.4798 18.9474 47.1521 17.4378H33.8086C33.9751 16.661 34.1828 15.8922 34.4303 15.1408H46.5177C46.2478 14.3377 45.9335 13.5568 45.5766 12.7972H35.361C35.7292 12.0106 36.1469 11.242 36.6127 10.5002H44.3197C43.806 9.68127 43.239 8.89902 42.6263 8.15806H38.3293C38.9945 7.37441 39.7248 6.63565 40.5175 5.94961C36.6403 2.40835 31.4847 0.247803 25.8294 0.247803C25.7803 0.248003 25.7338 0.248003 25.6881 0.248003Z" fill="#CB2026"/>
<path d="M33.6764 27.692L33.9682 25.7128C33.8093 25.7128 33.5752 25.7803 33.3689 25.7803C32.5604 25.7803 32.4704 25.3498 32.5229 25.0312L33.1761 20.9913H34.4053L34.7023 18.8006H33.5437L33.78 17.4402H31.4553C31.405 17.4911 30.083 25.0993 30.083 26.0239C30.083 27.3955 30.8502 28.0066 31.9345 27.9976C32.7817 27.9898 33.4439 27.7551 33.6764 27.692Z" fill="white"/>
<path d="M34.4146 23.9187C34.4146 27.2102 36.5811 27.9931 38.4282 27.9931C40.1336 27.9931 40.8828 27.6099 40.8828 27.6099L41.293 25.3631C41.293 25.3631 39.9965 25.9392 38.825 25.9392C36.33 25.9392 36.7673 24.0734 36.7673 24.0734H41.4911C41.4911 24.0734 41.7947 22.5631 41.7947 21.9482C41.7947 20.4145 41.0313 18.5442 38.4807 18.5442C36.1432 18.5448 34.4146 21.0667 34.4146 23.9187ZM38.4905 20.6288C39.8015 20.6288 39.5592 22.1061 39.5592 22.2253H36.9794C36.9786 22.0732 37.2225 20.6288 38.4905 20.6288Z" fill="white"/>
<path d="M53.2045 27.6918L53.6208 25.1503C53.6208 25.1503 52.4802 25.7263 51.698 25.7263C50.0497 25.7263 49.3889 24.4618 49.3889 23.109C49.3889 20.3582 50.8071 18.8448 52.3872 18.8448C53.5707 18.8448 54.5215 19.5122 54.5215 19.5122L54.9003 17.0464C54.9003 17.0464 53.4912 16.4734 52.2838 16.4734C49.6006 16.4734 46.9893 18.8035 46.9893 23.1875C46.9893 26.0898 48.3998 28.0103 51.1731 28.0103C51.9565 28.0107 53.2045 27.6918 53.2045 27.6918Z" fill="white"/>
<path d="M20.8947 18.5791C19.3012 18.5791 18.0794 19.0914 18.0794 19.0914L17.7427 21.0982C17.7427 21.0982 18.752 20.6887 20.2752 20.6887C21.1407 20.6887 21.7728 20.7855 21.7728 21.4912C21.7728 21.9187 21.6956 22.0769 21.6956 22.0769C21.6956 22.0769 21.014 22.0191 20.6975 22.0191C18.6885 22.0191 16.5767 22.8785 16.5767 25.4718C16.5767 27.5131 17.961 27.9825 18.8198 27.9825C20.4598 27.9825 21.1647 26.9168 21.2038 26.9122L21.1272 27.8031H23.1731L24.0865 21.3874C24.0865 18.6667 21.7173 18.5791 20.8947 18.5791ZM21.3934 23.8001C21.4377 24.1923 21.1475 26.0296 19.7481 26.0296C19.0266 26.0296 18.8384 25.4762 18.8384 25.1491C18.8384 24.5124 19.1841 23.7468 20.8879 23.7468C21.2832 23.7468 21.3259 23.7903 21.3934 23.8001Z" fill="white"/>
<path d="M26.2628 27.9337C26.7855 27.9337 29.7778 28.0679 29.7778 24.9736C29.7778 22.0803 27.0083 22.6511 27.0083 21.4887C27.0083 20.9121 27.4599 20.7275 28.2846 20.7275C28.6123 20.7275 29.873 20.8333 29.873 20.8333L30.167 18.7756C30.167 18.7756 29.3511 18.594 28.0237 18.594C26.3026 18.594 24.559 19.2794 24.559 21.6334C24.559 24.3024 27.4687 24.0324 27.4687 25.1558C27.4687 25.9058 26.655 25.9673 26.0281 25.9673C24.9452 25.9673 23.9695 25.5945 23.9649 25.6118L23.6553 27.6463C23.7094 27.6653 24.3123 27.9337 26.2628 27.9337Z" fill="white"/>
<path d="M72.4559 16.733L71.9557 19.8498C71.9557 19.8498 71.0804 18.6403 69.712 18.6403C67.5815 18.6403 65.8071 21.2125 65.8071 24.1695C65.8071 26.0781 66.7527 27.9463 68.6892 27.9463C70.0817 27.9463 70.852 26.9736 70.852 26.9736L70.7508 27.8038H73.0111L74.7877 16.728L72.4559 16.733ZM71.3775 22.8128C71.3775 24.042 70.7686 25.6835 69.5093 25.6835C68.6724 25.6835 68.2817 24.98 68.2817 23.8761C68.2817 22.0717 69.0903 20.8778 70.11 20.8778C70.9478 20.878 71.3775 21.4554 71.3775 22.8128Z" fill="white"/>
<path d="M8.31012 27.8138L9.7267 19.452L9.93294 27.8138H11.5347L14.5216 19.452L13.198 27.8138H15.5768L17.4105 16.7261H13.7307L11.4397 23.528L11.3205 16.7261H7.92992L6.0708 27.8138H8.31012Z" fill="white"/>
<path d="M44.1174 27.8288C44.7938 23.9749 44.9191 20.8439 46.5345 21.4147C46.8173 19.9237 47.0895 19.3471 47.3969 18.715C47.3969 18.715 47.253 18.6843 46.9484 18.6843C45.9098 18.6843 45.1379 20.1091 45.1379 20.1091L45.3434 18.8012H43.179L41.731 27.8288H44.1174Z" fill="white"/>
<path d="M58.5652 18.5791C56.9716 18.5791 55.7506 19.0914 55.7506 19.0914L55.4147 21.0982C55.4147 21.0982 56.4219 20.6887 57.9465 20.6887C58.8111 20.6887 59.4448 20.7855 59.4448 21.4912C59.4448 21.9187 59.3669 22.0769 59.3669 22.0769C59.3669 22.0769 58.6852 22.0191 58.3663 22.0191C56.3565 22.0191 54.2471 22.8785 54.2471 25.4718C54.2471 27.5131 55.6322 27.9825 56.4902 27.9825C58.1302 27.9825 58.8359 26.9168 58.8734 26.9122L58.7977 27.8031H60.845L61.7577 21.3874C61.7585 18.6667 59.3901 18.5791 58.5652 18.5791ZM59.0646 23.8001C59.1089 24.1923 58.8201 26.0296 57.4186 26.0296C56.6978 26.0296 56.511 25.4762 56.511 25.1491C56.511 24.5124 56.8568 23.7468 58.5575 23.7468C58.9552 23.7468 58.9965 23.7903 59.0646 23.8001Z" fill="white"/>
<path d="M63.6277 27.8288C64.305 23.9749 64.4302 20.8439 66.0454 21.4147C66.3282 19.9237 66.6004 19.3471 66.9094 18.715C66.9094 18.715 66.7631 18.6843 66.4603 18.6843C65.4187 18.6843 64.6493 20.1091 64.6493 20.1091L64.8563 18.8012H62.6905L61.2417 27.8282H63.6279L63.6277 27.8288Z" fill="white"/>
</g>
<defs>
<clipPath id="clip0">
<rect width="80" height="44" fill="white"/>
</clipPath>
</defs>
</svg>
