<svg width="80" height="44" fill="none" xmlns="http://www.w3.org/2000/svg"><g clip-path="url(#clip0)"><path d="M32.7 9.905L28.685 34.89h6.418l4.012-24.985H32.7zm19.357 10.177c-2.242-1.107-3.617-1.855-3.617-2.988.028-1.03 1.163-2.085 3.698-2.085 2.085-.052 3.617.438 4.78.926l.582.26.873-5.228c-1.268-.49-3.278-1.03-5.76-1.03-6.338 0-10.8 3.295-10.828 8.008-.052 3.477 3.195 5.407 5.625 6.565 2.483 1.187 3.328 1.957 3.328 3.012-.028 1.62-2.008 2.368-3.855 2.368-2.56 0-3.935-.385-6.023-1.288l-.845-.385-.897 5.433c1.507.67 4.28 1.26 7.157 1.29 6.735 0 11.118-3.245 11.173-8.268.022-2.755-1.69-4.865-5.39-6.59zm22.768-10.1H69.86c-1.53 0-2.693.44-3.355 2.01L56.972 34.89h6.735l1.855-4.958h7.535l.963 4.978H80L74.825 9.982zM67.43 24.929c.13.013 2.585-8.092 2.585-8.092l1.955 8.092h-4.54zM23.323 9.905L17.035 26.88l-.685-3.348c-1.162-3.863-4.807-8.06-8.875-10.145l5.758 21.478h6.79l10.09-24.958h-6.79v-.002z" fill="#2394BC"/><path d="M14.235 13.127c-.49-1.905-2.053-3.19-4.175-3.218H.103L0 10.371c7.768 1.915 14.287 7.808 16.402 13.35l-2.167-10.594z" fill="#EFC75E"/></g><defs><clipPath id="clip0"><path fill="#fff" d="M0 0h80v44H0z"/></clipPath></defs></svg>