<svg width="230" height="2118" viewBox="0 0 230 2118" fill="none" xmlns="http://www.w3.org/2000/svg">
<g clip-path="url(#clip0)">
<path d="M199.217 1546.24C204.668 1539.97 209.379 1532.38 209.379 1524.07C209.379 1515.76 203.208 1507.04 194.894 1506.87C190.617 1506.79 186.58 1508.86 182.95 1511.1C176.169 1515.26 168.733 1520.39 160.982 1518.58C158.109 1517.91 155.55 1516.31 152.797 1515.25C143.236 1511.55 131.781 1514.86 124.567 1522.14C117.352 1529.42 114.119 1540.05 114.479 1550.3C114.812 1559.75 118.581 1569.76 126.728 1574.55C132.604 1578.02 139.8 1578.25 146.128 1580.84C152.234 1583.3 157.278 1587.79 163.014 1591C168.751 1594.2 176.012 1596.13 181.823 1593.05C184.214 1591.66 186.273 1589.77 187.855 1587.51C191.084 1583.15 193.333 1578.14 194.449 1572.83C195.565 1567.52 195.521 1562.03 194.321 1556.74C193.398 1551.68 195.171 1550.77 199.217 1546.24Z" stroke="#BAC8CF" stroke-miterlimit="10"/>
<path d="M230.266 1601.05C203.91 1615.63 178.331 1634.22 169.823 1662.54C166.562 1673.4 166.128 1684.87 165.389 1696.26" stroke="#BAC8CF" stroke-miterlimit="10"/>
<path d="M161.777 1721.32C161.481 1722.41 161.148 1723.48 160.788 1724.55C153.934 1744.87 137.121 1760.2 128.022 1779.58C114.978 1807.38 119.366 1840.84 132.308 1868.69C145.25 1896.55 165.887 1919.96 186.1 1943.1C202.09 1961.39 218.164 1980.07 230.266 2001.01" stroke="#BAC8CF" stroke-miterlimit="10"/>
<path d="M230.266 1785.51C217.924 1786.29 205.564 1787.73 194.238 1792.55C180.446 1798.41 168.271 1810.42 166.525 1825.3C164.493 1842.62 176.437 1858.18 188.123 1871.12C201.167 1885.63 215.023 1899.7 230.266 1911.85" stroke="#BAC8CF" stroke-miterlimit="10"/>
<path d="M230.265 1089.54C217.946 1092.03 206.375 1097.35 196.464 1105.08C174.922 1122.09 163.014 1150.59 166.063 1177.85C168.751 1202.02 182.229 1225.1 178.995 1249.21C175.864 1272.65 157.795 1290.93 147.347 1312.15C140.567 1326.21 137.058 1341.62 137.083 1357.22C137.109 1372.83 140.668 1388.23 147.495 1402.26C165.296 1438.12 201.831 1459.8 230.274 1488.22" stroke="#BAC8CF" stroke-miterlimit="10"/>
<path d="M151.403 1708.86C151.392 1706.35 152.126 1703.9 153.512 1701.81C154.898 1699.71 156.873 1698.08 159.188 1697.11C161.503 1696.15 164.053 1695.89 166.515 1696.37C168.978 1696.85 171.241 1698.06 173.019 1699.83C174.797 1701.6 176.01 1703.85 176.503 1706.31C176.997 1708.77 176.749 1711.33 175.792 1713.64C174.834 1715.96 173.209 1717.95 171.124 1719.34C169.039 1720.74 166.586 1721.48 164.077 1721.48C160.725 1721.48 157.51 1720.15 155.134 1717.79C152.759 1715.42 151.417 1712.21 151.403 1708.86V1708.86Z" stroke="#BAC8CF" stroke-miterlimit="10"/>
<path d="M152.001 1686.05C152.001 1685.45 152.18 1684.86 152.514 1684.35C152.849 1683.85 153.326 1683.46 153.883 1683.23C154.44 1683 155.053 1682.94 155.644 1683.06C156.235 1683.18 156.778 1683.47 157.205 1683.89C157.631 1684.32 157.921 1684.86 158.039 1685.45C158.157 1686.04 158.096 1686.66 157.866 1687.21C157.635 1687.77 157.244 1688.25 156.743 1688.58C156.242 1688.92 155.652 1689.1 155.049 1689.1C154.241 1689.1 153.465 1688.78 152.894 1688.2C152.322 1687.63 152.001 1686.86 152.001 1686.05Z" stroke="#BAC8CF" stroke-miterlimit="10"/>
<path d="M139.06 1696.19C139.06 1695.52 139.258 1694.87 139.63 1694.31C140.002 1693.75 140.53 1693.32 141.147 1693.06C141.765 1692.81 142.445 1692.74 143.101 1692.87C143.757 1693 144.359 1693.32 144.832 1693.8C145.305 1694.27 145.627 1694.87 145.757 1695.53C145.888 1696.18 145.821 1696.86 145.565 1697.48C145.309 1698.1 144.876 1698.63 144.32 1699C143.764 1699.37 143.11 1699.57 142.441 1699.57C141.545 1699.57 140.685 1699.21 140.05 1698.58C139.416 1697.95 139.06 1697.09 139.06 1696.19V1696.19Z" stroke="#BAC8CF" stroke-miterlimit="10"/>
<path d="M140.862 1212.63L142.22 1216.24C142.24 1216.29 142.274 1216.33 142.318 1216.36C142.363 1216.39 142.415 1216.41 142.469 1216.41C142.523 1216.41 142.576 1216.39 142.62 1216.36C142.665 1216.33 142.699 1216.29 142.719 1216.24L144.077 1212.63L147.689 1211.27C148.058 1211.13 148.058 1210.91 147.689 1210.76L144.077 1209.41L142.719 1205.8C142.704 1205.75 142.671 1205.7 142.626 1205.66C142.581 1205.63 142.526 1205.61 142.469 1205.61C142.413 1205.61 142.358 1205.63 142.313 1205.66C142.267 1205.7 142.235 1205.75 142.22 1205.8L140.862 1209.41L137.25 1210.76C137.197 1210.78 137.15 1210.81 137.118 1210.86C137.085 1210.9 137.067 1210.96 137.067 1211.01C137.067 1211.07 137.085 1211.13 137.118 1211.17C137.15 1211.22 137.197 1211.25 137.25 1211.27L140.862 1212.63Z" stroke="#BAC8CF" stroke-miterlimit="10"/>
<path d="M173.277 1572.96L174.635 1576.57C174.65 1576.62 174.682 1576.67 174.728 1576.71C174.773 1576.74 174.828 1576.76 174.884 1576.76C174.941 1576.76 174.996 1576.74 175.041 1576.71C175.086 1576.67 175.119 1576.62 175.134 1576.57L176.492 1572.96L180.104 1571.6C180.473 1571.47 180.473 1571.24 180.104 1571.1L176.492 1569.74L175.134 1566.13C175.114 1566.08 175.08 1566.04 175.035 1566.01C174.991 1565.98 174.938 1565.96 174.884 1565.96C174.831 1565.96 174.778 1565.98 174.733 1566.01C174.689 1566.04 174.655 1566.08 174.635 1566.13L173.277 1569.74L169.665 1571.1C169.615 1571.12 169.572 1571.15 169.541 1571.2C169.511 1571.24 169.495 1571.3 169.495 1571.35C169.495 1571.4 169.511 1571.46 169.541 1571.5C169.572 1571.54 169.615 1571.58 169.665 1571.6L173.277 1572.96Z" stroke="#BAC8CF" stroke-miterlimit="10"/>
<path d="M158.506 1773.21L159.855 1776.83C159.877 1776.88 159.912 1776.93 159.957 1776.96C160.003 1776.99 160.055 1777 160.109 1777C160.163 1777 160.216 1776.99 160.261 1776.96C160.306 1776.93 160.342 1776.88 160.363 1776.83L161.712 1773.21L165.333 1771.86C165.703 1771.73 165.703 1771.5 165.333 1771.36L161.712 1770L160.363 1766.39C160.342 1766.34 160.306 1766.3 160.261 1766.27C160.216 1766.24 160.163 1766.22 160.109 1766.22C160.055 1766.22 160.003 1766.24 159.957 1766.27C159.912 1766.3 159.877 1766.34 159.855 1766.39L158.506 1770L154.885 1771.37C154.836 1771.39 154.794 1771.42 154.764 1771.47C154.735 1771.51 154.719 1771.57 154.719 1771.62C154.719 1771.67 154.735 1771.73 154.764 1771.77C154.794 1771.82 154.836 1771.85 154.885 1771.87L158.506 1773.21Z" stroke="#BAC8CF" stroke-miterlimit="10"/>
<path d="M108.336 1883.3L109.694 1886.92C109.713 1886.97 109.748 1887.01 109.792 1887.04C109.836 1887.08 109.889 1887.09 109.943 1887.09C109.997 1887.09 110.049 1887.08 110.094 1887.04C110.138 1887.01 110.173 1886.97 110.192 1886.92L111.55 1883.3L115.162 1881.95C115.532 1881.81 115.532 1881.58 115.162 1881.44L111.55 1880.09L110.192 1876.47C110.173 1876.42 110.138 1876.38 110.094 1876.35C110.049 1876.32 109.997 1876.3 109.943 1876.3C109.889 1876.3 109.836 1876.32 109.792 1876.35C109.748 1876.38 109.713 1876.42 109.694 1876.47L108.336 1880.09L104.724 1881.44C104.674 1881.46 104.632 1881.5 104.603 1881.55C104.573 1881.59 104.557 1881.64 104.557 1881.7C104.557 1881.75 104.573 1881.8 104.603 1881.85C104.632 1881.89 104.674 1881.93 104.724 1881.95L108.336 1883.3Z" stroke="#BAC8CF" stroke-miterlimit="10"/>
<path d="M184.631 1365.6L188.095 1374.83C188.143 1374.97 188.231 1375.08 188.345 1375.16C188.46 1375.24 188.597 1375.28 188.737 1375.28C188.877 1375.28 189.014 1375.24 189.129 1375.16C189.244 1375.08 189.331 1374.97 189.379 1374.83L192.853 1365.6L202.09 1362.13C203.014 1361.77 203.014 1361.21 202.09 1360.84L192.853 1357.37L189.379 1348.14C189.331 1348 189.244 1347.89 189.129 1347.81C189.014 1347.73 188.877 1347.69 188.737 1347.69C188.597 1347.69 188.46 1347.73 188.345 1347.81C188.231 1347.89 188.143 1348 188.095 1348.14L184.631 1357.37L175.393 1360.84C175.262 1360.89 175.15 1360.98 175.071 1361.09C174.991 1361.21 174.949 1361.34 174.949 1361.48C174.949 1361.62 174.991 1361.76 175.071 1361.88C175.15 1361.99 175.262 1362.08 175.393 1362.13L184.631 1365.6Z" stroke="#BAC8CF" stroke-miterlimit="10"/>
<path d="M205.055 1867.71L205.887 1869.92C205.895 1869.96 205.915 1869.99 205.942 1870.01C205.97 1870.03 206.004 1870.04 206.039 1870.04C206.074 1870.04 206.108 1870.03 206.136 1870.01C206.163 1869.99 206.183 1869.96 206.191 1869.92L207.023 1867.71L209.24 1866.88C209.471 1866.79 209.471 1866.65 209.24 1866.57L207.023 1865.74L206.191 1863.52C206.183 1863.49 206.163 1863.46 206.136 1863.44C206.108 1863.41 206.074 1863.4 206.039 1863.4C206.004 1863.4 205.97 1863.41 205.942 1863.44C205.915 1863.46 205.895 1863.49 205.887 1863.52L205.055 1865.74L202.829 1866.57C202.799 1866.58 202.774 1866.6 202.756 1866.63C202.738 1866.66 202.729 1866.69 202.729 1866.72C202.729 1866.76 202.738 1866.79 202.756 1866.81C202.774 1866.84 202.799 1866.86 202.829 1866.88L205.055 1867.71Z" fill="#BAC8CF"/>
<path d="M139.513 1530.55L140.345 1532.76C140.358 1532.79 140.379 1532.82 140.406 1532.84C140.433 1532.85 140.465 1532.86 140.497 1532.86C140.529 1532.86 140.561 1532.85 140.588 1532.84C140.615 1532.82 140.636 1532.79 140.649 1532.76L141.481 1530.55L143.698 1529.71C143.929 1529.63 143.929 1529.48 143.698 1529.4L141.481 1528.57L140.649 1526.35C140.636 1526.32 140.615 1526.3 140.588 1526.28C140.561 1526.26 140.529 1526.25 140.497 1526.25C140.465 1526.25 140.433 1526.26 140.406 1526.28C140.379 1526.3 140.358 1526.32 140.345 1526.35L139.513 1528.57L137.287 1529.4C137.254 1529.41 137.226 1529.43 137.206 1529.46C137.186 1529.49 137.175 1529.52 137.175 1529.56C137.175 1529.59 137.186 1529.63 137.206 1529.65C137.226 1529.68 137.254 1529.7 137.287 1529.71L139.513 1530.55Z" fill="#BAC8CF"/>
<path d="M201.785 1343.14L202.617 1345.36C202.628 1345.39 202.649 1345.42 202.677 1345.44C202.705 1345.46 202.739 1345.47 202.774 1345.47C202.808 1345.47 202.842 1345.46 202.87 1345.44C202.898 1345.42 202.919 1345.39 202.931 1345.36L203.762 1343.14L205.979 1342.31C206.21 1342.22 206.21 1342.09 205.979 1342L203.762 1341.17L202.931 1338.94C202.919 1338.91 202.898 1338.88 202.87 1338.86C202.842 1338.84 202.808 1338.83 202.774 1338.83C202.739 1338.83 202.705 1338.84 202.677 1338.86C202.649 1338.88 202.628 1338.91 202.617 1338.94L201.785 1341.17L199.568 1342C199.538 1342.02 199.513 1342.04 199.495 1342.06C199.478 1342.09 199.468 1342.12 199.468 1342.15C199.468 1342.19 199.478 1342.22 199.495 1342.25C199.513 1342.27 199.538 1342.29 199.568 1342.31L201.785 1343.14Z" fill="#BAC8CF"/>
<path d="M146.802 1262.51C147.732 1263.57 148.951 1264.34 150.309 1264.72C151.667 1265.1 153.107 1265.07 154.451 1264.65C158.248 1263.36 160.206 1259 158.821 1254.92L154.627 1242.52C154.516 1242.17 154.27 1241.87 153.944 1241.7C153.617 1241.53 153.235 1241.49 152.881 1241.6L151.181 1242.17C151.005 1242.24 150.844 1242.34 150.708 1242.47C150.571 1242.6 150.462 1242.75 150.386 1242.92C150.311 1243.09 150.27 1243.28 150.267 1243.47C150.264 1243.66 150.298 1243.84 150.368 1244.02L151.218 1246.52C151.341 1246.85 151.329 1247.22 151.184 1247.54C151.039 1247.87 150.772 1248.12 150.442 1248.25L147.671 1249.17C147.5 1249.22 147.322 1249.24 147.145 1249.22C146.969 1249.2 146.798 1249.14 146.643 1249.06C146.487 1248.97 146.351 1248.86 146.24 1248.72C146.129 1248.58 146.047 1248.42 145.999 1248.25L145.158 1245.74C145.045 1245.39 144.798 1245.1 144.47 1244.92C144.141 1244.75 143.758 1244.71 143.403 1244.82L141.712 1245.39C141.536 1245.46 141.374 1245.56 141.236 1245.69C141.099 1245.82 140.989 1245.97 140.912 1246.14C140.835 1246.32 140.794 1246.5 140.79 1246.69C140.786 1246.88 140.82 1247.07 140.89 1247.24L144.003 1256.48" stroke="#BAC8CF" stroke-miterlimit="10"/>
<path d="M147.871 1262.29L151.897 1260.92C153.332 1260.44 154.103 1258.88 153.617 1257.45L153.031 1255.71C152.546 1254.28 150.989 1253.51 149.554 1253.99L145.528 1255.35C144.093 1255.84 143.322 1257.4 143.808 1258.83L144.394 1260.57C144.879 1262 146.436 1262.77 147.871 1262.29Z" stroke="#BAC8CF" stroke-miterlimit="10"/>
<path d="M155.809 1246.01L157.139 1245.56C157.507 1245.44 157.907 1245.47 158.253 1245.64C158.599 1245.81 158.862 1246.12 158.987 1246.48L161.915 1255.15C161.976 1255.33 162 1255.52 161.987 1255.71C161.973 1255.91 161.922 1256.09 161.836 1256.26C161.75 1256.44 161.632 1256.59 161.487 1256.71C161.342 1256.84 161.173 1256.94 160.991 1257L159.218 1257.6" stroke="#BAC8CF" stroke-miterlimit="10"/>
<path d="M230.266 2077.07C204.243 2084.67 182.229 2106.2 175.402 2132.56C170.783 2150.12 172.049 2170.01 161.315 2184.66C154.848 2193.42 145.075 2198.94 136.936 2206.12C115.163 2225.33 106.387 2257.98 115.597 2285.51C121.214 2302.32 132.687 2316.75 137.823 2333.7C142.193 2348.11 141.684 2363.12 138.876 2378.04" stroke="#BAC8CF" stroke-miterlimit="10"/>
<path d="M206.922 761.038C212.916 774.925 220.769 787.934 230.266 799.707" stroke="#BAC8CF" stroke-miterlimit="10"/>
<path d="M230.266 543.876C226.395 552.273 222.663 560.725 219.273 569.326C210.763 590.966 204.449 613.406 200.428 636.309" stroke="#BAC8CF" stroke-miterlimit="10"/>
<path d="M165.758 228.368C172.787 234.291 180.166 239.785 187.855 244.821C201.588 254.058 215.725 262.631 230.266 270.539" stroke="#BAC8CF" stroke-miterlimit="10"/>
<path d="M230.266 81.8846C203.938 92.4434 178.996 105.644 158.968 125.385C147.994 136.184 138.46 149.404 136.04 164.581C133.564 180.175 138.959 196.184 148.049 209.181" stroke="#BAC8CF" stroke-miterlimit="10"/>
<path d="M90.9294 333.037C87.2893 348.46 96.8411 363.913 112.264 367.553C127.687 371.193 143.14 361.642 146.78 346.219C150.42 330.796 140.868 315.343 125.446 311.702C110.023 308.062 94.5695 317.614 90.9294 333.037Z" stroke="#BAC8CF" stroke-miterlimit="10"/>
<path d="M171.189 217.717C171.189 215.115 170.418 212.572 168.972 210.409C167.527 208.245 165.473 206.559 163.069 205.564C160.665 204.568 158.02 204.308 155.468 204.815C152.917 205.323 150.573 206.576 148.733 208.415C146.893 210.255 145.641 212.599 145.133 215.151C144.625 217.702 144.886 220.347 145.882 222.751C146.877 225.155 148.563 227.209 150.727 228.655C152.89 230.1 155.433 230.872 158.035 230.872C159.763 230.873 161.474 230.534 163.07 229.873C164.667 229.212 166.117 228.243 167.339 227.021C168.561 225.8 169.53 224.349 170.191 222.752C170.851 221.156 171.191 219.445 171.189 217.717V217.717Z" stroke="#BAC8CF" stroke-miterlimit="10"/>
<path d="M187.9 759.827C187.447 762.373 186.402 764.777 184.85 766.845C183.298 768.913 181.283 770.589 178.966 771.737C176.648 772.885 174.094 773.472 171.509 773.453C168.923 773.434 166.378 772.809 164.078 771.627C161.778 770.445 159.787 768.74 158.266 766.649C156.745 764.558 155.736 762.139 155.319 759.587C154.903 757.035 155.092 754.421 155.87 751.955C156.648 749.489 157.994 747.24 159.799 745.389" stroke="#BAC8CF" stroke-miterlimit="10"/>
<path d="M121.49 727.431C121.489 725.894 121.943 724.391 122.795 723.112C123.648 721.833 124.86 720.836 126.28 720.246C127.699 719.657 129.262 719.502 130.769 719.801C132.277 720.099 133.662 720.838 134.75 721.925C135.837 723.011 136.578 724.395 136.878 725.902C137.179 727.409 137.026 728.972 136.438 730.392C135.85 731.813 134.854 733.026 133.577 733.881C132.299 734.735 130.796 735.19 129.259 735.19C127.2 735.19 125.226 734.373 123.769 732.918C122.312 731.463 121.493 729.49 121.49 727.431V727.431Z" stroke="#BAC8CF" stroke-miterlimit="10"/>
<path d="M143.541 634.729C143.541 633.145 144.011 631.597 144.891 630.279C145.771 628.962 147.022 627.936 148.485 627.329C149.949 626.723 151.559 626.565 153.113 626.874C154.667 627.183 156.094 627.946 157.214 629.066C158.334 630.186 159.097 631.613 159.406 633.167C159.715 634.72 159.556 636.331 158.95 637.794C158.344 639.258 157.317 640.509 156 641.389C154.683 642.269 153.134 642.738 151.55 642.738C149.427 642.736 147.391 641.891 145.89 640.39C144.388 638.888 143.544 636.853 143.541 634.729Z" stroke="#BAC8CF" stroke-miterlimit="10"/>
<path d="M230.266 617.177C230.099 617.177 229.933 617.177 229.758 617.177C227.746 617.177 225.817 617.976 224.395 619.399C222.972 620.821 222.173 622.75 222.173 624.762C222.173 626.773 222.972 628.702 224.395 630.124C225.817 631.547 227.746 632.346 229.758 632.346C229.933 632.346 230.099 632.346 230.266 632.346" stroke="#BAC8CF" stroke-miterlimit="10"/>
<path d="M230.266 643.33C220.74 638.39 210.102 635.986 199.378 636.35C188.654 636.714 178.203 639.833 169.034 645.406C159.865 650.98 152.285 658.821 147.025 668.174C141.765 677.527 139.002 688.077 139.002 698.807C139.002 709.538 141.765 720.088 147.025 729.441C152.285 738.794 159.865 746.635 169.034 752.209C178.203 757.783 188.654 760.902 199.378 761.265C210.102 761.629 220.74 759.225 230.266 754.285" stroke="#BAC8CF" stroke-miterlimit="10"/>
<path d="M90.3126 10.7903L91.144 13.0072C91.157 13.0369 91.1783 13.0621 91.2053 13.0799C91.2324 13.0976 91.2641 13.1069 91.2964 13.1069C91.3288 13.1069 91.3605 13.0976 91.3875 13.0799C91.4146 13.0621 91.4359 13.0369 91.4489 13.0072L92.2803 10.7903L94.5066 9.95851C94.7283 9.87537 94.7283 9.72771 94.5066 9.64457L92.2803 8.81326L91.4489 6.59628C91.4359 6.56661 91.4146 6.54139 91.3875 6.52365C91.3605 6.50592 91.3288 6.49614 91.2964 6.49614C91.2641 6.49614 91.2324 6.50592 91.2053 6.52365C91.1783 6.54139 91.157 6.56661 91.144 6.59628L90.3126 8.81326L88.0956 9.64457C88.0629 9.65591 88.0347 9.67732 88.0147 9.70546C87.9947 9.7336 87.9839 9.76701 87.9839 9.80154C87.9839 9.83606 87.9947 9.86992 88.0147 9.89806C88.0347 9.92621 88.0629 9.94716 88.0956 9.95851L90.3126 10.7903Z" fill="#BAC8CF"/>
<path d="M163.957 173.625L164.788 175.842C164.796 175.876 164.816 175.906 164.844 175.928C164.871 175.949 164.905 175.961 164.94 175.961C164.975 175.961 165.009 175.949 165.037 175.928C165.065 175.906 165.084 175.876 165.093 175.842L165.924 173.625L168.141 172.793C168.372 172.71 168.372 172.572 168.141 172.489L165.924 171.657L165.093 169.44C165.084 169.406 165.065 169.376 165.037 169.354C165.009 169.333 164.975 169.321 164.94 169.321C164.905 169.321 164.871 169.333 164.844 169.354C164.816 169.376 164.796 169.406 164.788 169.44L163.957 171.657L161.73 172.489C161.701 172.502 161.675 172.523 161.658 172.55C161.64 172.577 161.63 172.609 161.63 172.641C161.63 172.673 161.64 172.705 161.658 172.732C161.675 172.759 161.701 172.78 161.73 172.793L163.957 173.625Z" fill="#BAC8CF"/>
<path d="M67.477 305.43L68.3084 307.656C68.3214 307.686 68.3427 307.711 68.3698 307.729C68.3968 307.747 68.4285 307.756 68.4609 307.756C68.4932 307.756 68.5249 307.747 68.552 307.729C68.579 307.711 68.6003 307.686 68.6133 307.656L69.4447 305.43L71.6618 304.598C71.8927 304.515 71.8927 304.377 71.6618 304.293L69.4447 303.462L68.6133 301.245C68.6048 301.211 68.5852 301.181 68.5576 301.159C68.53 301.137 68.4959 301.126 68.4609 301.126C68.4258 301.126 68.3917 301.137 68.3641 301.159C68.3365 301.181 68.3169 301.211 68.3084 301.245L67.477 303.462L65.2507 304.293C65.2211 304.306 65.1958 304.328 65.1781 304.355C65.1603 304.382 65.1509 304.414 65.1509 304.446C65.1509 304.478 65.1603 304.51 65.1781 304.537C65.1958 304.564 65.2211 304.585 65.2507 304.598L67.477 305.43Z" fill="#BAC8CF"/>
<path d="M160.298 534.204L161.129 536.421C161.138 536.455 161.157 536.485 161.185 536.507C161.213 536.528 161.247 536.54 161.282 536.54C161.317 536.54 161.351 536.528 161.379 536.507C161.406 536.485 161.426 536.455 161.434 536.421L162.266 534.204L164.492 533.372C164.714 533.289 164.714 533.15 164.492 533.067L162.266 532.236L161.434 530.019C161.426 529.985 161.406 529.955 161.379 529.933C161.351 529.912 161.317 529.9 161.282 529.9C161.247 529.9 161.213 529.912 161.185 529.933C161.157 529.955 161.138 529.985 161.129 530.019L160.298 532.236L158.081 533.067C158.047 533.076 158.017 533.096 157.995 533.123C157.973 533.151 157.962 533.185 157.962 533.22C157.962 533.255 157.973 533.289 157.995 533.317C158.017 533.344 158.047 533.364 158.081 533.372L160.298 534.204Z" fill="#BAC8CF"/>
<path d="M178.534 925.729L179.365 927.946C179.378 927.976 179.399 928.001 179.426 928.019C179.453 928.037 179.485 928.046 179.517 928.046C179.55 928.046 179.582 928.037 179.609 928.019C179.636 928.001 179.657 927.976 179.67 927.946L180.501 925.729L182.718 924.897C182.949 924.805 182.949 924.667 182.718 924.584L180.501 923.752L179.67 921.535C179.657 921.505 179.636 921.48 179.609 921.462C179.582 921.444 179.55 921.435 179.517 921.435C179.485 921.435 179.453 921.444 179.426 921.462C179.399 921.48 179.378 921.505 179.365 921.535L178.534 923.752L176.307 924.584C176.275 924.595 176.246 924.616 176.226 924.644C176.206 924.672 176.196 924.706 176.196 924.741C176.196 924.775 176.206 924.809 176.226 924.837C176.246 924.865 176.275 924.886 176.307 924.897L178.534 925.729Z" fill="#BAC8CF"/>
<path d="M135.366 903.715L136.724 907.327C136.743 907.377 136.778 907.42 136.822 907.451C136.867 907.481 136.919 907.497 136.973 907.497C137.027 907.497 137.08 907.481 137.124 907.451C137.169 907.42 137.203 907.377 137.223 907.327L138.581 903.715L142.193 902.357C142.562 902.219 142.562 901.988 142.193 901.849L138.581 900.5L137.223 896.879C137.203 896.829 137.169 896.786 137.124 896.755C137.08 896.725 137.027 896.709 136.973 896.709C136.919 896.709 136.867 896.725 136.822 896.755C136.778 896.786 136.743 896.829 136.724 896.879L135.366 900.5L131.754 901.849C131.704 901.871 131.662 901.906 131.633 901.951C131.603 901.996 131.588 902.049 131.588 902.103C131.588 902.157 131.603 902.21 131.633 902.255C131.662 902.3 131.704 902.336 131.754 902.357L135.366 903.715Z" stroke="#BAC8CF" stroke-miterlimit="10"/>
<path d="M144.539 388.062L145.897 391.674C145.912 391.729 145.944 391.777 145.989 391.811C146.034 391.845 146.089 391.864 146.146 391.864C146.203 391.864 146.258 391.845 146.303 391.811C146.348 391.777 146.381 391.729 146.396 391.674L147.753 388.062L151.365 386.704C151.735 386.574 151.735 386.343 151.365 386.205L147.753 384.847L146.396 381.235C146.376 381.185 146.342 381.142 146.297 381.111C146.253 381.081 146.2 381.065 146.146 381.065C146.092 381.065 146.04 381.081 145.995 381.111C145.951 381.142 145.916 381.185 145.897 381.235L144.539 384.847L140.927 386.205C140.877 386.224 140.834 386.259 140.803 386.304C140.773 386.348 140.757 386.4 140.757 386.454C140.757 386.508 140.773 386.561 140.803 386.605C140.834 386.65 140.877 386.684 140.927 386.704L144.539 388.062Z" stroke="#BAC8CF" stroke-miterlimit="10"/>
<path d="M152.206 64.1663L153.554 67.7784C153.576 67.8278 153.612 67.8697 153.657 67.8993C153.702 67.9288 153.755 67.9448 153.808 67.9448C153.862 67.9448 153.915 67.9288 153.96 67.8993C154.005 67.8697 154.041 67.8278 154.063 67.7784L155.411 64.1663L159.032 62.8086C159.402 62.67 159.402 62.4482 159.032 62.3097L155.411 60.9515L154.063 57.3394C154.041 57.29 154.005 57.2481 153.96 57.2185C153.915 57.189 153.862 57.1734 153.808 57.1734C153.755 57.1734 153.702 57.189 153.657 57.2185C153.612 57.2481 153.576 57.29 153.554 57.3394L152.206 60.9515L148.584 62.3097C148.534 62.3293 148.491 62.3635 148.461 62.408C148.431 62.4525 148.414 62.5053 148.414 62.5591C148.414 62.613 148.431 62.6653 148.461 62.7098C148.491 62.7543 148.534 62.7889 148.584 62.8086L152.206 64.1663Z" stroke="#BAC8CF" stroke-miterlimit="10"/>
<path d="M90.451 343.065C81.0746 339.37 75.4119 335.295 75.9939 331.896C77.0285 325.827 97.5826 324.275 121.906 328.423C146.229 332.571 165.139 340.857 164.067 346.898C163.448 350.593 155.753 352.58 144.317 352.69" stroke="#BAC8CF" stroke-miterlimit="10"/>
<path d="M230.266 692.668C225.379 691.514 220.215 691.394 215.162 691.394C206.645 691.394 197.85 691.652 190.109 695.2C183.938 698.017 178.645 702.83 172.058 704.438C165.887 705.98 159.384 704.539 153.038 704.927C148.399 705.211 143.873 706.47 139.754 708.622" stroke="#BAC8CF" stroke-miterlimit="10"/>
<path d="M86.3676 94.6142V108.027C86.3593 108.195 86.3946 108.362 86.4701 108.512C86.5456 108.662 86.6587 108.79 86.7983 108.883C86.938 108.976 87.0994 109.031 87.2667 109.043C87.4341 109.055 87.6018 109.023 87.7533 108.951L92.483 106.753C93.4715 108.222 98.3952 109.866 100.067 109.275L102.534 113.894C102.614 114.042 102.731 114.167 102.873 114.256C103.015 114.346 103.178 114.397 103.346 114.406C103.514 114.414 103.682 114.379 103.832 114.304C103.983 114.228 104.111 114.116 104.206 113.977L112.215 103.215C113.015 102.174 113.42 100.883 113.357 99.5723C113.294 98.2613 112.769 97.015 111.873 96.0553C109.085 93.481 105.74 91.5843 102.1 90.5127C98.5408 89.1914 94.7255 88.7079 90.9496 89.0995C89.6563 89.327 88.4859 90.0061 87.6467 91.0161C86.8076 92.0261 86.3543 93.3012 86.3676 94.6142Z" stroke="#BAC8CF" stroke-miterlimit="10"/>
<path d="M103.042 97.3853C102.561 97.0584 101.993 96.8837 101.412 96.8837C100.83 96.8837 100.262 97.0584 99.7811 97.3853C99.6089 96.824 99.263 96.3322 98.7931 95.9802C98.3233 95.6282 97.7538 95.4342 97.1668 95.4267" stroke="#BAC8CF" stroke-miterlimit="10"/>
<path d="M110.516 105.45L112.622 106.892" stroke="#BAC8CF" stroke-miterlimit="10"/>
<path d="M112.262 103.085L114.331 104.074" stroke="#BAC8CF" stroke-miterlimit="10"/>
<path d="M86.1738 97.3579L83.615 97.2564" stroke="#BAC8CF" stroke-miterlimit="10"/>
<path d="M86.1836 94.4204L83.9388 93.9766" stroke="#BAC8CF" stroke-miterlimit="10"/>
<path d="M115.393 310.935C111.514 288.715 105.64 266.89 97.8412 245.726C88.4556 220.414 76.0585 196.156 68.9362 170.114C58.2573 131.085 60.89 86.3643 85.2686 54.069C103.661 29.7089 132.446 14.8825 162.09 7.62158C184.325 2.17129 207.281 0.6101 230.219 0.000405636" stroke="#BAC8CF" stroke-miterlimit="10"/>
<path d="M230.266 944.122C189.065 892.713 134.885 850.182 109.509 789.583C81.9067 723.634 93.5001 648.688 104.65 578.037C115.569 508.901 125.417 437.429 121.722 367.951" stroke="#BAC8CF" stroke-miterlimit="10"/>
</g>
<defs>
<clipPath id="clip0">
<rect width="230" height="2118" fill="white"/>
</clipPath>
</defs>
</svg>
