<svg width="109" height="108" viewBox="0 0 109 108" fill="none" xmlns="http://www.w3.org/2000/svg">
<g filter="url(#filter0_d)">
<path d="M32.7785 51.9913C32.7152 51.9913 32.6518 51.989 32.5877 51.9852L5.05629 50.2663C4.00878 50.2015 3.06883 49.6026 2.56682 48.6817C2.06557 47.7608 2.07167 46.6462 2.58437 45.7306C2.72856 45.4728 6.19841 39.3547 12.8062 34.0187C21.7357 26.8089 32.1162 24.4705 42.8249 27.2568C43.7137 27.4879 44.4507 28.1075 44.8322 28.9429C45.2136 29.7783 45.1984 30.7411 44.7902 31.5636L35.5121 50.2945C34.9948 51.3382 33.932 51.9913 32.7785 51.9913Z" fill="#FF5B5B"/>
<path d="M54.974 100C54.472 100 53.97 99.8765 53.5145 99.6278C52.5937 99.1258 51.9948 98.1866 51.9291 97.1391L50.211 69.6077C50.1347 68.3816 50.8008 67.2288 51.9017 66.6833L70.6326 57.4045C71.4558 56.997 72.4179 56.9818 73.2533 57.3633C74.0895 57.744 74.7083 58.4817 74.9394 59.3705C77.7264 70.0792 75.388 80.4597 68.1775 89.3891C62.8422 95.997 56.7235 99.466 56.4656 99.611C56.0025 99.8704 55.4883 100 54.974 100Z" fill="#FF193D"/>
<path d="M97.3019 24.6208L77.5754 4.89425C76.785 4.10384 75.6253 3.80935 74.5534 4.12597C61.3476 8.03222 50.507 14.1586 42.3306 22.3343C40.6254 24.0402 38.9874 25.8888 37.4631 27.8282C33.0304 33.4641 29.3278 40.1276 26.4592 47.6341C24.6319 52.4185 23.1442 57.544 22.0372 62.8678C20.1039 72.1672 20.0001 78.8323 19.9963 79.1115C19.9864 79.9332 20.3084 80.7251 20.8897 81.3065C21.4619 81.8787 22.2386 82.1999 23.0473 82.1999H23.0847C23.3647 82.1968 30.0297 82.0931 39.3284 80.1598C44.6522 79.0528 49.7777 77.565 54.5628 75.737C62.0686 72.8684 68.7321 69.1666 74.3665 64.7347C76.3074 63.2095 78.156 61.5715 79.8619 59.8656C88.0383 51.6892 94.1647 40.8485 98.0702 27.6428C98.3876 26.5709 98.0924 25.4112 97.3019 24.6208Z" fill="#E1F1FA"/>
<path d="M41.4112 75.5632L26.6315 60.7836C25.5405 59.6926 23.8063 59.588 22.5917 60.5402C21.648 61.2802 20.75 62.0752 19.923 62.9022C9.6393 73.1859 9.32115 89.1199 9.31276 89.7928C9.30208 90.6153 9.62404 91.4072 10.2062 91.9886C10.7784 92.5615 11.5543 92.8827 12.363 92.8827C12.376 92.8827 12.3889 92.8827 12.4019 92.882C13.0748 92.8736 29.0096 92.5554 39.2925 82.2718C40.1195 81.4447 40.9145 80.5468 41.6545 79.603C42.6067 78.3884 42.5022 76.6542 41.4112 75.5632Z" fill="#FFF261"/>
<path d="M26.6941 47.0237L17.6266 56.092C17.0544 56.6634 16.7324 57.4393 16.7324 58.2488C16.7324 59.0575 17.0544 59.8334 17.6266 60.4056L41.7896 84.5687C42.3611 85.1409 43.137 85.4621 43.9465 85.4621C44.7559 85.4621 45.5311 85.1409 46.1033 84.5687L55.1708 75.5012L26.6941 47.0237Z" fill="#1B3B6B"/>
<path d="M66.2771 45.2248C63.7915 45.2248 61.4538 44.2566 59.696 42.4988C56.0675 38.8703 56.0675 32.9666 59.696 29.3373C61.4538 27.5795 63.7915 26.6113 66.2771 26.6113C68.7628 26.6113 71.1004 27.5795 72.8582 29.3373C74.616 31.0951 75.5842 33.432 75.5842 35.9184C75.5842 38.4041 74.616 40.741 72.8582 42.4988C71.1004 44.2566 68.7628 45.2248 66.2771 45.2248Z" fill="#06CCAB"/>
<path d="M66.2781 48.2086C62.9951 48.2086 59.909 46.9299 57.5882 44.609C52.7961 39.817 52.7961 32.0197 57.5882 27.2277C59.909 24.9069 62.9959 23.6282 66.2781 23.6282C69.561 23.6282 72.6471 24.9069 74.9687 27.2277C77.2904 29.5493 78.5683 32.6354 78.5683 35.9184C78.5683 39.2013 77.2904 42.2874 74.9687 44.609C72.6471 46.9299 69.561 48.2086 66.2781 48.2086ZM66.2781 29.7294C64.6255 29.7294 63.0707 30.3733 61.9018 31.5421C59.4894 33.9553 59.4894 37.8814 61.9018 40.2946C63.0707 41.4634 64.6255 42.1073 66.2781 42.1073C67.9314 42.1073 69.4855 41.4634 70.6543 40.2946C71.8231 39.1258 72.467 37.5717 72.467 35.9184C72.467 34.2651 71.8231 32.711 70.6543 31.5421C69.4855 30.3733 67.9314 29.7294 66.2781 29.7294Z" fill="#1B3B6B"/>
<path d="M101.302 0.894209C100.72 0.312085 99.9235 -0.0152157 99.1056 0.000806031C98.6532 0.00614661 87.8691 0.187726 74.5527 4.12602L98.0696 27.6429C102.008 14.3265 102.189 3.54237 102.195 3.08995C102.205 2.2675 101.883 1.47557 101.302 0.894209Z" fill="#FF5B5B"/>
<path d="M97.3009 24.6209L87.4376 14.7576L20.8887 81.3065C21.4609 81.8787 22.2368 82.1999 23.0455 82.1999H23.0836C23.3629 82.1969 30.0279 82.0931 39.3274 80.1598C44.6512 79.0528 49.7759 77.5651 54.561 75.7371C62.0676 72.8684 68.7311 69.1666 74.3654 64.7347C76.3056 63.2096 78.1549 61.5716 79.8601 59.8656C88.0365 51.6892 94.1629 40.8486 98.0684 27.6429C98.3866 26.5709 98.0913 25.4113 97.3009 24.6209Z" fill="#CDEBFC"/>
<path d="M41.4128 75.5631L34.023 68.1732L10.207 91.9884V91.9892C10.78 92.5614 11.5559 92.8826 12.3646 92.8826H12.4028C13.0764 92.8742 29.0104 92.5553 39.2941 82.2716C40.1211 81.4446 40.9161 80.5466 41.6554 79.6028C42.6083 78.3882 42.5046 76.6541 41.4128 75.5631Z" fill="#FDBF00"/>
<path d="M40.9322 61.2625L29.707 72.4876L41.7889 84.5695C42.3604 85.1409 43.1363 85.4629 43.9458 85.4629C44.7552 85.4629 45.5304 85.1409 46.1026 84.5695L55.1701 75.5012L40.9322 61.2625Z" fill="#001035"/>
<path d="M72.8576 29.3373C72.8568 29.3373 72.8568 29.3373 72.8568 29.3373L59.6953 42.4988H59.6961C61.4531 44.2566 63.7908 45.2248 66.2764 45.2248C68.7621 45.2248 71.0997 44.2566 72.8576 42.4988C74.6154 40.741 75.5835 38.4041 75.5835 35.9184C75.5828 33.4327 74.6154 31.0951 72.8576 29.3373Z" fill="#1CADB5"/>
<path d="M74.9673 27.2278L70.6528 31.5422C71.8217 32.711 72.4656 34.2651 72.4656 35.9184C72.4656 37.5717 71.8217 39.1258 70.6528 40.2946C69.484 41.4635 67.9299 42.1074 66.2766 42.1074C64.6233 42.1074 63.0692 41.4635 61.9004 40.2946C61.9004 40.2946 61.9004 40.2946 61.9004 40.2939L57.5859 44.6083V44.6091C59.9076 46.9299 62.9937 48.2086 66.2766 48.2086C69.5595 48.2086 72.6456 46.9299 74.9673 44.6091C77.2881 42.2874 78.5668 39.2014 78.5668 35.9184C78.5668 32.6355 77.2881 29.5494 74.9673 27.2278Z" fill="#001035"/>
<path d="M101.301 0.893311L86.3105 15.8843L98.069 27.6427C102.007 14.3264 102.189 3.54224 102.194 3.08981C102.205 2.26736 101.883 1.47543 101.301 0.893311Z" fill="#FF193D"/>
</g>
<defs>
<filter id="filter0_d" x="0" y="0" width="108.195" height="108" filterUnits="userSpaceOnUse" color-interpolation-filters="sRGB">
<feFlood flood-opacity="0" result="BackgroundImageFix"/>
<feColorMatrix in="SourceAlpha" type="matrix" values="0 0 0 0 0 0 0 0 0 0 0 0 0 0 0 0 0 0 127 0"/>
<feOffset dx="2" dy="4"/>
<feGaussianBlur stdDeviation="2"/>
<feColorMatrix type="matrix" values="0 0 0 0 0 0 0 0 0 0 0 0 0 0 0 0 0 0 0.25 0"/>
<feBlend mode="normal" in2="BackgroundImageFix" result="effect1_dropShadow"/>
<feBlend mode="normal" in="SourceGraphic" in2="effect1_dropShadow" result="shape"/>
</filter>
</defs>
</svg>
