<svg width="174" height="2118" viewBox="0 0 174 2118" fill="none" xmlns="http://www.w3.org/2000/svg">
<g clip-path="url(#clip0)">
<path d="M65.0896 109.393C65.0868 113.26 63.9378 117.041 61.7879 120.256C59.638 123.47 56.5836 125.975 53.011 127.453C49.4383 128.932 45.5078 129.317 41.7163 128.561C37.9247 127.805 34.4424 125.941 31.7096 123.205C28.9768 120.468 27.1162 116.983 26.3629 113.189C25.6097 109.396 25.9977 105.463 27.4778 101.89C28.958 98.3169 31.4638 95.2629 34.6786 93.1143C37.8934 90.9657 41.6728 89.8188 45.5389 89.8188C48.1075 89.8188 50.6509 90.3252 53.0238 91.3091C55.3967 92.2929 57.5526 93.7349 59.3682 95.5527C61.1839 97.3705 62.6237 99.5284 63.6054 101.903C64.587 104.278 65.0914 106.823 65.0896 109.393V109.393Z" stroke="#BAC8CF" stroke-miterlimit="10"/>
<path d="M80.4161 84.1716C80.4161 83.0547 80.085 81.9629 79.4648 81.0342C78.8446 80.1055 77.963 79.3817 76.9316 78.9543C75.9002 78.5269 74.7653 78.415 73.6703 78.6329C72.5754 78.8508 71.5696 79.3887 70.7802 80.1784C69.9908 80.9682 69.4532 81.9744 69.2354 83.0699C69.0176 84.1653 69.1294 85.3008 69.5566 86.3327C69.9838 87.3646 70.7073 88.2466 71.6356 88.8671C72.5638 89.4876 73.6551 89.8188 74.7715 89.8188C76.2685 89.8188 77.7043 89.2238 78.7628 88.1648C79.8214 87.1057 80.4161 85.6693 80.4161 84.1716Z" stroke="#BAC8CF" stroke-miterlimit="10"/>
<path d="M131.892 94.2196L130.848 91.4901C130.833 91.4523 130.807 91.4198 130.773 91.3969C130.74 91.3741 130.7 91.3618 130.66 91.3618C130.619 91.3618 130.579 91.3741 130.546 91.3969C130.512 91.4198 130.487 91.4523 130.472 91.4901L129.456 94.2196L126.734 95.2363C126.456 95.3407 126.456 95.5148 126.734 95.6193L129.456 96.6359L130.479 99.3655C130.493 99.4033 130.519 99.4357 130.553 99.4586C130.586 99.4815 130.626 99.4937 130.667 99.4937C130.707 99.4937 130.747 99.4815 130.78 99.4586C130.814 99.4357 130.84 99.4033 130.855 99.3655L131.878 96.6359L134.599 95.6193C134.636 95.603 134.668 95.5762 134.69 95.5422C134.713 95.5082 134.724 95.4684 134.724 95.4278C134.724 95.3871 134.713 95.3473 134.69 95.3133C134.668 95.2793 134.636 95.2525 134.599 95.2363L131.892 94.2196Z" stroke="#BAC8CF" stroke-miterlimit="10"/>
<path d="M46.298 206.251L45.2749 203.529C45.2601 203.491 45.2343 203.458 45.2007 203.436C45.1672 203.413 45.1276 203.4 45.087 203.4C45.0464 203.4 45.0068 203.413 44.9733 203.436C44.9397 203.458 44.9139 203.491 44.8991 203.529L43.8481 206.251L41.1268 207.275C40.8484 207.379 40.8484 207.546 41.1268 207.651L43.8481 208.674L44.8712 211.397C44.8861 211.435 44.9119 211.467 44.9454 211.49C44.979 211.513 45.0186 211.525 45.0592 211.525C45.0997 211.525 45.1394 211.513 45.1729 211.49C45.2064 211.467 45.2323 211.435 45.2471 211.397L46.2702 208.674L48.9916 207.651C49.0293 207.636 49.0618 207.61 49.0847 207.577C49.1075 207.543 49.1198 207.503 49.1198 207.463C49.1198 207.422 49.1075 207.383 49.0847 207.349C49.0618 207.316 49.0293 207.29 48.9916 207.275L46.298 206.251Z" stroke="#BAC8CF" stroke-miterlimit="10"/>
<path d="M120.366 362.855L119.74 361.184C119.731 361.159 119.715 361.138 119.694 361.123C119.673 361.107 119.647 361.099 119.621 361.099C119.595 361.099 119.57 361.107 119.549 361.123C119.528 361.138 119.512 361.159 119.503 361.184L118.877 362.855L117.206 363.481C117.039 363.544 117.039 363.649 117.206 363.718L118.877 364.345L119.503 366.016C119.512 366.041 119.528 366.062 119.549 366.077C119.57 366.092 119.595 366.1 119.621 366.1C119.647 366.1 119.673 366.092 119.694 366.077C119.715 366.062 119.731 366.041 119.74 366.016L120.366 364.345L122.037 363.718C122.061 363.71 122.082 363.694 122.098 363.672C122.113 363.651 122.121 363.626 122.121 363.6C122.121 363.574 122.113 363.548 122.098 363.527C122.082 363.506 122.061 363.49 122.037 363.481L120.366 362.855Z" fill="#BAC8CF"/>
<path d="M52.0954 456.385L51.0723 453.655C51.0575 453.618 51.0316 453.585 50.9981 453.562C50.9646 453.539 50.9249 453.527 50.8844 453.527C50.8438 453.527 50.8042 453.539 50.7706 453.562C50.7371 453.585 50.7113 453.618 50.6964 453.655L49.6733 456.385L46.952 457.402C46.6736 457.506 46.6736 457.68 46.952 457.785L49.6733 458.801L50.6964 461.531C50.7113 461.569 50.7371 461.601 50.7706 461.624C50.8042 461.647 50.8438 461.659 50.8844 461.659C50.9249 461.659 50.9646 461.647 50.9981 461.624C51.0316 461.601 51.0575 461.569 51.0723 461.531L52.0954 458.801L54.8168 457.785C54.854 457.768 54.8857 457.742 54.908 457.708C54.9303 457.674 54.9421 457.634 54.9421 457.593C54.9421 457.552 54.9303 457.513 54.908 457.479C54.8857 457.445 54.854 457.418 54.8168 457.402L52.0954 456.385Z" stroke="#BAC8CF" stroke-miterlimit="10"/>
<path d="M98.3099 568.458L97.6766 566.773C97.668 566.748 97.652 566.727 97.6308 566.712C97.6096 566.697 97.5842 566.689 97.5582 566.689C97.5322 566.689 97.5069 566.697 97.4857 566.712C97.4645 566.727 97.4485 566.748 97.4399 566.773L96.8135 568.458L95.1292 569.085C94.9621 569.148 94.9621 569.259 95.1292 569.322L96.8135 569.948L97.4399 571.633C97.4485 571.658 97.4645 571.679 97.4857 571.694C97.5069 571.709 97.5322 571.718 97.5582 571.718C97.5842 571.718 97.6096 571.709 97.6308 571.694C97.652 571.679 97.668 571.658 97.6766 571.633L98.3099 569.948L99.9873 569.322C100.012 569.313 100.033 569.297 100.048 569.276C100.063 569.255 100.071 569.229 100.071 569.203C100.071 569.177 100.063 569.152 100.048 569.131C100.033 569.109 100.012 569.093 99.9873 569.085L98.3099 568.458Z" fill="#BAC8CF"/>
<path d="M140.126 272.423C140.126 273.165 139.906 273.891 139.494 274.508C139.081 275.125 138.496 275.606 137.81 275.89C137.125 276.174 136.37 276.249 135.643 276.104C134.915 275.959 134.246 275.602 133.722 275.077C133.197 274.552 132.84 273.883 132.695 273.155C132.55 272.427 132.625 271.672 132.909 270.987C133.193 270.301 133.673 269.715 134.29 269.302C134.907 268.89 135.633 268.67 136.374 268.67C137.369 268.67 138.324 269.065 139.027 269.769C139.731 270.473 140.126 271.427 140.126 272.423Z" stroke="#BAC8CF" stroke-miterlimit="10"/>
<path d="M84.0836 481.383C84.085 483.273 83.5261 485.121 82.4777 486.693C81.4292 488.265 79.9383 489.49 78.1936 490.214C76.4488 490.939 74.5286 491.129 72.6758 490.761C70.823 490.393 69.1209 489.484 67.7847 488.148C66.4485 486.812 65.5384 485.11 65.1693 483.256C64.8003 481.403 64.989 479.482 65.7116 477.736C66.4341 475.99 67.658 474.497 69.2285 473.447C70.799 472.397 72.6455 471.836 74.5345 471.836C77.0659 471.836 79.4937 472.842 81.2843 474.632C83.0749 476.422 84.0818 478.85 84.0836 481.383V481.383Z" stroke="#BAC8CF" stroke-miterlimit="10"/>
<path d="M70.233 489.906C65.2006 500.47 60.9008 511.367 57.364 522.522C49.4157 547.227 43.9033 573.792 27.3316 593.77C19.7869 602.871 10.377 610.05 0.347656 616.407" stroke="#BAC8CF" stroke-miterlimit="10"/>
<path d="M61.415 120.784C78.5366 134.196 95.2406 148.066 110.212 163.748C142.297 197.352 166.142 239.925 172.33 285.987C178.517 332.049 165.648 381.467 133.632 415.121C122.621 426.68 109.641 436.226 98.6371 447.792C91.3323 455.538 84.8654 464.034 79.344 473.138" stroke="#BAC8CF" stroke-miterlimit="10"/>
<path d="M0.348633 72.2576C10.0926 80.7945 20.2194 88.9067 30.4854 96.9005" stroke="#BAC8CF" stroke-miterlimit="10"/>
<path d="M30.833 122.268C31.5373 120.423 32.4954 118.687 33.6796 117.108C33.8459 116.841 34.0883 116.63 34.3756 116.502C34.7316 116.423 35.1038 116.464 35.4336 116.62L39.5678 118.048C40.0853 118.287 40.6654 118.355 41.2243 118.243C41.741 118.016 42.1723 117.631 42.4562 117.143L44.5442 114.267C44.7458 113.928 45.0341 113.649 45.3794 113.459C45.6807 113.372 45.9968 113.347 46.308 113.386C46.6192 113.426 46.9191 113.529 47.189 113.689L49.625 114.685C49.854 114.823 50.1115 114.908 50.378 114.932C50.6445 114.956 50.9131 114.919 51.1632 114.824C51.3832 114.664 51.5621 114.454 51.6852 114.211L53.8915 110.632C54.0508 110.294 54.3244 110.022 54.6641 109.866C54.9607 109.81 55.267 109.839 55.548 109.95C57.0114 110.353 58.5061 110.632 60.0163 110.785C60.2706 110.836 60.5342 110.812 60.7749 110.716C61.0184 110.546 61.1993 110.302 61.29 110.019L62.2435 107.742C62.2967 107.558 62.4092 107.396 62.5636 107.283C62.7155 107.22 62.8811 107.199 63.0439 107.22C63.4545 107.22 64.5751 107.359 64.9857 107.387" stroke="#BAC8CF" stroke-linecap="round" stroke-linejoin="round"/>
<path d="M26.8027 103.773C28.3479 104.365 30.2271 105.166 31.7652 105.751C32.2346 105.992 32.7716 106.068 33.2895 105.967C33.6537 105.816 33.9744 105.577 34.2221 105.27L35.1617 104.275C35.3209 104.059 35.5539 103.911 35.8159 103.857C36.0354 103.864 36.2471 103.939 36.4215 104.073C37.1175 104.463 37.7369 104.86 38.3911 105.256C38.6131 105.428 38.8912 105.51 39.1707 105.486C39.4839 105.424 39.6787 105.103 39.8249 104.79L41.3213 101.963C41.368 101.847 41.4449 101.746 41.544 101.67C41.6463 101.622 41.758 101.597 41.8711 101.597C41.9843 101.597 42.096 101.622 42.1983 101.67C43.4833 102.091 44.8043 102.391 46.1446 102.569C46.3123 102.609 46.4889 102.592 46.6457 102.52C46.7769 102.412 46.8716 102.266 46.9171 102.102C47.4252 100.709 47.9403 99.3168 48.4483 97.9729C48.4579 97.8952 48.4851 97.8207 48.5277 97.7551C48.5704 97.6895 48.6274 97.6345 48.6945 97.5942C48.7616 97.5539 48.837 97.5295 48.9149 97.5227C48.9929 97.5159 49.0713 97.527 49.1443 97.5551L53.7171 98.0147C53.8745 98.0459 54.0377 98.0264 54.1834 97.9589C54.3171 97.8556 54.4086 97.7071 54.4409 97.5412C54.6715 96.8227 54.8437 96.0869 54.9559 95.3408C54.9638 95.1634 55.0271 94.9929 55.1369 94.8533C55.2592 94.7565 55.4064 94.6961 55.5615 94.6793C56.0417 94.5887 57.5103 94.3729 57.9905 94.2754" stroke="#BAC8CF" stroke-linecap="round" stroke-linejoin="round"/>
<path d="M55.6797 262.702C55.9998 262.006 59.2919 256.435 60.2942 254.785C61.0224 255.952 61.6801 257.161 62.2638 258.406C62.3474 258.434 62.4378 258.434 62.5214 258.406C63.967 258.217 65.4359 258.329 66.8366 258.733C66.8781 258.752 66.9232 258.762 66.9688 258.762C67.0144 258.762 67.0595 258.752 67.101 258.733C67.1784 258.676 67.2386 258.599 67.275 258.51C67.7453 257.447 68.3872 256.469 69.1751 255.614C70.4627 257.612 71.7155 264.004 71.8338 264.972" stroke="#BAC8CF" stroke-linecap="round" stroke-linejoin="round"/>
<path d="M56.9044 264.513C55.225 265.376 53.7729 266.624 52.6657 268.154C52.2139 268.773 51.9701 269.519 51.9697 270.285C51.9735 270.667 52.1083 271.036 52.3516 271.33C52.5949 271.624 52.9319 271.826 53.306 271.901C53.6101 271.91 53.9122 271.849 54.1888 271.722C54.4653 271.596 54.7087 271.406 54.8999 271.17C55.3105 270.724 55.5959 270.181 55.9717 269.707C56.1447 269.457 56.3663 269.244 56.6235 269.081C56.8806 268.918 57.1679 268.809 57.4681 268.76C57.8878 268.788 58.2974 268.901 58.672 269.093C59.0465 269.285 59.3781 269.55 59.6466 269.874C59.8443 270.086 59.9542 270.365 59.9542 270.654C59.9542 270.944 59.8443 271.223 59.6466 271.434C59.3335 271.767 59.0794 272.151 58.8949 272.569C58.7195 272.935 58.639 273.339 58.6609 273.745C58.6828 274.15 58.8064 274.543 59.0202 274.888C59.2128 275.152 59.4856 275.347 59.7978 275.444C60.1101 275.54 60.4452 275.533 60.7532 275.424C61.491 275.139 61.9434 274.345 62.4167 273.662C64.1845 271.149 69.5994 272.966 71.3533 274.505" stroke="#BAC8CF" stroke-linecap="round" stroke-linejoin="round"/>
<path d="M71.8477 265.021C73.5898 265.587 75.2214 266.449 76.6709 267.57C78.5571 269.136 79.8725 271.601 79.3923 274.011" stroke="#BAC8CF" stroke-linecap="round" stroke-linejoin="round"/>
<path d="M72.6201 273.119C72.1883 273.286 71.8206 273.585 71.5703 273.975C71.32 274.364 71.2002 274.823 71.2281 275.285C71.2683 275.744 71.415 276.186 71.6567 276.578C71.8984 276.97 72.2283 277.3 72.6201 277.541C72.7175 277.611 72.8289 277.687 72.8428 277.806C72.8377 277.907 72.7927 278.002 72.7175 278.07C72.3214 278.465 71.9031 278.837 71.4647 279.184C71.0189 279.537 70.701 280.026 70.5599 280.577C70.4944 280.848 70.5227 281.134 70.6403 281.387C70.7578 281.64 70.9577 281.845 71.2072 281.97C71.4756 282.029 71.7537 282.028 72.0219 281.968C72.2901 281.908 72.5418 281.79 72.7593 281.622C75.0893 280.255 77.0958 278.4 78.6405 276.183" stroke="#BAC8CF" stroke-linecap="round" stroke-linejoin="round"/>
<path d="M67.4353 272.973C67.217 273.236 67.0565 273.541 66.9641 273.87C66.8718 274.199 66.8498 274.543 66.8994 274.881C66.9168 274.94 66.9168 275.003 66.8994 275.062C66.8669 275.127 66.8128 275.179 66.7463 275.208C66.2338 275.471 65.792 275.853 65.4587 276.322C65.2987 276.557 65.2233 276.84 65.2448 277.123C65.2663 277.406 65.3835 277.674 65.577 277.882C65.8249 278.034 66.1064 278.122 66.3965 278.139C66.6867 278.156 66.9765 278.101 67.2405 277.98C68.6861 277.447 70.0551 276.726 71.3121 275.835" stroke="#BAC8CF" stroke-linecap="round" stroke-linejoin="round"/>
<path d="M79.5246 273.969C80.5341 273.66 81.4268 273.053 82.0859 272.228C82.4083 271.82 82.6377 271.346 82.7579 270.839C82.8781 270.333 82.8863 269.806 82.7819 269.297C82.6101 268.828 82.4774 268.346 82.3851 267.855C82.3762 267.431 82.487 267.014 82.705 266.65C82.923 266.287 83.2391 265.992 83.6171 265.801C84.3862 265.428 85.2657 265.351 86.0879 265.585C86.6837 265.715 87.2167 266.046 87.5971 266.523C87.9774 267 88.1818 267.593 88.1759 268.203C88.2457 269.155 88.1192 270.111 87.8043 271.012C87.4894 271.913 86.9929 272.739 86.3454 273.44C84.5219 275.529 80.8887 276.956 78.0908 276.873" stroke="#BAC8CF" stroke-linecap="round" stroke-linejoin="round"/>
<path d="M66.1201 258.601C66.6143 261.435 68.2081 263.127 71.4654 263.05" stroke="#BAC8CF" stroke-linecap="round" stroke-linejoin="round"/>
<path d="M63.4124 258.406C62.4311 260.982 60.3291 262.285 56.3828 261.616" stroke="#BAC8CF" stroke-linecap="round" stroke-linejoin="round"/>
<path d="M74.2141 260.335C73.4694 265.209 68.5347 268.572 63.1755 267.827C57.8163 267.082 54.0719 262.514 54.8235 257.633C55.5752 252.752 60.5029 249.396 65.8621 250.148C71.2213 250.9 74.9519 255.454 74.2141 260.335Z" stroke="#BAC8CF" stroke-linecap="round" stroke-linejoin="round"/>
<path d="M0.347656 295.861C5.85573 305.46 11.9625 314.702 18.6316 323.533C22.5292 328.686 26.6286 333.707 30.0877 339.166C36.1765 348.877 40.186 359.746 41.8632 371.087C43.5404 382.427 42.8486 393.993 39.8317 405.052C36.9712 415.316 32.1131 424.946 26.218 433.817C20.8101 441.971 14.4417 449.645 10.7877 458.725C8.19854 465.138 7.06406 472.031 4.98302 478.626C3.83504 482.268 2.40147 485.814 0.695656 489.231" stroke="#BAC8CF" stroke-miterlimit="10"/>
<path d="M74.3188 719.971L73.2957 717.284C73.2795 717.246 73.2527 717.215 73.2187 717.192C73.1847 717.17 73.1449 717.158 73.1043 717.158C73.0637 717.158 73.0239 717.17 72.9899 717.192C72.9559 717.215 72.9291 717.246 72.9129 717.284L71.8967 720.006L69.1684 721.03C68.897 721.134 68.897 721.301 69.1684 721.406L71.8967 722.429L72.9129 725.152C72.9291 725.189 72.9559 725.221 72.9899 725.243C73.0239 725.266 73.0637 725.278 73.1043 725.278C73.1449 725.278 73.1847 725.266 73.2187 725.243C73.2527 725.221 73.2795 725.189 73.2957 725.152L74.3188 722.429L77.0402 721.406C77.078 721.391 77.1104 721.365 77.1333 721.332C77.1561 721.298 77.1684 721.258 77.1684 721.218C77.1684 721.177 77.1561 721.138 77.1333 721.104C77.1104 721.071 77.078 721.045 77.0402 721.03L74.3188 719.971Z" stroke="#BAC8CF" stroke-miterlimit="10"/>
<path d="M124.542 703.462L123.909 701.776C123.899 701.754 123.883 701.735 123.863 701.722C123.842 701.708 123.819 701.701 123.794 701.701C123.77 701.701 123.746 701.708 123.726 701.722C123.705 701.735 123.689 701.754 123.679 701.776L123.046 703.462L121.362 704.088C121.195 704.158 121.195 704.262 121.362 704.325L123.046 704.952L123.679 706.637C123.686 706.662 123.7 706.685 123.721 706.701C123.742 706.718 123.768 706.727 123.794 706.727C123.821 706.727 123.846 706.718 123.867 706.701C123.888 706.685 123.903 706.662 123.909 706.637L124.542 704.952L126.22 704.325C126.244 704.316 126.266 704.3 126.281 704.279C126.296 704.258 126.304 704.233 126.304 704.207C126.304 704.181 126.296 704.155 126.281 704.134C126.266 704.113 126.244 704.097 126.22 704.088L124.542 703.462Z" fill="#BAC8CF"/>
<path d="M36.0591 820.416L35.4327 818.738C35.4242 818.713 35.4082 818.692 35.387 818.677C35.3658 818.662 35.3404 818.654 35.3144 818.654C35.2884 818.654 35.263 818.662 35.2418 818.677C35.2206 818.692 35.2047 818.713 35.1961 818.738L34.5627 820.416L32.8854 821.05C32.7114 821.112 32.7114 821.217 32.8854 821.28L34.5627 821.913L35.1961 823.598C35.2047 823.623 35.2206 823.644 35.2418 823.659C35.263 823.674 35.2884 823.682 35.3144 823.682C35.3404 823.682 35.3658 823.674 35.387 823.659C35.4082 823.644 35.4242 823.623 35.4327 823.598L36.0591 821.913L37.7435 821.28C37.7658 821.27 37.7848 821.254 37.7982 821.233C37.8116 821.213 37.8187 821.189 37.8187 821.165C37.8187 821.14 37.8116 821.116 37.7982 821.096C37.7848 821.076 37.7658 821.06 37.7435 821.05L36.0591 820.416Z" fill="#BAC8CF"/>
<path d="M60.7955 767.342C60.8582 772.217 59.9882 777.021 57.747 780.983C53.23 788.009 50.6826 797.138 53.056 805.146C54.9491 811.552 61.0739 816.008 67.5467 817.68C74.0195 819.351 80.8334 818.627 87.4384 817.68C104.296 815.208 122.412 810.097 132.198 796.142C142.513 781.45 139.325 758.959 125.336 747.713C118.974 742.602 110.72 739.545 106.056 732.867C102.075 727.213 101.31 719.853 97.767 713.92C90.5286 701.797 71.8271 699.374 60.879 708.238C49.931 717.102 47.7803 734.545 55.1092 746.613C55.3876 747.058 55.659 747.532 55.9305 748.005" stroke="#BAC8CF" stroke-linecap="round" stroke-linejoin="round"/>
<path d="M70.0036 757.28C70.0028 759.806 69.0563 762.241 67.3506 764.103C65.6449 765.966 63.3037 767.121 60.7885 767.342C60.4962 767.342 60.2039 767.384 59.9046 767.384C57.9072 767.384 55.9547 766.792 54.2939 765.681C52.6332 764.571 51.3388 762.993 50.5744 761.147C49.81 759.301 49.61 757.269 49.9997 755.309C50.3894 753.349 51.3512 751.549 52.7636 750.136C54.176 748.723 55.9754 747.761 57.9344 747.371C59.8934 746.981 61.924 747.181 63.7693 747.946C65.6147 748.711 67.1919 750.006 68.3016 751.667C69.4113 753.329 70.0036 755.282 70.0036 757.28V757.28Z" stroke="#BAC8CF" stroke-linecap="round" stroke-linejoin="round"/>
<path d="M101.838 814.769C98.2556 812.678 95.1748 809.827 92.8131 806.415C90.4514 803.004 88.8663 799.116 88.1696 795.025C87.4729 790.934 87.6814 786.741 88.7806 782.739C89.8798 778.738 91.8428 775.026 94.5313 771.866C97.2198 768.707 100.568 766.175 104.341 764.45C108.113 762.726 112.218 761.85 116.366 761.885C120.514 761.919 124.603 762.864 128.346 764.651C132.089 766.439 135.395 769.026 138.03 772.231" stroke="#BAC8CF" stroke-linecap="round" stroke-linejoin="round"/>
<path d="M88.2598 785.203C88.7245 786.374 89.4367 787.431 90.3478 788.302C91.061 788.99 91.9413 789.481 92.9019 789.725C93.8624 789.969 94.87 789.959 95.8253 789.694C97.8089 789.04 99.1243 787.132 101.017 786.254C102.911 785.377 104.915 785.607 106.822 785.057C107.883 784.745 108.867 784.211 109.706 783.491C110.546 782.771 111.224 781.88 111.694 780.879C112.634 778.853 112.815 776.262 114.659 774.995C116.218 773.923 118.306 774.299 120.227 774.152C124.876 773.811 128.579 770.155 130.855 766.005" stroke="#BAC8CF" stroke-miterlimit="10"/>
<path d="M95.4287 809.553C97.8677 809.78 100.328 809.561 102.688 808.906C108.256 807.242 112.648 802.59 118.327 801.372C121.577 800.675 125.078 801.142 128.336 800.759" stroke="#BAC8CF" stroke-miterlimit="10"/>
<path d="M83.8537 1465.09C82.0163 1496.94 78.7312 1528.38 62.1177 1555C48.8937 1576.15 24.2413 1593.41 0.347656 1600.49" stroke="#BAC8CF" stroke-linecap="round" stroke-linejoin="round"/>
<path d="M0.347656 933.047C12.8269 954.271 27.3733 974.589 41.9197 994.212C78.0352 1042.95 116.573 1093.15 127.611 1152.79C144.051 1241.66 96.159 1329.03 86.8674 1418.93C86.77 1419.83 86.6795 1420.74 86.596 1421.64" stroke="#BAC8CF" stroke-linecap="round" stroke-linejoin="round"/>
<path d="M41.4047 1201.23C47.7592 1228.1 47.4808 1256.52 39.4002 1282.88C31.5145 1308.64 16.7454 1331.46 0.347656 1352.98" stroke="#BAC8CF" stroke-linecap="round" stroke-linejoin="round"/>
<path d="M0.347656 1123.77C13.5705 1138.53 24.34 1155.31 32.2453 1173.49C33.4657 1176.31 34.6048 1179.18 35.6627 1182.07" stroke="#BAC8CF" stroke-linecap="round" stroke-linejoin="round"/>
<path d="M106.592 1443.33C106.592 1447.64 105.316 1451.85 102.925 1455.43C100.535 1459.01 97.1367 1461.8 93.1611 1463.44C89.1856 1465.09 84.811 1465.52 80.5905 1464.68C76.3701 1463.84 72.4934 1461.77 69.4506 1458.73C66.4078 1455.68 64.3357 1451.8 63.4962 1447.58C62.6567 1443.36 63.0876 1438.98 64.7343 1435C66.381 1431.03 69.1697 1427.63 72.7476 1425.24C76.3255 1422.84 80.532 1421.57 84.8351 1421.57C87.6923 1421.57 90.5215 1422.13 93.1611 1423.22C95.8008 1424.32 98.1993 1425.92 100.22 1427.94C102.24 1429.96 103.843 1432.36 104.936 1435C106.029 1437.64 106.592 1440.48 106.592 1443.33V1443.33Z" stroke="#BAC8CF" stroke-miterlimit="10"/>
<path d="M48.5736 1191.62C48.5736 1193.59 47.9882 1195.53 46.8915 1197.17C45.7949 1198.81 44.2361 1200.09 42.4124 1200.85C40.5886 1201.6 38.5819 1201.8 36.6458 1201.41C34.7098 1201.03 32.9314 1200.08 31.5356 1198.68C30.1398 1197.28 29.1892 1195.5 28.8041 1193.57C28.419 1191.63 28.6166 1189.62 29.372 1187.8C30.1275 1185.97 31.4067 1184.41 33.048 1183.32C34.6893 1182.22 36.619 1181.63 38.5929 1181.63C41.24 1181.63 43.7786 1182.69 45.6503 1184.56C47.5221 1186.43 48.5736 1188.97 48.5736 1191.62V1191.62Z" stroke="#BAC8CF" stroke-miterlimit="10"/>
<path d="M62.6402 1321.94C62.133 1322.18 61.5828 1322.32 61.021 1322.35C60.4592 1322.38 59.8969 1322.3 59.3661 1322.12C58.8354 1321.93 58.3467 1321.64 57.928 1321.26C57.5094 1320.89 57.1689 1320.43 56.9261 1319.92L53.9681 1313.74C53.7254 1313.23 53.585 1312.68 53.555 1312.12C53.5249 1311.56 53.6057 1311 53.7928 1310.47C53.9799 1309.94 54.2696 1309.45 54.6454 1309.03C55.0212 1308.61 55.4757 1308.27 55.983 1308.03C56.4903 1307.79 57.0404 1307.64 57.6019 1307.61C58.1634 1307.58 58.7254 1307.67 59.2556 1307.85C59.7859 1308.04 60.2742 1308.33 60.6925 1308.71C61.1108 1309.08 61.451 1309.54 61.6937 1310.04L64.6517 1316.23C65.1413 1317.25 65.2045 1318.43 64.8274 1319.5C64.4502 1320.57 63.6635 1321.45 62.6402 1321.94V1321.94Z" stroke="#BAC8CF" stroke-linecap="round" stroke-linejoin="round"/>
<path d="M63.5791 1323.9L65.166 1327.21" stroke="#BAC8CF" stroke-linecap="round" stroke-linejoin="round"/>
<path d="M54.4199 1319.17L55.2899 1320.98C56.0024 1322.46 57.2764 1323.61 58.8316 1324.15C60.3869 1324.7 62.0959 1324.61 63.5828 1323.9C65.0696 1323.18 66.2126 1321.91 66.7601 1320.35C67.3077 1318.8 67.215 1317.09 66.5025 1315.6L65.6394 1313.79" stroke="#BAC8CF" stroke-linecap="round" stroke-linejoin="round"/>
<path d="M67.8531 1325.93L62.3291 1328.58L63.1378 1330.27L68.6618 1327.62L67.8531 1325.93Z" stroke="#BAC8CF" stroke-linecap="round" stroke-linejoin="round"/>
<path d="M62.3401 1311.39L60.3008 1312.37" stroke="#BAC8CF" stroke-linecap="round" stroke-linejoin="round"/>
<path d="M63.2796 1313.34L61.2334 1314.32" stroke="#BAC8CF" stroke-linecap="round" stroke-linejoin="round"/>
<path d="M64.2131 1315.29L62.1738 1316.28" stroke="#BAC8CF" stroke-linecap="round" stroke-linejoin="round"/>
<path d="M56.6545 1314.11L54.6152 1315.09" stroke="#BAC8CF" stroke-linecap="round" stroke-linejoin="round"/>
<path d="M57.594 1316.07L55.5547 1317.04" stroke="#BAC8CF" stroke-linecap="round" stroke-linejoin="round"/>
<path d="M58.5266 1318.02L56.4873 1319" stroke="#BAC8CF" stroke-linecap="round" stroke-linejoin="round"/>
<path d="M115.195 1002.12L114.172 999.399C114.157 999.361 114.131 999.329 114.098 999.306C114.064 999.283 114.025 999.271 113.984 999.271C113.943 999.271 113.904 999.283 113.87 999.306C113.837 999.329 113.811 999.361 113.796 999.399L112.773 1002.12L110.052 1003.15C109.773 1003.25 109.773 1003.42 110.052 1003.52L112.773 1004.55L113.796 1007.27C113.811 1007.31 113.837 1007.34 113.87 1007.36C113.904 1007.38 113.943 1007.4 113.984 1007.4C114.025 1007.4 114.064 1007.38 114.098 1007.36C114.131 1007.34 114.157 1007.31 114.172 1007.27L115.195 1004.55L117.916 1003.52C117.954 1003.51 117.987 1003.48 118.009 1003.45C118.032 1003.41 118.045 1003.37 118.045 1003.33C118.045 1003.29 118.032 1003.25 118.009 1003.22C117.987 1003.19 117.954 1003.16 117.916 1003.15L115.195 1002.12Z" stroke="#BAC8CF" stroke-miterlimit="10"/>
<path d="M85.608 1193.39L84.9816 1191.7C84.973 1191.68 84.957 1191.66 84.9358 1191.64C84.9146 1191.63 84.8893 1191.62 84.8633 1191.62C84.8372 1191.62 84.8119 1191.63 84.7907 1191.64C84.7695 1191.66 84.7535 1191.68 84.7449 1191.7L84.1116 1193.39L82.4342 1194.02C82.2602 1194.08 82.2602 1194.19 82.4342 1194.25L84.1116 1194.88L84.7449 1196.56C84.7535 1196.59 84.7695 1196.61 84.7907 1196.62C84.8119 1196.64 84.8372 1196.65 84.8633 1196.65C84.8893 1196.65 84.9146 1196.64 84.9358 1196.62C84.957 1196.61 84.973 1196.59 84.9816 1196.56L85.608 1194.88L87.2923 1194.25C87.3169 1194.24 87.3382 1194.23 87.3532 1194.21C87.3683 1194.18 87.3764 1194.16 87.3764 1194.13C87.3764 1194.11 87.3683 1194.08 87.3532 1194.06C87.3382 1194.04 87.3169 1194.02 87.2923 1194.02L85.608 1193.39Z" fill="#BAC8CF"/>
<path d="M115.738 1413.31L115.104 1411.62C115.095 1411.6 115.078 1411.58 115.058 1411.57C115.038 1411.56 115.014 1411.55 114.989 1411.55C114.965 1411.55 114.941 1411.56 114.921 1411.57C114.9 1411.58 114.884 1411.6 114.875 1411.62L114.241 1413.31L112.557 1413.94C112.39 1414 112.39 1414.11 112.557 1414.17L114.241 1414.8L114.875 1416.48C114.881 1416.51 114.896 1416.53 114.917 1416.55C114.937 1416.56 114.963 1416.57 114.989 1416.57C115.016 1416.57 115.042 1416.56 115.062 1416.55C115.083 1416.53 115.098 1416.51 115.104 1416.48L115.738 1414.8L117.415 1414.17C117.44 1414.16 117.461 1414.15 117.476 1414.13C117.491 1414.11 117.499 1414.08 117.499 1414.05C117.499 1414.03 117.491 1414 117.476 1413.98C117.461 1413.96 117.44 1413.94 117.415 1413.94L115.738 1413.31Z" fill="#BAC8CF"/>
<path d="M57.7193 1597.14L57.0929 1595.45C57.0843 1595.43 57.0684 1595.41 57.0472 1595.39C57.026 1595.38 57.0006 1595.37 56.9746 1595.37C56.9486 1595.37 56.9232 1595.38 56.902 1595.39C56.8808 1595.41 56.8648 1595.43 56.8563 1595.45L56.2299 1597.14L54.5455 1597.77C54.3715 1597.83 54.3715 1597.94 54.5455 1598L56.2299 1598.64L56.8563 1600.32C56.8648 1600.34 56.8808 1600.37 56.902 1600.38C56.9232 1600.4 56.9486 1600.4 56.9746 1600.4C57.0006 1600.4 57.026 1600.4 57.0472 1600.38C57.0684 1600.37 57.0843 1600.34 57.0929 1600.32L57.7193 1598.64L59.4036 1598C59.426 1597.99 59.445 1597.98 59.4584 1597.96C59.4717 1597.93 59.4788 1597.91 59.4788 1597.89C59.4788 1597.86 59.4717 1597.84 59.4584 1597.82C59.445 1597.8 59.426 1597.78 59.4036 1597.77L57.7193 1597.14Z" fill="#BAC8CF"/>
<path d="M60.5515 1171.08L59.5283 1168.36C59.517 1168.31 59.4925 1168.28 59.4586 1168.25C59.4246 1168.23 59.3831 1168.21 59.3404 1168.21C59.2977 1168.21 59.2562 1168.23 59.2223 1168.25C59.1883 1168.28 59.1638 1168.31 59.1525 1168.36L58.1294 1171.08L55.408 1172.1C55.1296 1172.2 55.1296 1172.37 55.408 1172.48L58.1294 1173.5L59.1525 1176.22C59.1673 1176.26 59.1932 1176.29 59.2267 1176.32C59.2602 1176.34 59.2998 1176.35 59.3404 1176.35C59.381 1176.35 59.4206 1176.34 59.4542 1176.32C59.4877 1176.29 59.5135 1176.26 59.5283 1176.22L60.5515 1173.5L63.2728 1172.48C63.3106 1172.46 63.343 1172.44 63.3659 1172.4C63.3888 1172.37 63.401 1172.33 63.401 1172.29C63.401 1172.25 63.3888 1172.21 63.3659 1172.18C63.343 1172.14 63.3106 1172.12 63.2728 1172.1L60.5515 1171.08Z" stroke="#BAC8CF" stroke-miterlimit="10"/>
<path d="M31.1247 1531.91L30.1016 1529.2C30.0868 1529.16 30.0609 1529.13 30.0274 1529.1C29.9939 1529.08 29.9542 1529.07 29.9137 1529.07C29.8731 1529.07 29.8334 1529.08 29.7999 1529.1C29.7664 1529.13 29.7405 1529.16 29.7257 1529.2L28.7026 1531.92L25.9813 1532.94C25.7029 1533.05 25.7029 1533.22 25.9813 1533.32L28.7026 1534.34L29.7257 1537.07C29.7405 1537.1 29.7664 1537.14 29.7999 1537.16C29.8334 1537.18 29.8731 1537.19 29.9137 1537.19C29.9542 1537.19 29.9939 1537.18 30.0274 1537.16C30.0609 1537.14 30.0868 1537.1 30.1016 1537.07L31.1247 1534.34L33.8461 1533.32C33.8838 1533.31 33.9163 1533.28 33.9391 1533.25C33.962 1533.21 33.9742 1533.17 33.9742 1533.13C33.9742 1533.09 33.962 1533.05 33.9391 1533.02C33.9163 1532.98 33.8838 1532.96 33.8461 1532.94L31.1247 1531.91Z" stroke="#BAC8CF" stroke-miterlimit="10"/>
<path d="M67.5117 1430.17C67.7576 1430.76 68.1667 1431.26 68.6901 1431.62C69.2135 1431.98 69.8289 1432.18 70.4628 1432.19C71.1892 1432.12 71.9054 1431.96 72.5995 1431.73C73.5337 1431.54 74.4857 1431.45 75.4392 1431.46C76.4066 1431.46 77.5272 1431.46 78.1048 1432.26C78.6825 1433.05 78.3832 1434.21 78.7243 1435.15C78.8865 1435.52 79.1252 1435.85 79.425 1436.13C79.7247 1436.4 80.0788 1436.61 80.4643 1436.74C81.4386 1437.1 82.5106 1437.1 83.4849 1436.74C84.1809 1436.49 84.7656 1436.04 85.4268 1435.78C85.9434 1435.51 86.5148 1435.37 87.0957 1435.36C87.6767 1435.36 88.2514 1435.48 88.7745 1435.74C89.2331 1436.04 89.6619 1436.38 90.0552 1436.77C90.8222 1437.44 91.7829 1437.84 92.7974 1437.93C93.3035 1437.97 93.8108 1437.88 94.2761 1437.68C94.7414 1437.47 95.1509 1437.16 95.47 1436.77C96.2635 1435.69 96.166 1434.11 97.0778 1433.12C97.4415 1432.76 97.8954 1432.51 98.3915 1432.38C98.8876 1432.26 99.4076 1432.27 99.8966 1432.42C100.593 1432.61 101.163 1433 101.825 1433.22C102.144 1433.36 102.494 1433.41 102.839 1433.37C103.184 1433.33 103.513 1433.2 103.794 1433" stroke="#BAC8CF" stroke-linecap="round" stroke-linejoin="round"/>
<path d="M63.1553 1441.56C64.5483 1441.41 65.9553 1441.47 67.3313 1441.73C69.3182 1442.09 71.0994 1443.18 72.3216 1444.78C72.7036 1445.43 73.1218 1446.06 73.5744 1446.66C75.1195 1448.41 77.827 1448.42 80.1307 1448.01C82.4345 1447.59 84.8357 1446.89 87.035 1447.67C87.7937 1447.94 88.4897 1448.36 89.2344 1448.67C90.8382 1449.29 92.6239 1449.26 94.2038 1448.58C95.5402 1447.99 96.8138 1446.92 98.2615 1447.12C99.229 1447.25 100.078 1447.96 101.046 1447.94C101.692 1447.84 102.322 1447.66 102.918 1447.39C104.003 1447.06 105.173 1447.17 106.175 1447.7" stroke="#BAC8CF" stroke-linecap="round" stroke-linejoin="round"/>
<path d="M70.4697 1459.67C72.809 1458.94 75.2825 1458.74 77.7081 1459.09C79.5943 1459.43 81.39 1460.23 83.2761 1460.39C85.03 1460.54 86.8118 1460.14 88.5448 1460.47C90.3732 1460.88 91.9888 1461.95 93.0897 1463.46" stroke="#BAC8CF" stroke-linecap="round" stroke-linejoin="round"/>
<path d="M80.2415 1763.08C84.1856 1764.57 87.9605 1766.47 91.5028 1768.75C111.652 1781.98 119.51 1808.53 117.303 1832.53C115.913 1846.72 111.636 1860.48 104.734 1872.95C97.8325 1885.42 88.4529 1896.35 77.1721 1905.07C55.2061 1921.62 27.6062 1928.86 0.347656 1925.2" stroke="#BAC8CF" stroke-linecap="round" stroke-linejoin="round"/>
<path d="M0.347656 1721.43C9.43046 1734.75 22.4387 1745.43 37.521 1751.17C42.6307 1753.03 47.8544 1754.57 53.1601 1755.77" stroke="#BAC8CF" stroke-linecap="round" stroke-linejoin="round"/>
<path d="M0.347656 1894.13C5.2011 1894.59 10.0592 1894.99 14.9219 1895.32C19.3902 1895.62 23.9699 1895.85 28.299 1894.86C34.918 1893.34 40.5834 1889.1 45.4763 1884.41C49.7497 1880.31 53.6821 1875.62 55.6797 1870.04C57.6772 1864.46 57.4684 1857.83 53.9814 1853.04C49.4783 1846.86 40.8827 1845.23 33.2685 1845.85C25.6542 1846.47 18.1792 1848.83 10.5441 1848.64C7.06572 1848.54 3.62458 1847.89 0.347656 1846.72" stroke="#BAC8CF" stroke-linecap="round" stroke-linejoin="round"/>
<path d="M70.9921 1949.62C72.8713 1944.8 78.5089 1941.66 83.6663 1941.26C90.2992 1940.78 95.5818 1948.01 95.0807 1954.64C94.5796 1961.28 89.9303 1966.91 84.6824 1971C75.5857 1978.1 64.2548 1981.95 52.8056 1983.27C47.8362 1983.85 42.658 1983.97 38.0156 1982.1C33.3733 1980.23 29.3783 1976.08 29.0164 1971.09C28.6544 1966.11 32.9696 1960.91 37.9391 1961.42C48.9846 1962.87 68.0898 1957.01 70.9921 1949.62Z" stroke="#BAC8CF" stroke-linecap="round" stroke-linejoin="round"/>
<path d="M66.3423 1843.87L65.709 1842.18C65.6992 1842.16 65.6832 1842.14 65.6628 1842.13C65.6424 1842.11 65.6185 1842.11 65.5941 1842.11C65.5698 1842.11 65.5459 1842.11 65.5255 1842.13C65.5051 1842.14 65.489 1842.16 65.4793 1842.18L64.8459 1843.87L63.1686 1844.5C62.9946 1844.56 62.9946 1844.67 63.1686 1844.73L64.8459 1845.36L65.4793 1847.04C65.4857 1847.07 65.5004 1847.09 65.5212 1847.11C65.5421 1847.12 65.5677 1847.13 65.5941 1847.13C65.6206 1847.13 65.6462 1847.12 65.667 1847.11C65.6879 1847.09 65.7026 1847.07 65.709 1847.04L66.3423 1845.36L68.0267 1844.73C68.049 1844.72 68.068 1844.7 68.0814 1844.68C68.0948 1844.66 68.1019 1844.64 68.1019 1844.62C68.1019 1844.59 68.0948 1844.57 68.0814 1844.55C68.068 1844.53 68.049 1844.51 68.0267 1844.5L66.3423 1843.87Z" fill="#BAC8CF"/>
<path d="M66.3423 1968.01L65.709 1966.33C65.7026 1966.3 65.6879 1966.28 65.667 1966.26C65.6462 1966.25 65.6206 1966.24 65.5941 1966.24C65.5677 1966.24 65.5421 1966.25 65.5212 1966.26C65.5004 1966.28 65.4857 1966.3 65.4793 1966.33L64.8459 1968.01L63.1686 1968.64C62.9946 1968.7 62.9946 1968.81 63.1686 1968.87L64.8459 1969.5L65.4793 1971.19C65.489 1971.21 65.5051 1971.23 65.5255 1971.24C65.5459 1971.26 65.5698 1971.26 65.5941 1971.26C65.6185 1971.26 65.6424 1971.26 65.6628 1971.24C65.6832 1971.23 65.6992 1971.21 65.709 1971.19L66.3423 1969.5L68.0267 1968.87C68.049 1968.86 68.068 1968.84 68.0814 1968.82C68.0948 1968.8 68.1019 1968.78 68.1019 1968.76C68.1019 1968.73 68.0948 1968.71 68.0814 1968.69C68.068 1968.67 68.049 1968.65 68.0267 1968.64L66.3423 1968.01Z" fill="#BAC8CF"/>
<path d="M43.3532 1737.4L42.3301 1734.67C42.3153 1734.63 42.2894 1734.6 42.2559 1734.58C42.2224 1734.55 42.1828 1734.54 42.1422 1734.54C42.1016 1734.54 42.062 1734.55 42.0284 1734.58C41.9949 1734.6 41.9691 1734.63 41.9543 1734.67L40.9311 1737.4L38.2098 1738.42C37.9314 1738.52 37.9314 1738.69 38.2098 1738.8L40.9311 1739.81L41.9543 1742.54C41.9691 1742.58 41.9949 1742.61 42.0284 1742.64C42.062 1742.66 42.1016 1742.67 42.1422 1742.67C42.1828 1742.67 42.2224 1742.66 42.2559 1742.64C42.2894 1742.61 42.3153 1742.58 42.3301 1742.54L43.3532 1739.81L46.0746 1738.79C46.1118 1738.78 46.1435 1738.75 46.1658 1738.71C46.1881 1738.68 46.1999 1738.64 46.1999 1738.6C46.1999 1738.56 46.1881 1738.52 46.1658 1738.49C46.1435 1738.45 46.1118 1738.42 46.0746 1738.41L43.3532 1737.4Z" stroke="#BAC8CF" stroke-miterlimit="10"/>
<path d="M92.2341 1922.01L91.211 1919.29C91.1962 1919.25 91.1703 1919.22 91.1368 1919.19C91.1033 1919.17 91.0636 1919.16 91.023 1919.16C90.9825 1919.16 90.9428 1919.17 90.9093 1919.19C90.8758 1919.22 90.8499 1919.25 90.8351 1919.29L89.812 1922.01L87.0906 1923.03C86.8122 1923.14 86.8122 1923.3 87.0906 1923.41L89.812 1924.43L90.8351 1927.15C90.8499 1927.19 90.8758 1927.22 90.9093 1927.25C90.9428 1927.27 90.9825 1927.28 91.023 1927.28C91.0636 1927.28 91.1033 1927.27 91.1368 1927.25C91.1703 1927.22 91.1962 1927.19 91.211 1927.15L92.2341 1924.43L94.9554 1923.41C94.9932 1923.39 95.0257 1923.37 95.0485 1923.33C95.0714 1923.3 95.0836 1923.26 95.0836 1923.22C95.0836 1923.18 95.0714 1923.14 95.0485 1923.11C95.0257 1923.07 94.9932 1923.05 94.9554 1923.03L92.2341 1922.01Z" stroke="#BAC8CF" stroke-miterlimit="10"/>
<path d="M73.7613 1770.99C80.5457 1767.22 82.9969 1758.67 79.2362 1751.88C75.4756 1745.1 66.9271 1742.64 60.1427 1746.41C53.3583 1750.17 50.907 1758.72 54.6677 1765.51C58.4283 1772.3 66.9769 1774.75 73.7613 1770.99Z" stroke="#BAC8CF" stroke-miterlimit="10"/>
<path d="M62.3262 1981.56C62.4267 1981.03 62.478 1980.49 62.4793 1979.94C62.4755 1978.64 62.1805 1977.36 61.6159 1976.19C61.0514 1975.02 60.2317 1973.99 59.2173 1973.18C58.2029 1972.37 57.0196 1971.8 55.7546 1971.51C54.4896 1971.22 53.1751 1971.21 51.908 1971.49C50.6409 1971.78 49.4534 1972.34 48.4331 1973.14C47.4128 1973.95 46.5856 1974.97 46.0125 1976.13C45.4393 1977.3 45.1349 1978.58 45.1216 1979.88C45.1082 1981.18 45.3863 1982.46 45.9354 1983.64" stroke="#BAC8CF" stroke-miterlimit="10"/>
<path d="M42.3865 1806.93L37.243 1819.01C37.1284 1819.28 36.9619 1819.52 36.7529 1819.73C36.5439 1819.93 36.2967 1820.09 36.0252 1820.2C35.7537 1820.31 35.4634 1820.37 35.1708 1820.36C34.8781 1820.36 34.589 1820.3 34.3198 1820.18L25.4806 1816.42C24.9381 1816.18 24.5098 1815.75 24.2894 1815.2C24.069 1814.65 24.0744 1814.04 24.3044 1813.49L29.4478 1801.42" stroke="#BAC8CF" stroke-linecap="round" stroke-linejoin="round"/>
<path d="M42.3858 1806.93C41.9195 1808.03 38.6413 1807.69 35.0709 1806.17C31.5004 1804.65 28.9809 1802.52 29.4472 1801.42C29.9135 1800.32 33.1917 1800.66 36.7621 1802.18C40.3326 1803.71 42.8521 1805.83 42.3858 1806.93Z" stroke="#BAC8CF" stroke-linecap="round" stroke-linejoin="round"/>
<path d="M32.7886 1805.03L31.4453 1808.19" stroke="#BAC8CF" stroke-linecap="round" stroke-linejoin="round"/>
<path d="M30.1402 1807.76L28.6826 1811.18L31.2117 1812.26L32.6693 1808.84L30.1402 1807.76Z" stroke="#BAC8CF" stroke-linecap="round" stroke-linejoin="round"/>
<path d="M41.1545 1809.82L42.9571 1810.58C43.1392 1810.66 43.3043 1810.77 43.4428 1810.91C43.5813 1811.06 43.6905 1811.22 43.7643 1811.41C43.838 1811.59 43.8747 1811.79 43.8724 1811.98C43.87 1812.18 43.8286 1812.38 43.7505 1812.56L41.3841 1818.13C41.306 1818.31 41.1928 1818.48 41.0508 1818.62C40.9088 1818.76 40.7409 1818.86 40.5567 1818.94C40.3725 1819.01 40.1756 1819.05 39.9772 1819.05C39.7788 1819.04 39.5829 1819 39.4005 1818.92L37.584 1818.17" stroke="#BAC8CF" stroke-linecap="round" stroke-linejoin="round"/>
<path d="M85.0861 2293.34C91.023 2276.45 96.772 2259.52 100.76 2242.09C106.732 2215.98 108.59 2188.3 100.941 2162.62C93.2015 2136.64 76.1077 2114.18 55.701 2096.37C38.9274 2081.75 19.9197 2070.02 0.375977 2059.31" stroke="#BAC8CF" stroke-miterlimit="10"/>
<path d="M39.6721 2050.67L38.6211 2047.96C38.6098 2047.92 38.5853 2047.88 38.5513 2047.86C38.5174 2047.83 38.4759 2047.82 38.4332 2047.82C38.3905 2047.82 38.349 2047.83 38.315 2047.86C38.2811 2047.88 38.2566 2047.92 38.2453 2047.96L37.2222 2050.68L34.5008 2051.7C34.2224 2051.81 34.2224 2051.98 34.5008 2052.08L37.2222 2053.11L38.2453 2055.83C38.2601 2055.87 38.2859 2055.9 38.3195 2055.92C38.353 2055.94 38.3926 2055.96 38.4332 2055.96C38.4738 2055.96 38.5134 2055.94 38.5469 2055.92C38.5804 2055.9 38.6063 2055.87 38.6211 2055.83L39.6442 2053.11L42.3656 2052.08C42.4057 2052.07 42.4406 2052.04 42.4653 2052.01C42.4901 2051.97 42.5034 2051.93 42.5034 2051.89C42.5034 2051.85 42.4901 2051.81 42.4653 2051.77C42.4406 2051.74 42.4057 2051.71 42.3656 2051.7L39.6721 2050.67Z" stroke="#BAC8CF" stroke-miterlimit="10"/>
</g>
<defs>
<clipPath id="clip0">
<rect width="174" height="2118" fill="white"/>
</clipPath>
</defs>
</svg>
