<svg width="22" height="22" viewBox="0 0 22 22" fill="none" xmlns="http://www.w3.org/2000/svg">
<circle cx="11" cy="11" r="11" fill="#34E08A"/>
<path d="M15.3949 14.0819C15.3949 14.9673 15.0629 15.6997 14.3988 16.2792C13.7348 16.8521 12.807 17.2134 11.6156 17.3632V19.6288H10.3559V17.451C9.62669 17.451 8.92031 17.3957 8.23672 17.285C7.55312 17.1678 6.99323 17.0083 6.55703 16.8065V15.2831C7.0974 15.524 7.71914 15.7225 8.42227 15.8788C9.1319 16.0285 9.77643 16.1034 10.3559 16.1034V11.8065C9.02122 11.3833 8.08372 10.8918 7.54336 10.3319C7.00951 9.77201 6.74258 9.04936 6.74258 8.16394C6.74258 7.31108 7.07135 6.61121 7.72891 6.06433C8.39297 5.51746 9.26862 5.18542 10.3559 5.06824V3.29089H11.6156V5.04871C12.8135 5.08126 13.9691 5.32214 15.0824 5.77136L14.5746 7.05066C13.6046 6.66654 12.6182 6.43868 11.6156 6.36707V10.6053C12.6378 10.9309 13.4027 11.2499 13.9105 11.5624C14.4184 11.8684 14.7927 12.2232 15.0336 12.6268C15.2745 13.024 15.3949 13.509 15.3949 14.0819ZM13.7348 14.2089C13.7348 13.7401 13.5883 13.3625 13.2953 13.076C13.0089 12.7831 12.449 12.4934 11.6156 12.2069V16.0057C13.0284 15.8104 13.7348 15.2115 13.7348 14.2089ZM8.39297 8.14441C8.39297 8.6392 8.53945 9.03634 8.83242 9.33582C9.12539 9.63529 9.6332 9.9185 10.3559 10.1854V6.40613C9.71133 6.51029 9.22305 6.71537 8.89102 7.02136C8.55898 7.32084 8.39297 7.69519 8.39297 8.14441Z" fill="white"/>
</svg>
