<svg width="42" height="42" viewBox="0 0 42 42" fill="none" xmlns="http://www.w3.org/2000/svg">
<path d="M41.4995 20.9998C41.4995 32.3215 32.3215 41.4995 20.9998 41.4995C9.67806 41.4995 0.5 32.3215 0.5 20.9998C0.5 9.67805 9.67806 0.5 20.9998 0.5C32.3215 0.5 41.4995 9.67805 41.4995 20.9998Z" stroke="white"/>
<path d="M20.6634 32.0048H16.5908L20.0267 16.507H24.0993L20.6634 32.0048ZM22.6457 14.8372C22.021 14.8372 21.5044 14.633 21.0839 14.2245C20.6634 13.816 20.4592 13.3235 20.4592 12.7468C20.4592 11.9059 20.7475 11.2449 21.3122 10.7404C21.8768 10.2358 22.5015 9.98364 23.1863 9.98364C23.823 9.98364 24.3636 10.1879 24.7721 10.5964C25.1805 11.0048 25.3968 11.4974 25.3968 12.074C25.3968 12.915 25.1085 13.5756 24.5318 14.0802C23.9672 14.5848 23.3304 14.8372 22.6457 14.8372Z" fill="white"/>
</svg>
