<svg width="22" height="22" viewBox="0 0 22 22" fill="none" xmlns="http://www.w3.org/2000/svg">
<rect width="22" height="22" fill="#AD00FF"/>
<rect width="22" height="22" fill="#34E08A"/>
<path d="M7.984 10.5401C7.704 11.4334 7.42066 12.2601 7.134 13.0201C6.84733 13.7801 6.56066 14.5201 6.27399 15.2401H5.30399C4.95066 14.2201 4.63733 13.1434 4.36399 12.0101C4.09733 10.8768 3.84733 9.64345 3.61399 8.31011H4.63399C4.72733 8.83011 4.82399 9.35011 4.92399 9.87011C5.02399 10.3901 5.12733 10.8968 5.23399 11.3901C5.34066 11.8768 5.44733 12.3434 5.554 12.7901C5.66066 13.2368 5.77066 13.6501 5.884 14.0301C6.15066 13.3301 6.43399 12.5634 6.73399 11.7301C7.034 10.8901 7.314 10.0234 7.574 9.13011H8.414C8.674 10.0234 8.95733 10.8901 9.264 11.7301C9.57066 12.5634 9.85733 13.3301 10.124 14.0301C10.2307 13.6568 10.3373 13.2468 10.444 12.8001C10.5507 12.3534 10.654 11.8868 10.754 11.4001C10.8607 10.9068 10.964 10.4001 11.064 9.88011C11.164 9.35345 11.2607 8.83011 11.354 8.31011H12.344C12.104 9.64345 11.8473 10.8768 11.574 12.0101C11.3073 13.1434 11.0007 14.2201 10.654 15.2401H9.684C9.39066 14.5201 9.104 13.7801 8.824 13.0201C8.544 12.2601 8.264 11.4334 7.984 10.5401ZM16.3049 15.3901C15.8182 15.3901 15.3749 15.3101 14.9749 15.1501C14.5749 14.9901 14.2315 14.7568 13.9449 14.4501C13.6582 14.1434 13.4349 13.7668 13.2749 13.3201C13.1215 12.8668 13.0449 12.3501 13.0449 11.7701C13.0449 11.1901 13.1315 10.6768 13.3049 10.2301C13.4849 9.77678 13.7249 9.39678 14.0249 9.09011C14.3249 8.78345 14.6749 8.55011 15.0749 8.39011C15.4749 8.23011 15.9015 8.15011 16.3549 8.15011C16.6415 8.15011 16.8982 8.17011 17.1249 8.21011C17.3582 8.25011 17.5582 8.29678 17.7249 8.35011C17.8982 8.40345 18.0382 8.45678 18.1449 8.51011C18.2515 8.56345 18.3249 8.60345 18.3649 8.63011L18.0849 9.43011C18.0249 9.39011 17.9382 9.34678 17.8249 9.30011C17.7115 9.25345 17.5815 9.20678 17.4349 9.16011C17.2949 9.11345 17.1382 9.07678 16.9649 9.05011C16.7982 9.01678 16.6282 9.00011 16.4549 9.00011C16.0882 9.00011 15.7582 9.06345 15.4649 9.19011C15.1715 9.31678 14.9215 9.50011 14.7149 9.74011C14.5082 9.98011 14.3482 10.2734 14.2349 10.6201C14.1282 10.9601 14.0749 11.3434 14.0749 11.7701C14.0749 12.1834 14.1215 12.5601 14.2149 12.9001C14.3149 13.2401 14.4615 13.5334 14.6549 13.7801C14.8482 14.0201 15.0882 14.2068 15.3749 14.3401C15.6682 14.4734 16.0082 14.5401 16.3949 14.5401C16.8415 14.5401 17.2115 14.4934 17.5049 14.4001C17.7982 14.3068 18.0182 14.2234 18.1649 14.1501L18.4149 14.9501C18.3682 14.9834 18.2849 15.0268 18.1649 15.0801C18.0449 15.1268 17.8949 15.1734 17.7149 15.2201C17.5349 15.2668 17.3249 15.3068 17.0849 15.3401C16.8449 15.3734 16.5849 15.3901 16.3049 15.3901Z" fill="white"/>
</svg>
