<svg width="22" height="22" viewBox="0 0 22 22" fill="none" xmlns="http://www.w3.org/2000/svg">
<path d="M22 0H0V22H22V0Z" fill="#FF4633"/>
<path d="M10.4799 17.7494C12.479 17.9009 14.5387 16.8306 15.5382 15.0941C16.5478 13.3575 16.4469 11.0353 15.2959 9.38961C15.0031 8.97566 14.6396 8.59203 14.3771 8.15789C14.0641 7.65307 13.8723 7.06744 13.8319 6.47176C13.7209 7.11792 13.6098 7.7742 13.3473 8.37998C13.0848 8.98576 12.6607 9.54099 12.065 9.82369C12.0045 9.85398 11.9338 9.88431 11.8631 9.87422C11.7117 9.86412 11.6208 9.70252 11.5602 9.56117C11.0756 8.36981 10.9746 7.02699 11.2573 5.77505C11.4391 4.96734 11.7823 4.11934 11.5097 3.34192C11.1967 3.80635 10.8737 4.27073 10.4799 4.67458C10.1063 5.04815 9.67219 5.36118 9.29862 5.73475C8.28898 6.74438 7.73369 8.19823 7.82456 9.62181C7.22887 9.21796 6.81493 8.54147 6.73416 7.82463C6.74426 7.82463 2.86724 16.9316 10.4799 17.7494Z" fill="white"/>
</svg>
