<svg width="22" height="23" viewBox="0 0 22 23" fill="none" xmlns="http://www.w3.org/2000/svg">
<path d="M11 22.0789C17.0751 22.0789 22 17.154 22 11.0789C22 5.00372 17.0751 0.0788574 11 0.0788574C4.92487 0.0788574 0 5.00372 0 11.0789C0 17.154 4.92487 22.0789 11 22.0789Z" fill="#319DFF"/>
<path d="M10.8237 16.8434H8.69043L10.4902 8.72538H12.6235L10.8237 16.8434ZM11.8621 7.85073C11.5348 7.85073 11.2642 7.74374 11.044 7.52978C10.8237 7.31582 10.7167 7.05782 10.7167 6.75576C10.7167 6.31525 10.8678 5.96904 11.1635 5.70473C11.4593 5.44043 11.7865 5.30835 12.1452 5.30835C12.4788 5.30835 12.7619 5.41534 12.9759 5.6293C13.1899 5.84326 13.3031 6.10126 13.3031 6.40332C13.3031 6.84382 13.1521 7.18989 12.85 7.45419C12.5543 7.7185 12.2208 7.85073 11.8621 7.85073Z" fill="#F4F4F4"/>
</svg>
