<svg width="500" height="4000" viewBox="0 0 500 4000" fill="none" xmlns="http://www.w3.org/2000/svg">
<g clip-path="url(#clip0)">
<path d="M329.06 2.93994H176.23V78.2699H233.77L252.64 97.1399L271.51 78.2699H329.06V2.93994Z" fill="#319DFF"/>
<path d="M421.97 1349.26H78.6299V1497.48H421.97V1349.26Z" stroke="#B9C7CE" stroke-width="0.5" stroke-miterlimit="10"/>
<path d="M421.9 2410.19H78.5596V2558.41H421.9V2410.19Z" stroke="#B9C7CE" stroke-width="0.5" stroke-miterlimit="10"/>
<path d="M422.02 3470.94H78.6797V3619.16H422.02V3470.94Z" stroke="#B9C7CE" stroke-width="0.5" stroke-miterlimit="10"/>
<path d="M51.3972 1497.48H79.3672L79.3672 1349.26H51.3972L51.3972 1497.48Z" fill="#E269F7"/>
<path d="M420.608 1497.48H448.578V1349.26H420.608V1497.48Z" fill="#FF4633"/>
<path d="M51.3972 2557.8H79.3672L79.3672 2409.58H51.3972L51.3972 2557.8Z" fill="#3364FF"/>
<path d="M420.608 2557.8H448.578V2409.58H420.608V2557.8Z" fill="#FF7C33"/>
<path d="M79.3802 3619.16H51.4102V3647.13H79.3802V3619.16Z" fill="#34E08A"/>
<path d="M74.0003 3630.99H67.5403V3624.53H63.2403V3630.99H56.7803V3635.3H63.2403V3641.76H67.5403V3635.3H74.0003V3630.99Z" fill="white"/>
<path d="M448.58 3619.16H420.61V3647.13H448.58V3619.16Z" fill="#34E08A"/>
<path d="M443.21 3630.99H436.75V3624.53H432.44V3630.99H425.98V3635.3H432.44V3641.76H436.75V3635.3H443.21V3630.99Z" fill="white"/>
<path d="M211.76 1613.54C227.428 1613.54 240.13 1600.84 240.13 1585.17C240.13 1569.5 227.428 1556.8 211.76 1556.8C196.091 1556.8 183.39 1569.5 183.39 1585.17C183.39 1600.84 196.091 1613.54 211.76 1613.54Z" fill="#B9C7CE"/>
<path d="M51.3972 3619.17H79.3672L79.3672 3470.95H51.3972L51.3972 3619.17Z" fill="#319DFF"/>
<path d="M420.608 3619.17H448.578V3470.95H420.608V3619.17Z" fill="#FFC033"/>
<path d="M78.6797 1249.99V3832.29H193.68" stroke="#232323" stroke-miterlimit="10"/>
<path d="M38.2 882.87C14 921.36 0 966.91 0 1015.73C0 1087.49 30.25 1152.18 78.68 1197.78V1229.45" stroke="#232323" stroke-miterlimit="10"/>
<path d="M55.9698 858.09C53.8798 860.66 51.8298 863.28 49.8398 865.93" stroke="#232323" stroke-miterlimit="10"/>
<path d="M196.1 181.43H98.6401V816.76C88.2901 824.65 78.5701 833.32 69.5801 842.69" stroke="#232323" stroke-miterlimit="10"/>
<path d="M436.02 848.72C425.63 837.16 414.18 826.57 401.82 817.11V181.43H309.5" stroke="#232323" stroke-miterlimit="10"/>
<path d="M307.09 3832.29H421.33V1197.78C469.76 1152.19 500.01 1087.5 500.01 1015.73C500.01 958.92 481.05 906.54 449.12 864.56" stroke="#232323" stroke-miterlimit="10"/>
<path d="M420.82 3562.53C430.474 3562.53 438.3 3554.7 438.3 3545.05C438.3 3535.4 430.474 3527.57 420.82 3527.57C411.166 3527.57 403.34 3535.4 403.34 3545.05C403.34 3554.7 411.166 3562.53 420.82 3562.53Z" fill="#319DFF"/>
<path d="M420.539 3554.22H417.149L420.009 3541.32H423.399L420.539 3554.22ZM422.199 3539.92C421.679 3539.92 421.249 3539.75 420.899 3539.41C420.549 3539.07 420.379 3538.66 420.379 3538.18C420.379 3537.48 420.619 3536.93 421.089 3536.51C421.559 3536.09 422.079 3535.88 422.649 3535.88C423.179 3535.88 423.629 3536.05 423.969 3536.39C424.309 3536.73 424.489 3537.14 424.489 3537.62C424.489 3538.32 424.249 3538.87 423.769 3539.29C423.299 3539.71 422.769 3539.92 422.199 3539.92Z" fill="#F4F4F4"/>
<path d="M307.09 3851.66V3785.82" stroke="#232323" stroke-miterlimit="10"/>
<path d="M193.68 3785.82V3851.66" stroke="#232323" stroke-miterlimit="10"/>
<path d="M308.47 3605.23H271.69V3642.01H308.47V3605.23Z" fill="#34E08A"/>
<path d="M330 3435.01C324.12 3433.14 320.08 3427.76 319.94 3421.63C319.77 3413.96 316.44 3406.59 310.82 3401.36C307.84 3397.84 306.73 3393.07 307.86 3388.6C310.73 3381.33 308.61 3373.17 302.51 3368.21C296.35 3363.2 287.77 3362.8 281.16 3367.18C274.54 3371.58 271.63 3379.63 273.92 3387.21C275.28 3392.77 274.88 3398.08 271.29 3401.51C262.83 3409.52 260.06 3421.66 264.25 3432.51C268.46 3443.42 278.76 3450.64 290.51 3450.89C296.68 3451.03 302.1 3455.05 303.99 3460.88C306.74 3469.42 314.83 3475.16 323.7 3475.16C324.4 3475.16 325.11 3475.12 325.82 3475.05C335.5 3474.05 343.25 3466.34 344.26 3456.71C345.27 3447.11 339.27 3437.97 330 3435.01Z" fill="#B9C7CE"/>
<path d="M182.73 3289.72C169.02 3286.49 154.77 3293.88 149.55 3306.89C147.79 3311.69 143.03 3314.26 137 3315.2C131.55 3315.79 126.74 3318.77 123.81 3323.38C120.9 3327.97 120.25 3333.53 122.02 3338.65C123.39 3343.46 122.11 3348.71 118.67 3352.35C108.5 3362.16 107.03 3377.63 115.18 3389.16C120.72 3397.01 129.5 3401.3 138.54 3401.3C142.82 3401.3 147.16 3400.34 151.25 3398.34C163.99 3392.11 170.18 3377.79 165.95 3364.31C164.68 3360.26 165.28 3355.89 167.58 3352.33C169.89 3348.76 173.64 3346.4 177.88 3345.86C191.93 3345.01 203.44 3333.88 204.67 3319.93C205.92 3305.93 196.48 3292.94 182.73 3289.72Z" fill="#B9C7CE"/>
<path d="M205.14 3117.21C201.84 3112.42 197.7 3108.34 192.86 3105.1C187.72 3101.66 182.02 3099.31 175.93 3098.13C173 3097.56 170.05 3097.28 167.1 3097.28C164.27 3097.28 161.45 3097.54 158.64 3098.06C144 3100.77 131.51 3110.42 125.25 3123.86C118.98 3137.3 119.65 3153.02 127.04 3165.89C130.68 3172.24 128.88 3180.18 122.86 3184.36C110.85 3192.7 106.74 3208.81 113.31 3221.83C118.44 3231.99 128.97 3238.09 139.96 3238.09C143.04 3238.09 146.16 3237.61 149.2 3236.61C162.97 3232.07 171.47 3218.02 169.14 3203.82H169.16L169.09 3203.4C167.81 3196.21 172.19 3189.34 179.28 3187.41C193.65 3183.5 205.29 3172.87 210.42 3158.96C215.53 3145.03 213.57 3129.43 205.14 3117.21Z" fill="#B9C7CE"/>
<path d="M358.32 3222.48C358.76 3218.25 361.03 3214.42 364.54 3211.98C385.82 3197.19 395.59 3171.43 389.43 3146.35C383.26 3121.27 362.65 3102.89 336.91 3099.53C328.98 3098.5 323.26 3091.23 324.17 3083.34C325.76 3069.4 317.13 3056.29 303.66 3052.15C290.2 3048.01 275.64 3054.01 269.05 3066.41C262.46 3078.81 265.69 3094.15 276.72 3102.89C282.97 3107.84 284.1 3116.99 279.23 3123.29C276.61 3126.68 274.34 3130.36 272.48 3134.21C270.34 3138.63 268.74 3143.3 267.7 3148.1C266.61 3153.17 266.16 3158.36 266.36 3163.55C266.55 3168.45 267.34 3173.33 268.68 3178.05C272.59 3191.77 281.22 3203.82 292.98 3211.99C296.49 3214.43 298.76 3218.26 299.2 3222.49C299.64 3226.73 298.22 3230.94 295.29 3234.04C278.33 3252.01 278.94 3280.65 296.66 3297.89C305.51 3306.5 317.14 3310.81 328.77 3310.81C340.4 3310.81 352.02 3306.5 360.87 3297.89C378.58 3280.65 379.2 3252.01 362.24 3234.04C359.3 3230.92 357.88 3226.71 358.32 3222.48Z" fill="#B9C7CE"/>
<path d="M379.35 2945.22C373.13 2940.18 372 2930.87 376.84 2924.46C393.94 2901.83 393.95 2870.21 376.87 2847.56C372.03 2841.15 373.16 2831.84 379.38 2826.81C379.38 2826.81 399.79 2813.28 387.05 2789.7C380.5 2777.08 366.02 2770.98 352.6 2775.17C339.18 2779.37 330.58 2792.71 332.16 2806.89C333.05 2814.92 327.35 2822.31 319.46 2823.36C314.56 2824.01 309.73 2825.26 305.11 2827.07C300.18 2829 295.5 2831.58 291.2 2834.73C286.48 2838.19 282.25 2842.3 278.65 2846.94C275.38 2851.16 272.65 2855.81 270.53 2860.74C262.77 2878.84 263.84 2899.9 273.4 2917.08C282.96 2934.26 300.16 2946.05 319.42 2948.63C327.31 2949.68 333.01 2957.08 332.11 2965.11C330.53 2979.29 339.12 2992.63 352.54 2996.84C355.39 2997.73 358.28 2998.17 361.15 2998.17C371.75 2998.17 381.84 2992.28 387 2982.34C393.55 2969.71 390.34 2954.11 379.35 2945.22Z" fill="#B9C7CE"/>
<path d="M306.77 2642.56C301.37 2640.29 299.05 2633.99 299.46 2627.4C299.83 2617.57 293.11 2608.77 283.49 2606.48C273.86 2604.19 263.88 2609.01 259.73 2617.94C255.63 2626.78 258.33 2637.33 266.13 2643.17C269.97 2647.18 271.17 2653.12 269.19 2658.3C264.67 2669.17 267.16 2681.53 275.55 2689.81C281.11 2695.29 288.45 2698.19 295.94 2698.19C299.77 2698.19 303.63 2697.43 307.31 2695.88C318.21 2691.27 325.14 2680.69 324.97 2668.92C324.82 2657.2 317.67 2646.9 306.77 2642.56Z" fill="#B9C7CE"/>
<path d="M180.35 2870.61C172.69 2869.53 165.67 2862.1 167.47 2854.25C170.63 2840.43 160.36 2826.91 146.74 2822.73C133.13 2818.55 118.42 2824.61 111.76 2837.14C105.1 2849.67 108.36 2865.18 119.51 2874C125.83 2879 126.97 2888.25 122.05 2894.62C103.03 2919.26 104.83 2953.44 126.3 2975.97C129.93 2980.61 130.47 2986.95 127.65 2992.12C123.75 2998.29 123.85 3006.15 127.94 3012.21C131.42 3017.36 137.21 3020.36 143.3 3020.36C144.41 3020.36 145.53 3020.26 146.64 3020.06C153.87 3018.75 159.61 3013.31 161.31 3006.21C163.01 3000.31 168.08 2996.13 174.22 2995.54C206.77 2994.45 233.51 2968.29 235.12 2935.93C236.76 2903.53 212.69 2874.84 180.35 2870.61Z" fill="#B9C7CE"/>
<path d="M375.46 2235.59C386.63 2226.94 390.12 2211.48 383.75 2198.78C377.38 2186.04 362.96 2179.77 349.46 2183.87C335.96 2187.97 327.32 2201.26 328.9 2215.46C329.79 2223.44 324.12 2230.78 316.27 2231.82C293.99 2234.79 275.02 2249.8 266.76 2270.98C258.53 2292.1 262.22 2316.12 276.37 2333.71C280.06 2340.02 278.7 2347.98 273.13 2352.66C262.15 2361.4 258.83 2376.85 265.25 2389.43C270.35 2399.42 280.45 2405.38 291.1 2405.38C293.87 2405.38 296.68 2404.98 299.44 2404.14C312.84 2400.07 321.49 2386.88 320.02 2372.78C319.39 2365.25 323.68 2357.28 330.84 2356.44C353.23 2354.04 372.57 2339.51 381.34 2318.46C390.13 2297.38 386.9 2273.14 372.93 2255.18C368.71 2248.95 369.8 2240.53 375.46 2235.59Z" fill="#B9C7CE"/>
<path d="M370.68 1793.39C367.01 1787.98 365.48 1783.56 370.16 1776.81C379.3 1764.64 381.82 1748.81 376.88 1734.44C371.92 1720.02 360.13 1709.01 345.35 1704.98C337.89 1702.95 333.28 1695.71 334.64 1688.15C337.2 1673.88 328.69 1659.67 314.85 1655.1C301.01 1650.54 285.66 1656.86 279.12 1669.81C272.58 1682.77 276.66 1698.8 288.61 1707.1C294.95 1711.5 296.84 1719.85 293.01 1726.53C290.2 1731.43 288.33 1736.74 287.47 1742.32C286.52 1748.47 286.82 1754.65 288.37 1760.69C289.99 1766.98 292.86 1772.75 296.92 1777.85C300.81 1782.73 305.57 1786.71 311.06 1789.69C315.66 1792.18 320.62 1793.85 325.79 1794.69C333.12 1795.97 335.51 1799.88 336.99 1807.12C338.57 1813.99 344.05 1819.42 350.96 1820.95C352.28 1821.24 353.61 1821.38 354.93 1821.38C360.5 1821.38 365.91 1818.86 369.44 1814.43C374.25 1808.4 374.75 1799.94 370.68 1793.39Z" fill="#B9C7CE"/>
<path d="M185.28 1828.44C184.14 1837.2 177.04 1843.88 168 1844.7C167.38 1844.75 166.77 1844.78 166.16 1844.78C157.81 1844.78 150.49 1839.57 147.93 1831.8C145.31 1823.87 137.81 1818.42 129.26 1818.24C115.76 1817.94 104.31 1808.33 102.03 1795.39C99.7695 1782.54 107.21 1769.81 119.72 1765.11C128.18 1761.31 130.15 1756.38 130.76 1748.51C131.38 1741.51 136.77 1735.71 143.87 1734.41C144.87 1734.22 145.9 1734.13 146.91 1734.13C152.77 1734.13 158.19 1737.24 161.04 1742.23C164.44 1748.18 163.42 1755.78 158.57 1760.71C153.22 1766.15 153.1 1770.6 154.77 1776.37C156.91 1781.98 158.74 1794.46 158.74 1794.46C160.48 1801.25 165.84 1806.64 172.75 1808.54C181.27 1811.54 186.42 1819.71 185.28 1828.44Z" fill="#B9C7CE"/>
<path d="M227.77 2093.41C221.44 2088.4 220.3 2079.13 225.23 2072.75C235.69 2059.21 240.19 2041.77 237.57 2024.89C234.96 2008.02 225.39 1992.73 211.32 1982.94C207.76 1980.47 205.47 1976.59 205.02 1972.3C204.57 1968.01 206.02 1963.75 208.99 1960.61C212.24 1957.17 214.93 1953.26 216.99 1949.01C219.54 1943.73 221.04 1938.1 221.46 1932.26C221.85 1926.81 221.27 1921.38 219.74 1916.14C218.1 1910.52 215.44 1905.32 211.84 1900.69C201.33 1887.21 184.3 1880.59 167.39 1883.42C150.47 1886.25 136.56 1898.05 131.07 1914.22C125.58 1930.39 129.47 1948.16 141.21 1960.61C144.18 1963.75 145.62 1968.02 145.17 1972.3C144.72 1976.59 142.42 1980.46 138.87 1982.93C122.29 1994.45 112.19 2013.33 111.87 2033.44C111.54 2053.55 121.02 2072.75 137.21 2084.8C141.83 2088.24 146.91 2091.03 152.29 2093.1C156.96 2094.9 161.85 2096.13 166.81 2096.79C174.84 2097.84 180.63 2105.2 179.71 2113.19C178.1 2127.3 186.83 2140.58 200.47 2144.77C203.37 2145.66 206.31 2146.09 209.22 2146.09C220 2146.09 230.26 2140.23 235.51 2130.35C242.21 2117.79 238.94 2102.26 227.77 2093.41Z" fill="#B9C7CE"/>
<path d="M349.73 2000.47C348.73 1990.85 340.99 1983.15 331.32 1982.14C330.61 1982.07 329.9 1982.03 329.2 1982.03C320.35 1982.03 312.26 1987.76 309.5 1996.29C307.61 2002.13 302.21 2006.14 296.04 2006.27C291.91 2006.36 287.76 2007.36 284.05 2009.16C279.87 2011.19 276.2 2014.24 273.46 2017.97C270.72 2021.69 268.9 2026.08 268.22 2030.65C267.53 2035.23 267.98 2039.96 269.52 2044.33C270.89 2048.21 273.03 2051.69 275.88 2054.66C280.14 2059.09 281.1 2065.72 278.29 2071.17C273.84 2079.77 276.09 2090.44 283.64 2096.53C287.42 2099.58 292.04 2101.1 296.67 2101.1C301.29 2101.1 305.92 2099.58 309.69 2096.54C317.25 2090.45 319.5 2079.78 315.06 2071.18C312.24 2065.73 313.22 2059.1 317.48 2054.67C322.47 2049.49 325.3 2042.69 325.46 2035.52C325.6 2029.4 329.64 2024.02 335.51 2022.15C344.75 2019.21 350.74 2010.09 349.73 2000.47Z" fill="#B9C7CE"/>
<path d="M354.47 1576.07C352.51 1565.99 343.37 1558.85 332.97 1559.41V1559.4C328.41 1559.39 324.07 1557.21 321.35 1553.57C316.82 1546.51 308.14 1543.52 300.2 1546.3C292.2 1549.09 287.3 1556.9 288.27 1565.27C289.25 1573.64 295.8 1580.11 304.21 1581.02C309.1 1581.62 313.31 1584.6 315.48 1588.99C319.02 1596.24 326.41 1600.59 334.17 1600.59C336.34 1600.59 338.53 1600.25 340.68 1599.54C350.51 1596.29 356.44 1586.19 354.47 1576.07Z" fill="#B9C7CE"/>
<path d="M153.06 644.94H121.08V676.92H153.06V644.94Z" stroke="#B9C7CE" stroke-miterlimit="10"/>
<path d="M153.06 678.97H121.08V710.95H153.06V678.97Z" stroke="#B9C7CE" stroke-miterlimit="10"/>
<path d="M250.23 1231.48C369.418 1231.48 466.04 1134.86 466.04 1015.67C466.04 896.481 369.418 799.86 250.23 799.86C131.041 799.86 34.4199 896.481 34.4199 1015.67C34.4199 1134.86 131.041 1231.48 250.23 1231.48Z" stroke="#B9C7CE" stroke-miterlimit="10" stroke-dasharray="11.89 11.89"/>
<path d="M181.286 570.293L164.621 575.601L187.402 647.118L204.066 641.81L181.286 570.293Z" stroke="#B9C7CE" stroke-miterlimit="10"/>
<path d="M197.947 564.993L181.282 570.301L204.063 641.818L220.727 636.51L197.947 564.993Z" stroke="#B9C7CE" stroke-miterlimit="10"/>
<path d="M211.19 3805.28H202.74V3792.94H211.19V3794.85H204.9V3798.05H211.06V3799.96H204.9V3803.38H211.19V3805.28Z" fill="black"/>
<path d="M226.24 3792.95H228.4V3803.38H229.55V3807.56H227.39V3805.29H213.41V3792.95H215.57V3803.38H219.82V3792.95H221.98V3803.38H226.23V3792.95H226.24Z" fill="black"/>
<path d="M239.65 3805.28H231.2V3792.94H239.65V3794.85H233.36V3798.05H239.52V3799.96H233.36V3803.38H239.65V3805.28Z" fill="black"/>
<path d="M256.901 3803.7C255.721 3804.9 254.211 3805.5 252.371 3805.5C250.531 3805.5 249.021 3804.9 247.841 3803.7C246.661 3802.5 246.061 3800.97 246.061 3799.12C246.061 3797.27 246.651 3795.74 247.841 3794.54C249.021 3793.34 250.531 3792.74 252.371 3792.74C254.211 3792.74 255.721 3793.34 256.901 3794.54C258.081 3795.74 258.681 3797.27 258.681 3799.12C258.681 3800.97 258.091 3802.5 256.901 3803.7ZM252.371 3803.58C253.591 3803.58 254.581 3803.16 255.331 3802.31C256.081 3801.47 256.461 3800.4 256.461 3799.12C256.461 3797.83 256.081 3796.76 255.331 3795.92C254.581 3795.08 253.591 3794.66 252.371 3794.66C251.141 3794.66 250.151 3795.08 249.401 3795.92C248.651 3796.76 248.281 3797.83 248.281 3799.12C248.281 3800.41 248.651 3801.48 249.401 3802.32C250.151 3803.16 251.141 3803.58 252.371 3803.58Z" fill="black"/>
<path d="M259.33 3807.56V3803.58C259.82 3803.53 260.21 3803.41 260.48 3803.21C260.75 3803.01 261 3802.61 261.23 3801.99C261.46 3801.37 261.64 3800.47 261.78 3799.29L262.5 3792.95H270.88V3803.38H272.03V3807.56H269.87V3805.29H261.51V3807.56H259.33ZM263.91 3799.44C263.7 3801.26 263.16 3802.58 262.28 3803.38H268.7V3794.85H264.43L263.91 3799.44Z" fill="black"/>
<path d="M275.75 3805.28H273.66V3792.94H275.82V3801.5L282.13 3792.94H284.35V3805.28H282.19V3796.48L275.75 3805.28Z" fill="black"/>
<path d="M297.72 3805.28H295.56V3799.9H289.14V3805.28H286.98V3792.94H289.14V3797.99H295.56V3792.94H297.72V3805.28Z" fill="black"/>
<path d="M232.43 3823.78H226.2V3811.44H232.27C233.37 3811.44 234.23 3811.74 234.85 3812.34C235.47 3812.94 235.78 3813.69 235.78 3814.59C235.78 3815.33 235.57 3815.96 235.16 3816.47C234.75 3816.98 234.24 3817.3 233.63 3817.42C234.3 3817.52 234.86 3817.86 235.32 3818.45C235.78 3819.04 236.01 3819.7 236.01 3820.46C236.01 3821.45 235.69 3822.25 235.06 3822.86C234.43 3823.47 233.55 3823.78 232.43 3823.78ZM231.82 3816.54C232.36 3816.54 232.79 3816.39 233.1 3816.1C233.41 3815.8 233.56 3815.42 233.56 3814.95C233.56 3814.47 233.41 3814.08 233.1 3813.78C232.79 3813.48 232.37 3813.34 231.82 3813.34H228.36V3816.54H231.82ZM231.91 3821.87C232.5 3821.87 232.96 3821.72 233.3 3821.42C233.63 3821.12 233.8 3820.7 233.8 3820.15C233.8 3819.67 233.63 3819.27 233.3 3818.94C232.97 3818.61 232.5 3818.45 231.91 3818.45H228.36V3821.87H231.91Z" fill="black"/>
<path d="M249.02 3823.78H246.43L242.97 3818.95L239.51 3823.78H236.92L241.54 3817.45L237.19 3811.44H239.78L242.96 3815.97L246.12 3811.44H248.73L244.4 3817.43L249.02 3823.78Z" fill="black"/>
<path d="M260.13 3822.19C258.95 3823.39 257.43 3823.99 255.6 3823.99C253.76 3823.99 252.25 3823.39 251.07 3822.19C249.89 3820.99 249.29 3819.46 249.29 3817.61C249.29 3815.76 249.88 3814.23 251.07 3813.03C252.25 3811.83 253.76 3811.23 255.6 3811.23C257.44 3811.23 258.95 3811.83 260.13 3813.03C261.31 3814.23 261.91 3815.76 261.91 3817.61C261.91 3819.47 261.32 3820.99 260.13 3822.19ZM255.6 3822.07C256.82 3822.07 257.81 3821.65 258.56 3820.8C259.31 3819.96 259.69 3818.89 259.69 3817.61C259.69 3816.32 259.31 3815.25 258.56 3814.41C257.81 3813.57 256.82 3813.15 255.6 3813.15C254.37 3813.15 253.38 3813.57 252.63 3814.41C251.88 3815.25 251.51 3816.32 251.51 3817.61C251.51 3818.9 251.88 3819.97 252.63 3820.81C253.38 3821.66 254.37 3822.07 255.6 3822.07Z" fill="black"/>
<path d="M262.55 3826.05V3822.07C263.04 3822.02 263.43 3821.9 263.7 3821.7C263.97 3821.5 264.22 3821.1 264.45 3820.48C264.68 3819.86 264.86 3818.96 265 3817.78L265.72 3811.44H274.1V3821.87H275.25V3826.05H273.09V3823.78H264.73V3826.05H262.55ZM267.14 3817.93C266.93 3819.75 266.39 3821.07 265.51 3821.87H271.93V3813.34H267.66L267.14 3817.93Z" fill="black"/>
<path d="M221.1 3842.27H214.87V3829.93H220.94C222.04 3829.93 222.9 3830.23 223.52 3830.83C224.14 3831.43 224.45 3832.18 224.45 3833.08C224.45 3833.82 224.24 3834.45 223.83 3834.96C223.42 3835.47 222.91 3835.79 222.3 3835.91C222.97 3836.01 223.53 3836.35 223.99 3836.94C224.45 3837.53 224.68 3838.19 224.68 3838.95C224.68 3839.94 224.36 3840.74 223.73 3841.35C223.1 3841.96 222.22 3842.27 221.1 3842.27ZM220.49 3835.04C221.03 3835.04 221.46 3834.89 221.77 3834.6C222.08 3834.3 222.23 3833.92 222.23 3833.45C222.23 3832.97 222.08 3832.58 221.77 3832.28C221.46 3831.98 221.04 3831.84 220.49 3831.84H217.03V3835.04H220.49ZM220.58 3840.36C221.17 3840.36 221.63 3840.21 221.97 3839.91C222.3 3839.61 222.47 3839.19 222.47 3838.64C222.47 3838.16 222.3 3837.76 221.97 3837.43C221.64 3837.1 221.17 3836.94 220.58 3836.94H217.03V3840.36H220.58Z" fill="black"/>
<path d="M230.811 3844.54V3840.56C231.301 3840.51 231.691 3840.39 231.961 3840.19C232.231 3839.99 232.481 3839.59 232.711 3838.97C232.941 3838.35 233.121 3837.45 233.261 3836.27L233.981 3829.93H242.361V3840.36H243.511V3844.54H241.351V3842.27H232.991V3844.54H230.811ZM235.401 3836.43C235.191 3838.25 234.651 3839.57 233.771 3840.37H240.191V3831.84H235.921L235.401 3836.43Z" fill="black"/>
<path d="M256.24 3842.27H253.78L252.87 3839.9H247.21L246.3 3842.27H243.84L248.69 3829.93H251.39L256.24 3842.27ZM252.26 3838L250.04 3832.12L247.82 3838H252.26Z" fill="black"/>
<path d="M268.33 3842.27H266.17V3836.89H259.75V3842.27H257.59V3829.93H259.75V3834.98H266.17V3829.93H268.33V3842.27Z" fill="black"/>
<path d="M272.44 3842.27H269.78L275.16 3835.76L270.15 3829.93H272.83L277.2 3835.26V3829.93H279.36V3835.26L283.73 3829.93H286.41L281.4 3835.76L286.78 3842.27H284.12L279.98 3837.07L279.37 3837.79V3842.27H277.21V3837.79L276.6 3837.07L272.44 3842.27Z" fill="black"/>
<path d="M158.02 3768.64C158.02 3756.48 148.17 3746.63 136.01 3746.63C123.85 3746.63 114 3756.48 114 3768.64C114 3778.43 120.39 3786.71 129.22 3789.57L136 3799.37L142.78 3789.57C151.63 3786.71 158.02 3778.42 158.02 3768.64Z" fill="#34E08A"/>
<path d="M135.074 3775.94V3773.89C132.857 3773.69 131.066 3772.9 129.699 3771.52L131.453 3769.06C132.455 3770.12 133.662 3770.77 135.074 3771.02V3767.42C134.513 3767.28 134.034 3767.15 133.639 3767.03C133.26 3766.89 132.827 3766.7 132.341 3766.46C131.87 3766.2 131.491 3765.93 131.202 3765.64C130.914 3765.34 130.671 3764.95 130.473 3764.48C130.276 3763.99 130.177 3763.45 130.177 3762.86C130.177 3761.68 130.618 3760.66 131.498 3759.81C132.379 3758.94 133.571 3758.44 135.074 3758.28V3756.16H137.238V3758.33C139.061 3758.53 140.602 3759.2 141.862 3760.36L140.063 3762.72C139.273 3762.01 138.332 3761.52 137.238 3761.24V3764.46C137.8 3764.59 138.279 3764.73 138.673 3764.87C139.068 3765 139.501 3765.2 139.972 3765.46C140.458 3765.7 140.845 3765.97 141.133 3766.28C141.437 3766.58 141.688 3766.98 141.885 3767.46C142.098 3767.93 142.204 3768.46 142.204 3769.06C142.204 3770.36 141.779 3771.45 140.928 3772.31C140.078 3773.18 138.848 3773.7 137.238 3773.86V3775.94H135.074ZM138.924 3769.42C138.924 3768.81 138.362 3768.33 137.238 3767.96V3771.02C137.77 3770.91 138.18 3770.71 138.468 3770.42C138.772 3770.12 138.924 3769.79 138.924 3769.42ZM133.48 3762.59C133.48 3763.15 134.012 3763.58 135.074 3763.89V3761.11C134.573 3761.17 134.179 3761.34 133.89 3761.61C133.617 3761.87 133.48 3762.19 133.48 3762.59Z" fill="white"/>
<path d="M155.63 3684.34H147.64V3729.46H155.63V3684.34Z" fill="#B9C7CE"/>
<path d="M398.83 3690.43H387.45V3747.06H398.83V3690.43Z" fill="#B9C7CE"/>
<path d="M336.98 3810.34H309.04V3815.83H336.98V3810.34Z" fill="#B9C7CE"/>
<path d="M364.73 3810.34H342.27V3815.83H364.73V3810.34Z" fill="#B9C7CE"/>
<path d="M283.487 3627.83H281.438L279.851 3621.62L278.277 3627.83H276.229L273.638 3618.79H275.795L277.382 3625.32L279.105 3618.79H280.611L282.32 3625.32L283.894 3618.79H286.065L283.487 3627.83ZM291.09 3628C289.715 3628 288.567 3627.56 287.644 3626.69C286.731 3625.82 286.274 3624.69 286.274 3623.32C286.274 3621.94 286.731 3620.82 287.644 3619.95C288.567 3619.08 289.715 3618.64 291.09 3618.64C292.781 3618.64 294.043 3619.37 294.875 3620.85L293.22 3621.66C293.021 3621.28 292.727 3620.97 292.338 3620.73C291.958 3620.47 291.542 3620.35 291.09 3620.35C290.267 3620.35 289.589 3620.63 289.055 3621.19C288.521 3621.75 288.255 3622.46 288.255 3623.32C288.255 3624.18 288.521 3624.89 289.055 3625.45C289.589 3626.01 290.267 3626.29 291.09 3626.29C291.542 3626.29 291.958 3626.17 292.338 3625.92C292.727 3625.68 293.021 3625.36 293.22 3624.97L294.875 3625.77C294.016 3627.26 292.754 3628 291.09 3628ZM297.948 3627.83H296.022V3618.79H297.948V3627.83ZM301.671 3627.83H299.745V3618.79H301.671V3627.83ZM305.394 3627.83H303.467V3618.79H305.394V3627.83Z" fill="white"/>
<path d="M254.67 3534.76H250.81V3546.14H254.67V3534.76Z" fill="#B9C7CE"/>
<path d="M90.0496 3447.23H82.0596V3469.72H90.0496V3447.23Z" fill="#B9C7CE"/>
<path d="M143.3 3412.41H121.35V3418.51H143.3V3412.41Z" fill="#B9C7CE"/>
<path d="M155.23 3412.41H149.13V3418.51H155.23V3412.41Z" fill="#B9C7CE"/>
<path d="M254.47 2478.46H250.23V2490.15H254.47V2478.46Z" fill="#B9C7CE"/>
<path d="M360.41 2348.8H354.72V2354.49H360.41V2348.8Z" fill="#B9C7CE"/>
<path d="M161.08 2348.8H155.39V2354.49H161.08V2348.8Z" fill="#B9C7CE"/>
<path d="M347.05 1542.25H341.36V1547.94H347.05V1542.25Z" fill="#B9C7CE"/>
<path d="M158 1542.25H152.31V1547.94H158V1542.25Z" fill="#B9C7CE"/>
<path d="M251.25 1417.29H247.76V1428.26H251.25V1417.29Z" fill="#B9C7CE"/>
<path d="M381 3768.64C381 3756.48 371.15 3746.63 358.99 3746.63C346.83 3746.63 336.98 3756.48 336.98 3768.64C336.98 3778.43 343.37 3786.71 352.2 3789.57L358.98 3799.37L365.76 3789.57C374.61 3786.71 381 3778.42 381 3768.64Z" fill="#34E08A"/>
<path d="M364.41 3755.47V3784.48H362.14V3774.32L361.35 3772.97C360.82 3772.07 360.54 3771.04 360.54 3770V3761.87C360.54 3760.36 361.13 3758.9 362.17 3757.81L364.41 3755.47Z" fill="white"/>
<path d="M356.57 3755.47V3764.07H355.56V3755.47H353.62V3764.07H352.6V3755.47H350.66V3764.07V3766H352.6H353.62V3784.47H355.56V3766H356.57H358.51V3764.07V3755.47H356.57Z" fill="white"/>
<path d="M87.3999 3430.03C87.3999 3417.87 77.5499 3408.02 65.3899 3408.02C53.2299 3408.02 43.3799 3417.87 43.3799 3430.03C43.3799 3439.82 49.7699 3448.1 58.5999 3450.96L65.3799 3460.76L72.1599 3450.96C81.0099 3448.1 87.3999 3439.81 87.3999 3430.03Z" fill="#34E08A"/>
<path d="M70.8094 3416.86V3445.87H68.5395V3435.71L67.7495 3434.36C67.2195 3433.46 66.9395 3432.43 66.9395 3431.39V3423.26C66.9395 3421.75 67.5295 3420.29 68.5695 3419.2L70.8094 3416.86Z" fill="white"/>
<path d="M62.9696 3416.86V3425.46H61.9496V3416.86H60.0096V3425.46H58.9996V3416.86H57.0596V3425.46V3427.39H58.9996H60.0096V3445.86H61.9496V3427.39H62.9696H64.8996V3425.46V3416.86H62.9696Z" fill="white"/>
<path d="M312.1 3352.7C312.1 3340.54 302.25 3330.69 290.09 3330.69C277.93 3330.69 268.08 3340.54 268.08 3352.7C268.08 3362.49 274.47 3370.77 283.3 3373.63L290.08 3383.43L296.86 3373.63C305.71 3370.77 312.1 3362.49 312.1 3352.7Z" fill="#34E08A"/>
<path d="M295.51 3339.53V3368.54H293.24V3358.38L292.45 3357.03C291.92 3356.13 291.64 3355.1 291.64 3354.06V3345.93C291.64 3344.42 292.23 3342.96 293.27 3341.87L295.51 3339.53Z" fill="white"/>
<path d="M287.67 3339.53V3348.13H286.65V3339.53H284.71V3348.13H283.7V3339.53H281.76V3348.13V3350.07H283.7H284.71V3368.54H286.65V3350.07H287.67H289.6V3348.13V3339.53H287.67Z" fill="white"/>
<path d="M420.82 3562.53C430.474 3562.53 438.3 3554.7 438.3 3545.05C438.3 3535.4 430.474 3527.57 420.82 3527.57C411.166 3527.57 403.34 3535.4 403.34 3545.05C403.34 3554.7 411.166 3562.53 420.82 3562.53Z" fill="#319DFF"/>
<path d="M420.539 3554.22H417.149L420.009 3541.32H423.399L420.539 3554.22ZM422.199 3539.92C421.679 3539.92 421.249 3539.75 420.899 3539.41C420.549 3539.07 420.379 3538.66 420.379 3538.18C420.379 3537.48 420.619 3536.93 421.089 3536.51C421.559 3536.09 422.079 3535.88 422.649 3535.88C423.179 3535.88 423.629 3536.05 423.969 3536.39C424.309 3536.73 424.489 3537.14 424.489 3537.62C424.489 3538.32 424.249 3538.87 423.769 3539.29C423.299 3539.71 422.769 3539.92 422.199 3539.92Z" fill="#F4F4F4"/>
<path d="M420.82 2501.18C430.474 2501.18 438.3 2493.35 438.3 2483.7C438.3 2474.05 430.474 2466.22 420.82 2466.22C411.166 2466.22 403.34 2474.05 403.34 2483.7C403.34 2493.35 411.166 2501.18 420.82 2501.18Z" fill="#319DFF"/>
<path d="M420.539 2492.86H417.149L420.009 2479.96H423.399L420.539 2492.86ZM422.199 2478.57C421.679 2478.57 421.249 2478.4 420.899 2478.06C420.549 2477.72 420.379 2477.31 420.379 2476.83C420.379 2476.13 420.619 2475.58 421.089 2475.16C421.559 2474.74 422.079 2474.53 422.649 2474.53C423.179 2474.53 423.629 2474.7 423.969 2475.04C424.309 2475.38 424.489 2475.79 424.489 2476.27C424.489 2476.97 424.249 2477.52 423.769 2477.94C423.299 2478.36 422.769 2478.57 422.199 2478.57Z" fill="#F4F4F4"/>
<path d="M77.7603 2501.18C87.4142 2501.18 95.2403 2493.35 95.2403 2483.7C95.2403 2474.05 87.4142 2466.22 77.7603 2466.22C68.1063 2466.22 60.2803 2474.05 60.2803 2483.7C60.2803 2493.35 68.1063 2501.18 77.7603 2501.18Z" fill="#319DFF"/>
<path d="M77.4799 2492.86H74.0898L76.9498 2479.96H80.3398L77.4799 2492.86ZM79.1298 2478.57C78.6098 2478.57 78.1798 2478.4 77.8298 2478.06C77.4798 2477.72 77.3098 2477.31 77.3098 2476.83C77.3098 2476.13 77.5498 2475.58 78.0198 2475.16C78.4898 2474.74 79.0098 2474.53 79.5798 2474.53C80.1098 2474.53 80.5598 2474.7 80.8998 2475.04C81.2398 2475.38 81.4198 2475.79 81.4198 2476.27C81.4198 2476.97 81.1798 2477.52 80.6998 2477.94C80.2298 2478.36 79.6998 2478.57 79.1298 2478.57Z" fill="#F4F4F4"/>
<path d="M376.86 1773.89C376.86 1761.73 367.01 1751.88 354.85 1751.88C342.69 1751.88 332.84 1761.73 332.84 1773.89C332.84 1783.68 339.23 1791.96 348.06 1794.82L354.84 1804.62L361.62 1794.82C370.47 1791.97 376.86 1783.68 376.86 1773.89Z" fill="#34E08A"/>
<path d="M360.269 1760.73V1789.74H357.999V1779.58L357.209 1778.23C356.679 1777.33 356.399 1776.3 356.399 1775.26V1767.13C356.399 1765.62 356.989 1764.16 358.029 1763.07L360.269 1760.73Z" fill="white"/>
<path d="M352.43 1760.73V1769.32H351.41V1760.73H349.47V1769.32H348.46V1760.73H346.52V1769.32V1771.26H348.46H349.47V1789.73H351.41V1771.26H352.43H354.36V1769.32V1760.73H352.43Z" fill="white"/>
<path d="M233.77 1543.58C233.77 1531.42 223.92 1521.57 211.76 1521.57C199.6 1521.57 189.75 1531.42 189.75 1543.58C189.75 1553.37 196.14 1561.65 204.97 1564.51L211.75 1574.31L218.53 1564.51C227.38 1561.65 233.77 1553.37 233.77 1543.58Z" fill="#34E08A"/>
<path d="M217.18 1530.41V1559.42H214.91V1549.26L214.12 1547.91C213.59 1547.01 213.31 1545.98 213.31 1544.94V1536.81C213.31 1535.3 213.9 1533.84 214.94 1532.75L217.18 1530.41Z" fill="white"/>
<path d="M209.34 1530.41V1539.01H208.32V1530.41H206.38V1539.01H205.37V1530.41H203.43V1539.01V1540.95H205.37H206.38V1559.42H208.32V1540.95H209.34H211.27V1539.01V1530.41H209.34Z" fill="white"/>
<path d="M62.8003 1211.05C62.8003 1198.89 52.9503 1189.04 40.7903 1189.04C28.6303 1189.04 18.7803 1198.89 18.7803 1211.05C18.7803 1220.84 25.1703 1229.12 34.0003 1231.98L40.7803 1241.78L47.5603 1231.98C56.4103 1229.12 62.8003 1220.83 62.8003 1211.05Z" fill="#34E08A"/>
<path d="M46.2196 1197.88V1226.89H43.9496V1216.73L43.1596 1215.38C42.6296 1214.48 42.3496 1213.45 42.3496 1212.41V1204.28C42.3496 1202.77 42.9396 1201.31 43.9796 1200.22L46.2196 1197.88Z" fill="white"/>
<path d="M38.37 1197.88V1206.47H37.36V1197.88H35.42V1206.47H34.4V1197.88H32.46V1206.47V1208.41H34.4H35.42V1226.88H37.36V1208.41H38.37H40.31V1206.47V1197.88H38.37Z" fill="white"/>
<path d="M472.9 991.17C472.9 979.01 463.05 969.16 450.89 969.16C438.73 969.16 428.88 979.01 428.88 991.17C428.88 1000.96 435.27 1009.24 444.1 1012.1L450.88 1021.9L457.66 1012.1C466.5 1009.24 472.9 1000.95 472.9 991.17Z" fill="#34E08A"/>
<path d="M456.309 978V1007H454.039V996.84L453.249 995.49C452.719 994.59 452.439 993.56 452.439 992.52V984.39C452.439 982.88 453.029 981.42 454.069 980.33L456.309 978Z" fill="white"/>
<path d="M448.46 978V986.59H447.45V978H445.51V986.59H444.5V978H442.56V986.59V988.53H444.5H445.51V1007H447.45V988.53H448.46H450.4V986.59V978H448.46Z" fill="white"/>
<path d="M420.82 1440.85C430.474 1440.85 438.3 1433.02 438.3 1423.37C438.3 1413.72 430.474 1405.89 420.82 1405.89C411.166 1405.89 403.34 1413.72 403.34 1423.37C403.34 1433.02 411.166 1440.85 420.82 1440.85Z" fill="#319DFF"/>
<path d="M420.539 1432.53H417.149L420.009 1419.63H423.399L420.539 1432.53ZM422.199 1418.24C421.679 1418.24 421.249 1418.07 420.899 1417.73C420.549 1417.39 420.379 1416.98 420.379 1416.5C420.379 1415.8 420.619 1415.25 421.089 1414.83C421.559 1414.41 422.079 1414.2 422.649 1414.2C423.179 1414.2 423.629 1414.37 423.969 1414.71C424.309 1415.05 424.489 1415.46 424.489 1415.94C424.489 1416.64 424.249 1417.19 423.769 1417.61C423.299 1418.03 422.769 1418.24 422.199 1418.24Z" fill="#F4F4F4"/>
<path d="M378.75 1509.25H366.86V1514.43H378.75V1509.25Z" fill="#B9C7CE"/>
<path d="M30.2102 841.24H2.24023V869.21H30.2102V841.24Z" fill="#34E08A"/>
<path d="M24.8304 853.07H18.3704V846.61H14.0704V853.07H7.61035V857.38H14.0704V863.84H18.3704V857.38H24.8304V853.07Z" fill="white"/>
<path d="M69.9497 988.02C69.9497 975.86 60.0997 966.01 47.9397 966.01C35.7797 966.01 25.9297 975.86 25.9297 988.02C25.9297 997.81 32.3197 1006.09 41.1497 1008.95L47.9297 1018.75L54.7097 1008.95C63.5597 1006.09 69.9497 997.81 69.9497 988.02Z" fill="#34E08A"/>
<path d="M47.0032 995.32V993.27C44.7862 993.072 42.9943 992.283 41.6277 990.901L43.3816 988.441C44.3838 989.504 45.591 990.157 47.0032 990.4V986.801C46.4414 986.664 45.963 986.535 45.5682 986.414C45.1886 986.277 44.7558 986.087 44.2699 985.844C43.7991 985.586 43.4195 985.313 43.131 985.024C42.8425 984.721 42.5995 984.333 42.4021 983.863C42.2047 983.377 42.106 982.838 42.106 982.245C42.106 981.061 42.5464 980.044 43.4271 979.193C44.3078 978.328 45.4999 977.819 47.0032 977.667V975.549H49.1671V977.713C50.9893 977.91 52.5306 978.586 53.791 979.74L51.9915 982.109C51.2019 981.395 50.2604 980.901 49.1671 980.628V983.84C49.7289 983.976 50.2073 984.113 50.6021 984.25C50.9969 984.386 51.4297 984.584 51.9004 984.842C52.3863 985.085 52.7736 985.358 53.0621 985.662C53.3658 985.966 53.6163 986.361 53.8137 986.846C54.0263 987.317 54.1326 987.849 54.1326 988.441C54.1326 989.747 53.7074 990.833 52.8571 991.698C52.0067 992.564 50.7767 993.08 49.1671 993.247V995.32H47.0032ZM50.8526 988.805C50.8526 988.198 50.2908 987.712 49.1671 987.348V990.4C49.6986 990.293 50.1086 990.096 50.3971 989.808C50.7008 989.504 50.8526 989.17 50.8526 988.805ZM45.4088 981.972C45.4088 982.534 45.9402 982.967 47.0032 983.27V980.491C46.5021 980.552 46.1073 980.719 45.8188 980.993C45.5454 981.251 45.4088 981.577 45.4088 981.972Z" fill="white"/>
<path d="M168.571 667.21L164.401 675.89C164.051 676.62 164.581 677.46 165.391 677.46H173.731C174.541 677.46 175.071 676.62 174.721 675.89L170.551 667.21C170.151 666.38 168.971 666.38 168.571 667.21Z" fill="#34E08A"/>
<path d="M170.551 691.39L174.721 682.71C175.071 681.98 174.541 681.14 173.731 681.14H165.391C164.581 681.14 164.051 681.98 164.401 682.71L168.571 691.39C168.971 692.22 170.151 692.22 170.551 691.39Z" fill="#34E08A"/>
<path d="M177.83 697.51H161.29C159.79 697.51 158.57 696.29 158.57 694.79V663.82C158.57 662.32 159.79 661.1 161.29 661.1H177.83C179.33 661.1 180.55 662.32 180.55 663.82V694.79C180.55 696.29 179.33 697.51 177.83 697.51Z" stroke="#34E08A" stroke-miterlimit="10"/>
<path d="M249.16 584.3H239.73L226.43 597.6H220.57C218.13 597.6 216.14 599.58 216.14 602.02C216.14 604.46 218.12 606.44 220.57 606.44H230.09L243.4 593.13H249.16C251.6 593.13 253.59 591.15 253.59 588.71C253.59 586.27 251.61 584.3 249.16 584.3Z" fill="#34E08A"/>
<path d="M222.109 592.68L233.789 580.99" stroke="#34E08A" stroke-miterlimit="10"/>
<path d="M224.71 592.47H222.32V590.07L221.3 591.09V593.49H223.7L224.71 592.47Z" fill="#34E08A"/>
<path d="M233.579 583.6V581.2H231.189L232.199 580.19H234.599V582.58L233.579 583.6Z" fill="#34E08A"/>
<path d="M327.1 334.9H175.41C159.79 319.28 151.03 310.52 135.41 294.9V243.56H367.1V294.9C351.48 310.52 342.72 319.28 327.1 334.9Z" fill="#B9C7CE"/>
<path d="M103.04 3330.69H81.25V3352.48H103.04V3330.69Z" fill="#FF4633"/>
<path d="M91.6397 3348.26C93.6197 3348.41 95.6597 3347.35 96.6497 3345.63C97.6497 3343.91 97.5497 3341.61 96.4097 3339.98C96.1197 3339.57 95.7597 3339.19 95.4997 3338.76C95.1897 3338.26 94.9997 3337.68 94.9597 3337.09C94.8497 3337.73 94.7397 3338.38 94.4797 3338.98C94.2197 3339.58 93.7997 3340.13 93.2097 3340.41C93.1497 3340.44 93.0797 3340.47 93.0097 3340.46C92.8597 3340.45 92.7697 3340.29 92.7097 3340.15C92.2297 3338.97 92.1297 3337.64 92.4097 3336.4C92.5897 3335.6 92.9297 3334.76 92.6597 3333.99C92.3497 3334.45 92.0297 3334.91 91.6397 3335.31C91.2697 3335.68 90.8397 3335.99 90.4697 3336.36C89.4697 3337.36 88.9197 3338.8 89.0097 3340.21C88.4197 3339.81 88.0097 3339.14 87.9297 3338.43C87.9297 3338.44 84.0997 3347.46 91.6397 3348.26Z" fill="white"/>
<path d="M103.04 3086.37H81.25V3108.16H103.04V3086.37Z" fill="#FF4633"/>
<path d="M91.6397 3103.94C93.6197 3104.09 95.6597 3103.03 96.6497 3101.31C97.6497 3099.59 97.5497 3097.29 96.4097 3095.66C96.1197 3095.25 95.7597 3094.87 95.4997 3094.44C95.1897 3093.94 94.9997 3093.36 94.9597 3092.77C94.8497 3093.41 94.7397 3094.06 94.4797 3094.66C94.2197 3095.26 93.7997 3095.81 93.2097 3096.09C93.1497 3096.12 93.0797 3096.15 93.0097 3096.14C92.8597 3096.13 92.7697 3095.97 92.7097 3095.83C92.2297 3094.65 92.1297 3093.32 92.4097 3092.08C92.5897 3091.28 92.9297 3090.44 92.6597 3089.67C92.3497 3090.13 92.0297 3090.59 91.6397 3090.99C91.2697 3091.36 90.8397 3091.67 90.4697 3092.04C89.4697 3093.04 88.9197 3094.48 89.0097 3095.89C88.4197 3095.49 88.0097 3094.82 87.9297 3094.11C87.9297 3094.12 84.0997 3103.14 91.6397 3103.94Z" fill="white"/>
<path d="M418.29 3086.37H396.5V3108.16H418.29V3086.37Z" fill="#FF4633"/>
<path d="M406.88 3103.94C408.86 3104.09 410.9 3103.03 411.89 3101.31C412.89 3099.59 412.79 3097.29 411.65 3095.66C411.36 3095.25 411 3094.87 410.74 3094.44C410.43 3093.94 410.24 3093.36 410.2 3092.77C410.09 3093.41 409.98 3094.06 409.72 3094.66C409.46 3095.26 409.04 3095.81 408.45 3096.09C408.39 3096.12 408.32 3096.15 408.25 3096.14C408.1 3096.13 408.01 3095.97 407.95 3095.83C407.47 3094.65 407.37 3093.32 407.65 3092.08C407.83 3091.28 408.17 3090.44 407.9 3089.67C407.59 3090.13 407.27 3090.59 406.88 3090.99C406.51 3091.36 406.08 3091.67 405.71 3092.04C404.71 3093.04 404.16 3094.48 404.25 3095.89C403.66 3095.49 403.25 3094.82 403.17 3094.11C403.18 3094.12 399.34 3103.14 406.88 3103.94Z" fill="white"/>
<path d="M103.04 2676.38H81.25V2698.17H103.04V2676.38Z" fill="#FF4633"/>
<path d="M91.6397 2693.96C93.6197 2694.11 95.6597 2693.05 96.6497 2691.33C97.6497 2689.61 97.5497 2687.31 96.4097 2685.68C96.1197 2685.27 95.7597 2684.89 95.4997 2684.46C95.1897 2683.96 94.9997 2683.38 94.9597 2682.79C94.8497 2683.43 94.7397 2684.08 94.4797 2684.68C94.2197 2685.28 93.7997 2685.83 93.2097 2686.11C93.1497 2686.14 93.0797 2686.17 93.0097 2686.16C92.8597 2686.15 92.7697 2685.99 92.7097 2685.85C92.2297 2684.67 92.1297 2683.34 92.4097 2682.1C92.5897 2681.3 92.9297 2680.46 92.6597 2679.69C92.3497 2680.15 92.0297 2680.61 91.6397 2681.01C91.2697 2681.38 90.8397 2681.69 90.4697 2682.06C89.4697 2683.06 88.9197 2684.5 89.0097 2685.91C88.4197 2685.51 88.0097 2684.84 87.9297 2684.13C87.9297 2684.13 84.0997 2693.15 91.6397 2693.96Z" fill="white"/>
<path d="M418.29 2595.01H396.5V2616.8H418.29V2595.01Z" fill="#FF4633"/>
<path d="M406.88 2612.58C408.86 2612.73 410.9 2611.67 411.89 2609.95C412.89 2608.23 412.79 2605.93 411.65 2604.3C411.36 2603.89 411 2603.51 410.74 2603.08C410.43 2602.58 410.24 2602 410.2 2601.41C410.09 2602.05 409.98 2602.7 409.72 2603.3C409.46 2603.9 409.04 2604.45 408.45 2604.73C408.39 2604.76 408.32 2604.79 408.25 2604.78C408.1 2604.77 408.01 2604.61 407.95 2604.47C407.47 2603.29 407.37 2601.96 407.65 2600.72C407.83 2599.92 408.17 2599.08 407.9 2598.31C407.59 2598.77 407.27 2599.23 406.88 2599.63C406.51 2600 406.08 2600.31 405.71 2600.68C404.71 2601.68 404.16 2603.12 404.25 2604.53C403.66 2604.13 403.25 2603.46 403.17 2602.75C403.18 2602.76 399.34 2611.78 406.88 2612.58Z" fill="white"/>
<path d="M103.04 2105.12H81.25V2126.91H103.04V2105.12Z" fill="#FF4633"/>
<path d="M91.6397 2122.69C93.6197 2122.84 95.6597 2121.78 96.6497 2120.06C97.6497 2118.34 97.5497 2116.04 96.4097 2114.41C96.1197 2113.99 95.7597 2113.62 95.4997 2113.19C95.1897 2112.69 94.9997 2112.11 94.9597 2111.52C94.8497 2112.16 94.7397 2112.81 94.4797 2113.41C94.2197 2114.01 93.7997 2114.56 93.2097 2114.84C93.1497 2114.87 93.0797 2114.9 93.0097 2114.89C92.8597 2114.88 92.7697 2114.72 92.7097 2114.58C92.2297 2113.4 92.1297 2112.07 92.4097 2110.83C92.5897 2110.03 92.9297 2109.2 92.6597 2108.42C92.3497 2108.88 92.0297 2109.34 91.6397 2109.74C91.2697 2110.11 90.8397 2110.42 90.4697 2110.79C89.4697 2111.79 88.9197 2113.23 89.0097 2114.64C88.4197 2114.24 88.0097 2113.57 87.9297 2112.86C87.9297 2112.87 84.0997 2121.89 91.6397 2122.69Z" fill="white"/>
<path d="M418.29 2187.11H396.5V2208.9H418.29V2187.11Z" fill="#FF4633"/>
<path d="M406.88 2204.68C408.86 2204.83 410.9 2203.77 411.89 2202.05C412.89 2200.33 412.79 2198.03 411.65 2196.4C411.36 2195.99 411 2195.61 410.74 2195.18C410.43 2194.68 410.24 2194.1 410.2 2193.51C410.09 2194.15 409.98 2194.8 409.72 2195.4C409.46 2196 409.04 2196.55 408.45 2196.83C408.39 2196.86 408.32 2196.89 408.25 2196.88C408.1 2196.87 408.01 2196.71 407.95 2196.57C407.47 2195.39 407.37 2194.06 407.65 2192.82C407.83 2192.02 408.17 2191.18 407.9 2190.41C407.59 2190.87 407.27 2191.33 406.88 2191.73C406.51 2192.1 406.08 2192.41 405.71 2192.78C404.71 2193.78 404.16 2195.22 404.25 2196.63C403.66 2196.23 403.25 2195.56 403.17 2194.85C403.18 2194.86 399.34 2203.88 406.88 2204.68Z" fill="white"/>
<path d="M103.04 1615.27H81.25V1637.06H103.04V1615.27Z" fill="#FF4633"/>
<path d="M91.6397 1632.84C93.6197 1632.99 95.6597 1631.93 96.6497 1630.21C97.6497 1628.49 97.5497 1626.19 96.4097 1624.56C96.1197 1624.15 95.7597 1623.77 95.4997 1623.34C95.1897 1622.84 94.9997 1622.26 94.9597 1621.67C94.8497 1622.31 94.7397 1622.96 94.4797 1623.56C94.2197 1624.16 93.7997 1624.71 93.2097 1624.99C93.1497 1625.02 93.0797 1625.05 93.0097 1625.04C92.8597 1625.03 92.7697 1624.87 92.7097 1624.73C92.2297 1623.55 92.1297 1622.22 92.4097 1620.98C92.5897 1620.18 92.9297 1619.34 92.6597 1618.57C92.3497 1619.03 92.0297 1619.49 91.6397 1619.89C91.2697 1620.26 90.8397 1620.57 90.4697 1620.94C89.4697 1621.94 88.9197 1623.38 89.0097 1624.79C88.4197 1624.39 88.0097 1623.72 87.9297 1623.01C87.9297 1623.01 84.0997 1632.03 91.6397 1632.84Z" fill="white"/>
<path d="M418.29 1860.25H396.5V1882.04H418.29V1860.25Z" fill="#FF4633"/>
<path d="M406.88 1877.82C408.86 1877.97 410.9 1876.91 411.89 1875.19C412.89 1873.47 412.79 1871.17 411.65 1869.54C411.36 1869.13 411 1868.75 410.74 1868.32C410.43 1867.82 410.24 1867.24 410.2 1866.65C410.09 1867.29 409.98 1867.94 409.72 1868.54C409.46 1869.14 409.04 1869.69 408.45 1869.97C408.39 1870 408.32 1870.03 408.25 1870.02C408.1 1870.01 408.01 1869.85 407.95 1869.71C407.47 1868.53 407.37 1867.2 407.65 1865.96C407.83 1865.16 408.17 1864.32 407.9 1863.55C407.59 1864.01 407.27 1864.47 406.88 1864.87C406.51 1865.24 406.08 1865.55 405.71 1865.92C404.71 1866.92 404.16 1868.36 404.25 1869.77C403.66 1869.37 403.25 1868.7 403.17 1867.99C403.18 1867.99 399.34 1877.01 406.88 1877.82Z" fill="white"/>
<path d="M418.29 1615.27H396.5V1637.06H418.29V1615.27Z" fill="#FF4633"/>
<path d="M406.88 1632.84C408.86 1632.99 410.9 1631.93 411.89 1630.21C412.89 1628.49 412.79 1626.19 411.65 1624.56C411.36 1624.15 411 1623.77 410.74 1623.34C410.43 1622.84 410.24 1622.26 410.2 1621.67C410.09 1622.31 409.98 1622.96 409.72 1623.56C409.46 1624.16 409.04 1624.71 408.45 1624.99C408.39 1625.02 408.32 1625.05 408.25 1625.04C408.1 1625.03 408.01 1624.87 407.95 1624.73C407.47 1623.55 407.37 1622.22 407.65 1620.98C407.83 1620.18 408.17 1619.34 407.9 1618.57C407.59 1619.03 407.27 1619.49 406.88 1619.89C406.51 1620.26 406.08 1620.57 405.71 1620.94C404.71 1621.94 404.16 1623.38 404.25 1624.79C403.66 1624.39 403.25 1623.72 403.17 1623.01C403.18 1623.01 399.34 1632.03 406.88 1632.84Z" fill="white"/>
<path d="M103.04 1265.93H81.25V1287.72H103.04V1265.93Z" fill="#FF4633"/>
<path d="M91.6397 1283.5C93.6197 1283.65 95.6597 1282.59 96.6497 1280.87C97.6497 1279.15 97.5497 1276.85 96.4097 1275.22C96.1197 1274.81 95.7597 1274.43 95.4997 1274C95.1897 1273.5 94.9997 1272.92 94.9597 1272.33C94.8497 1272.97 94.7397 1273.62 94.4797 1274.22C94.2197 1274.82 93.7997 1275.37 93.2097 1275.65C93.1497 1275.68 93.0797 1275.71 93.0097 1275.7C92.8597 1275.69 92.7697 1275.53 92.7097 1275.39C92.2297 1274.21 92.1297 1272.88 92.4097 1271.64C92.5897 1270.84 92.9297 1270 92.6597 1269.23C92.3497 1269.69 92.0297 1270.15 91.6397 1270.55C91.2697 1270.92 90.8397 1271.23 90.4697 1271.6C89.4697 1272.6 88.9197 1274.04 89.0097 1275.45C88.4197 1275.05 88.0097 1274.38 87.9297 1273.67C87.9297 1273.68 84.0997 1282.7 91.6397 1283.5Z" fill="white"/>
<path d="M418.29 1207.22H396.5V1229.01H418.29V1207.22Z" fill="#FF4633"/>
<path d="M406.88 1224.8C408.86 1224.95 410.9 1223.89 411.89 1222.17C412.89 1220.45 412.79 1218.15 411.65 1216.52C411.36 1216.11 411 1215.73 410.74 1215.3C410.43 1214.8 410.24 1214.22 410.2 1213.63C410.09 1214.27 409.98 1214.92 409.72 1215.52C409.46 1216.12 409.04 1216.67 408.45 1216.95C408.39 1216.98 408.32 1217.01 408.25 1217C408.1 1216.99 408.01 1216.83 407.95 1216.69C407.47 1215.51 407.37 1214.18 407.65 1212.94C407.83 1212.14 408.17 1211.3 407.9 1210.53C407.59 1210.99 407.27 1211.45 406.88 1211.85C406.51 1212.22 406.08 1212.53 405.71 1212.9C404.71 1213.9 404.16 1215.34 404.25 1216.75C403.66 1216.35 403.25 1215.68 403.17 1214.97C403.18 1214.97 399.34 1223.99 406.88 1224.8Z" fill="white"/>
<path d="M143.68 413.17H121.89V434.96H143.68V413.17Z" fill="#FF4633"/>
<path d="M132.279 430.74C134.259 430.89 136.299 429.83 137.289 428.11C138.289 426.39 138.189 424.09 137.049 422.46C136.759 422.05 136.399 421.67 136.139 421.24C135.829 420.74 135.639 420.16 135.599 419.57C135.489 420.21 135.379 420.86 135.119 421.46C134.859 422.06 134.439 422.61 133.849 422.89C133.789 422.92 133.719 422.95 133.649 422.94C133.499 422.93 133.409 422.77 133.349 422.63C132.869 421.45 132.769 420.12 133.049 418.88C133.229 418.08 133.569 417.25 133.299 416.47C132.989 416.93 132.669 417.39 132.279 417.79C131.909 418.16 131.479 418.47 131.109 418.84C130.109 419.84 129.559 421.28 129.649 422.69C129.059 422.29 128.649 421.62 128.569 420.91C128.569 420.92 124.739 429.94 132.279 430.74Z" fill="white"/>
<path d="M380.58 412.72H358.79V434.51H380.58V412.72Z" fill="#FF4633"/>
<path d="M369.18 430.29C371.16 430.44 373.2 429.38 374.19 427.66C375.19 425.94 375.09 423.64 373.95 422.01C373.66 421.6 373.3 421.22 373.04 420.79C372.73 420.29 372.54 419.71 372.5 419.12C372.39 419.76 372.28 420.41 372.02 421.01C371.76 421.61 371.34 422.16 370.75 422.44C370.69 422.47 370.62 422.5 370.55 422.49C370.4 422.48 370.31 422.32 370.25 422.18C369.77 421 369.67 419.67 369.95 418.43C370.13 417.63 370.47 416.8 370.2 416.02C369.89 416.48 369.57 416.94 369.18 417.34C368.81 417.71 368.38 418.02 368.01 418.39C367.01 419.39 366.46 420.83 366.55 422.24C365.96 421.84 365.55 421.17 365.47 420.46C365.47 420.47 361.64 429.49 369.18 430.29Z" fill="white"/>
<path d="M88.9797 1249.88H68.4297" stroke="#232323" stroke-miterlimit="10"/>
<path d="M68.4297 1229.33H88.9797" stroke="#232323" stroke-miterlimit="10"/>
<path d="M68.4297 1229.33H88.9797" stroke="#232323" stroke-miterlimit="10"/>
<path d="M88.9797 1249.88H68.4297" stroke="#232323" stroke-miterlimit="10"/>
<path d="M46.5399 888.63L29.6299 876.96" stroke="#232323" stroke-miterlimit="10"/>
<path d="M41.2998 860.04L58.2098 871.71" stroke="#232323" stroke-miterlimit="10"/>
<path d="M63.6804 864.77L48.1504 851.32" stroke="#232323" stroke-miterlimit="10"/>
<path d="M61.5996 835.78L77.1296 849.23" stroke="#232323" stroke-miterlimit="10"/>
<path d="M443.96 841.99L428.28 855.28" stroke="#232323" stroke-miterlimit="10"/>
<path d="M441.57 870.95L457.25 857.67" stroke="#232323" stroke-miterlimit="10"/>
<path d="M441.49 832.95V823.99H452.73V812.74H463.98V801.49" stroke="#34E08A" stroke-width="2" stroke-miterlimit="10"/>
<path d="M444.881 828.96L441.491 832.35L438.101 828.96V831.84L441.491 835.23L444.881 831.84V828.96Z" fill="#34E08A"/>
<path d="M452.73 792.53V801.49H441.49V812.74H430.24V823.99" stroke="#34E08A" stroke-width="2" stroke-miterlimit="10"/>
<path d="M449.34 796.52L452.73 793.13L456.13 796.52V793.64L452.73 790.25L449.34 793.64V796.52Z" fill="#34E08A"/>
<path d="M50.0293 832.95V823.99H61.2793V812.74H72.5193V801.49" stroke="#34E08A" stroke-width="2" stroke-miterlimit="10"/>
<path d="M53.4196 828.96L50.0296 832.35L46.6396 828.96V831.84L50.0296 835.23L53.4196 831.84V828.96Z" fill="#34E08A"/>
<path d="M61.28 792.53V801.49H50.03V812.74H38.79V823.99" stroke="#34E08A" stroke-width="2" stroke-miterlimit="10"/>
<path d="M57.8896 796.52L61.2796 793.13L64.6696 796.52V793.64L61.2796 790.25L57.8896 793.64V796.52Z" fill="#34E08A"/>
<path d="M309.5 214.36V148.51" stroke="#232323" stroke-miterlimit="10"/>
<path d="M196.1 148.51V214.36" stroke="#232323" stroke-miterlimit="10"/>
<path d="M233.81 177.22H227.58V164.88H233.65C234.75 164.88 235.61 165.18 236.23 165.78C236.85 166.38 237.16 167.13 237.16 168.03C237.16 168.77 236.95 169.4 236.54 169.91C236.13 170.42 235.62 170.74 235.01 170.86C235.68 170.96 236.24 171.3 236.7 171.89C237.16 172.48 237.39 173.14 237.39 173.9C237.39 174.89 237.07 175.69 236.44 176.3C235.81 176.91 234.94 177.22 233.81 177.22ZM233.2 169.99C233.74 169.99 234.17 169.84 234.48 169.55C234.79 169.25 234.94 168.87 234.94 168.4C234.94 167.92 234.79 167.53 234.48 167.23C234.17 166.93 233.75 166.79 233.2 166.79H229.74V169.99H233.2ZM233.3 175.32C233.89 175.32 234.35 175.17 234.69 174.87C235.02 174.57 235.19 174.15 235.19 173.6C235.19 173.12 235.02 172.72 234.69 172.39C234.36 172.06 233.89 171.9 233.3 171.9H229.75V175.32H233.3Z" fill="black"/>
<path d="M250.4 177.22H247.81L244.35 172.39L240.89 177.22H238.3L242.92 170.89L238.57 164.88H241.16L244.34 169.41L247.5 164.88H250.11L245.78 170.87L250.4 177.22Z" fill="black"/>
<path d="M261.519 175.64C260.339 176.84 258.829 177.44 256.989 177.44C255.149 177.44 253.639 176.84 252.459 175.64C251.279 174.44 250.689 172.91 250.689 171.06C250.689 169.21 251.279 167.68 252.459 166.48C253.639 165.28 255.149 164.68 256.989 164.68C258.829 164.68 260.339 165.28 261.519 166.48C262.699 167.68 263.299 169.21 263.299 171.06C263.289 172.91 262.699 174.44 261.519 175.64ZM256.989 175.52C258.209 175.52 259.199 175.1 259.949 174.25C260.699 173.41 261.079 172.34 261.079 171.06C261.079 169.77 260.699 168.7 259.949 167.86C259.199 167.02 258.209 166.6 256.989 166.6C255.759 166.6 254.769 167.02 254.019 167.86C253.269 168.7 252.899 169.76 252.899 171.06C252.899 172.35 253.269 173.42 254.019 174.26C254.759 175.1 255.749 175.52 256.989 175.52Z" fill="black"/>
<path d="M263.939 179.5V175.52C264.429 175.47 264.819 175.35 265.089 175.15C265.359 174.95 265.609 174.55 265.839 173.93C266.069 173.31 266.249 172.41 266.389 171.23L267.109 164.89H275.489V175.32H276.639V179.5H274.479V177.23H266.119V179.5H263.939ZM268.529 171.38C268.319 173.21 267.779 174.52 266.899 175.32H273.319V166.79H269.049L268.529 171.38Z" fill="black"/>
<path d="M222.49 195.72H216.26V183.38H222.33C223.43 183.38 224.29 183.68 224.91 184.28C225.53 184.88 225.84 185.63 225.84 186.53C225.84 187.27 225.63 187.9 225.22 188.41C224.81 188.92 224.3 189.24 223.69 189.36C224.36 189.46 224.92 189.8 225.38 190.39C225.84 190.98 226.07 191.64 226.07 192.4C226.07 193.39 225.75 194.19 225.12 194.8C224.49 195.41 223.61 195.72 222.49 195.72ZM221.88 188.49C222.42 188.49 222.85 188.34 223.16 188.05C223.47 187.75 223.62 187.37 223.62 186.9C223.62 186.42 223.47 186.03 223.16 185.73C222.85 185.43 222.43 185.29 221.88 185.29H218.42V188.49H221.88ZM221.97 193.81C222.56 193.81 223.02 193.66 223.36 193.36C223.69 193.06 223.86 192.64 223.86 192.09C223.86 191.61 223.69 191.21 223.36 190.88C223.03 190.55 222.56 190.39 221.97 190.39H218.42V193.81H221.97Z" fill="black"/>
<path d="M232.2 197.99V194.01C232.69 193.96 233.08 193.84 233.35 193.64C233.62 193.44 233.87 193.04 234.1 192.42C234.33 191.8 234.51 190.9 234.65 189.72L235.37 183.38H243.75V193.81H244.9V197.99H242.74V195.72H234.38V197.99H232.2ZM236.78 189.87C236.57 191.7 236.03 193.01 235.15 193.81H241.57V185.28H237.3L236.78 189.87Z" fill="black"/>
<path d="M257.62 195.72H255.16L254.25 193.35H248.59L247.68 195.72H245.22L250.07 183.38H252.77L257.62 195.72ZM253.65 191.44L251.43 185.56L249.21 191.44H253.65Z" fill="black"/>
<path d="M269.719 195.72H267.559V190.34H261.139V195.72H258.979V183.38H261.139V188.43H267.559V183.38H269.719V195.72Z" fill="black"/>
<path d="M273.83 195.72H271.17L276.55 189.21L271.54 183.38H274.22L278.59 188.71V183.38H280.75V188.71L285.12 183.38H287.8L282.79 189.21L288.17 195.72H285.51L281.37 190.52L280.76 191.24V195.72H278.6V191.24L277.99 190.52L273.83 195.72Z" fill="black"/>
<path d="M205.2 36.8301H202.8V25.2401H195.67V36.8301H193.27V23.1301H205.21V36.8301H205.2Z" fill="black"/>
<path d="M210.53 36.8301H208.13V23.1301H214.15C215.53 23.1301 216.63 23.5401 217.43 24.3601C218.23 25.1801 218.63 26.2001 218.63 27.4201C218.63 28.6301 218.23 29.6401 217.43 30.4701C216.63 31.3001 215.54 31.7101 214.15 31.7101H210.53V36.8301ZM213.81 29.6001C214.5 29.6001 215.06 29.4001 215.5 29.0001C215.94 28.6001 216.16 28.0801 216.16 27.4201C216.16 26.7601 215.94 26.2401 215.5 25.8401C215.06 25.4401 214.5 25.2401 213.81 25.2401H210.52V29.6001H213.81Z" fill="black"/>
<path d="M232.04 35.0801C230.72 36.4201 229.05 37.0801 227.01 37.0801C224.97 37.0801 223.29 36.4101 221.98 35.0801C220.66 33.7401 220.01 32.0501 220.01 29.9901C220.01 27.9301 220.67 26.2401 221.98 24.9001C223.29 23.5601 224.97 22.9001 227.01 22.9001C229.05 22.9001 230.73 23.5701 232.04 24.9001C233.35 26.2401 234.01 27.9301 234.01 29.9901C234.01 32.0501 233.36 33.7401 232.04 35.0801ZM227.01 34.9401C228.37 34.9401 229.46 34.4701 230.3 33.5301C231.14 32.5901 231.55 31.4101 231.55 29.9901C231.55 28.5501 231.13 27.3701 230.3 26.4301C229.46 25.5001 228.37 25.0301 227.01 25.0301C225.64 25.0301 224.54 25.5001 223.71 26.4301C222.88 27.3601 222.47 28.5501 222.47 29.9901C222.47 31.4301 222.88 32.6101 223.71 33.5501C224.54 34.4801 225.64 34.9401 227.01 34.9401Z" fill="black"/>
<path d="M247.759 36.8301H244.879L241.039 31.4701L237.199 36.8301H234.319L239.459 29.8001L234.629 23.1201H237.509L241.039 28.1501L244.549 23.1201H247.449L242.639 29.7801L247.759 36.8301Z" fill="black"/>
<path d="M260.109 35.0801C258.799 36.4201 257.119 37.0801 255.079 37.0801C253.039 37.0801 251.359 36.4101 250.049 35.0801C248.729 33.7401 248.079 32.0501 248.079 29.9901C248.079 27.9301 248.739 26.2401 250.049 24.9001C251.359 23.5601 253.039 22.9001 255.079 22.9001C257.119 22.9001 258.799 23.5701 260.109 24.9001C261.429 26.2401 262.079 27.9301 262.079 29.9901C262.079 32.0501 261.429 33.7401 260.109 35.0801ZM255.079 34.9401C256.439 34.9401 257.529 34.4701 258.369 33.5301C259.209 32.5901 259.619 31.4101 259.619 29.9901C259.619 28.5501 259.199 27.3701 258.369 26.4301C257.529 25.5001 256.439 25.0301 255.079 25.0301C253.709 25.0301 252.609 25.5001 251.779 26.4301C250.949 27.3601 250.539 28.5501 250.539 29.9901C250.539 31.4301 250.949 32.6101 251.779 33.5501C252.609 34.4801 253.709 34.9401 255.079 34.9401Z" fill="black"/>
<path d="M262.8 39.3601V34.9401C263.35 34.8901 263.77 34.7501 264.07 34.5301C264.37 34.3101 264.65 33.8601 264.9 33.1701C265.15 32.4801 265.36 31.4801 265.51 30.1701L266.31 23.1201H275.62V34.7101H276.89V39.3501H274.49V36.8201H265.2V39.3501H262.8V39.3601ZM267.9 30.3401C267.67 32.3701 267.06 33.8301 266.09 34.7201H273.22V25.2501H268.47L267.9 30.3401Z" fill="black"/>
<path d="M295.89 36.8301H293.57L286.42 27.0501V36.8301H284.02V23.1301H286.49L293.5 32.6401V23.1301H295.9V36.8301H295.89ZM301.5 29.6401C300.47 29.6401 299.64 29.3101 299 28.6601C298.36 28.0101 298.04 27.2001 298.04 26.2501C298.04 25.3001 298.36 24.4901 299 23.8401C299.64 23.1901 300.47 22.8601 301.5 22.8601C302.55 22.8601 303.4 23.1901 304.03 23.8401C304.66 24.4901 304.98 25.3001 304.98 26.2501C304.98 27.2001 304.66 28.0101 304.03 28.6601C303.39 29.3201 302.55 29.6401 301.5 29.6401ZM300.17 27.7701C300.49 28.1501 300.93 28.3501 301.5 28.3501C302.07 28.3501 302.51 28.1601 302.84 27.7701C303.17 27.3901 303.33 26.8801 303.33 26.2501C303.33 25.6301 303.16 25.1401 302.84 24.7601C302.51 24.3801 302.07 24.2001 301.5 24.2001C300.93 24.2001 300.5 24.3901 300.17 24.7601C299.85 25.1401 299.69 25.6301 299.69 26.2501C299.69 26.8801 299.85 27.3901 300.17 27.7701Z" fill="black"/>
<path d="M312.019 36.8301H309.619V26.2501L307.379 28.5701L305.979 27.1101L309.929 23.1201H312.029V36.8301H312.019Z" fill="black"/>
<path d="M227.41 58.6602C225.36 58.6602 223.64 58.0002 222.27 56.6802C220.9 55.3602 220.21 53.6602 220.21 51.5702C220.21 49.4902 220.9 47.7902 222.27 46.4602C223.64 45.1402 225.35 44.4802 227.41 44.4802C229.79 44.4802 231.63 45.5102 232.92 47.5602L230.86 48.6102C230.52 48.0202 230.03 47.5402 229.41 47.1702C228.79 46.8002 228.12 46.6202 227.41 46.6202C226.05 46.6202 224.93 47.0902 224.03 48.0202C223.13 48.9502 222.68 50.1402 222.68 51.5802C222.68 53.0202 223.13 54.2002 224.03 55.1402C224.93 56.0702 226.05 56.5402 227.41 56.5402C228.14 56.5402 228.81 56.3502 229.42 55.9902C230.04 55.6202 230.52 55.1402 230.86 54.5502L232.92 55.6002C231.6 57.6302 229.76 58.6602 227.41 58.6602Z" fill="black"/>
<path d="M254.37 58.4102H251.97V48.2402L247.76 58.4102H246.73L242.54 48.2402V58.4102H240.14V44.7002H243.53L247.25 53.7202L250.99 44.7002H254.38V58.4102H254.37Z" fill="black"/>
<path d="M268.089 60.9402V58.4102H257.279V44.7002H259.679V56.2902H266.809V44.7002H269.209V56.2902H270.479V60.9302H268.089V60.9402Z" fill="black"/>
<path d="M271.439 60.9402V56.5202C271.989 56.4702 272.409 56.3302 272.709 56.1102C273.009 55.8902 273.289 55.4402 273.539 54.7502C273.789 54.0602 273.999 53.0602 274.149 51.7502L274.949 44.7002H284.259V56.2902H285.529V60.9302H283.129V58.4002H273.839V60.9302H271.439V60.9402ZM276.539 51.9202C276.309 53.9502 275.699 55.4102 274.729 56.3002H281.859V46.8302H277.109L276.539 51.9202Z" fill="black"/>
<path d="M329.06 3997.06H176.23V3921.73H233.77L252.64 3902.86L271.51 3921.73H329.06V3997.06Z" fill="#319DFF"/>
<path d="M203 3950.11H200.6V3938.52H193.47V3950.11H191.07V3936.4H203V3950.11Z" fill="black"/>
<path d="M208.32 3950.11H205.92V3936.4H211.94C213.32 3936.4 214.42 3936.81 215.22 3937.63C216.02 3938.45 216.42 3939.47 216.42 3940.69C216.42 3941.9 216.02 3942.91 215.22 3943.74C214.42 3944.57 213.33 3944.98 211.94 3944.98H208.32V3950.11ZM211.61 3942.88C212.3 3942.88 212.86 3942.68 213.3 3942.28C213.74 3941.88 213.96 3941.36 213.96 3940.7C213.96 3940.04 213.74 3939.51 213.3 3939.12C212.86 3938.72 212.3 3938.52 211.61 3938.52H208.32V3942.88H211.61Z" fill="black"/>
<path d="M229.831 3948.36C228.511 3949.7 226.841 3950.36 224.801 3950.36C222.761 3950.36 221.081 3949.69 219.771 3948.36C218.451 3947.02 217.801 3945.33 217.801 3943.27C217.801 3941.21 218.461 3939.52 219.771 3938.18C221.081 3936.84 222.761 3936.18 224.801 3936.18C226.841 3936.18 228.521 3936.85 229.831 3938.18C231.141 3939.52 231.801 3941.21 231.801 3943.27C231.801 3945.33 231.151 3947.02 229.831 3948.36ZM224.801 3948.22C226.161 3948.22 227.251 3947.75 228.091 3946.81C228.931 3945.87 229.341 3944.69 229.341 3943.27C229.341 3941.83 228.921 3940.65 228.091 3939.72C227.251 3938.79 226.161 3938.32 224.801 3938.32C223.431 3938.32 222.331 3938.79 221.501 3939.72C220.671 3940.65 220.261 3941.84 220.261 3943.27C220.261 3944.7 220.671 3945.89 221.501 3946.82C222.331 3947.76 223.431 3948.22 224.801 3948.22Z" fill="black"/>
<path d="M245.55 3950.11H242.67L238.83 3944.75L234.99 3950.11H232.11L237.25 3943.08L232.42 3936.4H235.3L238.83 3941.43L242.34 3936.4H245.24L240.43 3943.06L245.55 3950.11Z" fill="black"/>
<path d="M257.9 3948.36C256.59 3949.7 254.91 3950.36 252.87 3950.36C250.83 3950.36 249.15 3949.69 247.84 3948.36C246.52 3947.02 245.87 3945.33 245.87 3943.27C245.87 3941.21 246.53 3939.52 247.84 3938.18C249.15 3936.84 250.83 3936.18 252.87 3936.18C254.91 3936.18 256.59 3936.85 257.9 3938.18C259.22 3939.52 259.87 3941.21 259.87 3943.27C259.87 3945.33 259.22 3947.02 257.9 3948.36ZM252.87 3948.22C254.23 3948.22 255.32 3947.75 256.16 3946.81C257 3945.87 257.41 3944.69 257.41 3943.27C257.41 3941.83 256.99 3940.65 256.16 3939.72C255.33 3938.79 254.23 3938.32 252.87 3938.32C251.5 3938.32 250.4 3938.79 249.57 3939.72C248.74 3940.65 248.33 3941.84 248.33 3943.27C248.33 3944.7 248.74 3945.89 249.57 3946.82C250.4 3947.76 251.5 3948.22 252.87 3948.22Z" fill="black"/>
<path d="M260.59 3952.64V3948.22C261.14 3948.17 261.56 3948.03 261.86 3947.81C262.16 3947.59 262.44 3947.14 262.69 3946.45C262.94 3945.77 263.15 3944.77 263.3 3943.45L264.1 3936.4H273.41V3948H274.68V3952.64H272.28V3950.11H263V3952.64H260.59ZM265.69 3943.62C265.46 3945.65 264.85 3947.11 263.88 3948H271.01V3938.53H266.26L265.69 3943.62Z" fill="black"/>
<path d="M293.681 3950.11H291.361L284.211 3940.33V3950.11H281.811V3936.4H284.281L291.291 3945.91V3936.4H293.691V3950.11H293.681ZM299.291 3942.92C298.261 3942.92 297.431 3942.59 296.791 3941.94C296.151 3941.29 295.831 3940.48 295.831 3939.52C295.831 3938.56 296.151 3937.76 296.791 3937.11C297.431 3936.46 298.261 3936.13 299.291 3936.13C300.341 3936.13 301.191 3936.46 301.821 3937.11C302.451 3937.76 302.771 3938.57 302.771 3939.52C302.771 3940.48 302.451 3941.28 301.821 3941.94C301.191 3942.6 300.341 3942.92 299.291 3942.92ZM297.961 3941.05C298.281 3941.43 298.721 3941.63 299.291 3941.63C299.861 3941.63 300.301 3941.44 300.631 3941.05C300.961 3940.67 301.121 3940.16 301.121 3939.53C301.121 3938.91 300.951 3938.42 300.631 3938.04C300.301 3937.66 299.861 3937.47 299.291 3937.47C298.721 3937.47 298.291 3937.66 297.961 3938.04C297.641 3938.42 297.481 3938.91 297.481 3939.53C297.481 3940.16 297.641 3940.67 297.961 3941.05Z" fill="black"/>
<path d="M314.411 3950.11H304.491V3948.22C307.351 3946.06 309.301 3944.45 310.341 3943.4C311.371 3942.35 311.891 3941.36 311.891 3940.43C311.891 3939.76 311.651 3939.24 311.161 3938.88C310.671 3938.52 310.091 3938.34 309.401 3938.34C307.891 3938.34 306.661 3938.89 305.701 3939.98L304.301 3938.4C304.891 3937.69 305.631 3937.14 306.531 3936.77C307.431 3936.39 308.371 3936.2 309.361 3936.2C310.761 3936.2 311.941 3936.58 312.891 3937.33C313.851 3938.08 314.331 3939.12 314.331 3940.43C314.331 3941.61 313.841 3942.78 312.851 3943.94C311.861 3945.11 310.361 3946.45 308.331 3947.99H314.411V3950.11Z" fill="black"/>
<path d="M191.56 3969.75H189.88V3961.64H186.97V3960.16H194.46V3961.64H191.55V3969.75H191.56Z" fill="black"/>
<path d="M203.59 3969.75H201.68L200.97 3967.91H196.57L195.87 3969.75H193.96L197.73 3960.16H199.83L203.59 3969.75ZM200.49 3966.42L198.76 3961.85L197.03 3966.42H200.49Z" fill="black"/>
<path d="M212.449 3969.75H210.379L207.159 3965.71L206.329 3966.69V3969.75H204.649V3960.16H206.329V3964.73L210.079 3960.16H212.169L208.269 3964.69L212.449 3969.75Z" fill="black"/>
<path d="M217.45 3969.92C216.01 3969.92 214.81 3969.46 213.85 3968.53C212.89 3967.61 212.41 3966.41 212.41 3964.96C212.41 3963.5 212.89 3962.31 213.85 3961.39C214.81 3960.46 216.01 3960 217.45 3960C219.12 3960 220.4 3960.72 221.3 3962.16L219.86 3962.89C219.62 3962.48 219.28 3962.14 218.85 3961.88C218.41 3961.62 217.95 3961.49 217.45 3961.49C216.5 3961.49 215.71 3961.82 215.08 3962.47C214.45 3963.12 214.14 3963.95 214.14 3964.96C214.14 3965.97 214.45 3966.8 215.08 3967.45C215.71 3968.1 216.5 3968.43 217.45 3968.43C217.96 3968.43 218.43 3968.3 218.86 3968.04C219.29 3967.78 219.63 3967.45 219.87 3967.03L221.31 3967.76C220.39 3969.2 219.1 3969.92 217.45 3969.92Z" fill="black"/>
<path d="M224.279 3969.75H222.649V3960.16H224.329V3966.82L229.239 3960.16H230.969V3969.75H229.289V3962.9L224.279 3969.75Z" fill="black"/>
<path d="M234.839 3969.2C234.839 3969.68 234.719 3970.14 234.469 3970.57C234.229 3971.01 233.899 3971.37 233.479 3971.66L232.799 3971.1C233.039 3970.96 233.26 3970.75 233.46 3970.5C233.66 3970.24 233.789 3969.99 233.829 3969.75C233.739 3969.78 233.659 3969.79 233.589 3969.79C233.339 3969.79 233.129 3969.71 232.969 3969.54C232.809 3969.37 232.729 3969.15 232.729 3968.89C232.729 3968.63 232.83 3968.39 233.02 3968.19C233.21 3967.99 233.44 3967.9 233.71 3967.9C234.02 3967.9 234.279 3968.02 234.499 3968.25C234.719 3968.48 234.839 3968.8 234.839 3969.2Z" fill="black"/>
<path d="M248.589 3969.75H246.909V3961.64H241.919V3969.75H240.239V3960.16H248.599V3969.75H248.589Z" fill="black"/>
<path d="M259.27 3969.75H257.36L256.66 3967.91H252.26L251.55 3969.75H249.64L253.41 3960.16H255.51L259.27 3969.75ZM256.17 3966.42L254.44 3961.85L252.71 3966.42H256.17Z" fill="black"/>
<path d="M261.999 3969.75H260.319V3960.16H264.529C265.499 3960.16 266.259 3960.45 266.819 3961.02C267.379 3961.6 267.659 3962.31 267.659 3963.16C267.659 3964 267.379 3964.72 266.819 3965.3C266.259 3965.88 265.489 3966.17 264.529 3966.17H261.999V3969.75ZM264.299 3964.68C264.779 3964.68 265.169 3964.54 265.479 3964.26C265.789 3963.98 265.939 3963.61 265.939 3963.15C265.939 3962.69 265.789 3962.32 265.479 3962.04C265.169 3961.76 264.779 3961.62 264.299 3961.62H261.999V3964.67H264.299V3964.68Z" fill="black"/>
<path d="M276.869 3969.75H274.799L271.579 3965.71L270.749 3966.69V3969.75H269.069V3960.16H270.749V3964.73L274.499 3960.16H276.579L272.679 3964.69L276.869 3969.75Z" fill="black"/>
<path d="M285.27 3968.52C284.35 3969.45 283.18 3969.92 281.75 3969.92C280.32 3969.92 279.15 3969.45 278.23 3968.52C277.31 3967.58 276.85 3966.4 276.85 3964.96C276.85 3963.52 277.31 3962.33 278.23 3961.4C279.15 3960.46 280.32 3960 281.75 3960C283.18 3960 284.35 3960.47 285.27 3961.4C286.19 3962.33 286.65 3963.52 286.65 3964.96C286.65 3966.4 286.19 3967.58 285.27 3968.52ZM281.75 3968.42C282.7 3968.42 283.47 3968.09 284.05 3967.43C284.63 3966.77 284.93 3965.95 284.93 3964.95C284.93 3963.94 284.64 3963.11 284.05 3962.46C283.46 3961.81 282.7 3961.48 281.75 3961.48C280.79 3961.48 280.02 3961.81 279.44 3962.46C278.86 3963.11 278.57 3963.94 278.57 3964.95C278.57 3965.96 278.86 3966.79 279.44 3967.44C280.02 3968.1 280.79 3968.42 281.75 3968.42Z" fill="black"/>
<path d="M293.129 3969.75H288.279V3960.16H292.999C293.849 3960.16 294.519 3960.39 295.009 3960.86C295.499 3961.33 295.739 3961.91 295.739 3962.61C295.739 3963.19 295.579 3963.67 295.259 3964.07C294.939 3964.47 294.539 3964.72 294.069 3964.81C294.589 3964.89 295.029 3965.15 295.389 3965.61C295.749 3966.07 295.929 3966.59 295.929 3967.17C295.929 3967.94 295.679 3968.56 295.189 3969.04C294.679 3969.51 293.999 3969.75 293.129 3969.75ZM292.649 3964.12C293.069 3964.12 293.399 3964 293.639 3963.77C293.879 3963.54 293.999 3963.24 293.999 3962.88C293.999 3962.51 293.879 3962.2 293.639 3961.97C293.399 3961.74 293.069 3961.63 292.649 3961.63H289.959V3964.12H292.649ZM292.719 3968.27C293.179 3968.27 293.539 3968.15 293.799 3967.92C294.059 3967.69 294.189 3967.36 294.189 3966.93C294.189 3966.56 294.059 3966.24 293.799 3965.99C293.539 3965.74 293.179 3965.61 292.719 3965.61H289.959V3968.27H292.719Z" fill="black"/>
<path d="M305.409 3969.75H303.339L300.119 3965.71L299.289 3966.69V3969.75H297.609V3960.16H299.289V3964.73L303.039 3960.16H305.119L301.219 3964.69L305.409 3969.75Z" fill="black"/>
<path d="M315.159 3969.75H313.249L312.549 3967.91H308.149L307.439 3969.75H305.529L309.299 3960.16H311.399L315.159 3969.75ZM312.069 3966.42L310.339 3961.85L308.609 3966.42H312.069Z" fill="black"/>
<path d="M318.04 3969.2C318.04 3969.68 317.92 3970.14 317.67 3970.57C317.42 3971.01 317.1 3971.37 316.68 3971.66L316 3971.1C316.24 3970.96 316.46 3970.75 316.66 3970.5C316.86 3970.25 316.99 3969.99 317.03 3969.75C316.94 3969.78 316.86 3969.79 316.79 3969.79C316.54 3969.79 316.33 3969.71 316.17 3969.54C316.01 3969.37 315.93 3969.15 315.93 3968.89C315.93 3968.63 316.03 3968.39 316.22 3968.19C316.41 3967.99 316.64 3967.9 316.91 3967.9C317.22 3967.9 317.48 3968.02 317.7 3968.25C317.93 3968.48 318.04 3968.8 318.04 3969.2Z" fill="black"/>
<path d="M223.73 3984.13H221.82L221.11 3982.29H216.71L216.01 3984.13H214.1L217.87 3974.54H219.97L223.73 3984.13ZM220.64 3980.81L218.91 3976.24L217.18 3980.81H220.64Z" fill="black"/>
<path d="M229.629 3984.13H224.779V3974.54H229.499C230.349 3974.54 231.019 3974.77 231.509 3975.24C231.989 3975.7 232.239 3976.29 232.239 3976.99C232.239 3977.57 232.079 3978.05 231.759 3978.45C231.439 3978.85 231.039 3979.1 230.569 3979.19C231.089 3979.27 231.529 3979.53 231.889 3979.99C232.249 3980.45 232.429 3980.97 232.429 3981.55C232.429 3982.32 232.179 3982.94 231.689 3983.42C231.179 3983.89 230.499 3984.13 229.629 3984.13ZM229.149 3978.51C229.569 3978.51 229.899 3978.39 230.139 3978.16C230.379 3977.93 230.499 3977.63 230.499 3977.27C230.499 3976.9 230.379 3976.59 230.139 3976.36C229.899 3976.13 229.569 3976.02 229.149 3976.02H226.459V3978.51H229.149ZM229.219 3982.65C229.679 3982.65 230.039 3982.53 230.299 3982.3C230.559 3982.07 230.689 3981.74 230.689 3981.31C230.689 3980.94 230.559 3980.62 230.299 3980.37C230.039 3980.12 229.679 3979.99 229.219 3979.99H226.459V3982.65H229.219Z" fill="black"/>
<path d="M237.85 3984.13H236.17V3976.02H233.26V3974.54H240.75V3976.02H237.84V3984.13H237.85Z" fill="black"/>
<path d="M249.819 3982.9C248.899 3983.83 247.719 3984.3 246.299 3984.3C244.879 3984.3 243.699 3983.83 242.779 3982.9C241.859 3981.96 241.399 3980.78 241.399 3979.34C241.399 3977.9 241.859 3976.71 242.779 3975.78C243.699 3974.84 244.879 3974.38 246.299 3974.38C247.719 3974.38 248.899 3974.85 249.819 3975.78C250.739 3976.71 251.199 3977.9 251.199 3979.34C251.199 3980.78 250.739 3981.97 249.819 3982.9ZM246.299 3982.81C247.249 3982.81 248.019 3982.48 248.599 3981.82C249.179 3981.16 249.479 3980.34 249.479 3979.34C249.479 3978.33 249.189 3977.5 248.599 3976.85C248.019 3976.2 247.249 3975.87 246.299 3975.87C245.339 3975.87 244.569 3976.2 243.989 3976.85C243.409 3977.5 243.119 3978.33 243.119 3979.34C243.119 3980.35 243.409 3981.18 243.989 3981.83C244.569 3982.48 245.339 3982.81 246.299 3982.81Z" fill="black"/>
<path d="M252.83 3974.54H259.4V3976.02H254.51V3978.12H257.04C258.01 3978.12 258.77 3978.41 259.33 3978.99C259.89 3979.57 260.17 3980.28 260.17 3981.13C260.17 3981.98 259.89 3982.7 259.33 3983.27C258.77 3983.85 258 3984.13 257.04 3984.13H252.83V3974.54ZM256.81 3979.6H254.51V3982.65H256.81C257.29 3982.65 257.68 3982.51 257.99 3982.23C258.3 3981.95 258.45 3981.58 258.45 3981.12C258.45 3980.66 258.3 3980.29 257.99 3980.01C257.69 3979.74 257.29 3979.6 256.81 3979.6Z" fill="black"/>
<path d="M262.72 3984.3C262.32 3984.3 261.93 3984.23 261.55 3984.1C261.18 3983.97 260.91 3983.81 260.74 3983.64L261.34 3982.26C261.75 3982.62 262.17 3982.81 262.59 3982.81C262.96 3982.81 263.26 3982.72 263.47 3982.54C263.69 3982.36 263.91 3982.04 264.15 3981.58L260.54 3974.53H262.45L265.1 3980.13L267.75 3974.53H269.66L265.66 3982.33C265.33 3982.98 264.94 3983.47 264.49 3983.8C264.08 3984.14 263.48 3984.3 262.72 3984.3Z" fill="black"/>
<path d="M275.05 3984.3C273.61 3984.3 272.41 3983.84 271.45 3982.91C270.49 3981.99 270.01 3980.79 270.01 3979.34C270.01 3977.88 270.49 3976.69 271.45 3975.77C272.41 3974.85 273.61 3974.38 275.05 3974.38C276.72 3974.38 278 3975.1 278.91 3976.54L277.47 3977.27C277.23 3976.86 276.89 3976.52 276.46 3976.26C276.03 3976 275.56 3975.87 275.06 3975.87C274.11 3975.87 273.32 3976.2 272.69 3976.85C272.06 3977.5 271.75 3978.33 271.75 3979.34C271.75 3980.35 272.06 3981.18 272.69 3981.83C273.32 3982.48 274.11 3982.81 275.06 3982.81C275.57 3982.81 276.04 3982.68 276.47 3982.42C276.9 3982.16 277.24 3981.83 277.48 3981.41L278.92 3982.14C277.99 3983.58 276.7 3984.3 275.05 3984.3Z" fill="black"/>
<path d="M280.26 3974.54H281.94V3978.12H284.47C285.44 3978.12 286.2 3978.41 286.76 3978.99C287.32 3979.57 287.6 3980.28 287.6 3981.13C287.6 3981.98 287.32 3982.7 286.76 3983.27C286.2 3983.85 285.43 3984.13 284.47 3984.13H280.26V3974.54ZM284.24 3979.6H281.94V3982.65H284.24C284.72 3982.65 285.11 3982.51 285.42 3982.23C285.73 3981.95 285.88 3981.58 285.88 3981.12C285.88 3980.66 285.73 3980.29 285.42 3980.01C285.12 3979.74 284.72 3979.6 284.24 3979.6ZM290.18 3984.13H288.5V3974.54H290.18V3984.13Z" fill="black"/>
<path d="M225.18 3770.88H218.88V3778.4H225.18V3770.88Z" fill="#B9C7CE"/>
<path d="M253.53 3770.88H247.23V3778.4H253.53V3770.88Z" fill="#B9C7CE"/>
<path d="M281.89 3770.88H275.59V3778.4H281.89V3770.88Z" fill="#B9C7CE"/>
<path d="M310.24 3770.88H303.94V3778.4H310.24V3770.88Z" fill="#B9C7CE"/>
<path d="M196.83 3770.88H190.53V3778.4H196.83V3770.88Z" fill="#B9C7CE"/>
</g>
<defs>
<clipPath id="clip0">
<rect width="500" height="4000" fill="white"/>
</clipPath>
</defs>
</svg>
