<svg width="500" height="717" viewBox="0 0 500 717" fill="none" xmlns="http://www.w3.org/2000/svg">
<g clip-path="url(#clip0)">
<path d="M38.2 710.87C14 749.36 0 794.91 0 843.73C0 915.49 30.25 980.18 78.68 1025.78V1057.45" stroke="#232323" stroke-miterlimit="10"/>
<path d="M55.9698 686.09C53.8798 688.66 51.8298 691.28 49.8398 693.93" stroke="#232323" stroke-miterlimit="10"/>
<path d="M311.5 9.43018H98.6401V644.76C88.2901 652.65 78.5701 661.32 69.5801 670.69" stroke="#232323" stroke-miterlimit="10"/>
<path d="M436.02 676.72C425.63 665.16 414.18 654.57 401.82 645.11V9.43018H309.5" stroke="#232323" stroke-miterlimit="10"/>
<path d="M307.09 3660.29H421.33V1025.78C469.76 980.19 500.01 915.5 500.01 843.73C500.01 786.92 481.05 734.54 449.12 692.56" stroke="#232323" stroke-miterlimit="10"/>
<path d="M153.06 472.94H121.08V504.92H153.06V472.94Z" stroke="#B9C7CE" stroke-miterlimit="10"/>
<path d="M153.06 506.97H121.08V538.95H153.06V506.97Z" stroke="#B9C7CE" stroke-miterlimit="10"/>
<path d="M250.23 1059.48C369.418 1059.48 466.04 962.859 466.04 843.67C466.04 724.482 369.418 627.86 250.23 627.86C131.041 627.86 34.4199 724.482 34.4199 843.67C34.4199 962.859 131.041 1059.48 250.23 1059.48Z" stroke="#B9C7CE" stroke-miterlimit="10" stroke-dasharray="11.89 11.89"/>
<path d="M181.286 398.292L164.621 403.601L187.402 475.118L204.066 469.81L181.286 398.292Z" stroke="#B9C7CE" stroke-miterlimit="10"/>
<path d="M197.947 392.993L181.282 398.301L204.063 469.818L220.727 464.51L197.947 392.993Z" stroke="#B9C7CE" stroke-miterlimit="10"/>
<path d="M30.2102 669.24H2.24023V697.21H30.2102V669.24Z" fill="#34E08A"/>
<path d="M24.8304 681.07H18.3704V674.61H14.0704V681.07H7.61035V685.38H14.0704V691.84H18.3704V685.38H24.8304V681.07Z" fill="white"/>
<path d="M168.571 495.21L164.401 503.89C164.051 504.62 164.581 505.46 165.391 505.46H173.731C174.541 505.46 175.071 504.62 174.721 503.89L170.551 495.21C170.151 494.38 168.971 494.38 168.571 495.21Z" fill="#34E08A"/>
<path d="M170.551 519.39L174.721 510.71C175.071 509.98 174.541 509.14 173.731 509.14H165.391C164.581 509.14 164.051 509.98 164.401 510.71L168.571 519.39C168.971 520.22 170.151 520.22 170.551 519.39Z" fill="#34E08A"/>
<path d="M177.83 525.51H161.29C159.79 525.51 158.57 524.29 158.57 522.79V491.82C158.57 490.32 159.79 489.1 161.29 489.1H177.83C179.33 489.1 180.55 490.32 180.55 491.82V522.79C180.55 524.29 179.33 525.51 177.83 525.51Z" stroke="#34E08A" stroke-miterlimit="10"/>
<path d="M249.16 412.3H239.73L226.43 425.6H220.57C218.13 425.6 216.14 427.58 216.14 430.02C216.14 432.46 218.12 434.44 220.57 434.44H230.09L243.4 421.13H249.16C251.6 421.13 253.59 419.15 253.59 416.71C253.59 414.27 251.61 412.3 249.16 412.3Z" fill="#34E08A"/>
<path d="M222.109 420.68L233.789 408.99" stroke="#34E08A" stroke-miterlimit="10"/>
<path d="M224.71 420.469H222.32V418.069L221.3 419.089V421.489H223.7L224.71 420.469Z" fill="#34E08A"/>
<path d="M233.579 411.599V409.199H231.189L232.199 408.189H234.599V410.579L233.579 411.599Z" fill="#34E08A"/>
<path d="M327.1 162.9H175.41C159.79 147.28 151.03 138.52 135.41 122.9V71.5601H367.1V122.9C351.48 138.52 342.72 147.28 327.1 162.9Z" fill="#B9C7CE"/>
<path d="M143.68 241.17H121.89V262.96H143.68V241.17Z" fill="#FF4633"/>
<path d="M132.279 258.74C134.259 258.89 136.299 257.83 137.289 256.11C138.289 254.39 138.189 252.09 137.049 250.46C136.759 250.05 136.399 249.67 136.139 249.24C135.829 248.74 135.639 248.16 135.599 247.57C135.489 248.21 135.379 248.86 135.119 249.46C134.859 250.06 134.439 250.61 133.849 250.89C133.789 250.92 133.719 250.95 133.649 250.94C133.499 250.93 133.409 250.77 133.349 250.63C132.869 249.45 132.769 248.12 133.049 246.88C133.229 246.08 133.569 245.25 133.299 244.47C132.989 244.93 132.669 245.39 132.279 245.79C131.909 246.16 131.479 246.47 131.109 246.84C130.109 247.84 129.559 249.28 129.649 250.69C129.059 250.29 128.649 249.62 128.569 248.91C128.569 248.92 124.739 257.94 132.279 258.74Z" fill="white"/>
<path d="M380.58 240.72H358.79V262.51H380.58V240.72Z" fill="#FF4633"/>
<path d="M369.18 258.29C371.16 258.44 373.2 257.38 374.19 255.66C375.19 253.94 375.09 251.64 373.95 250.01C373.66 249.6 373.3 249.22 373.04 248.79C372.73 248.29 372.54 247.71 372.5 247.12C372.39 247.76 372.28 248.41 372.02 249.01C371.76 249.61 371.34 250.16 370.75 250.44C370.69 250.47 370.62 250.5 370.55 250.49C370.4 250.48 370.31 250.32 370.25 250.18C369.77 249 369.67 247.67 369.95 246.43C370.13 245.63 370.47 244.8 370.2 244.02C369.89 244.48 369.57 244.94 369.18 245.34C368.81 245.71 368.38 246.02 368.01 246.39C367.01 247.39 366.46 248.83 366.55 250.24C365.96 249.84 365.55 249.17 365.47 248.46C365.47 248.47 361.64 257.49 369.18 258.29Z" fill="white"/>
<path d="M46.5399 716.63L29.6299 704.96" stroke="#232323" stroke-miterlimit="10"/>
<path d="M41.2998 688.04L58.2098 699.71" stroke="#232323" stroke-miterlimit="10"/>
<path d="M63.6804 692.77L48.1504 679.32" stroke="#232323" stroke-miterlimit="10"/>
<path d="M61.5996 663.78L77.1296 677.23" stroke="#232323" stroke-miterlimit="10"/>
<path d="M443.96 669.99L428.28 683.28" stroke="#232323" stroke-miterlimit="10"/>
<path d="M441.57 698.95L457.25 685.67" stroke="#232323" stroke-miterlimit="10"/>
<path d="M441.49 660.95V651.99H452.73V640.74H463.98V629.49" stroke="#34E08A" stroke-width="2" stroke-miterlimit="10"/>
<path d="M444.881 656.96L441.491 660.35L438.101 656.96V659.84L441.491 663.23L444.881 659.84V656.96Z" fill="#34E08A"/>
<path d="M452.73 620.53V629.49H441.49V640.74H430.24V651.99" stroke="#34E08A" stroke-width="2" stroke-miterlimit="10"/>
<path d="M449.34 624.52L452.73 621.13L456.13 624.52V621.64L452.73 618.25L449.34 621.64V624.52Z" fill="#34E08A"/>
<path d="M50.0293 660.95V651.99H61.2793V640.74H72.5193V629.49" stroke="#34E08A" stroke-width="2" stroke-miterlimit="10"/>
<path d="M53.4196 656.96L50.0296 660.35L46.6396 656.96V659.84L50.0296 663.23L53.4196 659.84V656.96Z" fill="#34E08A"/>
<path d="M61.28 620.53V629.49H50.03V640.74H38.79V651.99" stroke="#34E08A" stroke-width="2" stroke-miterlimit="10"/>
<path d="M57.8896 624.52L61.2796 621.13L64.6696 624.52V621.64L61.2796 618.25L57.8896 621.64V624.52Z" fill="#34E08A"/>
</g>
<defs>
<clipPath id="clip0">
<rect width="500" height="717" fill="white"/>
</clipPath>
</defs>
</svg>
