<svg width="72" height="72" viewBox="0 0 72 72" fill="none" xmlns="http://www.w3.org/2000/svg">
<path d="M71.9836 66.8934L66.3271 35.7293C66.2707 35.4182 66.0778 35.1488 65.8013 34.9951L51.5642 27.0764C51.3794 26.9735 51.1722 26.9326 50.9688 26.9483L53.5589 60.362L53.4722 60.4008L70.5109 68.0448C70.6495 68.1068 70.7969 68.1375 70.9436 68.1375C71.1757 68.1375 71.4058 68.0611 71.5949 67.913C71.904 67.6717 72.0535 67.2791 71.9836 66.8934Z" fill="#44C868"/>
<path d="M35.9996 34.6465L21.4385 27.0625C21.264 26.9715 21.0705 26.9344 20.88 26.9472C20.9305 26.9441 20.9812 26.9443 21.0316 26.9483L18.4414 60.362L35.5669 68.0449C35.7051 68.1067 35.8526 68.1375 35.9996 68.1375V34.6465Z" fill="#44C868"/>
<path d="M21.0319 26.9485C20.8284 26.9327 20.6213 26.9736 20.4365 27.0764L6.19917 34.995C5.9227 35.1487 5.72976 35.418 5.67337 35.7292L0.0169984 66.8933C-0.0530329 67.2789 0.0965923 67.6716 0.405546 67.9132C0.594968 68.0612 0.824891 68.1376 1.05692 68.1376C1.20359 68.1376 1.35111 68.1071 1.48963 68.0449L18.4355 60.4426L21.0319 26.9485Z" fill="#4CE166"/>
<path d="M50.968 26.9478C50.8279 26.9586 50.6894 26.9958 50.561 27.0628L36 34.6467V68.1377C36 68.1377 36 68.1377 36.0001 68.1377C36.1471 68.1377 36.2948 68.1071 36.4328 68.0451L53.5583 60.3621L50.968 26.9478Z" fill="#4CE166"/>
<path d="M3.9596 45.1736L2.81055 51.5044L19.8254 42.5176L20.2204 37.4215L20.2859 36.5763L3.9596 45.1736Z" fill="#FFDB56"/>
<path d="M19.9781 40.5415L19.8249 42.5176L2.8101 51.5044L0.0169984 66.8934C-0.0530329 67.279 0.0965923 67.6716 0.405546 67.9132C0.594968 68.0613 0.824891 68.1377 1.05692 68.1377C1.20359 68.1377 1.35111 68.1072 1.48963 68.045L18.4355 60.4427L19.9781 40.5415Z" fill="#A8EEFC"/>
<path d="M36.0036 38.8239L20.2848 36.5763L19.8242 42.5176L35.9994 67.0819V58.1496L26.3473 42.9511L36.0036 44.1061V38.8239Z" fill="#FFBB24"/>
<path d="M64.6792 34.3718L57.8399 30.5677L51.3652 32.0806L51.4462 33.1263L51.766 37.2514L64.6792 34.3718Z" fill="#FFBB24"/>
<path d="M52.3406 44.6591L51.7275 36.7491L51.3657 32.0804L36.0039 38.8237V44.1058L46.0384 39.7423L52.3406 44.6591Z" fill="#FFDB56"/>
<path d="M71.9839 66.8933L70.5631 59.0653L51.7676 37.2513L52.3419 44.6592L71.6174 67.8934C71.9105 67.6506 72.0521 67.2692 71.9839 66.8933Z" fill="#FFBB24"/>
<path d="M36.0677 3.8623C27.9166 3.8623 21.2852 10.4883 21.2852 18.6327C21.2852 23.6708 23.6771 29.0798 28.3946 34.7093C31.8595 38.8441 35.2772 41.5035 35.4211 41.6147C35.6115 41.7619 35.8396 41.8355 36.0678 41.8355C36.2959 41.8355 36.5242 41.7619 36.7146 41.6147C36.8583 41.5035 40.2762 38.8441 43.741 34.7093C48.4586 29.0798 50.8505 23.6709 50.8505 18.6327C50.8502 10.4883 44.2187 3.8623 36.0677 3.8623ZM41.5422 18.6326C41.5422 21.6535 39.0911 24.1026 36.0677 24.1026C33.0442 24.1026 30.5931 21.6537 30.5931 18.6326C30.5931 15.6115 33.0442 13.1626 36.0677 13.1626C39.0911 13.1626 41.5422 15.6117 41.5422 18.6326Z" fill="#FF4A4A"/>
<path d="M36.0669 3.8623C35.4209 3.8623 34.7845 3.90421 34.1602 3.98493C41.414 4.92248 47.0361 11.1338 47.0361 18.6327C47.0361 23.6708 44.6442 29.0798 39.9266 34.7093C37.6984 37.3682 35.4913 39.4156 34.1603 40.569C34.8991 41.2091 35.3691 41.5751 35.4203 41.6147C35.6107 41.7619 35.8388 41.8355 36.067 41.8355C36.2951 41.8355 36.5234 41.7619 36.7138 41.6147C36.8575 41.5035 40.2754 38.8441 43.7402 34.7093C48.4578 29.0798 50.8497 23.6709 50.8497 18.6327C50.8494 10.4883 44.2179 3.8623 36.0669 3.8623Z" fill="#E7343F"/>
<path d="M36.4328 68.0449L42.8011 65.188L36 58.1495V68.1376C36 68.1376 36 68.1376 36.0001 68.1376C36.1471 68.1376 36.2946 68.1071 36.4328 68.0449Z" fill="#FFDB56"/>
<path d="M66.3254 35.7292C66.269 35.4181 66.0761 35.1487 65.7996 34.995L64.6788 34.3716L51.7656 37.2512L70.561 59.0651L66.3254 35.7292Z" fill="#1EA4E9"/>
<path d="M35.9997 68.1376C35.9999 68.1376 35.9999 68.1376 35.9997 68.1376V67.0817L19.8247 42.5175L18.4414 60.3621L35.5669 68.045C35.7051 68.107 35.8526 68.1376 35.9997 68.1376Z" fill="#1EA4E9"/>
</svg>
