<svg width="80" height="45" viewBox="0 0 80 45" fill="none" xmlns="http://www.w3.org/2000/svg">
<path d="M60.613 40.8826C62.0968 42.8229 64.2207 44.1857 66.6146 44.7334C69.0084 45.2812 71.5204 44.9791 73.7125 43.8798C75.9312 42.77 77.6858 40.9229 78.6696 38.6613C79.6533 36.3996 79.8037 33.8674 79.0943 31.507C78.3849 29.1467 76.861 27.1085 74.7889 25.7486C72.7167 24.3887 70.2282 23.7937 67.7582 24.0675C66.3764 24.2148 64.9912 23.8209 63.8986 22.9698C62.806 22.1187 62.0927 20.8779 61.911 19.5126C61.3996 15.5945 59.8404 11.8831 57.3949 8.76278C54.9494 5.64246 51.7065 3.22667 48.0021 1.76562C44.2977 0.304578 40.2664 -0.1486 36.3258 0.453014C32.3852 1.05463 28.6786 2.68916 25.5898 5.18733C24.5079 5.83056 23.2281 6.06536 21.9854 5.84858C20.7428 5.63181 19.6209 4.97802 18.8257 4.00732C17.3206 2.09273 15.1869 0.760279 12.7944 0.240881C10.4019 -0.278517 7.90137 0.0478748 5.72623 1.1635C3.53491 2.28574 1.80784 4.13098 0.843261 6.38058C-0.121308 8.63018 -0.262848 11.1429 0.443099 13.4849C1.14905 15.8269 2.6582 17.8511 4.70989 19.208C6.76158 20.5649 9.22703 21.1693 11.6805 20.9168L11.621 20.2914L11.7043 20.9168C12.9859 20.7498 14.2849 21.0538 15.3557 21.7713C16.4265 22.4888 17.1949 23.5701 17.5157 24.8109C17.9298 28.7693 19.4047 32.5459 21.7875 35.7494C24.1704 38.9529 27.3745 41.4667 31.0677 43.0302C34.7645 44.594 38.8194 45.1378 42.8027 44.604C46.7861 44.0701 50.5494 42.4784 53.6941 39.9976C54.7576 39.2827 56.0483 38.9781 57.3228 39.1412C58.5973 39.3042 59.7676 39.9236 60.613 40.8826Z" fill="#AAB9CB"/>
</svg>
