<svg width="72" height="73" viewBox="0 0 72 73" fill="none" xmlns="http://www.w3.org/2000/svg">
<path d="M62.8457 69.3388L68.8156 69.3388C69.5588 69.3411 70.2664 69.0206 70.7549 68.4605C71.2433 67.9004 71.4646 67.1558 71.3612 66.4198L64.066 15.6439L62.8457 69.3388Z" fill="#F29C1F"/>
<path d="M60.406 7.10156H4.27039C2.24847 7.10156 0.609375 8.74066 0.609375 10.7626V69.3389C0.609375 71.3608 2.24847 72.9999 4.27039 72.9999H60.406C62.4279 72.9999 64.067 71.3608 64.067 69.3389V10.7626C64.067 8.74066 62.4279 7.10156 60.406 7.10156Z" fill="#F0C419"/>
<path d="M59.1852 14.4237V21.7457H5.49023V14.4237C5.49426 13.0774 6.58463 11.9871 7.93091 11.983H56.7445C58.0908 11.9871 59.1811 13.0774 59.1852 14.4237Z" fill="#E64C3C"/>
<path d="M59.1852 21.7457V58.5634C59.1849 59.2137 58.9258 59.8372 58.4652 60.2962L51.3628 67.3986C50.9037 67.8593 50.2802 68.1183 49.6299 68.1186H7.93091C6.58463 68.1146 5.49426 67.0242 5.49023 65.6779V21.7457H59.1852Z" fill="white"/>
<path d="M22.5759 54.6949C26.6181 54.6908 29.8939 51.415 29.898 47.3728V37.6101C29.898 33.5663 26.6198 30.2881 22.5759 30.2881C18.5321 30.2881 15.2539 33.5663 15.2539 37.6101V47.3728C15.2579 51.415 18.5338 54.6908 22.5759 54.6949ZM17.6946 37.6101C17.6946 34.9142 19.88 32.7288 22.5759 32.7288C25.2718 32.7288 27.4573 34.9142 27.4573 37.6101V47.3728C27.4573 50.0687 25.2718 52.2542 22.5759 52.2542C19.88 52.2542 17.6946 50.0687 17.6946 47.3728V37.6101Z" fill="#547580"/>
<path d="M35.9996 52.2542C35.3257 52.2542 34.7793 52.8006 34.7793 53.4746C34.7793 54.1485 35.3257 54.6949 35.9996 54.6949H45.7623C46.4363 54.6949 46.9827 54.1485 46.9827 53.4746C46.9827 52.8006 46.4363 52.2542 45.7623 52.2542H42.1013V31.5084C42.1012 31.0149 41.8039 30.5701 41.348 30.3812C40.892 30.1924 40.3672 30.2968 40.0182 30.6457L35.1369 35.527C34.6744 36.0059 34.681 36.767 35.1517 37.2377C35.6224 37.7084 36.3836 37.7151 36.8624 37.2526L39.6607 34.4543V52.2542H35.9996Z" fill="#547580"/>
<path d="M45.7628 58.3558H17.6949C17.021 58.3558 16.4746 58.9022 16.4746 59.5762C16.4746 60.2502 17.021 60.7965 17.6949 60.7965H45.7628C46.4367 60.7965 46.9831 60.2502 46.9831 59.5762C46.9831 58.9022 46.4367 58.3558 45.7628 58.3558Z" fill="#35495E"/>
<path d="M58.9653 59.5762C58.843 59.8442 58.6735 60.0881 58.465 60.2962L51.3626 67.3986C51.1545 67.6071 50.9106 67.7766 50.6426 67.8989V62.0169C50.6466 60.6706 51.737 59.5802 53.0833 59.5762H58.9653Z" fill="#D1D4D1"/>
<path d="M29.482 7.10164H26.9315C25.7117 4.30682 22.6159 2.84162 19.6812 3.67022C16.7465 4.49882 14.8741 7.36678 15.2962 10.3868C15.7182 13.4069 18.3051 15.6517 21.3545 15.644C22.0285 15.644 22.5748 16.1904 22.5748 16.8644C22.5748 17.5383 22.0285 18.0847 21.3545 18.0847C17.0096 18.0852 13.3565 14.8243 12.8658 10.5072C12.375 6.19009 15.203 2.19239 19.4371 1.21767C23.6713 0.242961 27.9625 2.6018 29.4087 6.69893C29.4577 6.82754 29.4825 6.96405 29.482 7.10164Z" fill="#95A5A5"/>
<path d="M52.6675 7.10164H50.117C48.8972 4.30682 45.8014 2.84162 42.8667 3.67022C39.9321 4.49882 38.0597 7.36678 38.4817 10.3868C38.9038 13.4069 41.4907 15.6517 44.5401 15.644C45.214 15.644 45.7604 16.1904 45.7604 16.8644C45.7604 17.5383 45.214 18.0847 44.5401 18.0847C40.1952 18.0852 36.5421 14.8243 36.0513 10.5072C35.5606 6.19009 38.3885 2.19239 42.6227 1.21767C46.8568 0.242961 51.1481 2.6018 52.5943 6.69893C52.6432 6.82754 52.668 6.96405 52.6675 7.10164Z" fill="#95A5A5"/>
</svg>
