<svg width="130" height="100" fill="none" xmlns="http://www.w3.org/2000/svg"><g clip-path="url(#clip0)"><path d="M107.08 79.3c4.9-3 9.38-6.68 13.23-10.96.93-1.04 1.78-2.18 2.27-3.48.06-.15.09-.3.09-.46 0-.32-.15-.62-.3-.91a103.57 103.57 0 00-9.42-15.04l.12-1.58c.53-7.25 1.21-16.57.05-23.74-1.17-7.17-3.56-14.21-7.57-20.27-.16-.24-.34-.5-.62-.6-.31-.11-.66 0-.97.12-9.19 3.53-18 10.28-23.99 18.13-.24.32-.65.46-1.03.37l-3.22-.79a.414.414 0 01-.22-.67c.34-.39.69-.78 1.03-1.17.37-.42.22-1.1-.3-1.31-2.06-.8-5.28-1.47-8.29-1.38-.54.02-.91-.56-.69-1.05.38-.83.86-1.61 1.41-2.34.31-.4-.09-.97-.58-.84-5.42 1.41-10.47 4.18-14.45 8.11-.65.64-1.43 1.12-2.3 1.35-.54.14-1.11-.05-1.45-.5-6-7.75-14.74-14.41-23.84-17.91-.31-.12-.65-.24-.97-.12-.27.1-.46.36-.62.6-4.02 6.06-6.41 13.1-7.57 20.27-1.17 7.17-.37 18.07.16 25.32-3.56 4.73-6.72 9.77-9.42 15.04-.15.29-.3.59-.3.91 0 .16.04.31.09.46.49 1.31 1.34 2.45 2.27 3.48 3.85 4.28 8.34 7.95 13.23 10.96h84.17z" fill="#FE8630"/><path d="M119.56 58.41c-2.01-3.44-4.21-6.77-6.6-9.96l.02-.33c-2.1 1.72-4.27 4.45-4.85 7.01-.25 1.11-.33 2.32.15 3.35.71 1.52 2.52 2.29 4.2 2.27 1.68-.02 3.28-.68 4.83-1.33.49-.21 1.52-.69 2.25-1.01zM108.73 67.2c-1.17.29-2.3.97-2.86 2.05-.74 1.43-.32 3.19.38 4.64l2.49 4.36c2.79-1.83 5.42-3.89 7.87-6.15a40.02 40.02 0 003.38-3.51c-2.33-.82-5.38-1.37-7.66-1.53-1.2-.09-2.43-.14-3.6.14zM20.87 60.98c1.11-.11 2.26-.43 3.02-1.25 1-1.09 1.02-2.81.43-4.16-.59-1.35-1.69-2.41-2.8-3.38-1.18-1.04-3.05-2.6-4.49-3.71a103.45 103.45 0 00-6.6 9.96c3.14 1.29 7.28 2.86 10.44 2.54zM23.87 75.05c.85-1.55 1.73-3.25 1.48-5-.09-.6-.32-1.2-.76-1.63-.82-.8-2.1-.81-3.24-.71-2.94.26-6.78 1.42-9.78 2.61.59.61 1.2 1.2 1.82 1.78 2.58 2.39 5.38 4.54 8.34 6.45.69-1.13 1.65-2.59 2.14-3.5z" fill="#EB561E"/><path d="M37.93 24.82c-2.52-3.4-5.7-5.92-9.58-7.51a.76.76 0 00-.94.33c-2.23 3.8-3.44 12.76-2.55 16.54.17.54.84.72 1.26.33.87-.81 2.31-2.12 3.98-3.5.27-.22.43-.55.43-.89l.01-2.12c0-.39.47-.59.76-.32l.68.64c.4.38 1.02.43 1.47.11 1.44-1.02 2.88-1.91 4.16-2.45.45-.19.62-.76.32-1.16zM92.34 24.82c2.52-3.4 5.7-5.92 9.58-7.51.35-.14.75 0 .94.33 2.23 3.8 3.44 12.76 2.55 16.54-.17.54-.84.72-1.26.33-.87-.81-2.31-2.12-3.98-3.5-.27-.22-.43-.55-.43-.89L99.73 28c0-.39-.47-.59-.76-.32l-.68.64c-.4.38-1.02.43-1.47.11-1.44-1.02-2.88-1.91-4.16-2.45a.766.766 0 01-.32-1.16zM79.25 67.94c-1.89 1.22-4.47 1.49-6.67 1.17-2.08-.3-4.03-1.5-5.27-3.2-.01-.02-.04-.03-.05-.05-.08-.12-.18-.23-.31-.31-.07-.04-.15-.05-.22-.08a.142.142 0 00-.06-.02c-.08-.02-.16-.02-.24-.02-.07 0-.13 0-.2.02l-.09.03c-.07.02-.13.03-.2.07-.12.07-.22.18-.31.3-.02.02-.04.03-.05.05-1.23 1.7-3.19 2.86-5.27 3.16-2.2.32-4.77.05-6.67-1.17-1.08-.7-2.09 1.03-1.01 1.73 2.35 1.51 5.5 1.8 8.21 1.37 2.17-.34 4.11-1.47 5.6-3.05 1.48 1.59 3.43 2.74 5.6 3.09 2.71.43 5.87.14 8.21-1.37 1.09-.69.09-2.42-1-1.72zM70 60.1c-1.12-.69-6-.68-7.04 0-.31.2-.68.43-.65.8.02.21.16.38.29.53.99 1.11 2.19 2.04 3.52 2.71.11.06.24.1.36.13.13-.02.25-.07.36-.13 1.33-.67 2.53-1.6 3.52-2.71.14-.15.28-.33.29-.53.03-.36-.34-.61-.65-.8z" fill="#7F3613"/><path d="M47.44 61.52c6.009 0 10.88-4.871 10.88-10.88s-4.871-10.88-10.88-10.88-10.88 4.871-10.88 10.88 4.871 10.88 10.88 10.88z" fill="#fff"/><path d="M50.82 52.39a4.087 4.087 0 01-2.93-2.79c-.39-1.32-.12-2.56.54-3.52.12-.17 0-.42-.21-.45-1.3-.18-2.69-.06-4.12.51-2.73 1.09-4.75 3.58-5.15 6.49a8.23 8.23 0 002.25 6.91c1.35.95 2.94 1.61 4.68 1.87 2.07.3 4.09-.02 5.88-.8 2.17-1.49 3.6-3.98 3.6-6.81 0-.76-.11-1.49-.3-2.19-.06-.22-.33-.27-.5-.12-.96.84-2.3 1.26-3.74.9z" fill="#1B2F45"/><path d="M47.08 60.33c-1.15 0-2.3-.26-3.33-.77a1.502 1.502 0 01-.68-2.01c.37-.74 1.27-1.05 2.01-.68 1.14.56 2.53.61 3.71.13.77-.31 1.64.05 1.96.82.31.77-.05 1.64-.82 1.96-.9.37-1.87.55-2.85.55z" fill="#3D99E0"/><path d="M86.02 61.52c6.009 0 10.88-4.871 10.88-10.88s-4.871-10.88-10.88-10.88-10.88 4.871-10.88 10.88 4.871 10.88 10.88 10.88z" fill="#fff"/><path d="M89.4 52.39a4.087 4.087 0 01-2.93-2.79c-.39-1.32-.12-2.56.53-3.51.12-.18 0-.43-.21-.46a8.036 8.036 0 00-4.12.51c-2.73 1.09-4.75 3.58-5.15 6.49a8.23 8.23 0 002.25 6.91c1.35.95 2.94 1.61 4.68 1.87 2.07.3 4.09-.02 5.88-.8 2.17-1.49 3.6-3.98 3.6-6.81 0-.76-.11-1.49-.3-2.18-.06-.22-.33-.28-.5-.13-.95.84-2.29 1.26-3.73.9z" fill="#1B2F45"/><path d="M85.67 60.33c-1.15 0-2.3-.26-3.33-.77a1.502 1.502 0 01-.68-2.01c.37-.74 1.27-1.05 2.01-.68 1.14.56 2.53.61 3.71.13.77-.31 1.64.05 1.96.82.31.77-.05 1.64-.82 1.96-.9.37-1.88.55-2.85.55z" fill="#3D99E0"/><path d="M64.6 56.58c.17-.04.34-.08.51-.11.07-.01.15-.02.22-.04.25-.04-.23.02.03 0 .32-.04.64-.06.97-.06.32 0 .65.01.97.05.07.01.28.07.03 0 .07.02.15.02.22.03.17.03.34.06.51.1.51.11 1.11-.15 1.23-.7.12-.51-.15-1.11-.7-1.23a9.86 9.86 0 00-4.52.03c-.51.12-.86.73-.7 1.23.18.53.69.83 1.23.7z" fill="#EB561E"/><path d="M72.05 71.04c-.61-.1-1.2-.27-1.78-.48l2.58 4.19c.12.19.39.21.54.04l3.03-3.73c-1.46.23-2.97.2-4.37-.02z" fill="#fff"/><path d="M112.65 79.3c-.89 4.16-3.02 13.49-5.84 16.67-3.01 3.38-8.02 4.88-12.34 3.55-1.04-.32-2.07-.81-2.8-1.62-1.29-1.42-1.44-3.53-1.39-5.45.13-4.29.96-8.55 2.46-12.57 2.73-6.14 10.55-9.01 16.48-7.71 3.64.98 6.5 3.82 8.34 7.13h-4.91z" fill="#FE8630"/><path d="M101.39 99.42l-.94-2.73c-.13-.39-.69-.38-.81.02l-.98 3.25c.92-.07 1.84-.26 2.73-.54zM94.47 99.52c.14.04.28.08.43.11l.44-2.86c.06-.41-.43-.66-.72-.36l-2.15 2.17c.6.42 1.29.73 2 .94z" fill="#EB561E"/><path d="M20.31 79.3c.89 4.16 3.02 13.49 5.84 16.67 3.01 3.38 8.02 4.88 12.34 3.55 1.04-.32 2.07-.81 2.8-1.62 1.29-1.42 1.44-3.53 1.39-5.45-.13-4.29-.96-8.55-2.46-12.57-2.73-6.14-10.55-9.01-16.48-7.71-3.64.98-6.5 3.82-8.34 7.13h4.91z" fill="#FE8630"/><path d="M31.57 99.42l.94-2.73c.13-.39.69-.38.81.02l.98 3.25c-.92-.07-1.84-.26-2.73-.54zM38.49 99.52c-.14.04-.28.08-.43.11l-.44-2.86c-.06-.41.43-.66.72-.36l2.15 2.17c-.6.42-1.29.73-2 .94z" fill="#EB561E"/></g><defs><clipPath id="clip0"><path fill="#fff" d="M0 0h130v100H0z"/></clipPath></defs></svg>