<svg width="116" height="98" fill="none" xmlns="http://www.w3.org/2000/svg"><path d="M6.09 69.885a60.65 60.65 0 009.53 7.2h84.15c3.4-2.08 6.6-4.49 9.53-7.2 2.16-2 4.2-4.18 5.71-6.71.18-.3.36-.63.36-.98 0-.32-.15-.62-.3-.91a103.57 103.57 0 00-9.42-15.04s1.33-18.14.16-25.32c-1.17-7.17-3.56-14.21-7.57-20.27-.16-.24-.34-.5-.62-.6-.31-.11-.66 0-.97.12-9.39 3.61-18.39 10.58-24.39 18.66-9.72-2.94-19.43-2.94-29.15 0-6-8.07-15-15.05-24.39-18.66-.31-.12-.65-.24-.97-.12-.27.1-.46.36-.62.6-4.02 6.06-6.41 13.1-7.57 20.27-1.17 7.17.16 25.32.16 25.32A103.57 103.57 0 00.3 61.285c-.15.29-.3.59-.3.91 0 .35.18.68.36.98 1.53 2.53 3.57 4.71 5.73 6.71z" fill="#DCDFE2"/><path d="M39.31 47.565a33.86 33.86 0 006.42-6.46c5.2-6.85 7.87-15.6 7.09-24.21l-.01-.01c-3.23.33-6.45.97-9.68 1.95-6-8.07-15-15.05-24.39-18.66-.31-.12-.65-.24-.97-.12-.27.1-.46.36-.62.6-4.02 6.06-6.41 13.1-7.57 20.27-1.17 7.17.16 25.32.16 25.32a101 101 0 00-4.18 6.03c10.95 4.08 24.46 2.39 33.75-4.71zM112.72 77.095c-1.44-4.58-3.06-9.14-5.78-13.08-1.77-2.56-4.12-4.9-7.1-5.75-.9-.26-1.84-.37-2.78-.34-1.64.05-3.33.59-4.47 1.77-1.73 1.8-1.83 4.56-1.82 7.05.01 3.45.01 6.9.02 10.34h21.93v.01zM111.33 55.445l.36-.2c-1.86-3.1-3.86-6.12-6.04-9.01 0 0 1.33-18.14.16-25.32-1.17-7.17-3.56-14.21-7.57-20.27-.16-.24-.34-.5-.62-.6-.31-.11-.66 0-.97.12-9.39 3.61-18.39 10.58-24.39 18.66-3.15-.95-6.3-1.59-9.46-1.93l-.13.15c-.44 3.83.44 7.7 1.81 11.3 3.46 9.13 10.15 16.99 18.6 21.88 8.45 4.89 18.62 6.77 28.25 5.22z" fill="#A3ABB8"/><path d="M101.83 68.935c.47-.13.75-.61.64-1.09-.03-.14-.07-.28-.09-.39-.07-.35-.16-.72-.41-.97-.21-.21-.51-.3-.81-.32-.3-.02-.59.04-.88.1-1.39-.86-2.99-.55-3.54 1.03-.4-.06-.79.22-.96.59-.17.36-.16.79-.1 1.18.03.21.08.43.15.63.14.46.63.71 1.09.58l4.91-1.34zM97.13 64.115c.23.1.51.11.73-.02.17-.11.28-.29.35-.48.16-.49.05-1.04-.09-1.54-.13-.47-.31-.94-.65-1.28-.35-.34-.91-.5-1.33-.25-.32.19-.48.58-.49.96-.01.37.11.74.24 1.09-.01 0 .57 1.26 1.24 1.52zM99.95 64.215c.13.22.34.4.59.42.2.02.4-.06.57-.17.43-.3.67-.79.86-1.28.17-.45.32-.93.25-1.41-.07-.48-.43-.95-.91-1-.37-.04-.73.18-.97.47s-.36.66-.47 1.01c0 0-.3 1.36.08 1.96zM95.06 66.425c.25-.03.5-.16.62-.38.1-.18.1-.39.06-.59-.11-.51-.47-.92-.85-1.28-.35-.33-.74-.66-1.21-.78s-1.04.03-1.27.45c-.18.33-.12.75.06 1.07.18.33.47.58.75.82 0 .01 1.13.81 1.84.69z" fill="#E44D39"/><path d="M70.23 67.695c-1.89 1.22-4.47 1.49-6.67 1.17-2.08-.3-4.03-1.5-5.27-3.2-.01-.02-.04-.03-.05-.05-.08-.12-.18-.23-.31-.31-.07-.04-.15-.05-.22-.08-.02-.01-.04-.02-.06-.02-.08-.02-.16-.02-.24-.02-.07 0-.13 0-.2.02l-.09.03c-.07.02-.13.03-.2.07-.12.07-.22.18-.31.3-.02.02-.04.03-.05.05-1.23 1.7-3.19 2.86-5.27 3.16-2.2.32-4.77.05-6.67-1.17-1.08-.7-2.09 1.03-1.01 1.73 2.35 1.51 5.5 1.8 8.21 1.37 2.17-.34 4.11-1.47 5.6-3.05 1.48 1.59 3.43 2.74 5.6 3.09 2.71.43 5.87.14 8.21-1.37 1.08-.69.08-2.42-1-1.72z" fill="#515A69"/><path d="M60.97 59.855c-1.12-.69-6-.68-7.04 0-.31.2-.68.43-.65.8.02.21.16.38.29.53.99 1.11 2.19 2.04 3.52 2.71.11.06.24.1.36.13.13-.02.25-.07.36-.13 1.33-.67 2.53-1.6 3.52-2.71.14-.15.28-.33.29-.53.04-.37-.34-.61-.65-.8z" fill="#E44D39"/><path d="M38.41 61.275c6.009 0 10.88-4.87 10.88-10.88 0-6.009-4.871-10.88-10.88-10.88s-10.88 4.871-10.88 10.88c0 6.01 4.871 10.88 10.88 10.88z" fill="#fff"/><path d="M41.79 52.145a4.087 4.087 0 01-2.93-2.79c-.39-1.32-.12-2.56.54-3.52.12-.17 0-.42-.21-.45-1.3-.18-2.69-.06-4.12.51-2.73 1.09-4.75 3.58-5.15 6.49a8.23 8.23 0 002.25 6.91c1.35.95 2.94 1.61 4.68 1.87 2.07.3 4.09-.02 5.88-.8 2.17-1.49 3.6-3.98 3.6-6.81 0-.76-.11-1.49-.3-2.19-.06-.22-.33-.27-.5-.12a4.12 4.12 0 01-3.74.9z" fill="#73C04D"/><path d="M38.06 60.085c-1.15 0-2.3-.26-3.33-.77a1.502 1.502 0 01-.68-2.01c.37-.74 1.27-1.05 2.01-.68 1.14.56 2.53.61 3.71.13.77-.31 1.64.05 1.96.82.31.77-.05 1.64-.82 1.96-.91.36-1.88.55-2.85.55z" fill="#A1EC7C"/><path d="M76.99 61.275c6.009 0 10.88-4.87 10.88-10.88 0-6.009-4.871-10.88-10.88-10.88s-10.88 4.871-10.88 10.88c0 6.01 4.871 10.88 10.88 10.88z" fill="#fff"/><path d="M80.37 52.145a4.087 4.087 0 01-2.93-2.79c-.39-1.32-.12-2.56.53-3.51.12-.18 0-.43-.21-.46a8.036 8.036 0 00-4.12.51c-2.73 1.09-4.75 3.58-5.15 6.49a8.23 8.23 0 002.25 6.91c1.35.95 2.94 1.61 4.68 1.87 2.07.3 4.09-.02 5.88-.8 2.17-1.49 3.6-3.98 3.6-6.81 0-.76-.11-1.49-.3-2.18-.06-.22-.33-.28-.5-.13-.95.84-2.28 1.25-3.73.9z" fill="#73C04D"/><path d="M76.64 60.085c-1.15 0-2.3-.26-3.33-.77a1.502 1.502 0 01-.68-2.01c.37-.74 1.27-1.05 2.01-.68 1.14.56 2.53.61 3.71.13.77-.31 1.64.05 1.96.82.31.77-.05 1.64-.82 1.96-.9.36-1.88.55-2.85.55z" fill="#A1EC7C"/><path d="M55.58 56.325c.17-.04.34-.08.51-.11.07-.01.15-.02.22-.04.25-.04-.23.02.03 0 .32-.04.64-.06.97-.06.32 0 .65.01.97.05.07.01.28.07.03 0 .07.02.15.02.22.03.17.03.34.06.51.1.51.11 1.11-.15 1.23-.7.12-.51-.15-1.11-.7-1.23a9.86 9.86 0 00-4.52.03c-.51.12-.86.73-.7 1.23.17.54.68.84 1.23.7z" fill="#A3ABB8"/><path d="M30.5 22.615c-2.52-3.4-5.7-5.92-9.58-7.51a.76.76 0 00-.94.33c-2.23 3.8-3.44 12.76-2.55 16.54.17.54.84.72 1.26.33.87-.81 2.31-2.12 3.98-3.5.27-.22.43-.55.43-.89l.01-2.12c0-.39.47-.59.76-.32l.68.64c.4.38 1.02.43 1.47.11 1.44-1.02 2.88-1.91 4.16-2.45.45-.19.61-.76.32-1.16zM84.9 22.615c2.52-3.4 5.7-5.92 9.58-7.51.35-.14.75 0 .94.33 2.23 3.8 3.44 12.76 2.55 16.54-.17.54-.84.72-1.26.33-.87-.81-2.31-2.12-3.98-3.5-.27-.22-.43-.55-.43-.89l-.01-2.12c0-.39-.47-.59-.76-.32l-.68.64c-.4.38-1.02.43-1.47.11-1.44-1.02-2.88-1.91-4.16-2.45a.772.772 0 01-.32-1.16z" fill="#515A69"/><path d="M14.66 77.095c.89 4.16 3.02 13.49 5.84 16.67 3.01 3.38 8.02 4.88 12.34 3.55 1.04-.32 2.07-.81 2.8-1.62 1.29-1.42 1.44-3.53 1.39-5.45-.13-4.29-.96-8.55-2.46-12.57-2.73-6.14-10.55-9.01-16.48-7.71-3.64.98-6.5 3.82-8.34 7.13h4.91z" fill="#A3ABB8"/><path d="M25.92 97.215l.94-2.73c.13-.39.69-.38.81.02l.98 3.25c-.92-.07-1.84-.26-2.73-.54zM32.85 97.315c-.14.04-.28.08-.43.11l-.44-2.86c-.06-.41.43-.66.72-.36l2.15 2.17c-.61.42-1.3.73-2 .94z" fill="#515A69"/></svg>