<?xml version="1.0" encoding="utf-8"?>
<!-- Generator: Adobe Illustrator 24.1.2, SVG Export Plug-In . SVG Version: 6.00 Build 0)  -->
<svg version="1.1" id="Layer_1" xmlns="http://www.w3.org/2000/svg" xmlns:xlink="http://www.w3.org/1999/xlink" x="0px" y="0px"
	 viewBox="0 0 130 80" style="enable-background:new 0 0 130 80;" xml:space="preserve">
<style type="text/css">
	.st0{fill:#DCDFE2;}
	.st1{fill:#FE8630;}
	.st2{fill:#A3ABB8;}
	.st3{fill:#FFB423;}
	.st4{fill:#F95068;}
	.st5{fill:#7F3613;}
	.st6{fill:#E44D39;}
	.st7{fill:#FFD997;}
	.st8{fill:#5B1804;}
	.st9{fill:#515A69;}
	.st10{fill:#FFFFFF;}
	.st11{fill:#BF304C;}
	.st12{fill:#1B2F45;}
	.st13{fill:#3D99E0;}
	.st14{fill:none;stroke:#191919;stroke-miterlimit:10;}
	.st15{fill:#EB561E;}
	.st16{fill:#E25E14;}
	.st17{fill:#73C04D;}
	.st18{fill:#A1EC7C;}
</style>
<g>
	<g>
		<path class="st0" d="M124.34,40.61c-0.06-0.91-0.49-1.74-0.98-2.51c-0.63-1-1.4-1.95-2.37-2.63c-0.28-0.19-0.57-0.36-0.88-0.5
			c0,0,0,0,0,0c-0.2-0.09-0.4-0.17-0.61-0.24c-0.11-0.04-0.22-0.06-0.33-0.09c-0.16-0.04-0.32-0.07-0.48-0.1
			c-0.09-0.01-0.18-0.03-0.28-0.03c-0.26-0.02-0.52-0.03-0.78,0c-1.18,0.13-2.32,0.86-2.79,1.95c-0.35,0.8-0.25,1.87,0.45,2.39
			c-0.83,0.4-1.33,1.35-1.29,2.27c0.04,0.92,0.56,1.79,1.29,2.34c-0.56,1.08,0.03,2.47,1.01,3.19c0.97,0.72,2.22,0.95,3.42,1.14
			l0.43,0.08c-0.02,0.36-0.06,0.71-0.2,1.03c-0.32,0.77-1.07,1.29-1.85,1.59c-0.77,0.3-1.59,0.43-2.4,0.55
			c-1.55,0.23-2.75,0.39-4,0.53l0,0c-3.46,3.18-8.57,6.04-13.03,7.55c-4.46,1.5-16.89,3.59-16.89,3.59l-0.98-4.11
			c8.03,0.26,17.72-3.43,23.8-8.72l0.13-0.08c-0.21-0.91-0.29-2.38-0.29-3.18l-0.74-14.36c-0.01-0.52-0.01-1.05,0.15-1.54
			c0.16-0.49,0.49-0.9,0.86-1.26c0.08-0.08,0.18-0.14,0.27-0.22l-0.01-0.3c1.1-8.36-0.5-16.61-4.09-24.56
			c-5.61,1.54-11.19,4.39-15.8,7.93c-3.39-0.92-6.99-1.04-10.78-0.48c-4.04-3.91-8.78-7.1-13.92-9.36c-0.22-0.1-0.46-0.19-0.69-0.12
			c-0.2,0.06-0.34,0.25-0.46,0.42c-1.18,1.65-2.24,3.39-3.17,5.18c0,0,0,0,0,0.01c0.25,0.82,0.48,1.65,0.68,2.48
			c0.89,3.72,1.34,7.53,2.03,11.29c3.8,4.13,6.78,8.71,8.85,13.78c-0.64,3.62-2.48,7.06-4.21,9.51c-2.12,2.58-4.62,4.84-7.38,6.71
			c0,0,0,0,0,0.01c1.2,0.76,2.45,1.44,3.72,2.07c1.22,0.61,2.46,1.16,3.72,1.68c-0.28-0.72-0.44-1.49-0.53-2.27
			c-0.11-1-0.34-2.25,0.24-3.15c0.6-0.92,1.73-1.02,2.61-0.44c0.86,0.56,1.37,1.5,1.76,2.42c0.33,0.77,0.63,1.55,0.93,2.33
			c0.42-0.77,0.88-1.53,1.41-2.23c0.33-0.43,0.67-0.84,1.03-1.24c0.34-0.37,0.71-0.72,1.19-0.88c1.02-0.34,1.93,0.5,2.18,1.44
			c0.29,1.06-0.1,2.16-0.67,3.05c-0.51,0.8-1.12,1.54-1.72,2.28c0.62,0.45,0.93,1.29,0.85,2.06c-0.1,0.93-0.63,1.75-1.56,2.02
			c-0.07,0.02-0.16,0.02-0.24,0.04c-0.22,2.54-0.47,5.07-0.7,7.61c-0.17,1.83-0.44,3.62-0.72,5.44c-0.31,2.03-0.74,4.21-1.75,6.05
			h26.09c-0.21-1.52-0.52-2.78-0.98-3.65c1.25-0.76,11.49-7.1,12.67-7.98c4.44-3.32,8.9-6.71,12.47-10.95
			c3.57-4.25,6.21-9.48,6.4-15.03L124.34,40.61z"/>
	</g>
	<path class="st1" d="M15.91,54.79c1.77,0.79,3.61,1.39,5.48,1.89c3.9,1.05,7.91,1.69,11.94,1.93c-5.05,1.81-9.33,4.19-12.27,7.57
		c-2.82,3.9-4.99,8.95-5.76,13.82h52.52c1.01-1.84,1.44-4.02,1.75-6.05c0.28-1.81,0.55-3.61,0.72-5.44c0.23-2.54,0.48-5.07,0.7-7.61
		c0.08-0.02,0.16-0.02,0.24-0.04c0.93-0.27,1.47-1.08,1.56-2.02c0.08-0.77-0.23-1.61-0.85-2.06c0.59-0.74,1.21-1.48,1.72-2.28
		c0.57-0.89,0.95-1.99,0.67-3.05c-0.25-0.94-1.16-1.78-2.18-1.44c-0.48,0.16-0.86,0.52-1.19,0.88c-0.36,0.4-0.7,0.81-1.03,1.24
		c-0.54,0.7-0.99,1.45-1.41,2.23c-0.3-0.78-0.61-1.56-0.93-2.33c-0.39-0.92-0.9-1.86-1.76-2.42c-0.88-0.58-2.02-0.48-2.61,0.44
		c-0.58,0.9-0.36,2.15-0.24,3.15c0.12,1.05,0.35,2.1,0.88,3.02c-0.24,0.1-0.47,0.22-0.67,0.37c-1.16,0.85-1.08,2.46-0.08,3.4
		c0.3,0.28,0.56,0.35,0.48,0.83c-0.03,0.18-0.11,0.36-0.16,0.54c-0.16,0.49-0.35,0.97-0.54,1.44c-0.97,2.38-2.13,4.69-3.3,6.97
		c-0.25,0.48-0.5,0.96-0.75,1.44c-3.01-5.82-8.6-10.5-14.93-12.15l-0.89-1.88c7.94-1.54,15.3-5.93,20.43-12.18
		c1.73-2.45,3.57-5.89,4.21-9.51c-2.07-5.07-5.05-9.65-8.85-13.78c-0.69-3.76-1.14-7.57-2.03-11.29C55.84,6.72,54.48,3.04,52.16,0
		C48.3,1.43,41.37,6.91,38.09,10.96c-0.05,0-0.1,0-0.15,0c0.07-0.4,0.14-0.8,0.21-1.19c0.01-0.07,0.02-0.15-0.01-0.21
		c-0.05-0.11-0.18-0.14-0.3-0.15c-1.11-0.15-2.24-0.13-3.34,0.08c-0.1,0.02-0.23,0.03-0.29-0.06c-0.03-0.05-0.03-0.11-0.03-0.16
		c0-0.42,0-0.84,0-1.26c0-0.1,0-0.21-0.07-0.29c-0.11-0.13-0.31-0.09-0.47-0.04c-2.24,0.75-4.14,2.45-5.16,4.58
		c-0.38,0.12-0.75,0.25-1.13,0.39c-4.73-3.04-10-5.22-15.5-6.43c-0.23-0.05-0.49-0.1-0.7,0.02c-0.19,0.1-0.28,0.31-0.37,0.5
		c-3.86,8.64-4.67,18.88-2.62,28.12c-1.61,3.67-2.52,7.45-2.62,11.36C8.23,49.86,11.78,52.94,15.91,54.79z"/>
	<g>
		<path class="st2" d="M58.77,21.73c3.51,3.81,6.3,8.01,8.34,12.61c0.84-0.37,1.65-0.78,2.44-1.25c3.23-1.92,5.96-4.83,7.17-8.38
			c0.3-0.87,0.5-1.78,0.67-2.69c0.65-3.46,0.82-7.01,0.51-10.52c-1.18,0.04-2.37,0.14-3.59,0.31c-4.04-3.91-8.78-7.1-13.92-9.36
			c-0.22-0.1-0.46-0.19-0.69-0.12c-0.2,0.06-0.34,0.25-0.46,0.42c-1.18,1.65-2.24,3.39-3.17,5.18c0,0,0,0,0,0.01
			c0.25,0.82,0.48,1.65,0.68,2.48C57.62,14.16,58.07,17.97,58.77,21.73z"/>
	</g>
	<g>
		<path class="st2" d="M95.86,29.29c2.41,1.34,5.11,2.15,7.85,2.42c0.01-0.34,0.04-0.67,0.15-0.99c0.16-0.49,0.49-0.9,0.86-1.26
			c0.08-0.08,0.18-0.14,0.27-0.22l-0.01-0.3c1.1-8.36-0.5-16.61-4.09-24.56c-5.17,1.42-10.31,3.96-14.7,7.12
			c-0.26,3.31,0.37,6.7,1.86,9.68C89.75,24.59,92.53,27.44,95.86,29.29z"/>
	</g>
	<g>
		<path class="st3" d="M119.74,47.79c-1.2-0.19-2.45-0.41-3.42-1.14c-0.97-0.72-1.57-2.11-1.01-3.19c-0.74-0.56-1.26-1.42-1.29-2.34
			c-0.04-0.92,0.46-1.87,1.29-2.27c-0.7-0.52-0.8-1.58-0.45-2.39c0.47-1.09,1.61-1.81,2.79-1.95c0.84-0.09,1.7,0.1,2.47,0.46l0-0.01
			c-0.01-0.89-0.01-1.77-0.02-2.66c0-0.85-0.01-1.71-0.26-2.53c-0.25-0.81-0.77-1.59-1.54-1.93c-0.54-0.24-1.14-0.25-1.72-0.26
			c-2.18-0.03-4.35,0.01-6.52,0.12c-1.24,0.06-2.51,0.16-3.66,0.65c-0.62,0.27-1.18,0.64-1.67,1.11c-0.37,0.36-0.69,0.77-0.86,1.26
			c-0.17,0.49-0.16,1.02-0.15,1.54l0.74,14.36c0,0.9,0.09,2.61,0.36,3.47c0.27,0.86,0.8,1.46,1.64,1.77c0.57,0.21,1.65,0,2.25-0.04
			c2.71-0.17,4.33-0.38,7.02-0.78c0.81-0.12,1.63-0.25,2.4-0.55c0.78-0.3,1.53-0.82,1.85-1.59c0.14-0.33,0.18-0.68,0.2-1.03
			L119.74,47.79z"/>
	</g>
	<g>
		<path class="st0" d="M43.87,59.08c6.33,1.65,11.92,6.33,14.93,12.15c0.25-0.48,0.51-0.96,0.75-1.44c1.17-2.29,2.33-4.59,3.3-6.97
			c0.19-0.47,0.38-0.95,0.54-1.44c0.06-0.17,0.13-0.36,0.16-0.54c0.08-0.48-0.18-0.55-0.48-0.83c-0.58-0.55-0.84-1.31-0.74-2.02
			c-3.87-1.38-7.87-2.4-11.94-3.04l-0.21,0.01c-2.32,1.01-4.74,1.76-7.22,2.24L43.87,59.08z"/>
	</g>
	<g>
		<path class="st4" d="M46.59,39.58c-0.74,0.9-1.68,1.61-2.71,2.12c0.92,0.71,1.65,1.65,2.1,2.72c0.17,0.4,0.3,0.83,0.58,1.17
			c0.6,0.74,1.78,0.83,2.6,0.36c0.83-0.47,1.32-1.39,1.5-2.33c0.23-1.23-0.05-2.54-0.76-3.58C48.78,40.06,47.66,39.92,46.59,39.58z"
			/>
	</g>
	<g>
		<path class="st0" d="M33.49,61.27c-0.03,1.21-0.08,2.48-0.66,3.55c-0.59,1.06-1.88,1.84-3.03,1.43c-0.45,0.8-1.24,1.44-2.15,1.6
			c-0.91,0.16-1.91-0.21-2.43-0.97c-0.42,0.77-1.46,1.01-2.3,0.77c-1.14-0.32-2.02-1.35-2.31-2.5c-0.29-1.15-0.05-2.39,0.49-3.45
			c0.54-1.06,1.38-1.94,2.28-2.7c0.69-0.58,1.47-1.12,2.36-1.31c2.65,0.46,5.19,0.79,7.57,0.91L33.49,61.27z"/>
	</g>
	<path class="st5" d="M47.84,35.05c-1.57-0.14-3.12,0.17-4.51,0.91c-0.3,0.16-0.35,0.71,0,0.86c0.85,0.36,1.69,0.73,2.54,1.09
		c0.02,0.01,0.04,0.01,0.05,0.01c0.14,0.08,0.31,0.08,0.46-0.03c0.02-0.01,0.04-0.02,0.06-0.04c0.01-0.01,0.02-0.01,0.03-0.02
		c0.6-0.63,1.17-1.27,1.72-1.94C48.48,35.56,48.28,35.09,47.84,35.05z"/>
	<path class="st6" d="M90.48,38.07c-0.04-0.07-0.1-0.12-0.17-0.16c-0.05-0.05-0.12-0.09-0.21-0.11c-1.39-0.37-2.84-0.49-4.26-0.32
		c-0.2,0.02-0.38,0.11-0.46,0.31c-0.07,0.18-0.05,0.41,0.1,0.55c0.7,0.61,1.39,1.22,2.09,1.84c0.16,0.14,0.41,0.2,0.61,0.08
		c0.73-0.47,1.44-0.96,2.13-1.48C90.52,38.59,90.63,38.32,90.48,38.07z"/>
	<path class="st7" d="M108.7,27.8c-1.07,0.34-1.82,1.25-2.02,2.17c-0.35,0.88-0.23,1.98-0.18,3.09l0.34,6.66l0.34,6.66l0.08,1.67
		c0.03,0.55,0.04,1.14,0.12,1.59c-0.04,0.88,0.82,1.82,1.87,2.14c-0.57,0.05-1.16-0.13-1.67-0.46c-0.26-0.16-0.5-0.36-0.71-0.61
		c-0.22-0.26-0.37-0.58-0.47-0.89c-0.12-0.64-0.09-1.17-0.13-1.73l-0.08-1.67l-0.34-6.66l-0.34-6.66c-0.03-1.08-0.21-2.28,0.24-3.51
		C106.37,28.48,107.54,27.72,108.7,27.8z"/>
	<ellipse class="st8" cx="109.22" cy="31.06" rx="1.05" ry="1.16"/>
	<ellipse class="st8" cx="109.37" cy="33.79" rx="1.05" ry="1.16"/>
	<path class="st3" d="M49.58,77.28L46.09,64.9c-0.18-0.63-0.84-1-1.47-0.82l-3.19,0.9l-4.14,1.17l-3.87,1.09
		c-0.63,0.18-1,0.84-0.82,1.47L35.78,80h8.56l4.41-1.25C49.39,78.58,49.76,77.92,49.58,77.28z"/>
	<path class="st9" d="M93.77,42.32c-0.24,1.18-1.81,1.66-2.86,1.47c-1.07-0.19-2.21-1.07-2.52-2.14c-0.05-0.17-0.16-0.26-0.28-0.31
		c-0.17-0.09-0.38-0.1-0.56,0.09c-1.11,1.21-2.42,2.67-4.19,2.74c-1.42,0.06-2.65-1-2.92-2.38c-0.12-0.63-1.09-0.36-0.96,0.27
		c0.33,1.7,1.88,3.04,3.62,3.11c1.91,0.07,3.41-1.19,4.66-2.5c0.64,1.11,1.87,1.94,3.1,2.12c1.51,0.21,3.54-0.55,3.88-2.21
		C94.87,41.96,93.9,41.69,93.77,42.32z"/>
	<path class="st5" d="M51.91,38.79c-1.76,0.45-3.61,0.35-5.32-0.25c-0.23-0.08-0.41,0.01-0.51,0.16c-0.06,0.04-0.11,0.09-0.15,0.14
		c-1.51,1.97-4.08,2.97-6.52,2.66c-0.27-0.03-0.5,0.25-0.5,0.5c0,0.3,0.23,0.47,0.5,0.5c2.72,0.34,5.45-0.83,7.18-2.92
		c1.8,0.58,3.75,0.64,5.59,0.18C52.8,39.6,52.53,38.63,51.91,38.79z"/>
	<path class="st10" d="M40.72,68.84l1.64,1.95c0.11,0.13,0.28,0.2,0.45,0.19l2.54-0.25c0.44-0.04,0.73,0.43,0.5,0.8l-1.35,2.17
		c-0.09,0.15-0.11,0.33-0.04,0.49l1.02,2.34c0.17,0.4-0.19,0.83-0.61,0.72l-2.48-0.61c-0.17-0.04-0.35,0-0.48,0.12l-1.91,1.69
		c-0.33,0.29-0.85,0.08-0.88-0.36l-0.18-2.54c-0.01-0.17-0.11-0.33-0.26-0.42l-2.2-1.29c-0.38-0.22-0.34-0.78,0.07-0.94l2.36-0.96
		c0.16-0.07,0.28-0.21,0.32-0.38l0.55-2.49C39.89,68.64,40.44,68.51,40.72,68.84z"/>
	<path class="st11" d="M47.46,39.79c-0.29-0.07-0.59-0.12-0.88-0.21c-0.1,0.13-0.22,0.24-0.33,0.36c0,0,0.01,0.01,0.01,0.02
		c0.13,0.12,0.25,0.25,0.36,0.38c0.14,0.19,0.27,0.4,0.36,0.62c0.03,0.09,0.07,0.17,0.09,0.26c0.07,0.25,0.36,0.43,0.62,0.35
		c0.25-0.08,0.43-0.35,0.35-0.62C47.92,40.53,47.72,40.14,47.46,39.79z"/>
	<g>
		<circle class="st10" cx="31.88" cy="31.11" r="5.57"/>
		<path class="st12" d="M37.39,31.91c0.14-0.98,0.01-1.94-0.32-2.81c-0.34,0.53-0.91,0.91-1.64,0.96c-0.73,0.05-1.45-0.3-1.86-0.91
			c-0.4-0.59-0.46-1.23-0.29-1.8c0.03-0.1-0.06-0.21-0.17-0.19c-0.66,0.11-1.32,0.39-1.93,0.89c-1.16,0.96-1.76,2.49-1.51,3.97
			c0.24,1.37,1.08,2.43,2.17,3.02c1.3,0.6,2.9,0.48,4.23-0.28C36.76,33.99,37.23,33.01,37.39,31.91z"/>
		<g>
			<g>
				<path class="st13" d="M33.81,34.73c-0.59,0-1.18-0.13-1.71-0.39c-0.38-0.19-0.54-0.65-0.35-1.03s0.65-0.54,1.03-0.35
					c0.59,0.29,1.3,0.31,1.9,0.07c0.39-0.16,0.84,0.03,1,0.42c0.16,0.39-0.03,0.84-0.42,1C34.8,34.63,34.31,34.73,33.81,34.73z"/>
			</g>
		</g>
	</g>
	<g>
		<ellipse class="st10" cx="51.43" cy="25.93" rx="4.87" ry="5.25"/>
		<path class="st12" d="M56.25,26.69c0.12-0.93,0.01-1.83-0.28-2.65c-0.3,0.5-0.79,0.86-1.43,0.91c-0.64,0.05-1.27-0.28-1.63-0.85
			c-0.35-0.55-0.4-1.16-0.25-1.7c0.03-0.1-0.06-0.19-0.15-0.18c-0.58,0.11-1.15,0.37-1.69,0.84c-1.02,0.9-1.54,2.34-1.32,3.74
			c0.21,1.29,0.94,2.29,1.9,2.85c1.14,0.57,2.54,0.45,3.7-0.26C55.69,28.64,56.11,27.72,56.25,26.69z"/>
		<g>
			<g>
				<path class="st13" d="M53.11,29.34c-0.51,0-1.03-0.12-1.49-0.37c-0.33-0.18-0.47-0.61-0.31-0.97s0.57-0.51,0.9-0.33
					c0.51,0.27,1.13,0.3,1.66,0.06c0.34-0.15,0.74,0.02,0.88,0.4c0.14,0.37-0.02,0.79-0.37,0.94
					C53.99,29.25,53.55,29.34,53.11,29.34z"/>
			</g>
		</g>
	</g>
	<path class="st14" d="M52.16,0"/>
	<g>
		<path class="st15" d="M52.16,0C48.3,1.43,41.37,6.91,38.09,10.96c1.3,0.11,2.52,0.4,3.68,0.84C44.57,7.75,48.09,3.82,52.16,0z"/>
	</g>
	<g>
		<path class="st5" d="M19.34,18.01c-1.51-1.82-3.36-3.14-5.58-3.91c-0.2-0.07-0.42,0.02-0.52,0.21c-1.13,2.19-1.54,7.24-0.93,9.32
			c0.11,0.3,0.49,0.38,0.71,0.15c0.46-0.48,1.23-1.26,2.12-2.07c0.14-0.13,0.22-0.32,0.21-0.51l-0.05-1.19
			c-0.01-0.22,0.25-0.34,0.41-0.2l0.4,0.34c0.24,0.2,0.58,0.21,0.83,0.02c0.77-0.61,1.55-1.15,2.25-1.49
			C19.44,18.55,19.52,18.23,19.34,18.01z"/>
	</g>
	<g>
		<path class="st5" d="M47.77,12.61c0.85-2.05,2.07-3.66,3.67-4.79c0.15-0.1,0.34-0.05,0.45,0.12c1.31,1.96,2.58,6.84,2.49,8.99
			c-0.03,0.31-0.32,0.45-0.54,0.27c-0.45-0.39-1.21-1.02-2.07-1.67c-0.14-0.1-0.24-0.28-0.27-0.47l-0.18-1.17
			c-0.03-0.22-0.26-0.3-0.36-0.13l-0.25,0.4c-0.15,0.24-0.42,0.31-0.65,0.16c-0.73-0.47-1.45-0.87-2.06-1.08
			C47.79,13.16,47.67,12.85,47.77,12.61z"/>
	</g>
	<g>
		<path class="st9" d="M94.03,13.83c1.28-1.81,2.82-3.11,4.63-3.87c0.16-0.07,0.34,0.03,0.41,0.22c0.85,2.2,1.02,7.24,0.46,9.32
			c-0.1,0.3-0.41,0.37-0.58,0.14c-0.36-0.48-0.96-1.26-1.65-2.09c-0.11-0.13-0.17-0.32-0.16-0.51l0.08-1.19
			c0.01-0.22-0.19-0.35-0.33-0.2l-0.33,0.34c-0.2,0.2-0.48,0.21-0.67,0.01c-0.61-0.62-1.22-1.16-1.77-1.51
			C93.93,14.36,93.88,14.04,94.03,13.83z"/>
	</g>
	<g>
		<path class="st15" d="M43.56,33.97c0.03-0.02,0.05-0.04,0.08-0.06c-0.03,0.03-0.03,0.02,0.02-0.01c0.04-0.03,0.08-0.06,0.12-0.08
			c0.1-0.06,0.2-0.12,0.31-0.17c0.03-0.01,0.06-0.03,0.09-0.04c-0.04,0.02-0.04,0.02,0.02-0.01c0.05-0.02,0.09-0.03,0.14-0.05
			c0.12-0.04,0.24-0.07,0.36-0.1c0.46-0.1,1.01-0.1,1.53-0.06c0.26,0.02,0.51-0.24,0.5-0.5c-0.01-0.29-0.22-0.48-0.5-0.5
			c-1.2-0.1-2.43,0.08-3.38,0.88c-0.2,0.17-0.19,0.54,0,0.71C43.07,34.16,43.35,34.15,43.56,33.97L43.56,33.97z"/>
	</g>
	<g>
		<path class="st16" d="M41.21,64.2c-0.03-0.11-0.11-0.18-0.2-0.23l3.36-4.75c-0.17-0.05-0.33-0.1-0.5-0.15l-0.25-0.53l-4.06,5.74
			l-0.97,0.27l-5.09-3.29c-0.01,0.38-0.03,0.77-0.06,1.16l3.87,2.5c-0.18,0.06-0.29,0.25-0.24,0.44l0.46,1.62
			c0.05,0.19,0.25,0.3,0.44,0.25l3.45-0.97c0.19-0.05,0.3-0.25,0.25-0.44L41.21,64.2z"/>
	</g>
	<g>
		<path class="st15" d="M11.2,46.43c0.78-0.56,1.56-1.13,2.28-1.76c0.58-0.5,1.14-1.08,1.32-1.82c0.27-1.1-0.46-2.26-1.43-2.84
			s-2.15-0.7-3.29-0.75c-1.16-0.05-2.33-0.03-3.49,0.01c-0.63,2.27-0.99,4.59-1.04,6.95c0.62,0.84,1.28,1.64,1.99,2.41
			C8.85,48.08,10.04,47.27,11.2,46.43z"/>
	</g>
	<g>
		<path class="st15" d="M15.91,54.79c1.49,0.67,3.05,1.19,4.62,1.64c0.55-1.3,0.98-2.64,1.27-4.02c0.15-0.72,0.27-1.45,0.16-2.18
			s-0.47-1.44-1.09-1.83c-0.86-0.53-1.96-0.33-2.94-0.09c-2.64,0.66-5.26,1.57-7.55,3.01C12.07,52.71,13.92,53.9,15.91,54.79z"/>
	</g>
	<g>
		<path class="st15" d="M66.37,32.78c-1.02-2.08-2.19-4.07-3.53-5.98c-0.58,0.32-1.14,0.67-1.69,1.04
			c-0.59,0.41-1.18,0.86-1.57,1.47s-0.54,1.41-0.23,2.06c0.48,1.01,1.77,1.26,2.88,1.34C63.61,32.82,64.99,32.83,66.37,32.78z"/>
	</g>
	<g>
		<path class="st15" d="M67.22,37.19c-1.39-0.19-2.79-0.28-4.2-0.27c-0.46,0.01-0.92,0.02-1.36,0.17c-1.25,0.41-1.97,1.84-1.82,3.15
			c0.14,1.3,0.99,2.45,2.04,3.24c0.57,0.43,1.2,0.77,1.85,1.07C65.09,42.54,66.46,39.96,67.22,37.19z"/>
	</g>
	<g>
		<circle class="st10" cx="76.46" cy="29.68" r="5.57"/>
		<path class="st17" d="M81.44,32.17c0.45-0.89,0.63-1.84,0.58-2.77c-0.49,0.39-1.15,0.58-1.86,0.4c-0.71-0.18-1.28-0.74-1.48-1.45
			c-0.19-0.68-0.04-1.31,0.3-1.8c0.06-0.09,0-0.22-0.1-0.23c-0.66-0.1-1.37-0.05-2.12,0.24c-1.4,0.54-2.46,1.8-2.68,3.29
			c-0.21,1.38,0.26,2.65,1.11,3.55c1.04,0.98,2.6,1.37,4.1,1.07C80.19,33.95,80.94,33.17,81.44,32.17z"/>
		<g>
			<path class="st18" d="M77.15,33.71c-0.56-0.19-1.08-0.5-1.5-0.91c-0.3-0.3-0.31-0.78-0.01-1.09c0.3-0.3,0.79-0.31,1.09-0.01
				c0.46,0.46,1.13,0.71,1.78,0.66c0.42-0.03,0.79,0.29,0.82,0.71c0.03,0.42-0.29,0.79-0.71,0.82
				C78.13,33.94,77.63,33.87,77.15,33.71z"/>
		</g>
	</g>
	<g>
		
			<ellipse transform="matrix(0.3153 -0.949 0.949 0.3153 36.8222 112.8928)" class="st10" cx="96.65" cy="30.93" rx="5.25" ry="4.87"/>
		<path class="st17" d="M100.98,33.16c0.41-0.84,0.59-1.73,0.57-2.6c-0.44,0.38-1.02,0.56-1.64,0.41c-0.62-0.16-1.12-0.67-1.28-1.32
			c-0.16-0.63-0.01-1.23,0.3-1.69c0.06-0.08,0.01-0.2-0.09-0.21c-0.58-0.08-1.21-0.02-1.87,0.26c-1.25,0.53-2.2,1.74-2.43,3.13
			c-0.21,1.29,0.17,2.47,0.9,3.3c0.9,0.89,2.27,1.23,3.59,0.92C99.84,34.84,100.53,34.1,100.98,33.16z"/>
		<g>
			<path class="st18" d="M97.18,34.69c-0.49-0.16-0.94-0.44-1.3-0.82c-0.26-0.27-0.25-0.73,0.02-1.02s0.7-0.3,0.96-0.03
				c0.4,0.42,0.98,0.64,1.56,0.58c0.37-0.04,0.69,0.26,0.71,0.65c0.02,0.4-0.27,0.75-0.65,0.78C98.03,34.88,97.59,34.83,97.18,34.69
				z"/>
		</g>
	</g>
	<path class="st14" d="M104.81,50.09"/>
	<g>
		<g>
			<g>
				<g>
					<path class="st9" d="M72.27,38.29c0.95-0.03,1.74,0.06,2.63,0.29c0.25,0.06,0.55-0.08,0.62-0.35c0.06-0.26-0.08-0.55-0.35-0.62
						c-0.95-0.24-1.93-0.35-2.9-0.32c-0.26,0.01-0.51,0.22-0.5,0.5C71.78,38.06,71.99,38.3,72.27,38.29L72.27,38.29z"/>
				</g>
			</g>
			<g>
				<g>
					<path class="st9" d="M73.32,43.23c0.16-0.09,0.33-0.17,0.5-0.25c0.12-0.05-0.1,0.04,0.02-0.01c0.05-0.02,0.09-0.04,0.14-0.05
						c0.08-0.03,0.16-0.06,0.25-0.09c0.34-0.11,0.69-0.19,1.05-0.25c0.12-0.02,0.24-0.13,0.3-0.23c0.06-0.11,0.09-0.27,0.05-0.39
						c-0.04-0.12-0.11-0.24-0.23-0.3c-0.13-0.07-0.24-0.07-0.39-0.05c-0.77,0.11-1.51,0.37-2.19,0.74
						c-0.23,0.13-0.32,0.46-0.18,0.68C72.78,43.28,73.07,43.36,73.32,43.23L73.32,43.23z"/>
				</g>
			</g>
			<g>
				<g>
					<path class="st9" d="M97.49,39.52c0.89-0.02,1.78-0.03,2.67-0.05c0.26,0,0.51-0.23,0.5-0.5c-0.01-0.27-0.22-0.5-0.5-0.5
						c-0.89,0.02-1.78,0.03-2.67,0.05c-0.26,0-0.51,0.23-0.5,0.5C97,39.28,97.21,39.52,97.49,39.52L97.49,39.52z"/>
				</g>
			</g>
			<g>
				<g>
					<path class="st9" d="M97.49,42.72c0.17,0.1,0.34,0.21,0.5,0.33c0.08,0.06,0.16,0.11,0.24,0.17c0.04,0.03,0.08,0.06,0.12,0.09
						c0.01,0.01,0.07,0.06,0.02,0.01c-0.06-0.05,0.03,0.02,0.03,0.02c0.31,0.25,0.61,0.52,0.9,0.8c0.19,0.18,0.52,0.2,0.71,0
						c0.18-0.2,0.2-0.51,0-0.71c-0.61-0.6-1.28-1.14-2.01-1.58c-0.22-0.14-0.56-0.06-0.68,0.18C97.18,42.28,97.25,42.57,97.49,42.72
						L97.49,42.72z"/>
				</g>
			</g>
		</g>
	</g>
	<g>
		<g>
			<path class="st2" d="M86.61,34.56c0.43-0.09,0.9-0.12,1.4-0.07c0.13,0.01,0.13,0.01,0.27,0.04c0.12,0.02,0.25,0.05,0.37,0.08
				c0.12,0.03,0.24,0.07,0.36,0.11c0.05,0.02,0.1,0.04,0.15,0.05c0.03,0.01,0.07,0.03,0.1,0.04c-0.04-0.02-0.03-0.01,0.03,0.01
				c0.24,0.1,0.55,0.08,0.68-0.18c0.11-0.22,0.08-0.57-0.18-0.68c-1.1-0.48-2.28-0.61-3.46-0.36c-0.26,0.05-0.43,0.37-0.35,0.62
				C86.09,34.48,86.34,34.62,86.61,34.56L86.61,34.56z"/>
		</g>
	</g>
	<g>
		<path class="st9" d="M60.52,7.83c-0.18-0.11-0.42-0.07-0.55,0.09c-1.03,1.23-2.02,3.69-2.55,5.86c0.19,1.05,0.37,2.1,0.54,3.15
			c0.56-0.36,1.35-0.86,2.25-1.38c0.17-0.1,0.29-0.26,0.32-0.45l0.21-1.17c0.04-0.22,0.32-0.28,0.45-0.11l0.31,0.42
			c0.19,0.25,0.52,0.33,0.8,0.2c0.89-0.43,1.77-0.78,2.52-0.96c0.27-0.06,0.42-0.36,0.29-0.61C64.04,10.76,62.52,9.07,60.52,7.83z"
			/>
	</g>
	<g>
		<path class="st9" d="M100.89,4.39l-2.72,0.86c-4.67,1.63-9.22,4.1-13.09,7.06c1.2,0.4,2.35,0.88,3.45,1.45
			C91.15,10.65,95.64,7.52,100.89,4.39z"/>
	</g>
	<path class="st15" d="M74.31,51.46c-0.25-0.94-1.16-1.78-2.18-1.44c-0.48,0.16-0.86,0.52-1.19,0.88c-0.36,0.4-0.7,0.81-1.03,1.24
		c-0.54,0.7-0.99,1.45-1.41,2.23c-0.3-0.78-0.61-1.56-0.93-2.33c-0.39-0.92-0.9-1.86-1.76-2.42c-0.88-0.58-2.02-0.48-2.61,0.44
		c-0.58,0.9-0.36,2.15-0.24,3.15c0.12,1.05,0.36,2.1,0.88,3.03c-0.43,0.18-0.83,0.42-1.11,0.77c-0.62,0.77-0.52,1.87,0.05,2.64
		c0.29,0.39,0.87,0.6,0.8,1.14c-0.04,0.29-0.18,0.6-0.28,0.88c-0.25,0.72-0.55,1.42-0.86,2.12c-0.76,1.74-1.6,3.45-2.46,5.15
		c-0.78,1.54-1.57,3.08-2.41,4.59c-0.31,0.56,0.55,1.07,0.86,0.5c1.32-2.4,2.57-4.84,3.75-7.31c0.62-1.3,1.23-2.61,1.76-3.95
		c0.2-0.5,0.39-1,0.53-1.51c0.24-0.83,0.07-1.31-0.57-1.87c-0.36-0.32-0.67-0.73-0.62-1.24c0.06-0.63,0.68-0.95,1.22-1.1
		c0.59-0.16,1.3-0.15,1.76,0.31c0.38,0.39,0.46,1.28-0.26,1.37c-0.63,0.08-0.64,1.08,0,1c0.96-0.12,1.68-0.94,1.55-1.93
		c-0.13-0.96-0.97-1.65-1.89-1.8c-0.27-0.04-0.55-0.05-0.83-0.02c-0.57-0.89-0.8-1.93-0.9-2.98c-0.07-0.7-0.45-2.58,0.59-2.76
		c0.47-0.08,0.92,0.3,1.21,0.62c0.34,0.37,0.59,0.83,0.8,1.29c0.52,1.12,0.93,2.3,1.38,3.45c0,0.01,0.01,0.01,0.01,0.01
		c0.01,0.16,0.07,0.31,0.23,0.41c0.21,0.13,0.57,0.07,0.68-0.18c0.49-1.07,1.09-2.09,1.8-3.03c0.34-0.45,0.7-0.89,1.09-1.3
		c0.26-0.27,0.66-0.73,1.09-0.54c0.4,0.18,0.57,0.68,0.6,1.08c0.04,0.54-0.14,1.07-0.39,1.54c-0.57,1.05-1.41,1.98-2.15,2.91
		c0,0,0,0,0,0c-0.84,0.01-1.65,0.46-2.09,1.17c-0.48,0.78-0.58,1.94,0.06,2.66c0.29,0.32,0.7,0.5,1.14,0.58
		c-0.15,1.67-0.3,3.34-0.46,5.01c-0.09,0.97-0.18,1.94-0.27,2.92c-0.05,0.55-0.08,1.05-0.14,1.5c-0.19,1.28-0.38,2.56-0.59,3.84
		c-0.32,1.95-0.78,4.1-1.88,5.81h1.15c0.67-1.24,1.08-2.64,1.38-3.99c0.63-2.87,0.95-5.78,1.21-8.7c0.2-2.14,0.4-4.27,0.59-6.41
		c0.08-0.02,0.16-0.02,0.24-0.04c0.93-0.27,1.47-1.08,1.56-2.02c0.08-0.77-0.23-1.61-0.85-2.06c0.59-0.74,1.21-1.48,1.72-2.28
		C74.22,53.62,74.6,52.52,74.31,51.46z M71.61,59.35c-0.13,0.24-0.29,0.4-0.51,0.49c-0.28,0.12-0.53,0.14-0.84,0.12
		c0.01,0-0.06-0.01-0.09-0.01c-0.02,0-0.04-0.01-0.05-0.01c-0.06-0.01-0.13-0.03-0.19-0.05c-0.04-0.01-0.07-0.02-0.11-0.04
		c-0.01,0,0,0-0.02-0.01c-0.06-0.03-0.13-0.07-0.18-0.11c-0.01-0.01-0.08-0.08-0.09-0.09c0,0-0.01-0.01-0.02-0.02
		c-0.01-0.02-0.03-0.05-0.04-0.07c-0.06-0.11-0.09-0.27-0.09-0.39c-0.01-0.29,0.04-0.56,0.16-0.79c0.3-0.61,0.87-0.92,1.54-0.86
		c0.03,0,0.05-0.01,0.07-0.01c0.01,0,0.01,0,0.02,0c0.01,0,0.01,0,0.01,0c0,0,0,0,0.01,0.01c0.03,0.02,0.06,0.03,0.09,0.05
		c0.11,0.06,0.19,0.14,0.26,0.23c0.16,0.2,0.24,0.51,0.24,0.78C71.79,58.85,71.73,59.14,71.61,59.35z"/>
	<path class="st9" d="M92.73,73.17c-0.48-0.17-0.98-0.27-1.51-0.31c-0.32-0.02-0.57,0.34-0.48,0.63c0.26,0.88,0.98,1.62,1.41,2.42
		c0.49,0.93,0.85,1.92,1.07,2.94c0.08,0.38,0.13,0.76,0.17,1.14h1c-0.05-0.47-0.11-0.94-0.21-1.41c-0.2-0.94-0.52-1.84-0.93-2.71
		c-0.21-0.44-0.45-0.88-0.71-1.29c-0.12-0.19-0.26-0.37-0.4-0.56c0.45,0.13,0.88,0.32,1.29,0.57c0.35,0.22,0.88-0.15,0.73-0.56
		c-0.97-2.71-2.62-5.12-4.84-6.96c-0.49-0.41-1.2,0.3-0.71,0.71C90.38,69.26,91.78,71.09,92.73,73.17z"/>
</g>
</svg>
