<?xml version="1.0" encoding="utf-8"?>
<!-- Generator: Adobe Illustrator 24.1.2, SVG Export Plug-In . SVG Version: 6.00 Build 0)  -->
<svg version="1.1" id="Layer_1" xmlns="http://www.w3.org/2000/svg" xmlns:xlink="http://www.w3.org/1999/xlink" x="0px" y="0px"
	 viewBox="0 0 130 80" style="enable-background:new 0 0 130 80;" xml:space="preserve">
<style type="text/css">
	.st0{fill:#F2D4B6;}
	.st1{fill:#DDA676;}
	.st2{fill:#2D303F;}
	.st3{fill:#505772;}
	.st4{fill:#60200A;}
	.st5{fill:#F75A5A;}
	.st6{fill:#FFFFFF;}
	.st7{fill:none;stroke:#191919;stroke-miterlimit:10;}
	.st8{fill:#BA7745;}
	.st9{fill:#2AF2CA;}
	.st10{fill:#A1EC7C;}
	.st11{clip-path:url(#SVGID_2_);fill:#73C04D;}
	.st12{clip-path:url(#SVGID_2_);fill:#FFFFFF;}
	.st13{clip-path:url(#SVGID_2_);}
	.st14{clip-path:url(#SVGID_4_);fill:#73C04D;}
	.st15{clip-path:url(#SVGID_4_);fill:#FFFFFF;}
	.st16{clip-path:url(#SVGID_4_);}
</style>
<g>
	<g>
		<path class="st0" d="M14.84,55.49c1.63,1.18,3.39,2.17,5.19,3.08c3.75,1.89,7.7,3.4,11.76,4.49l-0.24,2
			c-7.87,0.96-15.18,5.81-19.11,12.7L11.26,80h48.42l-1.08-2.59c-1.22-3.26-3.86-5.83-6.83-7.62c-2.98-1.8-6.31-2.9-9.61-4
			l-0.24-2.12c9.56-0.34,26.49-7.59,29.19-15.47c0-5.58-2.01-13.08-5.61-17.35c0.98-7.96,0.25-15.81-2.15-23.54
			c-5.84,1.58-11.89,4.47-16.71,8.13c-3.95-0.88-7.69-1.04-11.23-0.48c-3.82-3.74-8.26-6.84-13.07-9.17
			c-0.75,0.65-1.3,1.53-1.52,2.55L18.5,19.4l0.23,0.04c5.41,0.99,8.85,6.99,7.68,13.41c-1.17,6.42-6.5,10.83-11.91,9.85l-6.59-1.2
			c-0.32-0.06-0.63-0.14-0.93-0.23l0,0l-1,3.43C7.94,48.98,11.03,52.73,14.84,55.49z"/>
	</g>
	<g>
		<path class="st1" d="M65.49,30.85c0.98-7.96,0.25-15.81-2.15-23.54c-5.75,1.55-11.69,4.38-16.47,7.96
			c-0.13,0.9-0.04,1.86,0.12,2.77c0.96,5.33,3.7,10.35,7.79,13.89c3.92,3.39,9.06,5.34,14.24,5.29
			C68.12,34.79,66.94,32.56,65.49,30.85z"/>
	</g>
	
		<rect x="103.16" y="73.67" transform="matrix(-1 -1.224647e-16 1.224647e-16 -1 209.5477 153.6683)" class="st2" width="3.23" height="6.33"/>
	<path class="st3" d="M130,15.4H83.94c-1.66,0-3,1.34-3,3v52.27c0,1.66,1.34,3,3,3H130V15.4z"/>
	<rect x="106.37" y="73.67" class="st3" width="16.72" height="6.33"/>
	<path class="st4" d="M51.8,42.2c-0.04-0.04-0.08-0.06-0.13-0.08c-0.01,0-0.01-0.01-0.02-0.01c-0.01-0.01-0.02-0.01-0.04-0.02
		c-0.04-0.02-0.08-0.05-0.13-0.06c-1.51-0.33-3.05-0.36-4.58-0.1c-0.35,0.06-0.5,0.61-0.22,0.84c0.76,0.6,1.51,1.2,2.27,1.8
		c0.16,0.13,0.41,0.22,0.61,0.08c0.76-0.55,1.51-1.13,2.23-1.73C52.01,42.74,51.98,42.38,51.8,42.2z"/>
	<path class="st4" d="M53.02,49.59c-1.21-1.14-2.32-2.39-3.29-3.74c-0.16-0.22-0.44-0.32-0.68-0.18c-0.07,0.04-0.12,0.1-0.16,0.17
		c-0.02,0.02-0.05,0.04-0.07,0.07c-0.93,1.33-2.02,2.55-3.23,3.65c-0.2,0.18-0.18,0.52,0,0.71c0.2,0.2,0.51,0.18,0.71,0
		c1.12-1.01,2.11-2.15,3-3.36c0.92,1.21,1.91,2.36,3.01,3.4c0.2,0.19,0.51,0.19,0.71,0C53.21,50.11,53.22,49.78,53.02,49.59z"/>
	<circle class="st2" cx="98.42" cy="7.87" r="6.7"/>
	<g>
		<path class="st2" d="M107.4,64.53h-3.79c-0.54,0-0.97-0.44-0.97-0.97v-1.11c0-0.54,0.44-0.97,0.97-0.97h3.79
			c0.54,0,0.97,0.44,0.97,0.97v1.11C108.37,64.09,107.93,64.53,107.4,64.53z"/>
		<path class="st2" d="M116.62,64.53h-3.79c-0.54,0-0.97-0.44-0.97-0.97v-1.11c0-0.54,0.44-0.97,0.97-0.97h3.79
			c0.54,0,0.97,0.44,0.97,0.97v1.11C117.59,64.09,117.16,64.53,116.62,64.53z"/>
		<path class="st2" d="M125.84,64.53h-3.79c-0.54,0-0.97-0.44-0.97-0.97v-1.11c0-0.54,0.44-0.97,0.97-0.97h3.79
			c0.54,0,0.97,0.44,0.97,0.97v1.11C126.82,64.09,126.38,64.53,125.84,64.53z"/>
	</g>
	<g>
		<circle class="st5" cx="114.73" cy="41.48" r="12.96"/>
		<g>
			<g>
				<path class="st6" d="M117.55,48.52h-2.82c-0.5,0-0.9-0.4-0.9-0.9v-12.6c0-0.5,0.4-0.9,0.9-0.9s0.9,0.4,0.9,0.9v11.7h1.92
					c0.5,0,0.9,0.4,0.9,0.9S118.04,48.52,117.55,48.52z"/>
			</g>
			<g>
				<path class="st6" d="M114.73,53.05c-6.38,0-11.57-5.19-11.57-11.57c0-6.38,5.19-11.57,11.57-11.57c0.5,0,0.9,0.4,0.9,0.9
					s-0.4,0.9-0.9,0.9c-5.39,0-9.77,4.38-9.77,9.77s4.38,9.77,9.77,9.77c5.08,0,9.27-3.9,9.73-8.87h-5.65c-0.5,0-0.9-0.4-0.9-0.9
					s0.4-0.9,0.9-0.9h6.6c0.5,0,0.9,0.4,0.9,0.9C126.29,47.86,121.1,53.05,114.73,53.05z"/>
			</g>
			<circle class="st6" cx="111.18" cy="36" r="1.35"/>
		</g>
	</g>
	<path class="st2" d="M80.94,70.67V18.4c0-1.66,1.34-3,3-3h-3c-1.66,0-3,1.34-3,3v52.27c0,1.66,1.34,3,3,3h3
		C82.28,73.67,80.94,72.33,80.94,70.67z"/>
	<path class="st2" d="M100.49,15.4v-1.15c-0.65,0.21-1.34,0.33-2.06,0.33s-1.41-0.12-2.06-0.33v1.15h-5.15v4.57
		c0,0.84,0.68,1.52,1.52,1.52h11.4c0.84,0,1.52-0.68,1.52-1.52V15.4H100.49z"/>
	<path class="st3" d="M92.67,5.77c-0.22,0-0.43,0.02-0.63,0.07c-0.2,0.64-0.32,1.33-0.32,2.04c0,1.53,0.52,2.93,1.37,4.05
		c1.51-0.21,2.68-1.49,2.68-3.06C95.77,7.16,94.39,5.77,92.67,5.77z"/>
	<path class="st7" d="M21.39,5.33"/>
	<g>
		<path class="st8" d="M47.3,39.73c1.17-0.22,2.38-0.2,3.54,0.04c0.26,0.05,0.54-0.08,0.62-0.35c0.07-0.25-0.08-0.56-0.35-0.62
			c-1.35-0.28-2.72-0.29-4.07-0.04c-0.27,0.05-0.42,0.37-0.35,0.62C46.77,39.66,47.04,39.78,47.3,39.73L47.3,39.73z"/>
	</g>
	<circle class="st2" cx="59.51" cy="53.86" r="2.59"/>
	<g>
		
			<ellipse transform="matrix(0.1792 -0.9838 0.9838 0.1792 -21.1615 34.3815)" class="st2" cx="10.02" cy="29.87" rx="11.82" ry="9.96"/>
		<path class="st3" d="M18.73,19.44l-6.59-1.2c5.41,0.99,8.85,6.99,7.68,13.41c-1.17,6.42-6.5,10.83-11.91,9.85l6.59,1.2
			c5.41,0.99,10.74-3.42,11.91-9.85C27.58,26.43,24.14,20.43,18.73,19.44z"/>
		<g>
			<path class="st9" d="M12.01,28.84c-0.62-0.08-1.23-0.16-1.85-0.23c-0.24-0.03-0.51,0.05-0.72,0.22c-0.2,0.16-0.38,0.45-0.42,0.7
				c-0.09,0.57,0.19,1.1,0.71,1.17c0.31,0.04,0.62,0.08,0.93,0.12c-0.06,0.27-0.11,0.54-0.16,0.8l-0.05,0.26
				c-0.06,0.27-0.01,0.56,0.12,0.78c0.11,0.2,0.34,0.36,0.56,0.39c0.01,0,0.01,0,0.02,0c0.51,0.04,1.02-0.35,1.14-0.93
				c0.12-0.61,0.25-1.23,0.38-1.85c0.02-0.09,0.04-0.17,0.05-0.26C12.84,29.44,12.51,28.91,12.01,28.84"/>
			<path class="st9" d="M10.94,24.77c-1.09-0.14-2.25-0.11-3.31,0.52c-1.3,0.78-2.04,2.21-2.36,3.73c-0.3,1.43-0.13,2.95,0.64,4.02
				c0.73,1,1.81,1.33,2.96,1.48c0.03,0,0.05,0.01,0.08,0.01l0.42-2.09c-0.13-0.01-0.26-0.02-0.38-0.04
				c-0.22-0.03-0.43-0.07-0.6-0.12c-0.34-0.11-0.71-0.35-0.88-0.55c-0.51-0.65-0.6-1.52-0.41-2.47c0.11-0.48,0.25-0.93,0.5-1.37
				c0.19-0.34,0.48-0.63,0.78-0.78c0.62-0.33,1.32-0.34,2.01-0.25c0.03,0,0.07,0.01,0.1,0.01L10.94,24.77"/>
		</g>
	</g>
	<path class="st2" d="M12.14,18.24l6.36,1.16l2.31-11.07c0.45-2.16,2.36-3.69,4.56-3.67L63.2,4.99l-3.18-0.16L17.59,2.71
		c-1.76-0.08-3.34,1.05-3.82,2.74l-3.4,12.67C10.95,18.1,11.55,18.13,12.14,18.24z"/>
	<g>
		<path class="st4" d="M55.79,18.69c1.33-1.78,2.9-3.04,4.74-3.74c0.17-0.06,0.34,0.04,0.41,0.23c0.79,2.22,0.83,7.27,0.21,9.33
			c-0.11,0.29-0.42,0.36-0.58,0.13c-0.34-0.49-0.92-1.29-1.59-2.13c-0.11-0.13-0.16-0.32-0.14-0.52l0.11-1.18
			c0.02-0.22-0.18-0.35-0.32-0.21l-0.34,0.33c-0.2,0.19-0.48,0.19-0.67-0.01c-0.59-0.63-1.19-1.19-1.73-1.55
			C55.68,19.22,55.63,18.9,55.79,18.69z"/>
	</g>
	<g>
		<path class="st4" d="M26.91,16.95c-1.02-2.14-2.49-3.87-4.45-5.16c-0.18-0.12-0.41-0.08-0.55,0.08c-1.37,1.55-2.74,5.19-3.1,7.59
			c0.71,0.14,1.39,0.36,2.02,0.66c0.35-0.2,0.71-0.41,1.11-0.62c0.17-0.09,0.29-0.25,0.33-0.44l0.24-1.16
			c0.04-0.21,0.32-0.27,0.45-0.09l0.3,0.43c0.18,0.25,0.51,0.35,0.8,0.22c0.9-0.4,1.79-0.74,2.55-0.9
			C26.88,17.49,27.03,17.2,26.91,16.95z"/>
	</g>
	<g>
		<path class="st8" d="M63.34,7.31c-5.84,1.58-11.89,4.47-16.71,8.13c1,0.37,1.93,0.82,2.72,1.44
			C52.75,13.82,57.76,10.59,63.34,7.31z"/>
	</g>
	<path class="st3" d="M58.4,7.1l0.25,1.75c1.56-0.6,3.14-1.12,4.7-1.54c1.44,4.64,2.26,9.32,2.49,14.04c1.03-0.1,2.03-0.01,3,0.25
		L65.75,7.08C65.49,5.87,64.43,5,63.2,4.99l-7.64-0.07C57.49,5.23,58.19,6.12,58.4,7.1z"/>
	<path class="st2" d="M65.49,30.85c1.72,2.04,3.07,4.82,4.02,7.77c0.63-1.77,0.89-3.75,0.7-5.82c-0.34-3.57-1.99-6.63-4.31-8.58
		C65.89,26.42,65.76,28.63,65.49,30.85z"/>
	<path class="st3" d="M76.88,32.16c-0.62-6.5-5.57-11.34-11.04-10.81c0.05,0.96,0.07,1.91,0.06,2.87c2.32,1.95,3.97,5.02,4.31,8.58
		c0.2,2.07-0.07,4.06-0.7,5.82c0.58,1.82,1.01,3.7,1.28,5.53C74.79,42.34,77.39,37.53,76.88,32.16z"/>
	<path class="st3" d="M74.55,46.83c-0.22-1.79-0.52-3.58-0.93-5.34c-0.29-1.25-2.22-0.72-1.93,0.53c0.35,1.48,0.62,2.99,0.82,4.5
		c0.19,1.42,0.32,3.05-0.71,4.2c-1.19,1.33-3.28,1.81-4.98,2.03c-1.62,0.21-3.26,0.22-4.9,0.21c0.1,0.28,0.17,0.58,0.17,0.9
		c0,0.39-0.09,0.76-0.25,1.1c1.97,0.01,3.95-0.02,5.9-0.34c1.99-0.32,4.26-1.05,5.61-2.65C74.58,50.53,74.77,48.65,74.55,46.83z"/>
	<g>
		<path class="st10" d="M37.84,36.16c-0.56-0.17-1.09-0.47-1.52-0.87C36.02,35,36,34.51,36.29,34.2c0.29-0.31,0.78-0.32,1.09-0.03
			c0.48,0.45,1.15,0.68,1.8,0.62c0.42-0.04,0.8,0.27,0.84,0.69c0.04,0.42-0.27,0.8-0.69,0.84C38.82,36.36,38.32,36.31,37.84,36.16z"
			/>
	</g>
	<path class="st6" d="M32.52,31.8c-0.91,2.93,0.72,6.18,3.92,7.04c1.98,0.53,4.14-0.13,5.52-1.65c0.7-0.77,1.11-1.63,1.31-2.51
		c0.08-0.36-0.12-0.72-0.48-0.81l-9.47-2.48C32.99,31.31,32.63,31.48,32.52,31.8z"/>
	<g>
		<defs>
			<path id="SVGID_1_" d="M32.52,31.8c-0.91,2.93,0.72,6.18,3.92,7.04c1.98,0.53,4.14-0.13,5.52-1.65c0.7-0.77,1.11-1.63,1.31-2.51
				c0.08-0.36-0.12-0.72-0.48-0.81l-9.47-2.48C32.99,31.31,32.63,31.48,32.52,31.8z"/>
		</defs>
		<clipPath id="SVGID_2_">
			<use xlink:href="#SVGID_1_"  style="overflow:visible;"/>
		</clipPath>
		<path class="st11" d="M42.32,32.49c-0.44,0.37-1.05,0.56-1.71,0.41c-0.66-0.15-1.21-0.66-1.4-1.31c-0.19-0.63-0.07-1.21,0.23-1.67
			c0.06-0.08,0-0.2-0.1-0.21c-0.62-0.08-1.27-0.01-1.95,0.27c-1.29,0.53-2.23,1.72-2.4,3.11c-0.16,1.28,0.3,2.45,1.11,3.26
			c0.99,0.88,2.44,1.21,3.82,0.89C41.87,36.48,42.77,34.91,42.32,32.49z"/>
		<circle class="st12" cx="40.11" cy="33.2" r="1.64"/>
		<g class="st13">
			<g>
				<path class="st10" d="M36.13,35.16c0.28,0.52,0.72,0.96,1.23,1.24c0.12,0.06,0.26,0.09,0.39,0.05c0.12-0.03,0.24-0.12,0.3-0.23
					c0.06-0.12,0.09-0.26,0.05-0.39c-0.04-0.12-0.11-0.24-0.23-0.3c-0.12-0.07-0.23-0.14-0.34-0.22c0.03,0.03,0.07,0.05,0.1,0.08
					c-0.18-0.14-0.34-0.3-0.48-0.48c0.03,0.03,0.05,0.07,0.08,0.1c-0.09-0.11-0.16-0.23-0.23-0.36c-0.06-0.11-0.18-0.2-0.3-0.23
					c-0.12-0.03-0.28-0.02-0.39,0.05C36.07,34.62,35.99,34.91,36.13,35.16L36.13,35.16z"/>
			</g>
		</g>
	</g>
	<path class="st6" d="M53.88,34.91c-0.41,0.11-0.65,0.53-0.54,0.94c0.37,1.34,1.25,2.49,2.53,3.11c2.43,1.17,5.37-0.01,6.57-2.64
		c0.43-0.94,0.57-1.94,0.47-2.89c-0.05-0.46-0.5-0.76-0.95-0.64L53.88,34.91z"/>
	<g>
		<defs>
			<path id="SVGID_3_" d="M53.88,34.91c-0.41,0.11-0.65,0.53-0.54,0.94c0.37,1.34,1.25,2.49,2.53,3.11
				c2.43,1.17,5.37-0.01,6.57-2.64c0.43-0.94,0.57-1.94,0.47-2.89c-0.05-0.46-0.5-0.76-0.95-0.64L53.88,34.91z"/>
		</defs>
		<clipPath id="SVGID_4_">
			<use xlink:href="#SVGID_3_"  style="overflow:visible;"/>
		</clipPath>
		<path class="st14" d="M62.13,32.41c-0.43,0.36-1.01,0.54-1.64,0.39c-0.63-0.15-1.16-0.63-1.35-1.25c-0.19-0.6-0.07-1.16,0.22-1.6
			c0.05-0.08,0-0.19-0.1-0.2c-0.59-0.07-1.22-0.01-1.87,0.26c-1.23,0.51-2.14,1.65-2.3,2.98c-0.15,1.22,0.28,2.34,1.06,3.12
			c0.95,0.84,2.34,1.16,3.66,0.86C61.7,36.24,62.56,34.73,62.13,32.41z"/>
		<circle class="st15" cx="59.74" cy="33.66" r="1.36"/>
		<g class="st16">
			<g>
				<path class="st10" d="M56.56,35.82c0.16,0.2,0.36,0.38,0.6,0.49c0.24,0.11,0.48,0.18,0.73,0.25c0.13,0.03,0.27,0.02,0.39-0.05
					c0.1-0.06,0.2-0.18,0.23-0.3c0.03-0.13,0.02-0.27-0.05-0.39c-0.07-0.11-0.17-0.2-0.3-0.23c-0.18-0.05-0.37-0.09-0.55-0.17
					c0.04,0.02,0.08,0.03,0.12,0.05c-0.11-0.05-0.22-0.11-0.31-0.18c0.03,0.03,0.07,0.05,0.1,0.08c-0.1-0.08-0.18-0.17-0.25-0.26
					c-0.08-0.09-0.24-0.15-0.35-0.15c-0.12,0-0.27,0.05-0.35,0.15c-0.09,0.1-0.15,0.22-0.15,0.35c0.01,0.04,0.01,0.09,0.02,0.13
					C56.46,35.68,56.5,35.76,56.56,35.82L56.56,35.82z"/>
			</g>
		</g>
	</g>
	<path class="st4" d="M53.27,33.39l-0.45-0.73c-0.18-0.29-0.12-0.66,0.12-0.88l3.2-2.92c0.36-0.33,0.94-0.19,1.12,0.26l0.78,1.99
		c0.13,0.34-0.02,0.73-0.35,0.88l-3.53,1.67C53.84,33.8,53.46,33.69,53.27,33.39z"/>
	<path class="st4" d="M43.55,32.4l0.45-0.73c0.18-0.29,0.12-0.66-0.12-0.88l-3.2-2.92c-0.36-0.33-0.94-0.19-1.12,0.26l-0.78,1.99
		c-0.13,0.34,0.02,0.73,0.35,0.88l3.53,1.67C42.98,32.81,43.36,32.7,43.55,32.4z"/>
	<g>
		<path class="st8" d="M57.37,43.8c1.33-0.14,2.67-0.24,4.01-0.29c0.39-0.02,0.78-0.16,1.06-0.44c0.26-0.26,0.46-0.69,0.44-1.06
			c-0.04-0.79-0.66-1.53-1.5-1.5c-1.34,0.05-2.67,0.15-4.01,0.29c-0.41,0.04-0.76,0.14-1.06,0.44c-0.26,0.26-0.46,0.69-0.44,1.06
			c0.02,0.39,0.14,0.79,0.44,1.06C56.59,43.61,56.98,43.84,57.37,43.8L57.37,43.8z"/>
	</g>
	<g>
		<path class="st8" d="M40.66,40.55c-1.61-0.18-3.23-0.31-4.85-0.4c-0.78-0.04-1.53,0.72-1.5,1.5c0.04,0.85,0.66,1.46,1.5,1.5
			c1.62,0.09,3.24,0.22,4.85,0.4c0.36,0.04,0.82-0.2,1.06-0.44c0.26-0.26,0.46-0.69,0.44-1.06c-0.02-0.39-0.14-0.79-0.44-1.06
			C41.41,40.7,41.08,40.59,40.66,40.55L40.66,40.55z"/>
	</g>
</g>
</svg>
