<?xml version="1.0" encoding="utf-8"?>
<!-- Generator: Adobe Illustrator 24.1.2, SVG Export Plug-In . SVG Version: 6.00 Build 0)  -->
<svg version="1.1" id="Layer_1" xmlns="http://www.w3.org/2000/svg" xmlns:xlink="http://www.w3.org/1999/xlink" x="0px" y="0px"
	 viewBox="0 0 130 80" style="enable-background:new 0 0 130 80;" xml:space="preserve">
<style type="text/css">
	.st0{fill:#36CB7C;}
	.st1{fill:#DCDFE2;}
	.st2{fill:#A3ABB8;}
	.st3{fill:#2C9B60;}
	.st4{fill:#E44D39;}
	.st5{fill:#515A69;}
	.st6{fill:#FFFFFF;}
	.st7{fill:#73C04D;}
	.st8{fill:#A1EC7C;}
	.st9{fill:none;stroke:#191919;stroke-miterlimit:10;}
	.st10{opacity:0.5;}
	.st11{fill:#FCE4A0;}
	.st12{fill:#191919;}
	.st13{fill:#F46969;}
	.st14{fill:#D94343;}
</style>
<g>
	<g>
		<path class="st0" d="M94.87,80l-0.09-1.35c-0.86-3.9-1.92-7.75-3.18-11.54c0,0,4.41-2.18,4.9-5.15c0.15-0.84,0.07-1.71-0.12-2.55
			c-0.41-1.84-1.32-3.56-2.61-4.93l-0.04-0.31c-0.5,0.62-1.04,1.21-1.6,1.77c-4.37,4.37-9.88,7.57-15.81,9.28l-23.83-0.59
			c-5.1-2.56-7.52-7.47-8.38-13.75c-0.46-4.95,0.3-9.94,1.6-14.73c0.59-2.17,1.31-4.36,2.69-6.15c1.23-1.59,2.91-2.78,4.66-3.76
			c6.02-3.36,13.04-4.5,19.93-4.73c3.08-0.11,6.22-0.04,9.16,0.87c2.95,0.91,5.71,2.75,7.17,5.47l1.3,4.53
			c0.49-0.13,1.52-0.4,2.01-0.53c0.23-0.06,0.48-0.12,0.67-0.27c0.17-0.13,0.29-0.32,0.4-0.5c0.67-1.1,1.35-2.2,2.02-3.31
			c1.37-2.24,2.76-4.52,3.52-7.03c0.06-0.19,0.11-0.38,0.08-0.57c-0.03-0.22-0.17-0.41-0.31-0.59c-1.83-2.42-4.14-5.19-5.96-7.61
			l-13.9-3.75L66.31,7.69c-5.98,0.21-13.05,1.74-18.62,3.92l-16.28,9.63c-3.45,5.24-5.33,11.15-6.65,17.29
			C21.82,52.1,21.96,66.11,22.2,80H94.87z"/>
	</g>
	<g>
		<path class="st1" d="M76.32,65.22c5.93-1.71,11.44-4.91,15.81-9.28c0.63-0.63,1.24-1.28,1.78-1.99c1.42-1.9,2.52-3.88,3.21-5.95
			c-0.74-5.54-2.71-11.53-6.51-15.63l-1.3-4.53c-1.45-2.72-4.22-4.56-7.17-5.47s-6.08-0.98-9.16-0.87
			c-6.89,0.24-13.91,1.37-19.93,4.73c-1.76,0.98-3.44,2.17-4.66,3.76c-1.37,1.78-2.1,3.98-2.69,6.15c-1.3,4.79-2.05,9.79-1.6,14.73
			c0.85,6.28,3.28,11.19,8.38,13.75"/>
	</g>
	<g>
		<path class="st2" d="M61.29,42.22c0.79-1.36,1.46-2.8,1.9-4.31c1.43-4.91,0.37-10.11-0.98-15.09c-3.2,0.73-6.29,1.82-9.15,3.42
			c-1.76,0.98-3.44,2.17-4.66,3.76c-1.37,1.78-2.1,3.98-2.69,6.15c-1.3,4.79-2.05,9.79-1.6,14.73c0.19,1.4,0.46,2.73,0.82,3.98
			C51.72,52.94,57.76,48.35,61.29,42.22z"/>
	</g>
	<g>
		<path class="st2" d="M95.75,41.76c-1.09-3.49-2.75-6.81-5.14-9.39l-1.3-4.53c-1.45-2.72-4.22-4.56-7.17-5.47
			c-2.31-0.71-4.75-0.91-7.18-0.91c0.91,5.14,3.05,10.09,6.61,13.88C85.22,39.24,90.45,41.77,95.75,41.76z"/>
	</g>
	<g>
		<path class="st3" d="M65.98,17.92c-0.23-0.36-0.54-0.73-0.9-0.96c-0.28-0.18-0.65-0.19-0.92,0.02c-0.26,0.2-0.34,0.55-0.23,0.86
			c0.08,0.23,0.22,0.44,0.36,0.64c0.15,0.22,0.32,0.43,0.5,0.63c0.28,0.24,0.77,0.34,1.04,0.29c0.18-0.03,0.36-0.15,0.45-0.31
			c0.06-0.1,0.08-0.21,0.08-0.32c0-0.13-0.05-0.23-0.1-0.35C66.18,18.24,66.08,18.08,65.98,17.92z"/>
		<path class="st3" d="M73.54,17.05c-0.13-0.3-0.38-0.52-0.72-0.55c-0.34-0.03-0.57,0.21-0.76,0.47c-0.22,0.3-0.56,1.15-0.58,1.23
			c-0.02,0.12-0.04,0.23-0.06,0.35c-0.03,0.17-0.06,0.33-0.01,0.5c0.13,0.42,0.62,0.56,0.99,0.35c0.19-0.11,0.34-0.3,0.49-0.46
			c0.16-0.17,0.31-0.36,0.43-0.56C73.58,17.98,73.73,17.49,73.54,17.05z M72.39,18.83C72.39,18.83,72.39,18.83,72.39,18.83
			C72.39,18.82,72.39,18.83,72.39,18.83C72.39,18.81,72.39,18.83,72.39,18.83z"/>
	</g>
	<path class="st4" d="M77.82,44.28c-0.05-0.06-0.12-0.1-0.2-0.13c-0.06-0.04-0.13-0.07-0.22-0.08c-1.43-0.13-2.88,0-4.26,0.4
		c-0.2,0.06-0.35,0.17-0.4,0.38c-0.04,0.19,0.02,0.41,0.19,0.52c0.79,0.49,1.58,0.97,2.37,1.46c0.18,0.11,0.44,0.13,0.61-0.03
		c0.64-0.59,1.25-1.19,1.85-1.82C77.94,44.79,78.01,44.5,77.82,44.28z"/>
	<path class="st5" d="M81.79,47.91c-0.04,1.2-1.5,1.95-2.57,1.94c-1.09-0.01-2.36-0.68-2.85-1.68c-0.08-0.16-0.2-0.23-0.33-0.26
		c-0.18-0.06-0.39-0.03-0.53,0.18c-0.89,1.38-1.94,3.04-3.67,3.41c-1.39,0.3-2.79-0.54-3.28-1.85c-0.23-0.6-1.13-0.17-0.91,0.43
		c0.61,1.62,2.37,2.68,4.09,2.45c1.89-0.25,3.16-1.75,4.17-3.25c0.82,0.98,2.17,1.6,3.41,1.56c1.52-0.05,3.39-1.14,3.45-2.83
		C82.8,47.37,81.81,47.27,81.79,47.91z"/>
	<g>
		<circle class="st6" cx="62.59" cy="38.39" r="5.57"/>
		<g>
			<path class="st7" d="M65.8,36.98c-0.48,0.54-1.23,0.85-2.1,0.65c-0.51-0.12-0.97-0.45-1.24-0.89c-0.43-0.71-0.42-1.44-0.14-2.04
				c0.05-0.1-0.02-0.23-0.13-0.22c-0.83,0.02-1.69,0.27-2.52,0.91c-0.89,0.68-1.49,1.73-1.59,2.85c-0.15,1.62,0.56,3.01,1.67,3.84
				c1.19,0.79,2.8,0.91,4.22,0.36C66.08,41.37,66.56,38.62,65.8,36.98z"/>
			<g>
				<path class="st8" d="M61.73,42.05c-0.58-0.09-1.14-0.31-1.63-0.64c-0.35-0.24-0.43-0.72-0.19-1.07
					c0.24-0.35,0.72-0.43,1.07-0.19c0.54,0.37,1.23,0.5,1.87,0.35c0.41-0.1,0.83,0.15,0.93,0.56c0.1,0.41-0.15,0.83-0.56,0.93
					C62.73,42.11,62.22,42.12,61.73,42.05z"/>
			</g>
		</g>
	</g>
	<g>
		
			<ellipse transform="matrix(0.1501 -0.9887 0.9887 0.1501 34.4905 112.522)" class="st6" cx="82.69" cy="36.2" rx="5.25" ry="4.87"/>
		<g>
			<path class="st7" d="M85.71,34.74c-0.43,0.51-1.08,0.8-1.85,0.63c-0.45-0.1-0.85-0.41-1.08-0.82c-0.37-0.66-0.36-1.34-0.11-1.91
				c0.04-0.1-0.01-0.21-0.11-0.21c-0.72,0.02-1.48,0.27-2.22,0.87c-0.79,0.65-1.32,1.63-1.42,2.67c-0.15,1.51,0.46,2.8,1.44,3.57
				c1.04,0.72,2.45,0.83,3.71,0.3C85.93,38.84,86.37,36.27,85.71,34.74z"/>
			<g>
				<path class="st8" d="M82.09,39.51c-0.51-0.08-1-0.28-1.42-0.59c-0.3-0.22-0.37-0.67-0.16-1c0.22-0.33,0.64-0.41,0.94-0.19
					c0.47,0.34,1.08,0.46,1.64,0.31c0.36-0.1,0.73,0.14,0.81,0.52c0.08,0.38-0.14,0.77-0.5,0.87
					C82.97,39.55,82.53,39.57,82.09,39.51z"/>
			</g>
		</g>
	</g>
	<g>
		<g>
			<g>
				<g>
					<path class="st5" d="M59.91,47.59c0.93-0.19,1.72-0.24,2.65-0.16c0.26,0.02,0.53-0.18,0.55-0.45c0.01-0.27-0.17-0.52-0.45-0.55
						c-0.97-0.08-1.96-0.02-2.91,0.17c-0.26,0.05-0.47,0.31-0.41,0.58C59.39,47.44,59.64,47.64,59.91,47.59L59.91,47.59z"/>
				</g>
			</g>
			<g>
				<g>
					<path class="st5" d="M61.78,52.27c0.15-0.12,0.3-0.22,0.45-0.33c0.11-0.07-0.09,0.06,0.02-0.01c0.04-0.03,0.08-0.05,0.13-0.08
						c0.07-0.04,0.15-0.09,0.23-0.13c0.32-0.17,0.65-0.31,0.99-0.42c0.11-0.04,0.22-0.17,0.26-0.28c0.04-0.12,0.04-0.28-0.02-0.39
						c-0.06-0.11-0.15-0.21-0.28-0.26c-0.14-0.04-0.25-0.03-0.39,0.02c-0.74,0.24-1.43,0.62-2.04,1.1c-0.21,0.16-0.24,0.51-0.06,0.7
						C61.26,52.42,61.56,52.45,61.78,52.27L61.78,52.27z"/>
				</g>
			</g>
			<g>
				<g>
					<path class="st5" d="M84.98,44.52c0.87-0.17,1.75-0.33,2.62-0.5c0.26-0.05,0.47-0.31,0.41-0.58c-0.06-0.26-0.3-0.46-0.58-0.41
						c-0.87,0.17-1.75,0.33-2.62,0.5c-0.26,0.05-0.47,0.31-0.41,0.58C84.46,44.37,84.7,44.57,84.98,44.52L84.98,44.52z"/>
				</g>
			</g>
			<g>
				<g>
					<path class="st5" d="M85.52,47.68c0.19,0.07,0.37,0.15,0.55,0.24c0.09,0.04,0.18,0.08,0.26,0.13c0.05,0.02,0.09,0.05,0.14,0.07
						c0.01,0.01,0.08,0.04,0.02,0.01c-0.07-0.04,0.03,0.02,0.03,0.02c0.35,0.19,0.69,0.4,1.02,0.63c0.21,0.15,0.55,0.11,0.7-0.12
						c0.15-0.23,0.11-0.54-0.12-0.7c-0.7-0.49-1.46-0.9-2.25-1.22c-0.24-0.1-0.56,0.04-0.64,0.29
						C85.14,47.3,85.26,47.57,85.52,47.68L85.52,47.68z"/>
				</g>
			</g>
		</g>
	</g>
	<g>
		<g>
			<path class="st2" d="M73.42,41.48c0.41-0.16,0.87-0.27,1.37-0.31c0.13-0.01,0.13-0.01,0.27-0.01c0.13,0,0.25,0.01,0.38,0.02
				c0.13,0.01,0.25,0.03,0.38,0.04c0.05,0.01,0.11,0.02,0.16,0.03c0.04,0.01,0.07,0.01,0.11,0.02c-0.04-0.01-0.03-0.01,0.03,0.01
				c0.25,0.06,0.55-0.02,0.64-0.29c0.08-0.23-0.02-0.58-0.29-0.64c-1.16-0.29-2.35-0.21-3.47,0.23c-0.24,0.1-0.36,0.44-0.24,0.67
				C72.88,41.49,73.16,41.58,73.42,41.48L73.42,41.48z"/>
		</g>
	</g>
	<line class="st9" x1="76.32" y1="65.22" x2="52.48" y2="64.63"/>
	<g>
		<path class="st0" d="M59.59,77.74c1.37-1.78,2.75-3.55,4.12-5.33c0.4-0.52,0.82-1.05,1.38-1.4c1.32-0.81,3.04-0.37,4.48,0.23
			c1.44,0.6,2.94,1.34,4.47,1.04c1.74-0.34,3-2.07,3.12-3.84c0.11-1.77-0.77-3.5-2.04-4.74c-1.27-1.23-2.91-2.03-4.57-2.65
			c-1.15-0.43-2.34-0.79-3.56-0.9c-1.51-0.13-3.03,0.12-4.51,0.43c-3.54,0.75-7.08,1.89-9.99,4.05c-0.75,0.56-1.45,1.17-2.13,1.81
			c-2.97,2.77-5.61,5.9-7.85,9.29L59.59,77.74z"/>
	</g>
	<g>
		<path class="st3" d="M59.95,78.1c0.81-1.05,1.63-2.11,2.44-3.16c0.76-0.98,1.46-2.04,2.31-2.94c1.83-1.94,4.41-0.32,6.41,0.4
			c1.98,0.71,4.07,0.57,5.46-1.15c1.25-1.55,1.37-3.62,0.61-5.42c-0.83-1.99-2.54-3.41-4.42-4.36c-2.06-1.04-4.4-1.87-6.73-1.85
			c-2.37,0.02-4.81,0.65-7.07,1.35c-2.18,0.67-4.31,1.57-6.2,2.86c-2.19,1.5-4.1,3.46-5.87,5.43c-1.76,1.95-3.37,4.04-4.82,6.23
			c-0.36,0.54,0.51,1.04,0.86,0.5c2.42-3.67,5.31-7.08,8.63-9.98c3.36-2.93,7.65-4.35,11.98-5.13c1.17-0.21,2.37-0.34,3.55-0.22
			c1.14,0.12,2.25,0.47,3.31,0.87c1.97,0.74,4.01,1.77,5.23,3.56c1.1,1.61,1.47,3.76,0.25,5.41c-0.59,0.81-1.49,1.32-2.5,1.35
			c-1.12,0.03-2.2-0.47-3.21-0.89c-1.93-0.81-4.26-1.5-5.98,0.13c-0.9,0.85-1.61,1.97-2.36,2.95c-0.86,1.12-1.73,2.24-2.59,3.36
			C58.85,77.89,59.55,78.61,59.95,78.1L59.95,78.1z"/>
	</g>
	<g>
		<path class="st3" d="M117.49,58.43c-1.07-1.42-2.56-2.45-4.11-3.32c-1.07-0.6-2.19-1.14-3.38-1.43c-1.47-0.36-3.01-0.35-4.53-0.26
			c-3.62,0.2-7.29,0.79-10.49,2.47l-0.07,0.08c0.68,1.05,1.2,2.22,1.47,3.45c0.19,0.84,0.27,1.71,0.12,2.55
			c-0.49,2.97-4.9,5.15-4.9,5.15c0.99,3.01,1.86,6.05,2.61,9.13h0.01c1.63-1.55,9.04-9.41,10.67-10.95
			c0.48-0.45,0.97-0.92,1.58-1.17c1.43-0.6,3.06,0.1,4.39,0.91c1.33,0.81,2.71,1.77,4.26,1.71c1.77-0.07,3.29-1.59,3.67-3.32
			C119.16,61.69,118.56,59.84,117.49,58.43z"/>
	</g>
	<g class="st10">
		<path class="st5" d="M44.28,52.02c0.03,0.16,0.06,0.32,0.09,0.49c0.04,0.21,0.08,0.42,0.12,0.62c0.05,0.22,0.1,0.43,0.15,0.64
			c0.03,0.14,0.06,0.29,0.1,0.43c0.06,0.24,0.13,0.48,0.2,0.71c0.03,0.11,0.06,0.21,0.09,0.32c0.08,0.26,0.16,0.51,0.25,0.76
			c0.03,0.08,0.05,0.16,0.08,0.23c0.1,0.27,0.2,0.53,0.3,0.79c0.02,0.06,0.04,0.11,0.07,0.17c0.11,0.27,0.23,0.53,0.36,0.79
			c0.02,0.04,0.04,0.08,0.06,0.12c0.13,0.27,0.27,0.54,0.41,0.8c0.01,0.03,0.03,0.05,0.04,0.08c0.15,0.27,0.31,0.53,0.47,0.79
			c0.01,0.02,0.02,0.03,0.03,0.05c0.17,0.26,0.35,0.52,0.53,0.77c0.01,0.01,0.01,0.02,0.02,0.02c0.19,0.25,0.39,0.5,0.59,0.74
			c0,0,0,0,0,0.01c1.04,1.22,2.29,2.25,3.79,3.07c0.25-0.18,0.48-0.38,0.74-0.56c1.5-1.02,3.16-1.8,4.86-2.41l-0.71-0.59
			c-4.73-3.96-7.39-9.86-7.23-16.03v0c0.09-3.66,1.28-7.2,3.4-10.18c2.04-2.87,4.87-5.08,8.14-6.37c5.19-2.05,10.79-2.84,16.34-2.3
			l0.46,0.04c2.89,0.28,5.66,1.33,8.01,3.05l4.58,3.34l-1.3-4.53c-1.45-2.72-4.22-4.56-7.17-5.47c-0.45-0.14-0.91-0.25-1.38-0.36
			c-0.13-0.03-0.27-0.06-0.4-0.08c-0.36-0.07-0.71-0.13-1.07-0.19c-0.12-0.02-0.24-0.04-0.36-0.05c-0.46-0.06-0.93-0.11-1.4-0.14
			c-0.09-0.01-0.17-0.01-0.26-0.01c-0.4-0.03-0.79-0.04-1.19-0.06c-0.14,0-0.28-0.01-0.43-0.01c-0.38-0.01-0.77-0.01-1.15,0
			c-0.09,0-0.19,0-0.28,0c-0.45,0.01-0.9,0.02-1.34,0.04c-6.77,0.24-13.66,1.36-19.6,4.61c-0.23,0.12-0.45,0.25-0.67,0.38
			c-0.2,0.11-0.39,0.23-0.59,0.35c-0.28,0.17-0.54,0.36-0.81,0.54c-0.18,0.12-0.36,0.24-0.53,0.37c-0.28,0.21-0.55,0.45-0.81,0.68
			c-0.14,0.12-0.28,0.23-0.41,0.36c-0.38,0.37-0.75,0.76-1.08,1.19c-1.37,1.78-2.1,3.98-2.69,6.15c-1.3,4.79-2.05,9.79-1.6,14.73
			C44.16,51.27,44.22,51.65,44.28,52.02z"/>
	</g>
	<g>
		<path class="st11" d="M81.52,22.21l0.66,2.71c0.16,0.66,0.9,1,1.51,0.69l2.47-1.26C84.78,23.36,83.17,22.63,81.52,22.21
			C81.53,22.21,81.53,22.21,81.52,22.21z"/>
	</g>
	<g>
		<path class="st11" d="M53.47,30.63l0-4.6c-0.01-0.01-0.01,0-0.02-0.01c-1.98,1.06-3.9,2.37-5.22,4.19c0,0.01,0.01,0.02,0.01,0.03
			c0.27,0.09,2.48,0.83,3.95,1.32C52.82,31.77,53.47,31.29,53.47,30.63z"/>
	</g>
	<circle class="st11" cx="39.07" cy="15.62" r="9.5"/>
	<path class="st12" d="M37.14,13.45c-0.11-0.32-0.27-0.63-0.52-0.86c-0.19-0.18-0.41-0.32-0.65-0.43c-0.15-0.12-0.32-0.22-0.51-0.27
		c-0.57-0.19-1.22-0.05-1.73,0.24c-0.19,0.11-0.37,0.26-0.54,0.4c-0.09,0.08-0.18,0.16-0.26,0.25c-0.2,0.23-0.35,0.45-0.44,0.75
		c-0.09,0.33-0.08,0.58-0.01,0.91c0.03,0.13,0.08,0.25,0.13,0.37c0.08,0.22,0.15,0.45,0.28,0.65c0.25,0.4,0.61,0.69,1.07,0.82
		c0.45,0.12,0.99,0.07,1.43-0.03c0.43-0.09,0.88-0.33,1.18-0.65c0.14-0.15,0.28-0.31,0.37-0.5c0.18-0.37,0.24-0.59,0.28-1
		C37.24,13.88,37.2,13.65,37.14,13.45z"/>
	<circle class="st11" cx="72.83" cy="6.53" r="6.53"/>
	<path class="st12" d="M76.01,3.08c-0.04-0.09-0.06-0.13-0.13-0.22c-0.01-0.01-0.02-0.02-0.02-0.03c-0.04-0.04-0.08-0.07-0.13-0.1
		c-0.12-0.06-0.25-0.09-0.38-0.09c-0.11,0.01-0.22,0.02-0.33,0.04c-0.03,0.01-0.07,0.02-0.1,0.03c-0.06,0.02-0.14,0.05-0.19,0.09
		c-0.05,0.04-0.11,0.08-0.16,0.13c-0.01,0.01-0.02,0.03-0.03,0.05C74.51,3,74.5,3,74.49,3.01c-0.02,0.02-0.03,0.03-0.05,0.05
		c-0.04,0.05-0.08,0.1-0.11,0.15c-0.03,0.05-0.05,0.11-0.08,0.17c-0.01,0.02-0.02,0.05-0.02,0.07c-0.03,0.14-0.03,0.24,0,0.39
		c0,0.02,0.01,0.04,0.02,0.06c0.02,0.06,0.04,0.12,0.08,0.17c0.03,0.05,0.07,0.1,0.12,0.15c0.05,0.04,0.1,0.09,0.16,0.12
		c0.05,0.03,0.12,0.05,0.18,0.07c0.03,0.01,0.05,0.01,0.08,0.02c0.06,0.01,0.13,0.02,0.19,0.02c0.07,0,0.14-0.01,0.2-0.02
		c0.07-0.01,0.13-0.04,0.2-0.06c0.06-0.03,0.12-0.05,0.18-0.1c0.07-0.05,0.14-0.1,0.2-0.17c0.05-0.06,0.11-0.13,0.15-0.21
		c0.04-0.08,0.08-0.16,0.09-0.24c0.02-0.08,0.03-0.17,0.03-0.26C76.07,3.28,76.05,3.19,76.01,3.08z M75.34,3.4
		c0,0.02,0,0.03,0.01,0.05c0,0.01,0,0.02,0,0.03C75.34,3.46,75.34,3.44,75.34,3.4C75.33,3.41,75.34,3.4,75.34,3.4z"/>
	<line class="st13" x1="15.15" y1="37.81" x2="15.76" y2="34.47"/>
	<g>
		<path class="st14" d="M23.21,47.79C23.21,47.79,23.21,47.79,23.21,47.79c0.09-0.75,0.19-1.49,0.3-2.24
			c0.01-0.09,0.03-0.18,0.04-0.28c0.1-0.66,0.2-1.32,0.31-1.98c0.05-0.29,0.1-0.57,0.15-0.86c0.09-0.49,0.17-0.98,0.26-1.48
			c0.15-0.81,0.31-1.62,0.49-2.43c1.22-5.67,2.93-11.13,5.9-16.06l-0.17,0.05c-3.7,0.83-7.35,1.84-10.94,3.05
			c-0.39,0.13-0.78,0.27-1.09,0.54c-0.3,0.26-0.48,0.62-0.66,0.98c-0.99,1.97-1.98,3.93-2.97,5.9c-0.18,0.36-0.37,0.73-0.41,1.13
			c-0.05,0.41,0.05,0.82,0.14,1.22c0.33,1.38,0.66,2.76,0.99,4.13c0.12,0.52,0.25,1.04,0.52,1.5c0.26,0.44,0.65,0.8,1.03,1.15
			c1.83,1.69,4.28,4.01,6.11,5.7L23.21,47.79z"/>
	</g>
	<g>
		<path class="st13" d="M16.22,34.02l3.16-5.57c0.4-0.7,1.1-1.19,1.9-1.32l7.53-1.2c0.56-1.18,1.16-2.34,1.84-3.47l-0.17,0.05
			c-3.7,0.83-7.35,1.84-10.94,3.05c-0.39,0.13-0.78,0.27-1.09,0.54c-0.3,0.26-0.48,0.62-0.66,0.98c-0.99,1.97-1.98,3.93-2.97,5.9
			c-0.18,0.36-0.37,0.73-0.41,1.13c-0.05,0.41,0.05,0.82,0.14,1.22c0.28,1.17,0.56,2.35,0.84,3.52l0.49-3.85
			C15.93,34.65,16.05,34.32,16.22,34.02z"/>
	</g>
	<g>
		<path class="st14" d="M22.61,53.81c-2.52,1.22-5.57,2.74-8.04,4c-0.34,0.17-0.69,0.35-0.92,0.65c-0.24,0.3-0.33,0.68-0.42,1.05
			c-0.67,2.76-1.34,5.52-2.01,8.28c-0.06,0.26-0.13,0.53-0.1,0.79c0.04,0.42,0.29,0.78,0.53,1.12c0.86,1.23,1.74,2.44,2.63,3.65
			c0.54,0.74,1.11,1.49,1.86,2.02c0.44,0.31,0.93,0.54,1.42,0.77c1.45,0.68,3.1,1.42,4.55,2.1l0.09-0.16
			C22.04,69.99,21.99,61.86,22.61,53.81z"/>
	</g>
	<g>
		<path class="st14" d="M47.68,11.61L47.68,11.61c3.18-1.25,6.85-2.27,10.52-2.96c-1.73-1.12-3.98-2.59-5.66-3.67
			c-0.48-0.31-0.96-0.62-1.51-0.78c-0.41-0.12-0.83-0.15-1.25-0.18c-2.78-0.2-5.55-0.39-8.33-0.59c-0.49-0.03-0.99-0.07-1.46,0.08
			l-2.99,2.84l0,0.01c0.67-0.15,1.35-0.23,2.06-0.23C42.88,6.12,46.16,8.37,47.68,11.61z"/>
	</g>
	<g>
		<path class="st13" d="M13.65,58.46c-0.24,0.3-0.33,0.68-0.42,1.05c-0.67,2.76-1.34,5.52-2.01,8.28c-0.06,0.26-0.13,0.53-0.1,0.79
			c0.04,0.42,0.29,0.78,0.53,1.12c0.56,0.79,1.12,1.57,1.69,2.35l-0.46-1.97c-0.18-0.75-0.15-1.54,0.07-2.29l1.87-6.18
			c0.38-1.27,1.31-2.29,2.54-2.8l5.07-2.1c0.06-0.97,0.12-1.95,0.2-2.92c-2.52,1.22-5.57,2.74-8.04,4
			C14.23,57.98,13.88,58.16,13.65,58.46z"/>
	</g>
	<g>
		<path class="st13" d="M52.54,4.97c-0.48-0.31-0.96-0.62-1.51-0.78c-0.41-0.12-0.83-0.15-1.25-0.18c-2.78-0.2-5.55-0.39-8.33-0.59
			c-0.49-0.03-0.99-0.07-1.46,0.08l-1.15,1.09l1.16-0.3c0.44-0.11,0.91-0.14,1.36-0.07l8.38,1.22c0.71,0.1,1.36,0.42,1.88,0.91
			l3.21,3.02l0.02,0.01c1.1-0.27,2.22-0.52,3.34-0.73C56.47,7.53,54.22,6.06,52.54,4.97z"/>
	</g>
	<g>
		<g>
			<path class="st3" d="M66.42,7.69l-0.11,0c-5.98,0.21-13.05,1.74-18.62,3.92l-0.01,0.01c0.49,1.05,0.79,2.19,0.86,3.4
				c5.5-2.16,11.87-3.76,18.78-5.01C66.88,9.31,66.57,8.53,66.42,7.69z"/>
		</g>
		<g>
			<polygon class="st3" points="79.13,8.21 79.14,8.21 79.13,8.21 			"/>
		</g>
	</g>
	<g>
		<path class="st3" d="M38.41,25.46l-0.6-0.42l0,0c-2.62-0.35-4.91-1.76-6.4-3.8l-0.01,0c-3.45,5.24-5.33,11.15-6.65,17.29
			C21.82,52.1,21.96,66.11,22.2,80h7.24c-1.46-16.43,0.07-32.77,4.75-49.04c0.39-1.36,1.4-2.45,2.72-2.96l1.26-0.49
			C39.03,27.16,39.17,25.99,38.41,25.46z"/>
	</g>
</g>
</svg>
