<?xml version="1.0" encoding="utf-8"?>
<!-- Generator: Adobe Illustrator 24.1.2, SVG Export Plug-In . SVG Version: 6.00 Build 0)  -->
<svg version="1.1" id="Layer_1" xmlns="http://www.w3.org/2000/svg" xmlns:xlink="http://www.w3.org/1999/xlink" x="0px" y="0px"
	 viewBox="0 0 130 80" style="enable-background:new 0 0 130 80;" xml:space="preserve">
<style type="text/css">
	.st0{fill:#FFF3E3;}
	.st1{fill:#FFAB3F;}
	.st2{fill:#F8D3A1;}
	.st3{fill:#542414;}
	.st4{fill:#F4C32B;}
	.st5{fill:#F4392B;}
	.st6{fill:#2B9DF4;}
	.st7{fill:#1CCF85;}
	.st8{fill:#F87985;}
	.st9{fill:#E87622;}
	.st10{fill:#FFFFFF;}
</style>
<g>
	<g>
		<path class="st0" d="M107.51,48.24c0.72-2.16-2.34-3.54-3.68-1.3c-2.07-1.95-5.48,1.65-2.93,3.29l-2.16,1.88
			c-1.21-3.85-3.47-9.64-3.47-9.64c1.44-4.71,3.6-11.8,3.91-16.72c0.31-4.92-0.22-9.93-1.96-14.54c-0.07-0.19-0.15-0.38-0.32-0.49
			c-0.19-0.12-0.43-0.1-0.66-0.06c-6.75,0.97-13.75,4.24-18.93,8.67c-4.1-1.64-8.44-2.33-12.96-2.23
			c-2.48-5.96-6.62-11.04-11.9-14.75c-0.17-0.12-0.37-0.25-0.58-0.23c-0.19,0.02-0.34,0.15-0.48,0.28
			c-3.44,3.15-6.02,7.16-7.87,11.44c-1.63,3.8-2.7,7.82-3.48,11.88l-0.28,1.56c-3.06,2.69-6.43,6.76-9.01,10.12
			c-0.14,0.17-0.29,0.36-0.35,0.57c-0.06,0.24-0.01,0.49,0.05,0.72c0.49,1.95,1.38,3.74,2.38,5.43
			c4.41,7.46,11.18,13.19,19.02,16.11c-5.61,3-9.46,7.02-10.76,12.5c0.97-0.02,1.94-0.05,2.91-0.07c0.16,0,0.34,0,0.45,0.12
			c0.14,0.16,0.06,0.4-0.02,0.59c-0.84,1.99-1.26,4.17-1.2,6.33L43.22,80h32.54l0.51-4.52l7.91-3.41c1.35-0.58,2.63-1.32,3.81-2.2
			c6.67-4.98,14.21-10.56,19.38-16.81h0C110.55,53.23,110.78,48.15,107.51,48.24z"/>
	</g>
	<g>
		<path class="st1" d="M96.64,46.06c-0.75-2.04-1.37-3.6-1.37-3.6c1.44-4.71,3.6-11.8,3.91-16.72c0.31-4.92-0.22-9.93-1.96-14.54
			c-0.07-0.19-0.15-0.38-0.32-0.49c-0.19-0.12-0.43-0.1-0.66-0.06c-6.75,0.97-13.75,4.24-18.93,8.67c-4.1-1.64-8.44-2.33-12.96-2.23
			c-2.48-5.96-6.62-11.04-11.9-14.75c-0.17-0.12-0.37-0.25-0.58-0.23c-0.19,0.02-0.34,0.15-0.48,0.28
			c-3.44,3.15-6.02,7.16-7.87,11.44c-1.63,3.8-2.7,7.82-3.48,11.88l-0.28,1.56c-1.27,1.12-2.59,2.48-3.89,3.92
			c8.45,5.33,17.71,6.1,27.87,2.19c1.25-0.48,2.63,0.02,3.33,1.16C72.34,43.19,82.01,47.25,96.64,46.06z"/>
	</g>
	<g>
		<path class="st2" d="M51.86,60.22c-7.84-2.91-14.61-8.65-19.02-16.11c-1-1.69-1.88-3.48-2.38-5.43c-0.06-0.23-0.11-0.48-0.05-0.72
			c0.06-0.22,0.2-0.4,0.35-0.57c0.39-0.51,0.81-1.04,1.23-1.58l0,0l-1.07-3.06c3.6-1.96,0.61-5.86-2.07-3.89
			c-0.02-2.55-4.35-2.05-3.88,0.4c-3.37-0.85-4.69,3.85-1,4.72c2.03,9.17,4.48,17.71,7.92,24.73c0.84,1.71,2.04,3.23,3.51,4.44
			c2.33,1.93,4.81,3.68,7.4,5.25C44.73,65.04,47.84,62.37,51.86,60.22z"/>
	</g>
	<path class="st3" d="M65.7,38.31c-1.17-0.68-2.46-1.07-3.81-1.19c-0.41-0.04-0.58,0.44-0.43,0.75c0.32,0.68,0.65,1.36,0.97,2.04
		c0,0.01,0.01,0.01,0.01,0.02c0.01,0.02,0.01,0.03,0.02,0.05c0.02,0.04,0.05,0.06,0.07,0.09c0,0,0.01,0.01,0.01,0.01
		c0.08,0.08,0.18,0.12,0.29,0.13c0.02,0,0.04,0.01,0.06,0.01c0.02,0,0.03-0.01,0.05-0.01c0.02,0,0.03-0.01,0.04-0.01
		c0.12-0.02,0.24-0.07,0.34-0.11c0.13-0.05,0.25-0.11,0.38-0.16c0.06-0.03,0.12-0.05,0.18-0.08c0.03-0.01,0.06-0.03,0.1-0.04
		c0.01,0,0.01,0,0.01,0c0,0,0,0,0.01,0c0.51-0.22,1.03-0.44,1.57-0.58C66,39.11,66.07,38.52,65.7,38.31z"/>
	<path class="st3" d="M83.98,35.6c-1.29-0.47-2.65-0.78-4.02-0.9c-2.79-0.26-5.61,0.21-8.16,1.35c-0.3,0.13-0.34,0.44-0.23,0.67
		c0.02,0.2,0.16,0.39,0.42,0.41c3.9,0.34,7.81,0.85,11.52,2.17c0.07,0.03,0.13,0.03,0.2,0.03c0.19,0.02,0.38-0.06,0.45-0.31
		c0.22-0.77,0.49-1.54,0.66-2.32C84.96,36.04,84.54,35.81,83.98,35.6z"/>
	<path class="st3" d="M58.86,32.24c-2.22-2.53-5.35-4.17-8.7-4.58c-0.29-0.04-0.46,0.16-0.51,0.38c-0.09,0.1-0.14,0.23-0.13,0.39
		c0.05,0.53,0.1,1.05,0.16,1.58c0.04,0.44,0.12,0.87,0.6,1c0.4,0.11,0.89,0,1.3,0.02c0.47,0.02,0.94,0.08,1.41,0.17
		c1.87,0.35,3.62,1.19,5.33,2c0.38,0.18,0.65-0.17,0.63-0.5C59.01,32.56,59,32.39,58.86,32.24z"/>
	<path class="st4" d="M34.66,16.28C31.22,9.89,25.03,4.53,17.77,3.19c-0.4-0.07-0.68,0.22-0.62,0.62c0.19,1.13,0.38,2.26,0.57,3.39
		c0.14,0.82,0.08,2.09,0.79,2.65c0.6,0.47,1.56,0.63,2.26,0.87c0.93,0.31,1.86,0.63,2.79,0.95c3.65,1.27,7.3,2.76,10.3,5.24
		c0,0,0.01,0,0.01,0.01c0.21,0.22,0.55,0.15,0.72-0.07C34.76,16.69,34.8,16.47,34.66,16.28z"/>
	<path class="st5" d="M25.72,21.42C25.72,21.42,25.72,21.42,25.72,21.42c0.03-0.05,0.04-0.09,0.05-0.14
		c0.01-0.03,0.01-0.06,0.01-0.09c0-0.02,0-0.04,0-0.06c0-0.04-0.01-0.09-0.02-0.13c-0.01-0.02-0.02-0.04-0.02-0.06
		c-0.01-0.03-0.03-0.05-0.05-0.08c-0.03-0.05-0.07-0.08-0.12-0.12c-0.01,0-0.01-0.01-0.01-0.01c-0.01,0-0.01-0.01-0.02-0.01
		c-0.01-0.01-0.02-0.02-0.04-0.02c-2.75-1.71-6.06-2.15-9.25-1.86c-1.7,0.16-3.38,0.5-5.04,0.91c-1.55,0.39-3.08,0.88-4.4,1.79
		c-0.28,0.19-0.32,0.53-0.1,0.79c1.66,1.97,3.32,3.94,4.99,5.92c0.23,0.27,0.61,0.13,0.79-0.1c2.96-3.84,7.89-6.41,12.75-6.48
		c0.09,0.01,0.17-0.01,0.25-0.04c0.03-0.01,0.05-0.03,0.08-0.05c0.01-0.01,0.03-0.02,0.04-0.03C25.66,21.52,25.69,21.47,25.72,21.42
		z"/>
	<path class="st6" d="M123.25,29.72c-0.26-0.34-0.76-0.44-1.15-0.57c-1.99-0.66-4.09-0.99-6.18-1.04c-4.3-0.1-8.6,0.98-12.37,3.03
		c-0.25,0.14-0.28,0.38-0.2,0.59c0,0.02,0.01,0.03,0.02,0.05c0.01,0.01,0.01,0.02,0.02,0.03c0.08,0.18,0.24,0.3,0.46,0.26
		c0,0,0,0,0,0c0.03-0.01,0.05,0,0.09-0.01c5.66-2.07,12.28-1.03,16.98,2.76c0.31,0.25,0.69,0.15,0.84-0.22
		c0.47-1.17,0.94-2.35,1.41-3.52C123.34,30.64,123.59,30.15,123.25,29.72z"/>
	<path class="st4" d="M109.16,39.49c0.01-0.05,0.03-0.1,0.03-0.15c-0.06-0.75-0.18-1.51-0.36-2.24c-0.07-0.28-0.36-0.4-0.62-0.35
		c-0.72,0.14-1.43,0.29-2.15,0.45c-0.09,0.02-0.17,0.08-0.23,0.16c-0.19,0.11-0.31,0.33-0.24,0.56c0.11,0.36,0.22,0.71,0.33,1.06
		c0.06,0.18,0.12,0.35,0.18,0.53c0.07,0.2,0.12,0.46,0.28,0.6c0.23,0.21,0.49,0.18,0.78,0.12c0.18-0.03,0.37-0.07,0.55-0.1
		c0.37-0.07,0.73-0.14,1.1-0.2c0.18-0.03,0.31-0.2,0.35-0.38c0-0.01,0.01-0.02,0.01-0.03C109.16,39.51,109.16,39.5,109.16,39.49z"/>
	<path class="st6" d="M69.39,7.02c0.01-0.07,0.01-0.15-0.01-0.22c-0.34-1.06-0.76-2.1-1.26-3.11c-0.19-0.38-0.65-0.46-1-0.3
		c-0.99,0.44-1.97,0.89-2.94,1.35c-0.13,0.06-0.22,0.18-0.29,0.3c-0.24,0.23-0.34,0.58-0.16,0.88c0.27,0.48,0.55,0.95,0.83,1.42
		c0.14,0.23,0.28,0.47,0.43,0.7c0.16,0.26,0.32,0.62,0.6,0.78c0.4,0.23,0.77,0.09,1.16-0.08c0.25-0.11,0.5-0.22,0.76-0.33
		c0.5-0.22,1.01-0.44,1.51-0.66c0.25-0.11,0.38-0.39,0.38-0.66c0-0.01,0-0.03,0-0.04C69.39,7.05,69.39,7.04,69.39,7.02z"/>
	<path d="M107.14,39.49C107.14,39.49,107.14,39.49,107.14,39.49c0,0,0.01,0.01,0.01,0.01C107.15,39.49,107.15,39.49,107.14,39.49z"
		/>
	<path class="st6" d="M27.53,63.49c-0.04-0.69-0.13-1.39-0.27-2.07c-0.08-0.4-0.58-0.67-0.97-0.55c0,0,0,0-0.01,0
		c-0.1-0.05-0.21-0.08-0.32-0.09c-0.66-0.07-1.32-0.14-1.98-0.2c-0.32-0.03-0.64-0.07-0.96-0.1c-0.41-0.04-0.85-0.15-1.2,0.13
		c-0.3,0.23-0.38,0.55-0.32,0.9c0.02,0.15,0.06,0.31,0.09,0.46c0.06,0.3,0.13,0.59,0.21,0.88c0.16,0.61,0.35,1.21,0.56,1.8
		c0,0,0,0,0,0c-0.01,0.36,0.18,0.74,0.56,0.82c0.69,0.13,1.38,0.24,2.07,0.32c0.32,0.04,0.65,0.07,0.97,0.1
		c0.43,0.03,0.93,0.13,1.27-0.2c0.32-0.31,0.29-0.81,0.3-1.22C27.55,64.14,27.55,63.81,27.53,63.49z"/>
	<path class="st7" d="M119.54,58.06c-0.15-0.59-0.29-1.18-0.44-1.77c-0.15-0.62-0.24-1.61-1.1-1.56c-0.3,0.01-0.6,0.12-0.88,0.21
		c-0.27,0.08-0.53,0.16-0.8,0.25c-0.58,0.2-1.15,0.44-1.71,0.7c-0.19,0.09-0.3,0.3-0.32,0.51c-0.07,0.18-0.07,0.39,0.04,0.58
		c0.24,0.44,0.47,0.88,0.71,1.32c0.11,0.21,0.23,0.42,0.34,0.63c0.13,0.24,0.24,0.5,0.46,0.67c0.47,0.37,1.15,0.05,1.65-0.09
		c0.48-0.13,0.96-0.27,1.44-0.4c0.2-0.06,0.36-0.22,0.44-0.41C119.52,58.53,119.6,58.3,119.54,58.06z"/>
	<circle class="st4" cx="13.29" cy="47.81" r="4.07"/>
	<circle class="st7" cx="20.39" cy="53.9" r="1.4"/>
	<circle class="st5" cx="115.84" cy="43.86" r="1.4"/>
	<circle class="st5" cx="35.88" cy="5.12" r="2.27"/>
	<circle class="st5" cx="107.52" cy="16.55" r="2.39"/>
	<circle class="st7" cx="81.25" cy="15.34" r="1.95"/>
	<circle class="st4" cx="106.71" cy="62.46" r="2.69"/>
	<path class="st3" d="M69.7,44.17c-0.25-0.15-0.52-0.04-0.68,0.18c-0.91,1.23-2.63,1.63-4.01,0.99c-1.43-0.67-2.24-2.24-2-3.79
		c0.01-0.07,0.01-0.14,0-0.21c0.07-0.54-0.78-0.74-0.98-0.17c-0.46,1.37-1.92,2.13-3.29,2.18c-0.73,0.03-1.55-0.09-2.15-0.53
		c-0.54-0.39-0.83-1.11-0.42-1.7c0.37-0.53-0.5-1.03-0.86-0.5c-0.55,0.79-0.36,1.85,0.23,2.56c-0.69,1.48-1.03,3.14-1.08,4.75
		c-0.05,1.82,0.38,3.7,1.77,4.96c2.81,2.55,7.48,1.96,9.55-1.21c0.56-0.86,0.91-1.85,1.29-2.8c0.34-0.86,0.66-1.73,0.97-2.6
		c0.72-0.3,1.36-0.78,1.86-1.44C70.04,44.64,69.91,44.3,69.7,44.17z"/>
	<path class="st3" d="M93.39,19.97c-0.09-0.26-0.32-0.36-0.54-0.33c-0.07-0.02-0.15-0.02-0.24,0.01c-3.06,0.81-6.18,1.88-8.47,4.16
		c-0.13,0.13-0.16,0.28-0.13,0.41c0.01,0.14,0.07,0.28,0.24,0.37c3.1,1.77,5.73,4.77,7.02,8.1c0.03,0.06,0.06,0.12,0.11,0.17
		c0.03,0.03,0.06,0.04,0.08,0.07c0.03,0.02,0.05,0.04,0.08,0.06c0.01,0,0.01,0,0.02,0.01c0.12,0.05,0.27,0.06,0.41,0
		c0.1-0.04,0.19-0.1,0.24-0.18c1.54-1.4,1.9-3.77,2.07-5.74C94.48,24.67,94.16,22.24,93.39,19.97z"/>
	<path class="st3" d="M54.19,17.28c-0.05-1.44-0.72-2.78-1.31-4.06c-0.63-1.36-1.32-2.69-2.08-3.98c-0.13-0.21-0.33-0.27-0.52-0.23
		c-0.16,0-0.32,0.05-0.43,0.22c-2.48,3.59-3.92,7.81-4.18,12.16c-0.02,0.41,0.36,0.55,0.66,0.45
		C47.35,21.41,54.17,18.48,54.19,17.28z"/>
	<path class="st8" d="M64.9,51.19c0.05-0.08,0.09-0.16,0.14-0.24c-2.84-1.95-6.05-3.04-9.59-3.38c-0.03,0.53-0.03,1.06,0.02,1.58
		c0.24,2.25,1.8,3.87,4.02,4.29C61.56,53.81,63.74,52.95,64.9,51.19z"/>
	<path class="st2" d="M98.74,52.1l0.24,1.09c0.07,0.36,0.2,0.73,0.21,1.07c0.01,0.32-0.25,0.55-0.53,0.8
		c-0.27,0.25-0.55,0.49-0.83,0.72c-1.13,0.93-2.38,1.71-3.67,2.42c-2.59,1.39-5.29,2.6-8.09,3.48c-2.79,0.91-5.67,1.54-8.59,1.93
		c-1.46,0.2-2.93,0.32-4.41,0.36c-1.48,0.09-2.96,0.02-4.45-0.01c2.93,0.52,5.95,0.66,8.94,0.42c3-0.21,5.96-0.83,8.82-1.74
		c2.86-0.93,5.61-2.19,8.17-3.77c1.27-0.8,2.51-1.67,3.61-2.71c0.27-0.26,0.53-0.54,0.78-0.82c0.23-0.26,0.58-0.62,0.52-1.08
		C99.29,53.47,98.98,52.82,98.74,52.1z"/>
	<g>
		<path class="st2" d="M63.45,35.65c0.21-0.02,0.42-0.02,0.64,0c0.03,0,0.05,0.01,0.08,0.01c-0.07-0.01-0.07-0.01-0.01,0
			c0.04,0.01,0.08,0.01,0.12,0.02c0.1,0.02,0.21,0.04,0.31,0.07c0.1,0.03,0.2,0.07,0.3,0.1c0.12,0.05-0.09-0.04,0.03,0.01
			c0.05,0.02,0.1,0.04,0.14,0.07c0.1,0.05,0.19,0.1,0.28,0.16c0.05,0.03,0.09,0.06,0.13,0.09c0.02,0.01,0.16,0.12,0.06,0.04
			c0.11,0.09,0.21,0.15,0.35,0.15c0.12,0,0.27-0.05,0.35-0.15c0.16-0.18,0.22-0.54,0-0.71c-0.79-0.62-1.77-0.95-2.78-0.86
			c-0.26,0.02-0.51,0.21-0.5,0.5C62.96,35.4,63.17,35.68,63.45,35.65L63.45,35.65z"/>
	</g>
	<g>
		<path class="st9" d="M71.38,34.56c0.53-0.22,1.06-0.44,1.59-0.65c0.13-0.05,0.23-0.11,0.3-0.23c0.06-0.11,0.09-0.27,0.05-0.39
			c-0.04-0.12-0.11-0.24-0.23-0.3c-0.11-0.06-0.26-0.1-0.39-0.05c-0.53,0.22-1.06,0.43-1.59,0.65c-0.13,0.05-0.23,0.11-0.3,0.23
			c-0.06,0.11-0.09,0.27-0.05,0.39c0.04,0.12,0.11,0.24,0.23,0.3C71.11,34.57,71.26,34.61,71.38,34.56L71.38,34.56z"/>
	</g>
	<g>
		<path class="st9" d="M58.64,30.4c0.22,0.35,0.45,0.71,0.67,1.06c0.07,0.11,0.17,0.2,0.3,0.23c0.12,0.03,0.28,0.02,0.39-0.05
			c0.11-0.07,0.2-0.17,0.23-0.3c0.03-0.13,0.02-0.27-0.05-0.39c-0.22-0.35-0.45-0.71-0.67-1.06c-0.07-0.11-0.17-0.2-0.3-0.23
			c-0.12-0.03-0.28-0.02-0.39,0.05c-0.11,0.07-0.2,0.17-0.23,0.3C58.56,30.15,58.57,30.29,58.64,30.4L58.64,30.4z"/>
	</g>
	<g>
		<path class="st9" d="M71.29,38.68c0.38,0.08,0.75,0.19,1.12,0.31c0.25,0.08,0.56-0.09,0.62-0.35c0.06-0.27-0.08-0.53-0.35-0.62
			c-0.37-0.12-0.74-0.22-1.12-0.31c-0.13-0.03-0.27-0.02-0.39,0.05c-0.1,0.06-0.2,0.18-0.23,0.3c-0.03,0.13-0.02,0.27,0.05,0.39
			C71.06,38.56,71.17,38.65,71.29,38.68L71.29,38.68z"/>
	</g>
	<g>
		<path class="st9" d="M57.9,33.59c-0.31-0.1-0.61-0.2-0.92-0.3c-0.12-0.04-0.28-0.01-0.39,0.05c-0.1,0.06-0.2,0.18-0.23,0.3
			c-0.03,0.13-0.02,0.27,0.05,0.39c0.07,0.11,0.17,0.19,0.3,0.23c0.31,0.1,0.61,0.2,0.92,0.3c0.12,0.04,0.28,0.01,0.39-0.05
			c0.1-0.06,0.2-0.18,0.23-0.3c0.03-0.13,0.02-0.27-0.05-0.39C58.12,33.71,58.02,33.63,57.9,33.59L57.9,33.59z"/>
	</g>
	<g>
		<path class="st9" d="M64.35,17.09c-2.48-5.96-6.62-11.04-11.9-14.75c-0.17-0.12-0.37-0.25-0.58-0.23
			c4.79,5.48,8.27,10.7,9.8,15.53C62.52,17.34,63.4,17.11,64.35,17.09z"/>
	</g>
	<g>
		<path class="st9" d="M96.25,10.64c-6.75,0.97-13.75,4.24-18.93,8.67c0.83,0.41,1.55,0.88,2.16,1.42
			c4.96-3.58,10.81-6.91,17.43-10.03C96.71,10.59,96.47,10.61,96.25,10.64z"/>
	</g>
	<path class="st10" d="M56.59,43.67l0.67,1.53c0.04,0.1,0.17,0.12,0.25,0.05l1.38-1.29C58.03,44.08,57.25,44.01,56.59,43.67z"/>
	<g>
		<g>
			<path class="st3" d="M78.17,47.93c0.81-0.18,1.62-0.35,2.43-0.53c0.26-0.06,0.43-0.37,0.35-0.62c-0.09-0.27-0.34-0.41-0.62-0.35
				c-0.81,0.18-1.62,0.35-2.43,0.53c-0.26,0.06-0.43,0.37-0.35,0.62C77.64,47.85,77.89,47.99,78.17,47.93L78.17,47.93z"/>
		</g>
		<g>
			<path class="st3" d="M76.58,53.21c0.49,0.5,0.96,1.02,1.41,1.56c0.08,0.09,0.24,0.15,0.35,0.15c0.12,0,0.27-0.05,0.35-0.15
				c0.09-0.1,0.15-0.22,0.15-0.35c-0.01-0.14-0.06-0.25-0.15-0.35c-0.45-0.54-0.92-1.06-1.41-1.56c-0.18-0.19-0.53-0.2-0.71,0
				C76.4,52.71,76.39,53.01,76.58,53.21L76.58,53.21z"/>
		</g>
		<g>
			<path class="st3" d="M44.74,37.28c0.48,0.58,0.96,1.15,1.44,1.73c0.08,0.09,0.24,0.15,0.35,0.15c0.12,0,0.27-0.05,0.35-0.15
				c0.2-0.21,0.18-0.49,0-0.71c-0.48-0.58-0.96-1.15-1.44-1.73c-0.08-0.09-0.24-0.15-0.35-0.15c-0.12,0-0.27,0.05-0.35,0.15
				C44.55,36.79,44.56,37.07,44.74,37.28L44.74,37.28z"/>
		</g>
		<g>
			<path class="st3" d="M43.71,44.09c0.41-0.09,0.83-0.17,1.24-0.22c-0.04,0.01-0.09,0.01-0.13,0.02c0.11-0.01,0.22-0.03,0.34-0.04
				c0.14-0.02,0.25-0.05,0.35-0.15c0.09-0.09,0.15-0.23,0.15-0.35c-0.01-0.13-0.05-0.26-0.15-0.35c-0.09-0.08-0.22-0.16-0.35-0.15
				c-0.58,0.06-1.15,0.15-1.71,0.28c-0.26,0.06-0.43,0.37-0.35,0.62C43.18,44,43.43,44.15,43.71,44.09L43.71,44.09z"/>
		</g>
	</g>
	<g>
		<path class="st8" d="M24.41,30.54c-0.21-0.04-0.42-0.06-0.63,0c-0.23,0.06-0.43,0.21-0.55,0.41c-0.13,0.22-0.04,0.74-0.04,0.75
			c0.01,0.12,0.04,0.27,0.15,0.35c0.08,0.06,0.15,0.12,0.24,0.16c0.09,0.04,0.18,0.08,0.28,0.1c0.21,0.04,0.39,0.04,0.6-0.01
			c0.41-0.09,0.8-0.42,0.77-0.88c-0.02-0.23-0.11-0.46-0.29-0.62C24.79,30.67,24.61,30.58,24.41,30.54z"/>
		<path class="st8" d="M26.35,30.69c0.21,0.2,0.51,0.28,0.79,0.19c0.25-0.08,0.46-0.25,0.6-0.48c0.11-0.19,0.16-0.4,0.18-0.62
			c0.01-0.18-0.02-0.37-0.07-0.55c-0.06-0.2-0.17-0.41-0.33-0.55c-0.18-0.16-0.42-0.27-0.67-0.25c-0.29,0.02-0.53,0.16-0.69,0.4
			c-0.13,0.2-0.18,0.45-0.2,0.69c-0.02,0.23,0,0.46,0.04,0.68C26.04,30.32,26.29,30.63,26.35,30.69z"/>
		<path class="st8" d="M31.35,30.22c-0.02-0.11-0.09-0.23-0.17-0.31c-0.09-0.09-0.2-0.14-0.32-0.19c-0.26-0.11-0.59-0.1-0.85-0.02
			c-0.32,0.1-0.57,0.29-0.76,0.57c-0.01,0.02-0.11,0.12-0.14,0.16c-0.22,0.28-0.26,0.66-0.09,0.98c0.09,0.18,0.26,0.3,0.44,0.36
			c0.19,0.06,0.38,0.03,0.57,0c0.26-0.04,0.51-0.11,0.74-0.24c0.28-0.16,0.53-0.42,0.58-0.75C31.39,30.6,31.38,30.41,31.35,30.22z"
			/>
		<path class="st8" d="M27.91,31.61c-0.51-0.14-1.04-0.01-1.45,0.31c-0.49,0.39-0.56,1.04-0.58,1.62c0,0.07,0.05,0.25,0.06,0.27
			c0.09,0.27,0.34,0.4,0.62,0.35c0.54-0.11,1.08-0.21,1.62-0.32c0.14-0.03,0.27-0.05,0.41-0.08c0.17-0.03,0.34-0.06,0.47-0.19
			c0.28-0.29,0.13-0.72-0.03-1.03C28.82,32.1,28.4,31.73,27.91,31.61z"/>
	</g>
	<g>
		<path class="st8" d="M102.82,47.82c-0.15-0.15-0.32-0.28-0.52-0.35c-0.22-0.08-0.47-0.06-0.68,0.04c-0.22,0.11-0.44,0.59-0.45,0.6
			c-0.06,0.11-0.11,0.25-0.07,0.38c0.03,0.1,0.06,0.19,0.11,0.27c0.05,0.08,0.11,0.17,0.18,0.24c0.15,0.15,0.31,0.25,0.5,0.33
			c0.39,0.16,0.9,0.09,1.13-0.3c0.11-0.2,0.17-0.45,0.1-0.68C103.07,48.14,102.97,47.96,102.82,47.82z"/>
		<path class="st8" d="M104.36,49.03c0.07,0.28,0.27,0.52,0.55,0.6c0.25,0.07,0.53,0.05,0.76-0.06c0.2-0.09,0.36-0.24,0.49-0.42
			c0.11-0.14,0.2-0.32,0.25-0.49c0.06-0.2,0.09-0.43,0.03-0.64c-0.06-0.23-0.2-0.46-0.41-0.58c-0.25-0.15-0.53-0.16-0.8-0.05
			c-0.22,0.09-0.4,0.28-0.55,0.46c-0.15,0.18-0.26,0.38-0.34,0.59C104.3,48.54,104.34,48.94,104.36,49.03z"/>
		<path class="st8" d="M108.79,50.93c0.04-0.11,0.04-0.24,0.01-0.36c-0.03-0.13-0.1-0.22-0.18-0.32c-0.17-0.22-0.46-0.38-0.73-0.44
			c-0.32-0.07-0.64-0.03-0.94,0.12c-0.02,0.01-0.15,0.05-0.2,0.07c-0.33,0.14-0.55,0.45-0.57,0.81c-0.01,0.2,0.07,0.39,0.21,0.54
			c0.13,0.15,0.31,0.22,0.49,0.28c0.24,0.09,0.5,0.16,0.76,0.16c0.32,0,0.67-0.11,0.88-0.36C108.64,51.28,108.73,51.12,108.79,50.93
			z"/>
		<path class="st8" d="M105.17,50.67c-0.34-0.4-0.85-0.61-1.37-0.57c-0.63,0.04-1.06,0.53-1.4,1c-0.04,0.06-0.1,0.24-0.11,0.26
			c-0.08,0.28,0.05,0.52,0.3,0.64c0.5,0.22,1.01,0.45,1.51,0.67c0.13,0.06,0.25,0.11,0.38,0.17c0.16,0.07,0.31,0.15,0.5,0.11
			c0.4-0.08,0.51-0.51,0.57-0.86C105.62,51.6,105.49,51.05,105.17,50.67z"/>
	</g>
</g>
</svg>
