<?xml version="1.0" encoding="utf-8"?>
<!-- Generator: Adobe Illustrator 24.1.2, SVG Export Plug-In . SVG Version: 6.00 Build 0)  -->
<svg version="1.1" id="Layer_1" xmlns="http://www.w3.org/2000/svg" xmlns:xlink="http://www.w3.org/1999/xlink" x="0px" y="0px"
	 viewBox="0 0 130 80" style="enable-background:new 0 0 130 80;" xml:space="preserve">
<style type="text/css">
	.st0{fill:#DCDFE2;}
	.st1{fill:#A3ABB8;}
	.st2{fill:#E44D39;}
	.st3{fill:#FFFFFF;}
	.st4{fill:#B73329;}
	.st5{fill:#515A69;}
	.st6{fill:#F9EBCF;}
	.st7{fill:#E2AB86;}
	.st8{fill:#C43333;}
	.st9{fill:none;stroke:#191919;stroke-miterlimit:10;}
	.st10{clip-path:url(#SVGID_2_);}
	.st11{fill:#73C04D;}
	.st12{fill:#A1EC7C;}
	.st13{clip-path:url(#SVGID_4_);}
	.st14{fill:#1852D3;}
	.st15{fill:#2789FF;}
	.st16{fill:#AA271D;}
	.st17{fill:#6BE8E8;}
	.st18{fill:#30CEBF;}
</style>
<g>
	<g>
		<path class="st0" d="M68.2,68.69c-2.23-1.48-4.73-2.69-7.39-2.92l-0.45-1.79c2.38-0.64,6.14-2.25,9.16-3.67l-5.35-16.48
			c-0.34-1.06,0.24-2.19,1.29-2.53l14.05-4.56c0.37-0.12,0.74-0.12,1.09-0.04c0.32-0.27,0.72-0.45,1.16-0.48l2.32-0.16l0.03-0.75
			c-0.82-1.85-1.9-3.62-3.3-5.3C80.25,19.29,76.17,8.79,69.34,0.51c-0.15-0.19-0.32-0.38-0.56-0.44c-0.26-0.06-0.53,0.06-0.77,0.19
			C62.38,3.24,57.09,7.1,52.84,11.84c-4.39-0.22-8.51,0.16-12.13,1.59c-5.5-3.63-11.88-6.47-18.34-7.77
			c-2.75,8.69-2.92,17.22-0.92,25.7c-3.61,4.9-5.38,11.64-5.51,17.73c6.93,12.48,19,16.58,33.46,16.27l0.39,2.01
			c-2.62,0.94-5.03,2.27-7.33,3.85L42.39,80h35.67C75.97,75.39,72.43,71.49,68.2,68.69z"/>
	</g>
	<g>
		<path class="st1" d="M32.97,35.34c1.15-0.89,2.16-1.95,3.06-3.09c4.26-5.33,6.3-12.37,5.63-19.15c-0.32,0.11-0.64,0.21-0.96,0.34
			c-5.5-3.63-11.88-6.47-18.34-7.77c-2.75,8.69-2.92,17.22-0.92,25.7c-1.58,2.15-2.79,4.66-3.68,7.3
			C23.09,39.16,28.76,38.59,32.97,35.34z"/>
	</g>
	<g>
		<path class="st1" d="M79.5,36.73c0.37-0.12,0.74-0.12,1.09-0.04c0.32-0.27,0.72-0.45,1.16-0.48l2.32-0.16l0.03-0.75
			c-0.82-1.85-1.9-3.62-3.3-5.3C80.25,19.29,76.17,8.79,69.34,0.51c-0.15-0.19-0.32-0.38-0.56-0.44c-0.26-0.06-0.53,0.06-0.77,0.19
			C62.38,3.24,57.09,7.1,52.84,11.84c-1.15-0.06-2.28-0.07-3.39-0.04c-0.84,2.11-1.05,4.48-1.08,6.77
			c-0.06,5.91,1.08,12.19,5.11,16.52c3.11,3.34,7.51,5.08,11.98,6.2L79.5,36.73z"/>
	</g>
	<path class="st2" d="M24.47,80h17.92l0.1-14.28v-0.09c-1.4,1.96-5.23,3.6-9.86,3.98c-4.62,0.39-8.66-0.58-10.37-2.27v0.07
		l0.76,4.31L24.47,80z"/>
	<path class="st3" d="M42.47,69.63c-0.12,0-0.24-0.02-0.36-0.01c-2.52,0.21-4.39,2.45-4.18,5c0.2,2.38,2.16,4.17,4.47,4.22
		L42.47,69.63z"/>
	<path class="st4" d="M24.47,80h2.44l-1.4-10.98c-1.4-0.41-2.54-0.98-3.26-1.69v0.07l0.76,4.31L24.47,80z"/>
	<path class="st2" d="M37.32,43.7c0.72,0.47,1.46,0.92,2.22,1.34c0.2,0.11,0.45,0.04,0.6-0.12c0.65-0.66,1.31-1.31,1.96-1.97
		c0.14-0.14,0.15-0.38,0.07-0.55c-0.09-0.2-0.27-0.27-0.48-0.28c-1.43-0.07-2.88,0.14-4.24,0.6c-0.09,0.03-0.15,0.08-0.2,0.13
		c-0.07,0.05-0.13,0.11-0.16,0.17C36.96,43.29,37.09,43.56,37.32,43.7z"/>
	<circle class="st3" cx="50.54" cy="33.76" r="5.57"/>
	
		<ellipse transform="matrix(0.9267 -0.3758 0.3758 0.9267 -11.4094 14.1145)" class="st3" cx="30.48" cy="36.31" rx="4.87" ry="5.25"/>
	<g>
		<g>
			<g>
				<g>
					<path class="st5" d="M55.28,42.09c-0.95,0.03-1.73,0.17-2.61,0.46c-0.25,0.08-0.56-0.05-0.64-0.31
						c-0.08-0.26,0.04-0.55,0.31-0.64c0.93-0.3,1.9-0.48,2.87-0.51c0.26-0.01,0.53,0.19,0.53,0.47
						C55.75,41.82,55.56,42.08,55.28,42.09L55.28,42.09z"/>
				</g>
			</g>
			<g>
				<g>
					<path class="st5" d="M54.55,47.08c-0.17-0.08-0.34-0.15-0.52-0.21c-0.12-0.04,0.1,0.03-0.02-0.01
						c-0.05-0.02-0.09-0.03-0.14-0.05c-0.08-0.03-0.17-0.05-0.25-0.07c-0.35-0.09-0.71-0.15-1.06-0.18
						c-0.12-0.01-0.25-0.12-0.31-0.21c-0.07-0.1-0.11-0.26-0.08-0.38c0.03-0.12,0.1-0.24,0.21-0.31c0.12-0.08,0.24-0.09,0.38-0.08
						c0.77,0.06,1.53,0.27,2.24,0.6c0.24,0.11,0.35,0.44,0.22,0.67C55.09,47.1,54.81,47.2,54.55,47.08L54.55,47.08z"/>
				</g>
			</g>
			<g>
				<g>
					<path class="st5" d="M30.19,44.93c-0.89,0.04-1.78,0.08-2.67,0.13c-0.26,0.01-0.53-0.19-0.53-0.47
						c-0.01-0.27,0.19-0.52,0.47-0.53c0.89-0.04,1.78-0.08,2.67-0.13c0.26-0.01,0.53,0.19,0.53,0.47
						C30.66,44.67,30.47,44.92,30.19,44.93L30.19,44.93z"/>
				</g>
			</g>
			<g>
				<g>
					<path class="st5" d="M30.4,48.13c-0.16,0.12-0.32,0.24-0.48,0.36c-0.08,0.06-0.15,0.12-0.23,0.18
						c-0.04,0.03-0.08,0.07-0.12,0.1c-0.01,0.01-0.07,0.06-0.02,0.01c0.06-0.05-0.02,0.02-0.03,0.03c-0.3,0.27-0.58,0.55-0.84,0.85
						c-0.17,0.2-0.51,0.23-0.71,0.05c-0.2-0.19-0.23-0.5-0.05-0.71c0.56-0.64,1.21-1.22,1.91-1.71c0.21-0.15,0.56-0.09,0.69,0.13
						C30.67,47.67,30.62,47.97,30.4,48.13L30.4,48.13z"/>
				</g>
			</g>
		</g>
	</g>
	<g>
		<g>
			<path class="st1" d="M40.73,39.28c-0.44-0.06-0.91-0.06-1.4,0.02c-0.13,0.02-0.13,0.02-0.27,0.05c-0.12,0.03-0.24,0.06-0.36,0.1
				c-0.12,0.04-0.24,0.08-0.36,0.13c-0.05,0.02-0.1,0.04-0.15,0.06c-0.03,0.01-0.07,0.03-0.1,0.05c0.03-0.02,0.03-0.01-0.03,0.01
				c-0.23,0.12-0.54,0.11-0.69-0.13c-0.13-0.21-0.11-0.57,0.13-0.69c1.06-0.55,2.24-0.76,3.43-0.58c0.26,0.04,0.45,0.34,0.39,0.59
				C41.25,39.17,41,39.32,40.73,39.28L40.73,39.28z"/>
		</g>
	</g>
	<path class="st5" d="M44.44,48.5c-0.78-0.02-1.61-0.03-2.34-0.34c-0.76-0.32-1.23-1.01-1.68-1.67c-0.15-0.22-0.44-0.33-0.68-0.18
		c-0.11,0.06-0.2,0.18-0.23,0.31c-0.01,0.02-0.02,0.03-0.02,0.05c-0.15,0.72-0.55,1.39-1.15,1.82c-0.65,0.46-1.47,0.65-2.26,0.49
		c-0.26-0.05-0.54,0.07-0.62,0.35c-0.07,0.24,0.08,0.56,0.35,0.62c1.04,0.21,2.15,0.02,3.03-0.59c0.08-0.05,0.14-0.12,0.22-0.18
		c0.32,0.18,0.69,0.24,1.06,0.2c0.47-0.05,0.92-0.16,1.29-0.47c0.07,0.04,0.13,0.09,0.2,0.12c0.89,0.41,1.88,0.46,2.85,0.48
		C45.08,49.52,45.09,48.52,44.44,48.5z"/>
	
		<ellipse transform="matrix(0.9965 -0.0834 0.0834 0.9965 -5.1251 2.894)" class="st6" cx="32.06" cy="62.76" rx="10.88" ry="4.88"/>
	<g>
		<path class="st7" d="M23.47,64.59c0.13,0.17,0.3,0.3,0.48,0.42c0.07,0.05,0.15,0.09,0.22,0.12c0.12,0.05,0.24,0.1,0.36,0.13
			c0.13,0.03,0.27,0.02,0.39-0.05c0.1-0.06,0.2-0.18,0.23-0.3c0.03-0.13,0.02-0.27-0.05-0.39c-0.07-0.11-0.17-0.2-0.3-0.23
			c-0.07-0.02-0.15-0.04-0.22-0.07c0.04,0.02,0.08,0.03,0.12,0.05c-0.13-0.05-0.25-0.12-0.36-0.21c0.03,0.03,0.07,0.05,0.1,0.08
			c-0.1-0.08-0.19-0.17-0.27-0.26c-0.05-0.05-0.1-0.08-0.16-0.1c-0.06-0.03-0.12-0.05-0.19-0.04c-0.12,0-0.27,0.05-0.35,0.15
			c-0.09,0.1-0.15,0.22-0.15,0.35c0.01,0.04,0.01,0.09,0.02,0.13C23.37,64.45,23.41,64.53,23.47,64.59L23.47,64.59z"/>
	</g>
	<g>
		<g>
			<path class="st8" d="M32.36,62.24c0.33-1.6,0.73-3.19,1.22-4.75c0.22-0.7,0.56-1.41,0.7-2.13c0.05-0.26,0.04-0.53-0.07-0.78
				c-0.09-0.2-0.3-0.28-0.4-0.44c0,0.17,0,0.34,0,0.5c0.03-0.04,0.74-0.23,0.84-0.27c0.33-0.12,0.52-0.56,0.22-0.84
				c-0.26-0.24-0.52-0.47-0.78-0.71c-0.03,0.26-0.07,0.52-0.1,0.79c0.29-0.17,0.57-0.29,0.9-0.38c0.39-0.1,0.46-0.56,0.22-0.84
				c-0.2-0.23-0.4-0.44-0.63-0.64c0,0.24,0,0.47,0,0.71c0.37-0.37,0.54-0.76,0.67-1.26c0.1-0.38,0.24-0.37,0.6-0.48
				c0.31-0.1,0.63-0.19,0.94-0.3c1.13-0.37,2.25-0.78,3.38-1.12c0.61-0.18,0.35-1.15-0.27-0.96c-1.24,0.37-2.45,0.82-3.68,1.22
				c-0.5,0.16-1.2,0.25-1.59,0.65c-0.43,0.44-0.32,1.11-0.76,1.56c-0.18,0.18-0.2,0.53,0,0.71c0.23,0.2,0.44,0.41,0.63,0.64
				c0.07-0.28,0.15-0.56,0.22-0.84c-0.41,0.11-0.78,0.27-1.14,0.48c-0.26,0.16-0.34,0.57-0.1,0.79c0.26,0.24,0.52,0.47,0.78,0.71
				c0.07-0.28,0.15-0.56,0.22-0.84c-0.47,0.17-1.16,0.28-1.44,0.73c-0.1,0.15-0.09,0.35,0,0.5c0.12,0.21,0.33,0.3,0.34,0.52
				c0.01,0.25-0.2,0.61-0.28,0.84c-0.23,0.66-0.44,1.33-0.64,2c-0.39,1.31-0.71,2.63-0.99,3.97C31.27,62.6,32.23,62.87,32.36,62.24
				L32.36,62.24z"/>
		</g>
	</g>
	<path class="st9" d="M72.47,58.55"/>
	<g>
		<defs>
			<circle id="SVGID_1_" cx="50.54" cy="33.76" r="5.57"/>
		</defs>
		<clipPath id="SVGID_2_">
			<use xlink:href="#SVGID_1_"  style="overflow:visible;"/>
		</clipPath>
		<g class="st10">
			<path class="st11" d="M48.6,33.58c0.51,0.36,1.18,0.5,1.88,0.28c0.69-0.23,1.23-0.83,1.39-1.54c0.15-0.69-0.04-1.31-0.41-1.78
				c-0.07-0.08-0.02-0.21,0.09-0.24c0.65-0.14,1.37-0.14,2.13,0.1c1.44,0.45,2.57,1.64,2.89,3.11c0.3,1.36-0.08,2.66-0.88,3.62
				c-0.98,1.04-2.51,1.54-4.02,1.33C49.33,37.98,48.02,35.28,48.6,33.58z"/>
			<g>
				<path class="st12" d="M53.74,37.57c0.55-0.22,1.04-0.56,1.43-1c0.28-0.32,0.25-0.8-0.06-1.08s-0.8-0.25-1.08,0.06
					c-0.43,0.49-1.08,0.78-1.74,0.77c-0.42,0-0.77,0.34-0.77,0.77c0,0.42,0.34,0.77,0.77,0.77C52.78,37.86,53.28,37.76,53.74,37.57z
					"/>
			</g>
		</g>
	</g>
	<g>
		<defs>
			
				<ellipse id="SVGID_3_" transform="matrix(0.9267 -0.3758 0.3758 0.9267 -11.4094 14.1145)" cx="30.48" cy="36.31" rx="4.87" ry="5.25"/>
		</defs>
		<clipPath id="SVGID_4_">
			<use xlink:href="#SVGID_3_"  style="overflow:visible;"/>
		</clipPath>
		<g class="st13">
			<path class="st11" d="M28.71,35.83c0.46,0.35,1.06,0.5,1.67,0.3c0.61-0.2,1.07-0.74,1.19-1.4c0.11-0.64-0.07-1.23-0.41-1.67
				c-0.06-0.08-0.02-0.2,0.07-0.22c0.58-0.12,1.21-0.09,1.88,0.14c1.28,0.45,2.31,1.59,2.63,2.97c0.29,1.27-0.01,2.48-0.69,3.35
				c-0.84,0.95-2.18,1.37-3.53,1.14C29.25,39.9,28.18,37.35,28.71,35.83z"/>
			<g>
				<path class="st12" d="M33.35,39.67c0.48-0.19,0.91-0.5,1.24-0.9c0.24-0.29,0.21-0.74-0.08-1.01s-0.72-0.26-0.96,0.03
					c-0.37,0.44-0.94,0.7-1.52,0.68c-0.37-0.01-0.67,0.3-0.66,0.7c0.01,0.4,0.32,0.73,0.69,0.74
					C32.51,39.91,32.94,39.83,33.35,39.67z"/>
			</g>
		</g>
	</g>
	<path class="st7" d="M42.9,61.85c0.22,2.68-4.45,5.27-10.43,5.77c-5.99,0.5-11.02-1.27-11.25-3.95l0.17,1.99
		c0.22,2.68,5.26,4.45,11.25,3.95c5.99-0.5,10.66-3.08,10.43-5.77L42.9,61.85z"/>
	<g>
		<g>
			<path class="st14" d="M105.66,64.14L91.45,60.1c-1.07-0.3-1.69-1.42-1.39-2.48l5.84-20.57c0.3-1.07,1.42-1.69,2.48-1.39
				l14.21,4.03c1.07,0.3,1.69,1.42,1.39,2.48l-5.84,20.57C107.84,63.82,106.73,64.44,105.66,64.14z"/>
			<polygon class="st15" points="110.65,50.55 110.11,47.85 111.48,45.45 110.52,43.63 112.09,41.51 110.19,40.7 108.85,40.25 
				106.44,40.15 104.13,38.29 100.72,38.08 99.66,37.36 99.07,38.22 97.97,37.5 96.91,39.32 96.83,41.19 95.6,42.24 95.97,43.83 
				94.83,46.75 94.91,50.24 93.4,51.8 93.7,54.14 92.41,55.28 92.85,57.12 92.45,58.52 94.94,59.19 98.12,59.8 99.68,60.6 
				101.89,61.85 104.16,61.81 106,62.47 107.25,60.83 107.07,58.32 107.98,57.07 109.08,56.08 108.67,53.29 109.92,51.79 			"/>
			<g>
				<polygon class="st14" points="94.06,53.03 93.8,51.8 94.8,51.41 				"/>
				<polygon class="st14" points="101.81,61.22 103.1,61.21 101.27,60.4 				"/>
				<polygon class="st14" points="108.1,55.08 108.43,55.94 107.64,56.27 				"/>
				<polygon class="st14" points="110.43,45.05 110.75,45.67 110.07,46.3 				"/>
				<polygon class="st14" points="102.02,38.6 103.73,38.47 104.32,39.11 				"/>
				<polygon class="st14" points="97.51,39.99 97.39,39.2 98.11,38.35 98.63,38.49 				"/>
				<polygon class="st14" points="93.31,57.67 93.03,58.24 94.14,58.67 				"/>
				<polygon class="st14" points="109.86,40.94 111.33,41.5 110.76,42.45 110.69,41.72 109.98,41.32 				"/>
			</g>
			<path class="st14" d="M106.93,48.03c-0.71-1.88-2.8-3.04-4.7-3.29c-0.77-0.1-1.56-0.03-2.29,0.23c-0.06,0.01-0.11,0.03-0.14,0.06
				c-0.17,0.07-0.33,0.13-0.49,0.22c-0.92,0.51-1.52,1.35-1.88,2.32c-0.22,0.6-0.35,1.24-0.46,1.87c-0.09,0.49,0.02,1.01,0.16,1.48
				c0.31,1,0.94,1.84,1.74,2.5c0.01,0.01,0.02,0.01,0.03,0.02c0.01,0.01,0.02,0.02,0.03,0.03c0.93,0.69,2.03,1.08,3.17,1.2
				c1.04,0.11,2.16,0.04,3.01-0.63C106.75,52.75,107.68,50.03,106.93,48.03z M106.51,50.4c-1.38-0.53-2.88-0.38-4.29,0.04
				c-0.81,0.24-1.58,0.5-2.43,0.41c-0.85-0.1-1.77-0.39-2.21-1.19c-0.01-0.02-0.02-0.03-0.03-0.04c0.03-0.33,0.11-0.65,0.19-0.97
				c0.08-0.32,0.17-0.65,0.29-0.96c0.51-0.31,1.12-0.43,1.71-0.27c0.31,0.08,0.6,0.23,0.84,0.44c0.22,0.19,0.49,0.45,0.49,0.76
				c-0.01,0.62-0.59,1.1-1.17,1.17c-0.56,0.07-1.39-0.25-1.11-0.96c0.12-0.3,0.42-0.49,0.75-0.49c0.08,0,0.27,0.01,0.31,0.09
				c0.03,0.05,0.01,0.17-0.02,0.22c-0.03,0.06-0.04,0.05-0.09,0.03c-0.15-0.06-0.33,0.06-0.37,0.21c-0.05,0.17,0.06,0.31,0.21,0.37
				c0.55,0.23,0.91-0.39,0.86-0.86c-0.06-0.53-0.62-0.69-1.08-0.64c-0.51,0.06-0.94,0.38-1.13,0.85c-0.18,0.44-0.11,0.99,0.24,1.33
				c0.72,0.71,2.03,0.54,2.68-0.16c0.1-0.11,0.19-0.24,0.27-0.38c0.06,0.12,0.14,0.24,0.24,0.33c0.37,0.35,0.92,0.41,1.4,0.28
				c0.36-0.1,0.61-0.31,0.77-0.61c0.16,0.17,0.36,0.3,0.6,0.35c0.38,0.09,0.77,0.09,1.13-0.07c0.31-0.13,0.57-0.37,0.75-0.65
				c0.07-0.1,0.12-0.22,0.16-0.33C106.6,49.27,106.61,49.84,106.51,50.4z M105.68,47.12c0.25,0.36,0.4,0.81,0.29,1.25
				c-0.09,0.39-0.39,0.73-0.78,0.84c-0.23,0.06-0.5,0.03-0.72-0.04c-0.19-0.06-0.3-0.23-0.35-0.42c-0.05-0.23-0.01-0.49,0.06-0.71
				c0.06-0.2,0.18-0.32,0.4-0.29c0.19,0.02,0.41,0.15,0.44,0.35c0.02,0.13-0.08,0.31-0.21,0.25c-0.14-0.07-0.32-0.05-0.41,0.1
				c-0.08,0.13-0.05,0.34,0.1,0.41c0.35,0.18,0.78,0.07,1-0.27c0.21-0.33,0.13-0.77-0.11-1.05c-0.25-0.29-0.68-0.44-1.05-0.38
				c-0.22,0.04-0.39,0.16-0.52,0.32c0-0.01,0-0.01-0.01-0.02c-0.18-0.47-0.41-0.94-0.77-1.3c-0.38-0.39-0.85-0.66-1.37-0.86
				C103.13,45.36,104.71,46.01,105.68,47.12z M100.04,45.57c0.61,0.04,1.27,0.19,1.82,0.47c0.62,0.31,1.02,0.78,1.31,1.41
				c0.13,0.3,0.24,0.62,0.27,0.94c0.02,0.29-0.01,0.76-0.26,0.96c-0.23,0.18-0.66,0.21-0.92,0.09c-0.29-0.13-0.41-0.46-0.42-0.76
				c-0.01-0.25,0.12-0.77,0.46-0.78c0.13,0,0.22,0.14,0.26,0.25c0.02,0.05,0.07,0.28-0.01,0.31c-0.36,0.13-0.21,0.71,0.15,0.58
				c0.95-0.36,0.36-1.98-0.6-1.7c-0.32,0.09-0.53,0.31-0.67,0.58c-0.18-0.26-0.43-0.49-0.67-0.66c-0.68-0.47-1.54-0.6-2.31-0.38
				c0.16-0.25,0.35-0.48,0.58-0.69C99.31,45.91,99.66,45.71,100.04,45.57z M97.68,50.68c0.98,0.8,2.51,0.94,3.67,0.65
				c0.84-0.21,1.65-0.53,2.52-0.63c0.85-0.11,1.71-0.03,2.5,0.29c-0.04,0.14-0.09,0.27-0.14,0.4c-1.29-0.35-2.51,0.02-3.75,0.47
				c-1.35,0.49-2.83,0.6-4.18,0.03c-0.02-0.01-0.04-0.01-0.05-0.01c-0.15-0.22-0.29-0.45-0.4-0.7
				C97.78,51.01,97.73,50.85,97.68,50.68z M105.63,52.56c-0.9-0.17-1.8-0.08-2.64,0.27c-0.82,0.34-1.61,0.88-2.54,0.78
				c-0.01,0-0.02,0-0.02,0c-0.41-0.17-0.8-0.38-1.16-0.65c-0.09-0.08-0.18-0.16-0.27-0.25c1.04,0.24,2.14,0.16,3.16-0.14
				c0.66-0.19,1.27-0.5,1.94-0.65c0.63-0.14,1.27-0.15,1.9,0C105.88,52.16,105.76,52.36,105.63,52.56z M104,53.97
				c-0.5,0.16-1.05,0.16-1.57,0.13c-0.22-0.01-0.44-0.05-0.66-0.08c0.38-0.13,0.75-0.31,1.11-0.49c0.74-0.35,1.52-0.51,2.32-0.42
				C104.87,53.49,104.49,53.82,104,53.97z"/>
		</g>
		<g>
			<path class="st16" d="M98.23,60.54L83.5,61.56c-1.11,0.08-2.07-0.76-2.14-1.87l-1.47-21.33c-0.08-1.11,0.76-2.07,1.87-2.14
				l14.73-1.01c1.11-0.08,2.07,0.76,2.14,1.87l1.47,21.33C100.17,59.51,99.34,60.47,98.23,60.54z"/>
			<polygon class="st2" points="98.33,46.07 96.91,43.71 97.38,40.99 95.87,39.61 96.62,37.08 94.56,36.95 93.14,36.98 90.84,37.7 
				88.04,36.74 84.76,37.69 83.52,37.38 83.26,38.39 81.98,38.08 81.6,40.16 82.15,41.94 81.35,43.35 82.24,44.72 82.16,47.85 
				83.41,51.1 82.52,53.08 83.59,55.19 82.77,56.7 83.8,58.28 83.9,59.73 86.46,59.52 89.67,59.01 91.4,59.24 93.91,59.67 
				96.03,58.86 97.98,58.86 98.61,56.9 97.59,54.59 98.02,53.11 98.72,51.8 97.39,49.32 98.06,47.49 			"/>
			<polygon class="st16" points="83.56,54.02 82.89,52.95 83.71,52.25 			"/>
			<polygon class="st16" points="93.62,59.1 94.83,58.66 92.84,58.51 			"/>
			<polygon class="st16" points="97.46,51.19 98.07,51.9 97.43,52.47 			"/>
			<polygon class="st16" points="96.26,40.97 96.77,41.44 96.35,42.27 			"/>
			<polygon class="st16" points="86.15,37.75 87.73,37.04 88.5,37.45 			"/>
			<polygon class="st16" points="82.38,40.58 82.01,39.88 82.4,38.83 82.94,38.79 			"/>
			<polygon class="st16" points="84.42,58.63 84.35,59.27 85.54,59.29 			"/>
			<polygon class="st16" points="94.33,37.29 95.9,37.32 95.69,38.41 95.37,37.75 94.57,37.61 			"/>
			<g>
				<g>
					<g>
						<path class="st16" d="M90.42,46.43c0.35,0.47,0.75,0.96,0.79,1.54c-0.09,0.03-0.2,0-0.3-0.01c-0.24-0.01-0.46,0.18-0.56,0.4
							c-0.17,0.37-0.05,0.85,0.27,1.1s0.8,0.27,1.14,0.05s0.5-0.68,0.4-1.07c-0.06-0.22-0.18-0.41-0.28-0.61
							c-0.28-0.56-0.34-1.23-0.18-1.84c0.05,0.39,0.31,0.71,0.53,1.04c0.37,0.53,0.67,1.12,0.76,1.76c0.09,0.64-0.07,1.33-0.52,1.79
							c-0.28,0.29-0.66,0.46-1.05,0.56c-0.39,0.1-0.79,0.11-1.2,0.11c-0.64,0-1.32-0.07-1.85-0.44c-0.2-0.14-0.37-0.31-0.53-0.49
							c-0.16-0.17-0.32-0.35-0.43-0.56c-0.32-0.6-0.21-1.33,0.04-1.96s0.6-1.22,0.78-1.87c0.17,0.41,0.19,0.89,0.05,1.31
							c-0.08,0.23-0.19,0.45-0.27,0.68c-0.16,0.5-0.08,1.07,0.24,1.49c0.31,0.42,0.87,0.65,1.38,0.54c-0.51-0.34-0.77-0.98-0.8-1.59
							s0.15-1.22,0.36-1.8c0.21-0.58,0.45-1.15,0.56-1.76C89.73,44.79,90.06,45.96,90.42,46.43z"/>
					</g>
					<g>
						<path class="st16" d="M90.41,52.97c-2.65,0.18-4.96-1.83-5.14-4.48c-0.18-2.65,1.83-4.96,4.48-5.14s4.96,1.83,5.14,4.48
							C95.07,50.49,93.06,52.79,90.41,52.97z M89.79,44.04c-2.27,0.16-4,2.13-3.84,4.41s2.13,4,4.41,3.84
							c2.27-0.16,4-2.13,3.84-4.41C94.05,45.61,92.07,43.89,89.79,44.04z"/>
					</g>
				</g>
			</g>
		</g>
		<g>
			<path class="st17" d="M87.35,60.89L73.3,65.46c-1.06,0.34-2.19-0.24-2.53-1.29l-6.6-20.33c-0.34-1.06,0.24-2.19,1.29-2.53
				l14.05-4.56c1.06-0.34,2.19,0.24,2.53,1.29l6.6,20.33C88.98,59.42,88.4,60.55,87.35,60.89z"/>
			<polygon class="st18" points="83.92,46.83 81.97,44.89 81.77,42.13 79.97,41.16 80.08,38.52 78.05,38.9 76.69,39.28 74.63,40.53 
				71.67,40.28 68.73,42 67.45,42 67.44,43.04 66.13,43.05 66.26,45.16 67.23,46.75 66.8,48.31 67.99,49.43 68.67,52.49 
				70.67,55.34 70.29,57.47 71.84,59.26 71.41,60.92 72.8,62.2 73.25,63.58 75.68,62.76 78.67,61.49 80.41,61.29 82.94,61.09 
				84.81,59.79 86.7,59.32 86.83,57.27 85.28,55.27 85.33,53.73 85.7,52.29 83.81,50.21 84.01,48.27 			"/>
			<g>
				<g>
					<path class="st17" d="M78.81,55.73c-0.78,0.25-2.14,0.32-3.81-1.16c-0.16-0.14-0.17-0.37-0.03-0.53
						c0.14-0.16,0.37-0.17,0.53-0.03c1.15,1.02,2.31,1.36,3.26,0.94c0.78-0.34,1.34-1.18,1.37-2.04c-0.02-0.43-0.25-0.88-0.63-1.19
						c-1.03-0.73-1.93-0.46-2.27-0.3c-0.58,0.3-0.86,1.1-0.57,1.68c0.13,0.28,0.41,0.5,0.75,0.59c0.32,0.09,0.65,0.06,0.89-0.1
						c0.1-0.06,0.18-0.14,0.22-0.21c0.07-0.12,0.06-0.28,0.05-0.39c-0.01-0.05-0.12-0.2-0.24-0.24c-0.03-0.01-0.1-0.03-0.22,0.07
						c-0.15,0.13-0.39,0.12-0.53-0.04c-0.14-0.16-0.12-0.39,0.04-0.53c0.3-0.26,0.65-0.33,0.99-0.2c0.39,0.15,0.67,0.55,0.7,0.85
						c0.04,0.32-0.01,0.61-0.14,0.85c-0.1,0.19-0.26,0.35-0.47,0.48c-0.43,0.27-0.97,0.34-1.5,0.18c-0.54-0.16-0.99-0.51-1.22-0.99
						c-0.46-0.94-0.03-2.2,0.92-2.68c0.37-0.17,1.65-0.62,3.05,0.38c0.56,0.46,0.9,1.13,0.92,1.79c-0.04,1.19-0.77,2.28-1.82,2.73
						C78.98,55.67,78.9,55.7,78.81,55.73z"/>
				</g>
				<g>
					<path class="st17" d="M73.81,53.08c-0.08,0.03-0.17,0.05-0.25,0.07c-0.72,0.13-1.44-0.04-1.96-0.46
						c-0.88-0.8-1.24-2.06-0.9-3.16c0.23-0.74,0.98-2.05,3.44-2.39c0.21-0.03,0.4,0.11,0.42,0.32c0.03,0.2-0.12,0.4-0.32,0.42
						c-1.52,0.22-2.52,0.88-2.83,1.87c-0.25,0.81,0.03,1.78,0.67,2.37c0.33,0.27,0.83,0.38,1.32,0.29c1.23-0.3,1.6-1.18,1.7-1.54
						c0.15-0.63-0.28-1.37-0.91-1.53c-0.3-0.08-0.65-0.01-0.94,0.19c-0.28,0.19-0.46,0.46-0.5,0.74c-0.02,0.12-0.01,0.22,0.02,0.3
						c0.05,0.13,0.17,0.23,0.27,0.29c0.05,0.02,0.23,0.04,0.34-0.02c0.03-0.02,0.09-0.05,0.09-0.22c0-0.21,0.16-0.38,0.37-0.38
						c0.21,0,0.38,0.16,0.38,0.37c0,0.4-0.17,0.72-0.49,0.89c-0.37,0.2-0.85,0.15-1.1-0.02c-0.27-0.18-0.46-0.4-0.56-0.65
						c-0.07-0.19-0.09-0.42-0.06-0.67c0.07-0.5,0.37-0.96,0.83-1.26c0.47-0.32,1.03-0.42,1.54-0.29c1.02,0.26,1.69,1.4,1.45,2.44
						C75.72,51.45,75.28,52.6,73.81,53.08z"/>
				</g>
				<g>
					<path class="st17" d="M78.35,50.07c-0.4,0.13-0.83,0.14-1.23,0.02c-0.39-0.14-1.61-0.73-1.9-2.42
						c-0.07-0.73,0.15-1.43,0.6-1.92c0.86-0.82,2.15-1.08,3.22-0.66c0.72,0.28,1.96,1.13,2.12,3.61c0.01,0.21-0.14,0.38-0.35,0.4
						c-0.21,0.01-0.39-0.14-0.4-0.35c-0.1-1.53-0.68-2.59-1.65-2.96c-0.79-0.31-1.78-0.11-2.41,0.49c-0.29,0.31-0.44,0.8-0.39,1.29
						c0.21,1.24,1.05,1.68,1.4,1.81c0.62,0.19,1.38-0.18,1.59-0.79c0.1-0.29,0.06-0.65-0.11-0.95c-0.16-0.29-0.42-0.5-0.7-0.56
						c-0.12-0.03-0.22-0.03-0.3,0c0,0-0.01,0-0.01,0c-0.13,0.04-0.24,0.15-0.3,0.24c-0.03,0.04-0.06,0.23,0,0.34
						c0.02,0.03,0.05,0.09,0.21,0.1c0.21,0.01,0.36,0.19,0.35,0.4c-0.01,0.21-0.19,0.36-0.4,0.35c-0.4-0.03-0.7-0.23-0.85-0.56
						c-0.17-0.39-0.09-0.86,0.1-1.1c0.2-0.26,0.43-0.42,0.69-0.5c0.2-0.06,0.43-0.06,0.67-0.01c0.49,0.11,0.93,0.45,1.19,0.92
						c0.28,0.49,0.34,1.06,0.17,1.56C79.46,49.43,78.95,49.88,78.35,50.07z"/>
				</g>
			</g>
			<g>
				<polygon class="st17" points="71.53,58.13 70.62,57.25 71.24,56.37 				"/>
				<polygon class="st17" points="82.52,60.61 83.59,59.89 81.62,60.23 				"/>
				<polygon class="st17" points="84.32,52.01 85.09,52.55 84.61,53.26 				"/>
				<polygon class="st17" points="80.68,42.38 81.29,42.72 81.08,43.62 				"/>
				<polygon class="st17" points="70.09,41.71 71.45,40.65 72.3,40.86 				"/>
				<polygon class="st17" points="67.13,45.38 66.59,44.79 66.71,43.68 67.23,43.51 				"/>
				<polygon class="st17" points="73.49,62.4 73.57,63.03 74.73,62.77 				"/>
				<polygon class="st17" points="77.91,39.29 79.45,38.93 79.51,40.04 79.04,39.48 78.23,39.54 				"/>
			</g>
		</g>
	</g>
	<g>
		<path class="st5" d="M62.77,12.62c1.02-2.14,2.5-3.87,4.46-5.15c0.18-0.12,0.41-0.08,0.55,0.08c1.63,1.85,3.26,6.64,3.18,8.81
			c-0.04,0.31-0.39,0.48-0.66,0.32c-0.56-0.35-1.5-0.92-2.56-1.49c-0.17-0.09-0.29-0.25-0.33-0.44l-0.24-1.16
			c-0.04-0.21-0.32-0.27-0.45-0.1l-0.3,0.43c-0.18,0.25-0.51,0.35-0.8,0.22c-0.9-0.41-1.79-0.74-2.55-0.9
			C62.8,13.16,62.65,12.87,62.77,12.62z"/>
	</g>
	<g>
		<path class="st5" d="M30.91,16.12c-1.44-1.69-3.09-2.84-4.97-3.43c-0.17-0.05-0.34,0.06-0.39,0.25c-0.64,2.26-0.35,7.3,0.39,9.32
			c0.13,0.29,0.44,0.33,0.59,0.09c0.31-0.51,0.84-1.34,1.45-2.23c0.1-0.14,0.14-0.33,0.11-0.53l-0.19-1.17
			c-0.03-0.22,0.16-0.36,0.31-0.23l0.36,0.3c0.21,0.18,0.49,0.16,0.67-0.05c0.55-0.67,1.11-1.27,1.63-1.66
			C31.06,16.65,31.08,16.32,30.91,16.12z"/>
	</g>
	<g>
		<path class="st0" d="M85.76,63.71C85.5,69.24,82.87,75.61,80.12,80h11.95c0.78-5,1.01-10.81,0.81-15.65
			c4.54-1.18,5.04-7.97-0.01-7.12c-0.32-2.36-4.83-2.94-5.24-0.34C83.28,54.97,80.22,61.82,85.76,63.71z"/>
	</g>
	<g>
		<path class="st1" d="M28.98,80c0.27-0.45,0.44-0.96,0.46-1.49c0.04-1-0.5-2.04-1.41-2.47c0.77-0.56,0.87-1.72,0.49-2.6
			c-0.51-1.19-1.75-1.98-3.04-2.12c-1.29-0.14-2.59,0.3-3.65,1.04c-1.06,0.74-1.89,1.77-2.58,2.86c-0.53,0.84-0.99,1.75-1.06,2.73
			c-0.08,0.69-0.09,1.38-0.04,2.04H28.98z"/>
	</g>
	<g>
		<path class="st5" d="M40.71,13.44c-5.5-3.63-11.88-6.47-18.34-7.77c6.14,3.01,11.65,6.07,16.28,9.19
			C39.26,14.3,39.94,13.82,40.71,13.44z"/>
	</g>
</g>
</svg>
