<?xml version="1.0" encoding="utf-8"?>
<!-- Generator: Adobe Illustrator 24.1.2, SVG Export Plug-In . SVG Version: 6.00 Build 0)  -->
<svg version="1.1" id="Layer_1" xmlns="http://www.w3.org/2000/svg" xmlns:xlink="http://www.w3.org/1999/xlink" x="0px" y="0px"
	 viewBox="0 0 130 80" style="enable-background:new 0 0 130 80;" xml:space="preserve">
<style type="text/css">
	.st0{fill:#FFCB3D;}
	.st1{fill:#440A00;}
	.st2{fill:#F9B223;}
	.st3{fill:#E04343;}
	.st4{fill:#323A68;}
	.st5{fill:#72595B;}
	.st6{fill:#453233;}
	.st7{fill:#A77F7F;}
	.st8{fill:#20294C;}
	.st9{fill:#C43737;}
	.st10{fill:#FFB423;}
	.st11{fill:#594346;}
</style>
<g>
	<g>
		<rect x="29.05" y="2.93" class="st0" width="98.94" height="70.55"/>
		<g>
			<path class="st1" d="M67.13,11.74c-1.48-0.95-3.7-0.29-4.59-2.14c-0.45-0.94-0.19-2.09,0.63-2.74c0.84-0.67,2.06-0.52,2.79,0.23
				c0.45,0.46,1.16-0.25,0.71-0.71c-1.07-1.09-2.85-1.28-4.08-0.33c-1.31,1.01-1.65,2.87-0.79,4.28c0.41,0.67,1.02,1.18,1.76,1.45
				c0.78,0.29,1.64,0.3,2.43,0.54c0.86,0.26,1.41,0.92,1.43,1.83c0.02,0.89-0.5,1.68-1.18,2.22c-0.79,0.63-1.89,1.07-2.91,0.9
				c-0.96-0.16-1.86-1.04-1.63-2.07c0.14-0.63-0.82-0.89-0.96-0.27c-0.38,1.7,1,3.18,2.64,3.35c1.71,0.18,3.58-0.81,4.49-2.25
				C68.74,14.66,68.58,12.66,67.13,11.74z"/>
			<path class="st1" d="M95,11.74c-1.48-0.95-3.7-0.29-4.6-2.14c-0.45-0.94-0.19-2.09,0.63-2.74c0.84-0.67,2.06-0.52,2.79,0.23
				c0.45,0.46,1.16-0.25,0.71-0.71c-1.07-1.09-2.85-1.28-4.08-0.33c-1.31,1.01-1.65,2.87-0.79,4.28c0.41,0.67,1.02,1.18,1.76,1.45
				c0.78,0.29,1.64,0.3,2.43,0.54c0.86,0.26,1.41,0.92,1.43,1.83c0.02,0.89-0.5,1.68-1.18,2.22c-0.79,0.63-1.89,1.07-2.91,0.9
				c-0.96-0.16-1.86-1.04-1.63-2.07c0.14-0.63-0.82-0.89-0.96-0.27c-0.38,1.7,1,3.18,2.64,3.35c1.71,0.18,3.58-0.81,4.49-2.25
				C96.61,14.66,96.44,12.66,95,11.74z"/>
			<path class="st1" d="M76.33,5.82c-0.1,2.32-0.21,4.64-0.31,6.96c-0.08,1.72-0.12,4.92-2.63,4.6c-0.81-0.1-1.96-0.44-2.44-1.17
				c-0.32-0.49-0.28-1.15-0.3-1.7c-0.03-0.54-0.05-1.08-0.06-1.62c-0.07-2.31-0.05-4.63,0.05-6.94c0.03-0.64-0.97-0.64-1,0
				c-0.09,2.16-0.11,4.32-0.06,6.48c0.03,1.04,0.02,2.1,0.14,3.14c0.1,0.78,0.43,1.41,1.07,1.88c1.21,0.88,3.32,1.43,4.61,0.45
				c1.43-1.08,1.53-3.13,1.6-4.77c0.11-2.43,0.22-4.87,0.33-7.3C77.36,5.18,76.36,5.18,76.33,5.82z"/>
			<path class="st1" d="M85.35,11.62c0.43-0.55,0.67-1.24,0.73-1.93c0.17-1.93-1.15-3.71-3.02-4.15c-1.06-0.25-2.15-0.15-3.22-0.03
				c-0.02,0-0.04,0.01-0.06,0.02c-0.29-0.09-0.67,0.06-0.66,0.45c0.13,4.07,0.29,8.13,0.49,12.19c0.02,0.36,0.35,0.51,0.62,0.47
				c0.07,0.05,0.16,0.1,0.27,0.11c1.03,0.08,2.09,0.1,3.12-0.02c0.92-0.11,1.83-0.34,2.58-0.91c0.69-0.52,1.2-1.26,1.3-2.14
				c0.1-0.85-0.16-1.76-0.6-2.49C86.52,12.54,85.98,12,85.35,11.62z M86.19,16.4c-0.51,0.78-1.43,1.12-2.31,1.28
				c-1.07,0.19-2.21,0.15-3.29,0.06c-0.18-3.76-0.33-7.51-0.45-11.27c1.79-0.18,3.95-0.21,4.73,1.76c0.32,0.8,0.32,1.74-0.11,2.5
				c-0.19,0.34-0.47,0.63-0.83,0.78c-0.51,0.22-1.11,0.17-1.65,0.14c-0.64-0.03-0.64,0.97,0,1c0.79,0.04,1.59,0.01,2.27-0.35
				C85.92,13.03,87.17,14.92,86.19,16.4z"/>
		</g>
		<path class="st2" d="M119.58,37.85c0.64,0,0.64-1,0-1c-3.46,0-6.93,0-10.39,0c0-1.6,0-3.21,0-4.81c0-2.06,0-4.13,0-6.19
			c3.46,0,6.93,0,10.39,0c0.64,0,0.64-1,0-1c-3.46,0-6.93,0-10.39,0c0-1.05,0-2.09,0-3.14c0-0.64-1-0.64-1,0c0,1.05,0,2.09,0,3.14
			c-6.33,0-12.67,0-19,0c0-1.05,0-2.09,0-3.14c0-0.64-1-0.64-1,0c0,1.05,0,2.09,0,3.14c-6.33,0-12.67,0-19,0c0-1.05,0-2.09,0-3.14
			c0-0.64-1-0.64-1,0c0,1.05,0,2.09,0,3.14c-3.77,0-7.54,0-11.31,0c-5.91,0-11.82,0-17.74,0c-0.64,0-0.64,1,0,1
			c9.68,0,19.37,0,29.05,0c0,3.67,0,7.33,0,11c-3.77,0-7.54,0-11.31,0c-5.91,0-11.82,0-17.74,0c-0.64,0-0.64,1,0,1
			c9.68,0,19.37,0,29.05,0c0,3.67,0,7.33,0,11c-3.77,0-7.54,0-11.31,0c-5.91,0-11.82,0-17.74,0c-0.64,0-0.64,1,0,1
			c9.68,0,19.37,0,29.05,0c0,2.77,0,5.54,0,8.32c0,1.23,0,2.46,0,3.68c-3.77,0-7.54,0-11.31,0c-5.91,0-11.82,0-17.74,0
			c-0.64,0-0.64,1,0,1c9.68,0,19.37,0,29.05,0c0,1.88,0,3.76,0,5.64c0,0.64,1,0.64,1,0c0-1.88,0-3.76,0-5.64c0.43,0,0.87,0,1.3,0
			c5.9,0,11.8,0,17.7,0c0,1.88,0,3.76,0,5.64c0,0.64,1,0.64,1,0c0-1.88,0-3.76,0-5.64c4.22,0,8.44,0,12.65,0c2.12,0,4.23,0,6.35,0
			c0,1.88,0,3.76,0,5.64c0,0.64,1,0.64,1,0c0-1.88,0-3.76,0-5.64c3.46,0,6.93,0,10.39,0c0.64,0,0.64-1,0-1c-3.46,0-6.93,0-10.39,0
			c0-4,0-8,0-12c3.46,0,6.93,0,10.39,0c0.64,0,0.64-1,0-1c-3.46,0-6.93,0-10.39,0c0-3.67,0-7.33,0-11
			C112.65,37.85,116.12,37.85,119.58,37.85z M101.84,25.85c2.12,0,4.23,0,6.35,0c0,3.67,0,7.33,0,11c-6.33,0-12.67,0-19,0
			c0-1.6,0-3.21,0-4.81c0-2.06,0-4.13,0-6.19C93.41,25.85,97.62,25.85,101.84,25.85z M69.19,32.04c0-2.06,0-4.13,0-6.19
			c0.43,0,0.87,0,1.3,0c5.9,0,11.8,0,17.7,0c0,3.67,0,7.33,0,11c-6.33,0-12.67,0-19,0C69.19,35.24,69.19,33.64,69.19,32.04z
			 M69.19,37.85c0.43,0,0.87,0,1.3,0c5.9,0,11.8,0,17.7,0c0,3.67,0,7.33,0,11c-6.33,0-12.67,0-19,0
			C69.19,45.18,69.19,41.51,69.19,37.85z M69.19,61.85c0-4,0-8,0-12c0.43,0,0.87,0,1.3,0c5.9,0,11.8,0,17.7,0c0,2.77,0,5.54,0,8.32
			c0,1.23,0,2.46,0,3.68C81.86,61.85,75.52,61.85,69.19,61.85z M108.19,58.16c0,1.23,0,2.46,0,3.68c-6.33,0-12.67,0-19,0
			c0-4,0-8,0-12c4.22,0,8.44,0,12.65,0c2.12,0,4.23,0,6.35,0C108.19,52.62,108.19,55.39,108.19,58.16z M108.19,48.85
			c-6.33,0-12.67,0-19,0c0-3.67,0-7.33,0-11c4.22,0,8.44,0,12.65,0c2.12,0,4.23,0,6.35,0C108.19,41.51,108.19,45.18,108.19,48.85z"
			/>
		<polygon class="st3" points="70.56,59.03 75.61,64.08 101.73,37.96 106.53,42.72 106.53,27.63 91.45,27.63 96.21,32.43 
			75.61,53.03 70.55,47.97 51.71,66.8 57.25,72.34 		"/>
	</g>
	<g>
		<path class="st4" d="M60.8,80V62.22c-1.81-4.06-6.99-8.46-10.98-9.57l-15.23-3.32l-17.16,6.43C10.8,59.69,8.22,72.3,7.27,80H60.8z
			"/>
	</g>
	<g>
		<path class="st5" d="M29.35,57.8c-8.26-0.1-16.46-2.92-23.04-7.92C4.82,48.76,3.41,47.51,2.3,46c-0.13-0.18-0.26-0.37-0.29-0.6
			l4.44-12.87C5.67,28,5.2,23.38,5.5,18.79c0.29-4.6,1.37-9.18,3.53-13.25C9.11,5.37,9.21,5.2,9.38,5.12
			C9.57,5.03,9.79,5.08,10,5.14c6.14,1.7,11.79,5.17,16.07,9.9c2.29-1.39,5.41-1.72,8.49-1.24c2.96-5.65,7.55-10.43,13.07-13.61
			c0.18-0.11,0.39-0.21,0.59-0.17c0.18,0.04,0.32,0.18,0.45,0.31c3.11,3.4,5.3,7.57,6.74,11.94c1.44,4.38,2.15,8.96,2.53,13.55
			l8.01,10.34c0.04,0.22-0.04,0.44-0.13,0.65c-0.69,1.73-1.75,3.3-2.91,4.77c-5.12,6.48-12.35,11.27-20.32,13.44L29.35,57.8z"/>
	</g>
	<path class="st3" d="M35.89,32.28c-0.76-0.03-1.52,0.04-2.26,0.2c-0.35,0.08-0.7,0.18-1.04,0.31c-0.36,0.14-0.73,0.27-0.94,0.62
		c-0.09,0.16-0.08,0.31-0.02,0.44c0.03,0.14,0.1,0.27,0.23,0.33c0.42,0.2,0.84,0.4,1.27,0.6c0.44,0.21,1.05,0.65,1.49,0.23
		c0.15-0.14,0.25-0.34,0.38-0.51c0.11-0.16,0.23-0.31,0.36-0.45c0.28-0.33,0.58-0.63,0.89-0.92C36.58,32.82,36.3,32.29,35.89,32.28z
		"/>
	<g>
		<path class="st6" d="M39.6,27.91c3.95,0.47,7.96-1.39,10.24-4.63c0.37-0.53-0.5-1.03-0.86-0.5c-2.09,2.97-5.79,4.56-9.37,4.13
			C38.96,26.84,38.97,27.84,39.6,27.91L39.6,27.91z"/>
	</g>
	<g>
		<path class="st6" d="M15.6,31.27c2.13,0.73,4.41,1,6.65,0.76c2-0.21,4.04-0.77,5.49-2.23c0.45-0.46-0.25-1.17-0.71-0.71
			c-1.35,1.37-3.34,1.83-5.2,1.98c-2.03,0.16-4.05-0.11-5.97-0.77C15.26,30.1,15,31.06,15.6,31.27L15.6,31.27z"/>
	</g>
	<path class="st6" d="M49.45,7.6c-0.12-0.22-0.37-0.35-0.64-0.17c-2.53,1.71-4.47,4.16-5.55,7.02c-0.13,0.34,0.12,0.57,0.4,0.61
		c0.08,0.06,0.18,0.1,0.28,0.11c2.57,0.36,5.02,1.36,7.12,2.88c0.27,0.31,0.89,0.23,0.87-0.29C51.76,14.32,49.52,7.64,49.45,7.6z"/>
	<path class="st6" d="M9.7,23.5c0.07,0.51,0.7,0.47,0.91,0.11c1.77-1.89,3.98-3.35,6.43-4.2c0.1-0.03,0.18-0.09,0.25-0.17
		c0.27-0.09,0.46-0.37,0.27-0.67c-1.61-2.6-3.99-4.63-6.8-5.82c-0.3-0.13-0.52,0.05-0.6,0.29C10.11,13.11,9.2,20.1,9.7,23.5z"/>
	<g>
		<path class="st7" d="M29.35,57.8l13.24-2.79c3.66-1,7.17-2.56,10.39-4.57c-3.2-4.12-8.31-6.71-13.54-6.8
			c-3.63-0.07-7.28,1.03-10.24,3.15c-3.4,2.44-5.78,6.22-6.59,10.32C24.84,57.54,27.09,57.78,29.35,57.8z"/>
	</g>
	<g>
		<path class="st7" d="M8.62,45.16c0.44-0.72,0.69-1.58,0.58-2.42c-0.04-0.34-0.15-0.68-0.38-0.93c-0.25-0.26-0.61-0.38-0.95-0.49
			c-1.36-0.41-2.75-0.69-4.16-0.86l-1.7,4.93c0.02,0.22,0.15,0.42,0.29,0.6c0.7,0.96,1.54,1.8,2.43,2.59
			c0.76-0.48,1.5-0.99,2.2-1.56C7.58,46.49,8.19,45.89,8.62,45.16z"/>
	</g>
	<g>
		<path class="st7" d="M58.92,33.47c-0.37,0.35-0.7,0.76-0.85,1.24c-0.34,1.06,0.25,2.24,1.14,2.9s2.02,0.9,3.12,1.04
			c0.82,0.11,1.64,0.16,2.47,0.19c0.39-0.65,0.74-1.33,1.02-2.03c0.08-0.21,0.16-0.43,0.13-0.65l-3.49-4.51
			C61.16,32.05,59.9,32.56,58.92,33.47z"/>
	</g>
	<path class="st6" d="M42.28,34.36c0.07,1.71-1.48,2.69-3.03,2.82c-1.46,0.13-2.88-0.37-4.05-1.23c-0.02-0.01-0.04-0.03-0.06-0.04
		c-0.02-0.02-0.04-0.03-0.06-0.05c-0.24-0.18-0.48-0.08-0.61,0.11c-0.01,0.01-0.01,0.02-0.02,0.02c0,0-0.01,0.01-0.01,0.01
		c-0.04,0.04-0.07,0.09-0.1,0.15c-0.57,1.38-1.73,2.51-3.1,3.1c-1.43,0.61-3.56,0.75-4.41-0.84c-0.3-0.57-1.17-0.06-0.86,0.5
		c1.04,1.94,3.58,2.06,5.42,1.34c0.8-0.31,1.51-0.76,2.13-1.32c0.04,0.03,0.09,0.06,0.14,0.07c1.22,0.4,2.63,0.05,3.55-0.84
		c0.05-0.04,0.08-0.1,0.1-0.16c0.79,0.18,1.62,0.22,2.43,0.09c1.91-0.3,3.62-1.7,3.54-3.76C43.25,33.72,42.25,33.71,42.28,34.36z"/>
	<g>
		<path class="st6" d="M52.79,29.63c-0.83-0.41-2.1-0.13-2.15,0.96c-0.03,0.64,0.97,0.64,1,0c0.01-0.13,0.3-0.16,0.39-0.16
			c0.24,0.01,0.48,0.15,0.62,0.34c0.38,0.5-0.12,1.1-0.58,1.32c-0.66,0.32-1.51,0.27-2.22,0.24c-0.84-0.04-1.67-0.16-2.48-0.36
			c-0.63-0.15-0.89,0.81-0.27,0.96c1.16,0.28,2.36,0.43,3.56,0.41c1.07-0.02,2.24-0.24,2.84-1.23
			C54.04,31.23,53.73,30.09,52.79,29.63z"/>
		<path class="st6" d="M22.35,38.44c-0.26-0.15-0.52-0.04-0.68,0.18c-0.9,1.18-2.36,1.94-3.84,2.04c-0.36,0.02-0.74,0.03-1.1-0.04
			c-0.36-0.07-0.46-0.46-0.44-0.79c0.02-0.35,0.21-0.66,0.52-0.83c0.14-0.07,0.64-0.23,0.72,0.01c0.2,0.61,1.17,0.35,0.96-0.27
			c-0.32-0.95-1.51-1.04-2.27-0.56c-0.81,0.51-1.15,1.55-0.81,2.45c0.18,0.47,0.49,0.84,1,0.95c0.43,0.09,0.88,0.11,1.32,0.09
			c0.89-0.04,1.75-0.27,2.54-0.66c0.9-0.44,1.65-1.09,2.25-1.88C22.69,38.91,22.56,38.57,22.35,38.44z"/>
		<path class="st6" d="M34.07,30.04c-0.77,0-1.52,0.18-2.2,0.53c-0.23,0.12-0.32,0.47-0.18,0.68c0.15,0.24,0.43,0.31,0.68,0.18
			c0.07-0.04,0.15-0.07,0.22-0.11c0,0,0,0,0,0c0.01,0,0.02-0.01,0.04-0.01c0.03-0.01,0.07-0.03,0.1-0.04
			c0.15-0.06,0.31-0.1,0.47-0.14c0.08-0.02,0.16-0.04,0.24-0.05c0.03-0.01,0.07-0.01,0.1-0.02c0,0,0,0,0,0c0.01,0,0.03,0,0.04,0
			c0.16-0.02,0.32-0.03,0.49-0.02c0.26,0,0.51-0.23,0.5-0.5C34.56,30.27,34.35,30.04,34.07,30.04z"/>
	</g>
	<g>
		<path class="st6" d="M48.22,0.01c-0.21-0.04-0.41,0.07-0.59,0.17c-5.52,3.18-10.11,7.96-13.07,13.61
			c0.91,0.27,1.72,0.63,2.43,1.06C39.47,10.11,43.47,5.12,48.22,0.01z"/>
	</g>
	<g>
		<path class="st6" d="M26.06,15.03c-4.28-4.72-9.92-8.2-16.07-9.9c-0.2-0.06-0.43-0.11-0.62-0.02c6.15,3.32,11.33,6.96,14.75,11.16
			C24.79,15.79,25.44,15.33,26.06,15.03z"/>
	</g>
	<path class="st8" d="M25.62,67.24l-1.17,4.67c0.91,1.5,4.01,5.27,6.47,8.08h16.93l3.92-16.17c-0.82-0.66-1.6-1.37-2.34-2.13
		c-0.29-0.3-0.3-0.77-0.03-1.09l1.61-1.89c-1.05-1.84-2.26-3.58-3.63-5.19l-0.07-0.15c0,0,0,0,0,0c-1.54,0.64-3.12,1.19-4.72,1.63
		L29.35,57.8c-1.75-0.02-3.5-0.17-5.23-0.43c0,0,0,0,0,0l-0.01,0.06c-0.64,2.63-1.27,5.25-1.91,7.88c-0.02,0.07-0.03,0.14,0,0.21
		c0.04,0.07,0.12,0.1,0.19,0.12c0.85,0.25,1.71,0.46,2.58,0.63C25.44,66.35,25.73,66.79,25.62,67.24z"/>
	<g>
		<path class="st3" d="M29.47,58.19c-0.01,1.18-0.02,2.37,0.33,3.5c0.35,1.12,1.12,2.18,2.22,2.57c0.95,0.34,2,0.14,3-0.05
			c2.48-0.49,4.97-0.99,7.45-1.48c0.27-0.05,0.55-0.11,0.76-0.29c0.29-0.25,0.37-0.67,0.4-1.06c0.18-2.09-0.37-4.16-0.91-6.19
			C42.06,52.94,29.47,54.52,29.47,58.19z"/>
	</g>
	<g>
		<g>
			<path class="st3" d="M47.74,72.38c-1.43-2.89-3.08-6.51-4.35-9.51c-0.06-0.15-0.16-0.27-0.25-0.4c-0.2,0.13-0.44,0.2-0.67,0.24
				c-2.48,0.49-4.97,0.99-7.45,1.48c-0.99,0.2-2.04,0.39-3,0.05c-0.25-0.09-0.47-0.22-0.68-0.36c-0.05,0.15-0.09,0.3-0.11,0.46
				c-0.31,3.14-0.64,7.01-0.84,10.1c-0.05,0.73,0.31,1.42,0.93,1.8L37.49,80h5.69l4.35-5.55C47.99,73.86,48.07,73.06,47.74,72.38z"
				/>
		</g>
	</g>
	<g>
		<path class="st9" d="M43.23,62.43c0.29-0.25,0.37-0.67,0.4-1.06c0.03-0.39,0.03-0.78,0.02-1.16c-3.5,1.63-9.16,2.7-13.4,2.5
			c0.41,0.7,1.01,1.28,1.77,1.55c0.95,0.34,2,0.14,3-0.05c2.48-0.49,4.97-0.99,7.45-1.48C42.74,62.66,43.02,62.6,43.23,62.43z"/>
	</g>
	<g>
		<path class="st10" d="M33.77,68.02c-0.98,0.22-1.96,0.45-2.94,0.67c-0.09,1.05-0.18,2.11-0.25,3.13c1.33-0.3,2.66-0.61,3.99-0.91
			c0.77-0.18,1.29-1.1,1.05-1.85C35.36,68.27,34.59,67.83,33.77,68.02z"/>
	</g>
	<path class="st5" d="M64.93,54.66c-0.32,0.54-0.82,1.4-1.23,2.1c0.02,0.01,0.03,0.01,0.05,0.02c2.72,1.95,5.93,3.57,9.17,4.55
		c0.08,0.03,0.16,0.07,0.22,0.12c1.02-1.24,7.16-9.08,0.7-11.82c0.21-0.39,0.42-0.77,0.62-1.16c0.54-1.09,1.27-2.41,0.43-3.55
		c-0.69-0.93-1.93-1.14-2.9-0.52c-1.02,0.65-1.66,1.86-2.3,2.85c-0.74,1.16-1.43,2.36-2.09,3.57c-0.83-0.68-1.73-1.24-2.73-1.65
		c-0.51-0.21-1.05-0.41-1.61-0.33c-0.55,0.08-0.99,0.44-1.21,0.94c-0.47,1.04,0.1,2.24,0.75,3.08
		C63.38,53.61,64.13,54.19,64.93,54.66z"/>
	<path class="st11" d="M72.71,56.42l2.84,1.4c1.46-2.83,2.29-6.49-1.71-8.19l-2.09,3.62C71.1,54.39,71.54,55.84,72.71,56.42z"/>
	<path class="st8" d="M20.41,80l-0.49-7.39c-0.02-0.33-0.5-0.36-0.56-0.04L17.9,80H20.41z"/>
	<g>
		<path class="st8" d="M53.84,80c1.34-3.56,4.53-11.7,6.96-17.78c-0.25-0.55-0.56-1.1-0.91-1.65L53.83,80H53.84z"/>
	</g>
	<g>
		<path class="st4" d="M72.92,61.33c-3.24-0.98-6.44-2.6-9.17-4.55c-0.3-0.21-0.71-0.1-0.85,0.24c-2.15,5.21-7.28,18.22-9.07,22.98
			h12.43c1.82-5.02,5.92-15.22,7.01-17.92C73.41,61.77,73.24,61.43,72.92,61.33z"/>
	</g>
	<g>
		<path class="st8" d="M62.08,59.06c3.13,2.29,6.82,3.63,10.57,4.61c0.14-0.34,0.27-0.66,0.38-0.93c-3.74-0.97-7.46-2.28-10.56-4.63
			C62.34,58.41,62.21,58.73,62.08,59.06z"/>
	</g>
</g>
</svg>
