<svg width="20" height="27" viewBox="0 0 20 27" fill="none" xmlns="http://www.w3.org/2000/svg">
<path d="M15.9365 22.1124H12.2321C11.7631 22.1124 11.3828 21.7322 11.3828 21.2631C11.3828 20.7941 11.7631 20.4138 12.2321 20.4138H15.9365C16.7271 20.4138 17.3703 19.7706 17.3703 18.98V14.1559C17.3703 13.3653 16.727 12.7221 15.9365 12.7221H12.2321C11.7631 12.7221 11.3828 12.3418 11.3828 11.8728C11.3828 11.4037 11.7631 11.0234 12.2321 11.0234H15.9365C17.6637 11.0234 19.069 12.4287 19.069 14.1559V18.9801C19.069 20.7072 17.6638 22.1124 15.9365 22.1124Z" fill="#E53950"/>
<path d="M15.9365 22.1124H12.2321C11.7631 22.1124 11.3828 21.7322 11.3828 21.2631C11.3828 20.7941 11.7631 20.4138 12.2321 20.4138H15.9365C16.7271 20.4138 17.3703 19.7706 17.3703 18.98V14.1559C17.3703 13.3653 16.727 12.7221 15.9365 12.7221H12.2321C11.7631 12.7221 11.3828 12.3418 11.3828 11.8728C11.3828 11.4037 11.7631 11.0234 12.2321 11.0234H15.9365C17.6637 11.0234 19.069 12.4287 19.069 14.1559V18.9801C19.069 20.7072 17.6638 22.1124 15.9365 22.1124Z" fill="#FFC234"/>
<path d="M7 26.5C1 26.5 0 25.0492 0 23.8765V8.59703C0 8.59703 1 7.95997 7 7.99984C13 8.03971 13 9.00008 14 9C14.4375 8.99996 14.3615 8 14.3615 8.49991V23.8765C14.3615 25.0492 14 26.5 7 26.5Z" fill="#E53950"/>
<path d="M7 26.5C1 26.5 0 25.0492 0 23.8765V8.59703C0 8.59703 1 7.95997 7 7.99984C13 8.03971 13 9.00008 14 9C14.4375 8.99996 14.3615 8 14.3615 8.49991V23.8765C14.3615 25.0492 14 26.5 7 26.5Z" fill="#FFC234"/>
<path d="M4.33569 12.0474L2.179 14.3958C2.06388 14.5212 2 14.6852 2 14.8554V19.0069C2 19.2414 2.19013 19.4316 2.42468 19.4316H6.24669C6.48125 19.4316 6.67137 19.2414 6.67137 19.0069V14.8554C6.67137 14.6852 6.60749 14.5212 6.49237 14.3958L4.33569 12.0474Z" fill="#5AE495"/>
<path d="M15.9358 11.0234H13.8906C15.2172 11.0234 16.353 11.8527 16.8089 13.0197C17.1496 13.2821 17.3696 13.6937 17.3696 14.1559V18.98C17.3696 19.4423 17.1496 19.8539 16.8089 20.1163C16.353 21.2833 15.2172 22.1125 13.8906 22.1125H15.9358C17.6631 22.1125 19.0683 20.7073 19.0683 18.98V14.1559C19.0683 12.4287 17.6632 11.0234 15.9358 11.0234Z" fill="#CA2E43"/>
<path d="M15.9358 11.0234H13.8906C15.2172 11.0234 16.353 11.8527 16.8089 13.0197C17.1496 13.2821 17.3696 13.6937 17.3696 14.1559V18.98C17.3696 19.4423 17.1496 19.8539 16.8089 20.1163C16.353 21.2833 15.2172 22.1125 13.8906 22.1125H15.9358C17.6631 22.1125 19.0683 20.7073 19.0683 18.98V14.1559C19.0683 12.4287 17.6632 11.0234 15.9358 11.0234Z" fill="#E2A925"/>
<path d="M14.3616 8.5L12.3164 9.41556V23.8766C12.3164 25.0493 12.2383 25.9999 12.2383 25.9999C13.4997 26 14.3616 25.0493 14.3616 23.8766V8.5Z" fill="#CA2E43"/>
<path d="M14.3616 8.5L12.3164 9.41556V23.8766C12.3164 25.0493 12.2383 25.9999 12.2383 25.9999C13.4997 26 14.3616 25.0493 14.3616 23.8766V8.5Z" fill="#E2A925"/>
<path d="M14.1 8.5C14.1 8.5167 14.093 8.5585 14.0256 8.62743C13.9573 8.69722 13.8437 8.77657 13.6754 8.85975C13.3398 9.02564 12.8379 9.18203 12.1973 9.31595C10.9203 9.58293 9.14447 9.75 7.175 9.75C5.20553 9.75 3.42974 9.58293 2.15267 9.31595C1.51208 9.18203 1.01024 9.02564 0.674622 8.85975C0.506336 8.77657 0.39274 8.69722 0.32443 8.62743C0.256965 8.5585 0.25 8.5167 0.25 8.5C0.25 8.4833 0.256965 8.4415 0.32443 8.37257C0.39274 8.30278 0.506336 8.22343 0.674622 8.14025C1.01024 7.97436 1.51208 7.81797 2.15267 7.68405C3.42974 7.41707 5.20553 7.25 7.175 7.25C9.14447 7.25 10.9203 7.41707 12.1973 7.68405C12.8379 7.81797 13.3398 7.97436 13.6754 8.14025C13.8437 8.22343 13.9573 8.30278 14.0256 8.37257C14.093 8.4415 14.1 8.4833 14.1 8.5Z" fill="#FF8C60" stroke="#FFC234" stroke-width="0.5"/>
<path d="M4.33572 13.8545C4.12223 13.8545 3.94922 13.6814 3.94922 13.468V9.3865C3.94922 9.17301 4.12228 9 4.33572 9C4.5492 9 4.72221 9.17306 4.72221 9.3865V13.468C4.72221 13.6814 4.54915 13.8545 4.33572 13.8545Z" fill="white"/>
<path d="M6.87282 6.18937C6.65934 6.18937 6.48633 6.01631 6.48633 5.80287C6.48633 5.23179 6.69529 4.92675 6.86318 4.68168C7.00343 4.47698 7.10474 4.32905 7.10474 3.99735C7.10474 3.66564 7.00338 3.51772 6.86318 3.31302C6.69529 3.0679 6.48633 2.76291 6.48633 2.19177C6.48633 1.62073 6.69529 1.31574 6.86323 1.07067C7.00348 0.866023 7.10479 0.718098 7.10479 0.386496C7.10479 0.173012 7.27786 0 7.49134 0C7.70482 0 7.87784 0.173062 7.87784 0.386496C7.87784 0.957531 7.66887 1.26252 7.50094 1.50759C7.36068 1.71224 7.25937 1.86017 7.25937 2.19177C7.25937 2.52347 7.36073 2.6714 7.50094 2.8761C7.66882 3.12122 7.87778 3.42621 7.87778 3.9973C7.87778 4.56838 7.66882 4.87343 7.50094 5.1185C7.36068 5.32319 7.25937 5.47112 7.25937 5.80282C7.25932 6.01631 7.08631 6.18937 6.87282 6.18937Z" fill="#B3CEEC"/>
<path d="M3.95095 6.18937C3.73746 6.18937 3.56445 6.01631 3.56445 5.80287C3.56445 5.23179 3.77342 4.92675 3.9413 4.68168C4.08156 4.47698 4.18287 4.32905 4.18287 3.99735C4.18287 3.66564 4.08151 3.51772 3.9413 3.31302C3.77342 3.0679 3.56445 2.76291 3.56445 2.19177C3.56445 1.62073 3.77342 1.31574 3.94135 1.07067C4.08161 0.866023 4.18292 0.718098 4.18292 0.386496C4.18292 0.173012 4.35598 0 4.56941 0C4.7829 0 4.95591 0.173062 4.95591 0.386496C4.95591 0.957531 4.74694 1.26252 4.57901 1.50759C4.43875 1.71224 4.33745 1.86017 4.33745 2.19177C4.33745 2.52347 4.4388 2.6714 4.57901 2.8761C4.74689 3.12122 4.95586 3.42621 4.95586 3.9973C4.95586 4.56838 4.74689 4.87343 4.57901 5.1185C4.43875 5.32319 4.33745 5.47112 4.33745 5.80282C4.3375 6.01631 4.16443 6.18937 3.95095 6.18937Z" fill="#B3CEEC"/>
<path d="M9.7928 6.18937C9.57931 6.18937 9.40625 6.01631 9.40625 5.80287C9.40625 5.23179 9.61522 4.92675 9.7831 4.68168C9.92336 4.47698 10.0247 4.32905 10.0247 3.99735C10.0247 3.66564 9.92336 3.51772 9.7831 3.31302C9.61522 3.0679 9.40625 2.76291 9.40625 2.19177C9.40625 1.62073 9.61522 1.31574 9.7831 1.07067C9.92336 0.866023 10.0247 0.718098 10.0247 0.386496C10.0247 0.173012 10.1977 0 10.4112 0C10.6247 0 10.7977 0.173062 10.7977 0.386496C10.7977 0.957531 10.5887 1.26252 10.4209 1.50759C10.2806 1.71224 10.1793 1.86017 10.1793 2.19177C10.1793 2.52347 10.2806 2.6714 10.4209 2.8761C10.5887 3.12122 10.7977 3.42621 10.7977 3.9973C10.7977 4.56838 10.5887 4.87343 10.4209 5.1185C10.2806 5.32319 10.1793 5.47112 10.1793 5.80282C10.1793 6.01631 10.0063 6.18937 9.7928 6.18937Z" fill="#B3CEEC"/>
</svg>
