<svg width="26" height="26" viewBox="0 0 26 26" fill="none" xmlns="http://www.w3.org/2000/svg">
<g clip-path="url(#clip0)">
<path d="M8 13.5L11 8.5L12 4.5V2L14.5 3L14 9.5L15 10.5L19 9.5H21.5L22 11L22.5 12.5L23 14.5V16.5L22.5 18.5L21.5 21L19 22L9.5 23L8 13.5Z" fill="#B6DDFC"/>
<rect x="2.98633" y="14.7437" width="5" height="9.50689" transform="rotate(-9.47165 2.98633 14.7437)" fill="#45A0FF"/>
<path d="M23.3818 15.2374C23.7553 14.5926 23.8859 13.9394 23.7677 13.3022C23.6404 12.6001 23.2467 12.0918 22.9388 11.7893C23.1347 10.9942 23.084 9.79327 21.9464 9.01546C21.1129 8.44591 19.8161 8.32062 18.0905 8.64895C16.8766 8.87677 15.8867 9.24834 15.8462 9.26352L15.8416 9.26417C15.6152 9.3387 15.3762 9.42447 15.1332 9.51555C15.0727 9.22086 15.0198 8.47505 15.3337 6.73479C15.7053 4.66425 15.4549 3.15509 14.5783 2.24577C13.6573 1.29059 12.4145 1.38036 12.0522 1.43139C11.7037 1.48046 11.4035 1.66962 11.2132 1.96647C10.7819 2.63835 10.998 3.73545 11.1351 4.23728C10.7535 5.96812 9.60261 10.2424 8.30629 11.5667C8.28103 11.5892 8.26108 11.6157 8.24112 11.6422C7.87721 12.153 7.6579 12.6814 7.52299 13.1362C7.22797 13.0262 6.90495 12.9864 6.57049 13.0335L3.7368 13.4326C2.66835 13.5831 1.92666 14.5735 2.0765 15.6373L3.13973 23.1861C3.29021 24.2545 4.2806 24.9962 5.3444 24.8464L8.17809 24.4472C8.59153 24.389 8.95877 24.2046 9.24326 23.9372L10.3532 23.9135C10.5237 23.9132 13.5498 23.8707 16.5933 23.3804C17.152 23.3444 17.6756 23.2943 18.1587 23.2263C18.9902 23.1091 19.7057 22.942 20.2913 22.7269C21.6703 22.2247 22.5561 21.4841 22.9235 20.5275C23.2043 19.7962 23.1094 19.1227 22.9888 18.7038C23.7955 17.7374 23.8279 16.7901 23.7038 16.1443C23.6322 15.7707 23.5034 15.4619 23.3818 15.2374ZM5.16774 23.5921C4.79146 23.6451 4.44633 23.381 4.39398 23.0094L3.3301 15.456C3.2771 15.0797 3.54117 14.7346 3.9128 14.6822L6.74649 14.2831C7.12277 14.2301 7.4679 14.4942 7.52025 14.8658L8.58347 22.4146C8.63647 22.7909 8.3724 23.136 8.00077 23.1883L5.16708 23.5875L5.16774 23.5921ZM22.116 14.8614C21.9497 15.0933 21.9564 15.4098 22.139 15.6304C22.1397 15.635 22.376 15.9334 22.462 16.3761C22.5802 16.98 22.3635 17.5601 21.8151 18.1064C21.6203 18.3044 21.5726 18.6048 21.7021 18.8519C21.7028 18.8565 21.9889 19.4416 21.7455 20.068C21.5128 20.6693 20.8769 21.1663 19.8584 21.5372C19.0431 21.8368 17.905 22.0302 16.4863 22.1163C16.4678 22.119 16.4445 22.1222 16.4213 22.1255C13.4435 22.6113 10.369 22.6463 10.3358 22.6463L10.3312 22.6469L9.85415 22.6573C9.86371 22.5233 9.85801 22.3819 9.83838 22.2426L8.7745 14.6892C8.74637 14.4894 8.68637 14.2989 8.60511 14.1256C8.64489 13.8026 8.77967 13.0777 9.24473 12.4105C11.0976 10.463 12.3511 4.59661 12.4053 4.34262C12.4288 4.23983 12.423 4.13168 12.3894 4.02745C12.2371 3.51829 12.1754 2.87794 12.26 2.67178C12.5069 2.64175 13.181 2.61786 13.6584 3.1144C14.2244 3.70266 14.3707 4.87591 14.0783 6.49945C13.6309 8.97388 13.7412 10.228 14.4362 10.6891C14.7814 10.92 15.1922 10.8764 15.4745 10.7277C15.7487 10.6227 16.0103 10.529 16.2599 10.4512C16.2778 10.444 16.3004 10.4361 16.3183 10.4288C17.7006 9.91668 20.2287 9.36636 21.2298 10.0497C22.0792 10.6312 21.6733 11.617 21.6266 11.723C21.4914 12.0074 21.5902 12.3393 21.8519 12.5156C21.8572 12.5196 22.4098 12.9108 22.52 13.5254C22.5968 13.9362 22.4613 14.3864 22.116 14.8614Z" fill="black"/>
<path d="M23.3818 15.2374C23.7553 14.5926 23.8859 13.9394 23.7677 13.3022C23.6404 12.6001 23.2467 12.0918 22.9388 11.7893C23.1347 10.9942 23.084 9.79327 21.9464 9.01546C21.1129 8.44591 19.8161 8.32062 18.0905 8.64895C16.8766 8.87677 15.8867 9.24834 15.8462 9.26352L15.8416 9.26417C15.6152 9.3387 15.3762 9.42447 15.1332 9.51555C15.0727 9.22086 15.0198 8.47505 15.3337 6.73479C15.7053 4.66425 15.4549 3.15509 14.5783 2.24577C13.6573 1.29059 12.4145 1.38036 12.0522 1.43139C11.7037 1.48046 11.4035 1.66962 11.2132 1.96647C10.7819 2.63835 10.998 3.73545 11.1351 4.23728C10.7535 5.96812 9.60261 10.2424 8.30629 11.5667C8.28103 11.5892 8.26108 11.6157 8.24112 11.6422C7.87721 12.153 7.6579 12.6814 7.52299 13.1362C7.22797 13.0262 6.90495 12.9864 6.57049 13.0335L3.7368 13.4326C2.66835 13.5831 1.92666 14.5735 2.0765 15.6373L3.13973 23.1861C3.29021 24.2545 4.2806 24.9962 5.3444 24.8464L8.17809 24.4472C8.59153 24.389 8.95877 24.2046 9.24326 23.9372L10.3532 23.9135C10.5237 23.9132 13.5498 23.8707 16.5933 23.3804C17.152 23.3444 17.6756 23.2943 18.1587 23.2263C18.9902 23.1091 19.7057 22.942 20.2913 22.7269C21.6703 22.2247 22.5561 21.4841 22.9235 20.5275C23.2043 19.7962 23.1094 19.1227 22.9888 18.7038C23.7955 17.7374 23.8279 16.7901 23.7038 16.1443C23.6322 15.7707 23.5034 15.4619 23.3818 15.2374ZM5.16774 23.5921C4.79146 23.6451 4.44633 23.381 4.39398 23.0094L3.3301 15.456C3.2771 15.0797 3.54117 14.7346 3.9128 14.6822L6.74649 14.2831C7.12277 14.2301 7.4679 14.4942 7.52025 14.8658L8.58347 22.4146C8.63647 22.7909 8.3724 23.136 8.00077 23.1883L5.16708 23.5875L5.16774 23.5921ZM22.116 14.8614C21.9497 15.0933 21.9564 15.4098 22.139 15.6304C22.1397 15.635 22.376 15.9334 22.462 16.3761C22.5802 16.98 22.3635 17.5601 21.8151 18.1064C21.6203 18.3044 21.5726 18.6048 21.7021 18.8519C21.7028 18.8565 21.9889 19.4416 21.7455 20.068C21.5128 20.6693 20.8769 21.1663 19.8584 21.5372C19.0431 21.8368 17.905 22.0302 16.4863 22.1163C16.4678 22.119 16.4445 22.1222 16.4213 22.1255C13.4435 22.6113 10.369 22.6463 10.3358 22.6463L10.3312 22.6469L9.85415 22.6573C9.86371 22.5233 9.85801 22.3819 9.83838 22.2426L8.7745 14.6892C8.74637 14.4894 8.68637 14.2989 8.60511 14.1256C8.64489 13.8026 8.77967 13.0777 9.24473 12.4105C11.0976 10.463 12.3511 4.59661 12.4053 4.34262C12.4288 4.23983 12.423 4.13168 12.3894 4.02745C12.2371 3.51829 12.1754 2.87794 12.26 2.67178C12.5069 2.64175 13.181 2.61786 13.6584 3.1144C14.2244 3.70266 14.3707 4.87591 14.0783 6.49945C13.6309 8.97388 13.7412 10.228 14.4362 10.6891C14.7814 10.92 15.1922 10.8764 15.4745 10.7277C15.7487 10.6227 16.0103 10.529 16.2599 10.4512C16.2778 10.444 16.3004 10.4361 16.3183 10.4288C17.7006 9.91668 20.2287 9.36636 21.2298 10.0497C22.0792 10.6312 21.6733 11.617 21.6266 11.723C21.4914 12.0074 21.5902 12.3393 21.8519 12.5156C21.8572 12.5196 22.4098 12.9108 22.52 13.5254C22.5968 13.9362 22.4613 14.3864 22.116 14.8614Z" fill="url(#paint0_linear)"/>
</g>
<defs>
<linearGradient id="paint0_linear" x1="2.5" y1="20" x2="24" y2="16.5" gradientUnits="userSpaceOnUse">
<stop stop-color="#45A0FF"/>
<stop offset="0.27987" stop-color="#45A0FF"/>
<stop offset="0.280424" stop-color="#B6DDFC"/>
<stop offset="1" stop-color="#B6DDFC"/>
</linearGradient>
<clipPath id="clip0">
<rect width="22.4335" height="22.4335" fill="white" transform="translate(0 3.12891) rotate(-8.01726)"/>
</clipPath>
</defs>
</svg>
