<svg width="25" height="12" viewBox="0 0 25 12" fill="none" xmlns="http://www.w3.org/2000/svg">
<path d="M19.06 0C15.5548 0 13.235 2.86595 11.1885 5.39506C9.43997 7.55559 7.78882 9.59572 5.7778 9.59572C3.6875 9.59572 2.40411 7.44737 2.40411 5.90724C2.40411 4.47928 3.81201 2.40411 6.01858 2.40411C8.1597 2.40411 9.27516 4.11776 9.33141 4.20559C9.67829 4.76694 10.4148 4.94358 10.9789 4.59951C11.5459 4.25411 11.7255 3.51447 11.3799 2.94753C11.3066 2.82747 9.54326 0.000164383 6.01858 0.000164383C2.47187 0.000164383 0 3.11365 0 5.9074C0 8.78914 2.37286 12 5.77763 12C8.93536 12 11.0309 9.41118 13.0571 6.9074C14.9314 4.59194 16.702 2.40428 19.06 2.40428C20.463 2.40428 21.3849 2.88026 21.8776 3.85822C22.3046 4.70691 22.3043 5.66727 22.3039 6C22.3039 6.19079 22.2031 7.1477 21.7363 8.00937C21.2041 8.99095 20.4485 9.44786 19.3566 9.44786C17.1577 9.44786 15.9697 8.01858 15.5224 7.48026C15.4061 7.34013 15.3224 7.23931 15.2105 7.14359C14.7069 6.71217 13.9477 6.77007 13.5155 7.27434C13.0987 7.76069 13.1388 8.48372 13.5941 8.92138C13.6158 8.94605 13.6419 8.97845 13.673 9.01612C14.2561 9.71776 16.0289 11.8516 19.3561 11.8516C23.3998 11.8516 24.7076 7.90872 24.7076 5.98355C24.7079 4.7574 24.4783 3.67878 24.0243 2.77697C23.387 1.51053 22.0081 0 19.06 0Z" fill="#44C868"/>
</svg>
