<svg width="36" height="26" viewBox="0 0 36 26" fill="none" xmlns="http://www.w3.org/2000/svg">
<path fill-rule="evenodd" clip-rule="evenodd" d="M35.4005 5.34868C35.4495 5.11309 35.2151 4.91859 34.9926 5.01018L30.6815 6.78459C30.4319 6.88732 30.431 7.24896 30.6769 7.36015C31.1146 7.55801 31.6893 7.83724 32.1732 8.13765L26.8808 14.5641L19.7419 10.7567C19.5478 10.6531 19.3087 10.6887 19.1531 10.8443L10.4429 19.5545L6.28398 16.7818C6.07644 16.6434 5.79868 16.6792 5.63295 16.8656L1.63219 21.3656C1.44871 21.572 1.46727 21.888 1.67365 22.0715C1.88002 22.255 2.19606 22.2364 2.37954 22.03L6.09124 17.8552L10.2293 20.6139C10.4276 20.7461 10.6917 20.72 10.8602 20.5514L19.5982 11.8134L26.7714 15.6391C26.9814 15.7511 27.2413 15.6995 27.3926 15.5157L32.9729 8.73965C33.3402 9.06875 33.7092 9.45807 33.9781 9.75515C34.1465 9.94125 34.4623 9.85989 34.5134 9.61414L35.4005 5.34868Z" fill="#5AE495"/>
<path d="M22.6172 11.4714H23.5247V11.9112H22.6172V11.4714Z" fill="#828A9E"/>
<path d="M12.4551 11.4714H13.3626V11.9112H12.4551V11.4714Z" fill="#828A9E"/>
<path d="M22.4432 11.73V13.9439C22.4432 16.3925 20.4582 18.3775 18.0097 18.3775C15.5611 18.3775 13.5762 16.3925 13.5762 13.9439V11.73H22.4432Z" fill="#484C59"/>
<path d="M22.4432 4.43365V11.7301H13.5762V4.43365C13.5759 4.15475 13.6021 3.87647 13.6543 3.60254C13.7219 3.24602 13.8337 2.89931 13.9872 2.57045C15.0172 0.348525 17.6534 -0.617681 19.8753 0.412322C20.3474 0.631149 20.7773 0.931388 21.1453 1.29921C21.7726 1.92802 22.1974 2.73017 22.3651 3.60248C22.4172 3.87647 22.4434 4.15475 22.4432 4.43365Z" fill="#DBD8DD"/>
<path d="M23.4007 11.1711V12.2875H23.8825V13.9727C23.8826 17.2218 21.2488 19.8558 17.9997 19.8559C14.7506 19.8561 12.1165 17.2222 12.1164 13.9731C12.1164 13.9729 12.1164 13.9728 12.1164 13.9727V12.2881H12.6746V11.1717H11V13.9738C11 17.8399 14.134 20.9739 18 20.9739C21.866 20.9739 25 17.8398 25 13.9738V11.1711H23.4007Z" fill="#62667C"/>
<path d="M13.1816 11.1711H22.8424V12.2881H13.1816V11.1711Z" fill="#62667C"/>
<path d="M22.3647 3.60259H19.5097C19.2247 3.59582 18.9992 3.35926 19.006 3.07427C19.0126 2.79881 19.2343 2.57711 19.5097 2.57056H22.0319C22.1853 2.89931 22.2972 3.24601 22.3647 3.60259Z" fill="#828A9E"/>
<path d="M22.4435 4.67924V5.71133H19.51C19.2251 5.71116 18.9941 5.48014 18.9941 5.19514C18.9956 4.91077 19.2257 4.68059 19.51 4.67896L22.4435 4.67924Z" fill="#828A9E"/>
<path d="M22.4435 6.78784V7.81993H19.51C19.2254 7.81897 18.995 7.5884 18.9941 7.30375C18.9957 7.01948 19.2258 6.78948 19.51 6.78784H22.4435Z" fill="#828A9E"/>
<path d="M22.4435 8.89487V9.92928H19.51C19.2254 9.92832 18.995 9.69775 18.9941 9.41309V9.41072C18.9949 9.12606 19.2254 8.89549 19.51 8.89453L22.4435 8.89487Z" fill="#828A9E"/>
<path d="M17.0236 3.08597C17.0236 3.37103 16.7925 3.60216 16.5074 3.60216H13.6523C13.7199 3.24563 13.8317 2.89893 13.9852 2.57007H16.5074C16.7917 2.57148 17.0219 2.8016 17.0236 3.08597Z" fill="#828A9E"/>
<path d="M17.0255 5.19539C17.0255 5.48044 16.7945 5.71157 16.5093 5.71157H13.5762V4.6792H16.5093C16.646 4.67954 16.777 4.73419 16.8733 4.83107C16.9712 4.92699 17.026 5.05842 17.0255 5.19539Z" fill="#828A9E"/>
<path d="M17.0255 7.3046C17.0247 7.58937 16.7941 7.82 16.5093 7.82079H13.5762V6.78784H16.5093C16.646 6.78818 16.7769 6.84283 16.8733 6.93971C16.9713 7.0358 17.0262 7.1674 17.0255 7.3046Z" fill="#828A9E"/>
<path d="M17.0255 9.41087V9.41324C17.0247 9.69801 16.7941 9.92863 16.5093 9.92943H13.5762V8.89502H16.5093C16.7939 8.89581 17.0245 9.12621 17.0255 9.41087Z" fill="#828A9E"/>
<path d="M17.0117 20.3311H18.9851V24.0918H17.0117V20.3311Z" fill="#62667C"/>
<path d="M22 23L22 26L14 26L14 23L22 23Z" fill="#62667C"/>
</svg>
