<svg width="38" height="33" viewBox="0 0 38 33" fill="none" xmlns="http://www.w3.org/2000/svg">
<path d="M17.5489 10.927C17.8483 10.0057 19.1517 10.0057 19.4511 10.9271L21.0819 15.9463C21.2158 16.3583 21.5997 16.6373 22.033 16.6373H27.3105C28.2792 16.6373 28.682 17.8769 27.8983 18.4463L23.6287 21.5484C23.2782 21.803 23.1315 22.2544 23.2654 22.6664L24.8963 27.6857C25.1956 28.607 24.1411 29.3731 23.3574 28.8037L19.0878 25.7016C18.7373 25.447 18.2627 25.447 17.9122 25.7016L13.6426 28.8037C12.8589 29.3731 11.8044 28.607 12.1037 27.6857L13.7346 22.6664C13.8685 22.2544 13.7218 21.803 13.3713 21.5484L9.10169 18.4463C8.31798 17.8769 8.72075 16.6373 9.68948 16.6373H14.967C15.4003 16.6373 15.7842 16.3583 15.9181 15.9463L17.5489 10.927Z" fill="#FFC133"/>
<path d="M30.3447 3.51197C30.6085 3.10575 31.238 3.27442 31.2634 3.75812L31.411 6.57467C31.4223 6.79098 31.5716 6.9754 31.7809 7.03146L34.5052 7.76144C34.973 7.8868 35.0071 8.53761 34.555 8.71119L31.9219 9.72194C31.7196 9.79957 31.5904 9.99858 31.6017 10.2149L31.7493 13.0314C31.7747 13.5151 31.1663 13.7487 30.8615 13.3723L29.0865 11.1804C28.9502 11.0121 28.721 10.9506 28.5188 11.0283L25.8857 12.039C25.4335 12.2126 25.0234 11.7061 25.2872 11.2999L26.8233 8.93451C26.9412 8.75284 26.9288 8.51587 26.7925 8.34753L25.0176 6.15566C24.7127 5.77924 25.0677 5.23267 25.5355 5.35803L28.2598 6.08801C28.4691 6.14407 28.6906 6.05903 28.8086 5.87737L30.3447 3.51197Z" fill="#FFC133"/>
<path d="M2.71468 23.8781C2.80449 23.6017 3.19551 23.6017 3.28532 23.8781L3.60619 24.8657C3.64635 24.9893 3.76154 25.0729 3.8915 25.0729H4.92986C5.22048 25.0729 5.34131 25.4448 5.1062 25.6157L4.26615 26.226C4.161 26.3024 4.11701 26.4378 4.15717 26.5614L4.47804 27.5489C4.56784 27.8253 4.2515 28.0552 4.01639 27.8843L3.17634 27.274C3.07119 27.1976 2.92881 27.1976 2.82366 27.274L1.98361 27.8843C1.7485 28.0552 1.43216 27.8253 1.52196 27.5489L1.84283 26.5614C1.88299 26.4378 1.839 26.3024 1.73385 26.226L0.8938 25.6157C0.658686 25.4448 0.779519 25.0729 1.07014 25.0729H2.1085C2.23846 25.0729 2.35365 24.9893 2.39381 24.8657L2.71468 23.8781Z" fill="#FFC133"/>
</svg>
