<svg width="39" height="36" viewBox="0 0 39 36" fill="none" xmlns="http://www.w3.org/2000/svg">
<path d="M31.3613 3.69374L34.8179 4.76256C34.8668 4.77756 34.9104 4.80848 34.9428 4.85118C34.9751 4.89388 34.9948 4.94633 34.9991 5.00153C35.0034 5.05674 34.9922 5.11206 34.9668 5.16011C34.9415 5.20815 34.9034 5.24664 34.8575 5.27042L31.608 6.93008L30.6274 10.7008C30.5299 11.0825 30.3228 11.1024 30.1614 10.7406L28.6387 7.19894L25.1821 6.13344C25.1332 6.11845 25.0896 6.08753 25.0572 6.04483C25.0249 6.00213 25.0052 5.94967 25.0009 5.89446C24.9966 5.83926 25.0078 5.78394 25.0332 5.73589C25.0585 5.68785 25.0966 5.64937 25.1425 5.62559L28.392 3.96593L29.3726 0.198508C29.3864 0.145174 29.4148 0.0976899 29.4539 0.0623944C29.4931 0.0270989 29.5413 0.00566793 29.5919 0.000977753C29.6426 -0.00371242 29.6933 0.00855278 29.7374 0.0361378C29.7815 0.0637228 29.8168 0.105316 29.8386 0.155355L31.3613 3.69374Z" fill="#FFC133"/>
<path d="M36.8168 29.3506L38.8907 30.0307C38.9201 30.0403 38.9462 30.0599 38.9657 30.0871C38.9851 30.1143 38.9969 30.1477 38.9995 30.1828C39.002 30.2179 38.9953 30.2531 38.9801 30.2837C38.9649 30.3143 38.942 30.3388 38.9145 30.3539L36.9648 31.41L36.3764 33.8096C36.3179 34.0525 36.1937 34.0652 36.0968 33.835L35.1832 31.5811L33.1093 30.9031C33.0799 30.8936 33.0538 30.8739 33.0343 30.8467C33.0149 30.8195 33.0031 30.7862 33.0005 30.751C32.998 30.7159 33.0047 30.6807 33.0199 30.6501C33.0351 30.6195 33.058 30.5951 33.0855 30.5799L35.0352 29.5238L35.6236 27.1263C35.6318 27.0924 35.6489 27.0622 35.6724 27.0397C35.6959 27.0172 35.7248 27.0036 35.7551 27.0006C35.7855 26.9976 35.816 27.0054 35.8424 27.023C35.8689 27.0406 35.8901 27.067 35.9032 27.0989L36.8168 29.3506Z" fill="#FFC133"/>
<path d="M2.54452 19.679L3.92715 20.1648C3.94673 20.1716 3.96415 20.1857 3.97711 20.2051C3.99006 20.2245 3.99792 20.2483 3.99964 20.2734C4.00136 20.2985 3.99686 20.3237 3.98674 20.3455C3.97661 20.3673 3.96135 20.3848 3.94299 20.3956L2.6432 21.15L2.25094 22.864C2.21196 23.0375 2.12913 23.0466 2.06456 22.8821L1.45548 21.2722L0.0728477 20.7879C0.0532748 20.7811 0.0358483 20.7671 0.0228948 20.7476C0.00994148 20.7282 0.00208034 20.7044 0.000358957 20.6793C-0.00136243 20.6542 0.00313892 20.6291 0.0132626 20.6072C0.0233861 20.5854 0.0386473 20.5679 0.057011 20.5571L1.3568 19.8027L1.74906 18.0902C1.75456 18.066 1.76591 18.0444 1.78158 18.0284C1.79725 18.0123 1.8165 18.0026 1.83676 18.0004C1.85702 17.9983 1.87732 18.0039 1.89495 18.0164C1.91259 18.029 1.92671 18.0479 1.93544 18.0706L2.54452 19.679Z" fill="#FFC133"/>
<path d="M9.83941 22.6217C9.25177 21.6864 9.53358 20.4518 10.4689 19.8642L11.2046 19.4019C12.1399 18.8143 13.3744 19.0961 13.9621 20.0314L18.7502 27.652C19.3378 28.5873 19.056 29.8219 18.1207 30.4095L16.5383 31.4038C16.0706 31.6976 15.4534 31.5567 15.1595 31.0891L9.83941 22.6217Z" fill="#D2534E"/>
<path d="M12.0639 22.4045C10.0072 19.131 10.9935 14.81 14.267 12.7532C17.5405 10.6965 21.8615 11.6828 23.9182 14.9563L27.3035 20.3442C28.185 21.7471 27.7623 23.599 26.3593 24.4805L20.4322 28.2045C18.5616 29.3798 16.0925 28.8162 14.9172 26.9456L12.0639 22.4045Z" fill="#FF6F60"/>
<path d="M11.3706 21.4049C9.31381 18.1315 10.3002 13.8105 13.5736 11.7537C16.8471 9.69695 21.1681 10.6833 23.2249 13.9568L29.6166 24.1297L28.1888 24.9961C27.0641 25.6786 25.7356 25.9972 24.5158 26.4899C24.1859 26.6231 23.8283 26.7959 23.4545 27.0198C23.2691 27.1308 23.0974 27.2407 22.9384 27.3487C21.3541 28.4255 20.0531 30.1229 18.436 31.1499L17.7623 31.5778L11.3706 21.4049Z" fill="#FF6F60"/>
<rect x="12.5957" y="23.2512" width="4" height="13.0926" rx="2" transform="rotate(-32.1415 12.5957 23.2512)" fill="#FF6F60"/>
<rect x="21.0645" y="17.9312" width="4" height="13.1956" rx="2" transform="rotate(-32.1415 21.0645 17.9312)" fill="#FF6F60"/>
<rect x="15.6367" y="16.0042" width="9" height="6" rx="3" transform="rotate(-32.14 15.6367 16.0042)" fill="#D5EDFF"/>
</svg>
