<svg width="60" height="60" viewBox="0 0 60 60" fill="none" xmlns="http://www.w3.org/2000/svg">
<g clip-path="url(#clip0)">
<path d="M14.6421 28.8039L42.9462 0.499817C43.6126 -0.166606 44.6814 -0.166606 45.3478 0.499817C46.0143 1.16624 46.0143 2.23503 45.3478 2.90145L18.2509 29.9984L45.3478 57.0954C46.0143 57.7618 46.0143 58.8306 45.3478 59.497C45.0209 59.824 44.5808 60 44.1533 60C43.7258 60 43.2857 59.8365 42.9588 59.497L14.6547 31.193C13.9883 30.5391 13.9883 29.4577 14.6421 28.8039Z" fill="#C4C4C4"/>
<path d="M14.6421 28.8039L42.9462 0.499817C43.6126 -0.166606 44.6814 -0.166606 45.3478 0.499817C46.0143 1.16624 46.0143 2.23503 45.3478 2.90145L18.2509 29.9984L45.3478 57.0954C46.0143 57.7618 46.0143 58.8306 45.3478 59.497C45.0209 59.824 44.5808 60 44.1533 60C43.7258 60 43.2857 59.8365 42.9588 59.497L14.6547 31.193C13.9883 30.5391 13.9883 29.4577 14.6421 28.8039Z" fill="#BAC8CF"/>
</g>
<defs>
<clipPath id="clip0">
<rect width="60" height="60" fill="white" transform="matrix(-1 0 0 1 60 0)"/>
</clipPath>
</defs>
</svg>
