<svg width="60" height="60" fill="none" xmlns="http://www.w3.org/2000/svg"><g clip-path="url(#clip0)"><path d="M45.358 28.804L17.054.5a1.692 1.692 0 00-2.401 0 1.692 1.692 0 000 2.401L41.75 29.998 14.653 57.095a1.692 1.692 0 000 2.402c.327.327.767.503 1.194.503.428 0 .868-.163 1.195-.503l28.304-28.304a1.689 1.689 0 00.012-2.39z" fill="#C4C4C4"/><path d="M45.358 28.804L17.054.5a1.692 1.692 0 00-2.401 0 1.692 1.692 0 000 2.401L41.75 29.998 14.653 57.095a1.692 1.692 0 000 2.402c.327.327.767.503 1.194.503.428 0 .868-.163 1.195-.503l28.304-28.304a1.689 1.689 0 00.012-2.39z" fill="#BAC8CF"/></g><defs><clipPath id="clip0"><path fill="#fff" d="M0 0h60v60H0z"/></clipPath></defs></svg>