<svg width="60" height="60" fill="none" xmlns="http://www.w3.org/2000/svg"><g clip-path="url(#clip0)"><path d="M14.642 28.804L42.946.5a1.692 1.692 0 012.402 0 1.692 1.692 0 010 2.401L18.25 29.998l27.097 27.097a1.692 1.692 0 010 2.402 1.708 1.708 0 01-1.195.503c-.427 0-.867-.163-1.194-.503L14.655 31.193a1.689 1.689 0 01-.013-2.39z" fill="#C4C4C4"/><path d="M14.642 28.804L42.946.5a1.692 1.692 0 012.402 0 1.692 1.692 0 010 2.401L18.25 29.998l27.097 27.097a1.692 1.692 0 010 2.402 1.708 1.708 0 01-1.195.503c-.427 0-.867-.163-1.194-.503L14.655 31.193a1.689 1.689 0 01-.013-2.39z" fill="#BAC8CF"/></g><defs><clipPath id="clip0"><path fill="#fff" transform="matrix(-1 0 0 1 60 0)" d="M0 0h60v60H0z"/></clipPath></defs></svg>