<svg width="60" height="60" viewBox="0 0 60 60" fill="none" xmlns="http://www.w3.org/2000/svg">
<g clip-path="url(#clip0)">
<path d="M45.3584 28.8039L17.0543 0.499817C16.3879 -0.166606 15.3191 -0.166606 14.6526 0.499817C13.9862 1.16624 13.9862 2.23503 14.6526 2.90145L41.7496 29.9984L14.6526 57.0954C13.9862 57.7618 13.9862 58.8306 14.6526 59.497C14.9796 59.824 15.4197 60 15.8472 60C16.2747 60 16.7148 59.8365 17.0417 59.497L45.3458 31.193C46.0122 30.5391 46.0122 29.4577 45.3584 28.8039Z" fill="#C4C4C4"/>
<path d="M45.3584 28.8039L17.0543 0.499817C16.3879 -0.166606 15.3191 -0.166606 14.6526 0.499817C13.9862 1.16624 13.9862 2.23503 14.6526 2.90145L41.7496 29.9984L14.6526 57.0954C13.9862 57.7618 13.9862 58.8306 14.6526 59.497C14.9796 59.824 15.4197 60 15.8472 60C16.2747 60 16.7148 59.8365 17.0417 59.497L45.3458 31.193C46.0122 30.5391 46.0122 29.4577 45.3584 28.8039Z" fill="#BAC8CF"/>
</g>
<defs>
<clipPath id="clip0">
<rect width="60" height="60" fill="white"/>
</clipPath>
</defs>
</svg>
