<svg width="42" height="42" viewBox="0 0 42 42" fill="none" xmlns="http://www.w3.org/2000/svg">
<path d="M7.49997 16.0345V13.2414C7.77597 13.2414 7.99999 13.0328 7.99999 12.7758C7.99999 12.5189 7.77597 12.3103 7.49997 12.3103C6.12101 12.3103 5 13.3549 5 14.6379V15.5689C5 16.3389 5.67298 16.9655 6.49999 16.9655H7.49997C7.77597 16.9655 7.99999 16.7569 7.99999 16.5C7.99999 16.243 7.77597 16.0345 7.49997 16.0345Z" fill="#0D6DD8"/>
<path d="M34.5 12.3103C34.224 12.3103 34 12.5189 34 12.7758C34 13.0328 34.224 13.2414 34.5 13.2414V16.0345C34.224 16.0345 34 16.243 34 16.5C34 16.757 34.224 16.9655 34.5 16.9655H35.5C36.327 16.9655 37 16.3389 37 15.5689V14.6379C37 13.3549 35.879 12.3103 34.5 12.3103Z" fill="#0D6DD8"/>
<path d="M14.5908 27.2068C14.3148 27.2068 14.0908 27.4154 14.0908 27.6723H11.0908C11.0908 27.4154 10.8668 27.2068 10.5908 27.2068C10.3148 27.2068 10.0908 27.4154 10.0908 27.6723V28.6033C10.0908 29.3733 10.7638 29.9999 11.5908 29.9999H13.5909C14.4179 29.9999 15.0909 29.3733 15.0909 28.6033V27.6723C15.0909 27.4154 14.8668 27.2068 14.5908 27.2068Z" fill="#0D6DD8"/>
<path d="M31.8883 27C31.6021 27 31.3698 27.224 31.3698 27.5H28.2587C28.2587 27.224 28.0264 27 27.7402 27C27.4539 27 27.2217 27.224 27.2217 27.5V28.5C27.2217 29.327 27.9196 30 28.7772 30H30.8513C31.7089 30 32.4068 29.327 32.4068 28.5V27.5C32.4068 27.224 32.1745 27 31.8883 27Z" fill="#0D6DD8"/>
<path d="M30.7494 3H11.2495C9.45677 3 7.99951 4.28204 7.99951 5.85657V25.2814C7.99951 26.8559 9.45683 28.1379 11.2495 28.1379H30.7494C32.5421 28.1379 33.9994 26.8559 33.9994 25.2814V5.85657C33.9994 4.28204 32.5421 3 30.7494 3ZM13.8495 5.28529H28.1495C29.2246 5.28529 30.0995 6.05426 30.0995 6.99924C30.0995 7.94421 29.2246 8.71319 28.1495 8.71319H13.8495C12.7744 8.71319 11.8995 7.94421 11.8995 6.99924C11.8995 6.05426 12.7744 5.28529 13.8495 5.28529ZM13.8495 24.71C12.7744 24.71 11.8995 23.9411 11.8995 22.9961C11.8995 22.0511 12.7744 21.2821 13.8495 21.2821C14.9246 21.2821 15.7995 22.0511 15.7995 22.9961C15.7995 23.9411 14.9245 24.71 13.8495 24.71ZM28.1494 24.71C27.0743 24.71 26.1994 23.9411 26.1994 22.9961C26.1994 22.0511 27.0743 21.2821 28.1494 21.2821C29.2245 21.2821 30.0994 22.0511 30.0994 22.9961C30.0994 23.9411 29.2245 24.71 28.1494 24.71ZM31.3994 17.2829C31.3994 18.2279 30.5246 18.9969 29.4494 18.9969H12.5495C11.4743 18.9969 10.5995 18.2279 10.5995 17.2829V11.5698C10.5995 10.6248 11.4743 9.8558 12.5495 9.8558H29.4494C30.5245 9.8558 31.3994 10.6248 31.3994 11.5698V17.2829H31.3994Z" fill="#0D6DD8"/>
<rect x="11" y="20.6897" width="19.9999" height="4.65517" fill="#0D6DD8"/>
<ellipse cx="12.5" cy="23.1206" rx="1.49999" ry="1.5" fill="white"/>
<ellipse cx="29.4995" cy="23.1206" rx="1.49999" ry="1.5" fill="white"/>
</svg>
