<svg width="53" height="53" viewBox="0 0 53 53" fill="none" xmlns="http://www.w3.org/2000/svg">
<g filter="url(#filter0_d)">
<path d="M41.2796 42.7119L45.0108 42.7118C45.4753 42.7133 45.9176 42.513 46.2229 42.1629C46.5282 41.8128 46.6664 41.3474 46.6018 40.8874L42.0423 9.15253L41.2796 42.7119Z" fill="#F29C1F"/>
<path d="M39.7542 3.8136H4.66949C3.40578 3.8136 2.38135 4.83803 2.38135 6.10173V42.7119C2.38135 43.9756 3.40578 45 4.66949 45H39.7542C41.0179 45 42.0424 43.9756 42.0424 42.7119V6.10173C42.0424 4.83803 41.0179 3.8136 39.7542 3.8136Z" fill="#F0C419"/>
<path d="M38.9915 8.38986V12.9661H5.43221V8.38986C5.43472 7.54844 6.11621 6.86695 6.95764 6.86444H37.4661C38.3075 6.86695 38.989 7.54844 38.9915 8.38986Z" fill="#E64C3C"/>
<path d="M38.9915 12.9661V35.9771C38.9914 36.3836 38.8294 36.7733 38.5415 37.0602L34.1026 41.4992C33.8156 41.7871 33.426 41.949 33.0195 41.9492H6.95764C6.11621 41.9467 5.43472 41.2652 5.43221 40.4238V12.9661H38.9915Z" fill="#ECF0F1"/>
<path d="M16.1102 33.5594C18.6365 33.5568 20.6839 31.5094 20.6864 28.9831V22.8814C20.6864 20.354 18.6376 18.3051 16.1102 18.3051C13.5827 18.3051 11.5339 20.354 11.5339 22.8814V28.9831C11.5364 31.5094 13.5838 33.5568 16.1102 33.5594ZM13.0593 22.8814C13.0593 21.1964 14.4252 19.8305 16.1102 19.8305C17.7951 19.8305 19.161 21.1964 19.161 22.8814V28.9831C19.161 30.668 17.7951 32.0339 16.1102 32.0339C14.4252 32.0339 13.0593 30.668 13.0593 28.9831V22.8814Z" fill="#547580"/>
<path d="M24.5 32.0339C24.0788 32.0339 23.7373 32.3754 23.7373 32.7966C23.7373 33.2179 24.0788 33.5593 24.5 33.5593H30.6017C31.0229 33.5593 31.3644 33.2179 31.3644 32.7966C31.3644 32.3754 31.0229 32.0339 30.6017 32.0339H28.3135V19.0678C28.3135 18.7594 28.1277 18.4813 27.8427 18.3633C27.5577 18.2453 27.2297 18.3105 27.0116 18.5286L23.9608 21.5794C23.6717 21.8787 23.6758 22.3544 23.97 22.6486C24.2642 22.9428 24.74 22.9469 25.0392 22.6579L26.7881 20.909V32.0339H24.5Z" fill="#547580"/>
<path d="M30.6017 35.8475H13.0593C12.6381 35.8475 12.2966 36.189 12.2966 36.6102C12.2966 37.0314 12.6381 37.3729 13.0593 37.3729H30.6017C31.0229 37.3729 31.3644 37.0314 31.3644 36.6102C31.3644 36.189 31.0229 35.8475 30.6017 35.8475Z" fill="#35495E"/>
<path d="M38.8542 36.6102C38.7778 36.7777 38.6718 36.9301 38.5415 37.0602L34.1025 41.4992C33.9724 41.6295 33.82 41.7354 33.6525 41.8119V38.1356C33.655 37.2942 34.3365 36.6127 35.1779 36.6102H38.8542Z" fill="#D1D4D1"/>
<path d="M20.4271 3.81357H18.833C18.0707 2.06681 16.1358 1.15106 14.3016 1.66893C12.4675 2.18681 11.2972 3.97928 11.561 5.86682C11.8248 7.75435 13.4416 9.15734 15.3475 9.15255C15.7687 9.15255 16.1102 9.49403 16.1102 9.91527C16.1102 10.3365 15.7687 10.678 15.3475 10.678C12.6319 10.6783 10.3487 8.6402 10.042 5.94203C9.73528 3.24385 11.5028 0.745288 14.1491 0.136092C16.7954 -0.473103 19.4775 1.00117 20.3814 3.56188C20.4119 3.64226 20.4274 3.72758 20.4271 3.81357Z" fill="#95A5A5"/>
<path d="M34.9186 3.81357H33.3246C32.5622 2.06681 30.6273 1.15106 28.7932 1.66893C26.959 2.18681 25.7888 3.97928 26.0525 5.86682C26.3163 7.75435 27.9331 9.15734 29.839 9.15255C30.2602 9.15255 30.6017 9.49403 30.6017 9.91527C30.6017 10.3365 30.2602 10.678 29.839 10.678C27.1234 10.6783 24.8402 8.6402 24.5335 5.94203C24.2268 3.24385 25.9943 0.745288 28.6406 0.136092C31.287 -0.473103 33.969 1.00117 34.8729 3.56188C34.9034 3.64226 34.919 3.72758 34.9186 3.81357Z" fill="#95A5A5"/>
</g>
<defs>
<filter id="filter0_d" x="0" y="-0.000793457" width="53" height="53.0008" filterUnits="userSpaceOnUse" color-interpolation-filters="sRGB">
<feFlood flood-opacity="0" result="BackgroundImageFix"/>
<feColorMatrix in="SourceAlpha" type="matrix" values="0 0 0 0 0 0 0 0 0 0 0 0 0 0 0 0 0 0 127 0"/>
<feOffset dx="2" dy="4"/>
<feGaussianBlur stdDeviation="2"/>
<feColorMatrix type="matrix" values="0 0 0 0 0 0 0 0 0 0 0 0 0 0 0 0 0 0 0.25 0"/>
<feBlend mode="normal" in2="BackgroundImageFix" result="effect1_dropShadow"/>
<feBlend mode="normal" in="SourceGraphic" in2="effect1_dropShadow" result="shape"/>
</filter>
</defs>
</svg>
