<svg width="42" height="42" viewBox="0 0 42 42" fill="none" xmlns="http://www.w3.org/2000/svg">
<path d="M26.9997 22.8878C26.9997 22.5079 26.9065 22.1451 26.738 21.8132C26.7207 21.7289 26.7008 21.6446 26.676 21.5592L24.8519 17.4022L24.8396 17.3648C24.2013 15.6173 23.2932 14 20.9905 14H12.1862C9.82672 14 8.99295 15.6574 8.34073 17.3551L6.43267 21.5222C6.15683 21.9286 6 22.3935 6 22.8878V24.1813C6 24.3813 6.02571 24.5769 6.07459 24.7653C6.02707 24.8792 6 25.0018 6 25.1312V28.9784C6 29.5426 6.49736 30 7.11088 30H9.41614C10.0293 30 10.5267 29.5426 10.5267 28.9784V27.0545H22.6047V28.9784C22.6047 29.5426 23.1022 30 23.7157 30H25.889C26.5027 30 27 29.5426 27 28.9784V25.1307C27 25.0019 26.9727 24.8786 26.9255 24.7652C26.9742 24.5765 27 24.3811 27 24.1811V22.8878H26.9997V22.8878ZM9.69452 17.7724C10.4209 15.8881 11.005 15.3128 12.1862 15.3128H20.9899C22.1625 15.3128 22.8154 15.9544 23.4789 17.7643L24.81 20.2448C24.3754 20.0968 23.8971 20.0147 23.3946 20.0147H9.60515C9.15269 20.0147 8.7203 20.0816 8.32136 20.2027L9.69452 17.7724ZM10.838 24.6725H8.4057C7.96778 24.6725 7.61261 24.3456 7.61261 23.943C7.61261 23.5402 7.96778 23.2135 8.4057 23.2135H10.838C11.2761 23.2135 11.6313 23.5402 11.6313 23.943C11.6313 24.3456 11.2759 24.6725 10.838 24.6725ZM19.4302 24.5264H13.7726C13.4952 24.5264 13.2704 24.3196 13.2704 24.0647C13.2704 23.8093 13.4952 23.6025 13.7726 23.6025H19.4302C19.7079 23.6025 19.9326 23.8093 19.9326 24.0647C19.9326 24.3196 19.7079 24.5264 19.4302 24.5264ZM24.5327 24.6725H22.1005C21.6622 24.6725 21.3072 24.3456 21.3072 23.943C21.3072 23.5402 21.6625 23.2135 22.1005 23.2135H24.5327C24.971 23.2135 25.3263 23.5402 25.3263 23.943C25.3263 24.3456 24.971 24.6725 24.5327 24.6725Z" fill="#0D6DD8"/>
<path d="M34.7717 10.9755L35.4183 10.377L34.782 9.78785L34.0902 10.4281C33.4583 10.0136 32.7208 9.75815 31.9501 9.68675V8.83296H32.8501V8H30.1501V8.83296H31.0501V9.68675C30.2794 9.75815 29.5419 10.0136 28.91 10.4281L28.2182 9.78785L27.5819 10.377L28.2285 10.9755C27.6249 11.5669 27.2217 12.3091 27.0687 13.1103C26.9157 13.9115 27.0196 14.7366 27.3676 15.4837C27.7155 16.2309 28.2923 16.8674 29.0267 17.3145C29.7612 17.7617 30.621 18 31.5001 18C32.3792 18 33.239 17.7617 33.9735 17.3145C34.7079 16.8674 35.2847 16.2309 35.6326 15.4837C35.9806 14.7366 36.0845 13.9115 35.9315 13.1103C35.7785 12.3091 35.3753 11.5669 34.7717 10.9755ZM31.5001 17.1626C30.7881 17.1626 30.092 16.9672 29.5 16.6011C28.908 16.235 28.4465 15.7146 28.1741 15.1058C27.9016 14.497 27.8303 13.8271 27.9692 13.1807C28.1081 12.5344 28.451 11.9407 28.9545 11.4748C29.4579 11.0088 30.0994 10.6915 30.7978 10.5629C31.4961 10.4344 32.22 10.5003 32.8778 10.7525C33.5356 11.0047 34.0979 11.4317 34.4935 11.9797C34.889 12.5276 35.1002 13.1718 35.1002 13.8308C35.0991 14.7141 34.7195 15.561 34.0446 16.1856C33.3696 16.8103 32.4546 17.1616 31.5001 17.1626Z" fill="#0D6DD8"/>
<path d="M31.4989 11.3318V13.8307H28.7988C28.7988 14.3249 28.9572 14.8081 29.2539 15.219C29.5506 15.6299 29.9722 15.9502 30.4656 16.1394C30.959 16.3285 31.5019 16.378 32.0256 16.2816C32.5494 16.1851 33.0305 15.9471 33.4081 15.5977C33.7857 15.2482 34.0429 14.8029 34.1471 14.3182C34.2512 13.8335 34.1978 13.331 33.9934 12.8744C33.7891 12.4178 33.443 12.0275 32.999 11.7529C32.5549 11.4783 32.0329 11.3318 31.4989 11.3318Z" fill="#0D6DD8"/>
</svg>
