<svg width="42" height="42" viewBox="0 0 42 42" fill="none" xmlns="http://www.w3.org/2000/svg">
<path d="M32.3895 17.7467C32.3719 17.7254 32.3571 17.7046 32.3364 17.6838L31.4253 16.7538C32.1809 16.5725 32.9944 15.903 32.9944 15.216C32.9944 14.4156 31.9442 14.1316 31.048 14.1316C30.1108 14.1316 30.002 14.8108 29.9909 15.2906L27.6401 12.8935C27.1625 12.3934 26.2567 12 25.5796 12H21.0011H21H16.4204C15.7439 12 14.8386 12.3934 14.3604 12.8935L12.0102 15.2906C11.998 14.8108 11.8892 14.1316 10.9531 14.1316C10.0558 14.1316 9.00612 14.4156 9.00612 15.216C9.00612 15.903 9.82015 16.5725 10.5758 16.7538L9.66467 17.6838C9.64397 17.7046 9.62964 17.7254 9.6116 17.7467C8.63679 18.6279 8 20.2622 8 21.4482V24.9723C8 25.8276 8.31892 26.6038 8.83419 27.1825V28.5492C8.83419 29.3484 9.46673 30 10.2447 30H11.9502C12.7281 30 13.3602 29.3495 13.3602 28.5492V28.1995H21H21.0011H28.6404V28.5492C28.6404 29.3495 29.2719 30 30.0509 30H31.7559C32.5343 30 33.1658 29.3484 33.1658 28.5492V27.1825C33.6816 26.6038 34 25.8276 34 24.9723V21.4482C34.0011 20.2622 33.3643 18.6279 32.3895 17.7467ZM15.2238 13.9588C15.5544 13.6675 16.1323 13.4464 16.4204 13.4464H21H21.0011H25.5806C25.8688 13.4464 26.4466 13.6675 26.7772 13.9588L29.8598 17.1186H21.0011H21H12.1418L15.2238 13.9588ZM9.0576 20.915C9.0576 20.0473 9.69969 19.3429 10.4925 19.3429C11.2848 19.3429 13.8738 20.9503 13.8738 21.818C13.8738 22.6857 11.2848 22.4848 10.4925 22.4848C9.69969 22.4848 9.0576 21.7832 9.0576 20.915ZM13.3607 26.6544H13.0874H12.8141L11.193 26.6572C10.743 26.509 10.4256 26.3361 10.2012 26.1504C10.0876 26.0566 10.0006 25.959 9.93265 25.8619C9.86419 25.7636 9.81431 25.6671 9.78194 25.5706C9.58029 24.9678 9.99686 24.4138 9.99686 24.4138H12.7637L14.6083 26.6532L13.3607 26.6544ZM24.9789 26.6555H21.0011H21H17.0222C16.1928 26.6555 15.5194 25.9433 15.5194 25.0666H21H21.0011H26.4817C26.4817 25.9444 25.8083 26.6555 24.9789 26.6555ZM25.328 23.9822H21.0011H21H16.673C15.7709 23.9822 15.0386 22.8058 15.0386 21.355H21H21.0011H26.9624C26.9624 22.8064 26.2301 23.9822 25.328 23.9822ZM32.2197 25.5717C32.1867 25.6682 32.1369 25.7648 32.0684 25.8624C32.001 25.9595 31.914 26.0572 31.7999 26.1509C31.576 26.3367 31.2581 26.5107 30.8081 26.6577L29.187 26.6549H28.9137H28.6404H27.3917L29.2374 24.4155H32.0037C32.0037 24.415 32.4208 24.9678 32.2197 25.5717ZM31.5086 22.4848C30.7168 22.4848 28.1278 22.6846 28.1278 21.818C28.1278 20.9515 30.7168 19.3429 31.5086 19.3429C32.3014 19.3429 32.9435 20.0473 32.9435 20.915C32.9435 21.7821 32.3014 22.4848 31.5086 22.4848Z" fill="#0D6DD8"/>
</svg>
