<svg width="31" height="31" fill="none" xmlns="http://www.w3.org/2000/svg"><path d="M26.339 5.83a4.519 4.519 0 00-4.216-2.855h-.266v-.908H9.143v.908h-.266A4.519 4.519 0 004.661 5.83l-2.915 7.135H0v1.816h1.306c.418 0 .78.284.882.688l3.005 11.78a2.72 2.72 0 002.643 2.064h15.328c1.252 0 2.4-.85 2.703-2.064l2.945-11.78a.908.908 0 01.882-.688H31v-1.816h-1.746L26.339 5.83zm-15.38 19.85H9.143v-9.082h1.816v9.082zm5.45 0h-1.817v-9.082h1.816v9.082zm5.448 0h-1.816v-9.082h1.816v9.082zM6.347 6.504a2.711 2.711 0 012.53-1.713h.266V5.7h12.715v-.908h.265c1.12 0 2.113.673 2.53 1.713l2.644 6.461H3.703l2.645-6.461z" fill="#fff"/></svg>