<svg width="120" height="120" viewBox="0 0 120 120" fill="none" xmlns="http://www.w3.org/2000/svg">
<path d="M110.625 105.938C110.625 108.526 108.526 110.625 105.938 110.625H101.25V115.312C101.25 117.901 99.1514 120 96.5625 120C93.9736 120 91.875 117.901 91.875 115.312V110.625H87.1875C84.5986 110.625 82.5 108.526 82.5 105.938C82.5 103.349 84.5986 101.25 87.1875 101.25H91.875V96.5625C91.875 93.9736 93.9736 91.875 96.5625 91.875C99.1514 91.875 101.25 93.9736 101.25 96.5625V101.25H105.938C108.526 101.25 110.625 103.349 110.625 105.938ZM110.625 32.8125V77.8125C110.625 80.4014 108.526 82.5 105.938 82.5C103.349 82.5 101.25 80.4014 101.25 77.8125V37.5H91.875V51.5625C91.875 54.1514 89.7764 56.25 87.1875 56.25C84.5986 56.25 82.5 54.1514 82.5 51.5625V37.5H37.5V51.5625C37.5 54.1514 35.4014 56.25 32.8125 56.25C30.2236 56.25 28.125 54.1514 28.125 51.5625V37.5H18.75V110.625H68.4375C71.0264 110.625 73.125 112.724 73.125 115.312C73.125 117.901 71.0264 120 68.4375 120H14.0625C11.4736 120 9.375 117.901 9.375 115.312V32.8125C9.375 30.2236 11.4736 28.125 14.0625 28.125H28.3467C30.2088 12.3101 43.6929 0 60 0C76.3071 0 89.7912 12.3101 91.6533 28.125H105.938C108.526 28.125 110.625 30.2236 110.625 32.8125ZM82.1857 28.125C80.3951 17.4973 71.1288 9.375 60 9.375C48.8712 9.375 39.6049 17.4973 37.8143 28.125H82.1857Z" fill="black"/>
<path d="M110.625 105.938C110.625 108.526 108.526 110.625 105.938 110.625H101.25V115.312C101.25 117.901 99.1514 120 96.5625 120C93.9736 120 91.875 117.901 91.875 115.312V110.625H87.1875C84.5986 110.625 82.5 108.526 82.5 105.938C82.5 103.349 84.5986 101.25 87.1875 101.25H91.875V96.5625C91.875 93.9736 93.9736 91.875 96.5625 91.875C99.1514 91.875 101.25 93.9736 101.25 96.5625V101.25H105.938C108.526 101.25 110.625 103.349 110.625 105.938ZM110.625 32.8125V77.8125C110.625 80.4014 108.526 82.5 105.938 82.5C103.349 82.5 101.25 80.4014 101.25 77.8125V37.5H91.875V51.5625C91.875 54.1514 89.7764 56.25 87.1875 56.25C84.5986 56.25 82.5 54.1514 82.5 51.5625V37.5H37.5V51.5625C37.5 54.1514 35.4014 56.25 32.8125 56.25C30.2236 56.25 28.125 54.1514 28.125 51.5625V37.5H18.75V110.625H68.4375C71.0264 110.625 73.125 112.724 73.125 115.312C73.125 117.901 71.0264 120 68.4375 120H14.0625C11.4736 120 9.375 117.901 9.375 115.312V32.8125C9.375 30.2236 11.4736 28.125 14.0625 28.125H28.3467C30.2088 12.3101 43.6929 0 60 0C76.3071 0 89.7912 12.3101 91.6533 28.125H105.938C108.526 28.125 110.625 30.2236 110.625 32.8125ZM82.1857 28.125C80.3951 17.4973 71.1288 9.375 60 9.375C48.8712 9.375 39.6049 17.4973 37.8143 28.125H82.1857Z" fill="#C4C4C4"/>
</svg>
