<svg width="240" height="240" fill="none" xmlns="http://www.w3.org/2000/svg"><path d="M99.2 124.91c-6.67-1.42-13.15-3.71-19.19-6.89-1.7-.89-3.28-2.01-4.67-3.33-.22-.21-.41-.44-.51-.73-.13-.38-.08-.79-.03-1.18.97-7.27 2.57-14.46 4.77-21.46 0 0-9.06-20.64-10.67-29.49-1.61-8.86-1.73-18.07.45-26.8.09-.35.19-.72.47-.96.32-.26.77-.27 1.18-.26 12.46.32 25.85 4.74 36.2 11.69 5.09-4.44 21.71-11.69 34.04-12.07 3.66-11.91 11.28-23.78 20.75-31.88.31-.27.67-.55 1.08-.54.36 0 .68.23.97.45 7.2 5.41 12.9 12.64 17.23 20.53 4.33 7.89 10.29 29.63 10.29 29.63 6.12 4.05 11.89 8.63 17.22 13.67.29.27.59.56.72.94.05.13.07.27.08.41.09 1.5-.33 2.99-.88 4.39-2.75 6.89-6.58 13.3-11.24 19.06 30.81 23.72 43.32 69.12 42.31 115.25-.23 10.45-8.73 18.82-19.18 18.82h-96.17c-10.49 0-19.18-8.13-19.87-18.6l-5.35-80.65z" fill="#DCDFE2"/><path d="M201.8 93.69c-.58.43-1.14.88-1.74 1.27-2.69 1.77-5.61 3.24-7.96 5.45-4.72 4.43-6.47 11.34-5.98 17.8.49 6.45 2.96 12.58 5.62 18.48 1.47 3.26 3.06 6.58 5.63 9.07 2.07 2 4.66 3.36 6.98 5.07 2.66 1.96 4.97 4.39 6.79 7.15 1.37 2.08 2.46 4.35 3.87 6.41 2.81 4.13 6.99 7.44 11.83 8.64 3.71.92 7.79.49 11.14-1.29-4.18-31.41-15.69-59.87-36.18-78.05zM230.75 187.4c-.44 1.04-.57 2.18-.62 3.31-.19 4.12.91 8.72 4.36 10.99 1.56 1.03 3.42 1.43 5.31 1.52.1-7.48-.16-14.92-.8-22.25-.12.07-.23.17-.35.24-2.96 1.69-6.57 3.04-7.9 6.19z" fill="#A3ABB8"/><path d="M222.09 121.18l-17.75-17.75-2.09 2.09-16.5 16.5c-3.17 3.17-3.17 8.3 0 11.46 3.17 3.17 8.3 3.17 11.46 0l16.5-16.49 6.28 6.28 2.1-2.09zM17.91 121.18l17.75-17.75 2.09 2.09 16.5 16.5c3.17 3.17 3.17 8.3 0 11.46-3.17 3.17-8.3 3.17-11.46 0l-16.5-16.49-6.29 6.29-2.09-2.1z" fill="#2D303F"/><path d="M147.53 63.16c2.84 2.67 6.41 4.46 10.08 5.79 8.47 3.05 17.76 3.78 26.59 2.08 7.49-1.44 14.63-4.64 20.73-9.22-4.23-3.68-8.7-7.09-13.38-10.19 0 0-5.96-21.73-10.29-29.63-4.33-7.89-10.04-15.12-17.23-20.53-.29-.22-.61-.44-.97-.45-.41 0-.77.27-1.08.54-9.47 8.1-17.09 19.97-20.75 31.88-1.57.07-3.12.23-4.65.42-.17 8.58 2.22 17.22 6.94 24.39 1.17 1.77 2.47 3.46 4.01 4.92zM75.54 107.98c11.07 1.25 22.61-1.71 31.63-8.27 4.28-3.12 8.1-7.14 9.9-12.13.76-2.11 1.14-4.34 1.33-6.58.58-6.89-.68-13.83-2.8-20.41-1.8-5.58-4.23-10.93-6.73-16.24-.56.38-1.12.74-1.67 1.14C96.85 38.55 83.46 34.13 71 33.81c-.41-.01-.86 0-1.18.26-.28.23-.38.61-.47.96-2.18 8.73-2.06 17.94-.45 26.8s10.67 29.49 10.67 29.49c-1.72 5.45-3.06 11.03-4.03 16.66z" fill="#A3ABB8"/><path d="M175.71 238.99H64.29c-5.34 0-10.01-3.59-11.38-8.75l-18.51-69.4h171.2l-18.51 69.41a11.774 11.774 0 01-11.38 8.74zM212.89 160.84H27.11c-1.13 0-2.04-.92-2.04-2.04v-17.13h189.86v17.13c0 1.12-.92 2.04-2.04 2.04z" fill="#E44D39"/><path d="M198.68 125.87l15.54 14.98c1.48 1.43.47 3.94-1.59 3.94H27.36c-2.06 0-3.07-2.51-1.59-3.94l15.54-14.98c.78-.75 1.82-1.17 2.9-1.17h151.57c1.09 0 2.13.42 2.9 1.17z" fill="#F96E64"/><path d="M197.43 127.86l10.52 11.05c.95 1 .3 2.75-1.02 2.75H33.07c-1.32 0-1.97-1.75-1.02-2.75l10.52-11.05c.78-.82 1.83-1.28 2.91-1.28h149.03c1.09 0 2.14.46 2.92 1.28zM140.38 212.57l-.35-.35a5.981 5.981 0 010-8.45l16.51-16.51a5.981 5.981 0 018.45 0l.35.35a5.981 5.981 0 010 8.45l-16.51 16.51a5.963 5.963 0 01-8.45 0z" fill="#BA2F25"/><path d="M156.36 187.43l-16.16 16.16a6.12 6.12 0 00-1.72 3.36c.21 1.23.77 2.41 1.72 3.36 2.43 2.43 6.37 2.43 8.81 0l16.16-16.16a6.12 6.12 0 001.72-3.36 6.186 6.186 0 00-1.72-3.36c-2.44-2.43-6.38-2.43-8.81 0z" fill="#7A1A17"/><path d="M107.69 212.57l-.35-.35a5.981 5.981 0 010-8.45l16.51-16.51a5.981 5.981 0 018.45 0l.35.35a5.981 5.981 0 010 8.45l-16.51 16.51a5.963 5.963 0 01-8.45 0z" fill="#BA2F25"/><path d="M123.68 187.43l-16.16 16.16a6.12 6.12 0 00-1.72 3.36c.21 1.23.77 2.41 1.72 3.36 2.43 2.43 6.37 2.43 8.81 0l16.16-16.16a6.12 6.12 0 001.72-3.36 6.186 6.186 0 00-1.72-3.36c-2.44-2.43-6.38-2.43-8.81 0z" fill="#7A1A17"/><path d="M75.01 212.57l-.35-.35a5.981 5.981 0 010-8.45l16.51-16.51a5.981 5.981 0 018.45 0l.35.35a5.981 5.981 0 010 8.45l-16.51 16.51a5.963 5.963 0 01-8.45 0z" fill="#BA2F25"/><path d="M91 187.43l-16.16 16.16a6.12 6.12 0 00-1.72 3.36c.21 1.23.77 2.41 1.72 3.36 2.43 2.43 6.37 2.43 8.81 0l16.16-16.16a6.12 6.12 0 001.72-3.36 6.186 6.186 0 00-1.72-3.36c-2.44-2.43-6.38-2.43-8.81 0z" fill="#7A1A17"/><path d="M203.57 168.43H36.43l-2.03-7.59h171.2l-2.03 7.59z" fill="#BA2F25"/><path d="M111.38 96.55c7.594 0 13.75-6.156 13.75-13.75s-6.156-13.75-13.75-13.75-13.75 6.156-13.75 13.75 6.156 13.75 13.75 13.75zM160.15 78.23c7.594 0 13.75-6.156 13.75-13.75s-6.156-13.75-13.75-13.75-13.75 6.156-13.75 13.75 6.156 13.75 13.75 13.75z" fill="#fff"/><path d="M146.56 85.71a2 2 0 00-1.61-.87c-3.46-.01-6.45 1.07-8.82 3.34a1.99 1.99 0 00-.6 1.69c.08.63.46 1.18 1.02 1.48l5.3 2.9c.29.16.62.24.95.24.23 0 .47-.04.69-.12.54-.2.97-.63 1.17-1.17l2.12-5.68c.23-.6.14-1.28-.22-1.81z" fill="#E44D39"/><path d="M159.08 98.69l-14.37-2.87c-.4-.09-.82.09-1.06.43l-8.36 11.96c-.33.47-.21 1.12.26 1.45.18.13.39.19.6.19.33 0 .65-.15.85-.45l7.97-11.4 13.7 2.73c.55.11 1.11-.25 1.23-.82.11-.56-.26-1.11-.82-1.22z" fill="#515A69"/><path d="M119.92 85.61c-.99 1.77-2.86 2.98-5.03 2.98-3.19 0-5.78-2.59-5.78-5.78 0-.28.04-.55.08-.82-4.44.04-8.44 1.79-11.03 4.6 1.47 5.16 5.91 9.19 11.57 9.88 5.66.69 10.93-2.17 13.6-6.83-.83-1.52-2-2.88-3.41-4.03zM169.21 66.34c-1.06 1.36-2.69 2.26-4.55 2.26-2.84 0-5.2-2.06-5.68-4.76-4.87.35-9.07 2.68-11.47 6.06 2.11 4.93 7.02 8.37 12.72 8.34 5.7-.03 10.57-3.53 12.63-8.49-.96-1.32-2.21-2.47-3.65-3.41z" fill="#73C04D"/><path d="M100.18 88.08c.87 1.67 2.11 3.09 3.6 4.24.19.15.55.16.77.1.23-.06.48-.24.6-.46.12-.23.18-.51.1-.77-.09-.26-.24-.43-.46-.6.08.06.14.11.02.02-.04-.03-.08-.07-.13-.1-.07-.06-.15-.12-.22-.19-.15-.13-.31-.27-.45-.41-.3-.29-.59-.6-.86-.92-.06-.07-.12-.15-.18-.23-.11-.14.09.12.02.02-.03-.04-.06-.09-.1-.13a10.652 10.652 0 01-.98-1.59c-.24-.47-.93-.64-1.37-.36-.48.32-.62.88-.36 1.38zM149.7 71.28c.95 1.42 2.26 2.61 3.81 3.34.25.12.5.18.77.1.23-.06.48-.24.6-.46.24-.44.15-1.13-.36-1.37-.34-.16-.66-.34-.97-.54-.16-.1-.31-.21-.46-.32a.828.828 0 01.03.02c-.03-.02-.06-.05-.09-.07-.08-.06-.16-.13-.24-.2-.28-.24-.55-.5-.79-.78l-.18-.21c-.03-.04-.06-.07-.09-.11-.02-.03-.13-.17-.03-.03.1.13 0 0-.02-.03l-.08-.11c-.06-.08-.12-.17-.17-.25-.29-.43-.9-.66-1.37-.36-.44.29-.67.91-.36 1.38z" fill="#A1EC7C"/><path d="M139.9 79.18a8.24 8.24 0 00-5.8 2.49c-.38.39-.42 1.09 0 1.47.41.38 1.07.42 1.47 0 .16-.17.32-.32.5-.47.04-.04.08-.07.12-.1.01-.01.03-.03.05-.04.02-.02.05-.04.06-.04.04-.03.09-.06.13-.09.38-.26.78-.47 1.19-.66.05-.02.09-.04.14-.05.1-.04.2-.07.31-.11.22-.07.44-.13.66-.18l.32-.06c.01 0 .04-.01.08-.02h.05c.24-.02.48-.04.73-.04.54-.01 1.07-.48 1.04-1.04-.03-.58-.47-1.07-1.05-1.06z" fill="#A3ABB8"/><path d="M92.72 54.28c-4.46-3.05-9.36-4.78-14.71-5.08a.973.973 0 00-1 .79c-1.11 5.52 1.16 16.86 3.81 21.05.43.58 1.32.51 1.66-.12.71-1.34 1.91-3.53 3.35-5.88.23-.38.29-.84.15-1.26l-.86-2.57a.57.57 0 01.78-.7l1.09.5c.65.29 1.41.1 1.83-.48 1.31-1.83 2.69-3.51 4-4.69.46-.44.43-1.2-.1-1.56zM158.47 31.62c1.63-5.16 4.42-9.53 8.45-13.07.36-.32.91-.31 1.28.01 4.28 3.66 9.47 13.99 9.97 18.92a.978.978 0 01-1.38.92c-1.39-.62-3.68-1.6-6.27-2.57-.41-.15-.74-.48-.89-.9l-.91-2.56a.573.573 0 00-1.05-.07l-.55 1.06c-.33.63-1.05.95-1.73.75-2.16-.63-4.28-1.1-6.04-1.23-.63-.04-1.07-.66-.88-1.26z" fill="#515A69"/><path d="M197.94 145.33l24.15-24.15-17.75-17.75 5.53-5.53a3.126 3.126 0 014.42 0l24.79 24.79a3.126 3.126 0 010 4.42l-5.53 5.53-24.47 24.47a8.1 8.1 0 01-11.76-.32c-2.94-3.25-2.48-8.35.62-11.46zM42.06 145.33l-24.15-24.15 17.75-17.75-5.53-5.53a3.126 3.126 0 00-4.42 0L.92 122.7a3.126 3.126 0 000 4.42l5.53 5.53 24.47 24.47a8.1 8.1 0 0011.76-.32c2.94-3.26 2.48-8.36-.62-11.47z" fill="#505772"/><path d="M177.32 77.25c-.45-.42-1.02-.36-1.47 0-1.64 1.31-3.29 2.62-4.93 3.93-.43.34-.38 1.12 0 1.47.45.42 1.02.36 1.47 0 1.64-1.31 3.29-2.62 4.93-3.93.43-.34.38-1.12 0-1.47zM180.81 86.87c-2.22.19-4.41.57-6.56 1.15-.53.14-.9.75-.73 1.28.17.54.72.88 1.28.73 2.02-.55 4.01-.91 6.01-1.08.54-.05 1.07-.45 1.04-1.04-.02-.52-.46-1.09-1.04-1.04zM116.41 103.11c-.02-.52-.46-1.1-1.04-1.04-2.23.22-4.46.39-6.7.53-.54.03-1.07.46-1.04 1.04.02.54.46 1.08 1.04 1.04 2.24-.14 4.47-.31 6.7-.53.54-.05 1.07-.44 1.04-1.04zM120.23 106.66c-.5-.27-1.13-.13-1.43.37-1.02 1.7-2.12 3.35-3.3 4.95-.33.44-.09 1.18.37 1.43.54.29 1.08.1 1.43-.37 1.18-1.59 2.28-3.25 3.3-4.95.28-.47.12-1.17-.37-1.43z" fill="#515A69"/><path d="M102.52 124.7c-.87-2.48-2.08-4.63-3.69-6.71-3.27-4.22-8.76-6.61-14.08-6.14-5.32.47-10.3 3.8-12.78 8.53-1.49 2.85-2.1 6.12-1.91 9.33.08 1.43.32 2.87.91 4.18 1.44 3.2 4.83 5.19 8.29 5.77 4.08.68 8.43-.43 11.7-2.97 3.27-2.54 5.35-7.87 5.7-11.99h5.86z" fill="#A3ABB8"/><path d="M73.69 137.26l1.7-4.14-3.52 2.28c.51.7 1.13 1.32 1.82 1.86zM83.46 139.73l-1.89-4.65-1.18 4.71c1.03.08 2.05.06 3.07-.06z" fill="#515A69"/></svg>