<svg width="20" height="16" viewBox="0 0 20 16" fill="none" xmlns="http://www.w3.org/2000/svg">
<path fill-rule="evenodd" clip-rule="evenodd" d="M19.3304 9.67198L16.4195 0.617977C16.2556 0.109311 15.6756 -0.0566894 15.3072 0.300644L12.6853 2.84598C11.7143 2.07398 8.12269 2.07398 7.15173 2.84598L4.52979 0.300644C4.1614 -0.0566894 3.58076 0.109311 3.41753 0.617977L0.506566 9.67198C-0.0889176 11.5246 0.672373 13.59 2.29173 14.4233C4.33753 15.476 6.92399 15.9673 9.91882 15.9673C12.913 15.9673 15.4995 15.476 17.5453 14.4233C19.1646 13.59 19.9259 11.5246 19.3304 9.67198Z" fill="#0060CF"/>
<path fill-rule="evenodd" clip-rule="evenodd" d="M19.3304 9.67198L16.4195 0.617977C16.2556 0.109311 15.6756 -0.0566894 15.3072 0.300644L12.6853 2.84598C11.7143 2.07398 8.12269 2.07398 7.15173 2.84598L4.52979 0.300644C4.1614 -0.0566894 3.58076 0.109311 3.41753 0.617977L0.506566 9.67198C-0.0889176 11.5246 0.672373 13.59 2.29173 14.4233C4.33753 15.476 6.92399 15.9673 9.91882 15.9673C12.913 15.9673 15.4995 15.476 17.5453 14.4233C19.1646 13.59 19.9259 11.5246 19.3304 9.67198Z" fill="#C4C4C4"/>
</svg>
