<svg width="30" height="24" viewBox="0 0 30 24" fill="none" xmlns="http://www.w3.org/2000/svg">
<path d="M3.08911 20.9933L3.08902 20.9928L1.0107 8.69856C1.01069 8.69851 1.01068 8.69846 1.01067 8.69841C1.01066 8.69833 1.01065 8.69824 1.01063 8.69816C0.963834 8.41976 1.07429 8.14931 1.27507 7.99322L1.27507 7.99323L1.27803 7.9909C1.46862 7.84158 1.72366 7.81408 1.94684 7.92287C1.94725 7.92307 1.94765 7.92327 1.94806 7.92346L8.07497 10.9527L8.93456 11.3777L9.39522 10.5367L14.4253 1.35339L14.4256 1.35287C14.683 0.882376 15.317 0.882375 15.5744 1.35287L15.5747 1.35339L20.6048 10.5367L21.0654 11.3777L21.925 10.9527L28.053 7.92295C28.0532 7.92284 28.0534 7.92273 28.0537 7.92262C28.2744 7.81446 28.5309 7.84123 28.722 7.99091L28.7249 7.99322C28.9258 8.14938 29.0363 8.42002 28.9893 8.69856L26.911 20.9911L26.9109 20.9918C26.7119 22.1737 25.7259 23 24.6136 23H5.38642C4.27379 23 3.28792 22.1734 3.08911 20.9933Z" stroke="url(#paint0_linear23)" stroke-width="2"/>
<defs>
<linearGradient id="paint0_linear23" x1="0" y1="12.1846" x2="30" y2="12.1846" gradientUnits="userSpaceOnUse">
<stop stop-color="#35A3FF"/>
<stop offset="0.680951" stop-color="#0D6DD8"/>
<stop offset="1" stop-color="#33A0FD"/>
</linearGradient>
</defs>
</svg>
