<svg width="20" height="20" fill="none" xmlns="http://www.w3.org/2000/svg"><path d="M4.667 16.222c0 .982.796 1.778 1.778 1.778h7.11c.983 0 1.779-.796 1.779-1.778V5.556H4.667v10.666z" fill="#000"/><path d="M4.667 16.222c0 .982.796 1.778 1.778 1.778h7.11c.983 0 1.779-.796 1.779-1.778V5.556H4.667v10.666z" fill="#FF6464"/><path d="M13.111 2.889L12.222 2H7.778l-.89.889h-3.11v1.778h12.444V2.889h-3.11z" fill="#000"/><path d="M13.111 2.889L12.222 2H7.778l-.89.889h-3.11v1.778h12.444V2.889h-3.11z" fill="#FF6464"/></svg>