<svg width="20" height="20" viewBox="0 0 20 20" fill="none" xmlns="http://www.w3.org/2000/svg">
<path d="M4.66699 16.2222C4.66699 17.2045 5.46253 18 6.44478 18H13.5559C14.5381 18 15.3337 17.2045 15.3337 16.2222V5.55554H4.66699V16.2222Z" fill="black"/>
<path d="M4.66699 16.2222C4.66699 17.2045 5.46253 18 6.44478 18H13.5559C14.5381 18 15.3337 17.2045 15.3337 16.2222V5.55554H4.66699V16.2222Z" fill="#FF6464"/>
<path d="M13.1112 2.88888L12.2222 2H7.77783L6.88892 2.88888H3.77783V4.66667H16.2222V2.88888H13.1112Z" fill="black"/>
<path d="M13.1112 2.88888L12.2222 2H7.77783L6.88892 2.88888H3.77783V4.66667H16.2222V2.88888H13.1112Z" fill="#FF6464"/>
</svg>
