<?xml version="1.0" encoding="utf-8"?>
<!-- Generator: Adobe Illustrator 24.1.2, SVG Export Plug-In . SVG Version: 6.00 Build 0)  -->
<svg version="1.1" id="Layer_1" xmlns="http://www.w3.org/2000/svg" xmlns:xlink="http://www.w3.org/1999/xlink" x="0px" y="0px"
	 viewBox="0 0 38.9 29.6" style="enable-background:new 0 0 38.9 29.6;" xml:space="preserve">
<style type="text/css">
	.Drop_x0020_Shadow{fill:none;}
	.Round_x0020_Corners_x0020_2_x0020_pt{fill:#FFFFFF;stroke:#1D1D1B;stroke-miterlimit:10;}
	.Live_x0020_Reflect_x0020_X{fill:none;}
	.Bevel_x0020_Soft{fill:url(#SVGID_1_);}
	.Dusk{fill:#FFFFFF;}
	.Foliage_GS{fill:#FFDD00;}
	.Pompadour_GS{fill-rule:evenodd;clip-rule:evenodd;fill:#51AEE2;}
	.st0{fill:#FFFFFF;}
</style>
<linearGradient id="SVGID_1_" gradientUnits="userSpaceOnUse" x1="-110.5271" y1="-150.2196" x2="-109.82" y2="-149.5125">
	<stop  offset="0" style="stop-color:#E6E6EB"/>
	<stop  offset="0.1754" style="stop-color:#E2E2E7"/>
	<stop  offset="0.3552" style="stop-color:#D6D6DB"/>
	<stop  offset="0.5371" style="stop-color:#C2C3C6"/>
	<stop  offset="0.7204" style="stop-color:#A5A7A9"/>
	<stop  offset="0.9031" style="stop-color:#818485"/>
	<stop  offset="1" style="stop-color:#6B6E6E"/>
</linearGradient>
<g>
	<path class="st0" d="M33,2.4c-2.5-1.1-5.1-2-7.9-2.5c-0.1,0-0.1,0-0.1,0.1c-0.3,0.6-0.7,1.4-1,2c-3-0.4-6-0.4-8.9,0
		c-0.3-0.6-0.7-1.4-1-2c0,0-0.1-0.1-0.1-0.1C11.1,0.4,8.5,1.3,6,2.4c0,0,0,0-0.1,0c-5,7.5-6.4,14.9-5.8,22.2c0,0,0,0.1,0.1,0.1
		c3.3,2.4,6.6,3.9,9.7,4.9c0.1,0,0.1,0,0.1,0c0.7-1,1.4-2.1,2-3.2c0-0.1,0-0.1-0.1-0.2c-1.1-0.4-2.1-0.9-3-1.4c-0.1,0-0.1-0.2,0-0.2
		c0.2-0.2,0.4-0.3,0.6-0.5c0,0,0.1,0,0.1,0c6.4,2.9,13.3,2.9,19.6,0c0,0,0.1,0,0.1,0c0.2,0.2,0.4,0.3,0.6,0.5c0.1,0.1,0.1,0.2,0,0.2
		c-1,0.6-2,1-3,1.4c-0.1,0-0.1,0.1-0.1,0.2c0.6,1.1,1.3,2.2,2,3.2c0,0,0.1,0.1,0.1,0c3.2-1,6.4-2.5,9.7-4.9c0,0,0-0.1,0.1-0.1
		C39.6,16.2,37.4,8.9,33,2.4C33,2.4,33,2.4,33,2.4z M13,20.2c-1.9,0-3.5-1.8-3.5-3.9c0-2.2,1.6-3.9,3.5-3.9c2,0,3.5,1.8,3.5,3.9
		C16.5,18.4,15,20.2,13,20.2z M26,20.2c-1.9,0-3.5-1.8-3.5-3.9c0-2.2,1.6-3.9,3.5-3.9c2,0,3.5,1.8,3.5,3.9
		C29.5,18.4,27.9,20.2,26,20.2z"/>
</g>
</svg>
