<svg width="25" height="25" viewBox="0 0 25 25" fill="none" xmlns="http://www.w3.org/2000/svg">
<path d="M22.8027 2.97852H2.19727C0.987207 2.97852 0 3.96465 0 5.17578V19.8242C0 21.0312 0.982813 22.0215 2.19727 22.0215H22.8027C24.0098 22.0215 25 21.0387 25 19.8242V5.17578C25 3.96875 24.0172 2.97852 22.8027 2.97852ZM22.4993 4.44336L12.5466 14.3961L2.50776 4.44336H22.4993ZM1.46484 19.5209V5.47212L8.51948 12.4663L1.46484 19.5209ZM2.50063 20.5566L9.55972 13.4976L12.0332 15.9498C12.3195 16.2337 12.7816 16.2328 13.0667 15.9476L15.4785 13.5358L22.4994 20.5566H2.50063ZM23.5352 19.5208L16.5143 12.5L23.5352 5.4791V19.5208Z" fill="#C4C4C4"/>
</svg>
