<svg width="45" height="45" viewBox="0 0 45 45" fill="none" xmlns="http://www.w3.org/2000/svg">
<path d="M14.3228 4.00543C15.3309 4.00543 16.1481 3.18825 16.1481 2.18021C16.1481 1.17216 15.3309 0.35498 14.3228 0.35498C13.3148 0.35498 12.4976 1.17216 12.4976 2.18021C12.4976 3.18825 13.3148 4.00543 14.3228 4.00543Z" fill="#A274BF"/>
<path d="M1.82522 36.1377C2.83327 36.1377 3.65045 35.3206 3.65045 34.3125C3.65045 33.3045 2.83327 32.4873 1.82522 32.4873C0.817181 32.4873 0 33.3045 0 34.3125C0 35.3206 0.817181 36.1377 1.82522 36.1377Z" fill="#7ACAA6"/>
<path d="M43.1747 36.1377C44.1828 36.1377 44.9999 35.3206 44.9999 34.3125C44.9999 33.3045 44.1828 32.4873 43.1747 32.4873C42.1667 32.4873 41.3495 33.3045 41.3495 34.3125C41.3495 35.3206 42.1667 36.1377 43.1747 36.1377Z" fill="#A274BF"/>
<path d="M43.0722 4.51813C44.0802 4.51813 44.8974 3.70094 44.8974 2.6929C44.8974 1.68486 44.0802 0.867676 43.0722 0.867676C42.0641 0.867676 41.2469 1.68486 41.2469 2.6929C41.2469 3.70094 42.0641 4.51813 43.0722 4.51813Z" fill="#26A6FE"/>
<path d="M44.8977 2.69315C44.8977 3.701 44.0799 4.51882 43.0721 4.51882C42.3456 4.51882 41.7187 4.09448 41.4255 3.48022C41.6074 3.54174 41.8028 3.57522 42.0063 3.57522C43.015 3.57522 43.832 2.75828 43.832 1.75044C43.832 1.4691 43.7677 1.20218 43.6537 0.963379C44.3766 1.20578 44.8977 1.88887 44.8977 2.69315Z" fill="#0593FC"/>
<path d="M45 34.3118C45 35.3196 44.1822 36.1375 43.1743 36.1375C42.4478 36.1375 41.8209 35.7131 41.5278 35.0989C41.7096 35.1604 41.905 35.1939 42.1086 35.1939C43.1173 35.1939 43.9342 34.3769 43.9342 33.3691C43.9342 33.0878 43.87 32.8208 43.756 32.582C44.4789 32.8245 45 33.5075 45 34.3118Z" fill="#925CB4"/>
<path d="M16.148 2.17948C16.148 3.18732 15.3302 4.00515 14.3224 4.00515C13.5959 4.00515 12.969 3.58081 12.6758 2.96654C12.8577 3.02807 13.0531 3.06155 13.2566 3.06155C14.2653 3.06155 15.0823 2.24461 15.0823 1.23677C15.0823 0.95543 15.018 0.688506 14.904 0.449707C15.6269 0.692109 16.148 1.3752 16.148 2.17948Z" fill="#925CB4"/>
<path d="M3.65037 34.3118C3.65037 35.3196 2.83255 36.1375 1.8247 36.1375C1.0982 36.1375 0.471277 35.7131 0.178162 35.0989C0.360007 35.1604 0.555388 35.1939 0.758943 35.1939C1.76766 35.1939 2.58461 34.3769 2.58461 33.3691C2.58461 33.0878 2.52036 32.8208 2.40636 32.582C3.12927 32.8245 3.65037 33.5075 3.65037 34.3118Z" fill="#57BE92"/>
<path d="M31.3177 32.5025C34.2265 33.1448 38.5894 34.8868 41.3375 39.6079C42.2073 41.1022 41.5703 43.0215 39.9809 43.7023C38.4693 44.35 36.7161 43.6052 36.1484 42.0619C35.3233 39.8187 33.7035 36.6545 30.608 33.8952C29.9844 33.3394 30.5021 32.3224 31.3177 32.5025Z" fill="#26A6FE"/>
<path d="M39.9807 43.7029C39.8721 43.7499 39.7617 43.7888 39.6513 43.8213C40.2014 42.9492 40.2702 41.8029 39.7074 40.8349C37.2656 36.6407 33.5491 34.7969 30.7101 33.9872C30.6767 33.9573 30.6423 33.9265 30.6079 33.8958C29.9846 33.3394 30.5021 32.3225 31.3181 32.5025C34.2267 33.1448 38.5892 34.8873 41.3377 39.608C42.2072 41.1027 41.5702 43.0216 39.9807 43.7029Z" fill="#0593FC"/>
<path d="M16.6242 14.5109C15.9006 11.7165 13.6513 5.5491 7.73426 4.49108C6.22474 4.22116 4.76435 5.17109 4.38633 6.65714C3.99961 8.1773 4.87799 9.72936 6.37837 10.1866C8.46384 10.8221 11.6755 12.1795 15.8024 15.0781C16.2068 15.3623 16.7481 14.9894 16.6242 14.5109Z" fill="#FE7701"/>
<path d="M32.8399 26.164C34.5901 25.4042 38.718 24.0669 41.6763 26.719C42.431 27.3956 42.5303 28.5428 41.9098 29.3443C41.2753 30.1641 40.1094 30.338 39.2607 29.7424C38.0812 28.9144 36.0675 27.7936 32.8786 26.8229C32.5662 26.7278 32.5403 26.2941 32.8399 26.164Z" fill="#FE7701"/>
<path d="M41.9095 29.3442C41.7521 29.5477 41.5621 29.7106 41.3522 29.8328C41.3802 29.271 41.1631 28.7037 40.7152 28.302C38.5529 26.3641 35.7665 26.5568 33.7391 27.0978C33.4622 27.0046 33.1754 26.9132 32.8787 26.8228C32.5657 26.7278 32.5403 26.2944 32.8398 26.1641C34.5904 25.4041 38.7177 24.0671 41.6761 26.7187C42.4306 27.3955 42.5301 28.5426 41.9095 29.3442Z" fill="#F46700"/>
<path d="M12.0575 26.164C10.3074 25.4042 6.1794 24.0669 3.22109 26.719C2.46637 27.3956 2.36714 28.5428 2.98756 29.3443C3.62213 30.1641 4.788 30.338 5.63668 29.7424C6.81617 28.9144 8.82992 27.7936 12.0189 26.8229C12.3312 26.7278 12.3571 26.2941 12.0575 26.164Z" fill="#26A6FE"/>
<path d="M22.4487 1.85254C20.7424 1.85254 19.6943 3.5084 19.825 5.26727C19.9787 7.33647 21.1743 9.23755 22.1082 11.0623C22.2574 11.3539 22.6398 11.3539 22.7891 11.0623C23.7229 9.23755 24.9186 7.33647 25.0723 5.26727C25.2031 3.5084 24.1551 1.85254 22.4487 1.85254Z" fill="#26A6FE"/>
<path d="M25.0721 5.2674C24.9183 7.33644 23.7231 9.23813 22.7895 11.0629C22.6402 11.3542 22.2574 11.3542 22.1082 11.0629C21.8983 10.6531 21.6748 10.2387 21.4541 9.81988C22.2177 8.37504 22.9622 6.87141 23.0817 5.2674C23.1848 3.88321 22.557 2.56231 21.4532 2.06291C21.7518 1.92809 22.0856 1.85303 22.4484 1.85303C24.1547 1.85303 25.2033 3.50871 25.0721 5.2674Z" fill="#0593FC"/>
<path d="M26.0584 34.9493C27.3855 36.3201 30.0898 39.7136 28.6483 43.4159C28.2806 44.3604 27.2416 44.857 26.2731 44.5583C25.2824 44.2528 24.7093 43.2226 24.9683 42.2187C25.3282 40.8234 25.6689 38.544 25.4553 35.2175C25.4344 34.8915 25.8312 34.7146 26.0584 34.9493Z" fill="#7ACAA6"/>
<path d="M28.6484 43.4157C28.2802 44.3602 27.2416 44.8569 26.2736 44.5583C26.1451 44.5185 26.023 44.4669 25.909 44.4037C26.2935 44.1938 26.6065 43.8527 26.7767 43.4157C27.8117 40.7577 26.7088 38.258 25.5137 36.5527C25.5046 36.1274 25.4857 35.6832 25.4558 35.2173C25.4341 34.8916 25.8312 34.7143 26.0583 34.9495C27.3854 36.3201 30.0895 39.7136 28.6484 43.4157Z" fill="#57BE92"/>
<path d="M13.5797 32.5025C10.671 33.1448 6.30802 34.8868 3.55995 39.6079C2.69018 41.1022 3.32721 43.0215 4.91654 43.7023C6.42817 44.35 8.18132 43.6052 8.7491 42.0619C9.57421 39.8187 11.1939 36.6545 14.2895 33.8952C14.913 33.3394 14.3954 32.3224 13.5797 32.5025Z" fill="#A274BF"/>
<path d="M31.8425 18.2612C33.674 16.9656 38.1036 14.4333 42.1466 16.7741C43.178 17.3712 43.5683 18.6678 43.047 19.7396C42.5139 20.836 41.2138 21.3165 40.0938 20.8352C38.5369 20.166 35.9495 19.3604 32.0456 19.0104C31.6631 18.976 31.5289 18.483 31.8425 18.2612Z" fill="#A274BF"/>
<path d="M43.0467 19.7396C42.9399 19.9594 42.8025 20.154 42.6415 20.3214C42.6786 19.499 42.2669 18.6883 41.5133 18.2523C38.1297 16.2937 34.4747 17.7484 32.2998 19.0339C32.2157 19.0249 32.1315 19.0167 32.0456 19.0095C31.663 18.976 31.529 18.4829 31.843 18.2604C33.6741 16.9649 38.1035 14.4326 42.1466 16.774C43.178 17.3711 43.5687 18.6676 43.0467 19.7396Z" fill="#925CB4"/>
<path d="M18.839 34.9493C17.5119 36.3201 14.8076 39.7136 16.2491 43.4159C16.6168 44.3604 17.6558 44.857 18.6244 44.5583C19.6151 44.2528 20.1881 43.2226 19.9292 42.2187C19.5693 40.8234 19.2286 38.544 19.4422 35.2175C19.463 34.8915 19.0662 34.7146 18.839 34.9493Z" fill="#FE7701"/>
<path d="M13.0549 18.2612C11.2234 16.9656 6.79385 14.4333 2.75079 16.7741C1.71939 17.3712 1.32907 18.6678 1.85035 19.7396C2.38349 20.836 3.68357 21.3165 4.80365 20.8352C6.36046 20.166 8.94787 19.3604 12.8518 19.0104C13.2343 18.976 13.3685 18.483 13.0549 18.2612Z" fill="#7ACAA6"/>
<path d="M28.2731 14.5113C28.9968 11.7169 31.2461 5.5495 37.1631 4.49157C38.6726 4.22165 40.133 5.17157 40.511 6.65763C40.8978 8.17779 40.0194 9.72985 38.519 10.1871C36.4335 10.8226 33.2218 12.18 29.0949 15.0786C28.6905 15.3627 28.1492 14.9897 28.2731 14.5113Z" fill="#7ACAA6"/>
<path d="M40.5452 6.81339C39.9065 6.29141 39.0542 6.04347 38.1866 6.19816C33.2443 7.0811 30.8612 11.5296 29.7882 14.6001C29.5603 14.7548 29.3295 14.9141 29.0952 15.0787C28.6908 15.3628 28.1489 14.9891 28.2728 14.5115C28.9966 11.7168 31.2457 5.54952 37.1633 4.49097C38.6724 4.22141 40.1325 5.17133 40.5107 6.65774C40.5244 6.70933 40.5352 6.7618 40.5452 6.81339Z" fill="#57BE92"/>
<path d="M23.4546 16.1366L25.0966 19.4636C25.26 19.7947 25.5759 20.0242 25.9412 20.0773L29.6129 20.6108C30.533 20.7444 30.9004 21.8752 30.2346 22.5241L27.5779 25.1138C27.3135 25.3715 27.1928 25.7429 27.2552 26.1067L27.8824 29.7635C28.0395 30.6799 27.0778 31.3787 26.2548 30.9461L22.9708 29.2196C22.644 29.0477 22.2536 29.0477 21.9268 29.2196L18.6428 30.9461C17.8198 31.3788 16.858 30.68 17.0152 29.7635L17.6423 26.1067C17.7047 25.7429 17.5841 25.3715 17.3197 25.1138L14.6629 22.5241C13.9972 21.8752 14.3646 20.7444 15.2847 20.6108L18.9563 20.0773C19.3217 20.0242 19.6376 19.7947 19.8009 19.4636L21.4429 16.1366C21.8542 15.3028 23.0431 15.3028 23.4546 16.1366Z" fill="#FDB441"/>
<path d="M27.5781 25.1135C27.313 25.3713 27.1927 25.7431 27.2551 26.1068L27.882 29.7636C28.0394 30.68 27.0777 31.3785 26.2545 30.9461L25.5216 30.5607C25.8537 30.3101 26.0572 29.8894 25.9757 29.4126L25.3108 25.5342C25.2438 25.1479 25.3723 24.7543 25.6528 24.4811L28.47 21.7344C28.8318 21.3825 28.906 20.8967 28.7614 20.4868L29.6127 20.6107C30.5328 20.7446 30.9001 21.8755 30.2342 22.5242L27.5781 25.1135Z" fill="#FEA613"/>
</svg>
