<svg width="34" height="22" viewBox="0 0 34 22" fill="none" xmlns="http://www.w3.org/2000/svg">
<path d="M11 3.54775H16V17.0109H11C7.68054 17.0109 7.8031 20.9973 3.5 21C2.00009 21.0009 0.999974 20.0037 1 18.5068C1.00003 16.93 1.16166 8.53792 4.5 3.54775C5.50011 2.05278 6.99998 0.709847 8.5 1.05457C9.84545 1.36378 11 3.54775 11 3.54775Z" stroke="#C4C4C4" stroke-width="2"/>
<path d="M11 3.54775H16V17.0109H11C7.68054 17.0109 7.8031 20.9973 3.5 21C2.00009 21.0009 0.999974 20.0037 1 18.5068C1.00003 16.93 1.16166 8.53792 4.5 3.54775C5.50011 2.05278 6.99998 0.709847 8.5 1.05457C9.84545 1.36378 11 3.54775 11 3.54775Z" stroke="#BAC8CF" stroke-width="2"/>
<path d="M23 3.54775H18V17.0109H23C26.3195 17.0109 26.1969 20.9973 30.5 21C31.9999 21.0009 33 20.0037 33 18.5068C33 16.93 32.8383 8.53792 29.5 3.54775C28.4999 2.05278 27 0.709847 25.5 1.05457C24.1546 1.36378 23 3.54775 23 3.54775Z" stroke="#C4C4C4" stroke-width="2"/>
<path d="M23 3.54775H18V17.0109H23C26.3195 17.0109 26.1969 20.9973 30.5 21C31.9999 21.0009 33 20.0037 33 18.5068C33 16.93 32.8383 8.53792 29.5 3.54775C28.4999 2.05278 27 0.709847 25.5 1.05457C24.1546 1.36378 23 3.54775 23 3.54775Z" stroke="#BAC8CF" stroke-width="2"/>
<path d="M15 4.54492H20V16.02L15 15.959V4.54492Z" fill="white"/>
</svg>
