<svg width="32" height="23" viewBox="0 0 32 23" fill="none" xmlns="http://www.w3.org/2000/svg">
<path d="M16.7482 4.4195H10.5012M10.5012 4.4195C10.5012 4.4195 9.40424 2.34446 8.1259 2.05068M10.5012 4.4195C10.5012 4.4195 9.42128 2.34837 8.1259 2.05068M8.1259 2.05068C6.7007 1.72315 5.27565 2.99909 4.32542 4.4195M8.1259 2.05068C6.68471 1.71947 5.26149 3.02024 4.32542 4.4195M4.32542 4.4195C1.15359 9.16076 1.00003 17.1343 1 18.6324M4.32542 4.4195C1.15105 9.16461 1.00002 17.142 1 18.6324M1 18.6324C0.999975 20.0546 1.9502 21.0021 3.3753 21.0012M1 18.6324C1 20.0593 1.94847 21.0051 3.3753 21.0012M3.3753 21.0012C7.46376 20.9987 10.5012 17.2111 10.5012 17.2111M3.3753 21.0012C7.45921 20.9887 10.5012 17.2111 10.5012 17.2111M10.5012 17.2111H16.7482"
      stroke="url(#paint2_linear-game)"
      stroke-width="2"/>
<path d="M16.7482 4.4195H21.4988M21.4988 4.4195C21.4988 4.4195 22.5958 2.34446 23.8741 2.05068M21.4988 4.4195C21.4988 4.4195 22.5787 2.34837 23.8741 2.05068M23.8741 2.05068C25.2993 1.72315 26.7244 2.99909 27.6746 4.4195M23.8741 2.05068C25.3153 1.71947 26.7385 3.02024 27.6746 4.4195M27.6746 4.4195C30.8464 9.16076 31 17.1343 31 18.6324M27.6746 4.4195C30.8489 9.16461 31 17.142 31 18.6324M31 18.6324C31 20.0546 30.0498 21.0021 28.6247 21.0012M31 18.6324C31 20.0593 30.0515 21.0051 28.6247 21.0012M28.6247 21.0012C24.5362 20.9987 21.4988 17.2111 21.4988 17.2111M28.6247 21.0012C24.5408 20.9887 21.4988 17.2111 21.4988 17.2111M21.4988 17.2111H16.7482"
      stroke="url(#paint5_linear-game)"
      stroke-width="2"/>
<defs>
<linearGradient id="paint2_linear" x1="1" y1="11.6462" x2="16.7482" y2="11.6462" gradientUnits="userSpaceOnUse">
<stop stop-color="#35A3FF"/>
<stop offset="0.680951" stop-color="#0D6DD8"/>
<stop offset="1" stop-color="#33A0FD"/>
</linearGradient>
<linearGradient id="paint5_linear" x1="31" y1="11.6462" x2="16.7482" y2="11.6462" gradientUnits="userSpaceOnUse">
<stop stop-color="#35A3FF"/>
<stop offset="0.680951" stop-color="#0D6DD8"/>
<stop offset="1" stop-color="#33A0FD"/>
</linearGradient>
</defs>
</svg>
