<svg width="128" height="52" viewBox="0 0 128 52" fill="none" xmlns="http://www.w3.org/2000/svg">
<g clip-path="url(#clip0)">
<path d="M105.682 30.9187L105.621 30.7195L105.682 30.9187L105.737 31.0989L105.682 30.9187Z" fill="white"/>
<path d="M99.7148 29.5646C99.729 29.5669 99.7455 29.5717 99.762 29.5741C99.7455 29.5717 99.729 29.5693 99.7148 29.5646Z" fill="white"/>
<path d="M109.375 28.5662L109.764 29.3725L110.199 30.2666L109.375 28.5662Z" fill="white"/>
<path d="M127.998 0L77.0234 4.53453V8.70145L88.492 15.0123C88.4306 15.5459 88.4 16.0843 88.4 16.6298C88.4 19.535 89.2662 22.3335 90.8759 24.7193C90.9797 24.8759 91.0883 25.0276 91.1992 25.1794C91.6005 25.7273 92.0395 26.2514 92.5186 26.7494C93.0686 27.3186 93.6586 27.838 94.277 28.3052C94.8978 28.7724 95.5516 29.1875 96.2313 29.5456C97.0574 29.9819 97.9213 30.3329 98.8135 30.6009L99.1085 29.427C97.6546 29.076 96.5689 28.6586 96.144 28.4807C96.0142 28.4262 95.9458 28.3953 95.9458 28.3953C95.9458 28.3953 95.9694 28.4048 96.0095 28.4238C96.7412 28.7297 103.706 31.3764 109.992 24.4252C116.702 17.0045 111.453 7.28323 111.453 7.28323C111.455 7.2856 119.589 14.6115 113.188 24.8545C112.324 26.2348 111.311 27.2712 110.216 28.0372C110.119 28.1036 110.022 28.1677 109.926 28.2293C110.022 28.1653 110.122 28.1036 110.218 28.0372L110.657 28.8056C111.535 28.2815 112.295 27.6151 112.942 26.8253C113.235 26.5312 113.155 26.6 113.416 26.2846C114.224 25.3075 114.92 24.1857 115.42 23.0379C116.027 21.6481 116.402 20.154 116.527 18.6053C116.558 18.2211 116.575 17.8322 116.575 17.4432C116.575 15.9704 116.35 14.5285 115.923 13.1506L127.998 4.53453V0Z" fill="white"/>
<path d="M10.5493 11.5688C7.92228 11.7064 5.56201 12.8258 3.53925 14.9033C1.50942 16.9903 0.336363 19.4805 0.0625709 22.2956C-0.00115653 22.9194 -0.0176784 23.5384 0.0130051 24.1384C0.147541 26.5977 1.00196 28.578 2.5503 30.0224C4.13876 31.5022 6.19928 32.1544 8.66813 31.9647C11.1464 31.7726 13.2518 30.9829 14.9276 29.6168L15.055 29.5125L15.3996 25.8151L14.7033 26.446C12.9095 28.0729 10.9387 28.9788 8.85223 29.133C7.18588 29.2563 5.84524 28.7939 4.75951 27.7172C3.71155 26.6831 3.13329 25.2791 3.03888 23.5479C3.01527 23.1257 3.02707 22.6846 3.06956 22.234C3.2631 20.2347 4.1128 18.4228 5.59033 16.8575C7.05606 15.3041 8.67521 14.4693 10.4006 14.3721C12.4989 14.2535 14.2809 14.9057 15.697 16.3026L16.2422 16.8386L16.5727 13.2859L16.4051 13.1531C14.9016 11.9791 12.9331 11.4431 10.5493 11.5688Z" fill="white"/>
<path d="M30.0272 12.6051L18.9103 13.2194L18.6719 15.8092L22.9841 15.5578L21.5821 30.3139L24.176 30.1147L25.5639 15.406L29.8006 15.1593L30.0272 12.6051Z" fill="#0060D3"/>
<path d="M30.0272 12.6051L18.9103 13.2194L18.6719 15.8092L22.9841 15.5578L21.5821 30.3139L24.176 30.1147L25.5639 15.406L29.8006 15.1593L30.0272 12.6051Z" fill="white"/>
<path d="M39.413 13.1863C38.5822 12.5056 37.4092 12.1997 35.9245 12.2803L31.381 12.5317L29.7949 29.6856L32.3133 29.4911L32.986 22.5802L35.2377 22.4261C36.8757 22.3146 38.1998 21.7336 39.177 20.7517C40.0999 19.8244 40.6309 18.6054 40.7607 17.1564C40.7914 16.8054 40.7961 16.4591 40.7773 16.1461C40.7065 14.8512 40.2462 13.848 39.413 13.1863ZM33.6516 14.6828L35.6484 14.5666C37.893 14.4361 38.2187 15.5935 38.2659 16.4212C38.2777 16.618 38.273 16.822 38.2541 17.0378C38.0936 18.845 37.0362 19.7817 35.0158 19.9122L33.1796 20.0308L33.6516 14.6828Z" fill="#0060D3"/>
<path d="M39.413 13.1863C38.5822 12.5056 37.4092 12.1997 35.9245 12.2803L31.381 12.5317L29.7949 29.6856L32.3133 29.4911L32.986 22.5802L35.2377 22.4261C36.8757 22.3146 38.1998 21.7336 39.177 20.7517C40.0999 19.8244 40.6309 18.6054 40.7607 17.1564C40.7914 16.8054 40.7961 16.4591 40.7773 16.1461C40.7065 14.8512 40.2462 13.848 39.413 13.1863ZM33.6516 14.6828L35.6484 14.5666C37.893 14.4361 38.2187 15.5935 38.2659 16.4212C38.2777 16.618 38.273 16.822 38.2541 17.0378C38.0936 18.845 37.0362 19.7817 35.0158 19.9122L33.1796 20.0308L33.6516 14.6828Z" fill="white"/>
<path d="M44.5535 23.3795L45.5708 11.7467L43.1397 11.8819L41.5371 30.2429L52.5738 16.6773L51.5919 28.265L53.9663 28.0824L55.4887 10.0083L44.5535 23.3795Z" fill="#0060D3"/>
<path d="M44.5535 23.3795L45.5708 11.7467L43.1397 11.8819L41.5371 30.2429L52.5738 16.6773L51.5919 28.265L53.9663 28.0824L55.4887 10.0083L44.5535 23.3795Z" fill="white"/>
<path d="M64.3366 22.9525L59.5925 9.51968L55.7051 27.7028L58.0417 27.5226L60.0999 17.4907L63.9401 28.2459L69.4914 16.9262L69.8644 26.6166L72.1043 26.4459L71.2475 8.83191L64.3366 22.9525Z" fill="#0060D3"/>
<path d="M64.3366 22.9525L59.5925 9.51968L55.7051 27.7028L58.0417 27.5226L60.0999 17.4907L63.9401 28.2459L69.4914 16.9262L69.8644 26.6166L72.1043 26.4459L71.2475 8.83191L64.3366 22.9525Z" fill="white"/>
<path d="M32.0308 35.1261C30.9687 34.5616 29.5691 34.3458 27.872 34.4881L27.3174 34.5332L27.5156 32.5078L22.9509 32.873L22.7526 34.9103L22.2876 34.9482C20.3333 35.1095 18.674 35.6763 17.3476 36.632C15.5113 37.9578 14.4421 39.9713 14.1659 42.6251C14.1116 43.1682 14.0928 43.6805 14.114 44.1453C14.2013 46.1636 14.992 47.5699 16.4648 48.3265C17.5671 48.8909 19.0092 49.0901 20.7464 48.9146L21.3105 48.8577L21.006 52.0001L25.6038 51.5234L25.9012 48.3952L26.3591 48.3502C28.2827 48.1557 29.9113 47.5652 31.1977 46.5952C32.9466 45.2789 33.9686 43.2915 34.2306 40.6875C34.2825 40.1586 34.2967 39.6653 34.2778 39.2195C34.1929 37.2344 33.4564 35.8945 32.0308 35.1261ZM21.8651 45.0489L21.3081 45.1011C21.1712 45.1153 21.0367 45.12 20.9092 45.1153C20.3852 45.1034 19.9274 44.954 19.545 44.6766C18.988 44.2639 18.6882 43.6283 18.6504 42.784C18.641 42.5706 18.6504 42.3453 18.6764 42.1105C18.7897 41.0361 19.1839 40.1823 19.8542 39.5728C20.4136 39.0582 21.091 38.7618 21.8675 38.693L22.5237 38.6337L21.8651 45.0489ZM29.9467 41.1808C29.8429 42.2196 29.4581 43.0615 28.7996 43.6781C28.2426 44.2022 27.5723 44.5058 26.8052 44.5793L26.1514 44.641L26.7957 38.2613L27.3504 38.2115C28.0396 38.1522 28.6226 38.2922 29.0829 38.6313C29.6328 39.0226 29.9326 39.6535 29.9703 40.5049C29.9798 40.7254 29.9703 40.9531 29.9467 41.1808Z" fill="#0060D3"/>
<path d="M32.0308 35.1261C30.9687 34.5616 29.5691 34.3458 27.872 34.4881L27.3174 34.5332L27.5156 32.5078L22.9509 32.873L22.7526 34.9103L22.2876 34.9482C20.3333 35.1095 18.674 35.6763 17.3476 36.632C15.5113 37.9578 14.4421 39.9713 14.1659 42.6251C14.1116 43.1682 14.0928 43.6805 14.114 44.1453C14.2013 46.1636 14.992 47.5699 16.4648 48.3265C17.5671 48.8909 19.0092 49.0901 20.7464 48.9146L21.3105 48.8577L21.006 52.0001L25.6038 51.5234L25.9012 48.3952L26.3591 48.3502C28.2827 48.1557 29.9113 47.5652 31.1977 46.5952C32.9466 45.2789 33.9686 43.2915 34.2306 40.6875C34.2825 40.1586 34.2967 39.6653 34.2778 39.2195C34.1929 37.2344 33.4564 35.8945 32.0308 35.1261ZM21.8651 45.0489L21.3081 45.1011C21.1712 45.1153 21.0367 45.12 20.9092 45.1153C20.3852 45.1034 19.9274 44.954 19.545 44.6766C18.988 44.2639 18.6882 43.6283 18.6504 42.784C18.641 42.5706 18.6504 42.3453 18.6764 42.1105C18.7897 41.0361 19.1839 40.1823 19.8542 39.5728C20.4136 39.0582 21.091 38.7618 21.8675 38.693L22.5237 38.6337L21.8651 45.0489ZM29.9467 41.1808C29.8429 42.2196 29.4581 43.0615 28.7996 43.6781C28.2426 44.2022 27.5723 44.5058 26.8052 44.5793L26.1514 44.641L26.7957 38.2613L27.3504 38.2115C28.0396 38.1522 28.6226 38.2922 29.0829 38.6313C29.6328 39.0226 29.9326 39.6535 29.9703 40.5049C29.9798 40.7254 29.9703 40.9531 29.9467 41.1808Z" fill="white"/>
<path d="M45.1489 49.2158L45.484 45.2671L40.3764 45.7675L40.6195 42.8955L45.3471 42.4449L45.6516 38.7499L40.9311 39.1744L41.1695 36.402L46.2629 35.9561L46.5957 31.7939L37.0484 32.5742L35.5449 50.3708L45.1489 49.2158Z" fill="#0060D3"/>
<path d="M45.1489 49.2158L45.484 45.2671L40.3764 45.7675L40.6195 42.8955L45.3471 42.4449L45.6516 38.7499L40.9311 39.1744L41.1695 36.402L46.2629 35.9561L46.5957 31.7939L37.0484 32.5742L35.5449 50.3708L45.1489 49.2158Z" fill="white"/>
<path d="M56.435 34.6873C57.6529 34.5829 58.6843 34.9102 59.5151 35.6644L59.8881 31.0564C59.036 30.6864 58.1297 30.4919 57.1903 30.4801C56.9495 30.4777 56.7041 30.4848 56.4586 30.5038C54.3367 30.6769 52.4178 31.6303 50.7585 33.3378C48.9647 35.1759 47.9427 37.4597 47.7161 40.1302C47.6689 40.6827 47.6595 41.2187 47.6878 41.7191C47.8129 43.8726 48.5493 45.5706 49.8829 46.7636C51.2023 47.9446 52.9087 48.4332 54.9574 48.2174C56.055 48.1035 57.2776 47.6932 58.597 46.996L58.9558 42.4875C58.0447 43.3271 56.9708 43.8109 55.7576 43.9318C54.7403 44.0315 53.8835 43.7611 53.2179 43.1279C52.5594 42.5018 52.1936 41.629 52.1298 40.5357C52.1157 40.2677 52.1204 39.9926 52.144 39.7127C52.2526 38.4155 52.6939 37.2818 53.4516 36.3451C54.2612 35.349 55.2643 34.7916 56.435 34.6873Z" fill="#0060D3"/>
<path d="M56.435 34.6873C57.6529 34.5829 58.6843 34.9102 59.5151 35.6644L59.8881 31.0564C59.036 30.6864 58.1297 30.4919 57.1903 30.4801C56.9495 30.4777 56.7041 30.4848 56.4586 30.5038C54.3367 30.6769 52.4178 31.6303 50.7585 33.3378C48.9647 35.1759 47.9427 37.4597 47.7161 40.1302C47.6689 40.6827 47.6595 41.2187 47.6878 41.7191C47.8129 43.8726 48.5493 45.5706 49.8829 46.7636C51.2023 47.9446 52.9087 48.4332 54.9574 48.2174C56.055 48.1035 57.2776 47.6932 58.597 46.996L58.9558 42.4875C58.0447 43.3271 56.9708 43.8109 55.7576 43.9318C54.7403 44.0315 53.8835 43.7611 53.2179 43.1279C52.5594 42.5018 52.1936 41.629 52.1298 40.5357C52.1157 40.2677 52.1204 39.9926 52.144 39.7127C52.2526 38.4155 52.6939 37.2818 53.4516 36.3451C54.2612 35.349 55.2643 34.7916 56.435 34.6873Z" fill="white"/>
<path d="M72.6903 33.6887L72.9854 29.8942L61.6065 30.7717L61.2949 34.6279L65.0124 34.3054L64.0022 46.984L68.0713 46.5595L69.0649 33.9473L72.6903 33.6887Z" fill="#0060D3"/>
<path d="M72.6903 33.6887L72.9854 29.8942L61.6065 30.7717L61.2949 34.6279L65.0124 34.3054L64.0022 46.984L68.0713 46.5595L69.0649 33.9473L72.6903 33.6887Z" fill="white"/>
<path d="M77.0234 18.9207V18.942L77.9157 19.3143L77.0234 18.9207Z" fill="#0FC6EF"/>
<path d="M115.924 13.1506C116.351 14.5285 116.575 15.9705 116.575 17.4432C116.575 17.8346 116.559 18.2211 116.528 18.6053L127.999 10.7837V9.22323V4.53455L115.924 13.1506Z" fill="#31A2FF"/>
<path d="M90.8759 24.7217C89.2662 22.3335 88.4 19.5374 88.4 16.6322C88.4 16.0867 88.4307 15.5483 88.492 15.0147L77.0234 8.70386V11.2462V18.9231L77.9156 19.3168L90.8759 24.7217Z" fill="#31A2FF"/>
<path d="M94.2774 28.3076L91.5442 30.2215L80.2031 38.2494C80.7247 38.2542 81.4446 38.5601 82.207 39.0985L93.9045 31.1298L96.2294 29.5456C95.552 29.1899 94.9005 28.7748 94.2774 28.3076Z" fill="#31A2FF"/>
<path d="M97.6759 35.2186L98.476 31.9766L97.598 32.5552L91.1309 36.8241L97.6759 35.2186Z" fill="#31A2FF"/>
<path d="M121.069 34.8603C120.302 35.6856 119.74 36.5608 119.447 37.3149L120.634 39.0984L120.769 39.1695C121.588 38.9016 122.612 38.1972 123.545 37.194C125.107 35.5125 125.82 33.6247 125.136 32.982C124.656 32.5314 123.618 32.8113 122.501 33.5986C122.476 33.6152 122.452 33.6342 122.426 33.6508C121.973 33.9757 121.51 34.3836 121.069 34.8603Z" fill="white"/>
<path d="M120.696 39.1908C120.717 39.1837 120.736 39.179 120.757 39.1719L120.691 39.1814L120.696 39.1908Z" fill="white"/>
<path d="M96.9565 8.00894C94.0581 7.15042 90.7891 9.91809 89.6562 14.1917C88.5233 18.4654 89.9512 22.6252 92.8497 23.4837C95.7481 24.3422 99.0171 21.5746 100.15 17.3009C101.283 13.0273 99.855 8.86747 96.9565 8.00894ZM98.3869 16.7792C97.5183 20.0496 95.007 22.177 92.7907 21.52C90.572 20.8631 89.4745 17.6685 90.343 14.3981C91.2116 11.1276 93.723 9.00028 95.9393 9.65721C98.1579 10.3118 99.2554 13.5087 98.3869 16.7792Z" fill="#0F89FF"/>
<path d="M91.6148 14.7727C91.0224 17.0067 91.7729 19.191 93.2882 19.6392C94.8035 20.0875 96.5194 18.636 97.1119 16.3996C97.7043 14.1656 96.9537 11.9837 95.4384 11.5331C93.9231 11.0848 92.2096 12.5386 91.6148 14.7727Z" fill="#0F89FF"/>
<path d="M120.689 39.1814L120.758 39.1719L120.77 39.1695L120.767 39.1672L120.633 39.0984L120.689 39.1814Z" fill="#0FC6EF"/>
<path d="M112.284 31.6539L110.432 32.1045L106.421 33.0816L105.598 33.2809L110.821 34.7275L116.757 33.269L112.284 31.6539Z" fill="#0F89FF"/>
<path d="M109.992 24.4253C116.703 17.0045 111.453 7.28326 111.453 7.28326C110.292 6.03579 109.334 5.36462 109.334 5.36462C109.334 5.36462 114.026 16.2195 108.022 22.7723C101.151 30.2689 92.8945 26.0902 92.8945 26.0902C93.5176 26.842 94.1714 27.6246 96.0101 28.4238C96.7441 28.7298 103.707 31.3788 109.992 24.4253Z" fill="#0F89FF"/>
<path d="M105.603 33.2809H105.598L88.2336 37.5332L87.7285 38.7095L108.707 35.2114L110.821 34.7276L105.603 33.2809Z" fill="white"/>
<path d="M98.2093 4.55347L96.4273 4.95902C96.0426 5.04677 95.731 5.38828 95.7404 5.89818C95.7475 6.40807 96.0685 6.60729 96.4532 6.51954L98.2376 6.11399C98.6223 6.02624 98.9339 5.68473 98.9268 5.17483C98.9126 4.66731 98.594 4.46572 98.2093 4.55347Z" fill="#0F89FF"/>
<path d="M92.5187 26.7519C92.0395 26.2562 91.5982 25.7297 91.1993 25.1819C91.0883 25.0301 90.9798 24.8759 90.8759 24.7218L77.9156 19.3145L77.0234 18.9421V24.6198L91.5462 30.2215L94.2794 28.3076C93.6587 27.8404 93.0686 27.3211 92.5187 26.7519Z" fill="#0F89FF"/>
<path d="M116.529 18.6054C116.404 20.1564 116.028 21.6505 115.422 23.0379C114.919 24.1858 114.223 25.3076 113.418 26.2847L128.002 17.2133V15.5816V10.7838L116.529 18.6054Z" fill="#0F89FF"/>
<path d="M121.07 34.8604C121.511 34.3837 121.976 33.9758 122.427 33.6485C122.453 33.6295 122.476 33.6129 122.502 33.5963C123.385 32.975 124.216 32.6714 124.764 32.7924L112.941 26.8278C112.294 27.6199 111.537 28.2839 110.656 28.8081L112.282 31.654L116.755 33.2691L119.446 37.315C119.741 36.5609 120.303 35.6857 121.07 34.8604Z" fill="#31A2FF"/>
<path d="M119.535 37.4478L119.606 37.5521L119.535 37.4478Z" fill="#31A2FF"/>
<path d="M106.33 33.1054L105.917 31.6848L105.683 30.9187L105.36 29.861C103.606 30.0911 101.878 29.9582 100.391 29.695C99.9404 29.6144 99.5132 29.5242 99.112 29.427L98.8169 30.6009L98.4794 31.9741L97.6816 35.2161L97.7761 35.1924L100.127 34.6161L101.859 34.1916L105.6 33.2738L106.356 33.0935L106.33 33.1054Z" fill="#0F89FF"/>
<path d="M100.391 29.6973C101.878 29.9582 103.606 30.0934 105.36 29.8634L105.683 30.9211L105.917 31.6871L106.33 33.1077L111.022 31.9646L109.766 29.3748L109.377 28.5685C109.662 28.4096 109.943 28.2341 110.219 28.042C111.315 27.2759 112.327 26.2395 113.191 24.8592C119.592 14.6162 111.459 7.28796 111.456 7.28796C111.456 7.28796 116.703 17.0092 109.995 24.43C103.71 31.3812 96.747 28.7345 96.013 28.4285C95.9705 28.4119 95.9492 28.4001 95.9492 28.4001C95.9492 28.4001 96.0177 28.4309 96.1475 28.4854C96.688 28.7084 98.3024 29.3274 100.391 29.6973Z" fill="#0060D3"/>
<path d="M108.705 35.2114L109.477 38.1902L85.9473 42.8551L87.7269 38.7096L108.705 35.2114Z" fill="#31A2FF"/>
<path d="M110.821 34.7275L108.706 35.2114L109.478 38.1901L85.9482 42.8527L85.4691 43.9697C85.4478 44.0503 85.4195 44.1239 85.377 44.1879C85.351 44.2306 85.3204 44.2685 85.2849 44.3041C85.2613 44.3278 85.233 44.3492 85.2047 44.3681C85.1245 44.4227 85.03 44.4606 84.9262 44.4796L84.9238 44.482L112.907 40.3554L110.821 34.7275Z" fill="#0F89FF"/>
<path d="M96.2314 29.548L93.9065 31.1322L82.209 39.1008C82.3223 39.1815 82.4356 39.2645 82.5489 39.3546C82.7212 39.4898 82.8935 39.6368 83.0634 39.7934C83.2357 39.9475 83.4056 40.1111 83.5756 40.2843C83.7975 40.512 84.0004 40.7444 84.1869 40.9768C84.2931 41.1096 84.397 41.24 84.4914 41.3705C84.8619 41.8827 85.1357 42.3832 85.3057 42.829C85.3222 42.8693 85.3411 42.912 85.3552 42.9523C85.452 43.2322 85.4992 43.4883 85.4992 43.7065C85.4992 43.8014 85.4874 43.8915 85.4685 43.9721L88.2324 37.5332L91.1308 36.8241L97.6003 32.5552L98.476 31.9765L98.8135 30.6033C97.9213 30.3353 97.0575 29.9844 96.2314 29.548Z" fill="#83CDFF"/>
<path d="M85.3774 44.1903C85.4576 44.0599 85.4978 43.8962 85.5001 43.7065C85.5025 43.4859 85.4529 43.2322 85.3561 42.9523C85.1933 42.4756 84.8983 41.9301 84.4923 41.3704C84.2303 41.01 83.9235 40.6424 83.5789 40.2842C83.1304 39.8194 82.6631 39.421 82.2123 39.1008C81.4476 38.5625 80.7277 38.2541 80.2084 38.2518C79.9677 38.2494 79.7671 38.3134 79.6278 38.4486C79.6136 38.4605 79.6018 38.4771 79.59 38.4889C79.0401 39.1316 79.8048 40.889 81.3343 42.4732C82.8354 44.0267 84.5277 44.8449 85.2098 44.3705C85.2381 44.3516 85.2641 44.3302 85.2901 44.3065C85.3207 44.2733 85.3514 44.233 85.3774 44.1903Z" fill="white"/>
<path d="M109.377 28.5661L111.022 31.9599L112.285 31.6516L110.217 28.0372C109.943 28.2317 109.66 28.4072 109.377 28.5661Z" fill="#0F89FF"/>
<path d="M113.414 26.287C113.152 26.6024 113.232 26.5336 112.94 26.8277L124.762 32.7923C124.909 32.8255 125.034 32.8848 125.135 32.9797C125.82 33.6248 125.107 35.5102 123.544 37.1917C122.612 38.1949 121.588 38.8992 120.769 39.1672L120.771 39.1696L120.757 39.172C120.736 39.1791 120.717 39.1838 120.696 39.1909L120.691 39.1815L120.634 39.0961L119.447 37.3126L116.756 33.2667L110.82 34.7276L112.907 40.3602L84.9233 44.4868L84.9256 44.4844C84.1302 44.6433 82.6574 43.8464 81.3309 42.4733C79.8015 40.889 79.0391 39.1317 79.5867 38.4889C79.5985 38.4747 79.6103 38.4605 79.6245 38.4486C79.7637 38.3111 79.9643 38.2494 80.2051 38.2518L91.5462 30.2239L77.0234 24.6221V40.9602V49.0735V49.0924L127.998 43.1326V43.0828V36.5632V35.5197V17.2156L113.414 26.287Z" fill="#0060D3"/>
<path d="M85.0742 44.4394C85.1214 44.4204 85.1639 44.3991 85.204 44.3706C85.1663 44.3991 85.1214 44.4204 85.0742 44.4394Z" fill="#0060D3"/>
</g>
<defs>
<clipPath id="clip0">
<rect width="128" height="52" fill="white"/>
</clipPath>
</defs>
</svg>
