<svg width="128" height="52" fill="none" xmlns="http://www.w3.org/2000/svg"><path d="M105.682 30.919l-.061-.2.061.2.055.18-.055-.18zM99.717 29.564c.014.003.03.008.047.01-.016-.002-.033-.005-.047-.01zM109.377 28.566l.389.806.435.895-.824-1.7z" fill="#fff"/><path d="M127.999 0L77.024 4.535V8.7l11.469 6.311A14.423 14.423 0 0091.2 25.18c.401.548.84 1.072 1.32 1.57.55.57 1.14 1.089 1.758 1.556a14.464 14.464 0 004.536 2.296l.296-1.174a20.484 20.484 0 01-2.965-.946c-.13-.055-.198-.086-.198-.086l.063.029c.732.306 7.697 2.952 13.983-3.999 6.71-7.42 1.461-17.142 1.461-17.142.002.003 8.136 7.328 1.735 17.572-.864 1.38-1.877 2.416-2.972 3.182-.097.067-.194.13-.29.192.096-.064.196-.125.292-.192l.439.769a8.722 8.722 0 002.285-1.98c.293-.295.212-.226.474-.541a13.86 13.86 0 002.004-3.247c.607-1.39.982-2.884 1.107-4.433a14.48 14.48 0 00-.604-5.455l12.075-8.615V0zM10.55 11.569c-2.627.137-4.987 1.257-7.01 3.334C1.51 16.99.337 19.48.064 22.296a12.1 12.1 0 00-.05 1.842c.135 2.46.989 4.44 2.537 5.884 1.589 1.48 3.65 2.132 6.118 1.943 2.478-.192 4.584-.982 6.26-2.348l.127-.105.345-3.697-.697.63c-1.793 1.628-3.764 2.534-5.85 2.688-1.667.123-3.008-.34-4.094-1.416-1.047-1.034-1.626-2.438-1.72-4.17a8.812 8.812 0 01.03-1.313c.194-2 1.044-3.811 2.521-5.377 1.466-1.553 3.085-2.388 4.81-2.485 2.099-.119 3.88.534 5.297 1.93l.545.537.33-3.553-.167-.133c-1.503-1.174-3.472-1.71-5.856-1.584zM30.027 12.605l-11.117.614-.238 2.59 4.312-.251-1.402 14.756 2.594-.2 1.388-14.708 4.237-.247.226-2.554zM39.414 13.186c-.83-.68-2.004-.986-3.489-.906l-4.543.252-1.586 17.154 2.518-.195.673-6.91 2.252-.155c1.638-.111 2.962-.692 3.939-1.674.923-.928 1.454-2.147 1.584-3.596.03-.35.035-.697.016-1.01-.07-1.295-.53-2.298-1.364-2.96zm-5.761 1.497l1.996-.117c2.245-.13 2.57 1.027 2.618 1.855.012.197.007.4-.012.617-.16 1.807-1.218 2.744-3.238 2.874l-1.837.119.473-5.348zM44.554 23.38l1.018-11.633-2.431.135-1.603 18.36 11.037-13.565-.982 11.588 2.374-.183 1.523-18.074L44.554 23.38zM64.339 22.953L59.594 9.52l-3.887 18.183 2.337-.18 2.058-10.032 3.84 10.755 5.551-11.32.373 9.69 2.24-.17-.857-17.614-6.91 14.12zM32.03 35.126c-1.061-.564-2.46-.78-4.158-.638l-.555.045.199-2.025-4.565.365-.198 2.037-.465.038c-1.955.161-3.614.728-4.94 1.684-1.837 1.326-2.906 3.34-3.182 5.993a10.594 10.594 0 00-.052 1.52c.087 2.018.878 3.425 2.35 4.181 1.103.565 2.545.764 4.282.589l.565-.057L21.006 52l4.598-.477.297-3.128.458-.045c1.924-.194 3.552-.785 4.839-1.755 1.749-1.316 2.77-3.303 3.033-5.908.051-.528.066-1.022.047-1.468-.085-1.985-.822-3.325-2.247-4.093zm-10.165 9.923l-.557.052c-.137.014-.271.019-.399.014a2.364 2.364 0 01-1.364-.439c-.557-.412-.857-1.048-.895-1.892-.009-.213 0-.439.026-.674.114-1.074.508-1.928 1.178-2.537a3.34 3.34 0 012.014-.88l.656-.06-.659 6.416zm8.082-3.868c-.104 1.038-.489 1.88-1.147 2.497a3.305 3.305 0 01-1.995.901l-.654.062.645-6.38.554-.05c.69-.059 1.273.081 1.733.42.55.392.85 1.022.887 1.874.01.22 0 .448-.023.676zM45.15 49.216l.335-3.949-5.108.5.243-2.872 4.728-.45.305-3.695-4.721.424.238-2.772 5.094-.446.333-4.162-9.548.78-1.503 17.797 9.604-1.155zM56.436 34.687c1.218-.104 2.25.223 3.08.977l.373-4.608a6.952 6.952 0 00-2.698-.576 8.414 8.414 0 00-.731.024c-2.122.173-4.041 1.126-5.7 2.834-1.794 1.838-2.816 4.122-3.043 6.792a11.297 11.297 0 00-.028 1.59c.125 2.153.861 3.85 2.195 5.044 1.32 1.18 3.026 1.67 5.074 1.453 1.098-.114 2.32-.524 3.64-1.221l.359-4.509a5.413 5.413 0 01-3.198 1.445c-1.018.1-1.874-.17-2.54-.804-.659-.626-1.025-1.499-1.088-2.592a6.03 6.03 0 01.014-.823c.109-1.297.55-2.431 1.308-3.368.81-.996 1.812-1.553 2.983-1.658zM72.692 33.689l.295-3.795-11.379.878-.311 3.856 3.717-.323-1.01 12.679 4.07-.425.993-12.612 3.625-.258z" fill="#fff"/><path d="M77.024 18.92v.022l.893.372-.893-.393z" fill="#0FC6EF"/><path d="M115.925 13.15a14.48 14.48 0 01.604 5.455L128 10.784v-6.25l-12.075 8.617zM90.877 24.722a14.429 14.429 0 01-2.384-9.707L77.024 8.704v10.219l.893.394 12.96 5.405zM94.278 28.308l-2.733 1.913-11.34 8.028c.52.005 1.24.311 2.003.85l11.698-7.97 2.324-1.583a14.474 14.474 0 01-1.952-1.238zM97.678 35.218l.8-3.242-.878.58-6.467 4.268 6.545-1.605z" fill="#31A2FF"/><path d="M121.07 34.86c-.767.826-1.329 1.7-1.621 2.455l1.187 1.783.134.072c.819-.268 1.844-.973 2.776-1.976 1.563-1.681 2.275-3.57 1.591-4.212-.479-.45-1.518-.17-2.634.617-.026.016-.05.035-.076.052a9.14 9.14 0 00-1.357 1.21zM120.697 39.19l.061-.018-.066.01.005.009z" fill="#fff"/><path d="M96.957 8.009c-2.898-.859-6.167 1.91-7.3 6.183s.295 8.433 3.194 9.292c2.898.858 6.167-1.91 7.3-6.183 1.133-4.274-.295-8.434-3.194-9.292zm1.43 8.77c-.868 3.27-3.38 5.398-5.595 4.741-2.219-.657-3.317-3.851-2.448-7.122.869-3.27 3.38-5.398 5.596-4.74 2.219.654 3.316 3.85 2.448 7.121z" fill="#0F89FF"/><path d="M91.616 14.773c-.593 2.234.158 4.418 1.673 4.866 1.516.448 3.231-1.003 3.824-3.24.592-2.233-.158-4.415-1.674-4.866-1.515-.448-3.228 1.006-3.823 3.24z" fill="#0F89FF"/><path d="M120.69 39.181l.068-.009.012-.002-.002-.003-.135-.069.057.084z" fill="#0FC6EF"/><path d="M112.285 31.654l-1.853.45-4.01.978-.823.199 5.223 1.447 5.936-1.459-4.473-1.615zM109.993 24.425c6.711-7.42 1.461-17.142 1.461-17.142-1.161-1.247-2.119-1.918-2.119-1.918s4.692 10.854-1.313 17.407c-6.87 7.497-15.127 3.318-15.127 3.318.624.752 1.277 1.535 3.116 2.334.734.306 7.697 2.955 13.982-3.999z" fill="#0F89FF"/><path d="M105.603 33.28h-.005l-17.364 4.253-.505 1.176 20.978-3.498 2.114-.483-5.218-1.447z" fill="#fff"/><path d="M98.211 4.553l-1.782.406c-.385.088-.696.43-.687.94.007.51.328.708.713.62l1.785-.405c.384-.088.696-.43.689-.94-.014-.507-.333-.708-.718-.62zM92.52 26.752a14.787 14.787 0 01-1.643-2.03l-12.96-5.408-.893-.372v5.678l14.523 5.601 2.733-1.913c-.62-.468-1.21-.987-1.76-1.556zM116.529 18.605a13.81 13.81 0 01-1.107 4.433 14.029 14.029 0 01-2.004 3.247l14.585-9.072V10.784l-11.474 7.821z" fill="#0F89FF"/><path d="M121.07 34.86a9.457 9.457 0 011.433-1.264c.883-.621 1.713-.925 2.261-.804l-11.823-5.964a8.628 8.628 0 01-2.284 1.98l1.626 2.846 4.473 1.615 2.69 4.046c.295-.754.857-1.63 1.624-2.455zM119.536 37.448l.071.104-.071-.104z" fill="#31A2FF"/><path d="M106.331 33.105l-.413-1.42-.234-.766-.323-1.058c-1.754.23-3.482.097-4.969-.166-.45-.08-.878-.17-1.279-.268l-.295 1.174-.338 1.373-.797 3.242.094-.024 2.351-.576 1.732-.424 3.741-.918.756-.18-.026.011z" fill="#0F89FF"/><path d="M100.391 29.697c1.487.261 3.215.396 4.969.166l.323 1.058.234.766.413 1.42 4.692-1.142-1.256-2.59-.389-.806a9.99 9.99 0 00.842-.527c1.096-.766 2.108-1.803 2.972-3.183 6.401-10.243-1.732-17.571-1.735-17.571 0 0 5.247 9.721-1.461 17.142-6.285 6.951-13.248 4.305-13.982 3.998-.043-.016-.064-.028-.064-.028l.198.085c.541.223 2.155.842 4.244 1.212z" fill="#0060D3"/><path d="M108.707 35.211l.772 2.98-23.53 4.664 1.78-4.145 20.978-3.499z" fill="#31A2FF"/><path d="M110.822 34.728l-2.115.483.772 2.98-23.53 4.662-.479 1.117a.722.722 0 01-.184.334.725.725 0 01-.359.175l-.002.003 27.983-4.127-2.086-5.627z" fill="#0F89FF"/><path d="M96.232 29.548l-2.325 1.584-11.697 7.969a8.578 8.578 0 01.854.693 9.62 9.62 0 011.123 1.183c.107.133.21.263.305.394.37.512.645 1.012.815 1.458.016.04.035.083.05.123.096.28.143.536.143.755 0 .094-.012.184-.03.265l2.763-6.439 2.899-.709 6.47-4.269.875-.578.337-1.374a14.369 14.369 0 01-2.582-1.055z" fill="#83CDFF"/><path d="M85.377 44.19c.08-.13.12-.294.123-.483a2.28 2.28 0 00-.144-.755c-.163-.476-.458-1.022-.864-1.582-.262-.36-.569-.728-.913-1.086a9.836 9.836 0 00-1.367-1.183c-.764-.538-1.484-.847-2.004-.85-.24-.002-.44.062-.58.198-.014.012-.026.028-.038.04-.55.643.215 2.4 1.744 3.984 1.501 1.554 3.194 2.372 3.876 1.898a.678.678 0 00.08-.065.752.752 0 00.087-.116z" fill="#fff"/><path d="M109.378 28.566l1.645 3.394 1.263-.308-2.068-3.615c-.274.195-.557.37-.84.53z" fill="#0F89FF"/><path d="M113.415 26.287c-.262.315-.182.247-.474.54l11.822 5.965a.78.78 0 01.373.188c.685.645-.028 2.53-1.591 4.212-.932 1.003-1.956 1.707-2.775 1.975l.002.003-.014.002-.061.019-.005-.01-.057-.085-1.187-1.783-2.691-4.046-5.936 1.46 2.087 5.633-27.984 4.127.003-.003c-.796.16-2.269-.638-3.595-2.01-1.53-1.585-2.292-3.342-1.744-3.985.012-.014.023-.028.037-.04.14-.138.34-.2.581-.197l11.341-8.028-14.523-5.602V49.092L128 43.132V17.217l-14.584 9.071zM85.075 44.44z" fill="#0060D3"/></svg>