<svg width="174" height="70" fill="none" xmlns="http://www.w3.org/2000/svg"><g clip-path="url(#clip0)"><path d="M143.175 41.621l-.083-.268.083.268.073.243-.073-.243zM135.092 39.798c.019.003.041.01.064.013a.362.362 0 01-.064-.013zM148.178 38.455l.527 1.085.589 1.203-1.116-2.288z" fill="#fff"/><path d="M173.408 0L104.35 6.104v5.61l15.537 8.495a19.335 19.335 0 003.667 13.687 20.719 20.719 0 001.788 2.113 20.422 20.422 0 002.382 2.094 19.61 19.61 0 006.146 3.09l.4-1.58a27.908 27.908 0 01-4.017-1.274c-.175-.073-.268-.114-.268-.114s.032.012.086.038c.991.412 10.427 3.974 18.943-5.383 9.09-9.99 1.979-23.076 1.979-23.076.003.004 11.022 9.865 2.35 23.654-1.17 1.858-2.542 3.253-4.026 4.284a13.8 13.8 0 01-.393.259c.131-.086.266-.17.397-.259l.594 1.035a11.783 11.783 0 003.096-2.666c.396-.396.287-.303.642-.728a18.679 18.679 0 002.715-4.37 18.562 18.562 0 001.5-5.967 19.363 19.363 0 00-.819-7.343l16.359-11.599V0z" fill="#fff"/><path d="M14.292 15.573c-3.559.186-6.756 1.692-9.496 4.49-2.75 2.809-4.34 6.16-4.71 9.95-.087.84-.11 1.673-.068 2.481.183 3.31 1.34 5.977 3.438 7.92 2.152 1.993 4.943 2.87 8.288 2.615 3.357-.258 6.21-1.321 8.48-3.16l.173-.14.466-4.978-.943.85c-2.43 2.19-5.1 3.409-7.927 3.617-2.257.165-4.073-.457-5.544-1.906-1.42-1.392-2.203-3.282-2.331-5.613a11.79 11.79 0 01.041-1.769c.262-2.69 1.414-5.13 3.415-7.237 1.986-2.091 4.18-3.215 6.517-3.346 2.843-.16 5.257.718 7.175 2.599l.739.721.448-4.782-.227-.179c-2.037-1.58-4.704-2.302-7.934-2.133zM40.679 16.968l-15.061.827-.323 3.487 5.842-.339-1.9 19.864 3.515-.268 1.88-19.8 5.74-.332.307-3.439zM53.395 17.75c-1.125-.915-2.714-1.327-4.726-1.219l-6.155.339-2.149 23.091 3.412-.261.911-9.303 3.05-.208c2.22-.15 4.014-.932 5.338-2.254 1.25-1.248 1.97-2.89 2.145-4.84.042-.472.048-.938.023-1.36-.096-1.743-.72-3.093-1.849-3.984zm-7.805 2.015l2.705-.156c3.041-.176 3.483 1.382 3.546 2.496.016.265.01.54-.016.83-.217 2.433-1.65 3.694-4.387 3.87l-2.487.16.64-7.2zM60.36 31.472l1.378-15.66-3.293.183-2.172 24.717L71.225 22.45l-1.33 15.599 3.217-.246 2.063-24.33-14.815 18zM87.162 30.898l-6.427-18.083-5.266 24.477 3.165-.242 2.789-13.505 5.202 14.478 7.521-15.238.505 13.045 3.035-.23-1.161-23.71-9.363 19.008zM43.394 47.285c-1.439-.76-3.335-1.05-5.634-.859l-.752.06.269-2.725-6.184.491-.269 2.743-.63.05c-2.647.218-4.895.98-6.692 2.267-2.488 1.785-3.937 4.495-4.31 8.068-.074.731-.1 1.42-.071 2.046.118 2.717 1.19 4.61 3.185 5.629 1.493.76 3.447 1.028 5.8.792l.764-.077-.412 4.23 6.229-.642.403-4.21.62-.061c2.606-.262 4.813-1.057 6.555-2.363 2.37-1.772 3.754-4.447 4.11-7.952.07-.712.089-1.376.063-1.977-.115-2.672-1.113-4.476-3.044-5.51zM29.622 60.643l-.755.07c-.185.02-.367.026-.54.02-.71-.017-1.33-.218-1.848-.591-.755-.556-1.161-1.412-1.212-2.548-.013-.288 0-.59.035-.907.153-1.446.687-2.595 1.596-3.416a4.539 4.539 0 012.727-1.184l.889-.08-.892 8.636zm10.948-5.207c-.14 1.398-.662 2.531-1.554 3.361a4.49 4.49 0 01-2.702 1.214l-.885.083.873-8.588.751-.067c.934-.08 1.724.108 2.347.565.745.526 1.151 1.376 1.202 2.522.013.297 0 .603-.032.91zM61.165 66.252l.454-5.315-6.92.673.33-3.866 6.405-.607.412-4.974-6.395.572.323-3.732 6.9-.6.452-5.603-12.935 1.05-2.037 23.957 13.011-1.555zM76.456 46.694c1.65-.14 3.047.3 4.173 1.316l.505-6.203a9.47 9.47 0 00-3.655-.776c-.326-.003-.659.006-.991.032-2.875.233-5.474 1.516-7.722 3.815-2.43 2.474-3.815 5.549-4.122 9.143a15.11 15.11 0 00-.038 2.14c.169 2.898 1.167 5.184 2.973 6.79 1.788 1.59 4.1 2.247 6.875 1.957 1.487-.153 3.143-.706 4.93-1.644l.487-6.07c-1.234 1.13-2.69 1.782-4.333 1.945-1.378.134-2.539-.23-3.44-1.082-.893-.843-1.388-2.018-1.475-3.49-.019-.36-.012-.73.02-1.108.147-1.746.745-3.272 1.771-4.533 1.097-1.34 2.456-2.091 4.042-2.232zM98.479 45.35l.4-5.108-15.416 1.181-.422 5.191 5.036-.434-1.368 17.068 5.512-.572 1.346-16.978 4.912-.348z" fill="#0060D3"/><path d="M104.35 25.47v.029l1.208.501-1.208-.53z" fill="#0FC6EF"/><path d="M157.049 17.703a19.362 19.362 0 01.818 7.343l15.541-10.53V6.105l-16.359 11.599zM123.116 33.28a19.342 19.342 0 01-3.229-13.068l-15.537-8.495V25.474l1.208.53 17.558 7.275zM127.724 38.106l-3.703 2.577-15.365 10.806c.707.007 1.682.419 2.715 1.144l15.847-10.727 3.15-2.133a19.584 19.584 0 01-2.644-1.667zM132.328 47.41l1.084-4.365-1.19.78-8.761 5.746 8.867-2.161z" fill="#31A2FF"/><path d="M164.021 46.927c-1.039 1.111-1.8 2.29-2.197 3.305l1.609 2.4.182.096c1.109-.36 2.497-1.309 3.76-2.66 2.117-2.263 3.083-4.804 2.155-5.67-.649-.606-2.056-.229-3.568.831-.035.022-.067.048-.102.07-.614.438-1.241.987-1.839 1.628zM163.514 52.757c.029-.01.055-.016.083-.026l-.089.013.006.013z" fill="#fff"/><path d="M131.354 10.781c-3.926-1.155-8.355 2.57-9.89 8.323-1.535 5.753.4 11.353 4.326 12.509 3.927 1.155 8.356-2.57 9.891-8.323 1.534-5.753-.4-11.353-4.327-12.509zm1.938 11.806c-1.177 4.403-4.579 7.267-7.582 6.382-3.005-.884-4.492-5.184-3.316-9.587 1.177-4.403 4.579-7.266 7.582-6.382 3.006.881 4.493 5.185 3.316 9.587z" fill="#0F89FF"/><path d="M124.116 19.886c-.802 3.008.215 5.948 2.268 6.551 2.052.604 4.377-1.35 5.18-4.36.802-3.008-.215-5.945-2.267-6.552-2.053-.603-4.375 1.354-5.181 4.361z" fill="#0F89FF"/><path d="M163.504 52.744l.093-.013.016-.003-.003-.003-.182-.093.076.112z" fill="#0FC6EF"/><path d="M152.119 42.611l-2.51.607-5.432 1.315-1.116.268 7.076 1.948 8.042-1.964-6.06-2.174zM149.015 32.88c9.091-9.99 1.979-23.076 1.979-23.076-1.573-1.679-2.871-2.582-2.871-2.582s6.357 14.612-1.778 23.433c-9.308 10.092-20.493 4.466-20.493 4.466.844 1.012 1.729 2.066 4.22 3.142.995.412 10.428 3.978 18.943-5.383z" fill="#0F89FF"/><path d="M143.067 44.801h-.006l-23.525 5.724-.684 1.584 28.42-4.71 2.865-.65-7.07-1.948z" fill="#fff"/><path d="M133.052 6.13l-2.414.546c-.521.118-.943.577-.931 1.264.01.686.445.954.966.836l2.417-.546c.522-.118.944-.577.934-1.264-.019-.683-.451-.954-.972-.836zM125.342 36.012a20.004 20.004 0 01-2.226-2.733L105.558 26l-1.208-.501v7.643l19.674 7.54 3.703-2.576a20.198 20.198 0 01-2.385-2.094zM157.869 25.046a18.52 18.52 0 01-1.5 5.966 18.883 18.883 0 01-2.715 4.371l19.758-12.211V14.517l-15.543 10.529z" fill="#0F89FF"/><path d="M164.02 46.927a12.724 12.724 0 011.838-1.631c.036-.026.068-.048.103-.07 1.196-.837 2.321-1.245 3.063-1.082l-16.017-8.03a11.67 11.67 0 01-3.095 2.666l2.203 3.831 6.06 2.174 3.645 5.447c.4-1.015 1.161-2.194 2.2-3.305zM161.941 50.41l.096.14-.096-.14z" fill="#31A2FF"/><path d="M144.052 44.565l-.56-1.912-.316-1.032-.438-1.424c-2.376.31-4.717.131-6.731-.223-.611-.108-1.19-.23-1.733-.36l-.4 1.58-.457 1.848-1.081 4.364.128-.032 3.185-.775 2.347-.572 5.068-1.235 1.023-.243-.035.016z" fill="#0F89FF"/><path d="M136.006 39.977c2.015.351 4.355.533 6.731.224l.438 1.423.317 1.032.559 1.912 6.357-1.539-1.701-3.486-.528-1.085c.387-.214.768-.45 1.142-.71 1.484-1.03 2.855-2.426 4.026-4.284 8.672-13.788-2.347-23.653-2.35-23.653 0 0 7.108 13.086-1.98 23.075-8.515 9.358-17.948 5.795-18.942 5.383-.058-.022-.087-.038-.087-.038s.093.041.269.115c.732.3 2.919 1.133 5.749 1.631z" fill="#0060D3"/><path d="M147.271 47.4l1.045 4.01-31.877 6.28 2.411-5.581 28.421-4.71z" fill="#31A2FF"/><path d="M150.137 46.749l-2.865.65 1.045 4.01-31.877 6.277-.649 1.504a.963.963 0 01-.249.45.98.98 0 01-.486.236l-.003.004 37.91-5.555-2.826-7.576z" fill="#0F89FF"/><path d="M130.372 39.776l-3.15 2.133-15.847 10.727a11.65 11.65 0 011.158.932 12.935 12.935 0 011.522 1.593c.143.179.284.354.412.53.502.69.873 1.363 1.103 1.963.023.055.048.112.067.166.132.377.195.722.195 1.016 0 .127-.016.249-.041.357l3.744-8.667 3.927-.955 8.765-5.747 1.186-.779.457-1.848a19.52 19.52 0 01-3.498-1.42z" fill="#83CDFF"/><path d="M115.665 59.487a1.25 1.25 0 00.167-.651c.003-.297-.064-.639-.195-1.016-.221-.641-.621-1.376-1.171-2.129-.355-.485-.77-.98-1.237-1.462a13.355 13.355 0 00-1.851-1.593c-1.036-.725-2.012-1.14-2.715-1.143-.326-.003-.598.083-.787.265-.019.016-.035.038-.051.054-.745.865.291 3.23 2.363 5.364 2.034 2.09 4.326 3.192 5.25 2.554a.869.869 0 00.109-.087.965.965 0 00.118-.156z" fill="#fff"/><path d="M148.18 38.454l2.228 4.569 1.711-.415-2.801-4.866c-.371.262-.755.498-1.138.712z" fill="#0F89FF"/><path d="M153.65 35.386c-.355.425-.246.332-.643.728l16.017 8.03c.199.044.368.124.505.252.928.868-.038 3.406-2.155 5.67-1.263 1.35-2.65 2.298-3.76 2.66l.003.002-.019.003-.083.026-.007-.013-.076-.115-1.609-2.4-3.645-5.447-8.042 1.967 2.827 7.582-37.911 5.555.003-.003c-1.077.214-3.073-.859-4.87-2.708-2.072-2.132-3.105-4.498-2.363-5.363.016-.02.032-.038.051-.054.189-.185.461-.268.787-.265l15.364-10.807-19.674-7.54V66.085l69.058-8.023V23.175L153.65 35.386zM115.256 59.822z" fill="#0060D3"/></g><defs><clipPath id="clip0"><path fill="#fff" d="M0 0h173.409v70H0z"/></clipPath></defs></svg>