<svg width="53" height="51" viewBox="0 0 53 51" fill="none" xmlns="http://www.w3.org/2000/svg">
<g filter="url(#filter0_d)">
<path d="M46.9895 41.8083L43.4542 22.3308C43.4189 22.1363 43.2984 21.9679 43.1256 21.8719L34.2273 16.9227C34.1118 16.8584 33.9824 16.8328 33.8552 16.8427L35.4741 37.7262L35.4198 37.7505L46.069 42.528C46.1557 42.5667 46.2478 42.5859 46.3395 42.5859C46.4846 42.5859 46.6284 42.5382 46.7466 42.4456C46.9398 42.2948 47.0332 42.0494 46.9895 41.8083Z" fill="#44C868"/>
<path d="M24.5001 21.6541L15.3994 16.9141C15.2903 16.8572 15.1694 16.834 15.0503 16.842C15.0819 16.8401 15.1136 16.8402 15.1451 16.8427L13.5262 37.7262L24.2296 42.5281C24.316 42.5667 24.4082 42.586 24.5001 42.586V21.6541Z" fill="#44C868"/>
<path d="M15.1449 16.8427C15.0178 16.8329 14.8883 16.8585 14.7728 16.9227L5.87449 21.8719C5.7017 21.9679 5.58111 22.1362 5.54587 22.3307L2.01064 41.8083C1.96687 42.0493 2.06038 42.2947 2.25348 42.4457C2.37187 42.5382 2.51557 42.586 2.66059 42.586C2.75226 42.586 2.84446 42.5669 2.93103 42.528L13.5222 37.7766L15.1449 16.8427Z" fill="#4CE166"/>
<path d="M33.8551 16.8423C33.7675 16.8491 33.6809 16.8723 33.6007 16.9142L24.5 21.6541V42.586C24.5 42.586 24.5 42.586 24.5001 42.586C24.592 42.586 24.6843 42.5669 24.7706 42.5281L35.474 37.7263L33.8551 16.8423Z" fill="#4CE166"/>
<path d="M4.47451 28.2335L3.75636 32.1902L14.3906 26.5735L14.6375 23.3884L14.6785 22.8602L4.47451 28.2335Z" fill="#FFDB56"/>
<path d="M14.4863 25.3384L14.3906 26.5735L3.75632 32.1902L2.01064 41.8084C1.96687 42.0494 2.06038 42.2948 2.25348 42.4458C2.37187 42.5383 2.51557 42.586 2.66059 42.586C2.75226 42.586 2.84446 42.567 2.93103 42.5281L13.5222 37.7767L14.4863 25.3384Z" fill="#A8EEFC"/>
<path d="M24.5027 24.265L14.6784 22.8602L14.3906 26.5735L24.5001 41.9262V36.3436L18.4675 26.8445L24.5027 27.5663V24.265Z" fill="#FFBB24"/>
<path d="M42.425 21.4824L38.1504 19.1049L34.1038 20.0504L34.1544 20.7039L34.3542 23.2821L42.425 21.4824Z" fill="#FFBB24"/>
<path d="M34.7131 27.9119L34.3299 22.9682L34.1038 20.0503L24.5027 24.2648V27.5662L30.7742 24.8389L34.7131 27.9119Z" fill="#FFDB56"/>
<path d="M46.9894 41.8084L46.1015 36.9159L34.3543 23.2822L34.7132 27.9121L46.7604 42.4335C46.9436 42.2817 47.0321 42.0433 46.9894 41.8084Z" fill="#FFBB24"/>
<path d="M24.5424 2.41388C19.4479 2.41388 15.3033 6.55512 15.3033 11.6454C15.3033 14.7942 16.7982 18.1748 19.7467 21.6933C21.9122 24.2775 24.0483 25.9396 24.1382 26.0091C24.2572 26.1012 24.3998 26.1471 24.5424 26.1471C24.685 26.1471 24.8276 26.1012 24.9467 26.0091C25.0365 25.9396 27.1727 24.2775 29.3382 21.6933C32.2867 18.1748 33.7816 14.7943 33.7816 11.6454C33.7814 6.55512 29.6368 2.41388 24.5424 2.41388ZM27.9639 11.6453C27.9639 13.5334 26.432 15.0641 24.5424 15.0641C22.6527 15.0641 21.1208 13.5335 21.1208 11.6453C21.1208 9.75716 22.6527 8.22654 24.5424 8.22654C26.432 8.22654 27.9639 9.75724 27.9639 11.6453Z" fill="#FF4A4A"/>
<path d="M24.5423 2.41388C24.1386 2.41388 23.7408 2.44007 23.3506 2.49052C27.8843 3.07649 31.3981 6.95854 31.3981 11.6454C31.3981 14.7942 29.9031 18.1748 26.9547 21.6933C25.562 23.3551 24.1826 24.6347 23.3507 25.3556C23.8125 25.7557 24.1062 25.9843 24.1382 26.0091C24.2572 26.1012 24.3998 26.1471 24.5424 26.1471C24.685 26.1471 24.8276 26.1012 24.9466 26.0091C25.0364 25.9396 27.1726 24.2775 29.3382 21.6933C32.2866 18.1748 33.7816 14.7943 33.7816 11.6454C33.7814 6.55512 29.6367 2.41388 24.5423 2.41388Z" fill="#E7343F"/>
<path d="M24.7706 42.5281L28.7507 40.7425L24.5001 36.3434V42.586C24.5001 42.586 24.5001 42.586 24.5001 42.586C24.592 42.586 24.6842 42.5669 24.7706 42.5281Z" fill="#FFDB56"/>
<path d="M43.454 22.3307C43.4188 22.1363 43.2982 21.9679 43.1254 21.8719L42.4249 21.4822L34.3542 23.282L46.1013 36.9157L43.454 22.3307Z" fill="#1EA4E9"/>
<path d="M24.4999 42.5859C24.5 42.5859 24.5 42.5859 24.4999 42.5859V41.926L14.3906 26.5734L13.526 37.7263L24.2294 42.5281C24.3158 42.5669 24.408 42.5859 24.4999 42.5859Z" fill="#1EA4E9"/>
</g>
<defs>
<filter id="filter0_d" x="0" y="0" width="53.0001" height="53" filterUnits="userSpaceOnUse" color-interpolation-filters="sRGB">
<feFlood flood-opacity="0" result="BackgroundImageFix"/>
<feColorMatrix in="SourceAlpha" type="matrix" values="0 0 0 0 0 0 0 0 0 0 0 0 0 0 0 0 0 0 127 0"/>
<feOffset dx="2" dy="4"/>
<feGaussianBlur stdDeviation="2"/>
<feColorMatrix type="matrix" values="0 0 0 0 0 0 0 0 0 0 0 0 0 0 0 0 0 0 0.25 0"/>
<feBlend mode="normal" in2="BackgroundImageFix" result="effect1_dropShadow"/>
<feBlend mode="normal" in="SourceGraphic" in2="effect1_dropShadow" result="shape"/>
</filter>
</defs>
</svg>
