<svg width="112" height="112" fill="none" xmlns="http://www.w3.org/2000/svg"><path d="M56.006 112C86.931 112 112 86.928 112 56S86.93 0 56.006 0 .013 25.072.013 56s25.069 56 55.993 56z" fill="url(#paint0_radial)"/><path d="M111.951 53.622a54.957 54.957 0 00-1.338-9.991c-2.288-.66-4.716-.98-7.083-1.09-5.235-.249-10.59.25-15.655-1.098-7.052-1.868-12.797-7.104-19.74-9.362-11.608-3.776-25.085 1.18-36.133-4.036-2.478-1.17-4.696-2.798-7.003-4.266-3.347-2.128-7.003-3.947-10.81-5.016a56.9 56.9 0 00-6.373 8.702c1.618-.2 3.277-.17 4.875.08 4.585.72 8.771 2.958 12.797 5.276 4.026 2.308 8.042 4.755 12.528 5.974 8.69 2.358 18.311-.12 26.713 3.108 4.845 1.868 8.85 5.485 13.656 7.443 10.47 4.256 22.927.02 33.416 4.226.06.02.1.03.15.05zM110.601 68.439c-3.116-1.359-6.703-1.928-10.139-2.188-5.595-.41-11.409-.29-16.514-2.628-5.574-2.548-9.5-7.683-14.575-11.12a27.714 27.714 0 00-11.329-4.446c-9.42-1.439-19.41 2.008-28.411-1.129-4.296-1.499-7.952-4.386-12.038-6.374-4.256-2.068-9.11-3.157-13.786-2.338-.33.06-.67.13-1 .21A55.695 55.695 0 00.004 55.35c-.01.63.01 1.25.03 1.869 1.059-.19 2.117-.4 3.176-.52 2.668-.28 5.395.1 7.883 1.11 2.247.909 4.265 2.307 6.463 3.306 11.778 5.386 26.683-1.029 38.092 5.106 3.027 1.628 5.564 4.036 8.581 5.675 9.27 5.025 21.209 1.908 30.77 6.374 3.346 1.569 6.303 4.016 9.779 5.215a55.15 55.15 0 005.824-15.046zM99.123 91.708c-5.814-3.337-12.088-5.925-18.581-4.956-2.637.39-5.155 1.36-7.762 1.889-3.866.78-7.892.58-11.748-.23-.98-.2-2.018-.44-2.947-.09-.84.32-1.449 1.09-1.769 1.918-.699 1.809-.19 3.937.96 5.505 1.148 1.57 2.857 2.638 4.635 3.427a21.335 21.335 0 0010.979 1.689c3.117-.36 6.153-1.409 9.28-1.379 2.498.02 4.915.73 7.333 1.389a57.212 57.212 0 009.62-9.162z" fill="#BAC8CF"/><defs><radialGradient id="paint0_radial" cx="0" cy="0" r="1" gradientUnits="userSpaceOnUse" gradientTransform="rotate(.648 -4924.99 4982.063) scale(55.9917 55.998)"><stop offset=".287" stop-color="#F5F5F5"/><stop offset=".662" stop-color="#D8DFE2"/><stop offset="1" stop-color="#BAC8CF"/></radialGradient></defs></svg>