<svg width="76" height="76" fill="none" xmlns="http://www.w3.org/2000/svg"><g clip-path="url(#clip0)"><path d="M42.738 49.045l-.102-.304.102.304.076.253-.076-.253zM33.82 47.019c.026 0 .051 0 .076.025-.025 0-.05-.025-.076-.025zM48.235 45.55l.583 1.19.633 1.317-1.216-2.508z" fill="#fff"/><path d="M76 0H0v16.061l17.1 9.374c-.101.785-.127 1.596-.127 2.406 0 4.307 1.292 8.462 3.699 12.008.152.228.304.456.481.684.608.811 1.242 1.596 1.976 2.331.811.836 1.698 1.621 2.635 2.305.937.684 1.9 1.318 2.913 1.85a23.164 23.164 0 003.851 1.57l.405-1.773a35.64 35.64 0 01-4.433-1.393 3.5 3.5 0 01-.304-.127s.025.025.101.05c1.09.457 11.476 4.383 20.85-5.927 10.006-11.02 2.178-25.435 2.178-25.435S63.46 24.852 53.91 40.052c-1.292 2.052-2.786 3.597-4.433 4.712-.152.101-.279.203-.43.279.151-.102.278-.178.43-.279l.659 1.14a13.032 13.032 0 003.394-2.939c.431-.43.304-.329.71-.81a21.519 21.519 0 002.989-4.814 19.993 19.993 0 001.647-6.586c.05-.583.076-1.14.076-1.723 0-2.179-.33-4.332-.963-6.359L76 9.88V0z" fill="#fff"/><path d="M0 31.236v.025l1.317.558L0 31.236z" fill="#0FC6EF"/><path d="M57.988 22.673c.634 2.052.963 4.18.963 6.359 0 .582-.025 1.165-.076 1.723L76 19.151V9.88L57.988 22.673zM20.647 39.85a21.324 21.324 0 01-3.699-12.009c0-.81.05-1.62.127-2.406L0 16.062v15.174l1.317.583 19.33 8.03zM25.739 45.17l-4.079 2.837L4.763 59.913c.785 0 1.849.456 2.989 1.267l17.43-11.83 3.47-2.357a21.602 21.602 0 01-2.913-1.824zM30.805 55.404l1.19-4.788-1.317.836-9.652 6.333 9.779-2.381z" fill="#31A2FF"/><path d="M65.665 54.872c-1.14 1.216-1.977 2.533-2.407 3.648l1.773 2.635.203.101c1.216-.405 2.761-1.444 4.13-2.939 2.33-2.508 3.394-5.294 2.38-6.257-.709-.659-2.254-.253-3.926.912-.025.025-.076.05-.102.076a15.136 15.136 0 00-2.051 1.824zM65.107 61.307c.025 0 .05-.026.101-.026l-.101.026z" fill="#fff"/><path d="M29.716 15.048c-4.332-1.267-9.196 2.837-10.893 9.17-1.672 6.334.456 12.515 4.762 13.782 4.332 1.267 9.197-2.837 10.894-9.17 1.697-6.334-.43-12.515-4.763-13.782zm2.128 12.996c-1.292 4.864-5.041 8.005-8.335 7.043-3.318-.963-4.94-5.726-3.648-10.565 1.293-4.863 5.042-8.005 8.335-7.042 3.319.988 4.94 5.725 3.648 10.564z" fill="#0F89FF"/><path d="M21.761 25.08c-.886 3.319.228 6.561 2.483 7.22 2.255.659 4.813-1.495 5.7-4.813.887-3.32-.228-6.562-2.483-7.22-2.254-.66-4.813 1.494-5.7 4.813z" fill="#0F89FF"/><path d="M65.107 61.307l.101-.026h.025-.025l-.177-.101.076.127z" fill="#0FC6EF"/><path d="M52.566 50.135l-2.761.658-5.979 1.444-1.216.304 7.778 2.154 8.841-2.179-6.663-2.381zM49.147 39.393c10.006-11.02 2.178-25.435 2.178-25.435-1.723-1.849-3.167-2.837-3.167-2.837s6.992 16.112-1.95 25.84C35.973 48.082 23.66 41.876 23.66 41.876c.938 1.114 1.9 2.28 4.636 3.47 1.115.431 11.476 4.358 20.85-5.953z" fill="#0F89FF"/><path d="M42.61 52.541L16.72 58.85l-.76 1.748 31.286-5.193 3.142-.71-7.778-2.153z" fill="#fff"/><path d="M31.59 9.905l-2.66.608c-.582.127-1.038.634-1.013 1.394 0 .76.481 1.064 1.064.912l2.66-.608c.583-.127 1.039-.634 1.013-1.394-.025-.734-.481-1.038-1.064-.912zM23.104 42.864a24.642 24.642 0 01-1.976-2.33c-.177-.228-.33-.456-.481-.684l-19.33-8.031L0 31.262v8.435l21.66 8.31 4.079-2.837a22.895 22.895 0 01-2.635-2.306zM58.9 30.755a20.15 20.15 0 01-1.647 6.586 21.519 21.519 0 01-2.99 4.814L76 28.703v-9.551L58.9 30.755z" fill="#0F89FF"/><path d="M65.664 54.872a13.09 13.09 0 012.027-1.799c.025-.025.076-.05.101-.076 1.317-.912 2.559-1.368 3.37-1.19l-17.633-8.842a13.454 13.454 0 01-3.394 2.939l2.432 4.23 6.662 2.407 4.003 6.004c.456-1.14 1.292-2.432 2.432-3.673zM63.384 58.723l.102.152-.102-.152z" fill="#31A2FF"/><path d="M43.7 52.288l-.633-2.128-.355-1.14-.481-1.57c-2.61.328-5.193.151-7.397-.254a27.381 27.381 0 01-1.9-.405l-.431 1.748-.507 2.026-1.19 4.814.152-.026 3.496-.861 2.584-.633 5.573-1.369 1.115-.278-.026.076z" fill="#0F89FF"/><path d="M34.833 47.221c2.23.38 4.788.583 7.398.254l.48 1.57.355 1.115.608 2.103 6.992-1.698-1.874-3.85-.583-1.19c.43-.229.836-.508 1.267-.786 1.621-1.14 3.141-2.686 4.433-4.712 9.55-15.2-2.584-26.068-2.584-26.068s7.828 14.414-2.178 25.434c-9.374 10.311-19.76 6.384-20.85 5.928l-.101-.05s.101.05.304.126c.81.355 3.217 1.267 6.333 1.824z" fill="#0060D3"/><path d="M47.246 55.404l1.14 4.408L13.3 66.754l2.66-6.156 31.286-5.194z" fill="#31A2FF"/><path d="M50.388 54.695l-3.141.71 1.14 4.407L13.3 66.754l-.709 1.646a1.27 1.27 0 01-.127.33c-.05.05-.076.126-.126.177-.026.025-.076.076-.127.101a1.963 1.963 0 01-.405.178l41.724-6.131-3.142-8.36z" fill="#0F89FF"/><path d="M28.652 46.993l-3.47 2.356L7.751 61.18c.177.127.33.253.507.38.253.203.506.43.76.659.253.228.506.481.76.734.329.33.633.684.912 1.04.152.202.304.38.456.582.557.76.962 1.494 1.216 2.153.025.05.05.127.076.177.152.406.228.786.202 1.115 0 .152-.025.279-.05.405l4.129-9.55 4.332-1.064 9.652-6.334 1.317-.86.507-2.028c-1.368-.43-2.66-.937-3.876-1.596z" fill="#83CDFF"/><path d="M12.464 68.73c.126-.204.177-.432.177-.71 0-.33-.076-.71-.203-1.115-.253-.71-.684-1.52-1.292-2.356a12.92 12.92 0 00-1.368-1.621 13.837 13.837 0 00-2.026-1.748c-1.14-.81-2.204-1.267-2.99-1.267-.354 0-.658.101-.861.304-.025.025-.025.05-.05.05-.811.963.329 3.573 2.609 5.903 2.229 2.306 4.762 3.522 5.776 2.812.05-.025.076-.05.126-.1 0-.026.051-.102.102-.153z" fill="#fff"/><path d="M48.235 45.55l2.457 5.04 1.875-.455-3.09-5.371c-.406.279-.811.532-1.242.785z" fill="#0F89FF"/><path d="M54.264 42.155c-.38.456-.279.355-.71.81l17.633 8.842c.228.05.405.127.557.279 1.013.962-.05 3.749-2.381 6.257-1.394 1.494-2.914 2.533-4.13 2.938h-.025c-.025 0-.05.026-.101.026v-.026l-.076-.126-1.774-2.635-4.002-6.004-8.842 2.179 3.116 8.36L11.78 69.16c-1.19.228-3.395-.937-5.37-2.99-2.28-2.355-3.42-4.964-2.61-5.902.025-.025.025-.05.05-.05.203-.203.507-.305.862-.305l16.897-11.906L0 39.697V76h76V28.703L54.264 42.155zM12.008 69.084z" fill="#0060D3"/></g><defs><clipPath id="clip0"><path fill="#fff" d="M0 0h76v76H0z"/></clipPath></defs></svg>