<svg width="54" height="53" viewBox="0 0 54 53" fill="none" xmlns="http://www.w3.org/2000/svg">
<g filter="url(#filter0_d)">
<path d="M15.8503 23.3961C15.8218 23.3961 15.7933 23.3951 15.7645 23.3934L3.37532 22.6199C2.90394 22.5907 2.48097 22.3212 2.25506 21.9068C2.0295 21.4924 2.03224 20.9908 2.26296 20.5788C2.32784 20.4628 3.88928 17.7096 6.8628 15.3084C10.881 12.064 15.5523 11.0118 20.3712 12.2656C20.7712 12.3696 21.1028 12.6484 21.2745 13.0243C21.4461 13.4003 21.4393 13.8335 21.2556 14.2036L17.0804 22.6326C16.8477 23.1022 16.3694 23.3961 15.8503 23.3961Z" fill="#FF5B5B"/>
<path d="M25.8379 45C25.612 45 25.3861 44.9444 25.1812 44.8325C24.7668 44.6066 24.4973 44.1839 24.4677 43.7125L23.6946 31.3234C23.6602 30.7717 23.96 30.2529 24.4554 30.0074L32.8843 25.832C33.2548 25.6486 33.6877 25.6418 34.0636 25.8134C34.4399 25.9847 34.7183 26.3167 34.8224 26.7167C36.0765 31.5356 35.0242 36.2068 31.7795 40.2251C29.3786 43.1986 26.6252 44.7597 26.5091 44.8249C26.3007 44.9416 26.0693 45 25.8379 45Z" fill="#FF193D"/>
<path d="M44.8855 11.0794L36.0085 2.20241C35.6528 1.84673 35.131 1.71421 34.6486 1.85668C28.706 3.6145 23.8278 6.37138 20.1484 10.0504C19.381 10.8181 18.6439 11.65 17.958 12.5227C15.9633 15.0588 14.2971 18.0574 13.0062 21.4354C12.184 23.5883 11.5145 25.8948 11.0163 28.2905C10.1463 32.4753 10.0997 35.4745 10.0979 35.6002C10.0935 35.9699 10.2384 36.3263 10.5 36.5879C10.7575 36.8454 11.107 36.9899 11.4709 36.9899H11.4877C11.6137 36.9886 14.613 36.9419 18.7974 36.0719C21.1931 35.5737 23.4995 34.9043 25.6529 34.0817C29.0305 32.7908 32.0291 31.125 34.5645 29.1306C35.4379 28.4443 36.2698 27.7072 37.0375 26.9395C40.7168 23.2601 43.4737 18.3818 45.2312 12.4393C45.374 11.9569 45.2412 11.4351 44.8855 11.0794Z" fill="#E1F1FA"/>
<path d="M19.7354 34.0034L13.0845 27.3526C12.5936 26.8616 11.8132 26.8146 11.2666 27.2431C10.842 27.5761 10.4379 27.9338 10.0657 28.306C5.43805 32.9336 5.29488 40.1039 5.29111 40.4067C5.2863 40.7769 5.43118 41.1332 5.69314 41.3948C5.95063 41.6527 6.29979 41.7972 6.66371 41.7972C6.66955 41.7972 6.67538 41.7972 6.68122 41.7969C6.98403 41.7931 14.1547 41.6499 18.782 37.0223C19.1541 36.6501 19.5119 36.246 19.8449 35.8213C20.2734 35.2748 20.2263 34.4944 19.7354 34.0034Z" fill="#FFF261"/>
<path d="M13.1123 21.1607L9.03192 25.2414C8.77443 25.4986 8.62955 25.8477 8.62955 26.212C8.62955 26.5759 8.77443 26.9251 9.03192 27.1826L19.9053 38.0559C20.1624 38.3134 20.5116 38.458 20.8759 38.458C21.2401 38.458 21.5889 38.3134 21.8464 38.0559L25.9268 33.9755L13.1123 21.1607Z" fill="#1B3B6B"/>
<path d="M30.9249 20.3512C29.8064 20.3512 28.7545 19.9155 27.9634 19.1245C26.3306 17.4916 26.3306 14.835 27.9634 13.2018C28.7545 12.4108 29.8064 11.9751 30.9249 11.9751C32.0435 11.9751 33.0954 12.4108 33.8864 13.2018C34.6774 13.9928 35.1131 15.0444 35.1131 16.1633C35.1131 17.2818 34.6774 18.3334 33.8864 19.1245C33.0954 19.9155 32.0435 20.3512 30.9249 20.3512Z" fill="#06CCAB"/>
<path d="M30.9246 21.6939C29.4473 21.6939 28.0585 21.1185 27.0141 20.0741C24.8577 17.9177 24.8577 14.4089 27.0141 12.2525C28.0585 11.2081 29.4476 10.6327 30.9246 10.6327C32.4019 10.6327 33.7906 11.2081 34.8354 12.2525C35.8801 13.2973 36.4552 14.686 36.4552 16.1633C36.4552 17.6406 35.8801 19.0294 34.8354 20.0741C33.7906 21.1185 32.4019 21.6939 30.9246 21.6939ZM30.9246 13.3783C30.1809 13.3783 29.4812 13.668 28.9553 14.194C27.8697 15.2799 27.8697 17.0467 28.9553 18.1326C29.4812 18.6586 30.1809 18.9483 30.9246 18.9483C31.6686 18.9483 32.3679 18.6586 32.8939 18.1326C33.4199 17.6066 33.7096 16.9073 33.7096 16.1633C33.7096 15.4193 33.4199 14.72 32.8939 14.194C32.3679 13.668 31.6686 13.3783 30.9246 13.3783Z" fill="#1B3B6B"/>
<path d="M46.6859 0.402376C46.4239 0.14042 46.0655 -0.00686538 45.6974 0.000344403C45.4938 0.00274766 40.641 0.0844585 34.6486 1.85669L45.2312 12.4393C47.0034 6.44692 47.0851 1.59405 47.0875 1.39046C47.0924 1.02036 46.9475 0.663988 46.6859 0.402376Z" fill="#FF5B5B"/>
<path d="M44.8855 11.0794L40.447 6.6409L10.5 36.5879C10.7575 36.8454 11.1066 36.99 11.4706 36.99H11.4877C11.6134 36.9886 14.6126 36.9419 18.7974 36.0719C21.1931 35.5737 23.4992 34.9043 25.6525 34.0817C29.0305 32.7908 32.0291 31.125 34.5645 29.1306C35.4376 28.4443 36.2698 27.7072 37.0371 26.9395C40.7165 23.2601 43.4734 18.3819 45.2309 12.4393C45.374 11.9569 45.2412 11.4351 44.8855 11.0794Z" fill="#CDEBFC"/>
<path d="M19.7354 34.0034L16.4099 30.6779L5.69276 41.3948V41.3951C5.9506 41.6526 6.29976 41.7972 6.66368 41.7972H6.68084C6.984 41.7934 14.1543 41.6499 18.7819 37.0222C19.1541 36.6501 19.5119 36.246 19.8445 35.8213C20.2733 35.2747 20.2267 34.4943 19.7354 34.0034Z" fill="#FDBF00"/>
<path d="M19.5197 27.5681L14.4684 32.6195L19.9053 38.0563C20.1624 38.3135 20.5116 38.4583 20.8758 38.4583C21.2401 38.4583 21.5889 38.3135 21.8464 38.0563L25.9268 33.9756L19.5197 27.5681Z" fill="#001035"/>
<path d="M33.8864 13.2018C33.8861 13.2018 33.8861 13.2018 33.8861 13.2018L27.9634 19.1245H27.9638C28.7544 19.9155 29.8064 20.3511 30.9249 20.3511C32.0435 20.3511 33.0954 19.9155 33.8864 19.1245C34.6774 18.3334 35.1131 17.2818 35.1131 16.1633C35.1128 15.0447 34.6774 13.9928 33.8864 13.2018Z" fill="#1CADB5"/>
<path d="M34.8354 12.2525L32.8939 14.194C33.4199 14.72 33.7097 15.4193 33.7097 16.1633C33.7097 16.9073 33.4199 17.6066 32.8939 18.1326C32.3679 18.6586 31.6686 18.9483 30.9246 18.9483C30.1806 18.9483 29.4813 18.6586 28.9553 18.1326C28.9553 18.1326 28.9553 18.1326 28.9553 18.1322L27.0138 20.0737V20.0741C28.0585 21.1185 29.4473 21.6939 30.9246 21.6939C32.4019 21.6939 33.7907 21.1185 34.8354 20.0741C35.8798 19.0293 36.4552 17.6406 36.4552 16.1633C36.4552 14.686 35.8798 13.2972 34.8354 12.2525Z" fill="#001035"/>
<path d="M46.6855 0.402039L39.9399 7.14799L45.2312 12.4393C47.0034 6.44693 47.0851 1.59406 47.0876 1.39047C47.0924 1.02036 46.9475 0.663994 46.6855 0.402039Z" fill="#FF193D"/>
</g>
<defs>
<filter id="filter0_d" x="0" y="0" width="53.0877" height="53" filterUnits="userSpaceOnUse" color-interpolation-filters="sRGB">
<feFlood flood-opacity="0" result="BackgroundImageFix"/>
<feColorMatrix in="SourceAlpha" type="matrix" values="0 0 0 0 0 0 0 0 0 0 0 0 0 0 0 0 0 0 127 0"/>
<feOffset dx="2" dy="4"/>
<feGaussianBlur stdDeviation="2"/>
<feColorMatrix type="matrix" values="0 0 0 0 0 0 0 0 0 0 0 0 0 0 0 0 0 0 0.25 0"/>
<feBlend mode="normal" in2="BackgroundImageFix" result="effect1_dropShadow"/>
<feBlend mode="normal" in="SourceGraphic" in2="effect1_dropShadow" result="shape"/>
</filter>
</defs>
</svg>
