<svg width="25" height="25" viewBox="0 0 25 25" fill="none" xmlns="http://www.w3.org/2000/svg">
<g clip-path="url(#clip0)">
<path d="M24.8918 0.753578C24.854 0.413117 24.5853 0.14418 24.2446 0.106415C18.4485 -0.537315 13.5078 1.78126 9.47752 5.92993C8.32415 7.11726 7.32374 8.37401 6.46982 9.58689C5.02463 9.52814 3.42226 10.182 2.28625 11.318L0.214483 13.3898C-0.0199299 13.6242 -0.0676136 13.987 0.098135 14.274C0.263884 14.5611 0.601675 14.7009 0.92211 14.6152C1.40276 14.4861 2.18382 14.336 2.93417 14.3011C3.20845 14.2883 3.43638 14.2923 3.62578 14.3068C3.16859 15.1861 2.81821 15.9227 2.70205 16.1072C2.52009 16.3967 2.56224 16.7734 2.80409 17.0153L4.00286 18.214C2.25821 20.5934 2.22941 21.812 2.23551 21.9847C2.24829 22.3503 2.53344 22.6929 3.0057 22.6929C3.41463 22.6929 4.58746 22.5193 6.72255 20.9337L7.9835 22.1947C8.22706 22.4382 8.60758 22.479 8.8975 22.2929C9.09472 22.166 9.78804 21.8304 10.6195 21.3959C10.6332 22.0156 10.5491 22.9256 10.3665 24.159C10.2628 24.8586 11.1133 25.2798 11.609 24.7843L13.6807 22.7125C14.7491 21.6442 15.3686 20.0575 15.3228 18.569C16.6005 17.6761 17.9297 16.6229 19.1709 15.4058C23.2801 11.3762 25.5273 6.47276 24.8918 0.753578ZM23.4906 1.50736C23.6075 3.08665 23.4828 4.61748 23.1195 6.09892C22.2171 5.81473 21.3349 5.25645 20.5382 4.45994C19.7387 3.66019 19.1793 2.77441 18.8962 1.8688C20.3771 1.5108 21.9089 1.38949 23.4906 1.50736ZM2.83861 12.8374L3.32194 12.3539C3.90654 11.7695 4.66681 11.3485 5.42288 11.1593C5.02787 11.7863 4.67577 12.385 4.36526 12.9375C3.88556 12.8317 3.35226 12.812 2.83861 12.8374ZM4.22468 16.3643C4.38318 16.0515 4.57487 15.6593 4.92678 14.9944L5.89094 15.9588C5.53217 16.3437 5.2083 16.7093 4.91648 17.0559L4.22468 16.3643ZM7.80649 16.0841C8.34017 15.5506 8.85191 15.4531 9.48763 15.4394C9.47371 16.0589 9.37433 16.588 8.84237 17.12C6.56843 19.3939 5.00975 20.4094 4.07763 20.8626C4.53749 19.9125 5.55563 18.3349 7.80649 16.0841ZM8.63028 20.7699L7.87497 20.0144C8.21982 19.7214 8.58431 19.3966 8.96883 19.0365L9.99518 20.0628C9.32036 20.4231 9.03883 20.5587 8.63028 20.7699ZM12.6447 21.6766L12.0584 22.2631C12.1058 21.5526 12.0894 21.035 12.0223 20.6356C12.5609 20.3323 13.1459 19.9884 13.7589 19.6037C13.5842 20.3781 13.1915 21.13 12.6447 21.6766ZM11.3286 19.3247L10.0154 18.0113C10.9872 16.942 10.9509 15.9117 10.9509 14.7079C10.9509 14.3034 10.6231 13.9755 10.2185 13.9755C9.09395 13.9755 8.01172 13.9152 6.91519 14.9113L5.66111 13.6572C9.08556 7.65227 13.0439 3.85054 17.4912 2.28499C17.8433 3.42425 18.5287 4.52193 19.5025 5.49582C20.4719 6.46532 21.5644 7.14892 22.6987 7.50235C21.124 11.9253 17.3232 15.8811 11.3286 19.3247Z" fill="black"/>
<path d="M24.8918 0.753578C24.854 0.413117 24.5853 0.14418 24.2446 0.106415C18.4485 -0.537315 13.5078 1.78126 9.47752 5.92993C8.32415 7.11726 7.32374 8.37401 6.46982 9.58689C5.02463 9.52814 3.42226 10.182 2.28625 11.318L0.214483 13.3898C-0.0199299 13.6242 -0.0676136 13.987 0.098135 14.274C0.263884 14.5611 0.601675 14.7009 0.92211 14.6152C1.40276 14.4861 2.18382 14.336 2.93417 14.3011C3.20845 14.2883 3.43638 14.2923 3.62578 14.3068C3.16859 15.1861 2.81821 15.9227 2.70205 16.1072C2.52009 16.3967 2.56224 16.7734 2.80409 17.0153L4.00286 18.214C2.25821 20.5934 2.22941 21.812 2.23551 21.9847C2.24829 22.3503 2.53344 22.6929 3.0057 22.6929C3.41463 22.6929 4.58746 22.5193 6.72255 20.9337L7.9835 22.1947C8.22706 22.4382 8.60758 22.479 8.8975 22.2929C9.09472 22.166 9.78804 21.8304 10.6195 21.3959C10.6332 22.0156 10.5491 22.9256 10.3665 24.159C10.2628 24.8586 11.1133 25.2798 11.609 24.7843L13.6807 22.7125C14.7491 21.6442 15.3686 20.0575 15.3228 18.569C16.6005 17.6761 17.9297 16.6229 19.1709 15.4058C23.2801 11.3762 25.5273 6.47276 24.8918 0.753578ZM23.4906 1.50736C23.6075 3.08665 23.4828 4.61748 23.1195 6.09892C22.2171 5.81473 21.3349 5.25645 20.5382 4.45994C19.7387 3.66019 19.1793 2.77441 18.8962 1.8688C20.3771 1.5108 21.9089 1.38949 23.4906 1.50736ZM2.83861 12.8374L3.32194 12.3539C3.90654 11.7695 4.66681 11.3485 5.42288 11.1593C5.02787 11.7863 4.67577 12.385 4.36526 12.9375C3.88556 12.8317 3.35226 12.812 2.83861 12.8374ZM4.22468 16.3643C4.38318 16.0515 4.57487 15.6593 4.92678 14.9944L5.89094 15.9588C5.53217 16.3437 5.2083 16.7093 4.91648 17.0559L4.22468 16.3643ZM7.80649 16.0841C8.34017 15.5506 8.85191 15.4531 9.48763 15.4394C9.47371 16.0589 9.37433 16.588 8.84237 17.12C6.56843 19.3939 5.00975 20.4094 4.07763 20.8626C4.53749 19.9125 5.55563 18.3349 7.80649 16.0841ZM8.63028 20.7699L7.87497 20.0144C8.21982 19.7214 8.58431 19.3966 8.96883 19.0365L9.99518 20.0628C9.32036 20.4231 9.03883 20.5587 8.63028 20.7699ZM12.6447 21.6766L12.0584 22.2631C12.1058 21.5526 12.0894 21.035 12.0223 20.6356C12.5609 20.3323 13.1459 19.9884 13.7589 19.6037C13.5842 20.3781 13.1915 21.13 12.6447 21.6766ZM11.3286 19.3247L10.0154 18.0113C10.9872 16.942 10.9509 15.9117 10.9509 14.7079C10.9509 14.3034 10.6231 13.9755 10.2185 13.9755C9.09395 13.9755 8.01172 13.9152 6.91519 14.9113L5.66111 13.6572C9.08556 7.65227 13.0439 3.85054 17.4912 2.28499C17.8433 3.42425 18.5287 4.52193 19.5025 5.49582C20.4719 6.46532 21.5644 7.14892 22.6987 7.50235C21.124 11.9253 17.3232 15.8811 11.3286 19.3247Z" fill="#C4C4C4"/>
<path d="M24.8918 0.753578C24.854 0.413117 24.5853 0.14418 24.2446 0.106415C18.4485 -0.537315 13.5078 1.78126 9.47752 5.92993C8.32415 7.11726 7.32374 8.37401 6.46982 9.58689C5.02463 9.52814 3.42226 10.182 2.28625 11.318L0.214483 13.3898C-0.0199299 13.6242 -0.0676136 13.987 0.098135 14.274C0.263884 14.5611 0.601675 14.7009 0.92211 14.6152C1.40276 14.4861 2.18382 14.336 2.93417 14.3011C3.20845 14.2883 3.43638 14.2923 3.62578 14.3068C3.16859 15.1861 2.81821 15.9227 2.70205 16.1072C2.52009 16.3967 2.56224 16.7734 2.80409 17.0153L4.00286 18.214C2.25821 20.5934 2.22941 21.812 2.23551 21.9847C2.24829 22.3503 2.53344 22.6929 3.0057 22.6929C3.41463 22.6929 4.58746 22.5193 6.72255 20.9337L7.9835 22.1947C8.22706 22.4382 8.60758 22.479 8.8975 22.2929C9.09472 22.166 9.78804 21.8304 10.6195 21.3959C10.6332 22.0156 10.5491 22.9256 10.3665 24.159C10.2628 24.8586 11.1133 25.2798 11.609 24.7843L13.6807 22.7125C14.7491 21.6442 15.3686 20.0575 15.3228 18.569C16.6005 17.6761 17.9297 16.6229 19.1709 15.4058C23.2801 11.3762 25.5273 6.47276 24.8918 0.753578ZM23.4906 1.50736C23.6075 3.08665 23.4828 4.61748 23.1195 6.09892C22.2171 5.81473 21.3349 5.25645 20.5382 4.45994C19.7387 3.66019 19.1793 2.77441 18.8962 1.8688C20.3771 1.5108 21.9089 1.38949 23.4906 1.50736ZM2.83861 12.8374L3.32194 12.3539C3.90654 11.7695 4.66681 11.3485 5.42288 11.1593C5.02787 11.7863 4.67577 12.385 4.36526 12.9375C3.88556 12.8317 3.35226 12.812 2.83861 12.8374ZM4.22468 16.3643C4.38318 16.0515 4.57487 15.6593 4.92678 14.9944L5.89094 15.9588C5.53217 16.3437 5.2083 16.7093 4.91648 17.0559L4.22468 16.3643ZM7.80649 16.0841C8.34017 15.5506 8.85191 15.4531 9.48763 15.4394C9.47371 16.0589 9.37433 16.588 8.84237 17.12C6.56843 19.3939 5.00975 20.4094 4.07763 20.8626C4.53749 19.9125 5.55563 18.3349 7.80649 16.0841ZM8.63028 20.7699L7.87497 20.0144C8.21982 19.7214 8.58431 19.3966 8.96883 19.0365L9.99518 20.0628C9.32036 20.4231 9.03883 20.5587 8.63028 20.7699ZM12.6447 21.6766L12.0584 22.2631C12.1058 21.5526 12.0894 21.035 12.0223 20.6356C12.5609 20.3323 13.1459 19.9884 13.7589 19.6037C13.5842 20.3781 13.1915 21.13 12.6447 21.6766ZM11.3286 19.3247L10.0154 18.0113C10.9872 16.942 10.9509 15.9117 10.9509 14.7079C10.9509 14.3034 10.6231 13.9755 10.2185 13.9755C9.09395 13.9755 8.01172 13.9152 6.91519 14.9113L5.66111 13.6572C9.08556 7.65227 13.0439 3.85054 17.4912 2.28499C17.8433 3.42425 18.5287 4.52193 19.5025 5.49582C20.4719 6.46532 21.5644 7.14892 22.6987 7.50235C21.124 11.9253 17.3232 15.8811 11.3286 19.3247Z" fill="url(#paint0_linear)"/>
<path d="M18.4668 6.53157C17.0387 5.10373 14.7152 5.10373 13.2874 6.53157C11.8595 7.95961 11.8595 10.2831 13.2874 11.711C14.7152 13.1388 17.0387 13.139 18.4668 11.711C19.8946 10.2831 19.8946 7.95961 18.4668 6.53157ZM17.4309 10.6751C16.5741 11.5319 15.1798 11.5319 14.3232 10.6751C13.4665 9.81832 13.4665 8.42424 14.3232 7.56746C15.1798 6.71087 16.5739 6.71067 17.4309 7.56746C18.2877 8.42424 18.2877 9.81832 17.4309 10.6751Z" fill="black"/>
<path d="M18.4668 6.53157C17.0387 5.10373 14.7152 5.10373 13.2874 6.53157C11.8595 7.95961 11.8595 10.2831 13.2874 11.711C14.7152 13.1388 17.0387 13.139 18.4668 11.711C19.8946 10.2831 19.8946 7.95961 18.4668 6.53157ZM17.4309 10.6751C16.5741 11.5319 15.1798 11.5319 14.3232 10.6751C13.4665 9.81832 13.4665 8.42424 14.3232 7.56746C15.1798 6.71087 16.5739 6.71067 17.4309 7.56746C18.2877 8.42424 18.2877 9.81832 17.4309 10.6751Z" fill="#C4C4C4"/>
<path d="M18.4668 6.53157C17.0387 5.10373 14.7152 5.10373 13.2874 6.53157C11.8595 7.95961 11.8595 10.2831 13.2874 11.711C14.7152 13.1388 17.0387 13.139 18.4668 11.711C19.8946 10.2831 19.8946 7.95961 18.4668 6.53157ZM17.4309 10.6751C16.5741 11.5319 15.1798 11.5319 14.3232 10.6751C13.4665 9.81832 13.4665 8.42424 14.3232 7.56746C15.1798 6.71087 16.5739 6.71067 17.4309 7.56746C18.2877 8.42424 18.2877 9.81832 17.4309 10.6751Z" fill="url(#paint1_linear)"/>
</g>
<defs>
<linearGradient id="paint0_linear" x1="-2.67029e-05" y1="12.6923" x2="24.9983" y2="12.6923" gradientUnits="userSpaceOnUse">
<stop stop-color="#35A3FF"/>
<stop offset="0.680951" stop-color="#0D6DD8"/>
<stop offset="1" stop-color="#33A0FD"/>
</linearGradient>
<linearGradient id="paint1_linear" x1="12.2165" y1="9.17763" x2="19.5376" y2="9.17763" gradientUnits="userSpaceOnUse">
<stop stop-color="#35A3FF"/>
<stop offset="0.680951" stop-color="#0D6DD8"/>
<stop offset="1" stop-color="#33A0FD"/>
</linearGradient>
<clipPath id="clip0">
<rect width="25" height="25" fill="white"/>
</clipPath>
</defs>
</svg>
