<svg width="25" height="25" viewBox="0 0 25 25" fill="none" xmlns="http://www.w3.org/2000/svg">
<g clip-path="url(#clip0)">
<path d="M24.8918 0.753578C24.854 0.413117 24.5853 0.14418 24.2446 0.106415C18.4486 -0.537315 13.5078 1.78126 9.47755 5.92993C8.32417 7.11726 7.32377 8.37401 6.46985 9.58689C5.02465 9.52814 3.42229 10.182 2.28627 11.318L0.21451 13.3898C-0.0199032 13.6242 -0.0675869 13.987 0.0981617 14.274C0.26391 14.5611 0.601702 14.7009 0.922136 14.6152C1.40279 14.4861 2.18385 14.336 2.9342 14.3011C3.20848 14.2883 3.4364 14.2923 3.6258 14.3068C3.16861 15.1861 2.81823 15.9227 2.70207 16.1072C2.52011 16.3967 2.56227 16.7734 2.80412 17.0153L4.00289 18.214C2.25823 20.5934 2.22943 21.812 2.23554 21.9847C2.24832 22.3503 2.53346 22.6929 3.00572 22.6929C3.41466 22.6929 4.58749 22.5193 6.72257 20.9337L7.98352 22.1947C8.22709 22.4382 8.60761 22.479 8.89752 22.2929C9.09474 22.166 9.78806 21.8304 10.6195 21.3959C10.6332 22.0156 10.5491 22.9256 10.3666 24.159C10.2628 24.8586 11.1133 25.2798 11.609 24.7843L13.6808 22.7125C14.7491 21.6442 15.3686 20.0575 15.3228 18.569C16.6005 17.6761 17.9298 16.6229 19.1709 15.4058C23.2801 11.3762 25.5273 6.47276 24.8918 0.753578ZM23.4907 1.50736C23.6076 3.08665 23.4828 4.61748 23.1195 6.09892C22.2171 5.81473 21.335 5.25645 20.5383 4.45994C19.7387 3.66019 19.1793 2.77441 18.8962 1.8688C20.3771 1.5108 21.9089 1.38949 23.4907 1.50736ZM2.83864 12.8374L3.32196 12.3539C3.90657 11.7695 4.66683 11.3485 5.42291 11.1593C5.0279 11.7863 4.6758 12.385 4.36528 12.9375C3.88558 12.8317 3.35229 12.812 2.83864 12.8374ZM4.22471 16.3643C4.38321 16.0515 4.5749 15.6593 4.92681 14.9944L5.89097 15.9588C5.5322 16.3437 5.20833 16.7093 4.91651 17.0559L4.22471 16.3643ZM7.80652 16.0841C8.3402 15.5506 8.85194 15.4531 9.48766 15.4394C9.47373 16.0589 9.37436 16.588 8.8424 17.12C6.56846 19.3939 5.00978 20.4094 4.07765 20.8626C4.53752 19.9125 5.55566 18.3349 7.80652 16.0841ZM8.6303 20.7699L7.87499 20.0144C8.21984 19.7214 8.58434 19.3966 8.96886 19.0365L9.9952 20.0628C9.32038 20.4231 9.03886 20.5587 8.6303 20.7699ZM12.6447 21.6766L12.0584 22.2631C12.1059 21.5526 12.0895 21.035 12.0223 20.6356C12.561 20.3323 13.146 19.9884 13.759 19.6037C13.5843 20.3781 13.1915 21.13 12.6447 21.6766ZM11.3286 19.3247L10.0154 18.0113C10.9872 16.942 10.951 15.9117 10.951 14.7079C10.951 14.3034 10.6231 13.9755 10.2186 13.9755C9.09398 13.9755 8.01175 13.9152 6.91522 14.9113L5.66114 13.6572C9.08559 7.65227 13.0439 3.85054 17.4913 2.28499C17.8434 3.42425 18.5287 4.52193 19.5026 5.49582C20.4719 6.46532 21.5644 7.14892 22.6987 7.50235C21.124 11.9253 17.3232 15.8811 11.3286 19.3247Z" fill="black"/>
<path d="M24.8918 0.753578C24.854 0.413117 24.5853 0.14418 24.2446 0.106415C18.4486 -0.537315 13.5078 1.78126 9.47755 5.92993C8.32417 7.11726 7.32377 8.37401 6.46985 9.58689C5.02465 9.52814 3.42229 10.182 2.28627 11.318L0.21451 13.3898C-0.0199032 13.6242 -0.0675869 13.987 0.0981617 14.274C0.26391 14.5611 0.601702 14.7009 0.922136 14.6152C1.40279 14.4861 2.18385 14.336 2.9342 14.3011C3.20848 14.2883 3.4364 14.2923 3.6258 14.3068C3.16861 15.1861 2.81823 15.9227 2.70207 16.1072C2.52011 16.3967 2.56227 16.7734 2.80412 17.0153L4.00289 18.214C2.25823 20.5934 2.22943 21.812 2.23554 21.9847C2.24832 22.3503 2.53346 22.6929 3.00572 22.6929C3.41466 22.6929 4.58749 22.5193 6.72257 20.9337L7.98352 22.1947C8.22709 22.4382 8.60761 22.479 8.89752 22.2929C9.09474 22.166 9.78806 21.8304 10.6195 21.3959C10.6332 22.0156 10.5491 22.9256 10.3666 24.159C10.2628 24.8586 11.1133 25.2798 11.609 24.7843L13.6808 22.7125C14.7491 21.6442 15.3686 20.0575 15.3228 18.569C16.6005 17.6761 17.9298 16.6229 19.1709 15.4058C23.2801 11.3762 25.5273 6.47276 24.8918 0.753578ZM23.4907 1.50736C23.6076 3.08665 23.4828 4.61748 23.1195 6.09892C22.2171 5.81473 21.335 5.25645 20.5383 4.45994C19.7387 3.66019 19.1793 2.77441 18.8962 1.8688C20.3771 1.5108 21.9089 1.38949 23.4907 1.50736ZM2.83864 12.8374L3.32196 12.3539C3.90657 11.7695 4.66683 11.3485 5.42291 11.1593C5.0279 11.7863 4.6758 12.385 4.36528 12.9375C3.88558 12.8317 3.35229 12.812 2.83864 12.8374ZM4.22471 16.3643C4.38321 16.0515 4.5749 15.6593 4.92681 14.9944L5.89097 15.9588C5.5322 16.3437 5.20833 16.7093 4.91651 17.0559L4.22471 16.3643ZM7.80652 16.0841C8.3402 15.5506 8.85194 15.4531 9.48766 15.4394C9.47373 16.0589 9.37436 16.588 8.8424 17.12C6.56846 19.3939 5.00978 20.4094 4.07765 20.8626C4.53752 19.9125 5.55566 18.3349 7.80652 16.0841ZM8.6303 20.7699L7.87499 20.0144C8.21984 19.7214 8.58434 19.3966 8.96886 19.0365L9.9952 20.0628C9.32038 20.4231 9.03886 20.5587 8.6303 20.7699ZM12.6447 21.6766L12.0584 22.2631C12.1059 21.5526 12.0895 21.035 12.0223 20.6356C12.561 20.3323 13.146 19.9884 13.759 19.6037C13.5843 20.3781 13.1915 21.13 12.6447 21.6766ZM11.3286 19.3247L10.0154 18.0113C10.9872 16.942 10.951 15.9117 10.951 14.7079C10.951 14.3034 10.6231 13.9755 10.2186 13.9755C9.09398 13.9755 8.01175 13.9152 6.91522 14.9113L5.66114 13.6572C9.08559 7.65227 13.0439 3.85054 17.4913 2.28499C17.8434 3.42425 18.5287 4.52193 19.5026 5.49582C20.4719 6.46532 21.5644 7.14892 22.6987 7.50235C21.124 11.9253 17.3232 15.8811 11.3286 19.3247Z" fill="#C4C4C4"/>
<path d="M24.8918 0.753578C24.854 0.413117 24.5853 0.14418 24.2446 0.106415C18.4486 -0.537315 13.5078 1.78126 9.47755 5.92993C8.32417 7.11726 7.32377 8.37401 6.46985 9.58689C5.02465 9.52814 3.42229 10.182 2.28627 11.318L0.21451 13.3898C-0.0199032 13.6242 -0.0675869 13.987 0.0981617 14.274C0.26391 14.5611 0.601702 14.7009 0.922136 14.6152C1.40279 14.4861 2.18385 14.336 2.9342 14.3011C3.20848 14.2883 3.4364 14.2923 3.6258 14.3068C3.16861 15.1861 2.81823 15.9227 2.70207 16.1072C2.52011 16.3967 2.56227 16.7734 2.80412 17.0153L4.00289 18.214C2.25823 20.5934 2.22943 21.812 2.23554 21.9847C2.24832 22.3503 2.53346 22.6929 3.00572 22.6929C3.41466 22.6929 4.58749 22.5193 6.72257 20.9337L7.98352 22.1947C8.22709 22.4382 8.60761 22.479 8.89752 22.2929C9.09474 22.166 9.78806 21.8304 10.6195 21.3959C10.6332 22.0156 10.5491 22.9256 10.3666 24.159C10.2628 24.8586 11.1133 25.2798 11.609 24.7843L13.6808 22.7125C14.7491 21.6442 15.3686 20.0575 15.3228 18.569C16.6005 17.6761 17.9298 16.6229 19.1709 15.4058C23.2801 11.3762 25.5273 6.47276 24.8918 0.753578ZM23.4907 1.50736C23.6076 3.08665 23.4828 4.61748 23.1195 6.09892C22.2171 5.81473 21.335 5.25645 20.5383 4.45994C19.7387 3.66019 19.1793 2.77441 18.8962 1.8688C20.3771 1.5108 21.9089 1.38949 23.4907 1.50736ZM2.83864 12.8374L3.32196 12.3539C3.90657 11.7695 4.66683 11.3485 5.42291 11.1593C5.0279 11.7863 4.6758 12.385 4.36528 12.9375C3.88558 12.8317 3.35229 12.812 2.83864 12.8374ZM4.22471 16.3643C4.38321 16.0515 4.5749 15.6593 4.92681 14.9944L5.89097 15.9588C5.5322 16.3437 5.20833 16.7093 4.91651 17.0559L4.22471 16.3643ZM7.80652 16.0841C8.3402 15.5506 8.85194 15.4531 9.48766 15.4394C9.47373 16.0589 9.37436 16.588 8.8424 17.12C6.56846 19.3939 5.00978 20.4094 4.07765 20.8626C4.53752 19.9125 5.55566 18.3349 7.80652 16.0841ZM8.6303 20.7699L7.87499 20.0144C8.21984 19.7214 8.58434 19.3966 8.96886 19.0365L9.9952 20.0628C9.32038 20.4231 9.03886 20.5587 8.6303 20.7699ZM12.6447 21.6766L12.0584 22.2631C12.1059 21.5526 12.0895 21.035 12.0223 20.6356C12.561 20.3323 13.146 19.9884 13.759 19.6037C13.5843 20.3781 13.1915 21.13 12.6447 21.6766ZM11.3286 19.3247L10.0154 18.0113C10.9872 16.942 10.951 15.9117 10.951 14.7079C10.951 14.3034 10.6231 13.9755 10.2186 13.9755C9.09398 13.9755 8.01175 13.9152 6.91522 14.9113L5.66114 13.6572C9.08559 7.65227 13.0439 3.85054 17.4913 2.28499C17.8434 3.42425 18.5287 4.52193 19.5026 5.49582C20.4719 6.46532 21.5644 7.14892 22.6987 7.50235C21.124 11.9253 17.3232 15.8811 11.3286 19.3247Z" fill="#BAC8CF"/>
<path d="M18.4666 6.53157C17.0386 5.10373 14.715 5.10373 13.2872 6.53157C11.8593 7.95961 11.8593 10.2831 13.2872 11.711C14.715 13.1388 17.0386 13.139 18.4666 11.711C19.8944 10.2831 19.8944 7.95961 18.4666 6.53157ZM17.4307 10.6751C16.5739 11.5319 15.1797 11.5319 14.3231 10.6751C13.4663 9.81832 13.4663 8.42424 14.3231 7.56746C15.1797 6.71087 16.5737 6.71067 17.4307 7.56746C18.2875 8.42424 18.2875 9.81832 17.4307 10.6751Z" fill="#C4C4C4"/>
<path d="M18.4666 6.53157C17.0386 5.10373 14.715 5.10373 13.2872 6.53157C11.8593 7.95961 11.8593 10.2831 13.2872 11.711C14.715 13.1388 17.0386 13.139 18.4666 11.711C19.8944 10.2831 19.8944 7.95961 18.4666 6.53157ZM17.4307 10.6751C16.5739 11.5319 15.1797 11.5319 14.3231 10.6751C13.4663 9.81832 13.4663 8.42424 14.3231 7.56746C15.1797 6.71087 16.5737 6.71067 17.4307 7.56746C18.2875 8.42424 18.2875 9.81832 17.4307 10.6751Z" fill="#BAC8CF"/>
</g>
<defs>
<clipPath id="clip0">
<rect width="25" height="25" fill="white"/>
</clipPath>
</defs>
</svg>
