<svg width="230" height="2911" fill="none" xmlns="http://www.w3.org/2000/svg"><g clip-path="url(#clip0)"><path d="M136.502 2901.36c-2.494 6.39-9.977 10.56-16.822 11.09-8.804.63-15.815-8.96-15.15-17.76.665-8.8 6.836-16.27 13.801-21.7 12.074-9.41 27.113-14.52 42.309-16.28 6.596-.76 13.469-.92 19.631 1.56 6.161 2.47 11.464 7.99 11.944 14.6.48 6.61-5.247 13.51-11.843 12.83-14.66-1.92-40.018 5.86-43.87 15.66z" stroke="#BAC8CF" stroke-linecap="round" stroke-linejoin="round"/><path d="M142.672 2876.96l.841 2.23c.009.03.028.06.056.09.027.02.061.03.097.03.035 0 .069-.01.096-.03a.223.223 0 00.056-.09l.841-2.23 2.226-.84c.231-.08.231-.22 0-.3l-2.226-.84-.841-2.24a.171.171 0 00-.061-.07.153.153 0 00-.183 0 .171.171 0 00-.061.07l-.841 2.24-2.235.84a.133.133 0 00-.073.06.184.184 0 00-.027.09c0 .03.01.06.027.09.018.03.043.05.073.06l2.235.84z" fill="#BAC8CF"/><path d="M148.003 2858.98c-.134.71-.202 1.43-.204 2.15.005 1.72.397 3.42 1.146 4.98.75 1.55 1.838 2.91 3.184 3.99a11.611 11.611 0 004.596 2.22c1.679.39 3.424.39 5.105.02a11.65 11.65 0 004.612-2.19 11.517 11.517 0 003.213-3.97 11.49 11.49 0 001.183-4.97c.017-1.72-.352-3.42-1.08-4.99M199.217 1546.24c5.45-6.27 10.161-13.86 10.161-22.17 0-8.31-6.17-17.03-14.484-17.2-4.278-.08-8.314 1.99-11.945 4.23-6.78 4.16-14.217 9.29-21.967 7.48-2.873-.67-5.432-2.27-8.185-3.33-9.561-3.7-21.016-.39-28.231 6.89-7.214 7.28-10.448 17.91-10.087 28.16.332 9.45 4.101 19.46 12.249 24.25 5.875 3.47 13.071 3.7 19.399 6.29 6.106 2.46 11.15 6.95 16.887 10.16 5.737 3.2 12.998 5.13 18.808 2.05a19.043 19.043 0 006.032-5.54 37.696 37.696 0 006.467-30.77c-.924-5.06.85-5.97 4.896-10.5zM230.266 1601.05c-26.356 14.59-51.935 33.17-60.443 61.49-3.261 10.86-3.695 22.33-4.434 33.72M161.777 1721.33a59.002 59.002 0 01-.989 3.22c-6.854 20.32-23.667 35.65-32.766 55.03-13.044 27.8-8.656 61.26 4.286 89.12 12.942 27.85 33.579 51.27 53.792 74.4 15.99 18.29 32.064 36.97 44.166 57.91" stroke="#BAC8CF" stroke-miterlimit="10"/><path d="M230.266 1785.51c-12.342.78-24.702 2.23-36.028 7.04-13.792 5.86-25.967 17.87-27.713 32.76-2.032 17.31 9.912 32.87 21.598 45.81 13.044 14.51 26.9 28.58 42.143 40.73M230.265 1089.54a81.08 81.08 0 00-33.801 15.54c-21.542 17.01-33.45 45.51-30.401 72.77 2.688 24.17 16.166 47.25 12.932 71.36-3.131 23.44-21.2 41.72-31.648 62.95a103.324 103.324 0 00.148 90.1c17.801 35.86 54.336 57.54 82.779 85.96M151.402 1708.86c-.011-2.51.723-4.96 2.109-7.05a12.716 12.716 0 015.677-4.7 12.76 12.76 0 017.327-.74c2.462.48 4.726 1.69 6.504 3.46a12.651 12.651 0 012.772 13.81 12.655 12.655 0 01-4.667 5.7 12.64 12.64 0 01-7.048 2.14c-3.351 0-6.567-1.33-8.942-3.69a12.698 12.698 0 01-3.732-8.93v0zM152 1686.05c0-.6.179-1.19.514-1.69a3.033 3.033 0 013.129-1.3c.592.12 1.135.41 1.561.83.427.43.717.97.835 1.56a3.036 3.036 0 01-1.297 3.13 3.021 3.021 0 01-3.849-.38 3.029 3.029 0 01-.893-2.15zM139.061 1696.19c0-.67.198-1.32.569-1.88.372-.56.9-.99 1.518-1.24a3.352 3.352 0 011.953-.2 3.402 3.402 0 012.657 2.66c.13.66.063 1.34-.193 1.95a3.369 3.369 0 01-1.245 1.52c-.556.37-1.21.57-1.878.57-.897 0-1.757-.36-2.391-.99a3.367 3.367 0 01-.99-2.39v0zM140.862 1212.63l1.358 3.61c.02.05.054.09.098.12.045.03.097.05.151.05.054 0 .107-.02.151-.05a.258.258 0 00.099-.12l1.358-3.61 3.612-1.36c.369-.14.369-.36 0-.51l-3.612-1.35-1.358-3.61a.314.314 0 00-.093-.14.287.287 0 00-.157-.05.286.286 0 00-.156.05.306.306 0 00-.093.14l-1.358 3.61-3.612 1.35c-.053.02-.1.05-.132.1a.257.257 0 00-.051.16c0 .05.018.11.051.15.032.05.079.08.132.1l3.612 1.36zM173.277 1572.96l1.358 3.61c.015.05.048.1.093.14.045.03.1.05.157.05.057 0 .112-.02.157-.05a.311.311 0 00.092-.14l1.358-3.61 3.612-1.36c.37-.13.37-.36 0-.5l-3.612-1.36-1.358-3.61a.256.256 0 00-.098-.12.275.275 0 00-.151-.05.273.273 0 00-.151.05.258.258 0 00-.099.12l-1.358 3.61-3.611 1.36a.238.238 0 00-.124.1.266.266 0 000 .3.3.3 0 00.124.1l3.611 1.36zM158.506 1773.21l1.349 3.63c.021.04.057.09.102.12.045.03.098.04.152.04.054 0 .106-.01.152-.04.045-.03.08-.08.102-.12l1.349-3.63 3.621-1.34c.369-.14.369-.37 0-.51l-3.621-1.36-1.349-3.61a.277.277 0 00-.102-.12.281.281 0 00-.152-.05.278.278 0 00-.152.05.27.27 0 00-.102.12l-1.349 3.61-3.621 1.37a.232.232 0 00-.121.1.265.265 0 000 .3c.029.05.071.08.121.1l3.621 1.34zM108.336 1883.3l1.358 3.62c.019.05.054.09.098.13.044.03.097.04.151.04.054 0 .106-.01.151-.04a.345.345 0 00.098-.13l1.358-3.62 3.612-1.35c.37-.14.37-.37 0-.51l-3.612-1.35-1.358-3.62a.256.256 0 00-.098-.12.275.275 0 00-.151-.05.273.273 0 00-.151.05.256.256 0 00-.098.12l-1.358 3.62-3.612 1.35a.314.314 0 00-.121.11.243.243 0 00-.046.15c0 .05.016.1.046.15a.29.29 0 00.121.1l3.612 1.35z" stroke="#BAC8CF" stroke-miterlimit="10"/><path d="M184.631 1365.6l3.464 9.23a.66.66 0 00.25.33c.115.08.252.12.392.12s.277-.04.392-.12a.654.654 0 00.25-.33l3.474-9.23 9.237-3.47c.924-.36.924-.92 0-1.29l-9.237-3.47-3.474-9.23a.7.7 0 00-.25-.33.684.684 0 00-.392-.12c-.14 0-.277.04-.392.12a.706.706 0 00-.25.33l-3.464 9.23-9.238 3.47a.714.714 0 00-.322.25.723.723 0 00-.122.4c0 .14.042.27.122.39.079.11.191.2.322.25l9.238 3.47z" stroke="#BAC8CF" stroke-miterlimit="10"/><path d="M205.055 1867.71l.832 2.21c.008.04.028.07.055.09.028.02.062.03.097.03s.069-.01.097-.03a.144.144 0 00.055-.09l.832-2.21 2.217-.83c.231-.09.231-.23 0-.31l-2.217-.83-.832-2.22a.151.151 0 00-.055-.08.126.126 0 00-.097-.04.126.126 0 00-.097.04.151.151 0 00-.055.08l-.832 2.22-2.226.83c-.03.01-.055.04-.073.06a.174.174 0 00-.027.09c0 .04.009.07.027.09.018.03.043.05.073.07l2.226.83zM139.513 1530.55l.831 2.21a.2.2 0 00.061.08c.027.01.059.02.091.02a.27.27 0 00.092-.02.2.2 0 00.061-.08l.831-2.21 2.217-.84c.231-.08.231-.23 0-.31l-2.217-.83-.831-2.22a.171.171 0 00-.061-.07.153.153 0 00-.183 0 .171.171 0 00-.061.07l-.831 2.22-2.227.83a.15.15 0 00-.081.06c-.02.03-.03.06-.03.1 0 .03.01.07.03.09.02.03.049.05.081.06l2.227.84zM201.785 1343.14l.832 2.22c.011.03.032.06.06.08.028.02.062.03.097.03a.165.165 0 00.157-.11l.831-2.22 2.217-.83c.231-.09.231-.22 0-.31l-2.217-.83-.831-2.23a.165.165 0 00-.157-.11.166.166 0 00-.097.03.174.174 0 00-.06.08l-.832 2.23-2.217.83a.39.39 0 00-.073.06.191.191 0 00-.027.1c0 .03.01.06.027.09a.39.39 0 00.073.06l2.217.83z" fill="#BAC8CF"/><path d="M146.802 1262.51a7.275 7.275 0 003.507 2.21 7.3 7.3 0 004.142-.07c3.796-1.29 5.755-5.65 4.369-9.73l-4.194-12.4a1.403 1.403 0 00-1.746-.92l-1.7.57c-.175.07-.336.17-.473.3-.136.13-.245.28-.321.45a1.43 1.43 0 00-.018 1.1l.849 2.5c.124.33.112.7-.033 1.02-.146.33-.412.58-.743.71l-2.771.92c-.17.05-.349.07-.525.05a1.473 1.473 0 01-.503-.16c-.155-.09-.292-.2-.402-.34-.111-.14-.193-.3-.242-.47l-.841-2.51c-.112-.35-.36-.64-.688-.82a1.414 1.414 0 00-1.067-.1l-1.69.57a1.477 1.477 0 00-.8.75c-.077.18-.118.36-.122.55-.004.19.03.38.1.55l3.113 9.24" stroke="#BAC8CF" stroke-miterlimit="10"/><path d="M147.871 1262.29l4.026-1.36a2.75 2.75 0 001.72-3.48l-.586-1.74a2.752 2.752 0 00-3.478-1.72l-4.025 1.37a2.735 2.735 0 00-1.721 3.47l.586 1.74a2.752 2.752 0 003.478 1.72zM155.809 1246.01l1.33-.45c.368-.12.768-.09 1.114.08.346.18.609.48.734.84l2.928 8.67a1.437 1.437 0 01-.079 1.11c-.086.18-.204.33-.349.45-.145.13-.314.23-.496.29l-1.773.6M230.266 2077.07c-26.023 7.6-48.037 29.13-54.864 55.49-4.619 17.56-3.353 37.45-14.087 52.1-6.467 8.76-16.24 14.28-24.379 21.46-21.773 19.21-30.549 51.86-21.339 79.39 5.617 16.81 17.09 31.24 22.226 48.19 4.37 14.41 3.861 29.42 1.053 44.34M117.795 2445.37c-7.879 22.4-15.51 44.85-20.803 67.98-7.926 34.64-10.393 71.37-.24 105.43 10.272 34.47 32.96 64.26 60.045 87.89 22.263 19.39 47.492 34.96 73.432 49.17M230.266 2468.44c-30.531 14.58-52.379 46.05-56.055 79.62M174.294 2568.52c3.935 32.93 26.3 62.7 55.972 77.21" stroke="#BAC8CF" stroke-miterlimit="10"/><path d="M164.501 2404.57a35.33 35.33 0 01-21.98 40.69 35.284 35.284 0 01-24.676.13 35.344 35.344 0 01-18.746-16.04 35.357 35.357 0 01-3.672-24.41 35.326 35.326 0 0113.192-20.85 35.384 35.384 0 0123.624-7.14 35.369 35.369 0 0122.531 10.07" stroke="#BAC8CF" stroke-miterlimit="10"/><path d="M152.206 2393.99c0-2.12.629-4.19 1.807-5.95a10.765 10.765 0 014.813-3.96c1.96-.81 4.117-1.02 6.197-.61a10.77 10.77 0 015.491 2.94 10.725 10.725 0 012.325 11.69 10.716 10.716 0 01-3.95 4.81 10.715 10.715 0 01-10.064.99 10.507 10.507 0 01-3.481-2.32 10.703 10.703 0 01-3.138-7.59v0zM71.55 2439.88a7.798 7.798 0 014.808-7.2 7.786 7.786 0 014.5-.44 7.775 7.775 0 016.118 6.12c.3 1.51.146 3.07-.443 4.5a7.76 7.76 0 01-2.868 3.49 7.76 7.76 0 01-4.327 1.32c-1.023 0-2.036-.2-2.981-.6a7.794 7.794 0 01-2.528-1.68 7.916 7.916 0 01-1.688-2.53 7.798 7.798 0 01-.59-2.98v0zM163.883 2558.29c0-2.03.6-4.01 1.725-5.69a10.287 10.287 0 014.593-3.77c1.87-.77 3.928-.98 5.914-.58 1.985.39 3.809 1.37 5.241 2.8a10.253 10.253 0 012.801 5.24c.395 1.99.192 4.04-.583 5.91a10.277 10.277 0 01-3.769 4.6 10.273 10.273 0 01-5.687 1.72 10.27 10.27 0 01-7.238-2.99 10.251 10.251 0 01-2.997-7.24v0zM200.307 2141.31l1.358 3.61c.019.05.054.1.098.13.045.03.097.04.151.04.054 0 .107-.01.151-.04a.284.284 0 00.099-.13l1.358-3.61 3.612-1.36c.369-.13.369-.36 0-.49l-3.612-1.36-1.358-3.61a.284.284 0 00-.099-.13.264.264 0 00-.151-.04.266.266 0 00-.151.04.282.282 0 00-.098.13l-1.358 3.61-3.612 1.36c-.05.01-.093.05-.124.09-.03.05-.046.1-.046.15 0 .06.016.11.046.16.031.04.074.07.124.09l3.612 1.36zM64.447 2549.67l1.349 3.61c.021.05.057.09.102.12.045.03.098.05.152.05.054 0 .106-.02.151-.05.046-.03.081-.07.103-.12l1.358-3.61 3.612-1.36c.37-.14.37-.37 0-.51l-3.612-1.35-1.358-3.62a.274.274 0 00-.103-.12.269.269 0 00-.151-.04.269.269 0 00-.152.04.274.274 0 00-.102.12l-1.35 3.59-3.62 1.35a.237.237 0 00-.121.1.269.269 0 000 .3c.03.05.071.08.12.1l3.622 1.4zM178.072 2767.29l1.395 3.61c.015.05.048.1.093.13a.233.233 0 00.313 0 .243.243 0 00.093-.13l1.358-3.62 3.612-1.35c.369-.14.369-.36 0-.5l-3.612-1.36-1.358-3.61a.284.284 0 00-.099-.13.264.264 0 00-.151-.04.268.268 0 00-.151.04.289.289 0 00-.098.13l-1.358 3.61-3.612 1.36a.24.24 0 00-.132.09.28.28 0 000 .32.24.24 0 00.132.09l3.575 1.36z" stroke="#BAC8CF" stroke-miterlimit="10"/><path d="M81.73 2471.69l.832 2.22c.013.03.035.05.062.07a.152.152 0 00.182 0 .171.171 0 00.061-.07l.832-2.22 2.217-.83c.23-.08.23-.23 0-.31l-2.217-.83-.832-2.22c-.013-.03-.034-.06-.061-.07a.153.153 0 00-.182 0c-.027.01-.049.04-.062.07l-.831 2.22-2.226.83a.148.148 0 00-.081.06.162.162 0 000 .19c.02.03.048.05.08.06l2.227.83zM156.28 2265.09l.831 2.22c.009.03.028.06.056.08.028.02.062.04.097.04s.069-.02.096-.04a.148.148 0 00.056-.08l.832-2.22 2.226-.83c.222-.08.222-.22 0-.32l-2.226-.83-.832-2.21a.2.2 0 00-.061-.08.269.269 0 00-.091-.02.264.264 0 00-.091.02.202.202 0 00-.062.08l-.831 2.21-2.217.83a.437.437 0 00-.081.06.195.195 0 00-.031.1c0 .04.011.07.031.1s.048.05.081.06l2.217.83z" fill="#BAC8CF"/><path d="M140.104 2446.08c.247-1.37.216-2.78-.092-4.13a18.66 18.66 0 00-2.928-6.22 13.398 13.398 0 00-4.324-4.39c-3.02-1.65-6.706-1.18-10.161-1.66-5.543-.79-10.725-4.17-16.277-3.54a18.501 18.501 0 00-7.39 2.91M161.333 2428.56a36.026 36.026 0 00-9.707-12.13 36.053 36.053 0 00-13.914-6.9c-1.958-.47-3.963-.78-5.949-1.12-2.673-.46-5.33-.99-7.972-1.6a56.676 56.676 0 01-14.143-4.84 26.8 26.8 0 01-9.69-8.31M152.298 2392.69l-.453-.05a12.853 12.853 0 01-7.501-3.34 34.161 34.161 0 00-2.928-3.04c-2.005-1.52-4.675-1.72-7.178-1.95-2.503-.23-5.201-.67-6.919-2.5a9.88 9.88 0 01-2.097-4.62M206.922 761.038a166.993 166.993 0 0023.344 38.67M230.266 543.876c-3.871 8.397-7.603 16.85-10.993 25.45a346.981 346.981 0 00-18.845 66.984M165.758 228.369a228.859 228.859 0 0022.097 16.452 526.95 526.95 0 0042.411 25.718M230.266 81.885c-26.328 10.559-51.27 23.76-71.298 43.501-10.974 10.799-20.508 24.018-22.928 39.196-2.476 15.593 2.919 31.602 12.009 44.6M90.93 333.037c-3.64 15.423 5.911 30.876 21.334 34.517 15.423 3.64 30.876-5.912 34.516-21.335 3.64-15.422-5.912-30.876-21.334-34.516-15.423-3.64-30.876 5.912-34.517 21.334z" stroke="#BAC8CF" stroke-miterlimit="10"/><path d="M171.189 217.718a13.151 13.151 0 00-8.12-12.154 13.158 13.158 0 00-17.936 9.587 13.15 13.15 0 005.594 13.504 13.148 13.148 0 007.308 2.217 13.138 13.138 0 009.304-3.85 13.14 13.14 0 003.85-9.304v0zM187.9 759.828a16.516 16.516 0 01-8.934 11.909 16.528 16.528 0 01-23.647-12.15 16.528 16.528 0 014.48-14.198M121.49 727.431a7.77 7.77 0 1114.948 2.962 7.775 7.775 0 01-7.179 4.798 7.77 7.77 0 01-7.769-7.76v0zM143.541 634.73a8.005 8.005 0 019.571-7.856 8.008 8.008 0 11-9.571 7.856zM230.266 617.178h-.508a7.584 7.584 0 100 15.168h.508" stroke="#BAC8CF" stroke-miterlimit="10"/><path d="M230.266 643.331a62.497 62.497 0 00-91.264 55.477 62.49 62.49 0 0030.032 53.401 62.497 62.497 0 0061.232 2.077" stroke="#BAC8CF" stroke-miterlimit="10"/><path d="M90.313 10.79l.831 2.218a.167.167 0 00.152.1.166.166 0 00.153-.1l.831-2.217 2.227-.832c.221-.083.221-.23 0-.314l-2.227-.831-.831-2.217a.167.167 0 00-.305 0l-.831 2.217-2.217.831a.166.166 0 000 .314l2.217.832zM163.957 173.625l.831 2.217a.155.155 0 00.056.086.151.151 0 00.096.033.156.156 0 00.153-.119l.831-2.217 2.217-.831c.231-.084.231-.222 0-.305l-2.217-.832-.831-2.217a.154.154 0 00-.056-.085.157.157 0 00-.097-.034.152.152 0 00-.096.034.15.15 0 00-.056.085l-.831 2.217-2.227.832a.169.169 0 00-.1.153c0 .032.01.063.028.09a.167.167 0 00.072.062l2.227.831zM67.477 305.43l.83 2.227a.165.165 0 00.153.099.164.164 0 00.153-.099l.831-2.227 2.217-.831c.231-.083.231-.222 0-.305l-2.217-.831-.831-2.217a.155.155 0 00-.056-.086.155.155 0 00-.193 0 .156.156 0 00-.056.086l-.832 2.217-2.226.831a.167.167 0 000 .305l2.227.831zM160.298 534.204l.832 2.217a.152.152 0 00.056.086.152.152 0 00.096.034.157.157 0 00.097-.034.157.157 0 00.056-.086l.831-2.217 2.226-.831c.222-.083.222-.222 0-.305l-2.226-.832-.831-2.217a.154.154 0 00-.056-.085.157.157 0 00-.097-.034.152.152 0 00-.096.034.15.15 0 00-.056.085l-.832 2.217-2.217.832a.157.157 0 000 .305l2.217.831zM178.534 925.729l.831 2.218a.164.164 0 00.152.099.165.165 0 00.153-.099l.831-2.218 2.217-.831c.231-.092.231-.231 0-.314l-2.217-.831-.831-2.218a.164.164 0 00-.153-.099.164.164 0 00-.152.099l-.831 2.218-2.227.831a.167.167 0 00-.081.06.168.168 0 00-.03.097c0 .035.01.068.03.097.02.028.049.049.081.06l2.227.831z" fill="#BAC8CF"/><path d="M135.365 903.715l1.358 3.613a.27.27 0 00.401.123.264.264 0 00.098-.123l1.358-3.613 3.612-1.357c.37-.139.37-.37 0-.508l-3.612-1.349-1.358-3.621a.261.261 0 00-.098-.124.27.27 0 00-.401.124l-1.358 3.621-3.612 1.349a.279.279 0 00-.166.254.278.278 0 00.166.254l3.612 1.357zM144.538 388.062l1.358 3.612a.256.256 0 00.093.137c.045.035.1.053.157.053a.254.254 0 00.156-.053.256.256 0 00.093-.137l1.358-3.612 3.612-1.358c.369-.129.369-.36 0-.499l-3.612-1.357-1.358-3.613a.27.27 0 00-.249-.17.262.262 0 00-.151.047.266.266 0 00-.099.123l-1.358 3.613-3.612 1.357a.266.266 0 00-.123.099.264.264 0 000 .302.27.27 0 00.123.098l3.612 1.358zM152.206 64.167l1.349 3.612a.274.274 0 00.254.166.278.278 0 00.254-.166l1.349-3.612 3.621-1.358c.369-.139.369-.36 0-.499l-3.621-1.358-1.349-3.612a.28.28 0 00-.254-.166.277.277 0 00-.254.166l-1.349 3.612-3.621 1.358a.272.272 0 00-.124.098.27.27 0 00.124.401l3.621 1.358zM90.451 343.065c-9.376-3.695-15.04-7.769-14.457-11.169 1.034-6.069 21.589-7.621 45.912-3.473 24.323 4.148 43.233 12.434 42.161 18.476-.619 3.695-8.314 5.681-19.75 5.792M230.266 692.669c-4.887-1.155-10.051-1.275-15.104-1.275-8.517 0-17.312.259-25.053 3.806-6.171 2.818-11.464 7.631-18.051 9.238-6.171 1.543-12.674.101-19.02.489a33.064 33.064 0 00-13.284 3.696M86.368 94.615v13.413a.966.966 0 00.43.855.97.97 0 00.956.069l4.73-2.199c.988 1.469 5.912 3.113 7.584 2.522l2.466 4.619a.984.984 0 00.813.512.986.986 0 00.859-.429l8.009-10.762a5.541 5.541 0 00-.341-7.16 24.686 24.686 0 00-9.774-5.542A24.71 24.71 0 0090.95 89.1a5.542 5.542 0 00-4.582 5.515z" stroke="#BAC8CF" stroke-miterlimit="10"/><path d="M103.042 97.386a2.898 2.898 0 00-3.26 0 2.77 2.77 0 00-2.615-1.959M110.516 105.451l2.106 1.441M112.262 103.086l2.069.988M86.174 97.358l-2.559-.101M86.184 94.42l-2.245-.443" stroke="#BAC8CF" stroke-miterlimit="10"/><path d="M115.393 310.936a375.244 375.244 0 00-17.552-65.21c-9.385-25.311-21.782-49.57-28.905-75.611-10.679-39.03-8.046-83.75 16.333-116.046 18.392-24.36 47.177-39.186 76.821-46.447 22.235-5.45 45.191-7.011 68.129-7.621M230.266 944.122c-41.201-51.408-95.381-93.939-120.757-154.539-27.602-65.949-16.009-140.895-4.859-211.545 10.919-69.136 20.767-140.609 17.072-210.086" stroke="#BAC8CF" stroke-miterlimit="10"/></g><defs><clipPath id="clip0"><path fill="#fff" d="M0 0h230v2911H0z"/></clipPath></defs></svg>