<svg width="174" height="2911" fill="none" xmlns="http://www.w3.org/2000/svg"><g clip-path="url(#clip0)"><path d="M65.09 109.393a19.554 19.554 0 01-23.373 19.168 19.545 19.545 0 01-10.007-5.356 19.569 19.569 0 012.969-30.09 19.545 19.545 0 0128.926 8.788 19.573 19.573 0 011.485 7.49v0zM80.416 84.172a5.65 5.65 0 00-3.484-5.218 5.642 5.642 0 00-7.697 4.116 5.65 5.65 0 002.4 5.797 5.643 5.643 0 008.781-4.695zM131.892 94.22l-1.044-2.73a.202.202 0 00-.376 0l-1.016 2.73-2.722 1.016c-.278.105-.278.279 0 .383l2.722 1.017 1.023 2.73a.2.2 0 00.301.093.202.202 0 00.075-.094l1.023-2.73 2.721-1.016a.209.209 0 000-.383l-2.707-1.016zM46.298 206.251l-1.023-2.722a.196.196 0 00-.074-.093.201.201 0 00-.114-.036c-.04 0-.08.013-.114.036a.196.196 0 00-.074.093l-1.05 2.722-2.722 1.024c-.279.104-.279.271 0 .376l2.721 1.023 1.023 2.723a.202.202 0 00.376 0l1.023-2.723 2.722-1.023a.207.207 0 00.093-.074.203.203 0 00-.093-.302l-2.694-1.024z" stroke="#BAC8CF" stroke-miterlimit="10"/><path d="M120.366 362.855l-.626-1.671a.128.128 0 00-.119-.085.128.128 0 00-.118.085l-.626 1.671-1.671.626c-.167.063-.167.168 0 .237l1.671.627.626 1.671a.128.128 0 00.046.061.126.126 0 00.191-.061l.626-1.671 1.671-.627a.125.125 0 00.084-.118.126.126 0 00-.023-.073.138.138 0 00-.061-.046l-1.671-.626z" fill="#BAC8CF"/><path d="M52.095 456.385l-1.023-2.73a.2.2 0 00-.302-.093.207.207 0 00-.074.093l-1.023 2.73-2.721 1.017c-.278.104-.278.278 0 .383l2.721 1.016 1.023 2.73a.202.202 0 00.376 0l1.023-2.73 2.722-1.016a.21.21 0 000-.383l-2.722-1.017z" stroke="#BAC8CF" stroke-miterlimit="10"/><path d="M98.31 568.458l-.633-1.685a.124.124 0 00-.119-.084.125.125 0 00-.118.084l-.626 1.685-1.685.627c-.167.063-.167.174 0 .237l1.684.626.627 1.685a.126.126 0 00.118.085.127.127 0 00.119-.085l.633-1.685 1.677-.626a.126.126 0 00.06-.191.117.117 0 00-.06-.046l-1.677-.627z" fill="#BAC8CF"/><path d="M140.126 272.423a3.756 3.756 0 01-2.316 3.467 3.748 3.748 0 01-4.088-.813 3.755 3.755 0 012.652-6.407 3.75 3.75 0 013.752 3.753zM84.084 481.383a9.558 9.558 0 01-5.89 8.831 9.548 9.548 0 01-13.024-6.958 9.555 9.555 0 019.364-11.42 9.548 9.548 0 019.55 9.547v0z" stroke="#BAC8CF" stroke-miterlimit="10"/><path d="M70.233 489.906a255.134 255.134 0 00-12.869 32.616c-7.948 24.705-13.46 51.27-30.032 71.248-7.545 9.101-16.955 16.28-26.984 22.637M61.415 120.784c17.122 13.412 33.826 27.282 48.797 42.964 32.085 33.604 55.93 76.177 62.118 122.239 6.187 46.062-6.682 95.48-38.698 129.134-11.011 11.559-23.991 21.105-34.995 32.671a151.302 151.302 0 00-19.293 25.346M.349 72.258c9.744 8.537 19.87 16.649 30.136 24.642" stroke="#BAC8CF" stroke-miterlimit="10"/><path d="M30.833 122.268a21.2 21.2 0 012.847-5.16c.166-.267.408-.478.696-.606a1.642 1.642 0 011.058.118l4.134 1.428a2.69 2.69 0 001.656.195 2.665 2.665 0 001.232-1.1l2.088-2.876c.202-.339.49-.618.835-.808a2.304 2.304 0 011.81.23l2.436.996a1.767 1.767 0 001.538.139c.22-.16.4-.37.522-.613l2.206-3.579c.16-.338.433-.61.773-.766.297-.056.603-.027.884.084 1.463.403 2.958.682 4.468.835.255.051.518.027.759-.069.243-.17.424-.414.515-.697l.953-2.277a.868.868 0 01.32-.459.94.94 0 01.48-.063c.412 0 1.532.139 1.943.167M26.803 103.773c1.545.592 3.424 1.393 4.962 1.978.47.241 1.007.317 1.524.216.365-.151.685-.39.933-.697l.94-.995c.159-.216.392-.364.654-.418.22.007.431.082.605.216.697.39 1.316.787 1.97 1.183.222.172.5.254.78.23.313-.062.508-.383.654-.696l1.496-2.827a.697.697 0 01.223-.293.77.77 0 01.654 0c1.285.421 2.606.721 3.947.899.167.04.344.023.5-.049a.828.828 0 00.272-.418 380.747 380.747 0 011.531-4.13.516.516 0 01.696-.417l4.573.46c.157.03.32.011.466-.056a.696.696 0 00.258-.418c.23-.718.403-1.454.515-2.2a.85.85 0 01.18-.488.828.828 0 01.425-.174c.48-.09 1.95-.306 2.43-.404M55.68 262.702c.32-.696 3.612-6.267 4.614-7.917a34.522 34.522 0 011.97 3.621.405.405 0 00.257 0 10.609 10.609 0 014.316.327.318.318 0 00.264 0 .523.523 0 00.174-.223 10.605 10.605 0 011.9-2.896c1.288 1.998 2.54 8.39 2.659 9.358M56.904 264.513a12.008 12.008 0 00-4.238 3.641 3.618 3.618 0 00-.696 2.131 1.665 1.665 0 001.336 1.616 1.975 1.975 0 001.594-.731c.41-.446.696-.989 1.072-1.463a2.271 2.271 0 011.496-.947 3.09 3.09 0 012.179 1.114 1.144 1.144 0 010 1.56 4.036 4.036 0 00-.752 1.135 2.418 2.418 0 00.125 2.319 1.521 1.521 0 001.733.536c.738-.285 1.19-1.079 1.664-1.762 1.767-2.513 7.182-.696 8.936.843M71.848 265.021a15.93 15.93 0 014.823 2.549c1.886 1.566 3.201 4.031 2.721 6.441" stroke="#BAC8CF" stroke-linecap="round" stroke-linejoin="round"/><path d="M72.62 273.119a2.181 2.181 0 00-1.392 2.166 2.953 2.953 0 001.392 2.256c.097.07.209.146.223.265a.382.382 0 01-.126.264c-.396.395-.814.767-1.252 1.114a2.6 2.6 0 00-.905 1.393 1.235 1.235 0 00.647 1.393 1.882 1.882 0 001.552-.348 18.701 18.701 0 005.882-5.439" stroke="#BAC8CF" stroke-linecap="round" stroke-linejoin="round"/><path d="M67.435 272.973a2.434 2.434 0 00-.536 1.908.32.32 0 010 .181.31.31 0 01-.153.146 3.59 3.59 0 00-1.287 1.114 1.256 1.256 0 00.118 1.56 1.765 1.765 0 001.663.098 17.523 17.523 0 004.072-2.145M79.525 273.969a5.243 5.243 0 002.56-1.741 3.567 3.567 0 00.697-2.931 9.054 9.054 0 01-.397-1.442 2.252 2.252 0 011.232-2.054 3.48 3.48 0 012.47-.216 2.654 2.654 0 012.089 2.618 6.969 6.969 0 01-1.83 5.237c-1.824 2.089-5.457 3.516-8.255 3.433M66.12 258.601c.494 2.834 2.088 4.526 5.345 4.449M63.412 258.406c-.98 2.576-3.083 3.879-7.03 3.21" stroke="#BAC8CF" stroke-linecap="round" stroke-linejoin="round"/><path d="M74.214 260.335c-.745 4.874-5.68 8.237-11.038 7.492-5.36-.745-9.104-5.313-8.352-10.194.751-4.881 5.679-8.237 11.038-7.485 5.36.752 9.09 5.306 8.352 10.187z" stroke="#BAC8CF" stroke-linecap="round" stroke-linejoin="round"/><path d="M.348 295.861a263.672 263.672 0 0018.284 27.672c3.897 5.153 7.997 10.174 11.456 15.633a82.948 82.948 0 019.744 65.886c-2.86 10.264-7.719 19.894-13.614 28.765-5.408 8.154-11.776 15.828-15.43 24.908-2.59 6.413-3.724 13.306-5.805 19.901a72.624 72.624 0 01-4.287 10.605M74.319 719.971l-1.023-2.687a.21.21 0 00-.192-.126.21.21 0 00-.191.126l-1.016 2.722-2.729 1.024c-.271.104-.271.271 0 .376l2.729 1.023 1.016 2.723a.208.208 0 00.077.091.204.204 0 00.229 0 .208.208 0 00.077-.091l1.023-2.723 2.721-1.023a.206.206 0 00.093-.074.203.203 0 00-.093-.302l-2.721-1.059z" stroke="#BAC8CF" stroke-miterlimit="10"/><path d="M124.542 703.462l-.633-1.686a.127.127 0 00-.115-.075.119.119 0 00-.068.021.123.123 0 00-.047.054l-.633 1.686-1.684.626c-.167.07-.167.174 0 .237l1.684.627.633 1.685a.12.12 0 00.115.09.114.114 0 00.073-.026.115.115 0 00.042-.064l.633-1.685 1.678-.627a.133.133 0 00.061-.046.126.126 0 00-.061-.191l-1.678-.626zM36.06 820.416l-.627-1.678a.126.126 0 00-.237 0l-.633 1.678-1.678.634c-.174.062-.174.167 0 .23l1.678.633.633 1.685a.123.123 0 00.118.084.126.126 0 00.119-.084l.626-1.685 1.684-.633a.125.125 0 00.055-.047.123.123 0 000-.137.13.13 0 00-.055-.046l-1.684-.634z" fill="#BAC8CF"/><path d="M60.795 767.342c.063 4.875-.807 9.679-3.048 13.641-4.517 7.026-7.064 16.155-4.691 24.163 1.893 6.406 8.018 10.862 14.49 12.534 6.473 1.671 13.287.947 19.892 0 16.858-2.472 34.974-7.583 44.76-21.538 10.315-14.692 7.127-37.183-6.862-48.429-6.362-5.111-14.616-8.168-19.28-14.846-3.981-5.654-4.746-13.014-8.289-18.947-7.238-12.123-25.94-14.546-36.888-5.682-10.948 8.864-13.099 26.307-5.77 38.375.279.445.55.919.822 1.392" stroke="#BAC8CF" stroke-linecap="round" stroke-linejoin="round"/><path d="M70.004 757.28c-.001 2.526-.948 4.961-2.653 6.823a10.094 10.094 0 01-6.563 3.239c-.292 0-.584.042-.883.042A10.102 10.102 0 0150 755.309a10.104 10.104 0 017.934-7.938 10.091 10.091 0 0110.368 4.296 10.108 10.108 0 011.702 5.613v0zM101.838 814.769a28.365 28.365 0 01-13.668-19.744 28.389 28.389 0 016.361-23.159 28.353 28.353 0 0143.499.365" stroke="#BAC8CF" stroke-linecap="round" stroke-linejoin="round"/><path d="M88.26 785.203a8.755 8.755 0 002.088 3.099 5.701 5.701 0 005.477 1.392c1.984-.654 3.3-2.562 5.192-3.44 1.894-.877 3.898-.647 5.805-1.197a7.816 7.816 0 004.872-4.178c.94-2.026 1.121-4.617 2.965-5.884 1.559-1.072 3.647-.696 5.568-.843 4.649-.341 8.352-3.997 10.628-8.147M95.429 809.553c2.439.227 4.899.008 7.259-.647 5.568-1.664 9.96-6.316 15.639-7.534 3.25-.697 6.751-.23 10.009-.613" stroke="#BAC8CF" stroke-miterlimit="10"/><path d="M83.854 1465.09c-1.838 31.85-5.123 63.29-21.736 89.91-13.224 21.15-37.877 38.41-61.77 45.49M.348 933.047c12.479 21.224 27.025 41.542 41.572 61.165 36.115 48.738 74.653 98.938 85.691 158.578 16.44 88.87-31.452 176.24-40.744 266.14-.097.9-.188 1.81-.271 2.71M41.405 1201.23c6.354 26.87 6.076 55.29-2.005 81.65-7.885 25.76-22.655 48.58-39.052 70.1M.348 1123.77a185.163 185.163 0 0131.897 49.72c1.22 2.82 2.36 5.69 3.418 8.58" stroke="#BAC8CF" stroke-linecap="round" stroke-linejoin="round"/><path d="M106.592 1443.33c0 4.31-1.276 8.52-3.667 12.1a21.689 21.689 0 01-9.764 8.01 21.726 21.726 0 01-12.57 1.24 21.774 21.774 0 01-11.14-5.95 21.793 21.793 0 01-4.716-23.73 21.772 21.772 0 018.013-9.76 21.686 21.686 0 0112.087-3.67c2.857 0 5.687.56 8.326 1.65 2.64 1.1 5.038 2.7 7.059 4.72a21.755 21.755 0 016.372 15.39v0zM48.574 1191.62c0 1.97-.586 3.91-1.682 5.55a10.027 10.027 0 01-4.48 3.68c-1.823.75-3.83.95-5.766.56a9.91 9.91 0 01-5.11-2.73 9.986 9.986 0 01-2.164-10.88 9.915 9.915 0 013.676-4.48 9.962 9.962 0 015.545-1.69 9.994 9.994 0 019.98 9.99v0z" stroke="#BAC8CF" stroke-miterlimit="10"/><path d="M62.64 1321.94c-.507.24-1.057.38-1.619.41a4.424 4.424 0 01-1.655-.23c-.53-.19-1.02-.48-1.438-.86-.419-.37-.76-.83-1.002-1.34l-2.958-6.18a4.266 4.266 0 01-.175-3.27c.187-.53.477-1.02.852-1.44a4.34 4.34 0 012.956-1.42c.562-.03 1.124.06 1.655.24.53.19 1.018.48 1.437.86.418.37.758.83 1 1.33l2.959 6.19a4.285 4.285 0 01-2.012 5.71v0zM63.58 1323.9l1.586 3.31" stroke="#BAC8CF" stroke-linecap="round" stroke-linejoin="round"/><path d="M54.42 1319.17l.87 1.81a6.202 6.202 0 003.542 3.17c1.555.55 3.264.46 4.75-.25a6.24 6.24 0 003.178-3.55 6.216 6.216 0 00-.258-4.75l-.863-1.81M67.853 1325.93l-5.524 2.65.809 1.69 5.524-2.65-.809-1.69zM62.34 1311.39l-2.04.98M63.28 1313.34l-2.047.98M64.213 1315.29l-2.04.99M56.654 1314.11l-2.039.98M57.594 1316.07l-2.04.97M58.527 1318.02l-2.04.98" stroke="#BAC8CF" stroke-linecap="round" stroke-linejoin="round"/><path d="M115.195 1002.12l-1.023-2.721a.202.202 0 00-.376 0l-1.023 2.721-2.721 1.03c-.279.1-.279.27 0 .37l2.721 1.03 1.023 2.72c.015.04.041.07.074.09.034.02.073.04.114.04.041 0 .08-.02.114-.04a.175.175 0 00.074-.09l1.023-2.72 2.721-1.03a.181.181 0 00.093-.07.241.241 0 00.036-.12c0-.04-.013-.08-.036-.11a.181.181 0 00-.093-.07l-2.721-1.03z" stroke="#BAC8CF" stroke-miterlimit="10"/><path d="M85.608 1193.39l-.626-1.69a.19.19 0 00-.046-.06.175.175 0 00-.073-.02.175.175 0 00-.072.02.19.19 0 00-.046.06l-.633 1.69-1.678.63c-.174.06-.174.17 0 .23l1.678.63.633 1.68c.008.03.024.05.046.06.02.02.046.03.072.03.026 0 .052-.01.073-.03.021-.01.037-.03.046-.06l.626-1.68 1.684-.63a.132.132 0 00.061-.04.162.162 0 00.023-.08c0-.02-.008-.05-.023-.07-.015-.02-.036-.04-.06-.04l-1.685-.63zM115.738 1413.31l-.634-1.69a.106.106 0 00-.046-.05.158.158 0 00-.069-.02.158.158 0 00-.068.02.102.102 0 00-.046.05l-.634 1.69-1.684.63c-.167.06-.167.17 0 .23l1.684.63.634 1.68c.006.03.021.05.042.07.02.01.046.02.072.02.027 0 .053-.01.073-.02a.127.127 0 00.042-.07l.634-1.68 1.677-.63a.13.13 0 00.061-.04.137.137 0 00.023-.08.13.13 0 00-.023-.07c-.015-.02-.036-.04-.061-.04l-1.677-.63zM57.72 1597.14l-.627-1.69a.19.19 0 00-.046-.06.175.175 0 00-.072-.02.175.175 0 00-.073.02.188.188 0 00-.046.06l-.626 1.69-1.684.63c-.175.06-.175.17 0 .23l1.684.64.626 1.68c.009.02.025.05.046.06.021.02.047.02.073.02.026 0 .051 0 .072-.02.021-.01.037-.04.046-.06l.626-1.68 1.685-.64a.117.117 0 00.054-.04c.014-.03.02-.05.02-.07 0-.03-.006-.05-.02-.07a.139.139 0 00-.054-.05l-1.685-.63z" fill="#BAC8CF"/><path d="M60.551 1171.08l-1.023-2.72a.195.195 0 00-.07-.11.243.243 0 00-.118-.04.242.242 0 00-.118.04.195.195 0 00-.07.11l-1.023 2.72-2.721 1.02c-.278.1-.278.27 0 .38l2.721 1.02 1.024 2.72c.014.04.04.07.074.1.033.02.073.03.113.03.041 0 .08-.01.114-.03a.25.25 0 00.074-.1l1.023-2.72 2.722-1.02c.038-.02.07-.04.093-.08a.183.183 0 00.035-.11c0-.04-.012-.08-.035-.11a.207.207 0 00-.093-.08l-2.722-1.02zM31.125 1531.91l-1.023-2.71a.25.25 0 00-.075-.1.222.222 0 00-.113-.03c-.04 0-.08.01-.114.03a.25.25 0 00-.074.1l-1.023 2.72-2.722 1.02c-.278.11-.278.28 0 .38l2.722 1.02 1.023 2.73c.015.03.04.07.074.09.033.02.073.03.114.03.04 0 .08-.01.113-.03.034-.02.06-.06.075-.09l1.023-2.73 2.721-1.02a.27.27 0 00.093-.07.24.24 0 00.035-.12c0-.04-.012-.08-.035-.11a.206.206 0 00-.093-.08l-2.721-1.03z" stroke="#BAC8CF" stroke-miterlimit="10"/><path d="M67.512 1430.17c.246.59.655 1.09 1.178 1.45.523.36 1.139.56 1.773.57a9.787 9.787 0 002.137-.46c.934-.19 1.886-.28 2.84-.27.967 0 2.087 0 2.665.8.578.79.278 1.95.62 2.89.162.37.4.7.7.98.3.27.654.48 1.04.61a4.36 4.36 0 003.02 0c.696-.25 1.28-.7 1.942-.96a3.736 3.736 0 011.669-.42c.58 0 1.155.12 1.678.38.46.3.888.64 1.281 1.03a4.804 4.804 0 002.742 1.16c.507.04 1.014-.05 1.48-.25.464-.21.874-.52 1.193-.91.793-1.08.696-2.66 1.608-3.65.364-.36.817-.61 1.313-.74a2.848 2.848 0 011.506.04c.696.19 1.266.58 1.928.8.319.14.669.19 1.014.15.345-.04.674-.17.955-.37M63.155 1441.56c1.393-.15 2.8-.09 4.176.17a8.1 8.1 0 014.99 3.05c.383.65.8 1.28 1.253 1.88 1.546 1.75 4.253 1.76 6.557 1.35 2.303-.42 4.705-1.12 6.904-.34.759.27 1.455.69 2.2 1 1.603.62 3.389.59 4.969-.09 1.336-.59 2.61-1.66 4.058-1.46.967.13 1.816.84 2.784.82.646-.1 1.276-.28 1.872-.55a4.292 4.292 0 013.257.31M70.47 1459.67c2.339-.73 4.813-.93 7.238-.58 1.886.34 3.682 1.14 5.568 1.3 1.754.15 3.536-.25 5.269.08a7.728 7.728 0 014.545 2.99M80.242 1763.08a59.952 59.952 0 0111.26 5.67c20.15 13.23 28.008 39.78 25.801 63.78a104.519 104.519 0 01-12.569 40.42 104.649 104.649 0 01-27.562 32.12A104.552 104.552 0 01.348 1925.2M.348 1721.42c9.082 13.33 22.09 24.01 37.173 29.74 5.11 1.87 10.333 3.41 15.64 4.61" stroke="#BAC8CF" stroke-linecap="round" stroke-linejoin="round"/><path d="M.348 1894.13c4.853.46 9.711.86 14.574 1.19 4.468.3 9.048.53 13.377-.46 6.619-1.52 12.284-5.76 17.177-10.45 4.274-4.1 8.206-8.79 10.204-14.37 1.997-5.58 1.788-12.21-1.699-17-4.503-6.18-13.098-7.81-20.712-7.19-7.615.62-15.09 2.98-22.725 2.79-3.478-.1-6.92-.75-10.196-1.92M70.992 1949.62c1.88-4.82 7.517-7.96 12.674-8.36 6.633-.48 11.916 6.75 11.415 13.38-.501 6.64-5.15 12.27-10.399 16.36-9.096 7.1-20.427 10.95-31.876 12.27-4.97.58-10.148.7-14.79-1.17-4.643-1.87-8.638-6.02-9-11.01-.362-4.98 3.954-10.18 8.923-9.67 11.046 1.45 30.15-4.41 33.053-11.8z" stroke="#BAC8CF" stroke-linecap="round" stroke-linejoin="round"/><path d="M66.342 1843.87l-.633-1.69a.109.109 0 00-.046-.05c-.02-.02-.044-.02-.069-.02-.024 0-.048 0-.069.02a.108.108 0 00-.046.05l-.633 1.69-1.677.63c-.174.06-.174.17 0 .23l1.677.63.633 1.68a.13.13 0 00.042.07c.021.01.047.02.073.02.027 0 .052-.01.073-.02a.13.13 0 00.042-.07l.633-1.68 1.685-.63a.14.14 0 00.054-.05.116.116 0 000-.13.14.14 0 00-.054-.05l-1.685-.63zM66.342 1968.01l-.633-1.68a.13.13 0 00-.042-.07.173.173 0 00-.073-.02.174.174 0 00-.073.02.13.13 0 00-.042.07l-.633 1.68-1.677.63c-.174.06-.174.17 0 .23l1.677.63.633 1.69c.01.02.026.04.046.05.02.02.045.02.07.02.023 0 .047 0 .068-.02.02-.01.036-.03.046-.05l.633-1.69 1.685-.63a.14.14 0 00.054-.05.116.116 0 000-.13.14.14 0 00-.054-.05l-1.685-.63z" fill="#BAC8CF"/><path d="M43.353 1737.4l-1.023-2.73a.172.172 0 00-.074-.09.164.164 0 00-.114-.04c-.04 0-.08.01-.114.04a.172.172 0 00-.074.09l-1.023 2.73-2.721 1.02c-.279.1-.279.27 0 .38l2.721 1.02 1.023 2.72c.015.04.04.08.074.1.034.02.074.03.114.03.04 0 .08-.01.114-.03.033-.02.06-.06.074-.1l1.023-2.72 2.722-1.03a.157.157 0 00.09-.08.187.187 0 00.035-.11c0-.04-.012-.08-.034-.11a.157.157 0 00-.091-.08l-2.722-1.01zM92.234 1922.01l-1.023-2.72a.25.25 0 00-.074-.1.222.222 0 00-.114-.03c-.04 0-.08.01-.114.03a.25.25 0 00-.074.1l-1.023 2.72-2.721 1.02c-.279.11-.279.27 0 .38l2.721 1.02 1.023 2.72c.015.04.04.07.074.1.034.02.073.03.114.03.04 0 .08-.01.114-.03a.25.25 0 00.074-.1l1.023-2.72 2.721-1.02c.038-.02.07-.04.094-.08a.183.183 0 00.035-.11c0-.04-.013-.08-.035-.11a.206.206 0 00-.094-.08l-2.72-1.02zM73.761 1770.99c6.785-3.77 9.236-12.32 5.475-19.11-3.76-6.78-12.309-9.24-19.093-5.47-6.785 3.76-9.236 12.31-5.475 19.1 3.76 6.79 12.309 9.24 19.093 5.48zM62.326 1981.56c.1-.53.152-1.07.153-1.62a8.682 8.682 0 00-3.262-6.76 8.643 8.643 0 00-3.462-1.67 8.76 8.76 0 00-3.847-.02 8.812 8.812 0 00-3.475 1.65 8.795 8.795 0 00-2.42 2.99 8.723 8.723 0 00-.891 3.75c-.014 1.3.264 2.58.813 3.76" stroke="#BAC8CF" stroke-miterlimit="10"/><path d="M42.386 1806.93l-5.143 12.08c-.115.27-.281.51-.49.72-.21.2-.456.36-.728.47a2.09 2.09 0 01-.854.16c-.293 0-.582-.06-.851-.18l-8.84-3.76c-.542-.24-.97-.67-1.19-1.22-.221-.55-.216-1.16.014-1.71l5.144-12.07" stroke="#BAC8CF" stroke-linecap="round" stroke-linejoin="round"/><path d="M42.386 1806.93c-.467 1.1-3.745.76-7.315-.76-3.57-1.52-6.09-3.65-5.624-4.75.466-1.1 3.745-.76 7.315.76 3.57 1.53 6.09 3.65 5.624 4.75zM32.789 1805.03l-1.344 3.16M30.14 1807.76l-1.457 3.42 2.529 1.08 1.457-3.42-2.529-1.08zM41.154 1809.82l1.803.76c.182.08.347.19.486.33.138.15.248.31.321.5a1.48 1.48 0 01-.014 1.15l-2.366 5.57c-.078.18-.191.35-.333.49-.142.14-.31.24-.494.32-.184.07-.381.11-.58.11a1.636 1.636 0 01-.576-.13l-1.817-.75" stroke="#BAC8CF" stroke-linecap="round" stroke-linejoin="round"/><path d="M.348 2929.76c19.857-10.99 39.129-25 45.539-46.34 2.457-8.19 2.784-16.84 3.34-25.43M51.95 2839.1c.222-.81.472-1.62.744-2.43 5.164-15.32 17.831-26.87 24.687-41.48 9.828-20.96 6.522-46.18-3.23-67.17-9.75-21-25.3-38.65-40.528-56.08-12.047-13.79-24.158-27.87-33.275-43.66" stroke="#BAC8CF" stroke-miterlimit="10"/><path d="M.348 2790.72c9.298-.59 18.61-1.68 27.144-5.3 10.39-4.43 19.564-13.48 20.88-24.7 1.53-13.04-7.468-24.78-16.273-34.53-9.827-10.94-20.267-21.54-31.751-30.7M59.765 2848.5a9.515 9.515 0 01-1.589 5.31 9.538 9.538 0 01-4.277 3.54 9.49 9.49 0 01-5.52.56 9.543 9.543 0 01-4.9-2.6 9.59 9.59 0 01-2.625-4.89 9.57 9.57 0 01.536-5.53 9.523 9.523 0 013.517-4.29 9.522 9.522 0 0112.047 1.17c1.79 1.78 2.8 4.2 2.811 6.73v0zM66.266 2842.13c0 .46-.135.9-.388 1.28-.252.38-.61.67-1.03.84-.42.18-.882.22-1.327.13a2.23 2.23 0 01-1.176-.62 2.304 2.304 0 01.348-3.54 2.32 2.32 0 011.276-.39 2.307 2.307 0 012.297 2.3zM69.064 2858.05c0 .5-.15 1-.43 1.42-.28.41-.678.74-1.143.93-.466.2-.978.25-1.472.15s-.948-.34-1.304-.7a2.566 2.566 0 01-.697-1.3c-.099-.5-.048-1.01.145-1.48a2.547 2.547 0 012.353-1.57c.676 0 1.324.27 1.801.75.478.47.747 1.12.747 1.8v0zM54.413 2799.99l-1.016-2.73a.181.181 0 00-.077-.09.236.236 0 00-.115-.04c-.04 0-.08.02-.114.04a.182.182 0 00-.077.09l-1.016 2.73-2.729 1.02c-.278.1-.278.27 0 .38l2.729 1.02 1.016 2.73c.016.03.043.06.077.09.034.02.074.03.114.03.04 0 .08-.01.115-.03.034-.03.06-.06.077-.09l1.016-2.73 2.728-1.03a.18.18 0 00.091-.07.246.246 0 00.035-.12c0-.04-.012-.08-.035-.11a.201.201 0 00-.09-.08l-2.73-1.01zM92.213 2717.01l-1.023-2.73a.172.172 0 00-.075-.09.164.164 0 00-.113-.04c-.041 0-.08.01-.114.04a.172.172 0 00-.074.09l-1.023 2.73-2.722 1.02c-.278.1-.278.27 0 .38l2.721 1.02 1.024 2.72c.014.04.04.07.074.1.033.02.073.03.114.03.04 0 .08-.01.113-.03a.25.25 0 00.075-.1l1.023-2.72 2.721-1.02a.202.202 0 00.091-.08.187.187 0 00.034-.11c0-.04-.011-.08-.034-.12a.181.181 0 00-.091-.07l-2.721-1.02z" stroke="#BAC8CF" stroke-miterlimit="10"/><path d="M19.342 2728.76l-.626-1.67c-.007-.02-.022-.05-.042-.06a.104.104 0 00-.146 0c-.021.01-.036.04-.042.06l-.627 1.67-1.67.63c-.174.06-.174.17 0 .23l1.67.63.627 1.67c.006.02.021.05.042.06a.104.104 0 00.146 0c.02-.01.035-.04.042-.06l.626-1.67 1.677-.63a.139.139 0 00.055-.05c.013-.02.02-.04.02-.07a.139.139 0 00-.075-.11l-1.677-.63z" fill="#BAC8CF"/><path d="M.348 2570.95c19.606-5.73 36.192-21.96 41.335-41.83 3.48-13.23 2.527-28.23 10.614-39.27 4.872-6.6 12.236-10.76 18.368-16.18 16.404-14.48 23.016-39.08 16.077-59.84-4.232-12.67-12.876-23.54-16.746-36.32-3.292-10.86-2.909-22.18-.793-33.42M85.086 2293.34c5.937-16.89 11.686-33.82 15.674-51.25 5.972-26.11 7.83-53.79.181-79.47-7.74-25.98-24.833-48.44-45.24-66.25-16.774-14.62-35.781-26.35-55.325-37.06M.348 2275.94c23.003-10.99 39.463-34.71 42.233-60.01M42.518 2200.5c-2.965-24.81-19.815-47.26-42.17-58.2" stroke="#BAC8CF" stroke-miterlimit="10"/><path d="M49.897 2324.09a26.672 26.672 0 012.568-18.43 26.588 26.588 0 0113.992-12.24 26.615 26.615 0 0118.592-.11 26.658 26.658 0 0114.124 12.1 26.652 26.652 0 012.766 18.4 26.612 26.612 0 01-9.94 15.71 26.562 26.562 0 01-17.798 5.38 26.62 26.62 0 01-16.975-7.58" stroke="#BAC8CF" stroke-miterlimit="10"/><path d="M59.16 2332.06c0 1.6-.474 3.16-1.362 4.49a8.071 8.071 0 01-8.295 3.44 8.078 8.078 0 01-6.349-6.35 8.077 8.077 0 01.46-4.67 8.082 8.082 0 012.976-3.63 8.062 8.062 0 014.49-1.36c1.061-.01 2.112.2 3.093.61.98.41 1.872 1 2.622 1.75.751.75 1.346 1.64 1.752 2.63.406.98.614 2.03.613 3.09v0zM119.928 2297.47a5.893 5.893 0 01-3.622 5.43 5.87 5.87 0 01-6.394-1.28 5.84 5.84 0 01-1.606-3 5.868 5.868 0 01.334-3.39 5.87 5.87 0 012.161-2.64 5.906 5.906 0 013.26-.99c.77 0 1.534.15 2.246.45a5.847 5.847 0 013.176 3.18c.295.71.446 1.47.445 2.24v0zM50.363 2208.22a7.69 7.69 0 01-1.3 4.28 7.762 7.762 0 01-3.46 2.85c-1.41.58-2.96.73-4.456.44a7.733 7.733 0 01-3.949-2.12 7.667 7.667 0 01-2.11-3.95 7.699 7.699 0 01.438-4.45 7.745 7.745 0 012.84-3.47 7.77 7.77 0 014.285-1.3 7.74 7.74 0 015.453 2.26 7.726 7.726 0 012.259 5.46v0zM22.919 2522.53l-1.024-2.73a.221.221 0 00-.187-.13c-.041 0-.08.02-.114.04a.221.221 0 00-.074.09l-1.023 2.73-2.722 1.02c-.278.1-.278.27 0 .38l2.722 1.02 1.023 2.72c.015.04.04.07.074.09.033.03.073.04.114.04.04 0 .08-.01.113-.04.034-.02.06-.05.074-.09l1.024-2.72 2.721-1.02c.038-.02.07-.05.093-.08a.183.183 0 00.035-.11.24.24 0 00-.035-.12.186.186 0 00-.093-.07l-2.721-1.02zM125.28 2214.72l-1.016-2.73a.235.235 0 00-.077-.09.227.227 0 00-.115-.03c-.04 0-.08.01-.114.03a.235.235 0 00-.077.09l-1.023 2.73-2.721 1.02c-.279.1-.279.28 0 .38l2.721 1.02 1.023 2.73a.18.18 0 00.077.09c.034.02.074.03.114.03.041 0 .081-.01.115-.03a.18.18 0 00.077-.09l1.016-2.7 2.728-1.02a.203.203 0 00.092-.08.189.189 0 00.034-.11c0-.04-.012-.08-.034-.12a.183.183 0 00-.092-.07l-2.728-1.05zM39.672 2050.67l-1.05-2.71a.17.17 0 00-.07-.1.172.172 0 00-.119-.04.172.172 0 00-.118.04.17.17 0 00-.07.1l-1.023 2.72-2.721 1.02c-.279.11-.279.28 0 .38l2.721 1.03 1.023 2.72c.015.04.04.07.075.09.033.02.073.04.113.04.04 0 .08-.02.114-.04.033-.02.06-.05.074-.09l1.023-2.72 2.722-1.03a.2.2 0 00.1-.07.228.228 0 00.037-.12c0-.04-.013-.08-.038-.12a.2.2 0 00-.1-.07l-2.693-1.03z" stroke="#BAC8CF" stroke-miterlimit="10"/><path d="M112.258 2273.49l-.626-1.67a.108.108 0 00-.047-.05c-.02-.02-.044-.02-.068-.02-.025 0-.048 0-.069.02a.112.112 0 00-.046.05l-.626 1.67-1.671.63c-.174.06-.174.17 0 .23l1.671.63.626 1.67c.01.03.026.04.046.06.021.01.044.02.069.02.024 0 .048-.01.068-.02.021-.02.037-.03.047-.06l.626-1.67 1.677-.63c.025 0 .046-.02.061-.04a.13.13 0 00.023-.07c0-.03-.008-.05-.023-.08a.13.13 0 00-.061-.04l-1.677-.63zM56.09 2429.22l-.626-1.67a.152.152 0 00-.042-.06.104.104 0 00-.145 0 .152.152 0 00-.042.06l-.627 1.67-1.677.63c-.167.06-.167.17 0 .24l1.677.62.627 1.68c.01.02.026.04.046.05.02.01.044.02.069.02.024 0 .048-.01.068-.02.02-.01.037-.03.046-.05l.627-1.68 1.67-.62a.154.154 0 00.061-.05.107.107 0 00.023-.07c0-.03-.008-.05-.023-.07a.154.154 0 00-.06-.05l-1.671-.63z" fill="#BAC8CF"/><path d="M68.277 2292.8a7.804 7.804 0 00.07 3.11c.44 1.69 1.188 3.28 2.206 4.69a10.149 10.149 0 003.257 3.31c2.276 1.24 5.053.89 7.656 1.25 4.176.59 8.08 3.14 12.264 2.67a13.894 13.894 0 005.568-2.2M52.283 2306a26.973 26.973 0 007.313 9.14 27.077 27.077 0 0010.484 5.21c1.475.35 2.986.58 4.482.84 2.014.35 4.016.75 6.007 1.2 3.696.75 7.278 1.98 10.655 3.65a20.17 20.17 0 017.301 6.27M59.09 2333.04l.34.04a9.66 9.66 0 015.652 2.52c.687.81 1.424 1.57 2.207 2.29 1.51 1.15 3.522 1.29 5.408 1.47 1.886.17 3.918.51 5.213 1.88a7.521 7.521 0 011.58 3.49" stroke="#BAC8CF" stroke-miterlimit="10"/></g><defs><clipPath id="clip0"><path fill="#fff" d="M0 0h174v2911H0z"/></clipPath></defs></svg>