<svg width="230" height="2277" fill="none" xmlns="http://www.w3.org/2000/svg"><g clip-path="url(#clip0)"><path d="M93.498 21.64c2.494-6.393 9.977-10.559 16.822-11.085 8.804-.638 15.815 8.95 15.15 17.755-.665 8.803-6.836 16.267-13.801 21.7-12.074 9.412-27.113 14.521-42.31 16.276-6.595.767-13.468.924-19.63-1.552-6.161-2.476-11.464-7.99-11.944-14.605-.48-6.614 5.247-13.505 11.843-12.831 14.66 1.921 40.018-5.857 43.87-15.658z" stroke="#BAC8CF" stroke-linecap="round" stroke-linejoin="round"/><path d="M87.328 46.037l-.84-2.226a.158.158 0 00-.25-.086.158.158 0 00-.055.086l-.841 2.226-2.226.84c-.231.084-.231.222 0 .305l2.226.841.84 2.236a.167.167 0 00.305 0l.841-2.236 2.236-.84a.167.167 0 000-.305l-2.236-.841z" fill="#BAC8CF"/><path d="M81.997 64.023c.133-.71.201-1.43.203-2.152a11.519 11.519 0 10-21.958 4.905M30.783 1376.76c-5.45 6.27-10.162 13.86-10.162 22.17 0 8.31 6.17 17.03 14.485 17.2 4.277.08 8.314-1.99 11.944-4.23 6.781-4.16 14.217-9.29 21.968-7.48 2.873.67 5.432 2.27 8.185 3.33 9.56 3.7 21.016.39 28.23-6.89 7.215-7.28 10.448-17.91 10.088-28.16-.333-9.45-4.102-19.46-12.249-24.25-5.876-3.47-13.072-3.7-19.4-6.29-6.106-2.46-11.15-6.95-16.886-10.16-5.737-3.2-12.998-5.13-18.809-2.05a19.043 19.043 0 00-6.032 5.54 37.7 37.7 0 00-6.466 30.77c.923 5.06-.85 5.97-4.896 10.5zM-.266 1321.95c26.356-14.59 51.935-33.17 60.443-61.49 3.261-10.86 3.695-22.33 4.434-33.72M61.489 1201.68c.296-1.08.628-2.15.988-3.22 6.855-20.32 26.453-42.34 31.023-72.96 8.999-60.3-21-96-56.334-145.588C20.66 956.748 5.102 942.942-7 922" stroke="#BAC8CF" stroke-miterlimit="10"/><path d="M-.266 1137.49c12.342-.78 24.702-2.22 36.028-7.04 13.792-5.86 25.967-17.87 27.713-32.75 2.032-17.32-9.912-32.88-21.598-45.82-13.044-14.51-26.9-28.58-42.143-40.73M-.265 1833.46a81.08 81.08 0 0033.8-15.54c21.543-17.01 33.45-45.51 30.403-72.77-2.689-24.17-16.167-47.25-12.933-71.36 3.131-23.44 21.2-41.72 31.648-62.95a103.325 103.325 0 00-.148-90.1c-17.8-35.86-54.336-57.54-82.78-85.96M78.597 1214.14c.011 2.51-.723 4.96-2.109 7.05a12.65 12.65 0 01-5.676 4.7 12.76 12.76 0 01-7.327.74 12.663 12.663 0 01-6.504-3.46 12.648 12.648 0 01-2.773-13.81 12.65 12.65 0 014.668-5.7 12.635 12.635 0 017.047-2.14c3.352 0 6.567 1.33 8.943 3.69a12.695 12.695 0 013.731 8.93v0zM78 1236.95c0 .6-.18 1.19-.514 1.7a3.046 3.046 0 01-3.13 1.29 3.107 3.107 0 01-1.56-.83 3.04 3.04 0 01-.66-3.32c.23-.56.62-1.04 1.121-1.37a3.02 3.02 0 013.85.38c.571.57.892 1.34.892 2.15zM90.94 1226.81a3.393 3.393 0 01-2.087 3.13c-.618.25-1.298.32-1.954.19a3.334 3.334 0 01-1.731-.93 3.376 3.376 0 01-.733-3.68c.256-.62.69-1.15 1.245-1.52.556-.37 1.21-.57 1.879-.57a3.384 3.384 0 013.381 3.38v0zM89.138 1710.37l-1.358-3.61a.258.258 0 00-.098-.12.274.274 0 00-.151-.05.274.274 0 00-.151.05.258.258 0 00-.099.12l-1.358 3.61-3.612 1.36c-.37.14-.37.36 0 .51l3.612 1.35 1.358 3.61c.015.05.048.1.093.14.045.03.1.05.157.05.056 0 .111-.02.156-.05a.313.313 0 00.093-.14l1.358-3.61 3.612-1.35a.26.26 0 00.132-.1.25.25 0 00.05-.15c0-.06-.017-.12-.05-.16a.26.26 0 00-.132-.1l-3.612-1.36zM56.723 1350.04l-1.358-3.61a.312.312 0 00-.093-.14.287.287 0 00-.156-.05.287.287 0 00-.157.05.312.312 0 00-.093.14l-1.358 3.61-3.612 1.36c-.37.13-.37.36 0 .5l3.612 1.36 1.358 3.61c.02.05.054.09.099.12.044.03.097.05.15.05.054 0 .107-.02.152-.05a.257.257 0 00.098-.12l1.358-3.61 3.612-1.36c.05-.02.093-.05.123-.1a.263.263 0 000-.3.306.306 0 00-.123-.1l-3.612-1.36zM71.493 1149.79l-1.348-3.62a.301.301 0 00-.102-.13.269.269 0 00-.152-.04.269.269 0 00-.152.04.301.301 0 00-.102.13l-1.349 3.62-3.621 1.35c-.37.13-.37.36 0 .5l3.621 1.36 1.349 3.61c.021.05.057.09.102.12.045.03.098.05.152.05.054 0 .106-.02.152-.05.045-.03.08-.07.102-.12l1.349-3.61 3.62-1.37c.05-.02.092-.05.122-.1a.268.268 0 000-.3.236.236 0 00-.121-.1l-3.621-1.34zM55.104 965.791l-1.358-3.621a.266.266 0 00-.099-.123.264.264 0 00-.301 0 .265.265 0 00-.099.123l-1.358 3.621-3.612 1.349c-.37.139-.37.37 0 .508l3.612 1.358 1.358 3.612a.27.27 0 00.499 0l1.358-3.612 3.612-1.358a.273.273 0 00.166-.254.277.277 0 00-.166-.254l-3.612-1.349z" stroke="#BAC8CF" stroke-miterlimit="10"/><path d="M45.37 1557.4l-3.465-9.23a.656.656 0 00-.25-.33.682.682 0 00-.392-.12c-.14 0-.277.04-.392.12a.656.656 0 00-.25.33l-3.474 9.23-9.237 3.47c-.924.36-.924.92 0 1.29l9.237 3.47 3.474 9.23c.048.14.135.25.25.33.115.08.252.12.392.12s.277-.04.392-.12a.656.656 0 00.25-.33l3.464-9.23 9.238-3.47c.13-.05.243-.14.322-.25a.697.697 0 00-.322-1.04l-9.238-3.47z" stroke="#BAC8CF" stroke-miterlimit="10"/><path d="M24.945 1055.29l-.832-2.21a.144.144 0 00-.055-.09.165.165 0 00-.097-.03c-.035 0-.07.01-.097.03a.143.143 0 00-.055.09l-.832 2.21-2.217.83c-.23.09-.23.23 0 .31l2.217.83.832 2.22a.15.15 0 00.055.08c.028.03.062.04.097.04s.07-.01.097-.04a.151.151 0 00.055-.08l.832-2.22 2.226-.83c.03-.01.055-.03.073-.06a.177.177 0 00.027-.09c0-.04-.01-.07-.027-.09a.222.222 0 00-.073-.07l-2.226-.83zM90.487 1392.45l-.832-2.21a.198.198 0 00-.06-.08.268.268 0 00-.092-.02.268.268 0 00-.091.02.198.198 0 00-.061.08l-.832 2.21-2.217.84c-.23.08-.23.23 0 .31l2.217.83.832 2.22a.17.17 0 00.06.07.152.152 0 00.183 0 .17.17 0 00.061-.07l.832-2.22 2.226-.83c.033-.01.061-.03.081-.06a.17.17 0 00.03-.1c0-.03-.01-.07-.03-.09a.148.148 0 00-.08-.06l-2.227-.84zM28.215 1579.86l-.832-2.21a.16.16 0 00-.06-.09.165.165 0 00-.097-.03.166.166 0 00-.096.03.161.161 0 00-.06.09l-.832 2.21-2.217.83c-.231.09-.231.23 0 .31l2.217.83.831 2.23a.166.166 0 00.157.11.165.165 0 00.157-.11l.832-2.23 2.217-.83c.03-.01.055-.04.073-.06a.176.176 0 00.027-.09c0-.04-.01-.07-.027-.1a.386.386 0 00-.073-.06l-2.217-.83z" fill="#BAC8CF"/><path d="M83.198 1660.49a7.278 7.278 0 00-3.507-2.21 7.3 7.3 0 00-4.142.07c-3.797 1.29-5.755 5.65-4.37 9.73l4.194 12.4a1.402 1.402 0 001.746.92l1.7-.57c.176-.07.337-.17.473-.3.137-.13.246-.28.322-.45a1.418 1.418 0 00.018-1.1l-.85-2.5c-.123-.33-.111-.7.034-1.02.145-.33.412-.58.742-.71l2.771-.92c.17-.05.35-.07.526-.05.176.02.347.08.502.16.156.09.292.2.403.34.11.14.193.3.241.47l.841 2.51c.113.35.36.64.689.82.328.17.711.21 1.066.1l1.69-.57c.177-.07.34-.17.477-.3.137-.13.247-.28.324-.45.077-.18.118-.36.122-.55.004-.19-.03-.38-.1-.55l-3.113-9.24" stroke="#BAC8CF" stroke-miterlimit="10"/><path d="M82.129 1660.71l-4.026 1.37a2.735 2.735 0 00-1.72 3.47l.586 1.74a2.752 2.752 0 003.477 1.72l4.026-1.36a2.75 2.75 0 001.72-3.48l-.586-1.74a2.752 2.752 0 00-3.477-1.72zM74.191 1676.99l-1.33.45c-.368.12-.768.09-1.114-.08-.346-.17-.61-.48-.734-.84l-2.928-8.67a1.459 1.459 0 01.428-1.56c.145-.13.314-.22.496-.29l1.773-.6M-.266 845.928c26.023-7.594 48.037-29.127 54.864-55.492 4.619-17.552 3.353-37.45 14.087-52.092 6.467-8.766 16.24-14.281 24.379-21.468 21.773-19.206 30.549-51.852 21.339-79.39-5.617-16.803-17.09-31.233-22.226-48.184-4.37-14.411-3.861-29.423-1.053-44.342M112.205 477.636c7.879-22.402 15.51-44.859 20.803-67.981 7.926-34.642 10.393-71.371.24-105.431-10.272-34.475-32.96-64.267-60.045-87.888-22.263-19.4-47.492-34.965-73.432-49.173M-.266 454.56c30.531-14.577 52.379-46.05 56.055-79.621M55.706 354.478c-3.935-32.924-26.3-62.697-55.972-77.21" stroke="#BAC8CF" stroke-miterlimit="10"/><path d="M65.499 518.43a35.337 35.337 0 0121.98-40.69 35.336 35.336 0 0147.094 40.317 35.33 35.33 0 01-36.816 27.99 35.334 35.334 0 01-22.531-10.065" stroke="#BAC8CF" stroke-miterlimit="10"/><path d="M77.794 529.007a10.725 10.725 0 11-10.725-10.725 10.73 10.73 0 017.586 3.139 10.713 10.713 0 013.139 7.586v0zM158.449 483.123a7.792 7.792 0 01-4.807 7.194 7.785 7.785 0 01-10.175-10.175 7.785 7.785 0 017.194-4.807 7.781 7.781 0 017.198 4.806c.391.945.591 1.959.59 2.982v0zM66.117 364.713a10.234 10.234 0 01-12.232 10.039 10.239 10.239 0 01-8.042-8.042 10.235 10.235 0 1120.274-1.997v0zM29.693 781.688l-1.358-3.611a.271.271 0 00-.25-.171.271.271 0 00-.25.171l-1.357 3.611-3.612 1.358c-.37.139-.37.361 0 .499l3.612 1.358 1.358 3.612c.02.05.054.093.098.124a.27.27 0 00.4-.124l1.359-3.612 3.612-1.358a.267.267 0 00.123-.4.269.269 0 00-.123-.099l-3.612-1.358zM165.553 373.332l-1.349-3.612a.279.279 0 00-.406-.121.285.285 0 00-.102.121l-1.358 3.612-3.612 1.358c-.369.139-.369.37 0 .508l3.612 1.349 1.358 3.621a.276.276 0 00.406.121.279.279 0 00.102-.121l1.349-3.584 3.621-1.349a.268.268 0 00.121-.102.274.274 0 000-.304.274.274 0 00-.121-.102l-3.621-1.395zM51.928 155.708l-1.395-3.603a.259.259 0 00-.499 0l-1.358 3.612-3.612 1.349c-.37.148-.37.369 0 .508l3.612 1.358 1.358 3.612a.27.27 0 00.499 0l1.358-3.612 3.612-1.358a.267.267 0 00.183-.254.27.27 0 00-.05-.157.271.271 0 00-.133-.097l-3.575-1.358z" stroke="#BAC8CF" stroke-miterlimit="10"/><path d="M148.269 451.308l-.831-2.217a.161.161 0 00-.062-.072.163.163 0 00-.182 0 .16.16 0 00-.061.072l-.832 2.217-2.217.832c-.231.083-.231.23 0 .314l2.217.831.832 2.217c.013.03.034.055.061.073a.173.173 0 00.091.027.17.17 0 00.153-.1l.831-2.217 2.226-.831a.166.166 0 00.081-.254.162.162 0 00-.081-.06l-2.226-.832zM73.72 657.911l-.83-2.217a.153.153 0 00-.056-.085.155.155 0 00-.194 0 .153.153 0 00-.056.085l-.831 2.217-2.226.832c-.222.083-.222.222 0 .314l2.226.831.831 2.217a.167.167 0 00.153.1.164.164 0 00.152-.1l.832-2.217 2.217-.831a.165.165 0 00.111-.157.164.164 0 00-.112-.157l-2.216-.832z" fill="#BAC8CF"/><path d="M89.896 476.925a10.365 10.365 0 00.092 4.129 18.735 18.735 0 002.928 6.217 13.354 13.354 0 004.324 4.388c3.02 1.654 6.706 1.183 10.161 1.663 5.543.785 10.725 4.166 16.277 3.538a18.482 18.482 0 007.39-2.91M68.667 494.439a35.971 35.971 0 0023.621 19.03c1.958.471 3.963.776 5.95 1.118 2.672.462 5.329.995 7.971 1.598a57.166 57.166 0 0114.143 4.841 26.793 26.793 0 019.691 8.314M77.702 530.31l.453.055a12.815 12.815 0 017.5 3.335 33.774 33.774 0 002.93 3.039c2.004 1.524 4.674 1.718 7.177 1.949 2.504.231 5.201.675 6.919 2.504a9.9 9.9 0 012.097 4.619M23.078 2161.96a167.123 167.123 0 00-23.344-38.67M42.1 2163.17a16.482 16.482 0 013.05-7.01 16.557 16.557 0 015.884-4.9 16.609 16.609 0 017.457-1.71c2.586.02 5.131.64 7.431 1.82 2.3 1.19 4.29 2.89 5.812 4.98a16.522 16.522 0 01-1.533 21.26M108.51 2195.57a7.754 7.754 0 01-4.79 7.18 7.755 7.755 0 01-4.49.45 7.818 7.818 0 01-3.98-2.12 7.766 7.766 0 01-1.688-8.47 7.753 7.753 0 012.862-3.49 7.802 7.802 0 014.317-1.31c2.059 0 4.033.82 5.49 2.27a7.783 7.783 0 012.279 5.49v0z" stroke="#BAC8CF" stroke-miterlimit="10"/><path d="M-.266 2279.67a62.533 62.533 0 0030.888 6.98 62.394 62.394 0 0030.344-9.06 62.464 62.464 0 0030.032-53.4c0-10.73-2.763-21.28-8.023-30.63a62.57 62.57 0 00-22.01-22.77 62.49 62.49 0 00-30.343-9.05 62.424 62.424 0 00-30.888 6.98" stroke="#BAC8CF" stroke-miterlimit="10"/><path d="M51.466 1997.27l-.831-2.22a.17.17 0 00-.061-.07.152.152 0 00-.183 0 .17.17 0 00-.06.07l-.832 2.22-2.217.83c-.231.09-.231.23 0 .32l2.217.83.831 2.22a.27.27 0 00.061.07c.028.02.06.02.092.02s.064 0 .09-.02a.27.27 0 00.062-.07l.831-2.22 2.227-.83c.032-.01.06-.04.08-.06.02-.03.031-.07.031-.1a.17.17 0 00-.03-.1.148.148 0 00-.081-.06l-2.227-.83z" fill="#BAC8CF"/><path d="M94.634 2019.29l-1.358-3.62a.258.258 0 00-.098-.12.274.274 0 00-.151-.05.274.274 0 00-.151.05.258.258 0 00-.099.12l-1.358 3.62-3.612 1.35c-.37.14-.37.37 0 .51l3.612 1.35 1.358 3.62c.02.05.054.09.099.12.044.03.097.05.15.05.055 0 .107-.02.152-.05a.258.258 0 00.098-.12l1.358-3.62 3.612-1.35c.05-.02.092-.06.121-.1.03-.05.045-.1.045-.15 0-.06-.015-.11-.045-.15a.257.257 0 00-.12-.11l-3.613-1.35zM-.266 2230.33c4.887 1.16 10.051 1.28 15.104 1.28 8.517 0 17.312-.26 25.053-3.81 6.17-2.82 11.464-7.63 18.05-9.24 6.171-1.54 12.675-.1 19.021-.49a33.01 33.01 0 0013.284-3.69" stroke="#BAC8CF" stroke-miterlimit="10"/><path d="M-.266 1978.88c41.2 51.41 95.38 93.94 120.757 154.54 27.602 65.95 16.009 140.89 4.859 211.54-10.919 69.14-20.767 140.61-17.072 210.09" stroke="#BAC8CF" stroke-miterlimit="10"/></g><defs><clipPath id="clip0"><path fill="#fff" transform="rotate(-180 115 1138.5)" d="M0 0h230v2277H0z"/></clipPath></defs></svg>