<svg width="230" height="2911" viewBox="0 0 230 2911" fill="none" xmlns="http://www.w3.org/2000/svg">
<g clip-path="url(#clip0)">
<path d="M136.502 2901.36C134.008 2907.75 126.525 2911.92 119.68 2912.45C110.876 2913.08 103.865 2903.49 104.53 2894.69C105.195 2885.89 111.366 2878.42 118.331 2872.99C130.405 2863.58 145.444 2858.47 160.64 2856.71C167.236 2855.95 174.109 2855.79 180.271 2858.27C186.432 2860.74 191.735 2866.26 192.215 2872.87C192.695 2879.48 186.968 2886.38 180.372 2885.7C165.712 2883.78 140.354 2891.56 136.502 2901.36Z" stroke="#BAC8CF" stroke-linecap="round" stroke-linejoin="round"/>
<path d="M142.672 2876.96L143.513 2879.19C143.522 2879.22 143.541 2879.25 143.569 2879.28C143.596 2879.3 143.63 2879.31 143.666 2879.31C143.701 2879.31 143.735 2879.3 143.762 2879.28C143.79 2879.25 143.81 2879.22 143.818 2879.19L144.659 2876.96L146.885 2876.12C147.116 2876.04 147.116 2875.9 146.885 2875.82L144.659 2874.98L143.818 2872.74C143.805 2872.71 143.784 2872.69 143.757 2872.67C143.73 2872.65 143.698 2872.64 143.666 2872.64C143.633 2872.64 143.602 2872.65 143.574 2872.67C143.547 2872.69 143.526 2872.71 143.513 2872.74L142.672 2874.98L140.437 2875.82C140.407 2875.83 140.382 2875.85 140.364 2875.88C140.347 2875.91 140.337 2875.94 140.337 2875.97C140.337 2876 140.347 2876.03 140.364 2876.06C140.382 2876.09 140.407 2876.11 140.437 2876.12L142.672 2876.96Z" fill="#BAC8CF"/>
<path d="M148.003 2858.98C147.869 2859.69 147.801 2860.41 147.799 2861.13C147.804 2862.85 148.196 2864.55 148.945 2866.11C149.695 2867.66 150.783 2869.02 152.129 2870.1C153.475 2871.17 155.046 2871.93 156.725 2872.32C158.404 2872.71 160.149 2872.71 161.83 2872.34C163.512 2871.96 165.088 2871.21 166.442 2870.15C167.797 2869.08 168.895 2867.73 169.655 2866.18C170.416 2864.64 170.82 2862.94 170.838 2861.21C170.855 2859.49 170.486 2857.79 169.758 2856.22" stroke="#BAC8CF" stroke-miterlimit="10"/>
<path d="M199.217 1546.24C204.667 1539.97 209.378 1532.38 209.378 1524.07C209.378 1515.76 203.208 1507.04 194.894 1506.87C190.616 1506.79 186.58 1508.86 182.949 1511.1C176.169 1515.26 168.732 1520.39 160.982 1518.58C158.109 1517.91 155.55 1516.31 152.797 1515.25C143.236 1511.55 131.781 1514.86 124.566 1522.14C117.352 1529.42 114.118 1540.05 114.479 1550.3C114.811 1559.75 118.58 1569.76 126.728 1574.55C132.603 1578.02 139.799 1578.25 146.127 1580.84C152.233 1583.3 157.277 1587.79 163.014 1591C168.751 1594.2 176.012 1596.13 181.822 1593.05C184.213 1591.66 186.272 1589.77 187.854 1587.51C191.083 1583.15 193.332 1578.14 194.449 1572.83C195.565 1567.52 195.521 1562.03 194.321 1556.74C193.397 1551.68 195.171 1550.77 199.217 1546.24Z" stroke="#BAC8CF" stroke-miterlimit="10"/>
<path d="M230.266 1601.05C203.91 1615.64 178.331 1634.22 169.823 1662.54C166.562 1673.4 166.128 1684.87 165.389 1696.26" stroke="#BAC8CF" stroke-miterlimit="10"/>
<path d="M161.777 1721.33C161.481 1722.41 161.148 1723.48 160.788 1724.55C153.934 1744.87 137.121 1760.2 128.022 1779.58C114.978 1807.38 119.366 1840.84 132.308 1868.7C145.25 1896.55 165.887 1919.97 186.1 1943.1C202.09 1961.39 218.164 1980.07 230.266 2001.01" stroke="#BAC8CF" stroke-miterlimit="10"/>
<path d="M230.266 1785.51C217.924 1786.29 205.564 1787.74 194.238 1792.55C180.446 1798.41 168.271 1810.42 166.525 1825.31C164.493 1842.62 176.437 1858.18 188.123 1871.12C201.167 1885.63 215.023 1899.7 230.266 1911.85" stroke="#BAC8CF" stroke-miterlimit="10"/>
<path d="M230.265 1089.54C217.946 1092.03 206.375 1097.35 196.464 1105.08C174.922 1122.09 163.014 1150.59 166.063 1177.85C168.751 1202.02 182.229 1225.1 178.995 1249.21C175.864 1272.65 157.795 1290.93 147.347 1312.16C140.567 1326.21 137.058 1341.62 137.083 1357.23C137.109 1372.83 140.668 1388.23 147.495 1402.26C165.296 1438.12 201.831 1459.8 230.274 1488.22" stroke="#BAC8CF" stroke-miterlimit="10"/>
<path d="M151.402 1708.86C151.391 1706.35 152.125 1703.9 153.511 1701.81C154.897 1699.72 156.873 1698.08 159.188 1697.11C161.503 1696.15 164.053 1695.89 166.515 1696.37C168.977 1696.85 171.241 1698.06 173.019 1699.83C174.797 1701.6 176.009 1703.85 176.503 1706.31C176.996 1708.77 176.749 1711.33 175.791 1713.64C174.833 1715.96 173.209 1717.95 171.124 1719.34C169.038 1720.74 166.585 1721.48 164.076 1721.48C160.725 1721.48 157.509 1720.15 155.134 1717.79C152.759 1715.42 151.417 1712.21 151.402 1708.86V1708.86Z" stroke="#BAC8CF" stroke-miterlimit="10"/>
<path d="M152 1686.05C152 1685.45 152.179 1684.86 152.514 1684.36C152.849 1683.85 153.325 1683.46 153.882 1683.23C154.439 1683 155.052 1682.94 155.643 1683.06C156.235 1683.18 156.778 1683.47 157.204 1683.89C157.631 1684.32 157.921 1684.86 158.039 1685.45C158.156 1686.05 158.096 1686.66 157.865 1687.22C157.634 1687.77 157.244 1688.25 156.742 1688.58C156.241 1688.92 155.652 1689.1 155.049 1689.1C154.24 1689.1 153.465 1688.78 152.893 1688.2C152.321 1687.63 152 1686.86 152 1686.05Z" stroke="#BAC8CF" stroke-miterlimit="10"/>
<path d="M139.061 1696.19C139.061 1695.52 139.259 1694.87 139.63 1694.31C140.002 1693.75 140.53 1693.32 141.148 1693.07C141.766 1692.81 142.445 1692.74 143.101 1692.87C143.757 1693 144.36 1693.33 144.832 1693.8C145.305 1694.27 145.627 1694.87 145.758 1695.53C145.888 1696.19 145.821 1696.87 145.565 1697.48C145.309 1698.1 144.876 1698.63 144.32 1699C143.764 1699.37 143.11 1699.57 142.442 1699.57C141.545 1699.57 140.685 1699.21 140.051 1698.58C139.417 1697.95 139.061 1697.09 139.061 1696.19V1696.19Z" stroke="#BAC8CF" stroke-miterlimit="10"/>
<path d="M140.862 1212.63L142.22 1216.24C142.24 1216.29 142.274 1216.33 142.318 1216.36C142.363 1216.39 142.415 1216.41 142.469 1216.41C142.523 1216.41 142.576 1216.39 142.62 1216.36C142.665 1216.33 142.699 1216.29 142.719 1216.24L144.077 1212.63L147.689 1211.27C148.058 1211.13 148.058 1210.91 147.689 1210.76L144.077 1209.41L142.719 1205.8C142.704 1205.75 142.671 1205.7 142.626 1205.66C142.581 1205.63 142.526 1205.61 142.469 1205.61C142.413 1205.61 142.358 1205.63 142.313 1205.66C142.267 1205.7 142.235 1205.75 142.22 1205.8L140.862 1209.41L137.25 1210.76C137.197 1210.78 137.15 1210.81 137.118 1210.86C137.085 1210.9 137.067 1210.96 137.067 1211.02C137.067 1211.07 137.085 1211.13 137.118 1211.17C137.15 1211.22 137.197 1211.25 137.25 1211.27L140.862 1212.63Z" stroke="#BAC8CF" stroke-miterlimit="10"/>
<path d="M173.277 1572.96L174.635 1576.57C174.65 1576.62 174.683 1576.67 174.728 1576.71C174.773 1576.74 174.828 1576.76 174.885 1576.76C174.942 1576.76 174.997 1576.74 175.042 1576.71C175.087 1576.67 175.119 1576.62 175.134 1576.57L176.492 1572.96L180.104 1571.6C180.474 1571.47 180.474 1571.24 180.104 1571.1L176.492 1569.74L175.134 1566.13C175.115 1566.08 175.08 1566.04 175.036 1566.01C174.991 1565.98 174.939 1565.96 174.885 1565.96C174.831 1565.96 174.778 1565.98 174.734 1566.01C174.689 1566.04 174.655 1566.08 174.635 1566.13L173.277 1569.74L169.666 1571.1C169.615 1571.12 169.572 1571.15 169.542 1571.2C169.512 1571.24 169.495 1571.3 169.495 1571.35C169.495 1571.4 169.512 1571.46 169.542 1571.5C169.572 1571.54 169.615 1571.58 169.666 1571.6L173.277 1572.96Z" stroke="#BAC8CF" stroke-miterlimit="10"/>
<path d="M158.506 1773.21L159.855 1776.84C159.876 1776.88 159.912 1776.93 159.957 1776.96C160.002 1776.99 160.055 1777 160.109 1777C160.163 1777 160.215 1776.99 160.261 1776.96C160.306 1776.93 160.341 1776.88 160.363 1776.84L161.712 1773.21L165.333 1771.87C165.702 1771.73 165.702 1771.5 165.333 1771.36L161.712 1770L160.363 1766.39C160.341 1766.34 160.306 1766.3 160.261 1766.27C160.215 1766.24 160.163 1766.22 160.109 1766.22C160.055 1766.22 160.002 1766.24 159.957 1766.27C159.912 1766.3 159.876 1766.34 159.855 1766.39L158.506 1770L154.885 1771.37C154.835 1771.39 154.793 1771.42 154.764 1771.47C154.734 1771.51 154.718 1771.57 154.718 1771.62C154.718 1771.67 154.734 1771.73 154.764 1771.77C154.793 1771.82 154.835 1771.85 154.885 1771.87L158.506 1773.21Z" stroke="#BAC8CF" stroke-miterlimit="10"/>
<path d="M108.336 1883.3L109.694 1886.92C109.713 1886.97 109.748 1887.01 109.792 1887.05C109.836 1887.08 109.889 1887.09 109.943 1887.09C109.997 1887.09 110.049 1887.08 110.094 1887.05C110.138 1887.01 110.173 1886.97 110.192 1886.92L111.55 1883.3L115.162 1881.95C115.532 1881.81 115.532 1881.58 115.162 1881.44L111.55 1880.09L110.192 1876.47C110.173 1876.42 110.138 1876.38 110.094 1876.35C110.049 1876.32 109.997 1876.3 109.943 1876.3C109.889 1876.3 109.836 1876.32 109.792 1876.35C109.748 1876.38 109.713 1876.42 109.694 1876.47L108.336 1880.09L104.724 1881.44C104.674 1881.47 104.632 1881.5 104.603 1881.55C104.573 1881.59 104.557 1881.64 104.557 1881.7C104.557 1881.75 104.573 1881.8 104.603 1881.85C104.632 1881.89 104.674 1881.93 104.724 1881.95L108.336 1883.3Z" stroke="#BAC8CF" stroke-miterlimit="10"/>
<path d="M184.631 1365.6L188.095 1374.83C188.143 1374.97 188.231 1375.08 188.345 1375.16C188.46 1375.24 188.597 1375.28 188.737 1375.28C188.877 1375.28 189.014 1375.24 189.129 1375.16C189.244 1375.08 189.331 1374.97 189.379 1374.83L192.853 1365.6L202.09 1362.13C203.014 1361.77 203.014 1361.21 202.09 1360.84L192.853 1357.37L189.379 1348.14C189.331 1348.01 189.244 1347.89 189.129 1347.81C189.014 1347.73 188.877 1347.69 188.737 1347.69C188.597 1347.69 188.46 1347.73 188.345 1347.81C188.231 1347.89 188.143 1348.01 188.095 1348.14L184.631 1357.37L175.393 1360.84C175.262 1360.89 175.15 1360.98 175.071 1361.09C174.991 1361.21 174.949 1361.35 174.949 1361.49C174.949 1361.63 174.991 1361.76 175.071 1361.88C175.15 1361.99 175.262 1362.08 175.393 1362.13L184.631 1365.6Z" stroke="#BAC8CF" stroke-miterlimit="10"/>
<path d="M205.055 1867.71L205.887 1869.92C205.895 1869.96 205.915 1869.99 205.942 1870.01C205.97 1870.03 206.004 1870.04 206.039 1870.04C206.074 1870.04 206.108 1870.03 206.136 1870.01C206.163 1869.99 206.183 1869.96 206.191 1869.92L207.023 1867.71L209.24 1866.88C209.471 1866.79 209.471 1866.65 209.24 1866.57L207.023 1865.74L206.191 1863.52C206.183 1863.49 206.163 1863.46 206.136 1863.44C206.108 1863.41 206.074 1863.4 206.039 1863.4C206.004 1863.4 205.97 1863.41 205.942 1863.44C205.915 1863.46 205.895 1863.49 205.887 1863.52L205.055 1865.74L202.829 1866.57C202.799 1866.58 202.774 1866.61 202.756 1866.63C202.738 1866.66 202.729 1866.69 202.729 1866.72C202.729 1866.76 202.738 1866.79 202.756 1866.81C202.774 1866.84 202.799 1866.86 202.829 1866.88L205.055 1867.71Z" fill="#BAC8CF"/>
<path d="M139.513 1530.55L140.344 1532.76C140.357 1532.79 140.378 1532.82 140.405 1532.84C140.432 1532.85 140.464 1532.86 140.496 1532.86C140.529 1532.86 140.561 1532.85 140.588 1532.84C140.615 1532.82 140.636 1532.79 140.649 1532.76L141.48 1530.55L143.697 1529.71C143.928 1529.63 143.928 1529.48 143.697 1529.4L141.48 1528.57L140.649 1526.35C140.636 1526.32 140.615 1526.3 140.588 1526.28C140.561 1526.26 140.529 1526.25 140.496 1526.25C140.464 1526.25 140.432 1526.26 140.405 1526.28C140.378 1526.3 140.357 1526.32 140.344 1526.35L139.513 1528.57L137.286 1529.4C137.254 1529.41 137.225 1529.43 137.205 1529.46C137.185 1529.49 137.175 1529.52 137.175 1529.56C137.175 1529.59 137.185 1529.63 137.205 1529.65C137.225 1529.68 137.254 1529.7 137.286 1529.71L139.513 1530.55Z" fill="#BAC8CF"/>
<path d="M201.785 1343.14L202.617 1345.36C202.628 1345.39 202.649 1345.42 202.677 1345.44C202.705 1345.46 202.739 1345.47 202.774 1345.47C202.808 1345.47 202.842 1345.46 202.87 1345.44C202.898 1345.42 202.919 1345.39 202.931 1345.36L203.762 1343.14L205.979 1342.31C206.21 1342.22 206.21 1342.09 205.979 1342L203.762 1341.17L202.931 1338.94C202.919 1338.91 202.898 1338.88 202.87 1338.86C202.842 1338.84 202.808 1338.83 202.774 1338.83C202.739 1338.83 202.705 1338.84 202.677 1338.86C202.649 1338.88 202.628 1338.91 202.617 1338.94L201.785 1341.17L199.568 1342C199.538 1342.02 199.513 1342.04 199.495 1342.06C199.478 1342.09 199.468 1342.12 199.468 1342.16C199.468 1342.19 199.478 1342.22 199.495 1342.25C199.513 1342.27 199.538 1342.29 199.568 1342.31L201.785 1343.14Z" fill="#BAC8CF"/>
<path d="M146.802 1262.51C147.732 1263.57 148.95 1264.34 150.309 1264.72C151.667 1265.1 153.106 1265.07 154.451 1264.65C158.247 1263.36 160.206 1259 158.82 1254.92L154.626 1242.52C154.515 1242.17 154.27 1241.87 153.943 1241.7C153.616 1241.53 153.234 1241.49 152.88 1241.6L151.18 1242.17C151.005 1242.24 150.844 1242.34 150.707 1242.47C150.571 1242.6 150.462 1242.75 150.386 1242.92C150.31 1243.09 150.27 1243.28 150.266 1243.47C150.263 1243.66 150.298 1243.84 150.368 1244.02L151.217 1246.52C151.341 1246.85 151.329 1247.22 151.184 1247.54C151.038 1247.87 150.772 1248.12 150.441 1248.25L147.67 1249.17C147.5 1249.22 147.321 1249.24 147.145 1249.22C146.968 1249.2 146.798 1249.14 146.642 1249.06C146.487 1248.97 146.35 1248.86 146.24 1248.72C146.129 1248.58 146.047 1248.42 145.998 1248.25L145.157 1245.74C145.045 1245.39 144.797 1245.1 144.469 1244.92C144.141 1244.75 143.757 1244.71 143.402 1244.82L141.712 1245.39C141.535 1245.46 141.373 1245.56 141.236 1245.69C141.098 1245.82 140.988 1245.97 140.912 1246.14C140.835 1246.32 140.794 1246.5 140.79 1246.69C140.786 1246.88 140.82 1247.07 140.89 1247.24L144.003 1256.48" stroke="#BAC8CF" stroke-miterlimit="10"/>
<path d="M147.871 1262.29L151.897 1260.93C153.332 1260.44 154.102 1258.88 153.617 1257.45L153.031 1255.71C152.546 1254.28 150.989 1253.51 149.553 1253.99L145.528 1255.36C144.092 1255.84 143.322 1257.4 143.807 1258.83L144.393 1260.57C144.878 1262 146.436 1262.77 147.871 1262.29Z" stroke="#BAC8CF" stroke-miterlimit="10"/>
<path d="M155.809 1246.01L157.139 1245.56C157.507 1245.44 157.907 1245.47 158.253 1245.64C158.599 1245.82 158.862 1246.12 158.987 1246.48L161.915 1255.15C161.976 1255.33 162 1255.52 161.987 1255.71C161.973 1255.91 161.922 1256.09 161.836 1256.26C161.75 1256.44 161.632 1256.59 161.487 1256.71C161.342 1256.84 161.173 1256.94 160.991 1257L159.218 1257.6" stroke="#BAC8CF" stroke-miterlimit="10"/>
<path d="M230.266 2077.07C204.243 2084.67 182.229 2106.2 175.402 2132.56C170.783 2150.12 172.049 2170.01 161.315 2184.66C154.848 2193.42 145.075 2198.94 136.936 2206.12C115.163 2225.33 106.387 2257.98 115.597 2285.51C121.214 2302.32 132.687 2316.75 137.823 2333.7C142.193 2348.11 141.684 2363.12 138.876 2378.04" stroke="#BAC8CF" stroke-miterlimit="10"/>
<path d="M117.795 2445.37C109.916 2467.77 102.285 2490.22 96.9918 2513.35C89.0658 2547.99 86.5993 2584.72 96.7517 2618.78C107.024 2653.25 129.712 2683.04 156.797 2706.67C179.06 2726.06 204.289 2741.63 230.229 2755.84" stroke="#BAC8CF" stroke-miterlimit="10"/>
<path d="M230.266 2468.44C199.735 2483.02 177.887 2514.49 174.211 2548.06" stroke="#BAC8CF" stroke-miterlimit="10"/>
<path d="M174.294 2568.52C178.229 2601.45 200.594 2631.22 230.266 2645.73" stroke="#BAC8CF" stroke-miterlimit="10"/>
<path d="M164.501 2404.57C166.339 2412.86 165.13 2421.54 161.093 2429.01C157.057 2436.48 150.464 2442.25 142.521 2445.26C134.579 2448.27 125.819 2448.32 117.845 2445.39C109.87 2442.47 103.216 2436.77 99.0987 2429.35C94.9817 2421.92 93.6781 2413.25 95.4266 2404.94C97.175 2396.63 101.858 2389.23 108.619 2384.09C115.38 2378.95 123.767 2376.42 132.243 2376.95C140.719 2377.49 148.717 2381.07 154.774 2387.02" stroke="#BAC8CF" stroke-miterlimit="10"/>
<path d="M152.206 2393.99C152.206 2391.87 152.835 2389.8 154.013 2388.04C155.192 2386.27 156.867 2384.9 158.826 2384.08C160.786 2383.27 162.943 2383.06 165.023 2383.47C167.104 2383.89 169.015 2384.91 170.514 2386.41C172.014 2387.91 173.036 2389.82 173.45 2391.9C173.864 2393.98 173.651 2396.14 172.839 2398.1C172.028 2400.06 170.653 2401.73 168.889 2402.91C167.125 2404.09 165.052 2404.72 162.931 2404.72C161.522 2404.72 160.127 2404.44 158.825 2403.9C157.523 2403.37 156.34 2402.58 155.344 2401.58C154.348 2400.58 153.558 2399.4 153.02 2398.1C152.481 2396.8 152.204 2395.4 152.206 2393.99V2393.99Z" stroke="#BAC8CF" stroke-miterlimit="10"/>
<path d="M71.5506 2439.88C71.5506 2438.34 72.0073 2436.83 72.863 2435.55C73.7187 2434.27 74.9349 2433.27 76.3579 2432.68C77.7809 2432.09 79.3467 2431.94 80.8573 2432.24C82.3679 2432.54 83.7555 2433.28 84.8446 2434.37C85.9337 2435.46 86.6754 2436.85 86.9758 2438.36C87.2763 2439.87 87.1221 2441.43 86.5327 2442.86C85.9433 2444.28 84.9451 2445.5 83.6645 2446.35C82.3839 2447.21 80.8782 2447.67 79.338 2447.67C78.315 2447.67 77.3018 2447.47 76.3565 2447.07C75.4111 2446.68 74.5521 2446.11 73.8288 2445.39C73.1054 2444.66 72.5318 2443.8 72.1409 2442.86C71.7499 2441.91 71.5494 2440.9 71.5506 2439.88V2439.88Z" stroke="#BAC8CF" stroke-miterlimit="10"/>
<path d="M163.883 2558.29C163.883 2556.26 164.483 2554.28 165.608 2552.6C166.732 2550.92 168.331 2549.61 170.201 2548.83C172.071 2548.06 174.129 2547.85 176.115 2548.25C178.1 2548.64 179.924 2549.62 181.356 2551.05C182.787 2552.48 183.762 2554.31 184.157 2556.29C184.552 2558.28 184.349 2560.33 183.574 2562.2C182.8 2564.07 181.488 2565.67 179.805 2566.8C178.121 2567.92 176.142 2568.52 174.118 2568.52C171.403 2568.52 168.8 2567.44 166.88 2565.53C164.961 2563.61 163.883 2561 163.883 2558.29V2558.29Z" stroke="#BAC8CF" stroke-miterlimit="10"/>
<path d="M200.307 2141.31L201.665 2144.92C201.684 2144.97 201.719 2145.02 201.763 2145.05C201.808 2145.08 201.86 2145.09 201.914 2145.09C201.968 2145.09 202.021 2145.08 202.065 2145.05C202.11 2145.02 202.144 2144.97 202.164 2144.92L203.522 2141.31L207.134 2139.95C207.503 2139.82 207.503 2139.59 207.134 2139.46L203.522 2138.1L202.164 2134.49C202.144 2134.44 202.11 2134.39 202.065 2134.36C202.021 2134.33 201.968 2134.32 201.914 2134.32C201.86 2134.32 201.808 2134.33 201.763 2134.36C201.719 2134.39 201.684 2134.44 201.665 2134.49L200.307 2138.1L196.695 2139.46C196.645 2139.47 196.602 2139.51 196.571 2139.55C196.541 2139.6 196.525 2139.65 196.525 2139.7C196.525 2139.76 196.541 2139.81 196.571 2139.86C196.602 2139.9 196.645 2139.93 196.695 2139.95L200.307 2141.31Z" stroke="#BAC8CF" stroke-miterlimit="10"/>
<path d="M64.4469 2549.67L65.7956 2553.28C65.8172 2553.33 65.8527 2553.37 65.8978 2553.4C65.943 2553.43 65.9957 2553.45 66.0497 2553.45C66.1036 2553.45 66.1564 2553.43 66.2015 2553.4C66.2466 2553.37 66.2822 2553.33 66.3037 2553.28L67.6617 2549.67L71.2736 2548.31C71.6432 2548.17 71.6432 2547.94 71.2736 2547.8L67.6617 2546.45L66.3037 2542.83C66.2822 2542.78 66.2466 2542.74 66.2015 2542.71C66.1564 2542.68 66.1036 2542.67 66.0497 2542.67C65.9957 2542.67 65.943 2542.68 65.8978 2542.71C65.8527 2542.74 65.8172 2542.78 65.7956 2542.83L64.4469 2546.42L60.8257 2547.77C60.7763 2547.79 60.7342 2547.82 60.7046 2547.87C60.6751 2547.91 60.6593 2547.97 60.6593 2548.02C60.6593 2548.07 60.6751 2548.13 60.7046 2548.17C60.7342 2548.22 60.7763 2548.25 60.8257 2548.27L64.4469 2549.67Z" stroke="#BAC8CF" stroke-miterlimit="10"/>
<path d="M178.072 2767.29L179.467 2770.9C179.482 2770.95 179.515 2771 179.56 2771.03C179.605 2771.07 179.66 2771.09 179.716 2771.09C179.773 2771.09 179.828 2771.07 179.873 2771.03C179.918 2771 179.951 2770.95 179.966 2770.9L181.324 2767.28L184.936 2765.93C185.305 2765.79 185.305 2765.57 184.936 2765.43L181.324 2764.07L179.966 2760.46C179.946 2760.41 179.912 2760.36 179.867 2760.33C179.823 2760.3 179.77 2760.29 179.716 2760.29C179.663 2760.29 179.61 2760.3 179.565 2760.33C179.521 2760.36 179.487 2760.41 179.467 2760.46L178.109 2764.07L174.497 2765.43C174.444 2765.44 174.397 2765.48 174.365 2765.52C174.332 2765.57 174.314 2765.62 174.314 2765.68C174.314 2765.74 174.332 2765.79 174.365 2765.84C174.397 2765.88 174.444 2765.92 174.497 2765.93L178.072 2767.29Z" stroke="#BAC8CF" stroke-miterlimit="10"/>
<path d="M81.7309 2471.69L82.5623 2473.91C82.5753 2473.94 82.5966 2473.96 82.6237 2473.98C82.6507 2474 82.6824 2474.01 82.7148 2474.01C82.7471 2474.01 82.7788 2474 82.8059 2473.98C82.8329 2473.96 82.8543 2473.94 82.8672 2473.91L83.6986 2471.69L85.9157 2470.86C86.1466 2470.78 86.1466 2470.63 85.9157 2470.55L83.6986 2469.72L82.8672 2467.5C82.8543 2467.47 82.8329 2467.44 82.8059 2467.43C82.7788 2467.41 82.7471 2467.4 82.7148 2467.4C82.6824 2467.4 82.6507 2467.41 82.6237 2467.43C82.5966 2467.44 82.5753 2467.47 82.5623 2467.5L81.7309 2469.72L79.5046 2470.55C79.472 2470.56 79.4438 2470.58 79.4237 2470.61C79.4037 2470.64 79.393 2470.67 79.393 2470.7C79.393 2470.74 79.4037 2470.77 79.4237 2470.8C79.4438 2470.83 79.472 2470.85 79.5046 2470.86L81.7309 2471.69Z" fill="#BAC8CF"/>
<path d="M156.28 2265.09L157.111 2267.31C157.12 2267.34 157.139 2267.37 157.167 2267.39C157.195 2267.41 157.229 2267.43 157.264 2267.43C157.299 2267.43 157.333 2267.41 157.36 2267.39C157.388 2267.37 157.408 2267.34 157.416 2267.31L158.248 2265.09L160.474 2264.26C160.696 2264.18 160.696 2264.04 160.474 2263.94L158.248 2263.11L157.416 2260.9C157.403 2260.87 157.382 2260.84 157.355 2260.82C157.328 2260.81 157.296 2260.8 157.264 2260.8C157.231 2260.8 157.2 2260.81 157.173 2260.82C157.146 2260.84 157.124 2260.87 157.111 2260.9L156.28 2263.11L154.063 2263.94C154.03 2263.96 154.002 2263.98 153.982 2264C153.962 2264.03 153.951 2264.07 153.951 2264.1C153.951 2264.14 153.962 2264.17 153.982 2264.2C154.002 2264.23 154.03 2264.25 154.063 2264.26L156.28 2265.09Z" fill="#BAC8CF"/>
<path d="M140.104 2446.08C140.351 2444.71 140.32 2443.3 140.012 2441.95C139.428 2439.71 138.435 2437.6 137.084 2435.73C136.004 2433.95 134.524 2432.45 132.76 2431.34C129.74 2429.69 126.054 2430.16 122.599 2429.68C117.056 2428.89 111.874 2425.51 106.322 2426.14C103.677 2426.56 101.155 2427.56 98.9315 2429.05" stroke="#BAC8CF" stroke-miterlimit="10"/>
<path d="M161.333 2428.56C159.019 2423.86 155.706 2419.72 151.626 2416.43C147.546 2413.15 142.798 2410.79 137.712 2409.53C135.754 2409.06 133.749 2408.75 131.763 2408.41C129.09 2407.95 126.433 2407.42 123.791 2406.81C118.885 2405.83 114.13 2404.2 109.648 2401.97C105.795 2400.02 102.47 2397.17 99.9571 2393.66" stroke="#BAC8CF" stroke-miterlimit="10"/>
<path d="M152.298 2392.69L151.845 2392.64C149.047 2392.38 146.411 2391.2 144.344 2389.3C143.432 2388.23 142.454 2387.21 141.416 2386.26C139.411 2384.74 136.741 2384.54 134.238 2384.31C131.735 2384.08 129.037 2383.64 127.319 2381.81C126.231 2380.48 125.508 2378.89 125.222 2377.19" stroke="#BAC8CF" stroke-miterlimit="10"/>
<path d="M206.922 761.038C212.916 774.926 220.769 787.934 230.266 799.708" stroke="#BAC8CF" stroke-miterlimit="10"/>
<path d="M230.266 543.876C226.395 552.273 222.663 560.726 219.273 569.326C210.763 590.966 204.449 613.407 200.428 636.31" stroke="#BAC8CF" stroke-miterlimit="10"/>
<path d="M165.758 228.369C172.787 234.292 180.166 239.786 187.855 244.821C201.588 254.059 215.725 262.632 230.266 270.539" stroke="#BAC8CF" stroke-miterlimit="10"/>
<path d="M230.266 81.8851C203.938 92.4439 178.996 105.645 158.968 125.386C147.994 136.185 138.46 149.404 136.04 164.582C133.564 180.175 138.959 196.184 148.049 209.182" stroke="#BAC8CF" stroke-miterlimit="10"/>
<path d="M90.9294 333.037C87.2893 348.46 96.8411 363.913 112.264 367.554C127.687 371.194 143.14 361.642 146.78 346.219C150.42 330.797 140.868 315.343 125.446 311.703C110.023 308.063 94.5695 317.615 90.9294 333.037Z" stroke="#BAC8CF" stroke-miterlimit="10"/>
<path d="M171.189 217.718C171.189 215.116 170.418 212.572 168.972 210.409C167.527 208.246 165.473 206.56 163.069 205.564C160.665 204.569 158.02 204.308 155.468 204.816C152.917 205.323 150.573 206.576 148.733 208.416C146.893 210.256 145.641 212.599 145.133 215.151C144.625 217.703 144.886 220.348 145.882 222.752C146.877 225.155 148.563 227.21 150.727 228.655C152.89 230.101 155.433 230.872 158.035 230.872C159.763 230.873 161.474 230.534 163.07 229.873C164.667 229.213 166.117 228.244 167.339 227.022C168.561 225.8 169.53 224.349 170.191 222.753C170.851 221.156 171.191 219.446 171.189 217.718V217.718Z" stroke="#BAC8CF" stroke-miterlimit="10"/>
<path d="M187.9 759.828C187.447 762.374 186.402 764.777 184.85 766.846C183.298 768.914 181.283 770.59 178.966 771.737C176.648 772.885 174.094 773.473 171.509 773.454C168.923 773.435 166.378 772.809 164.078 771.627C161.778 770.446 159.787 768.741 158.266 766.65C156.745 764.559 155.736 762.14 155.319 759.587C154.903 757.035 155.092 754.421 155.87 751.955C156.648 749.489 157.994 747.241 159.799 745.389" stroke="#BAC8CF" stroke-miterlimit="10"/>
<path d="M121.49 727.431C121.489 725.894 121.943 724.391 122.795 723.112C123.648 721.834 124.86 720.836 126.28 720.247C127.699 719.657 129.262 719.502 130.769 719.801C132.277 720.1 133.662 720.839 134.75 721.925C135.837 723.011 136.578 724.395 136.878 725.903C137.179 727.41 137.026 728.973 136.438 730.393C135.85 731.813 134.854 733.027 133.577 733.881C132.299 734.735 130.796 735.191 129.259 735.191C127.2 735.191 125.226 734.373 123.769 732.918C122.312 731.463 121.493 729.49 121.49 727.431V727.431Z" stroke="#BAC8CF" stroke-miterlimit="10"/>
<path d="M143.541 634.73C143.541 633.146 144.01 631.597 144.891 630.28C145.771 628.963 147.021 627.936 148.485 627.33C149.948 626.724 151.559 626.565 153.112 626.874C154.666 627.183 156.093 627.946 157.213 629.066C158.333 630.186 159.096 631.614 159.405 633.167C159.714 634.721 159.556 636.331 158.949 637.795C158.343 639.258 157.317 640.509 156 641.389C154.682 642.269 153.134 642.739 151.55 642.739C149.427 642.736 147.391 641.892 145.889 640.39C144.388 638.889 143.543 636.853 143.541 634.73Z" stroke="#BAC8CF" stroke-miterlimit="10"/>
<path d="M230.266 617.178C230.099 617.178 229.933 617.178 229.758 617.178C227.746 617.178 225.817 617.977 224.395 619.399C222.972 620.822 222.173 622.751 222.173 624.762C222.173 626.773 222.972 628.702 224.395 630.125C225.817 631.547 227.746 632.346 229.758 632.346C229.933 632.346 230.099 632.346 230.266 632.346" stroke="#BAC8CF" stroke-miterlimit="10"/>
<path d="M230.266 643.331C220.74 638.391 210.102 635.987 199.378 636.35C188.654 636.714 178.203 639.833 169.034 645.407C159.865 650.981 152.285 658.822 147.025 668.175C141.765 677.528 139.002 688.077 139.002 698.808C139.002 709.538 141.765 720.089 147.025 729.441C152.285 738.794 159.865 746.635 169.034 752.209C178.203 757.783 188.654 760.902 199.378 761.266C210.102 761.63 220.74 759.226 230.266 754.286" stroke="#BAC8CF" stroke-miterlimit="10"/>
<path d="M90.3126 10.7908L91.144 13.0077C91.157 13.0374 91.1783 13.0626 91.2053 13.0804C91.2324 13.0981 91.2641 13.1074 91.2964 13.1074C91.3288 13.1074 91.3605 13.0981 91.3875 13.0804C91.4146 13.0626 91.4359 13.0374 91.4489 13.0077L92.2803 10.7908L94.5066 9.95899C94.7283 9.87585 94.7283 9.72819 94.5066 9.64505L92.2803 8.81374L91.4489 6.59676C91.4359 6.5671 91.4146 6.54187 91.3875 6.52414C91.3605 6.50641 91.3288 6.49663 91.2964 6.49663C91.2641 6.49663 91.2324 6.50641 91.2053 6.52414C91.1783 6.54187 91.157 6.5671 91.144 6.59676L90.3126 8.81374L88.0956 9.64505C88.0629 9.6564 88.0347 9.67781 88.0147 9.70595C87.9947 9.73409 87.9839 9.7675 87.9839 9.80202C87.9839 9.83655 87.9947 9.87041 88.0147 9.89855C88.0347 9.92669 88.0629 9.94765 88.0956 9.95899L90.3126 10.7908Z" fill="#BAC8CF"/>
<path d="M163.957 173.625L164.788 175.842C164.796 175.876 164.816 175.906 164.844 175.928C164.871 175.95 164.905 175.961 164.94 175.961C164.975 175.961 165.009 175.95 165.037 175.928C165.065 175.906 165.084 175.876 165.093 175.842L165.924 173.625L168.141 172.794C168.372 172.71 168.372 172.572 168.141 172.489L165.924 171.657L165.093 169.44C165.084 169.406 165.065 169.376 165.037 169.355C165.009 169.333 164.975 169.321 164.94 169.321C164.905 169.321 164.871 169.333 164.844 169.355C164.816 169.376 164.796 169.406 164.788 169.44L163.957 171.657L161.73 172.489C161.701 172.502 161.675 172.523 161.658 172.55C161.64 172.578 161.63 172.609 161.63 172.642C161.63 172.674 161.64 172.705 161.658 172.732C161.675 172.759 161.701 172.781 161.73 172.794L163.957 173.625Z" fill="#BAC8CF"/>
<path d="M67.4765 305.43L68.3079 307.657C68.3209 307.686 68.3422 307.712 68.3693 307.729C68.3963 307.747 68.428 307.756 68.4604 307.756C68.4927 307.756 68.5244 307.747 68.5515 307.729C68.5785 307.712 68.5999 307.686 68.6128 307.657L69.4442 305.43L71.6613 304.599C71.8922 304.516 71.8922 304.377 71.6613 304.294L69.4442 303.463L68.6128 301.246C68.6043 301.212 68.5848 301.181 68.5571 301.16C68.5295 301.138 68.4954 301.126 68.4604 301.126C68.4253 301.126 68.3912 301.138 68.3636 301.16C68.336 301.181 68.3164 301.212 68.3079 301.246L67.4765 303.463L65.2502 304.294C65.2206 304.307 65.1953 304.328 65.1776 304.355C65.1599 304.382 65.1504 304.414 65.1504 304.446C65.1504 304.479 65.1599 304.51 65.1776 304.538C65.1953 304.565 65.2206 304.586 65.2502 304.599L67.4765 305.43Z" fill="#BAC8CF"/>
<path d="M160.298 534.204L161.13 536.421C161.138 536.455 161.158 536.486 161.186 536.507C161.213 536.529 161.247 536.541 161.282 536.541C161.317 536.541 161.351 536.529 161.379 536.507C161.407 536.486 161.426 536.455 161.435 536.421L162.266 534.204L164.492 533.373C164.714 533.29 164.714 533.151 164.492 533.068L162.266 532.236L161.435 530.019C161.426 529.985 161.407 529.955 161.379 529.934C161.351 529.912 161.317 529.9 161.282 529.9C161.247 529.9 161.213 529.912 161.186 529.934C161.158 529.955 161.138 529.985 161.13 530.019L160.298 532.236L158.081 533.068C158.047 533.076 158.017 533.096 157.995 533.124C157.974 533.151 157.962 533.185 157.962 533.22C157.962 533.255 157.974 533.29 157.995 533.317C158.017 533.345 158.047 533.364 158.081 533.373L160.298 534.204Z" fill="#BAC8CF"/>
<path d="M178.534 925.729L179.365 927.947C179.378 927.976 179.399 928.002 179.426 928.019C179.453 928.037 179.485 928.046 179.517 928.046C179.55 928.046 179.582 928.037 179.609 928.019C179.636 928.002 179.657 927.976 179.67 927.947L180.501 925.729L182.718 924.898C182.949 924.806 182.949 924.667 182.718 924.584L180.501 923.753L179.67 921.535C179.657 921.506 179.636 921.48 179.609 921.463C179.582 921.445 179.55 921.436 179.517 921.436C179.485 921.436 179.453 921.445 179.426 921.463C179.399 921.48 179.378 921.506 179.365 921.535L178.534 923.753L176.307 924.584C176.275 924.595 176.246 924.616 176.226 924.644C176.206 924.673 176.196 924.706 176.196 924.741C176.196 924.776 176.206 924.809 176.226 924.838C176.246 924.866 176.275 924.887 176.307 924.898L178.534 925.729Z" fill="#BAC8CF"/>
<path d="M135.365 903.715L136.723 907.328C136.743 907.378 136.777 907.421 136.822 907.451C136.866 907.481 136.919 907.498 136.973 907.498C137.027 907.498 137.079 907.481 137.124 907.451C137.168 907.421 137.203 907.378 137.222 907.328L138.58 903.715L142.192 902.358C142.562 902.219 142.562 901.988 142.192 901.85L138.58 900.501L137.222 896.88C137.203 896.829 137.168 896.786 137.124 896.756C137.079 896.726 137.027 896.709 136.973 896.709C136.919 896.709 136.866 896.726 136.822 896.756C136.777 896.786 136.743 896.829 136.723 896.88L135.365 900.501L131.753 901.85C131.704 901.871 131.662 901.907 131.632 901.952C131.603 901.997 131.587 902.05 131.587 902.104C131.587 902.158 131.603 902.21 131.632 902.255C131.662 902.3 131.704 902.336 131.753 902.358L135.365 903.715Z" stroke="#BAC8CF" stroke-miterlimit="10"/>
<path d="M144.538 388.062L145.896 391.674C145.911 391.729 145.944 391.777 145.989 391.811C146.034 391.846 146.089 391.864 146.146 391.864C146.202 391.864 146.257 391.846 146.302 391.811C146.347 391.777 146.38 391.729 146.395 391.674L147.753 388.062L151.365 386.704C151.734 386.575 151.734 386.344 151.365 386.205L147.753 384.848L146.395 381.235C146.375 381.185 146.341 381.142 146.297 381.112C146.252 381.081 146.199 381.065 146.146 381.065C146.092 381.065 146.039 381.081 145.995 381.112C145.95 381.142 145.916 381.185 145.896 381.235L144.538 384.848L140.926 386.205C140.876 386.225 140.833 386.259 140.803 386.304C140.772 386.348 140.756 386.401 140.756 386.455C140.756 386.509 140.772 386.561 140.803 386.606C140.833 386.65 140.876 386.684 140.926 386.704L144.538 388.062Z" stroke="#BAC8CF" stroke-miterlimit="10"/>
<path d="M152.206 64.1667L153.555 67.7789C153.576 67.8283 153.612 67.8702 153.657 67.8998C153.702 67.9293 153.755 67.9453 153.809 67.9453C153.863 67.9453 153.916 67.9293 153.961 67.8998C154.006 67.8702 154.041 67.8283 154.063 67.7789L155.412 64.1667L159.033 62.809C159.402 62.6705 159.402 62.4487 159.033 62.3102L155.412 60.952L154.063 57.3399C154.041 57.2904 154.006 57.2486 153.961 57.219C153.916 57.1895 153.863 57.1739 153.809 57.1739C153.755 57.1739 153.702 57.1895 153.657 57.219C153.612 57.2486 153.576 57.2904 153.555 57.3399L152.206 60.952L148.585 62.3102C148.535 62.3298 148.492 62.364 148.461 62.4085C148.431 62.453 148.415 62.5057 148.415 62.5596C148.415 62.6135 148.431 62.6658 148.461 62.7103C148.492 62.7548 148.535 62.7894 148.585 62.809L152.206 64.1667Z" stroke="#BAC8CF" stroke-miterlimit="10"/>
<path d="M90.451 343.065C81.0746 339.37 75.4119 335.296 75.9939 331.896C77.0285 325.827 97.5826 324.275 121.906 328.423C146.229 332.571 165.139 340.857 164.067 346.899C163.448 350.594 155.753 352.58 144.317 352.691" stroke="#BAC8CF" stroke-miterlimit="10"/>
<path d="M230.266 692.669C225.379 691.514 220.215 691.394 215.162 691.394C206.645 691.394 197.85 691.653 190.109 695.2C183.938 698.018 178.645 702.831 172.058 704.438C165.887 705.981 159.384 704.539 153.038 704.927C148.399 705.212 143.873 706.471 139.754 708.623" stroke="#BAC8CF" stroke-miterlimit="10"/>
<path d="M86.3681 94.6147V108.028C86.3598 108.196 86.3951 108.363 86.4706 108.512C86.5461 108.662 86.6592 108.79 86.7988 108.883C86.9385 108.976 87.0999 109.031 87.2672 109.043C87.4346 109.055 87.6022 109.024 87.7538 108.952L92.4835 106.753C93.472 108.222 98.3957 109.866 100.068 109.275L102.534 113.894C102.614 114.042 102.731 114.167 102.873 114.257C103.016 114.346 103.179 114.398 103.347 114.406C103.515 114.414 103.682 114.379 103.833 114.304C103.983 114.229 104.112 114.116 104.206 113.977L112.215 103.215C113.015 102.175 113.42 100.884 113.357 99.5728C113.295 98.2618 112.769 97.0155 111.874 96.0558C109.085 93.4815 105.741 91.5848 102.1 90.5132C98.5413 89.1918 94.7259 88.7084 90.95 89.1C89.6568 89.3275 88.4864 90.0065 87.6472 91.0165C86.8081 92.0265 86.3548 93.3017 86.3681 94.6147Z" stroke="#BAC8CF" stroke-miterlimit="10"/>
<path d="M103.042 97.3857C102.562 97.0589 101.993 96.8842 101.412 96.8842C100.831 96.8842 100.262 97.0589 99.7815 97.3857C99.6094 96.8245 99.2634 96.3326 98.7936 95.9807C98.3237 95.6287 97.7543 95.4347 97.1672 95.4272" stroke="#BAC8CF" stroke-miterlimit="10"/>
<path d="M110.516 105.451L112.622 106.892" stroke="#BAC8CF" stroke-miterlimit="10"/>
<path d="M112.262 103.086L114.331 104.074" stroke="#BAC8CF" stroke-miterlimit="10"/>
<path d="M86.1738 97.3584L83.615 97.2569" stroke="#BAC8CF" stroke-miterlimit="10"/>
<path d="M86.1836 94.4209L83.9388 93.9771" stroke="#BAC8CF" stroke-miterlimit="10"/>
<path d="M115.393 310.936C111.514 288.716 105.64 266.891 97.8412 245.726C88.4556 220.415 76.0585 196.156 68.9362 170.115C58.2573 131.085 60.89 86.3648 85.2686 54.0695C103.661 29.7094 132.446 14.883 162.09 7.62207C184.325 2.17177 207.281 0.610588 230.219 0.000893917" stroke="#BAC8CF" stroke-miterlimit="10"/>
<path d="M230.266 944.122C189.065 892.714 134.885 850.183 109.509 789.583C81.9067 723.634 93.5001 648.688 104.65 578.038C115.569 508.902 125.417 437.429 121.722 367.952" stroke="#BAC8CF" stroke-miterlimit="10"/>
</g>
<defs>
<clipPath id="clip0">
<rect width="230" height="2911" fill="white" transform="translate(0 0.000488281)"/>
</clipPath>
</defs>
</svg>
