<svg width="230" height="2277" viewBox="0 0 230 2277" fill="none" xmlns="http://www.w3.org/2000/svg">
<g clip-path="url(#clip0)">
<path d="M93.4981 21.6399C95.9924 15.2474 103.475 11.0811 110.32 10.5546C119.124 9.91715 126.135 19.5059 125.47 28.3096C124.805 37.1132 118.634 44.5773 111.669 50.0091C99.5951 59.4224 84.556 64.531 69.3598 66.2862C62.764 67.053 55.8911 67.2098 49.7295 64.7341C43.5679 62.2584 38.2654 56.7436 37.785 50.1293C37.3047 43.5151 43.0321 36.6236 49.6279 37.2979C64.2883 39.2194 89.646 31.4412 93.4981 21.6399Z" stroke="#BAC8CF" stroke-linecap="round" stroke-linejoin="round"/>
<path d="M87.328 46.0369L86.4874 43.8107C86.4789 43.7767 86.4593 43.7464 86.4317 43.7248C86.4041 43.7032 86.37 43.6914 86.335 43.6914C86.2999 43.6914 86.2658 43.7032 86.2382 43.7248C86.2106 43.7464 86.191 43.7767 86.1825 43.8107L85.3419 46.0369L83.1156 46.8777C82.8846 46.9609 82.8846 47.0993 83.1156 47.1824L85.3419 48.0232L86.1825 50.2587C86.1955 50.2883 86.2168 50.3136 86.2439 50.3313C86.2709 50.349 86.3026 50.3586 86.335 50.3586C86.3673 50.3586 86.399 50.349 86.4261 50.3313C86.4531 50.3136 86.4745 50.2883 86.4874 50.2587L87.328 48.0232L89.5636 47.1824C89.5932 47.1695 89.6185 47.1481 89.6362 47.1211C89.6539 47.094 89.6634 47.0623 89.6634 47.03C89.6634 46.9976 89.6539 46.9661 89.6362 46.9391C89.6185 46.912 89.5932 46.8907 89.5636 46.8777L87.328 46.0369Z" fill="#BAC8CF"/>
<path d="M81.9969 64.0229C82.1303 63.3131 82.1984 62.5928 82.2001 61.8706C82.1951 60.1474 81.8035 58.4472 81.0542 56.8954C80.3049 55.3436 79.217 53.9795 77.8706 52.9039C76.5242 51.8283 74.9536 51.0687 73.2747 50.6806C71.5957 50.2926 69.851 50.2862 68.1692 50.6619C66.4874 51.0376 64.9113 51.7857 63.5571 52.8514C62.2028 53.917 61.1049 55.2729 60.3442 56.8191C59.5835 58.3654 59.1794 60.0626 59.1617 61.7858C59.144 63.509 59.5132 65.2141 60.2419 66.7757" stroke="#BAC8CF" stroke-miterlimit="10"/>
<path d="M30.7827 1376.76C25.3324 1383.03 20.6211 1390.62 20.6211 1398.93C20.6211 1407.24 26.7919 1415.96 35.1059 1416.13C39.383 1416.21 43.42 1414.14 47.0504 1411.9C53.831 1407.74 61.2674 1402.61 69.0179 1404.42C71.8908 1405.09 74.4497 1406.69 77.2026 1407.75C86.7637 1411.45 98.2185 1408.14 105.433 1400.86C112.648 1393.58 115.881 1382.95 115.521 1372.7C115.188 1363.25 111.419 1353.24 103.272 1348.45C97.3964 1344.98 90.2001 1344.75 83.8722 1342.16C77.7661 1339.7 72.7222 1335.21 66.9856 1332C61.2489 1328.8 53.988 1326.87 48.1774 1329.95C45.7862 1331.34 43.7272 1333.23 42.1451 1335.49C38.9163 1339.85 36.667 1344.86 35.551 1350.17C34.435 1355.48 34.4785 1360.97 35.6787 1366.26C36.6025 1371.32 34.8288 1372.23 30.7827 1376.76Z" stroke="#BAC8CF" stroke-miterlimit="10"/>
<path d="M-0.265625 1321.95C26.0898 1307.36 51.6692 1288.78 60.1772 1260.46C63.4382 1249.6 63.8724 1238.13 64.6114 1226.74" stroke="#BAC8CF" stroke-miterlimit="10"/>
<path d="M61.489 1201.68C61.7846 1200.6 62.1172 1199.53 62.4774 1198.46C69.3319 1178.14 88.9299 1156.12 93.5 1125.5C102.499 1065.2 72.5 1029.5 37.1659 979.912C20.6607 956.748 5.10151 942.942 -7 922" stroke="#BAC8CF" stroke-miterlimit="10"/>
<path d="M-0.265625 1137.49C12.0761 1136.71 24.4362 1135.27 35.7618 1130.45C49.5538 1124.59 61.7292 1112.58 63.4751 1097.7C65.5074 1080.38 53.563 1064.82 41.8772 1051.88C28.8334 1037.37 14.9767 1023.3 -0.265625 1011.15" stroke="#BAC8CF" stroke-miterlimit="10"/>
<path d="M-0.265176 1833.46C12.0536 1830.97 23.6251 1825.65 33.5359 1817.92C55.0784 1800.91 66.9859 1772.41 63.9375 1745.15C61.2493 1720.98 47.7713 1697.9 51.0046 1673.79C54.1362 1650.35 72.2053 1632.07 82.6532 1610.84C89.4335 1596.79 92.9424 1581.38 92.9168 1565.77C92.8912 1550.17 89.3317 1534.77 82.5054 1520.74C64.7042 1484.88 28.1687 1463.2 -0.274414 1434.78" stroke="#BAC8CF" stroke-miterlimit="10"/>
<path d="M78.5974 1214.14C78.6084 1216.65 77.8744 1219.1 76.4884 1221.19C75.1024 1223.29 73.1268 1224.92 70.8119 1225.89C68.497 1226.85 65.9469 1227.11 63.4847 1226.63C61.0225 1226.15 58.759 1224.94 56.9809 1223.17C55.2028 1221.4 53.9902 1219.15 53.4966 1216.69C53.0031 1214.23 53.2508 1211.67 54.2085 1209.36C55.1661 1207.04 56.7905 1205.05 58.876 1203.66C60.9614 1202.26 63.4141 1201.52 65.9232 1201.52C69.275 1201.52 72.4904 1202.85 74.8657 1205.21C77.241 1207.58 78.5828 1210.79 78.5974 1214.14V1214.14Z" stroke="#BAC8CF" stroke-miterlimit="10"/>
<path d="M77.9993 1236.95C77.9993 1237.55 77.8205 1238.14 77.4855 1238.65C77.1506 1239.15 76.6744 1239.54 76.1174 1239.77C75.5604 1240 74.9474 1240.06 74.3561 1239.94C73.7647 1239.82 73.2216 1239.53 72.7952 1239.11C72.3689 1238.68 72.0785 1238.14 71.9609 1237.55C71.8433 1236.96 71.9037 1236.34 72.1344 1235.79C72.3651 1235.23 72.7559 1234.75 73.2572 1234.42C73.7585 1234.08 74.3479 1233.9 74.9508 1233.9C75.7593 1233.9 76.5347 1234.22 77.1064 1234.8C77.6781 1235.37 77.9993 1236.14 77.9993 1236.95Z" stroke="#BAC8CF" stroke-miterlimit="10"/>
<path d="M90.9398 1226.81C90.9398 1227.48 90.7415 1228.13 90.37 1228.69C89.9985 1229.25 89.4704 1229.68 88.8526 1229.94C88.2348 1230.19 87.555 1230.26 86.8992 1230.13C86.2433 1230 85.6409 1229.68 85.168 1229.2C84.6952 1228.73 84.3732 1228.13 84.2427 1227.47C84.1122 1226.82 84.1792 1226.14 84.4351 1225.52C84.691 1224.9 85.1244 1224.37 85.6804 1224C86.2364 1223.63 86.8901 1223.43 87.5588 1223.43C88.4555 1223.43 89.3155 1223.79 89.9495 1224.42C90.5836 1225.06 90.9398 1225.91 90.9398 1226.81V1226.81Z" stroke="#BAC8CF" stroke-miterlimit="10"/>
<path d="M89.138 1710.37L87.7801 1706.76C87.7604 1706.71 87.7261 1706.67 87.6816 1706.64C87.6371 1706.61 87.5845 1706.59 87.5307 1706.59C87.4768 1706.59 87.4242 1706.61 87.3797 1706.64C87.3352 1706.67 87.3009 1706.71 87.2812 1706.76L85.9233 1710.37L82.3113 1711.73C81.9418 1711.87 81.9418 1712.09 82.3113 1712.24L85.9233 1713.59L87.2812 1717.2C87.2963 1717.25 87.3288 1717.3 87.3739 1717.34C87.4189 1717.37 87.474 1717.39 87.5307 1717.39C87.5873 1717.39 87.6424 1717.37 87.6875 1717.34C87.7325 1717.3 87.7651 1717.25 87.7801 1717.2L89.138 1713.59L92.75 1712.24C92.8033 1712.22 92.8496 1712.19 92.8824 1712.14C92.9152 1712.1 92.9329 1712.04 92.9329 1711.99C92.9329 1711.93 92.9152 1711.87 92.8824 1711.83C92.8496 1711.78 92.8033 1711.75 92.75 1711.73L89.138 1710.37Z" stroke="#BAC8CF" stroke-miterlimit="10"/>
<path d="M56.723 1350.04L55.365 1346.43C55.35 1346.38 55.3175 1346.33 55.2724 1346.29C55.2274 1346.26 55.1723 1346.24 55.1156 1346.24C55.059 1346.24 55.0039 1346.26 54.9588 1346.29C54.9137 1346.33 54.8812 1346.38 54.8662 1346.43L53.5083 1350.04L49.8963 1351.4C49.5268 1351.53 49.5268 1351.76 49.8963 1351.9L53.5083 1353.26L54.8662 1356.87C54.8859 1356.92 54.9202 1356.96 54.9647 1356.99C55.0092 1357.02 55.0618 1357.04 55.1156 1357.04C55.1695 1357.04 55.2221 1357.02 55.2666 1356.99C55.3111 1356.96 55.3454 1356.92 55.365 1356.87L56.723 1353.26L60.335 1351.9C60.3851 1351.88 60.4282 1351.85 60.4585 1351.8C60.4889 1351.76 60.5051 1351.7 60.5051 1351.65C60.5051 1351.6 60.4889 1351.54 60.4585 1351.5C60.4282 1351.46 60.3851 1351.42 60.335 1351.4L56.723 1350.04Z" stroke="#BAC8CF" stroke-miterlimit="10"/>
<path d="M71.4935 1149.79L70.1448 1146.17C70.1232 1146.12 70.0877 1146.07 70.0426 1146.04C69.9975 1146.01 69.9447 1146 69.8908 1146C69.8368 1146 69.784 1146.01 69.7389 1146.04C69.6938 1146.07 69.6583 1146.12 69.6367 1146.17L68.288 1149.79L64.6668 1151.14C64.2973 1151.27 64.2973 1151.5 64.6668 1151.64L68.288 1153L69.6367 1156.61C69.6583 1156.66 69.6938 1156.7 69.7389 1156.73C69.784 1156.76 69.8368 1156.78 69.8908 1156.78C69.9447 1156.78 69.9975 1156.76 70.0426 1156.73C70.0877 1156.7 70.1232 1156.66 70.1448 1156.61L71.4935 1153L75.1147 1151.63C75.1642 1151.61 75.2063 1151.58 75.2358 1151.53C75.2654 1151.49 75.2811 1151.43 75.2811 1151.38C75.2811 1151.33 75.2654 1151.27 75.2358 1151.23C75.2063 1151.18 75.1642 1151.15 75.1147 1151.13L71.4935 1149.79Z" stroke="#BAC8CF" stroke-miterlimit="10"/>
<path d="M55.1039 965.791L53.7459 962.17C53.7263 962.12 53.6919 962.077 53.6475 962.047C53.603 962.016 53.5503 962 53.4965 962C53.4426 962 53.39 962.016 53.3455 962.047C53.301 962.077 53.2667 962.12 53.2471 962.17L51.8891 965.791L48.2771 967.14C47.9076 967.279 47.9076 967.51 48.2771 967.648L51.8891 969.006L53.2471 972.618C53.2667 972.668 53.301 972.711 53.3455 972.742C53.39 972.772 53.4426 972.788 53.4965 972.788C53.5503 972.788 53.603 972.772 53.6475 972.742C53.6919 972.711 53.7263 972.668 53.7459 972.618L55.1039 969.006L58.7158 967.648C58.7653 967.627 58.8074 967.591 58.8369 967.546C58.8665 967.501 58.8822 967.448 58.8822 967.394C58.8822 967.34 58.8665 967.287 58.8369 967.242C58.8074 967.197 58.7653 967.162 58.7158 967.14L55.1039 965.791Z" stroke="#BAC8CF" stroke-miterlimit="10"/>
<path d="M45.3691 1557.4L41.9049 1548.17C41.8568 1548.03 41.7694 1547.92 41.6545 1547.84C41.5397 1547.76 41.403 1547.72 41.2629 1547.72C41.1227 1547.72 40.986 1547.76 40.8712 1547.84C40.7563 1547.92 40.6689 1548.03 40.6208 1548.17L37.1474 1557.4L27.9096 1560.87C26.9859 1561.23 26.9859 1561.79 27.9096 1562.16L37.1474 1565.63L40.6208 1574.86C40.6689 1575 40.7563 1575.11 40.8712 1575.19C40.986 1575.27 41.1227 1575.31 41.2629 1575.31C41.403 1575.31 41.5397 1575.27 41.6545 1575.19C41.7694 1575.11 41.8568 1575 41.9049 1574.86L45.3691 1565.63L54.6068 1562.16C54.7376 1562.11 54.85 1562.02 54.9292 1561.91C55.0085 1561.79 55.0509 1561.66 55.0509 1561.52C55.0509 1561.38 55.0085 1561.24 54.9292 1561.12C54.85 1561.01 54.7376 1560.92 54.6068 1560.87L45.3691 1557.4Z" stroke="#BAC8CF" stroke-miterlimit="10"/>
<path d="M24.9448 1055.29L24.1134 1053.08C24.105 1053.04 24.0854 1053.01 24.0578 1052.99C24.0302 1052.97 23.9961 1052.96 23.961 1052.96C23.9259 1052.96 23.8919 1052.97 23.8643 1052.99C23.8366 1053.01 23.817 1053.04 23.8086 1053.08L22.9772 1055.29L20.7601 1056.12C20.5292 1056.21 20.5292 1056.35 20.7601 1056.43L22.9772 1057.26L23.8086 1059.48C23.817 1059.51 23.8366 1059.54 23.8643 1059.56C23.8919 1059.59 23.9259 1059.6 23.961 1059.6C23.9961 1059.6 24.0302 1059.59 24.0578 1059.56C24.0854 1059.54 24.105 1059.51 24.1134 1059.48L24.9448 1057.26L27.1712 1056.43C27.2008 1056.42 27.2261 1056.4 27.2438 1056.37C27.2615 1056.34 27.271 1056.31 27.271 1056.28C27.271 1056.24 27.2615 1056.21 27.2438 1056.19C27.2261 1056.16 27.2008 1056.14 27.1712 1056.12L24.9448 1055.29Z" fill="#BAC8CF"/>
<path d="M90.4868 1392.45L89.6554 1390.24C89.6425 1390.21 89.6212 1390.18 89.5941 1390.16C89.567 1390.15 89.5354 1390.14 89.503 1390.14C89.4706 1390.14 89.439 1390.15 89.4119 1390.16C89.3848 1390.18 89.3635 1390.21 89.3506 1390.24L88.5192 1392.45L86.3021 1393.29C86.0712 1393.37 86.0712 1393.52 86.3021 1393.6L88.5192 1394.43L89.3506 1396.65C89.3635 1396.68 89.3848 1396.7 89.4119 1396.72C89.439 1396.74 89.4706 1396.75 89.503 1396.75C89.5354 1396.75 89.567 1396.74 89.5941 1396.72C89.6212 1396.7 89.6425 1396.68 89.6554 1396.65L90.4868 1394.43L92.7131 1393.6C92.7458 1393.59 92.774 1393.57 92.794 1393.54C92.814 1393.51 92.8248 1393.48 92.8248 1393.44C92.8248 1393.41 92.814 1393.37 92.794 1393.35C92.774 1393.32 92.7458 1393.3 92.7131 1393.29L90.4868 1392.45Z" fill="#BAC8CF"/>
<path d="M28.2148 1579.86L27.3834 1577.65C27.3721 1577.61 27.3509 1577.58 27.3227 1577.56C27.2946 1577.54 27.2609 1577.53 27.2264 1577.53C27.1919 1577.53 27.1582 1577.54 27.13 1577.56C27.1019 1577.58 27.0807 1577.61 27.0693 1577.65L26.2379 1579.86L24.0209 1580.69C23.7899 1580.78 23.7899 1580.92 24.0209 1581L26.2379 1581.83L27.0693 1584.06C27.0807 1584.09 27.1019 1584.12 27.13 1584.14C27.1582 1584.16 27.1919 1584.17 27.2264 1584.17C27.2609 1584.17 27.2946 1584.16 27.3227 1584.14C27.3509 1584.12 27.3721 1584.09 27.3834 1584.06L28.2148 1581.83L30.4319 1581C30.4616 1580.99 30.4868 1580.96 30.5045 1580.94C30.5223 1580.91 30.5317 1580.88 30.5317 1580.85C30.5317 1580.81 30.5223 1580.78 30.5045 1580.75C30.4868 1580.73 30.4616 1580.71 30.4319 1580.69L28.2148 1579.86Z" fill="#BAC8CF"/>
<path d="M83.1978 1660.49C82.2678 1659.43 81.0492 1658.66 79.6909 1658.28C78.3326 1657.9 76.8934 1657.93 75.5489 1658.35C71.7522 1659.64 69.7938 1664 71.1794 1668.08L75.3734 1680.48C75.4841 1680.83 75.7296 1681.13 76.0565 1681.3C76.3834 1681.47 76.7653 1681.51 77.1193 1681.4L78.8191 1680.83C78.9949 1680.76 79.1558 1680.66 79.2922 1680.53C79.4286 1680.4 79.5379 1680.25 79.6136 1680.08C79.6893 1679.91 79.7299 1679.72 79.733 1679.53C79.7362 1679.34 79.7019 1679.16 79.632 1678.98L78.7821 1676.48C78.6586 1676.15 78.6707 1675.78 78.816 1675.46C78.9612 1675.13 79.2278 1674.88 79.5581 1674.75L82.3294 1673.83C82.4999 1673.78 82.6784 1673.76 82.8548 1673.78C83.0311 1673.8 83.2019 1673.86 83.3572 1673.94C83.5125 1674.03 83.6494 1674.14 83.76 1674.28C83.8705 1674.42 83.9526 1674.58 84.0015 1674.75L84.8421 1677.26C84.9548 1677.61 85.2021 1677.9 85.5305 1678.08C85.8589 1678.25 86.2421 1678.29 86.5973 1678.18L88.2878 1677.61C88.4645 1677.54 88.6263 1677.44 88.7637 1677.31C88.9011 1677.18 89.0113 1677.03 89.0879 1676.86C89.1645 1676.68 89.2059 1676.5 89.2097 1676.31C89.2135 1676.12 89.1796 1675.93 89.11 1675.76L85.9968 1666.52" stroke="#BAC8CF" stroke-miterlimit="10"/>
<path d="M82.1285 1660.71L78.103 1662.08C76.6676 1662.56 75.8974 1664.12 76.3827 1665.55L76.9685 1667.29C77.4538 1668.72 79.0108 1669.49 80.4463 1669.01L84.4718 1667.65C85.9072 1667.16 86.6776 1665.6 86.1922 1664.17L85.6064 1662.43C85.1211 1661 83.564 1660.23 82.1285 1660.71Z" stroke="#BAC8CF" stroke-miterlimit="10"/>
<path d="M74.1912 1676.99L72.8609 1677.44C72.4934 1677.56 72.0932 1677.53 71.7473 1677.36C71.4014 1677.19 71.1377 1676.88 71.0134 1676.52L68.085 1667.85C68.0242 1667.67 67.9999 1667.48 68.0134 1667.29C68.0269 1667.1 68.0781 1666.91 68.1639 1666.74C68.2497 1666.57 68.3684 1666.41 68.5134 1666.29C68.6584 1666.16 68.8267 1666.07 69.0088 1666L70.7824 1665.4" stroke="#BAC8CF" stroke-miterlimit="10"/>
<path d="M-0.265625 845.928C25.7572 838.334 47.7709 816.801 54.5976 790.436C59.2165 772.884 57.9509 752.986 68.6852 738.344C75.1517 729.578 84.9253 724.063 93.0638 716.876C114.837 697.67 123.613 665.024 114.403 637.486C108.786 620.683 97.3132 606.253 92.177 589.302C87.8075 574.891 88.3156 559.879 91.1238 544.96" stroke="#BAC8CF" stroke-miterlimit="10"/>
<path d="M112.205 477.636C120.084 455.234 127.715 432.777 133.008 409.655C140.934 375.013 143.401 338.284 133.248 304.224C122.976 269.749 100.288 239.957 73.2027 216.336C50.9396 196.936 25.7112 181.371 -0.228516 167.163" stroke="#BAC8CF" stroke-miterlimit="10"/>
<path d="M-0.265625 454.56C30.2653 439.983 52.1127 408.51 55.7893 374.939" stroke="#BAC8CF" stroke-miterlimit="10"/>
<path d="M55.7062 354.478C51.7709 321.554 29.4062 291.781 -0.265625 277.268" stroke="#BAC8CF" stroke-miterlimit="10"/>
<path d="M65.4986 518.43C63.6606 510.138 64.8705 501.462 68.9069 493.989C72.9434 486.517 79.5363 480.748 87.4785 477.74C95.4208 474.731 104.181 474.684 112.155 477.606C120.13 480.529 126.784 486.226 130.901 493.655C135.018 501.083 136.322 509.746 134.573 518.057C132.825 526.368 128.142 533.771 121.381 538.911C114.62 544.051 106.233 546.585 97.7575 546.047C89.2815 545.509 81.2829 541.936 75.226 535.982" stroke="#BAC8CF" stroke-miterlimit="10"/>
<path d="M77.7939 529.007C77.7939 531.129 77.1649 533.202 75.9864 534.966C74.8079 536.73 73.1329 538.104 71.1731 538.916C69.2134 539.728 67.0569 539.94 64.9765 539.526C62.896 539.113 60.985 538.091 59.4851 536.591C57.9851 535.091 56.9637 533.18 56.5498 531.1C56.136 529.019 56.3484 526.863 57.1602 524.903C57.9719 522.943 59.3466 521.268 61.1103 520.09C62.874 518.911 64.9476 518.282 67.0688 518.282C68.4776 518.281 69.8728 518.558 71.1746 519.096C72.4764 519.635 73.6592 520.425 74.6553 521.421C75.6515 522.417 76.4414 523.6 76.98 524.902C77.5185 526.203 77.7951 527.599 77.7939 529.007V529.007Z" stroke="#BAC8CF" stroke-miterlimit="10"/>
<path d="M158.449 483.123C158.449 484.663 157.992 486.168 157.137 487.449C156.281 488.73 155.065 489.728 153.642 490.317C152.219 490.907 150.653 491.061 149.142 490.76C147.632 490.46 146.244 489.718 145.155 488.629C144.066 487.54 143.324 486.152 143.024 484.642C142.723 483.131 142.877 481.565 143.467 480.142C144.056 478.719 145.054 477.503 146.335 476.648C147.616 475.792 149.121 475.335 150.661 475.335C151.684 475.334 152.698 475.534 153.643 475.925C154.588 476.316 155.447 476.89 156.171 477.613C156.894 478.337 157.468 479.196 157.859 480.141C158.25 481.086 158.45 482.1 158.449 483.123V483.123Z" stroke="#BAC8CF" stroke-miterlimit="10"/>
<path d="M66.1174 364.713C66.1174 366.737 65.5171 368.716 64.3924 370.399C63.2678 372.083 61.6692 373.394 59.7989 374.169C57.9286 374.944 55.8706 375.147 53.8851 374.752C51.8996 374.357 50.0758 373.382 48.6444 371.951C47.2129 370.519 46.2381 368.695 45.8432 366.71C45.4482 364.724 45.6509 362.666 46.4256 360.796C47.2003 358.926 48.5122 357.327 50.1954 356.202C51.8787 355.078 53.8576 354.478 55.882 354.478C58.5966 354.478 61.2 355.556 63.1195 357.475C65.0391 359.395 66.1174 361.998 66.1174 364.713V364.713Z" stroke="#BAC8CF" stroke-miterlimit="10"/>
<path d="M29.6927 781.688L28.3348 778.077C28.3151 778.026 28.2808 777.983 28.2363 777.953C28.1918 777.923 28.1392 777.906 28.0854 777.906C28.0315 777.906 27.9789 777.923 27.9344 777.953C27.8899 777.983 27.8556 778.026 27.8359 778.077L26.478 781.688L22.866 783.046C22.4965 783.185 22.4965 783.407 22.866 783.545L26.478 784.903L27.8359 788.515C27.8556 788.565 27.8899 788.608 27.9344 788.639C27.9789 788.669 28.0315 788.685 28.0854 788.685C28.1392 788.685 28.1918 788.669 28.2363 788.639C28.2808 788.608 28.3151 788.565 28.3348 788.515L29.6927 784.903L33.3047 783.545C33.3548 783.526 33.3979 783.491 33.4283 783.447C33.4586 783.402 33.4748 783.35 33.4748 783.296C33.4748 783.242 33.4586 783.189 33.4283 783.145C33.3979 783.1 33.3548 783.066 33.3047 783.046L29.6927 781.688Z" stroke="#BAC8CF" stroke-miterlimit="10"/>
<path d="M165.553 373.332L164.204 369.72C164.183 369.671 164.147 369.629 164.102 369.599C164.057 369.569 164.004 369.554 163.95 369.554C163.896 369.554 163.844 369.569 163.798 369.599C163.753 369.629 163.718 369.671 163.696 369.72L162.338 373.332L158.726 374.69C158.357 374.829 158.357 375.06 158.726 375.198L162.338 376.547L163.696 380.168C163.718 380.217 163.753 380.259 163.798 380.289C163.844 380.319 163.896 380.334 163.95 380.334C164.004 380.334 164.057 380.319 164.102 380.289C164.147 380.259 164.183 380.217 164.204 380.168L165.553 376.584L169.174 375.235C169.224 375.214 169.266 375.178 169.295 375.133C169.325 375.088 169.341 375.035 169.341 374.981C169.341 374.927 169.325 374.874 169.295 374.829C169.266 374.784 169.224 374.749 169.174 374.727L165.553 373.332Z" stroke="#BAC8CF" stroke-miterlimit="10"/>
<path d="M51.9279 155.708L50.533 152.105C50.518 152.051 50.4855 152.002 50.4404 151.968C50.3954 151.934 50.3403 151.915 50.2836 151.915C50.2269 151.915 50.1718 151.934 50.1268 151.968C50.0817 152.002 50.0492 152.051 50.0342 152.105L48.6762 155.717L45.0642 157.066C44.6947 157.214 44.6947 157.435 45.0642 157.574L48.6762 158.932L50.0342 162.544C50.0538 162.594 50.0881 162.637 50.1326 162.668C50.1771 162.698 50.2297 162.714 50.2836 162.714C50.3375 162.714 50.3901 162.698 50.4346 162.668C50.479 162.637 50.5134 162.594 50.533 162.544L51.891 158.932L55.5029 157.574C55.5562 157.556 55.6025 157.522 55.6353 157.476C55.6681 157.431 55.6858 157.376 55.6858 157.32C55.6858 157.264 55.6681 157.209 55.6353 157.163C55.6025 157.118 55.5562 157.084 55.5029 157.066L51.9279 155.708Z" stroke="#BAC8CF" stroke-miterlimit="10"/>
<path d="M148.269 451.308L147.438 449.091C147.425 449.061 147.403 449.036 147.376 449.019C147.349 449.001 147.318 448.991 147.285 448.991C147.253 448.991 147.221 449.001 147.194 449.019C147.167 449.036 147.146 449.061 147.133 449.091L146.301 451.308L144.084 452.14C143.853 452.223 143.853 452.37 144.084 452.454L146.301 453.285L147.133 455.502C147.146 455.532 147.167 455.557 147.194 455.575C147.221 455.592 147.253 455.602 147.285 455.602C147.318 455.602 147.349 455.592 147.376 455.575C147.403 455.557 147.425 455.532 147.438 455.502L148.269 453.285L150.495 452.454C150.528 452.442 150.556 452.421 150.576 452.393C150.596 452.365 150.607 452.331 150.607 452.297C150.607 452.262 150.596 452.228 150.576 452.2C150.556 452.172 150.528 452.151 150.495 452.14L148.269 451.308Z" fill="#BAC8CF"/>
<path d="M73.7206 657.911L72.8892 655.694C72.8807 655.66 72.8611 655.63 72.8335 655.609C72.8059 655.587 72.7718 655.575 72.7368 655.575C72.7017 655.575 72.6676 655.587 72.64 655.609C72.6124 655.63 72.5928 655.66 72.5843 655.694L71.7529 657.911L69.5266 658.743C69.3049 658.826 69.3049 658.965 69.5266 659.057L71.7529 659.888L72.5843 662.105C72.5973 662.135 72.6186 662.16 72.6457 662.178C72.6727 662.196 72.7044 662.205 72.7368 662.205C72.7691 662.205 72.8008 662.196 72.8279 662.178C72.8549 662.16 72.8763 662.135 72.8892 662.105L73.7206 659.888L75.9377 659.057C75.9703 659.046 75.9985 659.024 76.0185 658.996C76.0385 658.968 76.0493 658.935 76.0493 658.9C76.0493 658.865 76.0385 658.832 76.0185 658.803C75.9985 658.775 75.9703 658.754 75.9377 658.743L73.7206 657.911Z" fill="#BAC8CF"/>
<path d="M89.8956 476.925C89.6491 478.293 89.6805 479.698 89.988 481.054C90.5724 483.289 91.5653 485.397 92.9164 487.271C93.9959 489.051 95.4764 490.553 97.2397 491.659C100.26 493.313 103.946 492.842 107.401 493.322C112.944 494.107 118.126 497.488 123.678 496.86C126.323 496.437 128.845 495.444 131.068 493.95" stroke="#BAC8CF" stroke-miterlimit="10"/>
<path d="M68.667 494.439C70.9808 499.14 74.2935 503.279 78.3736 506.566C82.4536 509.853 87.2025 512.209 92.288 513.469C94.2464 513.94 96.251 514.245 98.2372 514.587C100.91 515.049 103.567 515.582 106.209 516.185C111.115 517.173 115.87 518.8 120.352 521.026C124.205 522.976 127.53 525.828 130.043 529.34" stroke="#BAC8CF" stroke-miterlimit="10"/>
<path d="M77.7021 530.31L78.1548 530.365C80.9532 530.624 83.5889 531.796 85.6559 533.7C86.5677 534.773 87.5457 535.788 88.5843 536.739C90.5889 538.263 93.2586 538.457 95.762 538.688C98.2655 538.919 100.963 539.363 102.681 541.192C103.769 542.523 104.492 544.115 104.778 545.811" stroke="#BAC8CF" stroke-miterlimit="10"/>
<path d="M23.0783 2161.96C17.0837 2148.07 9.23061 2135.07 -0.265625 2123.29" stroke="#BAC8CF" stroke-miterlimit="10"/>
<path d="M42.0996 2163.17C42.5534 2160.63 43.5981 2158.22 45.1499 2156.16C46.7017 2154.09 48.7172 2152.41 51.0344 2151.26C53.3515 2150.12 55.9057 2149.53 58.4914 2149.55C61.0772 2149.57 63.6224 2150.19 65.9223 2151.37C68.2223 2152.56 70.2129 2154.26 71.734 2156.35C73.2552 2158.44 74.2644 2160.86 74.6805 2163.41C75.0967 2165.97 74.9082 2168.58 74.1302 2171.05C73.3522 2173.51 72.0064 2175.76 70.201 2177.61" stroke="#BAC8CF" stroke-miterlimit="10"/>
<path d="M108.51 2195.57C108.511 2197.11 108.057 2198.61 107.205 2199.89C106.352 2201.17 105.14 2202.16 103.72 2202.75C102.301 2203.34 100.738 2203.5 99.2307 2203.2C97.723 2202.9 96.3379 2202.16 95.2504 2201.08C94.163 2199.99 93.4222 2198.61 93.1216 2197.1C92.8211 2195.59 92.9744 2194.03 93.5622 2192.61C94.1499 2191.19 95.1457 2189.97 96.4235 2189.12C97.7013 2188.27 99.2037 2187.81 100.741 2187.81C102.8 2187.81 104.774 2188.63 106.231 2190.08C107.688 2191.54 108.507 2193.51 108.51 2195.57V2195.57Z" stroke="#BAC8CF" stroke-miterlimit="10"/>
<path d="M-0.265625 2279.67C9.26023 2284.61 19.8976 2287.01 30.622 2286.65C41.3464 2286.29 51.7965 2283.17 60.9659 2277.59C70.1352 2272.02 77.7149 2264.18 82.9748 2254.83C88.2347 2245.47 90.9978 2234.92 90.9978 2224.19C90.9978 2213.46 88.2347 2202.91 82.9748 2193.56C77.7149 2184.21 70.1352 2176.37 60.9659 2170.79C51.7965 2165.22 41.3464 2162.1 30.622 2161.74C19.8976 2161.37 9.26023 2163.78 -0.265625 2168.72" stroke="#BAC8CF" stroke-miterlimit="10"/>
<path d="M51.4663 1997.27L50.6349 1995.05C50.622 1995.02 50.6007 1995 50.5736 1994.98C50.5465 1994.96 50.5149 1994.95 50.4825 1994.95C50.4501 1994.95 50.4185 1994.96 50.3914 1994.98C50.3643 1995 50.343 1995.02 50.3301 1995.05L49.4987 1997.27L47.2816 1998.1C47.0507 1998.19 47.0507 1998.33 47.2816 1998.42L49.4987 1999.25L50.3301 2001.47C50.343 2001.49 50.3643 2001.52 50.3914 2001.54C50.4185 2001.56 50.4501 2001.56 50.4825 2001.56C50.5149 2001.56 50.5465 2001.56 50.5736 2001.54C50.6007 2001.52 50.622 2001.49 50.6349 2001.47L51.4663 1999.25L53.6926 1998.42C53.7252 1998.41 53.7535 1998.38 53.7735 1998.36C53.7935 1998.33 53.8043 1998.29 53.8043 1998.26C53.8043 1998.22 53.7935 1998.19 53.7735 1998.16C53.7535 1998.13 53.7252 1998.11 53.6926 1998.1L51.4663 1997.27Z" fill="#BAC8CF"/>
<path d="M94.6341 2019.29L93.2762 2015.67C93.2565 2015.62 93.2222 2015.58 93.1777 2015.55C93.1332 2015.52 93.0806 2015.5 93.0268 2015.5C92.9729 2015.5 92.9203 2015.52 92.8758 2015.55C92.8313 2015.58 92.797 2015.62 92.7773 2015.67L91.4194 2019.29L87.8074 2020.64C87.4379 2020.78 87.4379 2021.01 87.8074 2021.15L91.4194 2022.5L92.7773 2026.12C92.797 2026.17 92.8313 2026.21 92.8758 2026.24C92.9203 2026.27 92.9729 2026.29 93.0268 2026.29C93.0806 2026.29 93.1332 2026.27 93.1777 2026.24C93.2222 2026.21 93.2565 2026.17 93.2762 2026.12L94.6341 2022.5L98.2461 2021.15C98.2956 2021.13 98.3376 2021.09 98.3672 2021.05C98.3968 2021 98.4125 2020.95 98.4125 2020.9C98.4125 2020.84 98.3968 2020.79 98.3672 2020.75C98.3376 2020.7 98.2956 2020.66 98.2461 2020.64L94.6341 2019.29Z" stroke="#BAC8CF" stroke-miterlimit="10"/>
<path d="M-0.265625 2230.33C4.62117 2231.49 9.78509 2231.61 14.8382 2231.61C23.3554 2231.61 32.1498 2231.35 39.8911 2227.8C46.0619 2224.98 51.3551 2220.17 57.9417 2218.56C64.1125 2217.02 70.6159 2218.46 76.9623 2218.07C81.6008 2217.79 86.1273 2216.53 90.2463 2214.38" stroke="#BAC8CF" stroke-miterlimit="10"/>
<path d="M-0.265625 1978.88C40.9349 2030.29 95.1146 2072.82 120.491 2133.42C148.093 2199.37 136.5 2274.31 125.35 2344.96C114.431 2414.1 104.583 2485.57 108.278 2555.05" stroke="#BAC8CF" stroke-miterlimit="10"/>
</g>
<defs>
<clipPath id="clip0">
<rect width="230" height="2277" fill="white" transform="translate(230 2277) rotate(-180)"/>
</clipPath>
</defs>
</svg>
