<svg width="230" height="2277" viewBox="0 0 230 2277" fill="none" xmlns="http://www.w3.org/2000/svg">
<g clip-path="url(#clip0)">
<path d="M182.335 2173.79L183.163 2176.01C183.174 2176.04 183.195 2176.07 183.223 2176.09C183.251 2176.11 183.285 2176.12 183.319 2176.12C183.354 2176.12 183.387 2176.11 183.415 2176.09C183.443 2176.07 183.464 2176.04 183.476 2176.01L184.313 2173.79L186.53 2172.95C186.76 2172.87 186.76 2172.73 186.53 2172.65L184.313 2171.81L183.476 2169.58C183.464 2169.55 183.443 2169.52 183.415 2169.5C183.387 2169.48 183.354 2169.47 183.319 2169.47C183.285 2169.47 183.251 2169.48 183.223 2169.5C183.195 2169.52 183.174 2169.55 183.163 2169.58L182.335 2171.81L180.109 2172.65C180.079 2172.66 180.054 2172.68 180.036 2172.71C180.019 2172.74 180.009 2172.77 180.009 2172.8C180.009 2172.83 180.019 2172.86 180.036 2172.89C180.054 2172.92 180.079 2172.94 180.109 2172.95L182.335 2173.79Z" fill="#BAC8CF"/>
<path d="M149.638 2243.93C149.555 2237.49 150.705 2231.14 153.668 2225.9C159.639 2216.61 163.006 2204.55 159.869 2193.97C157.366 2185.5 149.27 2179.61 140.714 2177.4C132.158 2175.2 123.151 2176.15 114.421 2177.4C92.1383 2180.67 68.1907 2187.43 55.2555 2205.87C41.6211 2225.28 45.8347 2255.01 64.3267 2269.87C72.7355 2276.62 83.6467 2280.66 89.8107 2289.49C95.0731 2296.96 96.0851 2306.69 100.768 2314.53C110.336 2330.55 135.056 2333.75 149.528 2322.04C163.999 2310.32 166.842 2287.27 157.155 2271.32C156.787 2270.73 156.428 2270.11 156.069 2269.48" stroke="#BAC8CF" stroke-linecap="round" stroke-linejoin="round"/>
<path d="M137.467 2257.22C137.468 2253.89 138.719 2250.67 140.973 2248.21C143.228 2245.75 146.323 2244.22 149.647 2243.93C150.034 2243.93 150.42 2243.87 150.816 2243.87C153.456 2243.87 156.037 2244.66 158.232 2246.12C160.428 2247.59 162.139 2249.68 163.149 2252.12C164.159 2254.55 164.424 2257.24 163.909 2259.83C163.393 2262.42 162.122 2264.8 160.255 2266.67C158.388 2268.53 156.01 2269.81 153.42 2270.32C150.831 2270.84 148.147 2270.57 145.707 2269.56C143.268 2268.55 141.183 2266.84 139.716 2264.64C138.25 2262.45 137.467 2259.87 137.467 2257.22V2257.22Z" stroke="#BAC8CF" stroke-linecap="round" stroke-linejoin="round"/>
<path d="M95.3861 2181.25C100.122 2184.01 104.194 2187.78 107.316 2192.29C110.438 2196.8 112.533 2201.94 113.454 2207.34C114.375 2212.75 114.099 2218.29 112.646 2223.58C111.194 2228.87 108.599 2233.77 105.045 2237.95C101.491 2242.12 97.0649 2245.47 92.0782 2247.75C87.0915 2250.03 81.6657 2251.19 76.1832 2251.14C70.7007 2251.09 65.295 2249.85 60.3471 2247.48C55.3992 2245.12 51.0295 2241.7 47.5461 2237.47" stroke="#BAC8CF" stroke-linecap="round" stroke-linejoin="round"/>
<path d="M113.335 2220.32C112.721 2218.78 111.779 2217.38 110.575 2216.23C109.632 2215.32 108.469 2214.67 107.199 2214.35C105.929 2214.03 104.597 2214.04 103.335 2214.39C100.713 2215.25 98.9738 2217.77 96.4714 2218.93C93.969 2220.09 91.3194 2219.79 88.7986 2220.52C87.3956 2220.93 86.0961 2221.63 84.986 2222.59C83.8758 2223.54 82.9803 2224.71 82.3586 2226.04C81.1166 2228.72 80.8774 2232.14 78.4394 2233.81C76.3786 2235.23 73.6186 2234.73 71.0794 2234.93C64.9338 2235.38 60.0394 2240.21 57.031 2245.69" stroke="#BAC8CF" stroke-miterlimit="10"/>
<path d="M103.859 2188.14C100.635 2187.84 97.3834 2188.13 94.2633 2189C86.9033 2191.2 81.0981 2197.35 73.5909 2198.96C69.2945 2199.88 64.6669 2199.26 60.3613 2199.77" stroke="#BAC8CF" stroke-miterlimit="10"/>
<path d="M119.158 1321.82C121.587 1279.73 125.93 1238.18 147.89 1203C165.37 1175.05 197.956 1152.24 229.54 1142.89" stroke="#BAC8CF" stroke-linecap="round" stroke-linejoin="round"/>
<path d="M229.54 2024.94C213.044 1996.89 193.816 1970.04 174.588 1944.11C126.85 1879.69 75.9092 1813.37 61.318 1734.55C39.5876 1617.09 102.893 1501.64 115.175 1382.82C115.304 1381.64 115.423 1380.44 115.534 1379.24" stroke="#BAC8CF" stroke-linecap="round" stroke-linejoin="round"/>
<path d="M175.269 1670.53C166.87 1635.02 167.238 1597.45 177.919 1562.62C188.342 1528.58 207.865 1498.43 229.54 1469.99" stroke="#BAC8CF" stroke-linecap="round" stroke-linejoin="round"/>
<path d="M229.54 1772.89C212.062 1753.39 197.826 1731.21 187.376 1707.19C185.763 1703.45 184.258 1699.67 182.859 1695.84" stroke="#BAC8CF" stroke-linecap="round" stroke-linejoin="round"/>
<path d="M89.1022 1350.58C89.1022 1344.89 90.7889 1339.33 93.949 1334.6C97.1091 1329.87 101.601 1326.18 106.856 1324C112.111 1321.82 117.893 1321.25 123.472 1322.36C129.051 1323.47 134.175 1326.21 138.197 1330.24C142.219 1334.26 144.958 1339.39 146.068 1344.97C147.178 1350.55 146.608 1356.33 144.431 1361.59C142.255 1366.84 138.569 1371.33 133.839 1374.5C129.11 1377.66 123.549 1379.34 117.861 1379.34C114.085 1379.34 110.345 1378.6 106.856 1377.15C103.366 1375.71 100.196 1373.59 97.5256 1370.92C94.855 1368.25 92.7366 1365.08 91.2913 1361.59C89.8461 1358.1 89.1022 1354.36 89.1022 1350.58V1350.58Z" stroke="#BAC8CF" stroke-miterlimit="10"/>
<path d="M165.794 1683.23C165.794 1680.62 166.567 1678.07 168.017 1675.9C169.467 1673.73 171.527 1672.04 173.938 1671.04C176.348 1670.04 179.001 1669.78 181.56 1670.29C184.119 1670.79 186.47 1672.05 188.315 1673.9C190.16 1675.74 191.417 1678.09 191.926 1680.65C192.435 1683.21 192.173 1685.87 191.175 1688.28C190.176 1690.69 188.485 1692.75 186.316 1694.2C184.146 1695.65 181.596 1696.42 178.986 1696.42C175.487 1696.42 172.132 1695.03 169.658 1692.56C167.184 1690.08 165.794 1686.73 165.794 1683.23V1683.23Z" stroke="#BAC8CF" stroke-miterlimit="10"/>
<path d="M147.2 1511.01C147.87 1510.69 148.598 1510.5 149.34 1510.46C150.083 1510.42 150.826 1510.53 151.528 1510.77C152.229 1511.02 152.875 1511.4 153.429 1511.9C153.982 1512.4 154.432 1513 154.753 1513.67L158.663 1521.84C158.984 1522.51 159.169 1523.24 159.209 1523.98C159.249 1524.72 159.142 1525.47 158.895 1526.17C158.647 1526.87 158.264 1527.51 157.768 1528.07C157.271 1528.62 156.67 1529.07 156 1529.39C155.329 1529.71 154.602 1529.9 153.86 1529.94C153.118 1529.98 152.375 1529.87 151.674 1529.62C150.973 1529.37 150.327 1528.99 149.775 1528.49C149.222 1528 148.772 1527.4 148.451 1526.73L144.541 1518.55C143.894 1517.2 143.81 1515.65 144.309 1514.23C144.807 1512.82 145.847 1511.66 147.2 1511.01V1511.01Z" stroke="#BAC8CF" stroke-linecap="round" stroke-linejoin="round"/>
<path d="M145.958 1508.41L143.861 1504.04" stroke="#BAC8CF" stroke-linecap="round" stroke-linejoin="round"/>
<path d="M158.065 1514.67L156.915 1512.28C155.974 1510.31 154.29 1508.8 152.234 1508.08C150.178 1507.35 147.919 1507.48 145.954 1508.42C143.988 1509.36 142.477 1511.05 141.754 1513.1C141.03 1515.16 141.152 1517.42 142.094 1519.38L143.235 1521.78" stroke="#BAC8CF" stroke-linecap="round" stroke-linejoin="round"/>
<path d="M140.309 1505.73L147.611 1502.23L146.542 1500L139.241 1503.5L140.309 1505.73Z" stroke="#BAC8CF" stroke-linecap="round" stroke-linejoin="round"/>
<path d="M147.596 1524.95L150.292 1523.65" stroke="#BAC8CF" stroke-linecap="round" stroke-linejoin="round"/>
<path d="M146.354 1522.36L149.059 1521.08" stroke="#BAC8CF" stroke-linecap="round" stroke-linejoin="round"/>
<path d="M145.121 1519.79L147.816 1518.49" stroke="#BAC8CF" stroke-linecap="round" stroke-linejoin="round"/>
<path d="M155.113 1521.35L157.808 1520.05" stroke="#BAC8CF" stroke-linecap="round" stroke-linejoin="round"/>
<path d="M153.87 1518.77L156.565 1517.48" stroke="#BAC8CF" stroke-linecap="round" stroke-linejoin="round"/>
<path d="M152.637 1516.19L155.333 1514.89" stroke="#BAC8CF" stroke-linecap="round" stroke-linejoin="round"/>
<path d="M77.7309 1933.66L79.0833 1937.25C79.1028 1937.3 79.137 1937.35 79.1813 1937.38C79.2256 1937.41 79.278 1937.42 79.3317 1937.42C79.3853 1937.42 79.4377 1937.41 79.482 1937.38C79.5263 1937.35 79.5605 1937.3 79.5801 1937.25L80.9325 1933.66L84.5297 1932.3C84.8977 1932.17 84.8977 1931.94 84.5297 1931.81L80.9325 1930.45L79.5801 1926.86C79.5605 1926.81 79.5263 1926.76 79.482 1926.73C79.4377 1926.7 79.3853 1926.69 79.3317 1926.69C79.278 1926.69 79.2256 1926.7 79.1813 1926.73C79.137 1926.76 79.1028 1926.81 79.0833 1926.86L77.7309 1930.45L74.1337 1931.81C74.0837 1931.83 74.0408 1931.86 74.0106 1931.9C73.9804 1931.95 73.9642 1932 73.9642 1932.05C73.9642 1932.11 73.9804 1932.16 74.0106 1932.21C74.0408 1932.25 74.0837 1932.28 74.1337 1932.3L77.7309 1933.66Z" stroke="#BAC8CF" stroke-miterlimit="10"/>
<path d="M116.84 1680.89L117.668 1683.12C117.68 1683.15 117.701 1683.18 117.729 1683.2C117.757 1683.22 117.79 1683.23 117.825 1683.23C117.859 1683.23 117.893 1683.22 117.921 1683.2C117.949 1683.18 117.97 1683.15 117.981 1683.12L118.818 1680.89L121.036 1680.06C121.266 1679.98 121.266 1679.83 121.036 1679.75L118.818 1678.92L117.981 1676.69C117.97 1676.66 117.949 1676.63 117.921 1676.61C117.893 1676.59 117.859 1676.58 117.825 1676.58C117.79 1676.58 117.757 1676.59 117.729 1676.61C117.701 1676.63 117.68 1676.66 117.668 1676.69L116.84 1678.92L114.614 1679.75C114.581 1679.76 114.553 1679.78 114.533 1679.81C114.513 1679.84 114.503 1679.87 114.503 1679.91C114.503 1679.94 114.513 1679.97 114.533 1680C114.553 1680.03 114.581 1680.05 114.614 1680.06L116.84 1680.89Z" fill="#BAC8CF"/>
<path d="M77.0133 1390.26L77.8505 1392.48C77.8634 1392.51 77.8846 1392.54 77.9116 1392.56C77.9386 1392.57 77.9701 1392.58 78.0023 1392.58C78.0346 1392.58 78.0661 1392.57 78.093 1392.56C78.12 1392.54 78.1412 1392.51 78.1541 1392.48L78.9913 1390.26L81.2177 1389.43C81.4385 1389.35 81.4385 1389.2 81.2177 1389.12L78.9913 1388.29L78.1541 1386.06C78.1457 1386.03 78.1262 1386 78.0987 1385.98C78.0712 1385.95 78.0372 1385.94 78.0023 1385.94C77.9674 1385.94 77.9335 1385.95 77.9059 1385.98C77.8784 1386 77.8589 1386.03 77.8505 1386.06L77.0133 1388.29L74.7961 1389.12C74.7637 1389.13 74.7355 1389.15 74.7156 1389.18C74.6957 1389.21 74.685 1389.24 74.685 1389.27C74.685 1389.31 74.6957 1389.34 74.7156 1389.37C74.7355 1389.4 74.7637 1389.42 74.7961 1389.43L77.0133 1390.26Z" fill="#BAC8CF"/>
<path d="M153.705 1147.32L154.533 1149.55C154.544 1149.58 154.565 1149.61 154.593 1149.63C154.621 1149.65 154.655 1149.66 154.689 1149.66C154.723 1149.66 154.757 1149.65 154.785 1149.63C154.813 1149.61 154.834 1149.58 154.845 1149.55L155.673 1147.32L157.9 1146.48C158.13 1146.4 158.13 1146.26 157.9 1146.18L155.673 1145.34L154.845 1143.11C154.834 1143.08 154.813 1143.05 154.785 1143.03C154.757 1143.01 154.723 1143 154.689 1143C154.655 1143 154.621 1143.01 154.593 1143.03C154.565 1143.05 154.544 1143.08 154.533 1143.11L153.705 1145.34L151.478 1146.18C151.449 1146.19 151.423 1146.21 151.406 1146.24C151.388 1146.27 151.379 1146.3 151.379 1146.33C151.379 1146.36 151.388 1146.39 151.406 1146.42C151.423 1146.45 151.449 1146.47 151.478 1146.48L153.705 1147.32Z" fill="#BAC8CF"/>
<path d="M149.96 1710.37L151.313 1713.97C151.328 1714.03 151.36 1714.08 151.405 1714.11C151.45 1714.14 151.505 1714.16 151.561 1714.16C151.618 1714.16 151.672 1714.14 151.717 1714.11C151.762 1714.08 151.795 1714.03 151.81 1713.97L153.162 1710.37L156.759 1709.02C157.127 1708.89 157.127 1708.66 156.759 1708.52L153.162 1707.17L151.81 1703.57C151.79 1703.52 151.756 1703.48 151.711 1703.45C151.667 1703.42 151.615 1703.4 151.561 1703.4C151.508 1703.4 151.455 1703.42 151.411 1703.45C151.366 1703.48 151.332 1703.52 151.313 1703.57L149.96 1707.17L146.363 1708.52C146.313 1708.54 146.27 1708.58 146.24 1708.62C146.21 1708.67 146.194 1708.72 146.194 1708.77C146.194 1708.83 146.21 1708.88 146.24 1708.92C146.27 1708.97 146.313 1709 146.363 1709.02L149.96 1710.37Z" stroke="#BAC8CF" stroke-miterlimit="10"/>
<path d="M188.858 1233.53L190.21 1237.11C190.23 1237.15 190.264 1237.2 190.308 1237.23C190.353 1237.26 190.405 1237.27 190.459 1237.27C190.512 1237.27 190.565 1237.26 190.609 1237.23C190.653 1237.2 190.687 1237.15 190.707 1237.11L192.059 1233.51L195.657 1232.15C196.025 1232.02 196.025 1231.8 195.657 1231.66L192.059 1230.3L190.707 1226.71C190.687 1226.66 190.653 1226.61 190.609 1226.58C190.565 1226.55 190.512 1226.54 190.459 1226.54C190.405 1226.54 190.353 1226.55 190.308 1226.58C190.264 1226.61 190.23 1226.66 190.21 1226.71L188.858 1230.3L185.261 1231.66C185.211 1231.68 185.168 1231.71 185.138 1231.76C185.107 1231.8 185.091 1231.85 185.091 1231.91C185.091 1231.96 185.107 1232.01 185.138 1232.06C185.168 1232.1 185.211 1232.13 185.261 1232.15L188.858 1233.53Z" stroke="#BAC8CF" stroke-miterlimit="10"/>
<path d="M140.76 1367.97C140.435 1367.2 139.894 1366.53 139.203 1366.06C138.511 1365.59 137.697 1365.32 136.859 1365.3C135.899 1365.4 134.952 1365.61 134.035 1365.91C132.8 1366.16 131.542 1366.28 130.281 1366.27C129.003 1366.27 127.521 1366.27 126.758 1365.22C125.994 1364.17 126.39 1362.63 125.939 1361.4C125.725 1360.91 125.409 1360.46 125.013 1360.1C124.617 1359.74 124.149 1359.46 123.639 1359.29C122.351 1358.81 120.934 1358.81 119.646 1359.29C118.726 1359.62 117.953 1360.21 117.079 1360.56C116.396 1360.91 115.641 1361.1 114.873 1361.11C114.105 1361.12 113.346 1360.95 112.654 1360.62C112.048 1360.22 111.481 1359.76 110.961 1359.26C109.948 1358.37 108.678 1357.83 107.337 1357.72C106.668 1357.67 105.997 1357.79 105.382 1358.05C104.767 1358.32 104.226 1358.73 103.804 1359.26C102.755 1360.68 102.884 1362.77 101.679 1364.08C101.198 1364.55 100.598 1364.89 99.9421 1365.05C99.2863 1365.21 98.599 1365.19 97.9527 1365C97.0327 1364.75 96.2782 1364.23 95.4042 1363.94C94.9816 1363.76 94.5199 1363.69 94.0638 1363.74C93.6077 1363.8 93.1726 1363.96 92.8006 1364.23" stroke="#BAC8CF" stroke-linecap="round" stroke-linejoin="round"/>
<path d="M146.52 1352.92C144.678 1353.12 142.818 1353.04 141 1352.69C138.373 1352.23 136.019 1350.79 134.403 1348.66C133.898 1347.81 133.345 1346.98 132.747 1346.19C130.705 1343.87 127.126 1343.85 124.081 1344.4C121.036 1344.96 117.862 1345.89 114.954 1344.85C113.952 1344.5 113.032 1343.93 112.047 1343.53C109.927 1342.7 107.567 1342.75 105.478 1343.65C103.712 1344.43 102.028 1345.84 100.115 1345.57C98.8359 1345.4 97.7135 1344.46 96.4347 1344.5C95.58 1344.62 94.7471 1344.87 93.9599 1345.22C92.526 1345.66 90.9795 1345.51 89.6543 1344.81" stroke="#BAC8CF" stroke-linecap="round" stroke-linejoin="round"/>
<path d="M136.85 1328.99C133.758 1329.96 130.488 1330.22 127.282 1329.75C124.789 1329.31 122.415 1328.24 119.922 1328.03C117.604 1327.84 115.248 1328.37 112.958 1327.93C110.541 1327.39 108.405 1325.98 106.95 1323.97" stroke="#BAC8CF" stroke-linecap="round" stroke-linejoin="round"/>
<path d="M123.933 928.022C118.72 926.057 113.73 923.543 109.048 920.523C82.4136 903.038 72.0268 867.96 74.9432 836.24C76.7811 817.487 82.4353 799.309 91.558 782.824C100.681 766.339 113.079 751.895 127.99 740.38C157.026 718.501 193.509 708.94 229.54 713.768" stroke="#BAC8CF" stroke-linecap="round" stroke-linejoin="round"/>
<path d="M229.54 983.069C217.534 965.456 200.339 951.349 180.403 943.767C173.649 941.298 166.744 939.264 159.73 937.675" stroke="#BAC8CF" stroke-linecap="round" stroke-linejoin="round"/>
<path d="M229.54 754.837C223.125 754.223 216.703 753.699 210.275 753.263C204.369 752.868 198.315 752.555 192.593 753.871C183.844 755.877 176.355 761.481 169.887 767.674C164.238 773.103 159.04 779.296 156.4 786.667C153.76 794.038 154.036 802.808 158.645 809.139C164.597 817.301 175.959 819.455 186.024 818.636C196.089 817.817 205.97 814.697 216.062 814.955C220.66 815.084 225.208 815.938 229.54 817.486" stroke="#BAC8CF" stroke-linecap="round" stroke-linejoin="round"/>
<path d="M136.161 681.505C133.677 687.872 126.225 692.023 119.407 692.547C110.64 693.182 103.657 683.63 104.319 674.861C104.982 666.091 111.127 658.656 118.064 653.245C130.089 643.868 145.066 638.779 160.2 637.031C166.769 636.267 173.614 636.111 179.75 638.577C185.887 641.043 191.167 646.536 191.646 653.125C192.124 659.714 186.42 666.579 179.851 665.907C165.251 663.993 139.997 671.741 136.161 681.505Z" stroke="#BAC8CF" stroke-linecap="round" stroke-linejoin="round"/>
<path d="M142.306 821.259L143.143 823.485C143.156 823.515 143.177 823.54 143.204 823.558C143.231 823.575 143.262 823.585 143.295 823.585C143.327 823.585 143.358 823.575 143.385 823.558C143.412 823.54 143.434 823.515 143.446 823.485L144.284 821.259L146.501 820.421C146.731 820.338 146.731 820.2 146.501 820.118L144.284 819.28L143.446 817.062C143.438 817.029 143.419 816.998 143.391 816.977C143.363 816.955 143.33 816.944 143.295 816.944C143.26 816.944 143.226 816.955 143.198 816.977C143.171 816.998 143.151 817.029 143.143 817.062L142.306 819.28L140.079 820.118C140.05 820.13 140.025 820.151 140.007 820.178C139.989 820.205 139.98 820.237 139.98 820.269C139.98 820.301 139.989 820.333 140.007 820.36C140.025 820.387 140.05 820.408 140.079 820.421L142.306 821.259Z" fill="#BAC8CF"/>
<path d="M142.306 657.202L143.143 659.419C143.151 659.453 143.171 659.483 143.198 659.505C143.226 659.526 143.26 659.538 143.295 659.538C143.33 659.538 143.363 659.526 143.391 659.505C143.419 659.483 143.438 659.453 143.446 659.419L144.284 657.202L146.501 656.364C146.731 656.281 146.731 656.143 146.501 656.06L144.284 655.223L143.446 652.996C143.434 652.966 143.412 652.941 143.385 652.924C143.358 652.906 143.327 652.896 143.295 652.896C143.262 652.896 143.231 652.906 143.204 652.924C143.177 652.941 143.156 652.966 143.143 652.996L142.306 655.223L140.079 656.06C140.05 656.073 140.025 656.095 140.007 656.122C139.989 656.149 139.98 656.18 139.98 656.212C139.98 656.245 139.989 656.276 140.007 656.303C140.025 656.33 140.05 656.351 140.079 656.364L142.306 657.202Z" fill="#BAC8CF"/>
<path d="M172.693 961.96L174.046 965.567C174.065 965.617 174.099 965.66 174.144 965.69C174.188 965.72 174.24 965.736 174.294 965.736C174.348 965.736 174.4 965.72 174.444 965.69C174.489 965.66 174.523 965.617 174.542 965.567L175.895 961.96L179.492 960.616C179.86 960.478 179.86 960.248 179.492 960.11L175.895 958.766L174.542 955.159C174.523 955.109 174.489 955.066 174.444 955.036C174.4 955.006 174.348 954.99 174.294 954.99C174.24 954.99 174.188 955.006 174.144 955.036C174.099 955.066 174.065 955.109 174.046 955.159L172.693 958.766L169.096 960.119C169.047 960.141 169.005 960.176 168.975 960.221C168.946 960.266 168.93 960.318 168.93 960.372C168.93 960.426 168.946 960.479 168.975 960.524C169.005 960.569 169.047 960.604 169.096 960.625L172.693 961.96Z" stroke="#BAC8CF" stroke-miterlimit="10"/>
<path d="M108.082 717.991L109.434 721.589C109.454 721.639 109.488 721.682 109.532 721.713C109.577 721.743 109.629 721.759 109.683 721.759C109.736 721.759 109.789 721.743 109.833 721.713C109.877 721.682 109.912 721.639 109.931 721.589L111.284 717.991L114.881 716.639C115.249 716.5 115.249 716.28 114.881 716.142L111.284 714.789L109.931 711.191C109.912 711.141 109.877 711.098 109.833 711.068C109.789 711.038 109.736 711.021 109.683 711.021C109.629 711.021 109.577 711.038 109.532 711.068C109.488 711.098 109.454 711.141 109.434 711.191L108.082 714.789L104.485 716.142C104.435 716.161 104.392 716.195 104.362 716.24C104.331 716.284 104.315 716.336 104.315 716.39C104.315 716.444 104.331 716.496 104.362 716.541C104.392 716.585 104.435 716.619 104.485 716.639L108.082 717.991Z" stroke="#BAC8CF" stroke-miterlimit="10"/>
<path d="M132.499 917.573C123.531 922.545 120.291 933.848 125.262 942.818C130.233 951.788 141.533 955.029 150.5 950.057C159.468 945.084 162.709 933.782 157.738 924.812C152.767 915.842 141.467 912.601 132.499 917.573Z" stroke="#BAC8CF" stroke-miterlimit="10"/>
<path d="M147.614 639.285C147.481 639.992 147.413 640.709 147.412 641.429C147.417 643.145 147.807 644.839 148.553 646.385C149.299 647.931 150.383 649.29 151.724 650.361C153.064 651.433 154.629 652.189 156.301 652.576C157.973 652.962 159.71 652.969 161.385 652.595C163.06 652.22 164.63 651.475 165.978 650.413C167.327 649.352 168.421 648.001 169.178 646.461C169.936 644.921 170.338 643.23 170.356 641.513C170.373 639.797 170.006 638.098 169.28 636.542" stroke="#BAC8CF" stroke-miterlimit="10"/>
<path d="M173.972 870.067L180.771 854.11C180.922 853.754 181.143 853.432 181.419 853.161C181.695 852.89 182.022 852.676 182.381 852.532C182.74 852.387 183.123 852.315 183.51 852.319C183.897 852.323 184.279 852.403 184.635 852.555L196.319 857.533C197.036 857.841 197.602 858.421 197.893 859.145C198.185 859.869 198.178 860.679 197.874 861.398L191.075 877.355" stroke="#BAC8CF" stroke-linecap="round" stroke-linejoin="round"/>
<path d="M173.972 870.066C174.589 868.613 178.922 869.073 183.641 871.079C188.361 873.085 191.691 875.901 191.075 877.355C190.459 878.809 186.125 878.358 181.406 876.342C176.686 874.327 173.356 871.52 173.972 870.066Z" stroke="#BAC8CF" stroke-linecap="round" stroke-linejoin="round"/>
<path d="M186.659 872.579L188.435 868.41" stroke="#BAC8CF" stroke-linecap="round" stroke-linejoin="round"/>
<path d="M190.159 868.974L192.086 864.454L188.743 863.028L186.816 867.548L190.159 868.974Z" stroke="#BAC8CF" stroke-linecap="round" stroke-linejoin="round"/>
<path d="M175.6 866.257L173.217 865.245C172.977 865.143 172.759 864.994 172.575 864.807C172.392 864.62 172.248 864.399 172.15 864.156C172.053 863.913 172.005 863.654 172.008 863.392C172.011 863.131 172.065 862.872 172.169 862.632L175.297 855.27C175.4 855.029 175.55 854.81 175.737 854.627C175.925 854.444 176.147 854.299 176.39 854.202C176.634 854.104 176.894 854.056 177.156 854.059C177.419 854.062 177.678 854.117 177.919 854.221L180.32 855.214" stroke="#BAC8CF" stroke-linecap="round" stroke-linejoin="round"/>
<path d="M229.54 -139.608C203.624 -132.044 181.7 -110.594 174.901 -84.3305C170.301 -66.8464 171.562 -47.025 160.871 -32.4395C154.431 -23.7066 144.698 -18.2129 136.592 -11.0536C114.908 8.07774 106.168 40.5984 115.34 68.0302C120.934 84.769 132.36 99.1427 137.476 116.029C141.827 130.384 141.321 145.338 138.524 160.199" stroke="#BAC8CF" stroke-miterlimit="10"/>
<path d="M117.53 227.266C109.683 249.581 102.083 271.951 96.8118 294.985C88.9182 329.493 86.4618 366.081 96.5726 400.009C106.803 434.352 129.398 464.029 156.373 487.559C178.545 506.884 203.67 522.389 229.503 536.542" stroke="#BAC8CF" stroke-miterlimit="10"/>
<path d="M229.54 250.253C199.134 264.774 177.376 296.126 173.714 329.566" stroke="#BAC8CF" stroke-miterlimit="10"/>
<path d="M173.797 349.949C177.716 382.746 199.99 412.405 229.54 426.861" stroke="#BAC8CF" stroke-miterlimit="10"/>
<path d="M164.045 186.629C165.876 194.888 164.671 203.531 160.651 210.975C156.631 218.419 150.065 224.165 142.155 227.162C134.246 230.159 125.521 230.206 117.58 227.295C109.638 224.384 103.01 218.709 98.9102 211.309C94.8101 203.909 93.5118 195.279 95.2531 187C96.9943 178.721 101.659 171.347 108.392 166.226C115.125 161.106 123.477 158.583 131.918 159.119C140.36 159.655 148.326 163.214 154.358 169.145" stroke="#BAC8CF" stroke-miterlimit="10"/>
<path d="M151.8 176.092C151.8 173.979 152.427 171.914 153.6 170.157C154.774 168.4 156.442 167.031 158.394 166.222C160.346 165.413 162.493 165.202 164.565 165.614C166.637 166.026 168.54 167.044 170.034 168.538C171.528 170.032 172.545 171.936 172.957 174.008C173.369 176.081 173.158 178.228 172.35 180.181C171.541 182.133 170.172 183.801 168.416 184.975C166.659 186.149 164.594 186.776 162.481 186.776C161.078 186.777 159.689 186.502 158.392 185.965C157.096 185.429 155.918 184.642 154.926 183.649C153.934 182.657 153.147 181.479 152.611 180.182C152.074 178.885 151.799 177.496 151.8 176.092V176.092Z" stroke="#BAC8CF" stroke-miterlimit="10"/>
<path d="M71.4751 221.799C71.4751 220.265 71.93 218.765 72.7822 217.489C73.6344 216.214 74.8456 215.219 76.2628 214.632C77.6799 214.045 79.2393 213.892 80.7438 214.191C82.2482 214.49 83.6301 215.229 84.7148 216.314C85.7994 217.399 86.538 218.781 86.8373 220.286C87.1366 221.791 86.983 223.35 86.396 224.768C85.809 226.185 84.8149 227.397 83.5395 228.249C82.2641 229.101 80.7646 229.557 79.2307 229.557C78.2119 229.558 77.2028 229.358 76.2613 228.968C75.3198 228.579 74.4644 228.008 73.744 227.287C73.0236 226.567 72.4523 225.711 72.063 224.769C71.6737 223.827 71.4739 222.818 71.4751 221.799V221.799Z" stroke="#BAC8CF" stroke-miterlimit="10"/>
<path d="M163.429 339.753C163.429 337.736 164.027 335.765 165.147 334.088C166.267 332.412 167.859 331.105 169.721 330.333C171.584 329.562 173.634 329.36 175.611 329.753C177.588 330.146 179.405 331.117 180.83 332.543C182.256 333.969 183.227 335.786 183.62 337.764C184.013 339.742 183.812 341.792 183.04 343.655C182.268 345.518 180.962 347.11 179.286 348.231C177.609 349.351 175.638 349.949 173.622 349.949C170.919 349.949 168.326 348.875 166.414 346.963C164.503 345.05 163.429 342.457 163.429 339.753V339.753Z" stroke="#BAC8CF" stroke-miterlimit="10"/>
<path d="M64.4003 331.168L65.7435 334.766C65.765 334.815 65.8004 334.857 65.8453 334.886C65.8902 334.916 65.9428 334.932 65.9965 334.932C66.0502 334.932 66.1028 334.916 66.1477 334.886C66.1927 334.857 66.228 334.815 66.2495 334.766L67.6019 331.168L71.1991 329.815C71.5671 329.677 71.5671 329.447 71.1991 329.309L67.6019 327.965L66.2495 324.358C66.228 324.309 66.1927 324.267 66.1477 324.238C66.1028 324.208 66.0502 324.192 65.9965 324.192C65.9428 324.192 65.8902 324.208 65.8453 324.238C65.8004 324.267 65.765 324.309 65.7435 324.358L64.4003 327.929L60.7939 329.272C60.7447 329.294 60.7028 329.329 60.6733 329.374C60.6439 329.419 60.6282 329.472 60.6282 329.525C60.6282 329.579 60.6439 329.632 60.6733 329.676C60.7028 329.721 60.7447 329.757 60.7939 329.778L64.4003 331.168Z" stroke="#BAC8CF" stroke-miterlimit="10"/>
<path d="M177.56 547.953L178.949 551.542C178.964 551.596 178.997 551.644 179.042 551.679C179.087 551.713 179.141 551.731 179.198 551.731C179.254 551.731 179.309 551.713 179.354 551.679C179.399 551.644 179.431 551.596 179.446 551.542L180.799 547.944L184.396 546.6C184.764 546.453 184.764 546.233 184.396 546.095L180.799 544.742L179.446 541.144C179.427 541.094 179.393 541.051 179.348 541.021C179.304 540.99 179.252 540.974 179.198 540.974C179.144 540.974 179.092 540.99 179.048 541.021C179.003 541.051 178.969 541.094 178.949 541.144L177.597 544.742L174 546.095C173.947 546.112 173.901 546.146 173.868 546.192C173.835 546.237 173.818 546.292 173.818 546.348C173.818 546.403 173.835 546.458 173.868 546.503C173.901 546.549 173.947 546.583 174 546.6L177.56 547.953Z" stroke="#BAC8CF" stroke-miterlimit="10"/>
<path d="M81.613 253.492L82.441 255.7C82.4539 255.73 82.4751 255.755 82.5021 255.773C82.529 255.79 82.5606 255.8 82.5928 255.8C82.625 255.8 82.6566 255.79 82.6835 255.773C82.7105 255.755 82.7317 255.73 82.7446 255.7L83.5726 253.492L85.7806 252.664C86.0106 252.581 86.0106 252.434 85.7806 252.351L83.5726 251.523L82.7446 249.314C82.7317 249.285 82.7105 249.259 82.6835 249.242C82.6566 249.224 82.625 249.215 82.5928 249.215C82.5606 249.215 82.529 249.224 82.5021 249.242C82.4751 249.259 82.4539 249.285 82.441 249.314L81.613 251.523L79.3958 252.351C79.3633 252.362 79.3352 252.383 79.3153 252.411C79.2953 252.439 79.2846 252.473 79.2846 252.507C79.2846 252.542 79.2953 252.575 79.3153 252.603C79.3352 252.631 79.3633 252.652 79.3958 252.664L81.613 253.492Z" fill="#BAC8CF"/>
<path d="M155.857 47.6844L156.685 49.8931C156.694 49.927 156.713 49.9569 156.741 49.9785C156.768 50 156.802 50.0117 156.837 50.0117C156.872 50.0117 156.906 50 156.933 49.9785C156.961 49.9569 156.981 49.927 156.989 49.8931L157.817 47.6844L160.034 46.8563C160.255 46.7735 160.255 46.6354 160.034 46.5433L157.817 45.7152L156.989 43.5065C156.976 43.477 156.955 43.4519 156.928 43.4342C156.901 43.4165 156.869 43.4072 156.837 43.4072C156.805 43.4072 156.773 43.4165 156.746 43.4342C156.719 43.4519 156.698 43.477 156.685 43.5065L155.857 45.7152L153.649 46.5433C153.617 46.5546 153.589 46.5757 153.569 46.6038C153.549 46.6318 153.538 46.6653 153.538 46.6997C153.538 46.7341 153.549 46.7678 153.569 46.7959C153.589 46.8239 153.617 46.845 153.649 46.8563L155.857 47.6844Z" fill="#BAC8CF"/>
<path d="M139.748 227.974C139.994 226.611 139.962 225.212 139.656 223.861C139.074 221.634 138.085 219.535 136.74 217.668C135.665 215.895 134.19 214.398 132.434 213.297C129.426 211.65 125.755 212.119 122.314 211.64C116.794 210.858 111.633 207.49 106.104 208.116C103.469 208.537 100.958 209.526 98.7437 211.015" stroke="#BAC8CF" stroke-miterlimit="10"/>
<path d="M160.89 210.526C158.585 205.844 155.286 201.721 151.223 198.447C147.159 195.172 142.43 192.826 137.365 191.57C135.415 191.101 133.418 190.797 131.44 190.457C128.779 189.997 126.132 189.466 123.501 188.865C118.615 187.881 113.879 186.26 109.416 184.043C105.578 182.1 102.267 179.259 99.7649 175.761" stroke="#BAC8CF" stroke-miterlimit="10"/>
<path d="M151.892 174.794L151.441 174.739C148.654 174.481 146.029 173.314 143.971 171.417C143.063 170.348 142.089 169.337 141.054 168.39C139.058 166.871 136.399 166.678 133.906 166.448C131.413 166.218 128.726 165.776 127.015 163.954C125.932 162.628 125.212 161.042 124.927 159.353" stroke="#BAC8CF" stroke-miterlimit="10"/>
</g>
<defs>
<clipPath id="clip0">
<rect width="230" height="2277" fill="white" transform="translate(230 2277) rotate(-180)"/>
</clipPath>
</defs>
</svg>
