<svg width="230" height="2277" fill="none" xmlns="http://www.w3.org/2000/svg"><g clip-path="url(#clip0)"><path d="M182.335 2173.79l.828 2.22c.011.03.032.06.06.08.028.02.062.03.096.03.035 0 .068-.01.096-.03a.183.183 0 00.061-.08l.837-2.22 2.217-.84c.23-.08.23-.22 0-.3l-2.217-.84-.837-2.23a.183.183 0 00-.061-.08.163.163 0 00-.096-.03.165.165 0 00-.096.03.174.174 0 00-.06.08l-.828 2.23-2.226.84a.133.133 0 00-.073.06.184.184 0 00-.027.09c0 .03.01.06.027.09.018.03.043.05.073.06l2.226.84z" fill="#BAC8CF"/><path d="M149.638 2243.93c-.083-6.44 1.067-12.79 4.03-18.03 5.971-9.29 9.338-21.35 6.201-31.93-2.503-8.47-10.599-14.36-19.155-16.57-8.556-2.2-17.563-1.25-26.293 0-22.283 3.27-46.23 10.03-59.166 28.47-13.634 19.41-9.42 49.14 9.072 64 8.409 6.75 19.32 10.79 25.484 19.62 5.262 7.47 6.274 17.2 10.957 25.04 9.568 16.02 34.288 19.22 48.76 7.51 14.471-11.72 17.314-34.77 7.627-50.72-.368-.59-.727-1.21-1.086-1.84" stroke="#BAC8CF" stroke-linecap="round" stroke-linejoin="round"/><path d="M137.467 2257.22a13.345 13.345 0 0112.18-13.29c.387 0 .773-.06 1.169-.06 2.64 0 5.221.79 7.416 2.25a13.38 13.38 0 014.917 6c1.01 2.43 1.275 5.12.76 7.71a13.381 13.381 0 01-3.654 6.84 13.356 13.356 0 01-14.548 2.89 13.326 13.326 0 01-5.991-4.92 13.33 13.33 0 01-2.249-7.42v0zM95.386 2181.25a37.44 37.44 0 0111.93 11.04 37.536 37.536 0 016.138 15.05 37.521 37.521 0 01-8.409 30.61 37.575 37.575 0 01-12.967 9.8 37.408 37.408 0 01-15.895 3.39 37.434 37.434 0 01-15.836-3.66 37.504 37.504 0 01-12.8-10.01" stroke="#BAC8CF" stroke-linecap="round" stroke-linejoin="round"/><path d="M113.335 2220.32a11.607 11.607 0 00-2.76-4.09 7.505 7.505 0 00-3.376-1.88 7.554 7.554 0 00-3.864.04c-2.622.86-4.361 3.38-6.864 4.54-2.502 1.16-5.152.86-7.672 1.59a10.185 10.185 0 00-3.813 2.07c-1.11.95-2.006 2.12-2.627 3.45-1.242 2.68-1.482 6.1-3.92 7.77-2.06 1.42-4.82.92-7.36 1.12-6.145.45-11.04 5.28-14.048 10.76M103.859 2188.14a26.56 26.56 0 00-9.596.86c-7.36 2.2-13.165 8.35-20.672 9.96-4.296.92-8.924.3-13.23.81" stroke="#BAC8CF" stroke-miterlimit="10"/><path d="M119.158 1321.82c2.429-42.09 6.772-83.64 28.732-118.82 17.48-27.95 50.066-50.76 81.65-60.11M229.54 2024.94c-16.496-28.05-35.724-54.9-54.952-80.83-47.738-64.42-98.679-130.74-113.27-209.56-21.73-117.46 41.575-232.91 53.857-351.73.129-1.18.248-2.38.359-3.58M175.269 1670.53c-8.399-35.51-8.031-73.08 2.65-107.91 10.423-34.04 29.946-64.19 51.621-92.63M229.54 1772.89a244.677 244.677 0 01-42.164-65.7 214.345 214.345 0 01-4.517-11.35" stroke="#BAC8CF" stroke-linecap="round" stroke-linejoin="round"/><path d="M89.102 1350.58c0-5.69 1.687-11.25 4.847-15.98a28.794 28.794 0 0112.907-10.6 28.73 28.73 0 0131.341 6.24 28.77 28.77 0 016.234 31.35 28.838 28.838 0 01-10.592 12.91 28.753 28.753 0 01-15.978 4.84 28.67 28.67 0 01-11.005-2.19 28.744 28.744 0 01-17.754-26.57v0zM165.794 1683.23a13.19 13.19 0 0115.766-12.94c2.559.5 4.91 1.76 6.755 3.61a13.156 13.156 0 013.611 6.75 13.203 13.203 0 01-5.61 13.55 13.204 13.204 0 01-16.658-1.64 13.205 13.205 0 01-3.864-9.33v0z" stroke="#BAC8CF" stroke-miterlimit="10"/><path d="M147.2 1511.01c.67-.32 1.398-.51 2.14-.55.743-.04 1.486.07 2.188.31a5.676 5.676 0 013.225 2.9l3.91 8.17a5.669 5.669 0 01-.895 6.23 5.692 5.692 0 01-3.908 1.87 5.61 5.61 0 01-2.186-.32 5.647 5.647 0 01-1.899-1.13 5.562 5.562 0 01-1.324-1.76l-3.91-8.18a5.65 5.65 0 01-.232-4.32 5.671 5.671 0 012.891-3.22v0zM145.958 1508.41l-2.097-4.37" stroke="#BAC8CF" stroke-linecap="round" stroke-linejoin="round"/><path d="M158.065 1514.67l-1.15-2.39a8.185 8.185 0 00-4.681-4.2 8.197 8.197 0 00-6.28.34 8.213 8.213 0 00-3.86 10.96l1.141 2.4M140.309 1505.73l7.302-3.5-1.069-2.23-7.301 3.5 1.068 2.23zM147.596 1524.95l2.696-1.3M146.354 1522.36l2.705-1.28M145.121 1519.79l2.695-1.3M155.113 1521.35l2.695-1.3M153.87 1518.77l2.695-1.29M152.637 1516.19l2.696-1.3" stroke="#BAC8CF" stroke-linecap="round" stroke-linejoin="round"/><path d="M77.73 1933.66l1.353 3.59c.02.05.054.1.098.13.045.03.097.04.15.04.054 0 .107-.01.151-.04a.284.284 0 00.098-.13l1.353-3.59 3.597-1.36c.368-.13.368-.36 0-.49l-3.597-1.36-1.353-3.59a.284.284 0 00-.098-.13.263.263 0 00-.15-.04.263.263 0 00-.15.04.283.283 0 00-.099.13l-1.352 3.59-3.597 1.36a.284.284 0 00-.123.09.29.29 0 00-.047.15c0 .06.016.11.047.16.03.04.073.07.123.09l3.597 1.36z" stroke="#BAC8CF" stroke-miterlimit="10"/><path d="M116.84 1680.89l.828 2.23c.012.03.033.06.061.08.028.02.061.03.096.03.034 0 .068-.01.096-.03a.174.174 0 00.06-.08l.837-2.23 2.218-.83c.23-.08.23-.23 0-.31l-2.218-.83-.837-2.23a.174.174 0 00-.06-.08.165.165 0 00-.096-.03.163.163 0 00-.096.03.183.183 0 00-.061.08l-.828 2.23-2.226.83a.147.147 0 00-.081.06c-.02.03-.03.06-.03.1 0 .03.01.06.03.09.02.03.048.05.081.06l2.226.83zM77.013 1390.26l.837 2.22c.013.03.035.06.062.08.027.01.058.02.09.02.033 0 .064-.01.091-.02a.199.199 0 00.061-.08l.837-2.22 2.227-.83c.22-.08.22-.23 0-.31l-2.227-.83-.837-2.23a.151.151 0 00-.055-.08.124.124 0 00-.097-.04.125.125 0 00-.096.04.151.151 0 00-.056.08l-.837 2.23-2.217.83a.147.147 0 00-.08.06.163.163 0 000 .19c.02.03.048.05.08.06l2.217.83zM153.705 1147.32l.828 2.23c.011.03.032.06.06.08.028.02.062.03.096.03s.068-.01.096-.03a.174.174 0 00.06-.08l.828-2.23 2.227-.84c.23-.08.23-.22 0-.3l-2.227-.84-.828-2.23a.174.174 0 00-.06-.08.165.165 0 00-.096-.03.165.165 0 00-.096.03.174.174 0 00-.06.08l-.828 2.23-2.227.84a.131.131 0 00-.072.06.174.174 0 00-.027.09c0 .03.009.06.027.09.017.03.043.05.072.06l2.227.84z" fill="#BAC8CF"/><path d="M149.96 1710.37l1.353 3.6c.015.06.047.11.092.14.045.03.1.05.156.05.057 0 .111-.02.156-.05a.234.234 0 00.093-.14l1.352-3.6 3.597-1.35c.368-.13.368-.36 0-.5l-3.597-1.35-1.352-3.6a.258.258 0 00-.099-.12.27.27 0 00-.15-.05.272.272 0 00-.15.05.25.25 0 00-.098.12l-1.353 3.6-3.597 1.35a.303.303 0 00-.123.1c-.03.05-.046.1-.046.15 0 .06.016.11.046.15.03.05.073.08.123.1l3.597 1.35zM188.858 1233.53l1.352 3.58c.02.04.054.09.098.12.045.03.097.04.151.04.053 0 .106-.01.15-.04a.325.325 0 00.098-.12l1.352-3.6 3.598-1.36c.368-.13.368-.35 0-.49l-3.598-1.36-1.352-3.59a.289.289 0 00-.098-.13.262.262 0 00-.15-.04.266.266 0 00-.151.04.289.289 0 00-.098.13l-1.352 3.59-3.597 1.36a.24.24 0 00-.123.1.238.238 0 00-.047.15c0 .05.016.1.047.15.03.04.073.07.123.09l3.597 1.38z" stroke="#BAC8CF" stroke-miterlimit="10"/><path d="M140.76 1367.97a4.366 4.366 0 00-1.557-1.91 4.367 4.367 0 00-2.344-.76c-.96.1-1.907.31-2.824.61-1.235.25-2.493.37-3.754.36-1.278 0-2.76 0-3.523-1.05-.764-1.05-.368-2.59-.819-3.82a3.839 3.839 0 00-2.3-2.11 5.716 5.716 0 00-3.993 0c-.92.33-1.693.92-2.567 1.27-.683.35-1.438.54-2.206.55a5.006 5.006 0 01-2.219-.49 11.95 11.95 0 01-1.693-1.36 6.267 6.267 0 00-3.624-1.54c-.669-.05-1.34.07-1.955.33-.615.27-1.156.68-1.578 1.21-1.049 1.42-.92 3.51-2.125 4.82-.481.47-1.081.81-1.737.97-.656.16-1.343.14-1.99-.05-.92-.25-1.674-.77-2.548-1.06a2.678 2.678 0 00-1.34-.2c-.456.06-.891.22-1.263.49M146.52 1352.92c-1.842.2-3.702.12-5.52-.23a10.57 10.57 0 01-6.597-4.03 26.66 26.66 0 00-1.656-2.47c-2.042-2.32-5.621-2.34-8.666-1.79-3.045.56-6.219 1.49-9.127.45-1.002-.35-1.922-.92-2.907-1.32a8.64 8.64 0 00-6.569.12c-1.766.78-3.45 2.19-5.363 1.92-1.28-.17-2.401-1.11-3.68-1.07-.855.12-1.688.37-2.475.72a5.66 5.66 0 01-4.306-.41M136.85 1328.99a21.53 21.53 0 01-9.568.76c-2.493-.44-4.867-1.51-7.36-1.72-2.318-.19-4.674.34-6.964-.1a10.154 10.154 0 01-6.008-3.96M123.933 928.022a78.623 78.623 0 01-14.885-7.499c-26.634-17.485-37.021-52.563-34.105-84.283a138.147 138.147 0 0153.047-95.86 138.238 138.238 0 01101.55-26.612M229.54 983.069c-12.006-17.613-29.201-31.72-49.137-39.302a168.903 168.903 0 00-20.673-6.092" stroke="#BAC8CF" stroke-linecap="round" stroke-linejoin="round"/><path d="M229.54 754.837a697.86 697.86 0 00-19.265-1.574c-5.906-.395-11.96-.708-17.682.608-8.749 2.006-16.238 7.61-22.706 13.803-5.649 5.429-10.847 11.622-13.487 18.993-2.64 7.371-2.364 16.141 2.245 22.472 5.952 8.162 17.314 10.316 27.379 9.497 10.065-.819 19.946-3.939 30.038-3.681 4.598.129 9.146.983 13.478 2.531M136.161 681.505c-2.484 6.367-9.936 10.518-16.754 11.042-8.767.635-15.75-8.917-15.088-17.686.663-8.77 6.808-16.205 13.745-21.616 12.025-9.377 27.002-14.466 42.136-16.214 6.569-.764 13.414-.92 19.55 1.546 6.137 2.466 11.417 7.959 11.896 14.548.478 6.589-5.226 13.454-11.795 12.782-14.6-1.914-39.854 5.834-43.69 15.598z" stroke="#BAC8CF" stroke-linecap="round" stroke-linejoin="round"/><path d="M142.306 821.259l.837 2.226c.013.03.034.055.061.073a.17.17 0 00.091.027.17.17 0 00.09-.027.16.16 0 00.061-.073l.838-2.226 2.217-.838c.23-.083.23-.221 0-.303l-2.217-.838-.838-2.218a.15.15 0 00-.055-.085.156.156 0 00-.248.085l-.837 2.218-2.227.838a.161.161 0 00-.099.151.164.164 0 00.099.152l2.227.838zM142.306 657.202l.837 2.217a.159.159 0 00.055.086.16.16 0 00.193 0 .153.153 0 00.055-.086l.838-2.217 2.217-.838c.23-.083.23-.221 0-.304l-2.217-.837-.838-2.227a.153.153 0 00-.061-.072.162.162 0 00-.181 0 .16.16 0 00-.061.072l-.837 2.227-2.227.837a.173.173 0 00-.072.062.161.161 0 00-.027.09c0 .033.009.064.027.091a.17.17 0 00.072.061l2.227.838z" fill="#BAC8CF"/><path d="M172.693 961.96l1.353 3.607a.265.265 0 00.398.123.258.258 0 00.098-.123l1.353-3.607 3.597-1.344c.368-.138.368-.368 0-.506l-3.597-1.344-1.353-3.607a.265.265 0 00-.398-.123.258.258 0 00-.098.123l-1.353 3.607-3.597 1.353a.278.278 0 00-.121.405c.03.045.072.08.121.101l3.597 1.335zM108.082 717.991l1.352 3.598c.02.05.054.093.098.124a.271.271 0 00.301 0 .271.271 0 00.098-.124l1.353-3.598 3.597-1.352c.368-.139.368-.359 0-.497l-3.597-1.353-1.353-3.598a.269.269 0 00-.248-.17.272.272 0 00-.249.17l-1.352 3.598-3.597 1.353a.258.258 0 00-.123.098.264.264 0 000 .301.27.27 0 00.123.098l3.597 1.352zM132.499 917.573c-8.968 4.972-12.208 16.275-7.237 25.245 4.971 8.97 16.271 12.211 25.238 7.239 8.968-4.973 12.209-16.275 7.238-25.245-4.971-8.97-16.271-12.211-25.239-7.239zM147.614 639.285a11.68 11.68 0 00-.202 2.144 11.483 11.483 0 004.312 8.932 11.465 11.465 0 0014.254.052 11.476 11.476 0 003.302-13.871" stroke="#BAC8CF" stroke-miterlimit="10"/><path d="M173.972 870.067l6.799-15.957a2.94 2.94 0 012.739-1.791c.387.004.769.084 1.125.236l11.684 4.978a2.953 2.953 0 011.555 3.865l-6.799 15.957" stroke="#BAC8CF" stroke-linecap="round" stroke-linejoin="round"/><path d="M173.972 870.066c.617-1.453 4.95-.993 9.669 1.013 4.72 2.006 8.05 4.822 7.434 6.276-.616 1.454-4.95 1.003-9.669-1.013-4.72-2.015-8.05-4.822-7.434-6.276zM186.659 872.579l1.776-4.169M190.159 868.974l1.927-4.52-3.343-1.426-1.927 4.52 3.343 1.426zM175.6 866.257l-2.383-1.012a1.997 1.997 0 01-1.067-1.089 1.997 1.997 0 01.019-1.524l3.128-7.362a2.001 2.001 0 011.093-1.068 1.992 1.992 0 011.529.019l2.401.993" stroke="#BAC8CF" stroke-linecap="round" stroke-linejoin="round"/><path d="M229.54-139.608c-25.916 7.564-47.84 29.014-54.639 55.278-4.6 17.484-3.339 37.305-14.03 51.89-6.44 8.733-16.173 14.227-24.279 21.386-21.684 19.132-30.424 51.652-21.252 79.084 5.594 16.739 17.02 31.113 22.136 47.999 4.351 14.355 3.845 29.309 1.048 44.17M117.53 227.266c-7.847 22.315-15.447 44.685-20.718 67.719-7.894 34.508-10.35 71.096-.24 105.024 10.231 34.343 32.826 64.02 59.801 87.55 22.172 19.325 47.297 34.83 73.13 48.983M229.54 250.253c-30.406 14.521-52.164 45.873-55.826 79.313M173.797 349.949c3.919 32.797 26.193 62.456 55.743 76.912" stroke="#BAC8CF" stroke-miterlimit="10"/><path d="M164.045 186.629a35.203 35.203 0 01-21.89 40.533 35.182 35.182 0 01-43.245-15.853 35.208 35.208 0 019.482-45.083 35.183 35.183 0 0145.966 2.919" stroke="#BAC8CF" stroke-miterlimit="10"/><path d="M151.8 176.092a10.69 10.69 0 016.594-9.87 10.677 10.677 0 0111.64 2.316 10.682 10.682 0 012.316 11.643 10.69 10.69 0 01-9.869 6.595 10.667 10.667 0 01-9.87-6.594 10.668 10.668 0 01-.811-4.09v0zM71.475 221.799a7.76 7.76 0 014.788-7.167 7.758 7.758 0 11-4.788 7.167v0zM163.429 339.753a10.2 10.2 0 016.292-9.42 10.187 10.187 0 0113.899 7.431 10.197 10.197 0 01-9.998 12.185 10.194 10.194 0 01-10.193-10.196v0zM64.4 331.168l1.343 3.598a.274.274 0 00.102.12.272.272 0 00.303 0 .273.273 0 00.102-.12l1.352-3.598 3.597-1.353c.368-.138.368-.368 0-.506l-3.597-1.344-1.353-3.607a.273.273 0 00-.101-.12.272.272 0 00-.303 0 .274.274 0 00-.102.12l-1.343 3.571-3.606 1.343a.28.28 0 00-.166.253.273.273 0 00.166.253l3.606 1.39zM177.56 547.953l1.389 3.589a.257.257 0 00.249.189.259.259 0 00.156-.052.262.262 0 00.092-.137l1.353-3.598 3.597-1.344c.368-.147.368-.367 0-.505l-3.597-1.353-1.353-3.598a.258.258 0 00-.098-.123.259.259 0 00-.15-.047.259.259 0 00-.15.047.266.266 0 00-.099.123l-1.352 3.598-3.597 1.353a.264.264 0 00-.132.408.26.26 0 00.132.097l3.56 1.353z" stroke="#BAC8CF" stroke-miterlimit="10"/><path d="M81.613 253.492l.828 2.208a.167.167 0 00.152.1.167.167 0 00.152-.1l.828-2.208 2.208-.828c.23-.083.23-.23 0-.313l-2.208-.828-.828-2.209a.164.164 0 00-.152-.099.164.164 0 00-.152.099l-.828 2.209-2.217.828a.163.163 0 00-.111.156c0 .035.01.068.03.096a.17.17 0 00.08.061l2.218.828zM155.857 47.684l.828 2.21a.158.158 0 00.152.118.154.154 0 00.096-.034.153.153 0 00.056-.085l.828-2.209 2.217-.828c.221-.083.221-.22 0-.313l-2.217-.828-.828-2.209a.166.166 0 00-.304 0l-.828 2.21-2.208.827a.166.166 0 000 .313l2.208.828z" fill="#BAC8CF"/><path d="M139.748 227.974a10.322 10.322 0 00-.092-4.113 18.671 18.671 0 00-2.916-6.193 13.296 13.296 0 00-4.306-4.371c-3.008-1.647-6.679-1.178-10.12-1.657-5.52-.782-10.681-4.15-16.21-3.524a18.387 18.387 0 00-7.36 2.899M160.89 210.526a35.824 35.824 0 00-23.525-18.956c-1.95-.469-3.947-.773-5.925-1.113-2.661-.46-5.308-.991-7.939-1.592a56.92 56.92 0 01-14.085-4.822 26.682 26.682 0 01-9.651-8.282M151.892 174.794l-.451-.055a12.756 12.756 0 01-7.47-3.322 33.482 33.482 0 00-2.917-3.027c-1.996-1.519-4.655-1.712-7.148-1.942-2.493-.23-5.18-.672-6.891-2.494a9.871 9.871 0 01-2.088-4.601" stroke="#BAC8CF" stroke-miterlimit="10"/></g><defs><clipPath id="clip0"><path fill="#fff" transform="rotate(-180 115 1138.5)" d="M0 0h230v2277H0z"/></clipPath></defs></svg>