<svg width="20" height="16" viewBox="0 0 20 16" fill="none" xmlns="http://www.w3.org/2000/svg">
<g clip-path="url(#clip0)">
<path d="M8.54894 0.927052C8.8483 0.0057416 10.1517 0.00573945 10.4511 0.92705L11.6329 4.56434C11.7668 4.97636 12.1507 5.25532 12.5839 5.25532H16.4084C17.3771 5.25532 17.7799 6.49494 16.9962 7.06434L13.9021 9.31231C13.5516 9.56695 13.405 10.0183 13.5389 10.4303L14.7207 14.0676C15.02 14.9889 13.9656 15.7551 13.1818 15.1857L10.0878 12.9377C9.7373 12.6831 9.2627 12.6831 8.91222 12.9377L5.81815 15.1857C5.03444 15.7551 3.97996 14.9889 4.27931 14.0676L5.46114 10.4303C5.59501 10.0183 5.44835 9.56695 5.09787 9.31231L2.00381 7.06434C1.22009 6.49494 1.62287 5.25532 2.59159 5.25532H6.41606C6.84929 5.25532 7.23324 4.97636 7.36712 4.56434L8.54894 0.927052Z" fill="#0D6DD8"/>
</g>
<defs>
<clipPath id="clip0">
<rect width="20" height="16" fill="white"/>
</clipPath>
</defs>
</svg>
