<svg width="375" height="625" fill="none" xmlns="http://www.w3.org/2000/svg"><g opacity=".33" clip-path="url(#clip0)" fill="#BAC8CF"><path d="M92.69 252.7c.89-1.69 1.09-3.73.37-5.65l-.83-2.2a6.869 6.869 0 00-3.6-3.83 6.84 6.84 0 00-2.16-.57c-4.27-4.28-10.43-5.74-15.76-3.73-5.8 2.2-9.32 7.92-9.36 14.15l-2.65 1a3.804 3.804 0 00-2.2 4.91l6.24 16.46c.36.95 1.07 1.71 1.99 2.13.5.23 1.03.34 1.57.34.45 0 .91-.08 1.34-.25l1.58-.6 2.16 5.71a3.94 3.94 0 001.9 2.13c.51.25 1.05.38 1.59.38.41 0 .82-.07 1.21-.22l3.21-1.22a3.51 3.51 0 002-1.98c.36-.9.37-1.92.02-2.86l-1.81-4.77c-.16-.43-.16-.89 0-1.29.15-.38.43-.66.78-.79l5.26-1.99c.35-.13.75-.11 1.11.07.39.19.69.54.86.97l1.81 4.77c.74 1.96 2.86 2.99 4.71 2.29l3.21-1.22c1.85-.7 2.76-2.87 2.01-4.83l-6.56-17.31zm-6.89-10.29c.68 0 1.36.14 2 .43 1.19.53 2.09 1.5 2.55 2.71l.83 2.2c.95 2.51-.32 5.33-2.83 6.28l-6.47 2.45c-1.22.46-2.54.42-3.72-.11a4.814 4.814 0 01-2.55-2.71l-.83-2.2c-.46-1.22-.42-2.54.11-3.72.53-1.19 1.5-2.09 2.71-2.55l6.47-2.45a4.58 4.58 0 011.73-.33zm-18.87 31.18c-.45.17-.94.15-1.38-.04-.44-.2-.78-.56-.95-1.01l-6.23-16.47c-.35-.94.11-1.98 1.04-2.33l2.07-.78c.16 1.34.47 2.7.98 4.04l6.06 15.99-1.59.6zm29.6-.61l-3.21 1.22c-.82.31-1.78-.19-2.13-1.13l-1.81-4.77c-.34-.9-.99-1.63-1.83-2.05-.87-.43-1.83-.49-2.71-.15l-5.26 1.99c-.88.33-1.56 1.01-1.93 1.91-.35.87-.36 1.85-.01 2.75l1.81 4.77c.18.47.18.96 0 1.4a1.5 1.5 0 01-.85.86L75.39 281c-.38.15-.81.12-1.21-.08-.42-.21-.75-.58-.93-1.05l-2.52-6.64-6.4-16.94c-.57-1.51-.87-3.06-.95-4.58.03-.15.03-.3-.02-.46-.11-5.57 2.94-10.73 8.05-12.67 4.08-1.55 8.76-.7 12.36 2.14-.14.04-.27.08-.41.13l-6.47 2.45a6.872 6.872 0 00-3.99 8.85l.83 2.2a6.838 6.838 0 003.6 3.83c.9.41 1.86.61 2.82.61.82 0 1.64-.15 2.44-.45l6.47-2.45a6.89 6.89 0 002.19-1.35l6.13 16.17c.35.94-.03 1.96-.85 2.27zM143.1 325.44c-1.51-.07-2.43-.67-2.88-1.9-.11-.29-.34-.52-.63-.61-.29-.09-.61-.05-.87.13-1.17.8-2.28.86-3.5.19-.48-.27-1.09-.09-1.36.39s-.09 1.09.39 1.36c1.53.85 3.11.93 4.61.27.69 1.08 1.93 2.07 4.15 2.18h.05c.53 0 .97-.42 1-.95.02-.57-.41-1.03-.96-1.06z"/><path d="M162.81 322.93c0-.55-.45-.99-1-.99h-.01l-2.86.02-.64-13.96c-.04-.85-.49-1.61-1.21-2.02-.69-.4-1.53-.4-2.25-.02l-5.78 3.07c-2.21-1.87-7.61-3.37-10.46-2.92l-3.36-5.62c-.42-.7-1.14-1.13-1.94-1.15-.85-.03-1.6.39-2.08 1.1L123.49 312l-2.22-1.37c-.47-.29-1.09-.14-1.38.33-.29.47-.14 1.09.33 1.38l2.16 1.33-1.25 1.88-2.18-.92a1 1 0 00-.78 1.84l1.93.81c-1.63 3.45-.96 7.6 1.78 10.09 3.44 3.13 8.29 5.58 14.4 7.29 4.01 1.12 7.71 1.68 11.08 1.68 1.77 0 3.44-.15 5.02-.46 3.63-.72 6.34-3.9 6.74-7.68l2.33.34a1 1 0 10.29-1.98l-2.59-.38-.1-2.22 2.79-.02c.53-.01.97-.46.97-1.01zm-10.83 10.99c-4.26.84-9.36.44-15.17-1.18-5.81-1.62-10.38-3.92-13.59-6.84-2.3-2.1-2.65-5.92-.79-8.7l10.45-15.64c.13-.19.29-.21.36-.21h.01c.12 0 .21.06.27.17l3.74 6.26c.25.42.78.6 1.24.41 1.85-.76 8.38 1.06 9.56 2.67.29.4.83.52 1.27.29l6.44-3.42c.12-.06.22-.06.32-.01.06.03.19.13.2.37l.86 18.79c.16 3.34-2.11 6.43-5.17 7.04zM24.11 289.65l-3.05-1.22c-.46-.19-.99-.16-1.45.07-.43.21-.76.58-.95 1.04l-.24.61c-.04.1-.11.14-.12.14l-13.8-5.51a.228.228 0 010-.19l.24-.61c.39-.98-.05-2.08-.98-2.45l-3.05-1.22c-2.64-1.06-5.76-.04-7.62 2.52l-9.15 14.35c-1.32 1.82-1.44 4.16-.3 5.97.99 1.57 2.73 2.33 4.55 1.99l7.42-1.38c1.36-.25 2.73-.12 3.97.37l8.94 3.57c1.24.5 2.33 1.35 3.14 2.47l4.43 6.11c.86 1.18 2.15 1.83 3.54 1.83.37 0 .75-.05 1.13-.14 2.06-.52 3.59-2.29 3.89-4.5l3.26-16.8c.41-3.08-1.15-5.96-3.8-7.02zm1.83 6.69l-3.25 16.77c0 .02-.01.04-.01.06-.23 1.72-1.44 2.61-2.4 2.86-1.01.26-1.95-.08-2.56-.93l-4.44-6.1a9.215 9.215 0 00-4.01-3.15l-8.94-3.57a9.11 9.11 0 00-3.35-.64c-.57 0-1.15.05-1.72.16l-7.42 1.38c-1.03.19-1.94-.21-2.5-1.09-.53-.84-.79-2.33.26-3.78l9.15-14.35c1.28-1.77 3.43-2.5 5.23-1.79l2.88 1.15-.21.53a2.21 2.21 0 00-.03 1.6c.2.54.61.97 1.13 1.18l13.82 5.52c.52.21 1.12.18 1.64-.08.49-.24.87-.66 1.08-1.18l.21-.53 2.88 1.15c1.78.72 2.84 2.73 2.56 4.83z"/><path d="M14.26 299.68c-1.72-.69-3.68.16-4.37 1.89-.33.84-.32 1.75.03 2.58.35.83 1.01 1.47 1.84 1.8.4.16.82.24 1.24.24.45 0 .9-.09 1.33-.28.82-.36 1.46-1.01 1.79-1.85.69-1.73-.15-3.69-1.86-4.38zm.01 3.64a1.376 1.376 0 01-1.77.77c-.34-.13-.6-.39-.74-.73-.14-.34-.15-.71-.01-1.05.21-.54.73-.87 1.27-.87.17 0 .33.03.5.1.69.28 1.03 1.08.75 1.78zM.96 294.38c-1.72-.69-3.68.16-4.37 1.89-.33.83-.32 1.75.03 2.58.35.83 1.01 1.47 1.84 1.8.41.16.82.24 1.24.24 1.34 0 2.6-.81 3.13-2.12.68-1.75-.16-3.71-1.87-4.39zm.01 3.63c-.28.7-1.07 1.05-1.77.77-.34-.13-.6-.39-.74-.73-.14-.34-.15-.71-.01-1.05a1.359 1.359 0 011.77-.76c.69.27 1.03 1.07.75 1.77zM202.69 248.37c.84-.83 1.14-2.04.77-3.16a3.056 3.056 0 00-2.47-2.09l-8.13-1.19c-.35-.05-.65-.27-.8-.59l-3.64-7.41a3.043 3.043 0 00-2.75-1.72c-1.18 0-2.23.66-2.75 1.72l-3.64 7.41c-.16.32-.46.54-.8.59l-8.13 1.19c-1.16.17-2.11.97-2.47 2.09-.37 1.12-.07 2.33.77 3.16l5.89 5.77c.25.25.37.61.31.96l-1.39 8.14c-.2 1.17.27 2.32 1.23 3.01.95.69 2.19.77 3.22.23l7.27-3.85c.31-.16.68-.17.99 0l7.28 3.85a3.034 3.034 0 003.22-.22 3.05 3.05 0 001.23-3.01l-1.39-8.15c-.06-.35.06-.71.31-.96l5.87-5.77zm-8.16 7.06l1.39 8.14c.07.42-.09.81-.43 1.06-.33.24-.75.27-1.11.08l-7.28-3.85c-.45-.24-.94-.35-1.43-.35s-.98.12-1.43.35l-7.27 3.85c-.36.19-.78.16-1.12-.08-.34-.25-.5-.64-.43-1.06l1.39-8.14c.17-1-.16-2.01-.88-2.72l-5.89-5.77c-.3-.29-.4-.71-.27-1.11.13-.4.45-.67.86-.73l8.13-1.19c1-.15 1.86-.78 2.31-1.68l3.64-7.41c.37-.75 1.54-.75 1.91 0l3.64 7.41c.45.91 1.31 1.54 2.31 1.68l8.13 1.19c.41.06.73.33.86.73.13.4.03.82-.27 1.11l-5.89 5.77c-.71.71-1.04 1.72-.87 2.72zM81.63 376.36l-5.74-1.92c-.05-.02-.1-.01-.15-.02-.07-.01-.13-.03-.2-.02-.06 0-.12.02-.18.03-.07.01-.13.03-.19.05-.06.02-.1.06-.15.1-.05.04-.11.07-.16.12-.05.05-.08.11-.11.16-.03.04-.07.08-.09.12-.3.68-.73 1.29-1.26 1.81-.16.16-.33.29-.5.42.35-1.7.43-3.42.25-5.13l4.86-14.5c.43-1.3.34-2.69-.27-3.92a5.073 5.073 0 00-2.95-2.58l-2.29-.77c-.08-.97-.72-1.84-1.69-2.16l-10.06-3.37a2.49 2.49 0 00-2.65.71l-2.29-.77a5.113 5.113 0 00-3.91.28 5.145 5.145 0 00-2.58 2.97l-4.86 14.52a16.76 16.76 0 00-3.66 6.11c-.04.13-.08.26-.12.4-.02.04-.04.08-.05.12l-3.11 9.28c-.08.25-.06.53.05.76.11.23.33.42.58.5l29.7 9.95c.11.04.21.05.32.05.42 0 .81-.26.95-.68l1.21-3.63c.25.03.49.06.74.06.42 0 .85-.05 1.27-.15 1.47-.34 2.38-1.18 3.19-1.92.54-.49.78-.81 1.09-1.22.29-.38.65-.85 1.43-1.71.96-1.06 1.31-1.34 1.74-1.58.5-.27 1.07-.45 1.67-.53.46-.06.83-.43.87-.89.03-.47-.25-.9-.7-1.05zm-22.17-29.37c.06-.17.19-.26.26-.3.05-.02.13-.05.23-.05.05 0 .1.01.15.03l10.06 3.37c.23.08.36.32.32.58-.01.02-.03.03-.03.06-.01.02 0 .04-.01.06-.06.13-.16.21-.22.24-.07.04-.21.09-.38.03l-10.06-3.37a.513.513 0 01-.32-.65zm-8.26 1.6c.27-.79.83-1.44 1.58-1.81.75-.38 1.6-.44 2.38-.18l2.29.77c.03.31.11.61.25.9.3.6.81 1.05 1.44 1.26l10.06 3.37a2.465 2.465 0 001.91-.14c.28-.14.53-.34.74-.57l2.29.77c.79.26 1.42.82 1.8 1.57.37.75.43 1.61.17 2.4L72.3 368.3c-.23-.65-.48-1.29-.79-1.91-1.5-3.04-3.84-5.48-6.72-7.11.59-.46 1.03-1.08 1.27-1.8.32-.96.25-1.99-.2-2.9a3.755 3.755 0 00-2.19-1.91c-.96-.32-1.99-.25-2.9.21-.91.45-1.58 1.24-1.91 2.2-.24.73-.26 1.49-.07 2.21-4.08-.54-8.12.48-11.43 2.68l3.84-11.38zm12.97 8.26a1.812 1.812 0 01-2.28 1.15 1.76 1.76 0 01-1.03-.9c-.21-.43-.25-.92-.09-1.38a1.814 1.814 0 011.71-1.24 1.76 1.76 0 011.6.99c.21.43.25.92.09 1.38zm6.32 21.68l-.17.48c-.02.06-.04.13-.05.19l-2.74 8.18-27.81-9.32 2.74-8.18a.67.67 0 00.07-.18l.03-.11c.04-.13.08-.26.12-.38 2.58-7.71 10.93-11.89 18.59-9.33 3.71 1.24 6.72 3.87 8.46 7.39a14.73 14.73 0 01.76 11.26zm6.05.54c-.83.92-1.24 1.45-1.53 1.84-.29.38-.45.59-.86.96-.69.63-1.33 1.22-2.29 1.44-.3.07-.6.1-.9.09l1.18-3.53c.98-.37 1.89-.92 2.64-1.65.5-.48.92-1.03 1.28-1.62l2.27.76c-.5.35-1 .83-1.79 1.71zM167.68 388.89c-.62-.31-1.24-.61-1.87-.92.23-.48.46-.95.69-1.43.64-1.33.87-2.69.21-4.07-.8-1.65-2.67-2.54-4.46-2.2-1.42.27-2.41 1.26-3.02 2.52-.23.48-.47.97-.7 1.45-4.29-4.84-10.57-7.82-17.13-6.19-6.39 1.59-11.99 6.5-14.44 12.59-1.29 3.21-1.59 6.78-.66 10.13.14.5.72.88 1.23.7.45-.16.9-.31 1.35-.47 1.12 2.5 2.72 4.76 4.9 6.46 2.39 1.85 5.26 2.87 8.26 3.1 3.35.25 7.02-.44 10.07-1.86 2.88-1.34 5.16-3.83 6.87-6.45 1.36-2.09 2.56-4.52 3.03-7.03.39.19.78.38 1.18.58 1.14.56 2.21 1.04 3.52.8 1.86-.35 3.21-2.02 3.28-3.89.07-1.61-.89-3.1-2.31-3.82zm-31.81 17.62c-2.28-1.48-3.98-3.7-5.1-6.15 1.69-.58 3.06-1.35 3.74-3.1.2-.5-.22-1.1-.7-1.23-.57-.16-1.03.19-1.23.7-.45 1.15-1.68 1.47-2.74 1.84-.62.21-1.23.43-1.85.64-.98-5.12 1.29-10.33 4.91-13.97a20.38 20.38 0 014.85-3.6c6.54 5.08 11.33 18.93 9.18 26.6-1.15.23-2.31.37-3.48.38-2.68.01-5.32-.65-7.58-2.11zm30.37-11.85c-.81.12-1.49-.32-2.19-.66-.78-.38-1.55-.76-2.33-1.14-.7-.34-1.46.08-1.5.86-.03.49-.08.78-.2 1.32-.13.55-.29 1.1-.47 1.63-.43 1.23-.99 2.41-1.64 3.53-1.4 2.42-3.27 4.71-5.68 6.17-.97.59-2.02.99-3.1 1.31 1.6-8.25-2.9-21.25-9.36-26.99.19-.08.38-.16.57-.23 3.15-1.13 6.48-1.16 9.62 0 3.15 1.17 5.91 3.44 7.94 6.09.41.54 1.36.75 1.73 0 .43-.89.87-1.79 1.3-2.68.18-.38.35-.78.65-1.08.54-.54 1.34-.74 2.07-.52 1.33.41 1.78 1.86 1.23 3.05-.41.87-.84 1.73-1.26 2.6-.22.46-.16 1.12.36 1.37.67.33 1.35.66 2.02.99.79.39 1.58.72 1.89 1.63.41 1.21-.39 2.55-1.65 2.75z"/><path d="M138.14 389.79c-.47-.29-1.08-.15-1.38.31-.64 1.01-3.13 1.87-4.22 1.47-.51-.19-1.09.07-1.29.59-.19.52.07 1.09.59 1.29.4.15.86.22 1.35.22 1.94 0 4.36-1.06 5.26-2.49.3-.48.16-1.1-.31-1.39zM345.99 378.75c.82-1.92.67-4.13-.45-5.95-1.88-3.07-5.89-4.04-8.94-2.17a6.416 6.416 0 00-3.08 5.19 17.87 17.87 0 00-6.64 2.46 17.956 17.956 0 00-5.2 4.8 6.427 6.427 0 00-6.03.39 6.447 6.447 0 00-2.92 4.03c-.4 1.69-.12 3.44.79 4.92a6.486 6.486 0 005.1 3.1c.32 1.94 1 3.77 2.03 5.45 2.94 4.8 8.19 7.42 13.69 7.41 3.16 0 6.41-.86 9.36-2.67 3.9-2.39 6.7-6.06 7.88-10.33 1.19-4.3.6-8.69-1.65-12.36-1.04-1.66-2.36-3.1-3.94-4.27zm3.65 16.11c-1.05 3.78-3.53 7.03-7 9.16-7.13 4.37-16.24 2.54-20.3-4.09a13.092 13.092 0 01-1.87-5.51.996.996 0 00-.99-.89h-.07c-1.69.13-3.3-.7-4.19-2.15a4.51 4.51 0 01-.55-3.42c.28-1.17.99-2.16 2.02-2.79 1.47-.9 3.29-.88 4.76.06.46.3 1.08.16 1.38-.3 1.3-2.01 3.02-3.68 5.09-4.95 2.08-1.27 4.34-2.04 6.72-2.29.55-.06.94-.54.89-1.09-.17-1.73.64-3.37 2.11-4.27 2.11-1.29 4.89-.62 6.19 1.51.89 1.45.9 3.26.01 4.71-.28.46-.14 1.06.31 1.36 1.66 1.09 3.03 2.49 4.06 4.16 1.96 3.21 2.47 7.03 1.43 10.79z"/><path d="M341.05 392.58c.36-.26.72-.54 1.06-.88.39-.39.4-1.02.01-1.41a.987.987 0 00-1.41-.01c-1.41 1.38-2.81 1.8-4.36 1.32.24-.32.27-.76.05-1.12-.29-.47-.9-.62-1.38-.33l-1.31.8a1.004 1.004 0 00.52 1.86c.04 0 .08-.01.13-.02-.4 1.67-1.4 2.72-3.11 3.29-.53.17-.81.74-.64 1.26.14.42.53.69.95.69.1 0 .21-.02.31-.05.46-.15.88-.34 1.28-.55l1.02 1.66c.47.77 1.21 1.3 2.08 1.52.27.06.53.1.8.1.61 0 1.21-.17 1.74-.49l2.17-1.33c.76-.47 1.3-1.21 1.51-2.08.21-.87.06-1.77-.41-2.54l-1.01-1.69zm-.52 3.74c-.08.35-.3.65-.61.84l-2.17 1.33c-.31.19-.67.25-1.02.16s-.65-.3-.84-.62l-1.12-1.83c.66-.7 1.15-1.56 1.45-2.57 1.04.24 2.06.19 3.05-.13l1.09 1.78c.2.32.26.68.17 1.04zM311.27 254.65c2.34-4.86-.38-8.9-3.91-10.6-2.66-1.28-6.03-1.38-8.56.3-.1-1.28-.55-2.53-1.35-3.7-1.83-2.69-5.14-4.33-8.27-4.1-2.72.2-4.93 1.78-6.22 4.45-4.57 9.47-.46 16.34 4.75 25.04.18.3.51.49.86.49.04 0 .09 0 .13-.01 10.07-1.34 18-2.4 22.57-11.87zm-22.17 9.8c-5.38-9.02-8.16-14.64-4.33-22.58 1.24-2.56 3.16-3.22 4.56-3.33.14-.01.29-.02.43-.02 2.27 0 4.7 1.29 6.04 3.25 1.18 1.73 1.33 3.71.43 5.58-.07.14-.1.29-.1.43 0 .37.21.73.57.9.5.24 1.1.03 1.33-.47 1.66-3.44 5.51-3.8 8.46-2.38 2.55 1.23 4.85 4.04 2.98 7.93-3.83 7.96-9.96 9.29-20.37 10.69zM284.28 422.71l-5.79 1.67c.72-.61 1.43-1.26 2.08-1.99.22-.24.3-.58.23-.9a.987.987 0 00-.6-.7l-3.57-1.43c-4.35-5.18-9.83-7.83-14.36-7.16l-1.03-.78 4.52-12.95c1.31-3.78-1.15-6.84-4.24-7.91-2.9-1-6.42-.31-7.95 2.83-3.18-.33-5.95.47-8.24 2.39-.28.23-.41.59-.34.95.07.36.32.65.66.76l6.71 2.32 3.17 1.09c-7.17 9.31-8.36 19.83-3.05 27.71.97 1.44 2.17 2.68 3.56 3.74-.08.78.05 1.58.4 2.3.13.26.28.51.45.74l-.07.21-7.28-.26c-.51-.04-.93.33-1.02.82a1 1 0 00.66 1.13l11.92 4.11c.11.04.22.05.33.05.28 0 .55-.12.75-.34.27-.3.33-.74.15-1.1l-1.16-2.41.24-.71a4.34 4.34 0 002.16-1.38c.23.04.45.08.69.11.94.11 1.86.17 2.76.17 7.57 0 13.75-3.9 18.4-11.63.21-.35.19-.8-.06-1.13-.26-.3-.68-.44-1.08-.32zm-9.02-1.88c.11.13.24.23.4.29l2.42.97c-3.36 3.21-7.58 4.89-11.75 4.66-3.28-.19-6.07-1.58-7.65-3.81-.99-1.4-1.31-3.13-.86-4.75a5.448 5.448 0 013.07-3.54c.88-.39 1.85-.58 2.86-.58 3.66.01 7.97 2.46 11.51 6.76zm-22.41-25.48l-.78 2.25-3.88-1.34c1.39-.72 2.93-1.02 4.66-.91zm3.31 42.24l1.34.05c.44.01.84-.26.98-.67l.09-.27c.11.05.22.11.33.15.13.04.26.07.39.1l-.15.42c-.09.25-.07.52.04.76l.3.61-3.32-1.15zm8.38-3.93l.33-.96c.18-.52-.1-1.09-.62-1.27-.52-.18-1.09.1-1.27.62l-.51 1.47c-.42 1.2-1.72 1.84-2.91 1.43-.3-.1-.57-.27-.79-.47-.03-.03-.05-.06-.07-.08-.17-.18-.33-.38-.44-.61-.27-.55-.3-1.18-.1-1.76l.51-1.47c.18-.52-.1-1.09-.62-1.27-.52-.18-1.09.1-1.27.62l-.13.37c-.95-.81-1.79-1.74-2.49-2.78-5.09-7.55-3.66-17.43 3.83-26.44.21-.25.28-.59.19-.91-.09-.32-.33-.57-.64-.68l-3.56-1.23 1.19-3.44c.92-2.66 3.61-3.09 5.73-2.36 2.16.75 3.93 2.7 3.01 5.37l-4.76 13.63c-.14.41-.01.86.34 1.13l.44.33a7.417 7.417 0 00-4.02 4.75c-.61 2.2-.18 4.55 1.16 6.44 1.94 2.73 5.28 4.42 9.17 4.64.3.02.6.03.9.03 3.36 0 6.68-1.09 9.62-3.07l.8.61c.25.19.58.25.88.17l3.81-1.1c-4.6 6.34-10.55 9.12-17.71 8.29zM319.84 341.16c.43 0 .82-.28.96-.71l.9-2.94c.66-2.15-.54-4.43-2.68-5.09H319l.93-3.03c1.68-.11 3.33-.55 4.86-1.36 2.67-1.43 4.67-3.77 5.67-6.61.37.04.73.06 1.09.06 3.45 0 6.31-1.82 8.53-5.45.02-.03.02-.07.04-.1.02-.04.05-.08.06-.12.01-.02 0-.04.01-.06.02-.08.02-.16.02-.24 0-.05 0-.1-.01-.15-.01-.07-.04-.14-.06-.21-.02-.05-.04-.1-.07-.15a1.01 1.01 0 00-.13-.16.584.584 0 00-.14-.13c-.02-.02-.03-.04-.06-.05-.04-.02-.08-.03-.12-.05-.04-.02-.07-.05-.11-.06l-6.32-1.95.76-2.48a.997.997 0 00-.66-1.25l-20.94-6.45c-.25-.08-.53-.05-.76.07-.23.12-.41.34-.49.59l-.76 2.48-6.32-1.95c-.04-.01-.08-.01-.12-.01-.04-.01-.08-.03-.13-.03-.03 0-.05.01-.08.01a.68.68 0 00-.19.03c-.07.02-.14.03-.2.06-.05.02-.09.05-.13.08-.07.04-.13.09-.18.15-.03.03-.06.07-.08.11a.94.94 0 00-.12.22c-.01.02-.02.03-.03.05-.01.03 0 .07-.01.1-.01.05-.03.09-.04.14-.22 4.68 1.46 7.97 4.93 9.84-.78 2.93-.45 5.99.97 8.68.81 1.54 1.92 2.84 3.25 3.87l-.93 3.02h-.01a4.013 4.013 0 00-3.09.3c-.96.51-1.66 1.36-1.98 2.4l-.9 2.94c-.08.25-.05.53.07.76.12.23.34.41.59.49l13.93 4.29c.1.04.2.05.3.05zm17.81-25.09c-1.81 2.45-3.93 3.54-6.55 3.39l1.52-4.94 5.03 1.55zm-32.91-10.13l5.03 1.55-1.52 4.94c-2.25-1.35-3.39-3.45-3.51-6.49zm5.66 16.19a9.976 9.976 0 01-.7-7.63l2.27-7.38.76-2.48 19.03 5.86-3.04 9.86a9.979 9.979 0 01-4.87 5.91 9.888 9.888 0 01-7.59.73 9.87 9.87 0 01-5.86-4.87zm3.23 5.93c.65.34 1.34.63 2.05.85.72.22 1.45.36 2.18.45l-.76 2.48-4.23-1.3.76-2.48zm-6.47 7.15l.61-1.98c.16-.53.52-.96 1.01-1.22s1.04-.31 1.56-.15l8.09 2.49c1.08.33 1.69 1.49 1.35 2.59l-.61 1.98-12.01-3.71zM399.1 289.65l-3.05-1.22c-.46-.19-.99-.16-1.45.07-.43.21-.77.58-.95 1.04l-.24.61c-.04.1-.11.14-.12.14l-13.81-5.51c-.01-.02-.04-.09 0-.2l.24-.61c.39-.98-.05-2.08-.98-2.45l-3.05-1.22c-2.64-1.06-5.76-.04-7.62 2.52l-9.15 14.35c-1.32 1.82-1.44 4.16-.3 5.97.99 1.57 2.74 2.33 4.55 1.99l7.42-1.38c1.36-.25 2.73-.12 3.97.37l8.94 3.57c1.24.5 2.33 1.35 3.14 2.47l4.43 6.11c.86 1.18 2.15 1.83 3.54 1.83.37 0 .75-.05 1.13-.14 2.06-.52 3.59-2.29 3.89-4.5l3.26-16.8c.41-3.07-1.15-5.95-3.79-7.01zm1.83 6.69l-3.25 16.77c0 .02-.01.04-.01.06-.23 1.72-1.44 2.61-2.4 2.86-1.01.26-1.95-.08-2.56-.93l-4.44-6.1a9.215 9.215 0 00-4.01-3.15l-8.94-3.57a9.11 9.11 0 00-3.35-.64c-.57 0-1.15.05-1.72.16l-7.42 1.38c-1.03.19-1.94-.21-2.5-1.09-.53-.84-.79-2.33.26-3.78l9.15-14.35c1.29-1.77 3.44-2.5 5.23-1.79l2.88 1.15-.21.53a2.21 2.21 0 00-.03 1.6c.2.54.61.97 1.13 1.18l13.82 5.52c.52.21 1.12.18 1.64-.08.49-.24.87-.66 1.08-1.19l.21-.53 2.88 1.15c1.78.73 2.83 2.74 2.56 4.84z"/><path d="M375.94 294.38c-1.72-.69-3.68.16-4.37 1.89-.33.83-.32 1.75.03 2.58.35.83 1.01 1.47 1.84 1.8.41.16.82.24 1.24.24a3.374 3.374 0 003.1-4.7 3.303 3.303 0 00-1.84-1.81zm.01 3.63c-.28.7-1.08 1.05-1.77.77-.34-.13-.6-.39-.74-.73-.14-.34-.15-.71-.01-1.05.21-.54.73-.87 1.27-.87.17 0 .33.03.5.1.34.13.6.39.74.73.14.34.15.71.01 1.05zM256.06 337.69c1.4-.4 2.54-1.4 3.14-2.72 1.6-3.56 1.89-7.6.79-11.38-.18-.64-.41-1.25-.67-1.85-2.07-4.88-6.39-8.54-11.53-9.64l-2.22-7.68 1.24-.36c.53-.15.84-.71.68-1.24l-1.04-3.58c-.07-.25-.25-.47-.48-.6a.962.962 0 00-.76-.08l-2.37.68-.92-3.17a.994.994 0 00-1.24-.68l-9.91 2.86c-.53.15-.84.71-.68 1.24l.92 3.17-2.28.66c-.25.07-.47.25-.6.48-.13.23-.16.51-.08.76l1.04 3.58a1.002 1.002 0 001.24.68l1.15-.33 2.22 7.68c-3.94 3.86-5.63 9.62-4.46 15.1v.02a16.53 16.53 0 007.02 10.32c.82.54 1.77.82 2.73.82.46 0 .93-.06 1.38-.2l15.69-4.54zm-15.77-40.12l.64 2.21-7.99 2.31-.64-2.21 7.99-2.31zm-10.03 7.38l14.55-4.21.48 1.66-14.55 4.21-.48-1.66zm5.25 12.26c.28-.26.4-.65.29-1.02l-2.39-8.27 10.24-2.96 2.39 8.27c.11.37.41.64.79.71 4.14.72 7.73 3.32 9.83 6.94-1.19-.01-2.69.1-3.94.65-1.04.46-1.96 1.08-2.85 1.68l-.48.32c-.3.2-.6.39-.9.58-1.67 1.01-3.56 1.67-5.5 1.98-.01-.03-.01-.07-.02-.1a4.987 4.987 0 00-2.39-2.99c-1.17-.64-2.52-.8-3.8-.42a4.952 4.952 0 00-3.6 4.66c-.84.39-1.6.89-2.27 1.49-.27-4.33 1.38-8.62 4.6-11.52zm5.66 10.05a2.99 2.99 0 01-2.17 2.99c-.77.22-1.58.13-2.28-.26-.7-.39-1.21-1.02-1.43-1.79-.04-.16-.08-.31-.1-.47-.18-1.47.72-2.83 2.15-3.24.28-.08.56-.12.84-.12.5 0 .99.13 1.44.37.7.39 1.21 1.02 1.43 1.79.07.24.11.49.12.73zm-1.35 13.04c-.83.24-1.72.11-2.45-.37a14.5 14.5 0 01-5.92-8.09c-.06-.19-.1-.39-.15-.58.58-.82 1.34-1.5 2.26-2a4.97 4.97 0 002.19 2.49 5 5 0 003.81.42 4.988 4.988 0 003.56-4.08c2.26-.33 4.47-1.09 6.42-2.27.33-.2.66-.41.98-.63l.49-.33c.85-.58 1.66-1.12 2.54-1.51 1.12-.49 2.8-.55 4.12-.44.16.4.3.8.42 1.22.96 3.33.71 6.88-.69 10-.36.79-1.04 1.38-1.87 1.62l-15.71 4.55z"/><path d="M254.78 330.65c-.57-1.95-2.61-3.08-4.56-2.51-.95.27-1.73.9-2.2 1.76-.47.86-.59 1.86-.31 2.8.27.95.9 1.73 1.76 2.2.55.3 1.16.46 1.77.46.34 0 .69-.05 1.03-.15 1.94-.56 3.07-2.61 2.51-4.56zm-3.07 2.64c-.43.12-.89.07-1.28-.14-.39-.22-.68-.57-.8-1.01-.13-.43-.07-.89.14-1.28.21-.39.57-.68 1.01-.8.16-.04.31-.07.47-.07.73 0 1.4.48 1.62 1.22.24.89-.27 1.82-1.16 2.08zM328.06 541.21l.59-3.12a3.743 3.743 0 003.34-3.03c.38-2.02-.94-3.98-2.96-4.36-.62-.12-1.26-.07-1.86.13-.48-.41-1.06-.68-1.68-.8-.97-.18-1.97.02-2.79.58-.82.56-1.37 1.41-1.56 2.39-.19.98.02 1.97.58 2.79.37.54.85.96 1.42 1.25l-.59 3.1c-5.83-.82-12.38-.72-12.92 2.14l-3.49 18.39c-.39 2.06.87 4.04 2.82 4.41l3.37.64c1.94.36 3.85-1.01 4.24-3.07l.95-5.01c.09-.45.33-.84.67-1.1.32-.24.71-.34 1.08-.26l5.52 1.05c.79.15 1.3 1.01 1.13 1.91l-.95 5.01c-.19.98-.01 1.98.51 2.81.53.85 1.35 1.42 2.31 1.6l3.37.64c.21.04.42.06.63.06 1.71 0 3.26-1.29 3.61-3.13l3.49-18.39c.67-3.39-7.57-5.81-10.83-6.63zm-4.94-7.83c.09-.46.34-.85.72-1.11.38-.26.83-.36 1.29-.27.52.1.84.41 1.03.65.31.41.88.51 1.31.25.26-.16.68-.32 1.2-.23.93.18 1.54 1.08 1.36 2.02-.18.94-1.08 1.56-2.01 1.38a.995.995 0 00-1.17.8l-1.4 7.4c-.5.09-1.14-.03-1.57-.29l1.41-7.41a1 1 0 00-.16-.75c-.15-.22-.38-.37-.64-.42a1.69 1.69 0 01-1.1-.72c-.26-.38-.35-.84-.27-1.3zm-.93 8.74l-.39 2.04c-.05.29.02.59.21.82.68.84 1.91 1.32 3.08 1.32.61 0 1.21-.13 1.71-.4.26-.14.45-.4.5-.69l.38-2.02c6.51 1.62 9.23 3.67 9.27 4.27-.37.82-5.34 1.61-13.15.13-7.8-1.48-12.14-4.04-12.19-4.92.27-.59 3.68-1.52 10.58-.55zm11.27 23.74c-.19.98-1.05 1.64-1.9 1.48l-3.37-.64c-.4-.08-.75-.32-.99-.7-.25-.4-.33-.89-.24-1.38l.95-5.01c.38-1.99-.84-3.9-2.72-4.25l-5.52-1.05a3.39 3.39 0 00-2.64.62 3.79 3.79 0 00-1.45 2.34l-.95 5.01c-.19.98-1.05 1.65-1.9 1.48l-3.37-.64c-.86-.16-1.42-1.09-1.23-2.07l3.02-15.95c2.71 2.13 8.41 3.71 12.28 4.45 3.01.57 5.93.87 8.41.87.59 0 1.16-.02 1.69-.05 1.18-.08 2.16-.24 2.96-.48l-3.03 15.97zM99.43 457.81c.42-3.75-.63-7.45-2.97-10.4a13.947 13.947 0 00-9.43-5.23c-7.72-.87-14.7 4.73-15.57 12.48-.58 5.14 1.68 9.94 5.51 12.86l-2.25 4.34c-.15.29-.15.64.01.93.16.29.44.49.77.52l15.84 1.79c.04 0 .08.01.11.01.29 0 .56-.12.75-.34.22-.25.3-.59.21-.91l-1.22-4.74c4.38-1.99 7.66-6.17 8.24-11.31zm-9.32 15.14l-12.96-1.46 1.48-2.86c1.57.87 3.32 1.46 5.21 1.67a13.815 13.815 0 005.45-.46l.82 3.11zm-6.03-4.65c-6.62-.75-11.39-6.77-10.64-13.42.7-6.2 5.94-10.79 12-10.79.45 0 .9.03 1.36.08 3.2.36 6.07 1.96 8.08 4.49 2.01 2.54 2.92 5.71 2.55 8.93-.74 6.65-6.74 11.45-13.35 10.71z"/><path d="M84.22 447.51c-1.75-.6-3.63-.49-5.29.33a6.917 6.917 0 00-3.53 4.01c-1.24 3.64.69 7.61 4.31 8.86.74.25 1.5.38 2.26.38 1.04 0 2.07-.24 3.03-.71a6.917 6.917 0 003.53-4.01c1.24-3.64-.69-7.62-4.31-8.86zm2.42 8.21a4.94 4.94 0 01-2.52 2.86c-1.18.58-2.52.66-3.76.23-2.58-.89-3.95-3.72-3.06-6.32a4.953 4.953 0 014.68-3.36c.54 0 1.08.09 1.6.27 2.57.89 3.95 3.72 3.06 6.32zM229.11 555.92l.86 3.5 1.56 6.33c.44 1.8 1.56 3.32 3.15 4.28 1.1.66 2.33 1 3.58 1 .56 0 1.12-.07 1.68-.21l2.25-.55c1.8-.44 3.32-1.56 4.28-3.15a6.93 6.93 0 00.8-5.26l-.7-2.83-.86-3.5-.86-3.5-.88-3.57c-.92-3.72-4.69-6-8.41-5.08l-2.25.55c-1.8.44-3.32 1.56-4.28 3.15a6.924 6.924 0 00-.8 5.26l.88 3.58zm1.63-7.8a4.888 4.888 0 013.05-2.24l2.25-.55c.4-.1.79-.14 1.18-.14 2.22 0 4.25 1.51 4.8 3.76l.64 2.6-2.67.66c-.54.13-.86.67-.73 1.21a.992.992 0 001.21.73l2.67-.66.39 1.56-2.67.66c-.54.13-.86.67-.73 1.21a.992.992 0 001.21.73l2.67-.66.39 1.56-2.67.66c-.54.13-.86.67-.73 1.21a.992.992 0 001.21.73l2.67-.66.46 1.86c.32 1.28.11 2.61-.57 3.74a4.888 4.888 0 01-3.05 2.24l-2.25.55c-1.28.32-2.61.11-3.74-.57a4.888 4.888 0 01-2.24-3.05l-.46-1.86 2.67-.66c.54-.13.86-.67.73-1.21a.987.987 0 00-1.21-.73l-2.67.66-.39-1.56 2.67-.66c.54-.13.86-.67.73-1.21a.987.987 0 00-1.21-.73l-2.67.66-.39-1.56 2.67-.66c.54-.13.86-.67.73-1.21a.987.987 0 00-1.21-.73l-2.67.66-.64-2.6a4.87 4.87 0 01.57-3.74z"/><path d="M250.19 560.33l-.8-3.25a.987.987 0 00-1.21-.73c-.54.13-.86.67-.73 1.21l.8 3.25c1.24 5.01-1.81 10.09-6.79 11.32-4.98 1.22-10.04-1.85-11.28-6.86l-.8-3.25a.987.987 0 00-1.21-.73c-.54.13-.86.67-.73 1.21l.8 3.25c1.28 5.18 5.92 8.66 11.01 8.66.57 0 1.14-.06 1.71-.15l1 4.06-3.96.98c-.26.06-.48.23-.62.45-.14.23-.18.5-.12.76l.75 3.03a.992.992 0 001.21.73l9.86-2.43c.26-.06.48-.23.62-.45.14-.23.18-.5.12-.76l-.75-3.03a.987.987 0 00-1.21-.73l-3.96.98-1-4.05c5.47-1.89 8.71-7.72 7.29-13.47zm-2.57 19.79l-7.92 1.95-.27-1.09 3.96-.98 3.96-.98.27 1.1zM15.78 460.14c-2.13-1.51-5.27-1.6-8.65-.32 1.12-4.11.84-7.36-.82-9.27-.94-1.09-2.77-2.23-6.12-1.53-.33.07-.61.3-.73.62l-6.21 16.15-7.51 1.58c-.54.11-.89.64-.77 1.18l3.45 16.39c.05.26.21.49.43.63.16.11.35.16.55.16.07 0 .14-.01.21-.02l22.86-4.82a4.041 4.041 0 003.12-3.13l2.43-11.72c.36-2.48-.45-4.64-2.24-5.9zm-28.64 8.98l6.08-1.28 3.04 14.43-6.08 1.28-3.04-14.43zm28.91-3.43l-2.42 11.66c-.17.79-.78 1.42-1.57 1.58l-13.84 2.92-3.19-15.12 6.09-15.85c1.24-.18 2.73-.1 3.67.98 1.43 1.64 1.34 5.09-.25 9.45-.14.39-.03.82.28 1.1.31.27.76.32 1.12.13 3.43-1.82 6.75-2.11 8.66-.77 1.21.84 1.7 2.22 1.45 3.92zM49.87 569.06l.25-.51 2.11 1.02c.49.24 1.02.36 1.55.36a3.585 3.585 0 003.23-2.03l4.53-9.34c.86-1.78.12-3.93-1.65-4.79l-2.11-1.02 1.92-3.95c1.41-2.92-4.01-7.18-9.64-9.91-2.97-1.44-5.96-2.44-8.4-2.81-3.61-.55-4.91.45-5.36 1.38l-9.82 20.26c-1.16 2.39-.17 5.28 2.22 6.43l14.76 7.16a4.762 4.762 0 003.67.21c1.2-.44 2.18-1.31 2.74-2.46zm9.14-13.5c.78.38 1.11 1.33.72 2.12l-4.53 9.34c-.19.38-.51.67-.91.81s-.82.12-1.2-.07l-2.11-1.02 5.91-12.2 2.12 1.02zM39.75 537.9c.43 0 .96.04 1.6.14 2.25.34 5.03 1.28 7.83 2.64 6.53 3.17 9.07 6.51 8.72 7.24-.36.73-4.55.81-11.08-2.36-2.8-1.36-5.25-2.96-6.92-4.51-1.76-1.64-1.89-2.54-1.8-2.73.06-.14.5-.42 1.65-.42zm4.57 31.6l-14.76-7.16c-1.39-.67-1.97-2.36-1.29-3.76l8.66-17.87c.38.54.89 1.14 1.6 1.8.78.73 1.72 1.46 2.77 2.18l-1.75 3.61-1.21-.59a.958.958 0 00-.76-.04c-.25.09-.46.27-.57.51l-2.78 5.74c-.24.5-.03 1.1.46 1.34l4.22 2.04a.976.976 0 00.77.04c.25-.09.46-.27.57-.51l2.78-5.74c.24-.5.03-1.1-.46-1.34l-1.21-.59 1.65-3.4c.93.55 1.91 1.09 2.94 1.59 3.52 1.71 7.47 2.98 10.27 2.98.18 0 .35-.01.52-.02l-8.66 17.86c-.33.68-.9 1.19-1.61 1.44-.72.26-1.48.21-2.15-.11zm-3.53-18.38l-1.91 3.94-2.42-1.17 1.91-3.94 2.42 1.17zM207.4 441.1l-20.42-11.59c-.98-.56-2.15-.55-3.13.02-.98.57-1.57 1.59-1.57 2.73v23.18c0 1.14.58 2.16 1.57 2.73.49.29 1.03.43 1.58.43.53 0 1.06-.14 1.55-.41l20.42-11.59c1-.57 1.6-1.59 1.6-2.75s-.6-2.18-1.6-2.75zm-.98 3.75L186 456.44c-.51.29-.96.09-1.13-.01-.17-.1-.57-.4-.57-1v-23.18c0-.6.4-.9.57-1 .1-.06.31-.16.58-.16.17 0 .36.04.55.15l20.42 11.59c.53.3.58.8.58 1.01 0 .21-.06.71-.58 1.01zM275.36 474.09c2.81-2.33 6.35-3.42 9.97-3.07 7.48.72 12.97 7.42 12.25 14.94l-1.6-.15a3.295 3.295 0 00-3.59 2.96l-1.63 16.94a3.3 3.3 0 002.96 3.59l5.18.5c.11.01.21.02.32.02.76 0 1.49-.26 2.08-.75.68-.56 1.1-1.35 1.18-2.22l.27-2.77 2.98-.39a2.703 2.703 0 002.35-2.44l.46-4.78a2.7 2.7 0 00-1.84-2.84l-2.86-.95.27-2.77c.08-.87-.18-1.73-.74-2.41-.56-.68-1.35-1.1-2.22-1.18l-1.6-.15c.82-8.62-5.48-16.3-14.05-17.12-4.16-.4-8.22.85-11.44 3.52-3.22 2.67-5.21 6.43-5.62 10.6l-1.6-.15a3.306 3.306 0 00-3.59 2.96l-.27 2.77-2.98.39a2.703 2.703 0 00-2.35 2.44l-.46 4.78a2.71 2.71 0 001.84 2.84l2.86.95-.27 2.77c-.08.87.18 1.73.73 2.41.55.68 1.35 1.1 2.22 1.18l5.18.5c.11.01.21.02.32.02 1.67 0 3.11-1.27 3.27-2.97l1.63-16.94c.08-.87-.18-1.73-.74-2.41-.56-.68-1.35-1.1-2.22-1.18l-1.6-.15c.4-3.67 2.14-6.96 4.95-9.29zm28.3 20.62l2.42.8c.32.11.52.41.48.75l-.46 4.78c-.03.34-.29.6-.62.64l-2.53.33.35-3.66.36-3.64zm-1.81-5.95c.22.27.32.6.29.94l-.82 8.47-.47 4.9-.34 3.57c-.03.34-.2.65-.46.87-.26.22-.6.32-.94.29l-5.18-.5a1.29 1.29 0 01-1.16-1.41l1.63-16.94c.06-.67.63-1.16 1.28-1.16.04 0 .08 0 .13.01l2.59.25 2.59.25c.33.03.64.2.86.46zm-42.64 7.77l.46-4.78c.03-.34.29-.6.62-.64l2.53-.33-.7 7.31-2.42-.8a.707.707 0 01-.49-.76zm13.52-10.57c.22.27.32.6.29.94l-1.63 16.94c-.03.34-.2.65-.46.87-.27.22-.6.32-.94.29l-5.18-.5c-.34-.03-.65-.2-.87-.46-.22-.26-.32-.6-.29-.94l.65-6.78.64-6.6.34-3.57c.07-.71.71-1.23 1.41-1.16l2.59.25 2.59.25c.33.04.64.2.86.47zM200.99 618.12l-8.14-1.19a1.06 1.06 0 01-.8-.59l-3.64-7.41a3.043 3.043 0 00-2.75-1.72c-1.18 0-2.23.66-2.75 1.72l-3.64 7.41c-.16.32-.46.54-.8.59l-8.13 1.19c-1.16.17-2.11.97-2.47 2.09-.37 1.12-.07 2.33.77 3.16l5.89 5.77c.25.25.37.61.31.96l-1.39 8.15c-.2 1.17.27 2.32 1.23 3.01a3.034 3.034 0 003.22.22l7.28-3.84c.31-.17.68-.16.99 0l7.27 3.84c1.04.55 2.27.46 3.22-.23a3.05 3.05 0 001.23-3.01l-1.39-8.15c-.06-.35.06-.71.31-.96l5.89-5.77a3.074 3.074 0 00-1.71-5.24zm.3 3.82l-5.89 5.77c-.72.71-1.05 1.72-.88 2.72l1.39 8.15c.07.42-.09.81-.43 1.06-.33.24-.75.27-1.12.08l-7.27-3.84c-.89-.47-1.96-.47-2.86 0l-7.28 3.84c-.36.19-.78.16-1.11-.08-.34-.25-.5-.64-.43-1.06l1.39-8.14c.17-1-.16-2.01-.88-2.72l-5.89-5.77c-.3-.29-.4-.71-.27-1.11.13-.4.45-.67.86-.73l8.13-1.19c1-.14 1.86-.77 2.31-1.68l3.64-7.41c.18-.38.54-.6.95-.6.41 0 .77.22.96.6l3.64 7.41c.45.91 1.31 1.54 2.31 1.68l8.13 1.19c.41.06.73.33.86.73.14.39.04.81-.26 1.1zM92.69 627.69c.89-1.69 1.09-3.73.37-5.65l-.83-2.2a6.838 6.838 0 00-5.76-4.4c-4.27-4.28-10.43-5.74-15.76-3.73-3.74 1.42-6.65 4.31-8.2 8.16-.77 1.91-1.16 3.94-1.17 5.99l-2.63 1a3.804 3.804 0 00-2.2 4.91l6.24 16.46a3.834 3.834 0 003.57 2.47c.45 0 .9-.08 1.34-.25l1.58-.6 2.16 5.71c.59 1.54 2.02 2.51 3.5 2.51.4 0 .81-.07 1.21-.22l3.21-1.22c1.85-.7 2.76-2.87 2.01-4.84l-1.81-4.77c-.16-.43-.16-.89 0-1.29.15-.38.43-.66.78-.79l5.26-1.99c.76-.29 1.64.18 1.96 1.04l1.81 4.77c.35.94 1.03 1.69 1.9 2.13.9.45 1.9.5 2.81.16l3.21-1.21c1.85-.7 2.76-2.87 2.01-4.84l-6.57-17.31zm-2.34-7.15l.83 2.2c.95 2.51-.32 5.32-2.83 6.27l-6.47 2.45c-2.51.96-5.32-.32-6.28-2.83l-.83-2.2c-.95-2.51.32-5.32 2.83-6.28l6.47-2.45c.56-.21 1.14-.32 1.73-.32.68 0 1.36.14 2 .43 1.18.55 2.09 1.52 2.55 2.73zm-23.42 28.04c-.93.35-1.97-.12-2.33-1.06l-6.24-16.46c-.35-.94.11-1.98 1.04-2.33l2.06-.78c.17 1.36.48 2.72.98 4.04l6.06 15.99-1.57.6zm29.6-.61l-3.21 1.21c-.38.15-.81.12-1.21-.08-.42-.21-.75-.58-.93-1.05l-1.81-4.77c-.72-1.89-2.75-2.88-4.54-2.2l-5.26 1.99c-.88.33-1.56 1.01-1.93 1.91-.35.87-.36 1.85-.01 2.75l1.81 4.77c.35.93-.03 1.94-.85 2.26l-3.21 1.22c-.82.31-1.78-.19-2.13-1.13l-2.52-6.64-6.41-16.92c-.56-1.49-.87-3.03-.96-4.56.04-.18.04-.36-.02-.54-.03-1.91.3-3.79 1.01-5.56 1.34-3.33 3.85-5.83 7.06-7.04 4.08-1.55 8.76-.7 12.36 2.13-.14.04-.27.08-.41.13l-6.47 2.45c-3.54 1.34-5.33 5.31-3.99 8.86l.83 2.2c1.04 2.74 3.66 4.43 6.43 4.43.81 0 1.63-.14 2.42-.45l6.47-2.45a6.89 6.89 0 002.19-1.35l6.13 16.17c.36.93-.02 1.95-.84 2.26zM307.36 619.03c-2.66-1.28-6.03-1.38-8.56.3-.1-1.28-.55-2.53-1.35-3.7-1.83-2.69-5.14-4.33-8.27-4.1-2.72.2-4.93 1.78-6.22 4.45-4.57 9.47-.46 16.34 4.75 25.04.18.3.51.49.86.49.04 0 .09 0 .13-.01 10.05-1.34 17.99-2.41 22.55-11.88 2.36-4.84-.36-8.89-3.89-10.59zm2.11 9.74c-3.83 7.94-9.96 9.27-20.37 10.68-5.38-9.02-8.16-14.64-4.33-22.58 1.24-2.56 3.16-3.22 4.56-3.33.14-.01.29-.02.43-.02 2.27 0 4.7 1.29 6.04 3.25 1.18 1.73 1.33 3.71.43 5.58-.07.14-.1.29-.1.43 0 .37.21.73.57.9.5.24 1.1.03 1.33-.47 1.66-3.44 5.51-3.8 8.46-2.38 2.55 1.23 4.86 4.05 2.98 7.94zM390.76 460.14c-2.13-1.51-5.27-1.6-8.65-.32 1.12-4.11.84-7.36-.82-9.27-.94-1.09-2.77-2.23-6.12-1.53-.33.07-.61.3-.73.62l-6.21 16.15-7.5 1.58c-.54.11-.89.64-.77 1.18l3.45 16.39c.05.26.21.49.43.63.16.11.35.16.55.16.07 0 .14-.01.21-.02l22.86-4.82a4.041 4.041 0 003.12-3.13l2.43-11.72c.36-2.48-.46-4.64-2.25-5.9zm-28.64 8.98l6.08-1.28 3.04 14.43-6.08 1.28-3.04-14.43zm28.91-3.43l-2.42 11.66c-.17.79-.78 1.42-1.57 1.58l-13.84 2.92-3.19-15.12 6.1-15.85c1.24-.18 2.73-.1 3.67.98 1.43 1.64 1.34 5.09-.25 9.45a1 1 0 00.29 1.1c.31.27.76.32 1.12.13 3.43-1.82 6.75-2.11 8.66-.77 1.19.84 1.68 2.22 1.43 3.92zM178.45 516.15l-5.13-18.23c-1.25-4.44-4.18-8.07-8.25-10.23s-8.72-2.54-13.11-1.09c-8.46 2.81-13.15 11.94-10.66 20.78l5.01 17.81c.2.72.81 1.22 1.56 1.29.05 0 .1.01.15.01.68 0 1.3-.39 1.6-1.01l1.3-2.75c.19-.4.52-.68.94-.8.42-.12.86-.05 1.22.19l1.88 1.23c.84.55 1.88.71 2.86.44.97-.27 1.78-.95 2.21-1.86l.96-2.03c.19-.4.52-.68.94-.8.42-.12.86-.05 1.22.19l1.88 1.23c.84.55 1.89.71 2.86.44.97-.27 1.78-.95 2.21-1.86l.96-2.03c.19-.4.52-.68.95-.8.42-.12.85-.05 1.22.19l2.55 1.67c.62.41 1.42.39 2.02-.05.6-.44.85-1.21.65-1.93zM145.8 502.1c.27-.08.54-.11.81-.11 1.31 0 2.51.86 2.88 2.18.22.77.12 1.58-.27 2.27-.39.7-1.03 1.2-1.8 1.41-1.58.45-3.24-.48-3.69-2.07-.44-1.58.48-3.23 2.07-3.68zm28.52 12.67c-.84-.55-1.89-.71-2.86-.44-.97.27-1.78.95-2.21 1.86l-.96 2.03c-.19.4-.52.68-.94.8-.42.12-.85.05-1.22-.19l-1.88-1.23c-.84-.55-1.88-.71-2.86-.44-.98.27-1.78.95-2.21 1.86l-.96 2.03c-.19.4-.52.68-.94.8-.42.12-.85.05-1.22-.19l-1.88-1.23c-.84-.55-1.89-.71-2.86-.44-.97.27-1.78.95-2.21 1.86l-1.04 2.2-4.19-14.93c.8.53 1.75.84 2.74.84.45 0 .9-.06 1.35-.19a4.96 4.96 0 003-2.36c.65-1.16.81-2.51.45-3.79-.75-2.65-3.51-4.2-6.15-3.45-1.08.3-1.96.95-2.59 1.78.25-6.05 4.04-11.5 9.93-13.46 3.86-1.28 7.96-.95 11.54.96 3.58 1.9 6.16 5.1 7.26 9l4.96 17.65-2.05-1.33z"/><path d="M161.56 497.12a4.965 4.965 0 00-3.79-.45 4.96 4.96 0 00-3 2.36 4.965 4.965 0 00-.45 3.79c.62 2.2 2.63 3.64 4.81 3.64.45 0 .9-.06 1.35-.19 2.65-.75 4.2-3.51 3.45-6.15a4.983 4.983 0 00-2.37-3zm.16 5.81a2.992 2.992 0 01-5.49-.65c-.22-.77-.12-1.58.27-2.27s1.03-1.2 1.8-1.41c.27-.08.54-.11.81-.11.5 0 1 .13 1.46.38.7.39 1.2 1.03 1.41 1.8.23.76.13 1.56-.26 2.26zM142.04 553.93c-.36-.16-.78-.09-1.08.18-.7.65-1.82.79-2.56.77-.65 0-1.3-.08-1.99-.17-.48-.06-.96-.12-1.44-.16-2.9-.21-5.58.52-7.54 2.05-2.13 1.67-2.46 4.89-2.05 7.54l-2.08 2.2-7.56-7.56c-.02-.02-.05-.03-.08-.05l-.12-.09a.95.95 0 00-.21-.09c-.03-.01-.05-.03-.08-.04h-.05c-.02 0-.04-.02-.07-.02l-5.17-.49c-.29-.02-.59.08-.8.29a.99.99 0 00-.29.8l.49 5.17c0 .02.01.04.02.07v.06c.01.04.03.07.04.1.02.05.04.11.06.16.03.05.07.1.1.15.02.03.03.06.06.08l7.72 7.72-8.04 8.49a1 1 0 00.02 1.39l3.67 3.67c.19.2.45.29.71.29.25 0 .49-.09.69-.27l8.49-8.04 8.4 8.36c.19.19.45.29.71.29.26 0 .51-.1.71-.29l4.69-4.69a.99.99 0 00.29-.71c0-.27-.11-.52-.29-.71l-2.94-2.93c-.01-.01-.02-.03-.03-.05a.219.219 0 00-.05-.03l-5.21-5.18 2.16-2.04c.48.11.97.18 1.48.18 2.21 0 4.57-.94 5.93-2.13 1.69-1.48 2.88-3.69 3.45-6.38.49-2.32.48-4.69.47-6.98-.03-.4-.27-.75-.63-.91zm-15.15 17.65l-2.98-2.98 2.55-2.69 3.12 3.12-2.69 2.55zm-13.18-11.2c-.49 1.18-1.3 1.99-2.48 2.48l-.26-2.74 2.74.26zm-1.52 4.23a6.438 6.438 0 003.27-3.27l6.46 6.46-.13.13-3.05 3.22-6.55-6.54zm1.54 19.44l-2.29-2.29 11.1-11.71 2.9 2.9-11.71 11.1zm18.26.32l-1.57-1.56 3.27-3.27 1.57 1.56-3.27 3.27zm.29-6.24L129 581.4l-4.67-4.64 3.22-3.05.14-.13 4.59 4.55zm7.93-16.72c-.33 1.58-1.09 3.79-2.81 5.29-1.48 1.3-4.16 1.95-5.87 1.45l-4.15-4.15c-.37-2.16-.12-4.73 1.28-5.82 1.57-1.23 3.75-1.81 6.16-1.63.45.03.89.09 1.34.15.72.09 1.47.18 2.23.19.85-.01 1.58-.11 2.24-.33-.01 1.63-.09 3.28-.42 4.85z"/></g><g opacity=".33" clip-path="url(#clip1)" fill="#BAC8CF"><path d="M81.63 1.36L75.89-.56c-.05-.02-.1-.01-.15-.02-.07-.01-.13-.03-.2-.02-.06 0-.12.02-.18.03-.07.01-.13.03-.19.05-.06.02-.1.06-.15.1-.05.04-.11.07-.16.12-.05.05-.08.11-.11.16-.03.04-.07.08-.09.12-.3.68-.73 1.29-1.26 1.81-.16.16-.33.29-.5.42.35-1.7.43-3.42.25-5.13l4.86-14.5c.43-1.3.34-2.69-.27-3.92a5.073 5.073 0 00-2.95-2.58l-2.29-.77c-.08-.97-.72-1.84-1.69-2.16l-10.06-3.37a2.49 2.49 0 00-2.65.71l-2.29-.77a5.113 5.113 0 00-3.91.28 5.145 5.145 0 00-2.58 2.97l-4.86 14.52A16.76 16.76 0 0040.8-6.4c-.04.13-.08.26-.12.4-.02.04-.04.08-.05.12L37.52 3.4c-.08.25-.06.53.05.76.11.23.33.42.58.5l29.7 9.95c.11.04.21.05.32.05.42 0 .81-.26.95-.68l1.21-3.63c.25.03.49.06.74.06.42 0 .85-.05 1.27-.15 1.47-.34 2.38-1.18 3.19-1.92.54-.49.78-.81 1.09-1.22.29-.38.65-.85 1.43-1.71.96-1.06 1.31-1.34 1.74-1.58.5-.27 1.07-.45 1.67-.53.46-.06.83-.43.87-.89.03-.47-.25-.9-.7-1.05zM59.46-28.01c.06-.17.19-.26.26-.3.05-.02.13-.05.23-.05.05 0 .1.01.15.03l10.06 3.37c.23.08.36.32.32.58-.01.02-.03.03-.03.06-.01.02 0 .04-.01.06-.06.13-.16.21-.22.24-.07.04-.21.09-.38.03l-10.06-3.37a.513.513 0 01-.32-.65zm-8.26 1.6c.27-.79.83-1.44 1.58-1.81.75-.38 1.6-.44 2.38-.18l2.29.77c.03.31.11.61.25.9.3.6.81 1.05 1.44 1.26L69.2-22.1a2.465 2.465 0 001.91-.14c.28-.14.53-.34.74-.57l2.29.77c.79.26 1.42.82 1.8 1.57.37.75.43 1.61.17 2.4L72.3-6.7c-.23-.65-.48-1.29-.79-1.91-1.5-3.04-3.84-5.48-6.72-7.11.59-.46 1.03-1.08 1.27-1.8.32-.96.25-1.99-.2-2.9a3.755 3.755 0 00-2.19-1.91c-.96-.32-1.99-.25-2.9.21-.91.45-1.58 1.24-1.91 2.2-.24.73-.26 1.49-.07 2.21-4.08-.54-8.12.48-11.43 2.68l3.84-11.38zm12.97 8.26A1.812 1.812 0 0161.89-17a1.76 1.76 0 01-1.03-.9c-.21-.43-.25-.92-.09-1.38a1.814 1.814 0 011.71-1.24 1.76 1.76 0 011.6.99c.21.43.25.92.09 1.38zm6.32 21.68l-.17.48c-.02.06-.04.13-.05.19l-2.74 8.18-27.81-9.32 2.74-8.18a.67.67 0 00.07-.18l.03-.11c.04-.13.08-.26.12-.38 2.58-7.71 10.93-11.89 18.59-9.33 3.71 1.24 6.72 3.87 8.46 7.39a14.73 14.73 0 01.76 11.26zm6.05.54c-.83.92-1.24 1.45-1.53 1.84-.29.38-.45.59-.86.96-.69.63-1.33 1.22-2.29 1.44-.3.07-.6.1-.9.09l1.18-3.53c.98-.37 1.89-.92 2.64-1.65.5-.48.92-1.03 1.28-1.62l2.27.76c-.5.35-1 .83-1.79 1.71zM167.68 13.89c-.62-.31-1.24-.61-1.87-.92.23-.48.46-.95.69-1.43.64-1.33.87-2.69.21-4.07-.8-1.65-2.67-2.54-4.46-2.2-1.42.27-2.41 1.26-3.02 2.52-.23.48-.47.97-.7 1.45-4.29-4.84-10.57-7.82-17.13-6.19-6.39 1.59-11.99 6.5-14.44 12.59-1.29 3.21-1.59 6.78-.66 10.13.14.5.72.88 1.23.7.45-.16.9-.31 1.35-.47 1.12 2.5 2.72 4.76 4.9 6.46 2.39 1.85 5.26 2.87 8.26 3.1 3.35.25 7.02-.44 10.07-1.86 2.88-1.34 5.16-3.83 6.87-6.45 1.36-2.09 2.56-4.52 3.03-7.03.39.19.78.38 1.18.58 1.14.56 2.21 1.04 3.52.8 1.86-.35 3.21-2.02 3.28-3.89.07-1.61-.89-3.1-2.31-3.82zm-31.81 17.62c-2.28-1.48-3.98-3.7-5.1-6.15 1.69-.58 3.06-1.35 3.74-3.1.2-.5-.22-1.1-.7-1.23-.57-.16-1.03.19-1.23.7-.45 1.15-1.68 1.47-2.74 1.84-.62.21-1.23.43-1.85.64-.98-5.12 1.29-10.33 4.91-13.97a20.38 20.38 0 014.85-3.6c6.54 5.08 11.33 18.93 9.18 26.6-1.15.23-2.31.37-3.48.38-2.68.01-5.32-.65-7.58-2.11zm30.37-11.85c-.81.12-1.49-.32-2.19-.66-.78-.38-1.55-.76-2.33-1.14-.7-.34-1.46.08-1.5.86-.03.49-.08.78-.2 1.32-.13.55-.29 1.1-.47 1.63-.43 1.23-.99 2.41-1.64 3.53-1.4 2.42-3.27 4.71-5.68 6.17-.97.59-2.02.99-3.1 1.31 1.6-8.25-2.9-21.25-9.36-26.99.19-.08.38-.16.57-.23 3.15-1.13 6.48-1.16 9.62 0 3.15 1.17 5.91 3.44 7.94 6.09.41.54 1.36.75 1.73 0 .43-.89.87-1.79 1.3-2.68.18-.38.35-.78.65-1.08.54-.54 1.34-.74 2.07-.52 1.33.41 1.78 1.86 1.23 3.05-.41.87-.84 1.73-1.26 2.6-.22.46-.16 1.12.36 1.37.67.33 1.35.66 2.02.99.79.39 1.58.72 1.89 1.63.41 1.21-.39 2.55-1.65 2.75z"/><path d="M138.14 14.79c-.47-.29-1.08-.15-1.38.31-.64 1.01-3.13 1.87-4.22 1.47-.51-.19-1.09.07-1.29.59-.19.52.07 1.09.59 1.29.4.15.86.22 1.35.22 1.94 0 4.36-1.06 5.26-2.49.3-.48.16-1.1-.31-1.39zM345.99 3.75c.82-1.92.67-4.13-.45-5.95-1.88-3.07-5.89-4.04-8.94-2.17a6.416 6.416 0 00-3.08 5.19 17.87 17.87 0 00-6.64 2.46 17.956 17.956 0 00-5.2 4.8 6.427 6.427 0 00-6.03.39 6.447 6.447 0 00-2.92 4.03c-.4 1.69-.12 3.44.79 4.92a6.486 6.486 0 005.1 3.1c.32 1.94 1 3.77 2.03 5.45 2.94 4.8 8.19 7.42 13.69 7.41 3.16 0 6.41-.86 9.36-2.67 3.9-2.39 6.7-6.06 7.88-10.33 1.19-4.3.6-8.69-1.65-12.36-1.04-1.66-2.36-3.1-3.94-4.27zm3.65 16.11c-1.05 3.78-3.53 7.03-7 9.16-7.13 4.37-16.24 2.54-20.3-4.09a13.092 13.092 0 01-1.87-5.51.996.996 0 00-.99-.89h-.07c-1.69.13-3.3-.7-4.19-2.15a4.51 4.51 0 01-.55-3.42c.28-1.17.99-2.16 2.02-2.79 1.47-.9 3.29-.88 4.76.06.46.3 1.08.16 1.38-.3 1.3-2.01 3.02-3.68 5.09-4.95 2.08-1.27 4.34-2.04 6.72-2.29.55-.06.94-.54.89-1.09-.17-1.73.64-3.37 2.11-4.27 2.11-1.29 4.89-.62 6.19 1.51.89 1.45.9 3.26.01 4.71-.28.46-.14 1.06.31 1.36 1.66 1.09 3.03 2.49 4.06 4.16 1.96 3.21 2.47 7.03 1.43 10.79z"/><path d="M341.05 17.58c.36-.26.72-.54 1.06-.88.39-.39.4-1.02.01-1.41a.987.987 0 00-1.41-.01c-1.41 1.38-2.81 1.8-4.36 1.32.24-.32.27-.76.05-1.12-.29-.47-.9-.62-1.38-.33l-1.31.8a1.004 1.004 0 00.52 1.86c.04 0 .08-.01.13-.02-.4 1.67-1.4 2.72-3.11 3.29-.53.17-.81.74-.64 1.26.14.42.53.69.95.69.1 0 .21-.02.31-.05.46-.15.88-.34 1.28-.55l1.02 1.66c.47.77 1.21 1.3 2.08 1.52.27.06.53.1.8.1.61 0 1.21-.17 1.74-.49l2.17-1.33c.76-.47 1.3-1.21 1.51-2.08.21-.87.06-1.77-.41-2.54l-1.01-1.69zm-.52 3.74c-.08.35-.3.65-.61.84l-2.17 1.33c-.31.19-.67.25-1.02.16s-.65-.3-.84-.62l-1.12-1.83c.66-.7 1.15-1.56 1.45-2.57 1.04.24 2.06.19 3.05-.13l1.09 1.78c.2.32.26.68.17 1.04zM284.28 47.71l-5.79 1.67c.72-.61 1.43-1.26 2.08-1.99.22-.24.3-.58.23-.9a.987.987 0 00-.6-.7l-3.57-1.43c-4.35-5.18-9.83-7.83-14.36-7.16l-1.03-.78 4.52-12.95c1.31-3.78-1.15-6.84-4.24-7.91-2.9-1-6.42-.31-7.95 2.83-3.18-.33-5.95.47-8.24 2.39-.28.23-.41.59-.34.95.07.36.32.65.66.76l6.71 2.32 3.17 1.09c-7.17 9.31-8.36 19.83-3.05 27.71.97 1.44 2.17 2.68 3.56 3.74-.08.78.05 1.58.4 2.3.13.26.28.51.45.74l-.07.21-7.28-.26c-.51-.04-.93.33-1.02.82a1 1 0 00.66 1.13l11.92 4.11c.11.04.22.05.33.05.28 0 .55-.12.75-.34.27-.3.33-.74.15-1.1l-1.16-2.41.24-.71a4.34 4.34 0 002.16-1.38c.23.04.45.08.69.11.94.11 1.86.17 2.76.17 7.57 0 13.75-3.9 18.4-11.63.21-.35.19-.8-.06-1.13-.26-.3-.68-.44-1.08-.32zm-9.02-1.88c.11.13.24.23.4.29l2.42.97c-3.36 3.21-7.58 4.89-11.75 4.66-3.28-.19-6.07-1.58-7.65-3.81-.99-1.4-1.31-3.13-.86-4.75a5.448 5.448 0 013.07-3.54c.88-.39 1.85-.58 2.86-.58 3.66.01 7.97 2.46 11.51 6.76zm-22.41-25.48l-.78 2.25-3.88-1.34c1.39-.72 2.93-1.02 4.66-.91zm3.31 42.24l1.34.05c.44.01.84-.26.98-.67l.09-.27c.11.05.22.11.33.15.13.04.26.07.39.1l-.15.42c-.09.25-.07.52.04.76l.3.61-3.32-1.15zm8.38-3.93l.33-.96c.18-.52-.1-1.09-.62-1.27-.52-.18-1.09.1-1.27.62l-.51 1.47c-.42 1.2-1.72 1.84-2.91 1.43-.3-.1-.57-.27-.79-.47-.03-.03-.05-.06-.07-.08-.17-.18-.33-.38-.44-.61-.27-.55-.3-1.18-.1-1.76l.51-1.47c.18-.52-.1-1.09-.62-1.27-.52-.18-1.09.1-1.27.62l-.13.37c-.95-.81-1.79-1.74-2.49-2.78-5.09-7.55-3.66-17.43 3.83-26.44.21-.25.28-.59.19-.91-.09-.32-.33-.57-.64-.68l-3.56-1.23 1.19-3.44c.92-2.66 3.61-3.09 5.73-2.36 2.16.75 3.93 2.7 3.01 5.37l-4.76 13.63c-.14.41-.01.86.34 1.13l.44.33a7.417 7.417 0 00-4.02 4.75c-.61 2.2-.18 4.55 1.16 6.44 1.94 2.73 5.28 4.42 9.17 4.64.3.02.6.03.9.03 3.36 0 6.68-1.09 9.62-3.07l.8.61c.25.19.58.25.88.17l3.81-1.1c-4.6 6.34-10.55 9.12-17.71 8.29zM328.06 166.21l.59-3.12a3.743 3.743 0 003.34-3.03c.38-2.02-.94-3.98-2.96-4.36-.62-.12-1.26-.07-1.86.13-.48-.41-1.06-.68-1.68-.8-.97-.18-1.97.02-2.79.58-.82.56-1.37 1.41-1.56 2.39-.19.98.02 1.97.58 2.79.37.54.85.96 1.42 1.25l-.59 3.1c-5.83-.82-12.38-.72-12.92 2.14l-3.49 18.39c-.39 2.06.87 4.04 2.82 4.41l3.37.64c1.94.36 3.85-1.01 4.24-3.07l.95-5.01c.09-.45.33-.84.67-1.1.32-.24.71-.34 1.08-.26l5.52 1.05c.79.15 1.3 1.01 1.13 1.91l-.95 5.01c-.19.98-.01 1.98.51 2.81.53.85 1.35 1.42 2.31 1.6l3.37.64c.21.04.42.06.63.06 1.71 0 3.26-1.29 3.61-3.13l3.49-18.39c.67-3.39-7.57-5.81-10.83-6.63zm-4.94-7.83c.09-.46.34-.85.72-1.11.38-.26.83-.36 1.29-.27.52.1.84.41 1.03.65.31.41.88.51 1.31.25.26-.16.68-.32 1.2-.23.93.18 1.54 1.08 1.36 2.02-.18.94-1.08 1.56-2.01 1.38a.995.995 0 00-1.17.8l-1.4 7.4c-.5.09-1.14-.03-1.57-.29l1.41-7.41a1 1 0 00-.16-.75c-.15-.22-.38-.37-.64-.42a1.69 1.69 0 01-1.1-.72c-.26-.38-.35-.84-.27-1.3zm-.93 8.74l-.39 2.04c-.05.29.02.59.21.82.68.84 1.91 1.32 3.08 1.32.61 0 1.21-.13 1.71-.4.26-.14.45-.4.5-.69l.38-2.02c6.51 1.62 9.23 3.67 9.27 4.27-.37.82-5.34 1.61-13.15.13-7.8-1.48-12.14-4.04-12.19-4.92.27-.59 3.68-1.52 10.58-.55zm11.27 23.74c-.19.98-1.05 1.64-1.9 1.48l-3.37-.64c-.4-.08-.75-.32-.99-.7-.25-.4-.33-.89-.24-1.38l.95-5.01c.38-1.99-.84-3.9-2.72-4.25l-5.52-1.05a3.39 3.39 0 00-2.64.62 3.79 3.79 0 00-1.45 2.34l-.95 5.01c-.19.98-1.05 1.65-1.9 1.48l-3.37-.64c-.86-.16-1.42-1.09-1.23-2.07l3.02-15.95c2.71 2.13 8.41 3.71 12.28 4.45 3.01.57 5.93.87 8.41.87.59 0 1.16-.02 1.69-.05 1.18-.08 2.16-.24 2.96-.48l-3.03 15.97zM99.43 82.81c.42-3.75-.63-7.45-2.97-10.4a13.947 13.947 0 00-9.43-5.23c-7.72-.87-14.7 4.73-15.57 12.48-.58 5.14 1.68 9.94 5.51 12.86l-2.25 4.34c-.15.29-.15.64.01.93.16.29.44.49.77.52l15.84 1.79c.04 0 .08.01.11.01.29 0 .56-.12.75-.34.22-.25.3-.59.21-.91l-1.22-4.74c4.38-1.99 7.66-6.17 8.24-11.31zm-9.32 15.14l-12.96-1.46 1.48-2.86c1.57.87 3.32 1.46 5.21 1.67a13.815 13.815 0 005.45-.46l.82 3.11zm-6.03-4.65c-6.62-.75-11.39-6.77-10.64-13.42.7-6.2 5.94-10.79 12-10.79.45 0 .9.03 1.36.08 3.2.36 6.07 1.96 8.08 4.49 2.01 2.54 2.92 5.71 2.55 8.93-.74 6.65-6.74 11.45-13.35 10.71z"/><path d="M84.22 72.51c-1.75-.6-3.63-.49-5.29.33a6.917 6.917 0 00-3.53 4.01c-1.24 3.64.69 7.61 4.31 8.86.74.25 1.5.38 2.26.38 1.04 0 2.07-.24 3.03-.71a6.917 6.917 0 003.53-4.01c1.24-3.64-.69-7.62-4.31-8.86zm2.42 8.21a4.94 4.94 0 01-2.52 2.86c-1.18.58-2.52.66-3.76.23-2.58-.89-3.95-3.72-3.06-6.32a4.953 4.953 0 014.68-3.36c.54 0 1.08.09 1.6.27 2.57.89 3.95 3.72 3.06 6.32zM229.11 180.92l.86 3.5 1.56 6.33c.44 1.8 1.56 3.32 3.15 4.28 1.1.66 2.33 1 3.58 1 .56 0 1.12-.07 1.68-.21l2.25-.55c1.8-.44 3.32-1.56 4.28-3.15a6.93 6.93 0 00.8-5.26l-.7-2.83-.86-3.5-.86-3.5-.88-3.57c-.92-3.72-4.69-6-8.41-5.08l-2.25.55c-1.8.44-3.32 1.56-4.28 3.15a6.924 6.924 0 00-.8 5.26l.88 3.58zm1.63-7.8a4.888 4.888 0 013.05-2.24l2.25-.55c.4-.1.79-.14 1.18-.14 2.22 0 4.25 1.51 4.8 3.76l.64 2.6-2.67.66c-.54.13-.86.67-.73 1.21a.992.992 0 001.21.73l2.67-.66.39 1.56-2.67.66c-.54.13-.86.67-.73 1.21a.992.992 0 001.21.73l2.67-.66.39 1.56-2.67.66c-.54.13-.86.67-.73 1.21a.992.992 0 001.21.73l2.67-.66.46 1.86c.32 1.28.11 2.61-.57 3.74a4.888 4.888 0 01-3.05 2.24l-2.25.55c-1.28.32-2.61.11-3.74-.57a4.888 4.888 0 01-2.24-3.05l-.46-1.86 2.67-.66c.54-.13.86-.67.73-1.21a.987.987 0 00-1.21-.73l-2.67.66-.39-1.56 2.67-.66c.54-.13.86-.67.73-1.21a.987.987 0 00-1.21-.73l-2.67.66-.39-1.56 2.67-.66c.54-.13.86-.67.73-1.21a.987.987 0 00-1.21-.73l-2.67.66-.64-2.6a4.87 4.87 0 01.57-3.74z"/><path d="M250.19 185.33l-.8-3.25a.987.987 0 00-1.21-.73c-.54.13-.86.67-.73 1.21l.8 3.25c1.24 5.01-1.81 10.09-6.79 11.32-4.98 1.22-10.04-1.85-11.28-6.86l-.8-3.25a.987.987 0 00-1.21-.73c-.54.13-.86.67-.73 1.21l.8 3.25c1.28 5.18 5.92 8.66 11.01 8.66.57 0 1.14-.06 1.71-.15l1 4.06-3.96.98c-.26.06-.48.23-.62.45-.14.23-.18.5-.12.76l.75 3.03a.992.992 0 001.21.73l9.86-2.43c.26-.06.48-.23.62-.45.14-.23.18-.5.12-.76l-.75-3.03a.987.987 0 00-1.21-.73l-3.96.98-1-4.05c5.47-1.89 8.71-7.72 7.29-13.47zm-2.57 19.79l-7.92 1.95-.27-1.09 3.96-.98 3.96-.98.27 1.1zM15.78 85.14c-2.13-1.51-5.27-1.6-8.65-.32 1.12-4.11.84-7.36-.82-9.27-.94-1.09-2.77-2.23-6.12-1.53-.33.07-.61.3-.73.62l-6.21 16.15-7.51 1.58c-.54.11-.89.64-.77 1.18l3.45 16.39c.05.26.21.49.43.63.16.11.35.16.55.16.07 0 .14-.01.21-.02l22.86-4.82a4.041 4.041 0 003.12-3.13l2.43-11.72c.36-2.48-.45-4.64-2.24-5.9zm-28.64 8.98l6.08-1.28 3.04 14.43-6.08 1.28-3.04-14.43zm28.91-3.43l-2.42 11.66c-.17.79-.78 1.42-1.57 1.58l-13.84 2.92-3.19-15.12 6.09-15.85c1.24-.18 2.73-.1 3.67.98 1.43 1.64 1.34 5.09-.25 9.45-.14.39-.03.82.28 1.1.31.27.76.32 1.12.13 3.43-1.82 6.75-2.11 8.66-.77 1.21.84 1.7 2.22 1.45 3.92zM49.87 194.06l.25-.51 2.11 1.02c.49.24 1.02.36 1.55.36a3.585 3.585 0 003.23-2.03l4.53-9.34c.86-1.78.12-3.93-1.65-4.79l-2.11-1.02 1.92-3.95c1.41-2.92-4.01-7.18-9.64-9.91-2.97-1.44-5.96-2.44-8.4-2.81-3.61-.55-4.91.45-5.36 1.38l-9.82 20.26c-1.16 2.39-.17 5.28 2.22 6.43l14.76 7.16a4.762 4.762 0 003.67.21c1.2-.44 2.18-1.31 2.74-2.46zm9.14-13.5c.78.38 1.11 1.33.72 2.12l-4.53 9.34c-.19.38-.51.67-.91.81s-.82.12-1.2-.07l-2.11-1.02 5.91-12.2 2.12 1.02zM39.75 162.9c.43 0 .96.04 1.6.14 2.25.34 5.03 1.28 7.83 2.64 6.53 3.17 9.07 6.51 8.72 7.24-.36.73-4.55.81-11.08-2.36-2.8-1.36-5.25-2.96-6.92-4.51-1.76-1.64-1.89-2.54-1.8-2.73.06-.14.5-.42 1.65-.42zm4.57 31.6l-14.76-7.16c-1.39-.67-1.97-2.36-1.29-3.76l8.66-17.87c.38.54.89 1.14 1.6 1.8.78.73 1.72 1.46 2.77 2.18l-1.75 3.61-1.21-.59a.958.958 0 00-.76-.04c-.25.09-.46.27-.57.51l-2.78 5.74c-.24.5-.03 1.1.46 1.34l4.22 2.04a.976.976 0 00.77.04c.25-.09.46-.27.57-.51l2.78-5.74c.24-.5.03-1.1-.46-1.34l-1.21-.59 1.65-3.4c.93.55 1.91 1.09 2.94 1.59 3.52 1.71 7.47 2.98 10.27 2.98.18 0 .35-.01.52-.02l-8.66 17.86c-.33.68-.9 1.19-1.61 1.44-.72.26-1.48.21-2.15-.11zm-3.53-18.38l-1.91 3.94-2.42-1.17 1.91-3.94 2.42 1.17zM207.4 66.1l-20.42-11.59c-.98-.56-2.15-.55-3.13.02-.98.57-1.57 1.59-1.57 2.73v23.18c0 1.14.58 2.16 1.57 2.73.49.29 1.03.43 1.58.43.53 0 1.06-.14 1.55-.41L207.4 71.6c1-.57 1.6-1.59 1.6-2.75s-.6-2.18-1.6-2.75zm-.98 3.75L186 81.44c-.51.29-.96.09-1.13-.01-.17-.1-.57-.4-.57-1V57.25c0-.6.4-.9.57-1 .1-.06.31-.16.58-.16.17 0 .36.04.55.15l20.42 11.59c.53.3.58.8.58 1.01 0 .21-.06.71-.58 1.01zM275.36 99.09c2.81-2.33 6.35-3.42 9.97-3.07 7.48.72 12.97 7.42 12.25 14.94l-1.6-.15a3.295 3.295 0 00-3.59 2.96l-1.63 16.94a3.3 3.3 0 002.96 3.59l5.18.5c.11.01.21.02.32.02.76 0 1.49-.26 2.08-.75.68-.56 1.1-1.35 1.18-2.22l.27-2.77 2.98-.39a2.703 2.703 0 002.35-2.44l.46-4.78a2.7 2.7 0 00-1.84-2.84l-2.86-.95.27-2.77c.08-.87-.18-1.73-.74-2.41-.56-.68-1.35-1.1-2.22-1.18l-1.6-.15c.82-8.62-5.48-16.3-14.05-17.12-4.16-.4-8.22.85-11.44 3.52-3.22 2.67-5.21 6.43-5.62 10.6l-1.6-.15a3.306 3.306 0 00-3.59 2.96l-.27 2.77-2.98.39a2.703 2.703 0 00-2.35 2.44l-.46 4.78a2.71 2.71 0 001.84 2.84l2.86.95-.27 2.77c-.08.87.18 1.73.73 2.41.55.68 1.35 1.1 2.22 1.18l5.18.5c.11.01.21.02.32.02 1.67 0 3.11-1.27 3.27-2.97l1.63-16.94c.08-.87-.18-1.73-.74-2.41-.56-.68-1.35-1.1-2.22-1.18l-1.6-.15c.4-3.67 2.14-6.96 4.95-9.29zm28.3 20.62l2.42.8c.32.11.52.41.48.75l-.46 4.78c-.03.34-.29.6-.62.64l-2.53.33.35-3.66.36-3.64zm-1.81-5.95c.22.27.32.6.29.94l-.82 8.47-.47 4.9-.34 3.57c-.03.34-.2.65-.46.87-.26.22-.6.32-.94.29l-5.18-.5a1.29 1.29 0 01-1.16-1.41l1.63-16.94c.06-.67.63-1.16 1.28-1.16.04 0 .08 0 .13.01l2.59.25 2.59.25c.33.03.64.2.86.46zm-42.64 7.77l.46-4.78c.03-.34.29-.6.62-.64l2.53-.33-.7 7.31-2.42-.8a.707.707 0 01-.49-.76zm13.52-10.57c.22.27.32.6.29.94l-1.63 16.94c-.03.34-.2.65-.46.87-.27.22-.6.32-.94.29l-5.18-.5c-.34-.03-.65-.2-.87-.46-.22-.26-.32-.6-.29-.94l.65-6.78.64-6.6.34-3.57c.07-.71.71-1.23 1.41-1.16l2.59.25 2.59.25c.33.04.64.2.86.47zM200.99 243.12l-8.14-1.19a1.06 1.06 0 01-.8-.59l-3.64-7.41a3.043 3.043 0 00-2.75-1.72c-1.18 0-2.23.66-2.75 1.72l-3.64 7.41c-.16.32-.46.54-.8.59l-8.13 1.19c-1.16.17-2.11.97-2.47 2.09-.37 1.12-.07 2.33.77 3.16l5.89 5.77c.25.25.37.61.31.96l-1.39 8.15c-.2 1.17.27 2.32 1.23 3.01a3.034 3.034 0 003.22.22l7.28-3.84c.31-.17.68-.16.99 0l7.27 3.84c1.04.55 2.27.46 3.22-.23a3.05 3.05 0 001.23-3.01l-1.39-8.15c-.06-.35.06-.71.31-.96l5.89-5.77a3.074 3.074 0 00-1.71-5.24zm.3 3.82l-5.89 5.77c-.72.71-1.05 1.72-.88 2.72l1.39 8.15c.07.42-.09.81-.43 1.06-.33.24-.75.27-1.12.08l-7.27-3.84c-.89-.47-1.96-.47-2.86 0l-7.28 3.84c-.36.19-.78.16-1.11-.08-.34-.25-.5-.64-.43-1.06l1.39-8.14c.17-1-.16-2.01-.88-2.72l-5.89-5.77c-.3-.29-.4-.71-.27-1.11.13-.4.45-.67.86-.73l8.13-1.19c1-.14 1.86-.77 2.31-1.68l3.64-7.41c.18-.38.54-.6.95-.6.41 0 .77.22.96.6l3.64 7.41c.45.91 1.31 1.54 2.31 1.68l8.13 1.19c.41.06.73.33.86.73.14.39.04.81-.26 1.1zM92.69 252.69c.89-1.69 1.09-3.73.37-5.65l-.83-2.2a6.838 6.838 0 00-5.76-4.4c-4.27-4.28-10.43-5.74-15.76-3.73-3.74 1.42-6.65 4.31-8.2 8.16-.77 1.91-1.16 3.94-1.17 5.99l-2.63 1a3.804 3.804 0 00-2.2 4.91l6.24 16.46a3.834 3.834 0 003.57 2.47c.45 0 .9-.08 1.34-.25l1.58-.6 2.16 5.71c.59 1.54 2.02 2.51 3.5 2.51.4 0 .81-.07 1.21-.22l3.21-1.22c1.85-.7 2.76-2.87 2.01-4.84l-1.81-4.77c-.16-.43-.16-.89 0-1.29.15-.38.43-.66.78-.79l5.26-1.99c.76-.29 1.64.18 1.96 1.04l1.81 4.77c.35.94 1.03 1.69 1.9 2.13.9.45 1.9.5 2.81.16l3.21-1.21c1.85-.7 2.76-2.87 2.01-4.84l-6.57-17.31zm-2.34-7.15l.83 2.2c.95 2.51-.32 5.32-2.83 6.27l-6.47 2.45c-2.51.96-5.32-.32-6.28-2.83l-.83-2.2c-.95-2.51.32-5.32 2.83-6.28l6.47-2.45c.56-.21 1.14-.32 1.73-.32.68 0 1.36.14 2 .43 1.18.55 2.09 1.52 2.55 2.73zm-23.42 28.04c-.93.35-1.97-.12-2.33-1.06l-6.24-16.46c-.35-.94.11-1.98 1.04-2.33l2.06-.78c.17 1.36.48 2.72.98 4.04l6.06 15.99-1.57.6zm29.6-.61l-3.21 1.21c-.38.15-.81.12-1.21-.08-.42-.21-.75-.58-.93-1.05l-1.81-4.77c-.72-1.89-2.75-2.88-4.54-2.2l-5.26 1.99c-.88.33-1.56 1.01-1.93 1.91-.35.87-.36 1.85-.01 2.75l1.81 4.77c.35.93-.03 1.94-.85 2.26l-3.21 1.22c-.82.31-1.78-.19-2.13-1.13l-2.52-6.64-6.41-16.92c-.56-1.49-.87-3.03-.96-4.56.04-.18.04-.36-.02-.54-.03-1.91.3-3.79 1.01-5.56 1.34-3.33 3.85-5.83 7.06-7.04 4.08-1.55 8.76-.7 12.36 2.13-.14.04-.27.08-.41.13l-6.47 2.45c-3.54 1.34-5.33 5.31-3.99 8.86l.83 2.2c1.04 2.74 3.66 4.43 6.43 4.43.81 0 1.63-.14 2.42-.45l6.47-2.45a6.89 6.89 0 002.19-1.35l6.13 16.17c.36.93-.02 1.95-.84 2.26zM307.36 244.03c-2.66-1.28-6.03-1.38-8.56.3-.1-1.28-.55-2.53-1.35-3.7-1.83-2.69-5.14-4.33-8.27-4.1-2.72.2-4.93 1.78-6.22 4.45-4.57 9.47-.46 16.34 4.75 25.04.18.3.51.49.86.49.04 0 .09 0 .13-.01 10.05-1.34 17.99-2.41 22.55-11.88 2.36-4.84-.36-8.89-3.89-10.59zm2.11 9.74c-3.83 7.94-9.96 9.27-20.37 10.68-5.38-9.02-8.16-14.64-4.33-22.58 1.24-2.56 3.16-3.22 4.56-3.33.14-.01.29-.02.43-.02 2.27 0 4.7 1.29 6.04 3.25 1.18 1.73 1.33 3.71.43 5.58-.07.14-.1.29-.1.43 0 .37.21.73.57.9.5.24 1.1.03 1.33-.47 1.66-3.44 5.51-3.8 8.46-2.38 2.55 1.23 4.86 4.05 2.98 7.94zM390.76 85.14c-2.13-1.51-5.27-1.6-8.65-.32 1.12-4.11.84-7.36-.82-9.27-.94-1.09-2.77-2.23-6.12-1.53-.33.07-.61.3-.73.62l-6.21 16.15-7.5 1.58c-.54.11-.89.64-.77 1.18l3.45 16.39c.05.26.21.49.43.63.16.11.35.16.55.16.07 0 .14-.01.21-.02l22.86-4.82a4.041 4.041 0 003.12-3.13l2.43-11.72c.36-2.48-.46-4.64-2.25-5.9zm-28.64 8.98l6.08-1.28 3.04 14.43-6.08 1.28-3.04-14.43zm28.91-3.43l-2.42 11.66c-.17.79-.78 1.42-1.57 1.58l-13.84 2.92-3.19-15.12 6.1-15.85c1.24-.18 2.73-.1 3.67.98 1.43 1.64 1.34 5.09-.25 9.45a1 1 0 00.29 1.1c.31.27.76.32 1.12.13 3.43-1.82 6.75-2.11 8.66-.77 1.19.84 1.68 2.22 1.43 3.92zM178.45 141.15l-5.13-18.23c-1.25-4.44-4.18-8.07-8.25-10.23s-8.72-2.54-13.11-1.09c-8.46 2.81-13.15 11.94-10.66 20.78l5.01 17.81c.2.72.81 1.22 1.56 1.29.05 0 .1.01.15.01.68 0 1.3-.39 1.6-1.01l1.3-2.75c.19-.4.52-.68.94-.8.42-.12.86-.05 1.22.19l1.88 1.23c.84.55 1.88.71 2.86.44.97-.27 1.78-.95 2.21-1.86l.96-2.03c.19-.4.52-.68.94-.8.42-.12.86-.05 1.22.19l1.88 1.23c.84.55 1.89.71 2.86.44.97-.27 1.78-.95 2.21-1.86l.96-2.03c.19-.4.52-.68.95-.8.42-.12.85-.05 1.22.19l2.55 1.67c.62.41 1.42.39 2.02-.05.6-.44.85-1.21.65-1.93zM145.8 127.1c.27-.08.54-.11.81-.11 1.31 0 2.51.86 2.88 2.18.22.77.12 1.58-.27 2.27-.39.7-1.03 1.2-1.8 1.41-1.58.45-3.24-.48-3.69-2.07-.44-1.58.48-3.23 2.07-3.68zm28.52 12.67c-.84-.55-1.89-.71-2.86-.44-.97.27-1.78.95-2.21 1.86l-.96 2.03c-.19.4-.52.68-.94.8-.42.12-.85.05-1.22-.19l-1.88-1.23c-.84-.55-1.88-.71-2.86-.44-.98.27-1.78.95-2.21 1.86l-.96 2.03c-.19.4-.52.68-.94.8-.42.12-.85.05-1.22-.19l-1.88-1.23c-.84-.55-1.89-.71-2.86-.44-.97.27-1.78.95-2.21 1.86l-1.04 2.2-4.19-14.93c.8.53 1.75.84 2.74.84.45 0 .9-.06 1.35-.19a4.96 4.96 0 003-2.36c.65-1.16.81-2.51.45-3.79-.75-2.65-3.51-4.2-6.15-3.45-1.08.3-1.96.95-2.59 1.78.25-6.05 4.04-11.5 9.93-13.46 3.86-1.28 7.96-.95 11.54.96 3.58 1.9 6.16 5.1 7.26 9l4.96 17.65-2.05-1.33z"/><path d="M161.56 122.12a4.965 4.965 0 00-3.79-.45 4.96 4.96 0 00-3 2.36 4.965 4.965 0 00-.45 3.79c.62 2.2 2.63 3.64 4.81 3.64.45 0 .9-.06 1.35-.19 2.65-.75 4.2-3.51 3.45-6.15a4.983 4.983 0 00-2.37-3zm.16 5.81a2.992 2.992 0 01-5.49-.65c-.22-.77-.12-1.58.27-2.27s1.03-1.2 1.8-1.41c.27-.08.54-.11.81-.11.5 0 1 .13 1.46.38.7.39 1.2 1.03 1.41 1.8.23.76.13 1.56-.26 2.26zM142.04 178.93c-.36-.16-.78-.09-1.08.18-.7.65-1.82.79-2.56.77-.65 0-1.3-.08-1.99-.17-.48-.06-.96-.12-1.44-.16-2.9-.21-5.58.52-7.54 2.05-2.13 1.67-2.46 4.89-2.05 7.54l-2.08 2.2-7.56-7.56c-.02-.02-.05-.03-.08-.05l-.12-.09a.95.95 0 00-.21-.09c-.03-.01-.05-.03-.08-.04h-.05c-.02 0-.04-.02-.07-.02l-5.17-.49c-.29-.02-.59.08-.8.29a.99.99 0 00-.29.8l.49 5.17c0 .02.01.04.02.07v.06c.01.04.03.07.04.1.02.05.04.11.06.16.03.05.07.1.1.15.02.03.03.06.06.08l7.72 7.72-8.04 8.49a1 1 0 00.02 1.39l3.67 3.67c.19.2.45.29.71.29.25 0 .49-.09.69-.27l8.49-8.04 8.4 8.36c.19.19.45.29.71.29.26 0 .51-.1.71-.29l4.69-4.69a.99.99 0 00.29-.71c0-.27-.11-.52-.29-.71l-2.94-2.93a.219.219 0 01-.03-.05c-.01-.01-.03-.02-.05-.03l-5.21-5.18 2.16-2.04c.48.11.97.18 1.48.18 2.21 0 4.57-.94 5.93-2.13 1.69-1.48 2.88-3.69 3.45-6.38.49-2.32.48-4.69.47-6.98-.03-.4-.27-.75-.63-.91zm-15.15 17.65l-2.98-2.98 2.55-2.69 3.12 3.12-2.69 2.55zm-13.18-11.2c-.49 1.18-1.3 1.99-2.48 2.48l-.26-2.74 2.74.26zm-1.52 4.23a6.438 6.438 0 003.27-3.27l6.46 6.46-.13.13-3.05 3.22-6.55-6.54zm1.54 19.44l-2.29-2.29 11.1-11.71 2.9 2.9-11.71 11.1zm18.26.32l-1.57-1.56 3.27-3.27 1.57 1.56-3.27 3.27zm.29-6.24L129 206.4l-4.67-4.64 3.22-3.05.14-.13 4.59 4.55zm7.93-16.72c-.33 1.58-1.09 3.79-2.81 5.29-1.48 1.3-4.16 1.95-5.87 1.45l-4.15-4.15c-.37-2.16-.12-4.73 1.28-5.82 1.57-1.23 3.75-1.81 6.16-1.63.45.03.89.09 1.34.15.72.09 1.47.18 2.23.19.85-.01 1.58-.11 2.24-.33-.01 1.63-.09 3.28-.42 4.85z"/></g><defs><clipPath id="clip0"><path fill="#fff" transform="translate(0 250)" d="M0 0h375v375H0z"/></clipPath><clipPath id="clip1"><path fill="#fff" d="M0 0h375v250H0z"/></clipPath></defs></svg>