<svg width="375" height="625" viewBox="0 0 375 625" fill="none" xmlns="http://www.w3.org/2000/svg">
<g opacity="0.33" clip-path="url(#clip0)">
<path d="M92.69 252.7C93.58 251.01 93.78 248.97 93.06 247.05L92.23 244.85C91.58 243.14 90.3 241.78 88.63 241.02C87.94 240.71 87.21 240.52 86.47 240.45C82.2 236.17 76.04 234.71 70.71 236.72C64.91 238.92 61.39 244.64 61.35 250.87L58.7 251.87C56.74 252.61 55.75 254.82 56.5 256.78L62.74 273.24C63.1 274.19 63.81 274.95 64.73 275.37C65.23 275.6 65.76 275.71 66.3 275.71C66.75 275.71 67.21 275.63 67.64 275.46L69.22 274.86L71.38 280.57C71.74 281.51 72.41 282.26 73.28 282.7C73.79 282.95 74.33 283.08 74.87 283.08C75.28 283.08 75.69 283.01 76.08 282.86L79.29 281.64C80.2 281.29 80.91 280.59 81.29 279.66C81.65 278.76 81.66 277.74 81.31 276.8L79.5 272.03C79.34 271.6 79.34 271.14 79.5 270.74C79.65 270.36 79.93 270.08 80.28 269.95L85.54 267.96C85.89 267.83 86.29 267.85 86.65 268.03C87.04 268.22 87.34 268.57 87.51 269L89.32 273.77C90.06 275.73 92.18 276.76 94.03 276.06L97.24 274.84C99.09 274.14 100 271.97 99.25 270.01L92.69 252.7ZM85.8 242.41C86.48 242.41 87.16 242.55 87.8 242.84C88.99 243.37 89.89 244.34 90.35 245.55L91.18 247.75C92.13 250.26 90.86 253.08 88.35 254.03L81.88 256.48C80.66 256.94 79.34 256.9 78.16 256.37C76.97 255.84 76.07 254.87 75.61 253.66L74.78 251.46C74.32 250.24 74.36 248.92 74.89 247.74C75.42 246.55 76.39 245.65 77.6 245.19L84.07 242.74C84.64 242.51 85.22 242.41 85.8 242.41ZM66.93 273.59C66.48 273.76 65.99 273.74 65.55 273.55C65.11 273.35 64.77 272.99 64.6 272.54L58.37 256.07C58.02 255.13 58.48 254.09 59.41 253.74L61.48 252.96C61.64 254.3 61.95 255.66 62.46 257L68.52 272.99L66.93 273.59ZM96.53 272.98L93.32 274.2C92.5 274.51 91.54 274.01 91.19 273.07L89.38 268.3C89.04 267.4 88.39 266.67 87.55 266.25C86.68 265.82 85.72 265.76 84.84 266.1L79.58 268.09C78.7 268.42 78.02 269.1 77.65 270C77.3 270.87 77.29 271.85 77.64 272.75L79.45 277.52C79.63 277.99 79.63 278.48 79.45 278.92C79.29 279.33 78.98 279.63 78.6 279.78L75.39 281C75.01 281.15 74.58 281.12 74.18 280.92C73.76 280.71 73.43 280.34 73.25 279.87L70.73 273.23L64.33 256.29C63.76 254.78 63.46 253.23 63.38 251.71C63.41 251.56 63.41 251.41 63.36 251.25C63.25 245.68 66.3 240.52 71.41 238.58C75.49 237.03 80.17 237.88 83.77 240.72C83.63 240.76 83.5 240.8 83.36 240.85L76.89 243.3C73.35 244.64 71.56 248.61 72.9 252.15L73.73 254.35C74.38 256.07 75.66 257.42 77.33 258.18C78.23 258.59 79.19 258.79 80.15 258.79C80.97 258.79 81.79 258.64 82.59 258.34L89.06 255.89C89.89 255.57 90.63 255.11 91.25 254.54L97.38 270.71C97.73 271.65 97.35 272.67 96.53 272.98Z" fill="#BAC8CF"/>
<path d="M143.1 325.44C141.59 325.37 140.67 324.77 140.22 323.54C140.11 323.25 139.88 323.02 139.59 322.93C139.3 322.84 138.98 322.88 138.72 323.06C137.55 323.86 136.44 323.92 135.22 323.25C134.74 322.98 134.13 323.16 133.86 323.64C133.59 324.12 133.77 324.73 134.25 325C135.78 325.85 137.36 325.93 138.86 325.27C139.55 326.35 140.79 327.34 143.01 327.45C143.03 327.45 143.04 327.45 143.06 327.45C143.59 327.45 144.03 327.03 144.06 326.5C144.08 325.93 143.65 325.47 143.1 325.44Z" fill="#BAC8CF"/>
<path d="M162.81 322.93C162.81 322.38 162.36 321.94 161.81 321.94H161.8L158.94 321.96L158.3 308C158.26 307.15 157.81 306.39 157.09 305.98C156.4 305.58 155.56 305.58 154.84 305.96L149.06 309.03C146.85 307.16 141.45 305.66 138.6 306.11L135.24 300.49C134.82 299.79 134.1 299.36 133.3 299.34C132.45 299.31 131.7 299.73 131.22 300.44L123.49 312L121.27 310.63C120.8 310.34 120.18 310.49 119.89 310.96C119.6 311.43 119.75 312.05 120.22 312.34L122.38 313.67L121.13 315.55L118.95 314.63C118.44 314.42 117.85 314.65 117.64 315.16C117.43 315.67 117.66 316.26 118.17 316.47L120.1 317.28C118.47 320.73 119.14 324.88 121.88 327.37C125.32 330.5 130.17 332.95 136.28 334.66C140.29 335.78 143.99 336.34 147.36 336.34C149.13 336.34 150.8 336.19 152.38 335.88C156.01 335.16 158.72 331.98 159.12 328.2L161.45 328.54C161.5 328.55 161.55 328.55 161.6 328.55C162.09 328.55 162.52 328.19 162.59 327.69C162.67 327.14 162.29 326.64 161.74 326.56L159.15 326.18L159.05 323.96L161.84 323.94C162.37 323.93 162.81 323.48 162.81 322.93ZM151.98 333.92C147.72 334.76 142.62 334.36 136.81 332.74C131 331.12 126.43 328.82 123.22 325.9C120.92 323.8 120.57 319.98 122.43 317.2L132.88 301.56C133.01 301.37 133.17 301.35 133.24 301.35H133.25C133.37 301.35 133.46 301.41 133.52 301.52L137.26 307.78C137.51 308.2 138.04 308.38 138.5 308.19C140.35 307.43 146.88 309.25 148.06 310.86C148.35 311.26 148.89 311.38 149.33 311.15L155.77 307.73C155.89 307.67 155.99 307.67 156.09 307.72C156.15 307.75 156.28 307.85 156.29 308.09L157.15 326.88C157.31 330.22 155.04 333.31 151.98 333.92Z" fill="#BAC8CF"/>
<path d="M24.1101 289.65L21.0601 288.43C20.6001 288.24 20.0701 288.27 19.6101 288.5C19.1801 288.71 18.8501 289.08 18.6601 289.54L18.4201 290.15C18.3801 290.25 18.3101 290.29 18.3001 290.29L4.50006 284.78C4.49006 284.76 4.46006 284.69 4.50006 284.59L4.74006 283.98C5.13006 283 4.69006 281.9 3.76006 281.53L0.710058 280.31C-1.92994 279.25 -5.04994 280.27 -6.90994 282.83L-16.0599 297.18C-17.3799 299 -17.4999 301.34 -16.3599 303.15C-15.3699 304.72 -13.6299 305.48 -11.8099 305.14L-4.38994 303.76C-3.02994 303.51 -1.65994 303.64 -0.419943 304.13L8.52006 307.7C9.76006 308.2 10.8501 309.05 11.6601 310.17L16.0901 316.28C16.9501 317.46 18.2401 318.11 19.6301 318.11C20.0001 318.11 20.3801 318.06 20.7601 317.97C22.8201 317.45 24.3501 315.68 24.6501 313.47L27.9101 296.67C28.3201 293.59 26.7601 290.71 24.1101 289.65ZM25.9401 296.34L22.6901 313.11C22.6901 313.13 22.6801 313.15 22.6801 313.17C22.4501 314.89 21.2401 315.78 20.2801 316.03C19.2701 316.29 18.3301 315.95 17.7201 315.1L13.2801 309C12.2501 307.58 10.8601 306.49 9.27006 305.85L0.330057 302.28C-0.729942 301.86 -1.86994 301.64 -3.01994 301.64C-3.58994 301.64 -4.16994 301.69 -4.73994 301.8L-12.1599 303.18C-13.1899 303.37 -14.0999 302.97 -14.6599 302.09C-15.1899 301.25 -15.4499 299.76 -14.3999 298.31L-5.24994 283.96C-3.96994 282.19 -1.81994 281.46 -0.0199413 282.17L2.86006 283.32L2.65006 283.85C2.44006 284.37 2.43006 284.94 2.62006 285.45C2.82006 285.99 3.23006 286.42 3.75006 286.63L17.5701 292.15C18.0901 292.36 18.6901 292.33 19.2101 292.07C19.7001 291.83 20.0801 291.41 20.2901 290.89L20.5001 290.36L23.3801 291.51C25.1601 292.23 26.2201 294.24 25.9401 296.34Z" fill="#BAC8CF"/>
<path d="M14.2601 299.68C12.5401 298.99 10.5801 299.84 9.89012 301.57C9.56012 302.41 9.57012 303.32 9.92012 304.15C10.2701 304.98 10.9301 305.62 11.7601 305.95C12.1601 306.11 12.5801 306.19 13.0001 306.19C13.4501 306.19 13.9001 306.1 14.3301 305.91C15.1501 305.55 15.7901 304.9 16.1201 304.06C16.8101 302.33 15.9701 300.37 14.2601 299.68ZM14.2701 303.32C14.1301 303.66 13.8701 303.93 13.5401 304.07C13.2101 304.21 12.8401 304.22 12.5001 304.09C12.1601 303.96 11.9001 303.7 11.7601 303.36C11.6201 303.02 11.6101 302.65 11.7501 302.31C11.9601 301.77 12.4801 301.44 13.0201 301.44C13.1901 301.44 13.3501 301.47 13.5201 301.54C14.2101 301.82 14.5501 302.62 14.2701 303.32Z" fill="#BAC8CF"/>
<path d="M0.960074 294.38C-0.759926 293.69 -2.71993 294.54 -3.40993 296.27C-3.73993 297.1 -3.72993 298.02 -3.37993 298.85C-3.02993 299.68 -2.36993 300.32 -1.53993 300.65C-1.12993 300.81 -0.719926 300.89 -0.299926 300.89C1.04007 300.89 2.30007 300.08 2.83007 298.77C3.51007 297.02 2.67007 295.06 0.960074 294.38ZM0.970074 298.01C0.690074 298.71 -0.0999258 299.06 -0.799926 298.78C-1.13993 298.65 -1.39993 298.39 -1.53993 298.05C-1.67993 297.71 -1.68993 297.34 -1.54993 297C-1.33993 296.46 -0.819926 296.14 -0.279926 296.14C-0.109926 296.14 0.0500741 296.17 0.220074 296.24C0.910074 296.51 1.25007 297.31 0.970074 298.01Z" fill="#BAC8CF"/>
<path d="M202.69 248.37C203.53 247.54 203.83 246.33 203.46 245.21C203.09 244.09 202.15 243.29 200.99 243.12L192.86 241.93C192.51 241.88 192.21 241.66 192.06 241.34L188.42 233.93C187.9 232.87 186.85 232.21 185.67 232.21C184.49 232.21 183.44 232.87 182.92 233.93L179.28 241.34C179.12 241.66 178.82 241.88 178.48 241.93L170.35 243.12C169.19 243.29 168.24 244.09 167.88 245.21C167.51 246.33 167.81 247.54 168.65 248.37L174.54 254.14C174.79 254.39 174.91 254.75 174.85 255.1L173.46 263.24C173.26 264.41 173.73 265.56 174.69 266.25C175.64 266.94 176.88 267.02 177.91 266.48L185.18 262.63C185.49 262.47 185.86 262.46 186.17 262.63L193.45 266.48C193.9 266.72 194.39 266.84 194.88 266.84C195.51 266.84 196.14 266.64 196.67 266.26C197.63 265.57 198.1 264.41 197.9 263.25L196.51 255.1C196.45 254.75 196.57 254.39 196.82 254.14L202.69 248.37ZM194.53 255.43L195.92 263.57C195.99 263.99 195.83 264.38 195.49 264.63C195.16 264.87 194.74 264.9 194.38 264.71L187.1 260.86C186.65 260.62 186.16 260.51 185.67 260.51C185.18 260.51 184.69 260.63 184.24 260.86L176.97 264.71C176.61 264.9 176.19 264.87 175.85 264.63C175.51 264.38 175.35 263.99 175.42 263.57L176.81 255.43C176.98 254.43 176.65 253.42 175.93 252.71L170.04 246.94C169.74 246.65 169.64 246.23 169.77 245.83C169.9 245.43 170.22 245.16 170.63 245.1L178.76 243.91C179.76 243.76 180.62 243.13 181.07 242.23L184.71 234.82C185.08 234.07 186.25 234.07 186.62 234.82L190.26 242.23C190.71 243.14 191.57 243.77 192.57 243.91L200.7 245.1C201.11 245.16 201.43 245.43 201.56 245.83C201.69 246.23 201.59 246.65 201.29 246.94L195.4 252.71C194.69 253.42 194.36 254.43 194.53 255.43Z" fill="#BAC8CF"/>
<path d="M81.6301 376.36L75.8901 374.44C75.8401 374.42 75.7901 374.43 75.7401 374.42C75.6701 374.41 75.6101 374.39 75.5401 374.4C75.4801 374.4 75.4201 374.42 75.3601 374.43C75.2901 374.44 75.2301 374.46 75.1701 374.48C75.1101 374.5 75.0701 374.54 75.0201 374.58C74.9701 374.62 74.9101 374.65 74.8601 374.7C74.8101 374.75 74.7801 374.81 74.7501 374.86C74.7201 374.9 74.6801 374.94 74.6601 374.98C74.3601 375.66 73.9301 376.27 73.4001 376.79C73.2401 376.95 73.0701 377.08 72.9001 377.21C73.2501 375.51 73.3301 373.79 73.1501 372.08L78.0101 357.58C78.4401 356.28 78.3501 354.89 77.7401 353.66C77.1301 352.43 76.0801 351.51 74.7901 351.08L72.5001 350.31C72.4201 349.34 71.7801 348.47 70.8101 348.15L60.7501 344.78C60.1201 344.57 59.4401 344.62 58.8401 344.92C58.5501 345.06 58.3101 345.26 58.1001 345.49L55.8101 344.72C54.5201 344.29 53.1301 344.39 51.9001 345C50.6701 345.62 49.7601 346.67 49.3201 347.97L44.4601 362.49C42.8701 364.19 41.5901 366.25 40.8001 368.6C40.7601 368.73 40.7201 368.86 40.6801 369C40.6601 369.04 40.6401 369.08 40.6301 369.12L37.5201 378.4C37.4401 378.65 37.4601 378.93 37.5701 379.16C37.6801 379.39 37.9001 379.58 38.1501 379.66L67.8501 389.61C67.9601 389.65 68.0601 389.66 68.1701 389.66C68.5901 389.66 68.9801 389.4 69.1201 388.98L70.3301 385.35C70.5801 385.38 70.8201 385.41 71.0701 385.41C71.4901 385.41 71.9201 385.36 72.3401 385.26C73.8101 384.92 74.7201 384.08 75.5301 383.34C76.0701 382.85 76.3101 382.53 76.6201 382.12C76.9101 381.74 77.2701 381.27 78.0501 380.41C79.0101 379.35 79.3601 379.07 79.7901 378.83C80.2901 378.56 80.8601 378.38 81.4601 378.3C81.9201 378.24 82.2901 377.87 82.3301 377.41C82.3601 376.94 82.0801 376.51 81.6301 376.36ZM59.4601 346.99C59.5201 346.82 59.6501 346.73 59.7201 346.69C59.7701 346.67 59.8501 346.64 59.9501 346.64C60.0001 346.64 60.0501 346.65 60.1001 346.67L70.1601 350.04C70.3901 350.12 70.5201 350.36 70.4801 350.62C70.4701 350.64 70.4501 350.65 70.4501 350.68C70.4401 350.7 70.4501 350.72 70.4401 350.74C70.3801 350.87 70.2801 350.95 70.2201 350.98C70.1501 351.02 70.0101 351.07 69.8401 351.01L59.7801 347.64C59.6101 347.58 59.5301 347.46 59.4901 347.39C59.4501 347.31 59.4001 347.16 59.4601 346.99ZM51.2001 348.59C51.4701 347.8 52.0301 347.15 52.7801 346.78C53.5301 346.4 54.3801 346.34 55.1601 346.6L57.4501 347.37C57.4801 347.68 57.5601 347.98 57.7001 348.27C58.0001 348.87 58.5101 349.32 59.1401 349.53L69.2001 352.9C69.4601 352.99 69.7301 353.03 69.9901 353.03C70.3701 353.03 70.7601 352.94 71.1101 352.76C71.3901 352.62 71.6401 352.42 71.8501 352.19L74.1401 352.96C74.9301 353.22 75.5601 353.78 75.9401 354.53C76.3101 355.28 76.3701 356.14 76.1101 356.93L72.3001 368.3C72.0701 367.65 71.8201 367.01 71.5101 366.39C70.0101 363.35 67.6701 360.91 64.7901 359.28C65.3801 358.82 65.8201 358.2 66.0601 357.48C66.3801 356.52 66.3101 355.49 65.8601 354.58C65.4101 353.67 64.6301 352.99 63.6701 352.67C62.7101 352.35 61.6801 352.42 60.7701 352.88C59.8601 353.33 59.1901 354.12 58.8601 355.08C58.6201 355.81 58.6001 356.57 58.7901 357.29C54.7101 356.75 50.6701 357.77 47.3601 359.97L51.2001 348.59ZM64.1701 356.85C64.0201 357.31 63.6901 357.68 63.2601 357.9C62.8301 358.11 62.3401 358.15 61.8901 358C61.4401 357.85 61.0701 357.53 60.8601 357.1C60.6501 356.67 60.6101 356.18 60.7701 355.72C60.9201 355.26 61.2501 354.89 61.6801 354.67C61.9301 354.54 62.2101 354.48 62.4801 354.48C62.6701 354.48 62.8601 354.51 63.0501 354.57C63.5001 354.72 63.8701 355.04 64.0801 355.47C64.2901 355.9 64.3301 356.39 64.1701 356.85ZM70.4901 378.53C70.4401 378.67 70.3901 378.81 70.3201 379.01C70.3001 379.07 70.2801 379.14 70.2701 379.2L67.5301 387.38L39.7201 378.06L42.4601 369.88C42.4901 369.82 42.5201 369.76 42.5301 369.7L42.5601 369.59C42.6001 369.46 42.6401 369.33 42.6801 369.21C45.2601 361.5 53.6101 357.32 61.2701 359.88C64.9801 361.12 67.9901 363.75 69.7301 367.27C71.4701 370.8 71.7401 374.8 70.4901 378.53ZM76.5401 379.07C75.7101 379.99 75.3001 380.52 75.0101 380.91C74.7201 381.29 74.5601 381.5 74.1501 381.87C73.4601 382.5 72.8201 383.09 71.8601 383.31C71.5601 383.38 71.2601 383.41 70.9601 383.4L72.1401 379.87C73.1201 379.5 74.0301 378.95 74.7801 378.22C75.2801 377.74 75.7001 377.19 76.0601 376.6L78.3301 377.36C77.8301 377.71 77.3301 378.19 76.5401 379.07Z" fill="#BAC8CF"/>
<path d="M167.68 388.89C167.06 388.58 166.44 388.28 165.81 387.97C166.04 387.49 166.27 387.02 166.5 386.54C167.14 385.21 167.37 383.85 166.71 382.47C165.91 380.82 164.04 379.93 162.25 380.27C160.83 380.54 159.84 381.53 159.23 382.79C159 383.27 158.76 383.76 158.53 384.24C154.24 379.4 147.96 376.42 141.4 378.05C135.01 379.64 129.41 384.55 126.96 390.64C125.67 393.85 125.37 397.42 126.3 400.77C126.44 401.27 127.02 401.65 127.53 401.47C127.98 401.31 128.43 401.16 128.88 401C130 403.5 131.6 405.76 133.78 407.46C136.17 409.31 139.04 410.33 142.04 410.56C145.39 410.81 149.06 410.12 152.11 408.7C154.99 407.36 157.27 404.87 158.98 402.25C160.34 400.16 161.54 397.73 162.01 395.22C162.4 395.41 162.79 395.6 163.19 395.8C164.33 396.36 165.4 396.84 166.71 396.6C168.57 396.25 169.92 394.58 169.99 392.71C170.06 391.1 169.1 389.61 167.68 388.89ZM135.87 406.51C133.59 405.03 131.89 402.81 130.77 400.36C132.46 399.78 133.83 399.01 134.51 397.26C134.71 396.76 134.29 396.16 133.81 396.03C133.24 395.87 132.78 396.22 132.58 396.73C132.13 397.88 130.9 398.2 129.84 398.57C129.22 398.78 128.61 399 127.99 399.21C127.01 394.09 129.28 388.88 132.9 385.24C134.32 383.81 135.97 382.59 137.75 381.64C144.29 386.72 149.08 400.57 146.93 408.24C145.78 408.47 144.62 408.61 143.45 408.62C140.77 408.63 138.13 407.97 135.87 406.51ZM166.24 394.66C165.43 394.78 164.75 394.34 164.05 394C163.27 393.62 162.5 393.24 161.72 392.86C161.02 392.52 160.26 392.94 160.22 393.72C160.19 394.21 160.14 394.5 160.02 395.04C159.89 395.59 159.73 396.14 159.55 396.67C159.12 397.9 158.56 399.08 157.91 400.2C156.51 402.62 154.64 404.91 152.23 406.37C151.26 406.96 150.21 407.36 149.13 407.68C150.73 399.43 146.23 386.43 139.77 380.69C139.96 380.61 140.15 380.53 140.34 380.46C143.49 379.33 146.82 379.3 149.96 380.46C153.11 381.63 155.87 383.9 157.9 386.55C158.31 387.09 159.26 387.3 159.63 386.55C160.06 385.66 160.5 384.76 160.93 383.87C161.11 383.49 161.28 383.09 161.58 382.79C162.12 382.25 162.92 382.05 163.65 382.27C164.98 382.68 165.43 384.13 164.88 385.32C164.47 386.19 164.04 387.05 163.62 387.92C163.4 388.38 163.46 389.04 163.98 389.29C164.65 389.62 165.33 389.95 166 390.28C166.79 390.67 167.58 391 167.89 391.91C168.3 393.12 167.5 394.46 166.24 394.66Z" fill="#BAC8CF"/>
<path d="M138.14 389.79C137.67 389.5 137.06 389.64 136.76 390.1C136.12 391.11 133.63 391.97 132.54 391.57C132.03 391.38 131.45 391.64 131.25 392.16C131.06 392.68 131.32 393.25 131.84 393.45C132.24 393.6 132.7 393.67 133.19 393.67C135.13 393.67 137.55 392.61 138.45 391.18C138.75 390.7 138.61 390.08 138.14 389.79Z" fill="#BAC8CF"/>
<path d="M345.99 378.75C346.81 376.83 346.66 374.62 345.54 372.8C343.66 369.73 339.65 368.76 336.6 370.63C334.75 371.76 333.62 373.7 333.52 375.82C331.17 376.19 328.94 377.01 326.88 378.28C324.81 379.55 323.07 381.16 321.68 383.08C319.74 382.21 317.5 382.33 315.65 383.47C314.17 384.38 313.13 385.81 312.73 387.5C312.33 389.19 312.61 390.94 313.52 392.42C314.64 394.24 316.53 395.38 318.62 395.52C318.94 397.46 319.62 399.29 320.65 400.97C323.59 405.77 328.84 408.39 334.34 408.38C337.5 408.38 340.75 407.52 343.7 405.71C347.6 403.32 350.4 399.65 351.58 395.38C352.77 391.08 352.18 386.69 349.93 383.02C348.89 381.36 347.57 379.92 345.99 378.75ZM349.64 394.86C348.59 398.64 346.11 401.89 342.64 404.02C335.51 408.39 326.4 406.56 322.34 399.93C321.31 398.25 320.68 396.4 320.47 394.42C320.42 393.91 319.98 393.53 319.48 393.53C319.46 393.53 319.43 393.53 319.41 393.53C317.72 393.66 316.11 392.83 315.22 391.38C314.59 390.35 314.39 389.14 314.67 387.96C314.95 386.79 315.66 385.8 316.69 385.17C318.16 384.27 319.98 384.29 321.45 385.23C321.91 385.53 322.53 385.39 322.83 384.93C324.13 382.92 325.85 381.25 327.92 379.98C330 378.71 332.26 377.94 334.64 377.69C335.19 377.63 335.58 377.15 335.53 376.6C335.36 374.87 336.17 373.23 337.64 372.33C339.75 371.04 342.53 371.71 343.83 373.84C344.72 375.29 344.73 377.1 343.84 378.55C343.56 379.01 343.7 379.61 344.15 379.91C345.81 381 347.18 382.4 348.21 384.07C350.17 387.28 350.68 391.1 349.64 394.86Z" fill="#BAC8CF"/>
<path d="M341.05 392.58C341.41 392.32 341.77 392.04 342.11 391.7C342.5 391.31 342.51 390.68 342.12 390.29C341.73 389.89 341.1 389.89 340.71 390.28C339.3 391.66 337.9 392.08 336.35 391.6C336.59 391.28 336.62 390.84 336.4 390.48C336.11 390.01 335.5 389.86 335.02 390.15L333.71 390.95C333.24 391.24 333.09 391.85 333.38 392.33C333.57 392.64 333.9 392.81 334.23 392.81C334.27 392.81 334.31 392.8 334.36 392.79C333.96 394.46 332.96 395.51 331.25 396.08C330.72 396.25 330.44 396.82 330.61 397.34C330.75 397.76 331.14 398.03 331.56 398.03C331.66 398.03 331.77 398.01 331.87 397.98C332.33 397.83 332.75 397.64 333.15 397.43L334.17 399.09C334.64 399.86 335.38 400.39 336.25 400.61C336.52 400.67 336.78 400.71 337.05 400.71C337.66 400.71 338.26 400.54 338.79 400.22L340.96 398.89C341.72 398.42 342.26 397.68 342.47 396.81C342.68 395.94 342.53 395.04 342.06 394.27L341.05 392.58ZM340.53 396.32C340.45 396.67 340.23 396.97 339.92 397.16L337.75 398.49C337.44 398.68 337.08 398.74 336.73 398.65C336.38 398.56 336.08 398.35 335.89 398.03L334.77 396.2C335.43 395.5 335.92 394.64 336.22 393.63C337.26 393.87 338.28 393.82 339.27 393.5L340.36 395.28C340.56 395.6 340.62 395.96 340.53 396.32Z" fill="#BAC8CF"/>
<path d="M311.27 254.65C313.61 249.79 310.89 245.75 307.36 244.05C304.7 242.77 301.33 242.67 298.8 244.35C298.7 243.07 298.25 241.82 297.45 240.65C295.62 237.96 292.31 236.32 289.18 236.55C286.46 236.75 284.25 238.33 282.96 241C278.39 250.47 282.5 257.34 287.71 266.04C287.89 266.34 288.22 266.53 288.57 266.53C288.61 266.53 288.66 266.53 288.7 266.52C298.77 265.18 306.7 264.12 311.27 254.65ZM289.1 264.45C283.72 255.43 280.94 249.81 284.77 241.87C286.01 239.31 287.93 238.65 289.33 238.54C289.47 238.53 289.62 238.52 289.76 238.52C292.03 238.52 294.46 239.81 295.8 241.77C296.98 243.5 297.13 245.48 296.23 247.35C296.16 247.49 296.13 247.64 296.13 247.78C296.13 248.15 296.34 248.51 296.7 248.68C297.2 248.92 297.8 248.71 298.03 248.21C299.69 244.77 303.54 244.41 306.49 245.83C309.04 247.06 311.34 249.87 309.47 253.76C305.64 261.72 299.51 263.05 289.1 264.45Z" fill="#BAC8CF"/>
<path d="M284.28 422.71L278.49 424.38C279.21 423.77 279.92 423.12 280.57 422.39C280.79 422.15 280.87 421.81 280.8 421.49C280.73 421.17 280.5 420.91 280.2 420.79L276.63 419.36C272.28 414.18 266.8 411.53 262.27 412.2L261.24 411.42L265.76 398.47C267.07 394.69 264.61 391.63 261.52 390.56C258.62 389.56 255.1 390.25 253.57 393.39C250.39 393.06 247.62 393.86 245.33 395.78C245.05 396.01 244.92 396.37 244.99 396.73C245.06 397.09 245.31 397.38 245.65 397.49L252.36 399.81L255.53 400.9C248.36 410.21 247.17 420.73 252.48 428.61C253.45 430.05 254.65 431.29 256.04 432.35C255.96 433.13 256.09 433.93 256.44 434.65C256.57 434.91 256.72 435.16 256.89 435.39L256.82 435.6L249.54 435.34C249.03 435.3 248.61 435.67 248.52 436.16C248.43 436.65 248.71 437.13 249.18 437.29L261.1 441.4C261.21 441.44 261.32 441.45 261.43 441.45C261.71 441.45 261.98 441.33 262.18 441.11C262.45 440.81 262.51 440.37 262.33 440.01L261.17 437.6L261.41 436.89C262.25 436.66 263 436.18 263.57 435.51C263.8 435.55 264.02 435.59 264.26 435.62C265.2 435.73 266.12 435.79 267.02 435.79C274.59 435.79 280.77 431.89 285.42 424.16C285.63 423.81 285.61 423.36 285.36 423.03C285.1 422.73 284.68 422.59 284.28 422.71ZM275.26 420.83C275.37 420.96 275.5 421.06 275.66 421.12L278.08 422.09C274.72 425.3 270.5 426.98 266.33 426.75C263.05 426.56 260.26 425.17 258.68 422.94C257.69 421.54 257.37 419.81 257.82 418.19C258.26 416.61 259.37 415.32 260.89 414.65C261.77 414.26 262.74 414.07 263.75 414.07C267.41 414.08 271.72 416.53 275.26 420.83ZM252.85 395.35L252.07 397.6L248.19 396.26C249.58 395.54 251.12 395.24 252.85 395.35ZM256.16 437.59L257.5 437.64C257.94 437.65 258.34 437.38 258.48 436.97L258.57 436.7C258.68 436.75 258.79 436.81 258.9 436.85C259.03 436.89 259.16 436.92 259.29 436.95L259.14 437.37C259.05 437.62 259.07 437.89 259.18 438.13L259.48 438.74L256.16 437.59ZM264.54 433.66L264.87 432.7C265.05 432.18 264.77 431.61 264.25 431.43C263.73 431.25 263.16 431.53 262.98 432.05L262.47 433.52C262.05 434.72 260.75 435.36 259.56 434.95C259.26 434.85 258.99 434.68 258.77 434.48C258.74 434.45 258.72 434.42 258.7 434.4C258.53 434.22 258.37 434.02 258.26 433.79C257.99 433.24 257.96 432.61 258.16 432.03L258.67 430.56C258.85 430.04 258.57 429.47 258.05 429.29C257.53 429.11 256.96 429.39 256.78 429.91L256.65 430.28C255.7 429.47 254.86 428.54 254.16 427.5C249.07 419.95 250.5 410.07 257.99 401.06C258.2 400.81 258.27 400.47 258.18 400.15C258.09 399.83 257.85 399.58 257.54 399.47L253.98 398.24L255.17 394.8C256.09 392.14 258.78 391.71 260.9 392.44C263.06 393.19 264.83 395.14 263.91 397.81L259.15 411.44C259.01 411.85 259.14 412.3 259.49 412.57L259.93 412.9C257.95 413.83 256.49 415.55 255.91 417.65C255.3 419.85 255.73 422.2 257.07 424.09C259.01 426.82 262.35 428.51 266.24 428.73C266.54 428.75 266.84 428.76 267.14 428.76C270.5 428.76 273.82 427.67 276.76 425.69L277.56 426.3C277.81 426.49 278.14 426.55 278.44 426.47L282.25 425.37C277.65 431.71 271.7 434.49 264.54 433.66Z" fill="#BAC8CF"/>
<path d="M319.84 341.16C320.27 341.16 320.66 340.88 320.8 340.45L321.7 337.51C322.36 335.36 321.16 333.08 319.02 332.42H319L319.93 329.39C321.61 329.28 323.26 328.84 324.79 328.03C327.46 326.6 329.46 324.26 330.46 321.42C330.83 321.46 331.19 321.48 331.55 321.48C335 321.48 337.86 319.66 340.08 316.03C340.1 316 340.1 315.96 340.12 315.93C340.14 315.89 340.17 315.85 340.18 315.81C340.19 315.79 340.18 315.77 340.19 315.75C340.21 315.67 340.21 315.59 340.21 315.51C340.21 315.46 340.21 315.41 340.2 315.36C340.19 315.29 340.16 315.22 340.14 315.15C340.12 315.1 340.1 315.05 340.07 315C340.03 314.94 339.99 314.89 339.94 314.84C339.9 314.79 339.86 314.75 339.8 314.71C339.78 314.69 339.77 314.67 339.74 314.66C339.7 314.64 339.66 314.63 339.62 314.61C339.58 314.59 339.55 314.56 339.51 314.55L333.19 312.6L333.95 310.12C334.11 309.59 333.82 309.03 333.29 308.87L312.35 302.42C312.1 302.34 311.82 302.37 311.59 302.49C311.36 302.61 311.18 302.83 311.1 303.08L310.34 305.56L304.02 303.61C303.98 303.6 303.94 303.6 303.9 303.6C303.86 303.59 303.82 303.57 303.77 303.57C303.74 303.57 303.72 303.58 303.69 303.58C303.63 303.58 303.57 303.59 303.5 303.61C303.43 303.63 303.36 303.64 303.3 303.67C303.25 303.69 303.21 303.72 303.17 303.75C303.1 303.79 303.04 303.84 302.99 303.9C302.96 303.93 302.93 303.97 302.91 304.01C302.86 304.08 302.82 304.15 302.79 304.23C302.78 304.25 302.77 304.26 302.76 304.28C302.75 304.31 302.76 304.35 302.75 304.38C302.74 304.43 302.72 304.47 302.71 304.52C302.49 309.2 304.17 312.49 307.64 314.36C306.86 317.29 307.19 320.35 308.61 323.04C309.42 324.58 310.53 325.88 311.86 326.91L310.93 329.93H310.92C309.89 329.61 308.79 329.72 307.83 330.23C306.87 330.74 306.17 331.59 305.85 332.63L304.95 335.57C304.87 335.82 304.9 336.1 305.02 336.33C305.14 336.56 305.36 336.74 305.61 336.82L319.54 341.11C319.64 341.15 319.74 341.16 319.84 341.16ZM337.65 316.07C335.84 318.52 333.72 319.61 331.1 319.46L332.62 314.52L337.65 316.07ZM304.74 305.94L309.77 307.49L308.25 312.43C306 311.08 304.86 308.98 304.74 305.94ZM310.4 322.13C309.16 319.77 308.91 317.06 309.7 314.5L311.97 307.12L312.73 304.64L331.76 310.5L328.72 320.36C327.93 322.92 326.2 325.02 323.85 326.27C321.5 327.52 318.8 327.78 316.26 327C313.73 326.22 311.64 324.49 310.4 322.13ZM313.63 328.06C314.28 328.4 314.97 328.69 315.68 328.91C316.4 329.13 317.13 329.27 317.86 329.36L317.1 331.84L312.87 330.54L313.63 328.06ZM307.16 335.21L307.77 333.23C307.93 332.7 308.29 332.27 308.78 332.01C309.27 331.75 309.82 331.7 310.34 331.86L318.43 334.35C319.51 334.68 320.12 335.84 319.78 336.94L319.17 338.92L307.16 335.21Z" fill="#BAC8CF"/>
<path d="M399.1 289.65L396.05 288.43C395.59 288.24 395.06 288.27 394.6 288.5C394.17 288.71 393.83 289.08 393.65 289.54L393.41 290.15C393.37 290.25 393.3 290.29 393.29 290.29L379.48 284.78C379.47 284.76 379.44 284.69 379.48 284.58L379.72 283.97C380.11 282.99 379.67 281.89 378.74 281.52L375.69 280.3C373.05 279.24 369.93 280.26 368.07 282.82L358.92 297.17C357.6 298.99 357.48 301.33 358.62 303.14C359.61 304.71 361.36 305.47 363.17 305.13L370.59 303.75C371.95 303.5 373.32 303.63 374.56 304.12L383.5 307.69C384.74 308.19 385.83 309.04 386.64 310.16L391.07 316.27C391.93 317.45 393.22 318.1 394.61 318.1C394.98 318.1 395.36 318.05 395.74 317.96C397.8 317.44 399.33 315.67 399.63 313.46L402.89 296.66C403.3 293.59 401.74 290.71 399.1 289.65ZM400.93 296.34L397.68 313.11C397.68 313.13 397.67 313.15 397.67 313.17C397.44 314.89 396.23 315.78 395.27 316.03C394.26 316.29 393.32 315.95 392.71 315.1L388.27 309C387.24 307.58 385.85 306.49 384.26 305.85L375.32 302.28C374.26 301.86 373.12 301.64 371.97 301.64C371.4 301.64 370.82 301.69 370.25 301.8L362.83 303.18C361.8 303.37 360.89 302.97 360.33 302.09C359.8 301.25 359.54 299.76 360.59 298.31L369.74 283.96C371.03 282.19 373.18 281.46 374.97 282.17L377.85 283.32L377.64 283.85C377.43 284.37 377.42 284.94 377.61 285.45C377.81 285.99 378.22 286.42 378.74 286.63L392.56 292.15C393.08 292.36 393.68 292.33 394.2 292.07C394.69 291.83 395.07 291.41 395.28 290.88L395.49 290.35L398.37 291.5C400.15 292.23 401.2 294.24 400.93 296.34Z" fill="#BAC8CF"/>
<path d="M375.94 294.38C374.22 293.69 372.26 294.54 371.57 296.27C371.24 297.1 371.25 298.02 371.6 298.85C371.95 299.68 372.61 300.32 373.44 300.65C373.85 300.81 374.26 300.89 374.68 300.89C376.02 300.89 377.29 300.08 377.81 298.77C378.14 297.94 378.13 297.02 377.78 296.19C377.43 295.35 376.77 294.71 375.94 294.38ZM375.95 298.01C375.67 298.71 374.87 299.06 374.18 298.78C373.84 298.65 373.58 298.39 373.44 298.05C373.3 297.71 373.29 297.34 373.43 297C373.64 296.46 374.16 296.13 374.7 296.13C374.87 296.13 375.03 296.16 375.2 296.23C375.54 296.36 375.8 296.62 375.94 296.96C376.08 297.3 376.09 297.67 375.95 298.01Z" fill="#BAC8CF"/>
<path d="M256.06 337.69C257.46 337.29 258.6 336.29 259.2 334.97C260.8 331.41 261.09 327.37 259.99 323.59C259.81 322.95 259.58 322.34 259.32 321.74C257.25 316.86 252.93 313.2 247.79 312.1L245.57 304.42L246.81 304.06C247.34 303.91 247.65 303.35 247.49 302.82L246.45 299.24C246.38 298.99 246.2 298.77 245.97 298.64C245.74 298.51 245.46 298.48 245.21 298.56L242.84 299.24L241.92 296.07C241.77 295.54 241.21 295.23 240.68 295.39L230.77 298.25C230.24 298.4 229.93 298.96 230.09 299.49L231.01 302.66L228.73 303.32C228.48 303.39 228.26 303.57 228.13 303.8C228 304.03 227.97 304.31 228.05 304.56L229.09 308.14C229.22 308.58 229.62 308.86 230.05 308.86C230.14 308.86 230.23 308.85 230.33 308.82L231.48 308.49L233.7 316.17C229.76 320.03 228.07 325.79 229.24 331.27C229.24 331.28 229.24 331.28 229.24 331.29C229.32 331.67 229.41 332.04 229.52 332.41C230.61 336.19 233.01 339.46 236.26 341.61C237.08 342.15 238.03 342.43 238.99 342.43C239.45 342.43 239.92 342.37 240.37 342.23L256.06 337.69ZM240.29 297.57L240.93 299.78L232.94 302.09L232.3 299.88L240.29 297.57ZM230.26 304.95L244.81 300.74L245.29 302.4L230.74 306.61L230.26 304.95ZM235.51 317.21C235.79 316.95 235.91 316.56 235.8 316.19L233.41 307.92L243.65 304.96L246.04 313.23C246.15 313.6 246.45 313.87 246.83 313.94C250.97 314.66 254.56 317.26 256.66 320.88C255.47 320.87 253.97 320.98 252.72 321.53C251.68 321.99 250.76 322.61 249.87 323.21L249.39 323.53C249.09 323.73 248.79 323.92 248.49 324.11C246.82 325.12 244.93 325.78 242.99 326.09C242.98 326.06 242.98 326.02 242.97 325.99C242.6 324.71 241.75 323.65 240.58 323C239.41 322.36 238.06 322.2 236.78 322.58C234.65 323.19 233.23 325.09 233.18 327.24C232.34 327.63 231.58 328.13 230.91 328.73C230.64 324.4 232.29 320.11 235.51 317.21ZM241.17 327.26C241.22 328.64 240.33 329.87 239 330.25C238.23 330.47 237.42 330.38 236.72 329.99C236.02 329.6 235.51 328.97 235.29 328.2C235.25 328.04 235.21 327.89 235.19 327.73C235.01 326.26 235.91 324.9 237.34 324.49C237.62 324.41 237.9 324.37 238.18 324.37C238.68 324.37 239.17 324.5 239.62 324.74C240.32 325.13 240.83 325.76 241.05 326.53C241.12 326.77 241.16 327.02 241.17 327.26ZM239.82 340.3C238.99 340.54 238.1 340.41 237.37 339.93C234.51 338.04 232.41 335.17 231.45 331.84C231.39 331.65 231.35 331.45 231.3 331.26C231.88 330.44 232.64 329.76 233.56 329.26C233.99 330.31 234.74 331.19 235.75 331.75C236.5 332.16 237.32 332.37 238.16 332.37C238.63 332.37 239.1 332.3 239.56 332.17C241.48 331.62 242.84 330 243.12 328.09C245.38 327.76 247.59 327 249.54 325.82C249.87 325.62 250.2 325.41 250.52 325.19L251.01 324.86C251.86 324.28 252.67 323.74 253.55 323.35C254.67 322.86 256.35 322.8 257.67 322.91C257.83 323.31 257.97 323.71 258.09 324.13C259.05 327.46 258.8 331.01 257.4 334.13C257.04 334.92 256.36 335.51 255.53 335.75L239.82 340.3Z" fill="#BAC8CF"/>
<path d="M254.78 330.65C254.21 328.7 252.17 327.57 250.22 328.14C249.27 328.41 248.49 329.04 248.02 329.9C247.55 330.76 247.43 331.76 247.71 332.7C247.98 333.65 248.61 334.43 249.47 334.9C250.02 335.2 250.63 335.36 251.24 335.36C251.58 335.36 251.93 335.31 252.27 335.21C254.21 334.65 255.34 332.6 254.78 330.65ZM251.71 333.29C251.28 333.41 250.82 333.36 250.43 333.15C250.04 332.93 249.75 332.58 249.63 332.14C249.5 331.71 249.56 331.25 249.77 330.86C249.98 330.47 250.34 330.18 250.78 330.06C250.94 330.02 251.09 329.99 251.25 329.99C251.98 329.99 252.65 330.47 252.87 331.21C253.11 332.1 252.6 333.03 251.71 333.29Z" fill="#BAC8CF"/>
<path d="M328.06 541.21L328.65 538.09C330.27 537.95 331.67 536.74 331.99 535.06C332.37 533.04 331.05 531.08 329.03 530.7C328.41 530.58 327.77 530.63 327.17 530.83C326.69 530.42 326.11 530.15 325.49 530.03C324.52 529.85 323.52 530.05 322.7 530.61C321.88 531.17 321.33 532.02 321.14 533C320.95 533.98 321.16 534.97 321.72 535.79C322.09 536.33 322.57 536.75 323.14 537.04L322.55 540.14C316.72 539.32 310.17 539.42 309.63 542.28L306.14 560.67C305.75 562.73 307.01 564.71 308.96 565.08L312.33 565.72C314.27 566.08 316.18 564.71 316.57 562.65L317.52 557.64C317.61 557.19 317.85 556.8 318.19 556.54C318.51 556.3 318.9 556.2 319.27 556.28L324.79 557.33C325.58 557.48 326.09 558.34 325.92 559.24L324.97 564.25C324.78 565.23 324.96 566.23 325.48 567.06C326.01 567.91 326.83 568.48 327.79 568.66L331.16 569.3C331.37 569.34 331.58 569.36 331.79 569.36C333.5 569.36 335.05 568.07 335.4 566.23L338.89 547.84C339.56 544.45 331.32 542.03 328.06 541.21ZM323.12 533.38C323.21 532.92 323.46 532.53 323.84 532.27C324.22 532.01 324.67 531.91 325.13 532C325.65 532.1 325.97 532.41 326.16 532.65C326.47 533.06 327.04 533.16 327.47 532.9C327.73 532.74 328.15 532.58 328.67 532.67C329.6 532.85 330.21 533.75 330.03 534.69C329.85 535.63 328.95 536.25 328.02 536.07C327.47 535.97 326.95 536.32 326.85 536.87L325.45 544.27C324.95 544.36 324.31 544.24 323.88 543.98L325.29 536.57C325.34 536.31 325.28 536.04 325.13 535.82C324.98 535.6 324.75 535.45 324.49 535.4C324.04 535.32 323.65 535.06 323.39 534.68C323.13 534.3 323.04 533.84 323.12 533.38ZM322.19 542.12L321.8 544.16C321.75 544.45 321.82 544.75 322.01 544.98C322.69 545.82 323.92 546.3 325.09 546.3C325.7 546.3 326.3 546.17 326.8 545.9C327.06 545.76 327.25 545.5 327.3 545.21L327.68 543.19C334.19 544.81 336.91 546.86 336.95 547.46C336.58 548.28 331.61 549.07 323.8 547.59C316 546.11 311.66 543.55 311.61 542.67C311.88 542.08 315.29 541.15 322.19 542.12ZM333.46 565.86C333.27 566.84 332.41 567.5 331.56 567.34L328.19 566.7C327.79 566.62 327.44 566.38 327.2 566C326.95 565.6 326.87 565.11 326.96 564.62L327.91 559.61C328.29 557.62 327.07 555.71 325.19 555.36L319.67 554.31C318.74 554.14 317.81 554.36 317.03 554.93C316.28 555.49 315.76 556.32 315.58 557.27L314.63 562.28C314.44 563.26 313.58 563.93 312.73 563.76L309.36 563.12C308.5 562.96 307.94 562.03 308.13 561.05L311.15 545.1C313.86 547.23 319.56 548.81 323.43 549.55C326.44 550.12 329.36 550.42 331.84 550.42C332.43 550.42 333 550.4 333.53 550.37C334.71 550.29 335.69 550.13 336.49 549.89L333.46 565.86Z" fill="#BAC8CF"/>
<path d="M99.4301 457.81C99.8501 454.06 98.8001 450.36 96.4601 447.41C94.1201 444.46 90.7701 442.6 87.0301 442.18C79.3101 441.31 72.3301 446.91 71.4601 454.66C70.8801 459.8 73.1401 464.6 76.9701 467.52L74.7201 471.86C74.5701 472.15 74.5701 472.5 74.7301 472.79C74.8901 473.08 75.1701 473.28 75.5001 473.31L91.3401 475.1C91.3801 475.1 91.4201 475.11 91.4501 475.11C91.7401 475.11 92.0101 474.99 92.2001 474.77C92.4201 474.52 92.5001 474.18 92.4101 473.86L91.1901 469.12C95.5701 467.13 98.8501 462.95 99.4301 457.81ZM90.1101 472.95L77.1501 471.49L78.6301 468.63C80.2001 469.5 81.9501 470.09 83.8401 470.3C84.3701 470.36 84.9001 470.39 85.4201 470.39C86.7501 470.39 88.0601 470.2 89.2901 469.84L90.1101 472.95ZM84.0801 468.3C77.4601 467.55 72.6901 461.53 73.4401 454.88C74.1401 448.68 79.3801 444.09 85.4401 444.09C85.8901 444.09 86.3401 444.12 86.8001 444.17C90.0001 444.53 92.8701 446.13 94.8801 448.66C96.8901 451.2 97.8001 454.37 97.4301 457.59C96.6901 464.24 90.6901 469.04 84.0801 468.3Z" fill="#BAC8CF"/>
<path d="M84.2201 447.51C82.4701 446.91 80.5901 447.02 78.9301 447.84C77.2601 448.66 76.0001 450.08 75.4001 451.85C74.1601 455.49 76.0901 459.46 79.7101 460.71C80.4501 460.96 81.2101 461.09 81.9701 461.09C83.0101 461.09 84.0401 460.85 85.0001 460.38C86.6701 459.56 87.9301 458.14 88.5301 456.37C89.7701 452.73 87.8401 448.75 84.2201 447.51ZM86.6401 455.72C86.2101 456.98 85.3101 458 84.1201 458.58C82.9401 459.16 81.6001 459.24 80.3601 458.81C77.7801 457.92 76.4101 455.09 77.3001 452.49C77.7301 451.23 78.6301 450.21 79.8201 449.63C80.5001 449.3 81.2401 449.13 81.9801 449.13C82.5201 449.13 83.0601 449.22 83.5801 449.4C86.1501 450.29 87.5301 453.12 86.6401 455.72Z" fill="#BAC8CF"/>
<path d="M229.11 555.92L229.97 559.42L231.53 565.75C231.97 567.55 233.09 569.07 234.68 570.03C235.78 570.69 237.01 571.03 238.26 571.03C238.82 571.03 239.38 570.96 239.94 570.82L242.19 570.27C243.99 569.83 245.51 568.71 246.47 567.12C247.43 565.53 247.71 563.66 247.27 561.86L246.57 559.03L245.71 555.53L244.85 552.03L243.97 548.46C243.05 544.74 239.28 542.46 235.56 543.38L233.31 543.93C231.51 544.37 229.99 545.49 229.03 547.08C228.07 548.67 227.79 550.53 228.23 552.34L229.11 555.92ZM230.74 548.12C231.42 546.99 232.51 546.19 233.79 545.88L236.04 545.33C236.44 545.23 236.83 545.19 237.22 545.19C239.44 545.19 241.47 546.7 242.02 548.95L242.66 551.55L239.99 552.21C239.45 552.34 239.13 552.88 239.26 553.42C239.37 553.88 239.78 554.18 240.23 554.18C240.31 554.18 240.39 554.17 240.47 554.15L243.14 553.49L243.53 555.05L240.86 555.71C240.32 555.84 240 556.38 240.13 556.92C240.24 557.38 240.65 557.68 241.1 557.68C241.18 557.68 241.26 557.67 241.34 557.65L244.01 556.99L244.4 558.55L241.73 559.21C241.19 559.34 240.87 559.88 241 560.42C241.11 560.88 241.52 561.18 241.97 561.18C242.05 561.18 242.13 561.17 242.21 561.15L244.88 560.49L245.34 562.35C245.66 563.63 245.45 564.96 244.77 566.09C244.09 567.22 243 568.02 241.72 568.33L239.47 568.88C238.19 569.2 236.86 568.99 235.73 568.31C234.6 567.63 233.8 566.54 233.49 565.26L233.03 563.4L235.7 562.74C236.24 562.61 236.56 562.07 236.43 561.53C236.3 560.99 235.76 560.66 235.22 560.8L232.55 561.46L232.16 559.9L234.83 559.24C235.37 559.11 235.69 558.57 235.56 558.03C235.43 557.49 234.89 557.16 234.35 557.3L231.68 557.96L231.29 556.4L233.96 555.74C234.5 555.61 234.82 555.07 234.69 554.53C234.56 553.99 234.02 553.66 233.48 553.8L230.81 554.46L230.17 551.86C229.85 550.58 230.05 549.26 230.74 548.12Z" fill="#BAC8CF"/>
<path d="M250.19 560.33L249.39 557.08C249.26 556.54 248.72 556.21 248.18 556.35C247.64 556.48 247.32 557.02 247.45 557.56L248.25 560.81C249.49 565.82 246.44 570.9 241.46 572.13C236.48 573.35 231.42 570.28 230.18 565.27L229.38 562.02C229.25 561.48 228.71 561.15 228.17 561.29C227.63 561.42 227.31 561.96 227.44 562.5L228.24 565.75C229.52 570.93 234.16 574.41 239.25 574.41C239.82 574.41 240.39 574.35 240.96 574.26L241.96 578.32L238 579.3C237.74 579.36 237.52 579.53 237.38 579.75C237.24 579.98 237.2 580.25 237.26 580.51L238.01 583.54C238.12 584 238.53 584.3 238.98 584.3C239.06 584.3 239.14 584.29 239.22 584.27L249.08 581.84C249.34 581.78 249.56 581.61 249.7 581.39C249.84 581.16 249.88 580.89 249.82 580.63L249.07 577.6C248.94 577.06 248.4 576.73 247.86 576.87L243.9 577.85L242.9 573.8C248.37 571.91 251.61 566.08 250.19 560.33ZM247.62 580.12L239.7 582.07L239.43 580.98L243.39 580L247.35 579.02L247.62 580.12Z" fill="#BAC8CF"/>
<path d="M15.7801 460.14C13.6501 458.63 10.5101 458.54 7.13013 459.82C8.25013 455.71 7.97013 452.46 6.31013 450.55C5.37013 449.46 3.54013 448.32 0.19013 449.02C-0.13987 449.09 -0.41987 449.32 -0.53987 449.64L-6.74987 465.79L-14.2599 467.37C-14.7999 467.48 -15.1499 468.01 -15.0299 468.55L-11.5799 484.94C-11.5299 485.2 -11.3699 485.43 -11.1499 485.57C-10.9899 485.68 -10.7999 485.73 -10.5999 485.73C-10.5299 485.73 -10.4599 485.72 -10.3899 485.71L12.4701 480.89C14.0401 480.56 15.2601 479.33 15.5901 477.76L18.0201 466.04C18.3801 463.56 17.5701 461.4 15.7801 460.14ZM-12.8599 469.12L-6.77987 467.84L-3.73987 482.27L-9.81987 483.55L-12.8599 469.12ZM16.0501 465.69L13.6301 477.35C13.4601 478.14 12.8501 478.77 12.0601 478.93L-1.77987 481.85L-4.96987 466.73L1.12013 450.88C2.36013 450.7 3.85013 450.78 4.79013 451.86C6.22013 453.5 6.13013 456.95 4.54013 461.31C4.40013 461.7 4.51013 462.13 4.82013 462.41C5.13013 462.68 5.58013 462.73 5.94013 462.54C9.37013 460.72 12.6901 460.43 14.6001 461.77C15.8101 462.61 16.3001 463.99 16.0501 465.69Z" fill="#BAC8CF"/>
<path d="M49.8701 569.06L50.1201 568.55L52.2301 569.57C52.7201 569.81 53.2501 569.93 53.7801 569.93C54.1801 569.93 54.5801 569.86 54.9601 569.73C55.8601 569.41 56.5901 568.77 57.0101 567.9L61.5401 558.56C62.4001 556.78 61.6601 554.63 59.8901 553.77L57.7801 552.75L59.7001 548.8C61.1101 545.88 55.6901 541.62 50.0601 538.89C47.0901 537.45 44.1001 536.45 41.6601 536.08C38.0501 535.53 36.7501 536.53 36.3001 537.46L26.4801 557.72C25.3201 560.11 26.3101 563 28.7001 564.15L43.4601 571.31C44.1201 571.63 44.8301 571.79 45.5401 571.79C46.0701 571.79 46.6101 571.7 47.1301 571.52C48.3301 571.08 49.3101 570.21 49.8701 569.06ZM59.0101 555.56C59.7901 555.94 60.1201 556.89 59.7301 557.68L55.2001 567.02C55.0101 567.4 54.6901 567.69 54.2901 567.83C53.8901 567.97 53.4701 567.95 53.0901 567.76L50.9801 566.74L56.8901 554.54L59.0101 555.56ZM39.7501 537.9C40.1801 537.9 40.7101 537.94 41.3501 538.04C43.6001 538.38 46.3801 539.32 49.1801 540.68C55.7101 543.85 58.2501 547.19 57.9001 547.92C57.5401 548.65 53.3501 548.73 46.8201 545.56C44.0201 544.2 41.5701 542.6 39.9001 541.05C38.1401 539.41 38.0101 538.51 38.1001 538.32C38.1601 538.18 38.6001 537.9 39.7501 537.9ZM44.3201 569.5L29.5601 562.34C28.1701 561.67 27.5901 559.98 28.2701 558.58L36.9301 540.71C37.3101 541.25 37.8201 541.85 38.5301 542.51C39.3101 543.24 40.2501 543.97 41.3001 544.69L39.5501 548.3L38.3401 547.71C38.1001 547.59 37.8301 547.58 37.5801 547.67C37.3301 547.76 37.1201 547.94 37.0101 548.18L34.2301 553.92C33.9901 554.42 34.2001 555.02 34.6901 555.26L38.9101 557.3C39.0501 557.37 39.2001 557.4 39.3501 557.4C39.4601 557.4 39.5701 557.38 39.6801 557.34C39.9301 557.25 40.1401 557.07 40.2501 556.83L43.0301 551.09C43.2701 550.59 43.0601 549.99 42.5701 549.75L41.3601 549.16L43.0101 545.76C43.9401 546.31 44.9201 546.85 45.9501 547.35C49.4701 549.06 53.4201 550.33 56.2201 550.33C56.4001 550.33 56.5701 550.32 56.7401 550.31L48.0801 568.17C47.7501 568.85 47.1801 569.36 46.4701 569.61C45.7501 569.87 44.9901 569.82 44.3201 569.5ZM40.7901 551.12L38.8801 555.06L36.4601 553.89L38.3701 549.95L40.7901 551.12Z" fill="#BAC8CF"/>
<path d="M207.4 441.1L186.98 429.51C186 428.95 184.83 428.96 183.85 429.53C182.87 430.1 182.28 431.12 182.28 432.26V455.44C182.28 456.58 182.86 457.6 183.85 458.17C184.34 458.46 184.88 458.6 185.43 458.6C185.96 458.6 186.49 458.46 186.98 458.19L207.4 446.6C208.4 446.03 209 445.01 209 443.85C209 442.69 208.4 441.67 207.4 441.1ZM206.42 444.85L186 456.44C185.49 456.73 185.04 456.53 184.87 456.43C184.7 456.33 184.3 456.03 184.3 455.43V432.25C184.3 431.65 184.7 431.35 184.87 431.25C184.97 431.19 185.18 431.09 185.45 431.09C185.62 431.09 185.81 431.13 186 431.24L206.42 442.83C206.95 443.13 207 443.63 207 443.84C207 444.05 206.94 444.55 206.42 444.85Z" fill="#BAC8CF"/>
<path d="M275.36 474.09C278.17 471.76 281.71 470.67 285.33 471.02C292.81 471.74 298.3 478.44 297.58 485.96L295.98 485.81C294.17 485.64 292.57 486.96 292.39 488.77L290.76 505.71C290.59 507.51 291.91 509.12 293.72 509.3L298.9 509.8C299.01 509.81 299.11 509.82 299.22 509.82C299.98 509.82 300.71 509.56 301.3 509.07C301.98 508.51 302.4 507.72 302.48 506.85L302.75 504.08L305.73 503.69C306.99 503.53 307.96 502.52 308.08 501.25L308.54 496.47C308.66 495.2 307.91 494.03 306.7 493.63L303.84 492.68L304.11 489.91C304.19 489.04 303.93 488.18 303.37 487.5C302.81 486.82 302.02 486.4 301.15 486.32L299.55 486.17C300.37 477.55 294.07 469.87 285.5 469.05C281.34 468.65 277.28 469.9 274.06 472.57C270.84 475.24 268.85 479 268.44 483.17L266.84 483.02C265.05 482.85 263.43 484.17 263.25 485.98L262.98 488.75L260 489.14C258.74 489.3 257.77 490.31 257.65 491.58L257.19 496.36C257.07 497.63 257.83 498.8 259.03 499.2L261.89 500.15L261.62 502.92C261.54 503.79 261.8 504.65 262.35 505.33C262.9 506.01 263.7 506.43 264.57 506.51L269.75 507.01C269.86 507.02 269.96 507.03 270.07 507.03C271.74 507.03 273.18 505.76 273.34 504.06L274.97 487.12C275.05 486.25 274.79 485.39 274.23 484.71C273.67 484.03 272.88 483.61 272.01 483.53L270.41 483.38C270.81 479.71 272.55 476.42 275.36 474.09ZM303.66 494.71L306.08 495.51C306.4 495.62 306.6 495.92 306.56 496.26L306.1 501.04C306.07 501.38 305.81 501.64 305.48 501.68L302.95 502.01L303.3 498.35L303.66 494.71ZM301.85 488.76C302.07 489.03 302.17 489.36 302.14 489.7L301.32 498.17L300.85 503.07L300.51 506.64C300.48 506.98 300.31 507.29 300.05 507.51C299.79 507.73 299.45 507.83 299.11 507.8L293.93 507.3C293.22 507.23 292.7 506.6 292.77 505.89L294.4 488.95C294.46 488.28 295.03 487.79 295.68 487.79C295.72 487.79 295.76 487.79 295.81 487.8L298.4 488.05L300.99 488.3C301.32 488.33 301.63 488.5 301.85 488.76ZM259.21 496.53L259.67 491.75C259.7 491.41 259.96 491.15 260.29 491.11L262.82 490.78L262.12 498.09L259.7 497.29C259.37 497.18 259.17 496.87 259.21 496.53ZM272.73 485.96C272.95 486.23 273.05 486.56 273.02 486.9L271.39 503.84C271.36 504.18 271.19 504.49 270.93 504.71C270.66 504.93 270.33 505.03 269.99 505L264.81 504.5C264.47 504.47 264.16 504.3 263.94 504.04C263.72 503.78 263.62 503.44 263.65 503.1L264.3 496.32L264.94 489.72L265.28 486.15C265.35 485.44 265.99 484.92 266.69 484.99L269.28 485.24L271.87 485.49C272.2 485.53 272.51 485.69 272.73 485.96Z" fill="#BAC8CF"/>
<path d="M200.99 618.12L192.85 616.93C192.5 616.88 192.21 616.66 192.05 616.34L188.41 608.93C187.89 607.87 186.84 607.21 185.66 607.21C184.48 607.21 183.43 607.87 182.91 608.93L179.27 616.34C179.11 616.66 178.81 616.88 178.47 616.93L170.34 618.12C169.18 618.29 168.23 619.09 167.87 620.21C167.5 621.33 167.8 622.54 168.64 623.37L174.53 629.14C174.78 629.39 174.9 629.75 174.84 630.1L173.45 638.25C173.25 639.42 173.72 640.57 174.68 641.26C175.22 641.65 175.84 641.84 176.47 641.84C176.96 641.84 177.45 641.72 177.9 641.48L185.18 637.64C185.49 637.47 185.86 637.48 186.17 637.64L193.44 641.48C194.48 642.03 195.71 641.94 196.66 641.25C197.62 640.56 198.09 639.4 197.89 638.24L196.5 630.09C196.44 629.74 196.56 629.38 196.81 629.13L202.7 623.36C203.54 622.53 203.84 621.32 203.47 620.2C203.1 619.09 202.15 618.29 200.99 618.12ZM201.29 621.94L195.4 627.71C194.68 628.42 194.35 629.43 194.52 630.43L195.91 638.58C195.98 639 195.82 639.39 195.48 639.64C195.15 639.88 194.73 639.91 194.36 639.72L187.09 635.88C186.2 635.41 185.13 635.41 184.23 635.88L176.95 639.72C176.59 639.91 176.17 639.88 175.84 639.64C175.5 639.39 175.34 639 175.41 638.58L176.8 630.44C176.97 629.44 176.64 628.43 175.92 627.72L170.03 621.95C169.73 621.66 169.63 621.24 169.76 620.84C169.89 620.44 170.21 620.17 170.62 620.11L178.75 618.92C179.75 618.78 180.61 618.15 181.06 617.24L184.7 609.83C184.88 609.45 185.24 609.23 185.65 609.23C186.06 609.23 186.42 609.45 186.61 609.83L190.25 617.24C190.7 618.15 191.56 618.78 192.56 618.92L200.69 620.11C201.1 620.17 201.42 620.44 201.55 620.84C201.69 621.23 201.59 621.65 201.29 621.94Z" fill="#BAC8CF"/>
<path d="M92.6901 627.69C93.5801 626 93.7801 623.96 93.0601 622.04L92.2301 619.84C91.5801 618.13 90.3 616.76 88.6301 616.01C87.9401 615.7 87.2101 615.51 86.4701 615.44C82.2001 611.16 76.0401 609.7 70.7101 611.71C66.9701 613.13 64.0601 616.02 62.5101 619.87C61.7401 621.78 61.3501 623.81 61.3401 625.86L58.7101 626.86C56.7501 627.6 55.7601 629.81 56.5101 631.77L62.7501 648.23C63.3301 649.75 64.7801 650.7 66.3201 650.7C66.7701 650.7 67.2201 650.62 67.6601 650.45L69.2401 649.85L71.4001 655.56C71.9901 657.1 73.4201 658.07 74.9001 658.07C75.3001 658.07 75.7101 658 76.1101 657.85L79.3201 656.63C81.1701 655.93 82.0801 653.76 81.3301 651.79L79.5201 647.02C79.3601 646.59 79.3601 646.13 79.5201 645.73C79.67 645.35 79.9501 645.07 80.3001 644.94L85.5601 642.95C86.3201 642.66 87.2001 643.13 87.5201 643.99L89.3301 648.76C89.6801 649.7 90.3601 650.45 91.2301 650.89C92.1301 651.34 93.1301 651.39 94.0401 651.05L97.2501 649.84C99.1001 649.14 100.01 646.97 99.2601 645L92.6901 627.69ZM90.3501 620.54L91.1801 622.74C92.1301 625.25 90.8601 628.06 88.3501 629.01L81.8801 631.46C79.3701 632.42 76.5601 631.14 75.6001 628.63L74.7701 626.43C73.82 623.92 75.0901 621.11 77.6001 620.15L84.0701 617.7C84.6301 617.49 85.2101 617.38 85.8001 617.38C86.4801 617.38 87.1601 617.52 87.8001 617.81C88.9801 618.36 89.8901 619.33 90.3501 620.54ZM66.9301 648.58C66.0001 648.93 64.9601 648.46 64.6001 647.52L58.3601 631.06C58.0101 630.12 58.4701 629.08 59.4001 628.73L61.4601 627.95C61.6301 629.31 61.9401 630.67 62.4401 631.99L68.5001 647.98L66.9301 648.58ZM96.5301 647.97L93.3201 649.18C92.9401 649.33 92.5101 649.3 92.1101 649.1C91.6901 648.89 91.3601 648.52 91.1801 648.05L89.3701 643.28C88.6501 641.39 86.6201 640.4 84.8301 641.08L79.5701 643.07C78.6901 643.4 78.0101 644.08 77.6401 644.98C77.2901 645.85 77.2801 646.83 77.6301 647.73L79.4401 652.5C79.7901 653.43 79.41 654.44 78.59 654.76L75.3801 655.98C74.5601 656.29 73.6001 655.79 73.2501 654.85L70.7301 648.21L64.3201 631.29C63.7601 629.8 63.4501 628.26 63.3601 626.73C63.4001 626.55 63.4001 626.37 63.3401 626.19C63.3101 624.28 63.6401 622.4 64.3501 620.63C65.6901 617.3 68.2001 614.8 71.4101 613.59C75.4901 612.04 80.17 612.89 83.7701 615.72C83.6301 615.76 83.5001 615.8 83.3601 615.85L76.8901 618.3C73.3501 619.64 71.5601 623.61 72.9001 627.16L73.7301 629.36C74.7701 632.1 77.3901 633.79 80.1601 633.79C80.9701 633.79 81.7901 633.65 82.5801 633.34L89.0501 630.89C89.8801 630.57 90.6201 630.11 91.2401 629.54L97.3701 645.71C97.7301 646.64 97.3501 647.66 96.5301 647.97Z" fill="#BAC8CF"/>
<path d="M307.36 619.03C304.7 617.75 301.33 617.65 298.8 619.33C298.7 618.05 298.25 616.8 297.45 615.63C295.62 612.94 292.31 611.3 289.18 611.53C286.46 611.73 284.25 613.31 282.96 615.98C278.39 625.45 282.5 632.32 287.71 641.02C287.89 641.32 288.22 641.51 288.57 641.51C288.61 641.51 288.66 641.51 288.7 641.5C298.75 640.16 306.69 639.09 311.25 629.62C313.61 624.78 310.89 620.73 307.36 619.03ZM309.47 628.77C305.64 636.71 299.51 638.04 289.1 639.45C283.72 630.43 280.94 624.81 284.77 616.87C286.01 614.31 287.93 613.65 289.33 613.54C289.47 613.53 289.62 613.52 289.76 613.52C292.03 613.52 294.46 614.81 295.8 616.77C296.98 618.5 297.13 620.48 296.23 622.35C296.16 622.49 296.13 622.64 296.13 622.78C296.13 623.15 296.34 623.51 296.7 623.68C297.2 623.92 297.8 623.71 298.03 623.21C299.69 619.77 303.54 619.41 306.49 620.83C309.04 622.06 311.35 624.88 309.47 628.77Z" fill="#BAC8CF"/>
<path d="M390.76 460.14C388.63 458.63 385.49 458.54 382.11 459.82C383.23 455.71 382.95 452.46 381.29 450.55C380.35 449.46 378.52 448.32 375.17 449.02C374.84 449.09 374.56 449.32 374.44 449.64L368.23 465.79L360.73 467.37C360.19 467.48 359.84 468.01 359.96 468.55L363.41 484.94C363.46 485.2 363.62 485.43 363.84 485.57C364 485.68 364.19 485.73 364.39 485.73C364.46 485.73 364.53 485.72 364.6 485.71L387.46 480.89C389.03 480.56 390.25 479.33 390.58 477.76L393.01 466.04C393.37 463.56 392.55 461.4 390.76 460.14ZM362.12 469.12L368.2 467.84L371.24 482.27L365.16 483.55L362.12 469.12ZM391.03 465.69L388.61 477.35C388.44 478.14 387.83 478.77 387.04 478.93L373.2 481.85L370.01 466.73L376.11 450.88C377.35 450.7 378.84 450.78 379.78 451.86C381.21 453.5 381.12 456.95 379.53 461.31C379.39 461.7 379.5 462.13 379.82 462.41C380.13 462.68 380.58 462.73 380.94 462.54C384.37 460.72 387.69 460.43 389.6 461.77C390.79 462.61 391.28 463.99 391.03 465.69Z" fill="#BAC8CF"/>
<path d="M178.45 516.15L173.32 497.92C172.07 493.48 169.14 489.85 165.07 487.69C161 485.53 156.35 485.15 151.96 486.6C143.5 489.41 138.81 498.54 141.3 507.38L146.31 525.19C146.51 525.91 147.12 526.41 147.87 526.48C147.92 526.48 147.97 526.49 148.02 526.49C148.7 526.49 149.32 526.1 149.62 525.48L150.92 522.73C151.11 522.33 151.44 522.05 151.86 521.93C152.28 521.81 152.72 521.88 153.08 522.12L154.96 523.35C155.8 523.9 156.84 524.06 157.82 523.79C158.79 523.52 159.6 522.84 160.03 521.93L160.99 519.9C161.18 519.5 161.51 519.22 161.93 519.1C162.35 518.98 162.79 519.05 163.15 519.29L165.03 520.52C165.87 521.07 166.92 521.23 167.89 520.96C168.86 520.69 169.67 520.01 170.1 519.1L171.06 517.07C171.25 516.67 171.58 516.39 172.01 516.27C172.43 516.15 172.86 516.22 173.23 516.46L175.78 518.13C176.4 518.54 177.2 518.52 177.8 518.08C178.4 517.64 178.65 516.87 178.45 516.15ZM145.8 502.1C146.07 502.02 146.34 501.99 146.61 501.99C147.92 501.99 149.12 502.85 149.49 504.17C149.71 504.94 149.61 505.75 149.22 506.44C148.83 507.14 148.19 507.64 147.42 507.85C145.84 508.3 144.18 507.37 143.73 505.78C143.29 504.2 144.21 502.55 145.8 502.1ZM174.32 514.77C173.48 514.22 172.43 514.06 171.46 514.33C170.49 514.6 169.68 515.28 169.25 516.19L168.29 518.22C168.1 518.62 167.77 518.9 167.35 519.02C166.93 519.14 166.5 519.07 166.13 518.83L164.25 517.6C163.41 517.05 162.37 516.89 161.39 517.16C160.41 517.43 159.61 518.11 159.18 519.02L158.22 521.05C158.03 521.45 157.7 521.73 157.28 521.85C156.86 521.97 156.43 521.9 156.06 521.66L154.18 520.43C153.34 519.88 152.29 519.72 151.32 519.99C150.35 520.26 149.54 520.94 149.11 521.85L148.07 524.05L143.88 509.12C144.68 509.65 145.63 509.96 146.62 509.96C147.07 509.96 147.52 509.9 147.97 509.77C149.25 509.41 150.32 508.57 150.97 507.41C151.62 506.25 151.78 504.9 151.42 503.62C150.67 500.97 147.91 499.42 145.27 500.17C144.19 500.47 143.31 501.12 142.68 501.95C142.93 495.9 146.72 490.45 152.61 488.49C156.47 487.21 160.57 487.54 164.15 489.45C167.73 491.35 170.31 494.55 171.41 498.45L176.37 516.1L174.32 514.77Z" fill="#BAC8CF"/>
<path d="M161.56 497.12C160.4 496.47 159.05 496.31 157.77 496.67C156.49 497.03 155.42 497.87 154.77 499.03C154.12 500.19 153.96 501.54 154.32 502.82C154.94 505.02 156.95 506.46 159.13 506.46C159.58 506.46 160.03 506.4 160.48 506.27C163.13 505.52 164.68 502.76 163.93 500.12C163.56 498.83 162.72 497.77 161.56 497.12ZM161.72 502.93C161.33 503.63 160.69 504.13 159.92 504.35C158.33 504.8 156.68 503.87 156.23 502.28C156.01 501.51 156.11 500.7 156.5 500.01C156.89 499.32 157.53 498.81 158.3 498.6C158.57 498.52 158.84 498.49 159.11 498.49C159.61 498.49 160.11 498.62 160.57 498.87C161.27 499.26 161.77 499.9 161.98 500.67C162.21 501.43 162.11 502.23 161.72 502.93Z" fill="#BAC8CF"/>
<path d="M142.04 553.93C141.68 553.77 141.26 553.84 140.96 554.11C140.26 554.76 139.14 554.9 138.4 554.88C137.75 554.88 137.1 554.8 136.41 554.71C135.93 554.65 135.45 554.59 134.97 554.55C132.07 554.34 129.39 555.07 127.43 556.6C125.3 558.27 124.97 561.49 125.38 564.14L123.3 566.34L115.74 558.78C115.72 558.76 115.69 558.75 115.66 558.73C115.62 558.7 115.58 558.67 115.54 558.64C115.47 558.6 115.4 558.57 115.33 558.55C115.3 558.54 115.28 558.52 115.25 558.51C115.23 558.51 115.22 558.51 115.2 558.51C115.18 558.51 115.16 558.49 115.13 558.49L109.96 558C109.67 557.98 109.37 558.08 109.16 558.29C108.95 558.5 108.84 558.79 108.87 559.09L109.36 564.26C109.36 564.28 109.37 564.3 109.38 564.33C109.38 564.35 109.38 564.37 109.38 564.39C109.39 564.43 109.41 564.46 109.42 564.49C109.44 564.54 109.46 564.6 109.48 564.65C109.51 564.7 109.55 564.75 109.58 564.8C109.6 564.83 109.61 564.86 109.64 564.88L117.36 572.6L109.32 581.09C108.95 581.48 108.96 582.1 109.34 582.48L113.01 586.15C113.2 586.35 113.46 586.44 113.72 586.44C113.97 586.44 114.21 586.35 114.41 586.17L122.9 578.13L131.3 586.49C131.49 586.68 131.75 586.78 132.01 586.78C132.27 586.78 132.52 586.68 132.72 586.49L137.41 581.8C137.6 581.61 137.7 581.36 137.7 581.09C137.7 580.82 137.59 580.57 137.41 580.38L134.47 577.45C134.46 577.44 134.45 577.42 134.44 577.4C134.43 577.39 134.41 577.38 134.39 577.37L129.18 572.19L131.34 570.15C131.82 570.26 132.31 570.33 132.82 570.33C135.03 570.33 137.39 569.39 138.75 568.2C140.44 566.72 141.63 564.51 142.2 561.82C142.69 559.5 142.68 557.13 142.67 554.84C142.64 554.44 142.4 554.09 142.04 553.93ZM126.89 571.58L123.91 568.6L126.46 565.91L129.58 569.03L126.89 571.58ZM113.71 560.38C113.22 561.56 112.41 562.37 111.23 562.86L110.97 560.12L113.71 560.38ZM112.19 564.61C113.68 563.93 114.78 562.83 115.46 561.34L121.92 567.8L121.79 567.93L118.74 571.15L112.19 564.61ZM113.73 584.05L111.44 581.76L122.54 570.05L125.44 572.95L113.73 584.05ZM131.99 584.37L130.42 582.81L133.69 579.54L135.26 581.1L131.99 584.37ZM132.28 578.13L129 581.4L124.33 576.76L127.55 573.71L127.69 573.58L132.28 578.13ZM140.21 561.41C139.88 562.99 139.12 565.2 137.4 566.7C135.92 568 133.24 568.65 131.53 568.15L127.38 564C127.01 561.84 127.26 559.27 128.66 558.18C130.23 556.95 132.41 556.37 134.82 556.55C135.27 556.58 135.71 556.64 136.16 556.7C136.88 556.79 137.63 556.88 138.39 556.89C139.24 556.88 139.97 556.78 140.63 556.56C140.62 558.19 140.54 559.84 140.21 561.41Z" fill="#BAC8CF"/>
</g>
<g opacity="0.33" clip-path="url(#clip1)">
<path d="M81.6301 1.36003L75.8901 -0.559965C75.8401 -0.579966 75.7901 -0.569969 75.7401 -0.579969C75.6701 -0.58997 75.6101 -0.609966 75.5401 -0.599966C75.4801 -0.599966 75.4201 -0.579967 75.3601 -0.569967C75.2901 -0.559967 75.2301 -0.539965 75.1701 -0.519964C75.1101 -0.499964 75.0701 -0.459967 75.0201 -0.419966C74.9701 -0.379965 74.9101 -0.34997 74.8601 -0.299971C74.8101 -0.249971 74.7801 -0.189966 74.7501 -0.139967C74.7201 -0.099966 74.6801 -0.0599651 74.6601 -0.0199642C74.3601 0.660036 73.9301 1.27003 73.4001 1.79003C73.2401 1.95003 73.0701 2.08003 72.9001 2.21003C73.2501 0.510029 73.3301 -1.20996 73.1501 -2.91997L78.0101 -17.42C78.4401 -18.72 78.3501 -20.11 77.7401 -21.34C77.1301 -22.57 76.0801 -23.49 74.7901 -23.92L72.5001 -24.69C72.4201 -25.66 71.7801 -26.53 70.8101 -26.85L60.7501 -30.22C60.1201 -30.43 59.4401 -30.38 58.8401 -30.08C58.5501 -29.94 58.3101 -29.74 58.1001 -29.51L55.8101 -30.28C54.5201 -30.71 53.1301 -30.61 51.9001 -30C50.6701 -29.38 49.7601 -28.33 49.3201 -27.03L44.4601 -12.51C42.8701 -10.81 41.5901 -8.74997 40.8001 -6.39997C40.7601 -6.26997 40.7201 -6.13997 40.6801 -5.99997C40.6601 -5.95997 40.6401 -5.91997 40.6301 -5.87996L37.5201 3.40002C37.4401 3.65002 37.4601 3.93003 37.5701 4.16003C37.6801 4.39003 37.9001 4.58003 38.1501 4.66003L67.8501 14.61C67.9601 14.65 68.0601 14.66 68.1701 14.66C68.5901 14.66 68.9801 14.4 69.1201 13.98L70.3301 10.35C70.5801 10.38 70.8201 10.41 71.0701 10.41C71.4901 10.41 71.9201 10.36 72.3401 10.26C73.8101 9.92002 74.7201 9.08003 75.5301 8.34003C76.0701 7.85003 76.3101 7.53003 76.6201 7.12003C76.9101 6.74002 77.2701 6.27003 78.0501 5.41003C79.0101 4.35003 79.3601 4.07003 79.7901 3.83003C80.2901 3.56003 80.8601 3.38004 81.4601 3.30003C81.9201 3.24003 82.2901 2.87003 82.3301 2.41003C82.3601 1.94003 82.0801 1.51003 81.6301 1.36003ZM59.4601 -28.01C59.5201 -28.18 59.6501 -28.27 59.7201 -28.31C59.7701 -28.33 59.8501 -28.36 59.9501 -28.36C60.0001 -28.36 60.0501 -28.35 60.1001 -28.33L70.1601 -24.96C70.3901 -24.88 70.5201 -24.64 70.4801 -24.38C70.4701 -24.36 70.4501 -24.35 70.4501 -24.32C70.4401 -24.3 70.4501 -24.28 70.4401 -24.26C70.3801 -24.13 70.2801 -24.05 70.2201 -24.02C70.1501 -23.98 70.0101 -23.93 69.8401 -23.99L59.7801 -27.36C59.6101 -27.42 59.5301 -27.54 59.4901 -27.61C59.4501 -27.69 59.4001 -27.84 59.4601 -28.01ZM51.2001 -26.41C51.4701 -27.2 52.0301 -27.85 52.7801 -28.22C53.5301 -28.6 54.3801 -28.66 55.1601 -28.4L57.4501 -27.63C57.4801 -27.32 57.5601 -27.02 57.7001 -26.73C58.0001 -26.13 58.5101 -25.68 59.1401 -25.47L69.2001 -22.1C69.4601 -22.01 69.7301 -21.97 69.9901 -21.97C70.3701 -21.97 70.7601 -22.06 71.1101 -22.24C71.3901 -22.38 71.6401 -22.58 71.8501 -22.81L74.1401 -22.04C74.9301 -21.78 75.5601 -21.22 75.9401 -20.47C76.3101 -19.72 76.3701 -18.86 76.1101 -18.07L72.3001 -6.69996C72.0701 -7.34996 71.8201 -7.98997 71.5101 -8.60997C70.0101 -11.65 67.6701 -14.09 64.7901 -15.72C65.3801 -16.18 65.8201 -16.8 66.0601 -17.52C66.3801 -18.48 66.3101 -19.51 65.8601 -20.42C65.4101 -21.33 64.6301 -22.01 63.6701 -22.33C62.7101 -22.65 61.6801 -22.58 60.7701 -22.12C59.8601 -21.67 59.1901 -20.88 58.8601 -19.92C58.6201 -19.19 58.6001 -18.43 58.7901 -17.71C54.7101 -18.25 50.6701 -17.23 47.3601 -15.03L51.2001 -26.41ZM64.1701 -18.15C64.0201 -17.69 63.6901 -17.32 63.2601 -17.1C62.8301 -16.89 62.3401 -16.85 61.8901 -17C61.4401 -17.15 61.0701 -17.47 60.8601 -17.9C60.6501 -18.33 60.6101 -18.82 60.7701 -19.28C60.9201 -19.74 61.2501 -20.11 61.6801 -20.33C61.9301 -20.46 62.2101 -20.52 62.4801 -20.52C62.6701 -20.52 62.8601 -20.49 63.0501 -20.43C63.5001 -20.28 63.8701 -19.96 64.0801 -19.53C64.2901 -19.1 64.3301 -18.61 64.1701 -18.15ZM70.4901 3.53003C70.4401 3.67003 70.3901 3.81002 70.3201 4.01003C70.3001 4.07003 70.2801 4.14003 70.2701 4.20003L67.5301 12.38L39.7201 3.06003L42.4601 -5.11997C42.4901 -5.17997 42.5201 -5.23997 42.5301 -5.29997L42.5601 -5.40997C42.6001 -5.53997 42.6401 -5.66997 42.6801 -5.78997C45.2601 -13.5 53.6101 -17.68 61.2701 -15.12C64.9801 -13.88 67.9901 -11.25 69.7301 -7.72997C71.4701 -4.19997 71.7401 -0.19997 70.4901 3.53003ZM76.5401 4.07004C75.7101 4.99004 75.3001 5.52003 75.0101 5.91003C74.7201 6.29004 74.5601 6.50003 74.1501 6.87003C73.4601 7.50003 72.8201 8.09003 71.8601 8.31003C71.5601 8.38003 71.2601 8.41002 70.9601 8.40002L72.1401 4.87003C73.1201 4.50003 74.0301 3.95003 74.7801 3.22003C75.2801 2.74003 75.7001 2.19003 76.0601 1.60003L78.3301 2.36003C77.8301 2.71003 77.3301 3.19004 76.5401 4.07004Z" fill="#BAC8CF"/>
<path d="M167.68 13.8899C167.06 13.5799 166.44 13.2799 165.81 12.9699C166.04 12.4899 166.27 12.0199 166.5 11.5399C167.14 10.2099 167.37 8.84986 166.71 7.46986C165.91 5.81986 164.04 4.92987 162.25 5.26987C160.83 5.53987 159.84 6.52986 159.23 7.78986C159 8.26986 158.76 8.75987 158.53 9.23987C154.24 4.39987 147.96 1.41987 141.4 3.04987C135.01 4.63987 129.41 9.54986 126.96 15.6399C125.67 18.8499 125.37 22.4199 126.3 25.7699C126.44 26.2699 127.02 26.6499 127.53 26.4699C127.98 26.3099 128.43 26.1599 128.88 25.9999C130 28.4999 131.6 30.7599 133.78 32.4599C136.17 34.3099 139.04 35.3299 142.04 35.5599C145.39 35.8099 149.06 35.1199 152.11 33.6999C154.99 32.3599 157.27 29.8699 158.98 27.2499C160.34 25.1599 161.54 22.7299 162.01 20.2199C162.4 20.4099 162.79 20.5999 163.19 20.7999C164.33 21.3599 165.4 21.8399 166.71 21.5999C168.57 21.2499 169.92 19.5799 169.99 17.7099C170.06 16.0999 169.1 14.6099 167.68 13.8899ZM135.87 31.5099C133.59 30.0299 131.89 27.8099 130.77 25.3599C132.46 24.7799 133.83 24.0099 134.51 22.2599C134.71 21.7599 134.29 21.1599 133.81 21.0299C133.24 20.8699 132.78 21.2199 132.58 21.7299C132.13 22.8799 130.9 23.1999 129.84 23.5699C129.22 23.7799 128.61 23.9999 127.99 24.2099C127.01 19.0899 129.28 13.8799 132.9 10.2399C134.32 8.80987 135.97 7.58986 137.75 6.63986C144.29 11.7199 149.08 25.5699 146.93 33.2399C145.78 33.4699 144.62 33.6099 143.45 33.6199C140.77 33.6299 138.13 32.9699 135.87 31.5099ZM166.24 19.6599C165.43 19.7799 164.75 19.3399 164.05 18.9999C163.27 18.6199 162.5 18.2399 161.72 17.8599C161.02 17.5199 160.26 17.9399 160.22 18.7199C160.19 19.2099 160.14 19.4999 160.02 20.0399C159.89 20.5899 159.73 21.1399 159.55 21.6699C159.12 22.8999 158.56 24.0799 157.91 25.1999C156.51 27.6199 154.64 29.9099 152.23 31.3699C151.26 31.9599 150.21 32.3599 149.13 32.6799C150.73 24.4299 146.23 11.4299 139.77 5.68987C139.96 5.60987 140.15 5.52987 140.34 5.45987C143.49 4.32987 146.82 4.29987 149.96 5.45987C153.11 6.62987 155.87 8.89987 157.9 11.5499C158.31 12.0899 159.26 12.2999 159.63 11.5499C160.06 10.6599 160.5 9.75986 160.93 8.86986C161.11 8.48986 161.28 8.08986 161.58 7.78986C162.12 7.24986 162.92 7.04987 163.65 7.26987C164.98 7.67987 165.43 9.12987 164.88 10.3199C164.47 11.1899 164.04 12.0499 163.62 12.9199C163.4 13.3799 163.46 14.0399 163.98 14.2899C164.65 14.6199 165.33 14.9499 166 15.2799C166.79 15.6699 167.58 15.9999 167.89 16.9099C168.3 18.1199 167.5 19.4599 166.24 19.6599Z" fill="#BAC8CF"/>
<path d="M138.14 14.7899C137.67 14.4999 137.06 14.6399 136.76 15.0999C136.12 16.1099 133.63 16.9699 132.54 16.5699C132.03 16.3799 131.45 16.6399 131.25 17.1599C131.06 17.6799 131.32 18.2499 131.84 18.4499C132.24 18.5999 132.7 18.6699 133.19 18.6699C135.13 18.6699 137.55 17.6099 138.45 16.1799C138.75 15.6999 138.61 15.0799 138.14 14.7899Z" fill="#BAC8CF"/>
<path d="M345.99 3.74997C346.81 1.82997 346.66 -0.380028 345.54 -2.20003C343.66 -5.27003 339.65 -6.24003 336.6 -4.37003C334.75 -3.24003 333.62 -1.30003 333.52 0.819968C331.17 1.18997 328.94 2.00997 326.88 3.27997C324.81 4.54997 323.07 6.15997 321.68 8.07997C319.74 7.20997 317.5 7.32997 315.65 8.46997C314.17 9.37997 313.13 10.81 312.73 12.5C312.33 14.19 312.61 15.94 313.52 17.42C314.64 19.24 316.53 20.38 318.62 20.52C318.94 22.46 319.62 24.29 320.65 25.97C323.59 30.77 328.84 33.39 334.34 33.38C337.5 33.38 340.75 32.52 343.7 30.71C347.6 28.32 350.4 24.65 351.58 20.38C352.77 16.08 352.18 11.69 349.93 8.01997C348.89 6.35997 347.57 4.91997 345.99 3.74997ZM349.64 19.86C348.59 23.64 346.11 26.89 342.64 29.02C335.51 33.39 326.4 31.56 322.34 24.93C321.31 23.25 320.68 21.4 320.47 19.42C320.42 18.91 319.98 18.53 319.48 18.53C319.46 18.53 319.43 18.53 319.41 18.53C317.72 18.66 316.11 17.83 315.22 16.38C314.59 15.35 314.39 14.14 314.67 12.96C314.95 11.79 315.66 10.8 316.69 10.17C318.16 9.26997 319.98 9.28996 321.45 10.23C321.91 10.53 322.53 10.39 322.83 9.92996C324.13 7.91996 325.85 6.24996 327.92 4.97996C330 3.70996 332.26 2.93997 334.64 2.68997C335.19 2.62997 335.58 2.14997 335.53 1.59997C335.36 -0.130033 336.17 -1.77003 337.64 -2.67003C339.75 -3.96003 342.53 -3.29004 343.83 -1.16004C344.72 0.289965 344.73 2.09997 343.84 3.54997C343.56 4.00997 343.7 4.60997 344.15 4.90997C345.81 5.99997 347.18 7.39998 348.21 9.06998C350.17 12.28 350.68 16.1 349.64 19.86Z" fill="#BAC8CF"/>
<path d="M341.05 17.58C341.41 17.32 341.77 17.04 342.11 16.7C342.5 16.31 342.51 15.68 342.12 15.29C341.73 14.89 341.1 14.89 340.71 15.28C339.3 16.66 337.9 17.08 336.35 16.6C336.59 16.28 336.62 15.84 336.4 15.48C336.11 15.01 335.5 14.86 335.02 15.15L333.71 15.95C333.24 16.24 333.09 16.85 333.38 17.33C333.57 17.64 333.9 17.81 334.23 17.81C334.27 17.81 334.31 17.8 334.36 17.79C333.96 19.46 332.96 20.51 331.25 21.08C330.72 21.25 330.44 21.82 330.61 22.34C330.75 22.76 331.14 23.03 331.56 23.03C331.66 23.03 331.77 23.01 331.87 22.98C332.33 22.83 332.75 22.64 333.15 22.43L334.17 24.09C334.64 24.86 335.38 25.39 336.25 25.61C336.52 25.67 336.78 25.71 337.05 25.71C337.66 25.71 338.26 25.54 338.79 25.22L340.96 23.89C341.72 23.42 342.26 22.68 342.47 21.81C342.68 20.94 342.53 20.04 342.06 19.27L341.05 17.58ZM340.53 21.32C340.45 21.67 340.23 21.97 339.92 22.16L337.75 23.49C337.44 23.68 337.08 23.74 336.73 23.65C336.38 23.56 336.08 23.35 335.89 23.03L334.77 21.2C335.43 20.5 335.92 19.64 336.22 18.63C337.26 18.87 338.28 18.82 339.27 18.5L340.36 20.28C340.56 20.6 340.62 20.96 340.53 21.32Z" fill="#BAC8CF"/>
<path d="M284.28 47.7099L278.49 49.3799C279.21 48.7699 279.92 48.1199 280.57 47.3899C280.79 47.1499 280.87 46.8099 280.8 46.4899C280.73 46.1699 280.5 45.9099 280.2 45.7899L276.63 44.3599C272.28 39.1799 266.8 36.5299 262.27 37.1999L261.24 36.4199L265.76 23.4699C267.07 19.6899 264.61 16.6299 261.52 15.5599C258.62 14.5599 255.1 15.2499 253.57 18.3899C250.39 18.0599 247.62 18.8599 245.33 20.7799C245.05 21.0099 244.92 21.3699 244.99 21.7299C245.06 22.0899 245.31 22.3799 245.65 22.4899L252.36 24.8099L255.53 25.8999C248.36 35.2099 247.17 45.7299 252.48 53.6099C253.45 55.0499 254.65 56.2899 256.04 57.3499C255.96 58.1299 256.09 58.9299 256.44 59.6499C256.57 59.9099 256.72 60.1599 256.89 60.3899L256.82 60.5999L249.54 60.3399C249.03 60.2999 248.61 60.6699 248.52 61.1599C248.43 61.6499 248.71 62.1299 249.18 62.2899L261.1 66.3999C261.21 66.4399 261.32 66.4499 261.43 66.4499C261.71 66.4499 261.98 66.3299 262.18 66.1099C262.45 65.8099 262.51 65.3699 262.33 65.0099L261.17 62.5999L261.41 61.8899C262.25 61.6599 263 61.1799 263.57 60.5099C263.8 60.5499 264.02 60.5899 264.26 60.6199C265.2 60.7299 266.12 60.7899 267.02 60.7899C274.59 60.7899 280.77 56.8899 285.42 49.1599C285.63 48.8099 285.61 48.3599 285.36 48.0299C285.1 47.7299 284.68 47.5899 284.28 47.7099ZM275.26 45.8299C275.37 45.9599 275.5 46.0599 275.66 46.1199L278.08 47.0899C274.72 50.2999 270.5 51.9799 266.33 51.7499C263.05 51.5599 260.26 50.1699 258.68 47.9399C257.69 46.5399 257.37 44.8099 257.82 43.1899C258.26 41.6099 259.37 40.3199 260.89 39.6499C261.77 39.2599 262.74 39.0699 263.75 39.0699C267.41 39.0799 271.72 41.5299 275.26 45.8299ZM252.85 20.3499L252.07 22.5999L248.19 21.2599C249.58 20.5399 251.12 20.2399 252.85 20.3499ZM256.16 62.5899L257.5 62.6399C257.94 62.6499 258.34 62.3799 258.48 61.9699L258.57 61.6999C258.68 61.7499 258.79 61.8099 258.9 61.8499C259.03 61.8899 259.16 61.9199 259.29 61.9499L259.14 62.3699C259.05 62.6199 259.07 62.8899 259.18 63.1299L259.48 63.7399L256.16 62.5899ZM264.54 58.6599L264.87 57.6999C265.05 57.1799 264.77 56.6099 264.25 56.4299C263.73 56.2499 263.16 56.5299 262.98 57.0499L262.47 58.5199C262.05 59.7199 260.75 60.3599 259.56 59.9499C259.26 59.8499 258.99 59.6799 258.77 59.4799C258.74 59.4499 258.72 59.4199 258.7 59.3999C258.53 59.2199 258.37 59.0199 258.26 58.7899C257.99 58.2399 257.96 57.6099 258.16 57.0299L258.67 55.5599C258.85 55.0399 258.57 54.4699 258.05 54.2899C257.53 54.1099 256.96 54.3899 256.78 54.9099L256.65 55.2799C255.7 54.4699 254.86 53.5399 254.16 52.4999C249.07 44.9499 250.5 35.0699 257.99 26.0599C258.2 25.8099 258.27 25.4699 258.18 25.1499C258.09 24.8299 257.85 24.5799 257.54 24.4699L253.98 23.2399L255.17 19.7999C256.09 17.1399 258.78 16.7099 260.9 17.4399C263.06 18.1899 264.83 20.1399 263.91 22.8099L259.15 36.4399C259.01 36.8499 259.14 37.2999 259.49 37.5699L259.93 37.8999C257.95 38.8299 256.49 40.5499 255.91 42.6499C255.3 44.8499 255.73 47.1999 257.07 49.0899C259.01 51.8199 262.35 53.5099 266.24 53.7299C266.54 53.7499 266.84 53.7599 267.14 53.7599C270.5 53.7599 273.82 52.6699 276.76 50.6899L277.56 51.2999C277.81 51.4899 278.14 51.5499 278.44 51.4699L282.25 50.3699C277.65 56.7099 271.7 59.4899 264.54 58.6599Z" fill="#BAC8CF"/>
<path d="M328.06 166.21L328.65 163.09C330.27 162.95 331.67 161.74 331.99 160.06C332.37 158.04 331.05 156.08 329.03 155.7C328.41 155.58 327.77 155.63 327.17 155.83C326.69 155.42 326.11 155.15 325.49 155.03C324.52 154.85 323.52 155.05 322.7 155.61C321.88 156.17 321.33 157.02 321.14 158C320.95 158.98 321.16 159.97 321.72 160.79C322.09 161.33 322.57 161.75 323.14 162.04L322.55 165.14C316.72 164.32 310.17 164.42 309.63 167.28L306.14 185.67C305.75 187.73 307.01 189.71 308.96 190.08L312.33 190.72C314.27 191.08 316.18 189.71 316.57 187.65L317.52 182.64C317.61 182.19 317.85 181.8 318.19 181.54C318.51 181.3 318.9 181.2 319.27 181.28L324.79 182.33C325.58 182.48 326.09 183.34 325.92 184.24L324.97 189.25C324.78 190.23 324.96 191.23 325.48 192.06C326.01 192.91 326.83 193.48 327.79 193.66L331.16 194.3C331.37 194.34 331.58 194.36 331.79 194.36C333.5 194.36 335.05 193.07 335.4 191.23L338.89 172.84C339.56 169.45 331.32 167.03 328.06 166.21ZM323.12 158.38C323.21 157.92 323.46 157.53 323.84 157.27C324.22 157.01 324.67 156.91 325.13 157C325.65 157.1 325.97 157.41 326.16 157.65C326.47 158.06 327.04 158.16 327.47 157.9C327.73 157.74 328.15 157.58 328.67 157.67C329.6 157.85 330.21 158.75 330.03 159.69C329.85 160.63 328.95 161.25 328.02 161.07C327.47 160.97 326.95 161.32 326.85 161.87L325.45 169.27C324.95 169.36 324.31 169.24 323.88 168.98L325.29 161.57C325.34 161.31 325.28 161.04 325.13 160.82C324.98 160.6 324.75 160.45 324.49 160.4C324.04 160.32 323.65 160.06 323.39 159.68C323.13 159.3 323.04 158.84 323.12 158.38ZM322.19 167.12L321.8 169.16C321.75 169.45 321.82 169.75 322.01 169.98C322.69 170.82 323.92 171.3 325.09 171.3C325.7 171.3 326.3 171.17 326.8 170.9C327.06 170.76 327.25 170.5 327.3 170.21L327.68 168.19C334.19 169.81 336.91 171.86 336.95 172.46C336.58 173.28 331.61 174.07 323.8 172.59C316 171.11 311.66 168.55 311.61 167.67C311.88 167.08 315.29 166.15 322.19 167.12ZM333.46 190.86C333.27 191.84 332.41 192.5 331.56 192.34L328.19 191.7C327.79 191.62 327.44 191.38 327.2 191C326.95 190.6 326.87 190.11 326.96 189.62L327.91 184.61C328.29 182.62 327.07 180.71 325.19 180.36L319.67 179.31C318.74 179.14 317.81 179.36 317.03 179.93C316.28 180.49 315.76 181.32 315.58 182.27L314.63 187.28C314.44 188.26 313.58 188.93 312.73 188.76L309.36 188.12C308.5 187.96 307.94 187.03 308.13 186.05L311.15 170.1C313.86 172.23 319.56 173.81 323.43 174.55C326.44 175.12 329.36 175.42 331.84 175.42C332.43 175.42 333 175.4 333.53 175.37C334.71 175.29 335.69 175.13 336.49 174.89L333.46 190.86Z" fill="#BAC8CF"/>
<path d="M99.4301 82.8099C99.8501 79.0599 98.8001 75.3599 96.4601 72.4099C94.1201 69.4599 90.7701 67.5999 87.0301 67.1799C79.3101 66.3099 72.3301 71.9099 71.4601 79.6599C70.8801 84.7999 73.1401 89.5999 76.9701 92.5199L74.7201 96.8599C74.5701 97.1499 74.5701 97.4999 74.7301 97.7899C74.8901 98.0799 75.1701 98.2799 75.5001 98.3099L91.3401 100.1C91.3801 100.1 91.4201 100.11 91.4501 100.11C91.7401 100.11 92.0101 99.9899 92.2001 99.7699C92.4201 99.5199 92.5001 99.1799 92.4101 98.8599L91.1901 94.1199C95.5701 92.1299 98.8501 87.9499 99.4301 82.8099ZM90.1101 97.9499L77.1501 96.4899L78.6301 93.6299C80.2001 94.4999 81.9501 95.0899 83.8401 95.2999C84.3701 95.3599 84.9001 95.3899 85.4201 95.3899C86.7501 95.3899 88.0601 95.1999 89.2901 94.8399L90.1101 97.9499ZM84.0801 93.2999C77.4601 92.5499 72.6901 86.5299 73.4401 79.8799C74.1401 73.6799 79.3801 69.0899 85.4401 69.0899C85.8901 69.0899 86.3401 69.1199 86.8001 69.1699C90.0001 69.5299 92.8701 71.1299 94.8801 73.6599C96.8901 76.1999 97.8001 79.3699 97.4301 82.5899C96.6901 89.2399 90.6901 94.0399 84.0801 93.2999Z" fill="#BAC8CF"/>
<path d="M84.2201 72.5099C82.4701 71.9099 80.5901 72.0199 78.9301 72.8399C77.2601 73.6599 76.0001 75.0799 75.4001 76.8499C74.1601 80.4899 76.0901 84.4599 79.7101 85.7099C80.4501 85.9599 81.2101 86.0899 81.9701 86.0899C83.0101 86.0899 84.0401 85.8499 85.0001 85.3799C86.6701 84.5599 87.9301 83.1399 88.5301 81.3699C89.7701 77.7299 87.8401 73.7499 84.2201 72.5099ZM86.6401 80.7199C86.2101 81.9799 85.3101 82.9999 84.1201 83.5799C82.9401 84.1599 81.6001 84.2399 80.3601 83.8099C77.7801 82.9199 76.4101 80.0899 77.3001 77.4899C77.7301 76.2299 78.6301 75.2099 79.8201 74.6299C80.5001 74.2999 81.2401 74.1299 81.9801 74.1299C82.5201 74.1299 83.0601 74.2199 83.5801 74.3999C86.1501 75.2899 87.5301 78.1199 86.6401 80.7199Z" fill="#BAC8CF"/>
<path d="M229.11 180.92L229.97 184.42L231.53 190.75C231.97 192.55 233.09 194.07 234.68 195.03C235.78 195.69 237.01 196.03 238.26 196.03C238.82 196.03 239.38 195.96 239.94 195.82L242.19 195.27C243.99 194.83 245.51 193.71 246.47 192.12C247.43 190.53 247.71 188.66 247.27 186.86L246.57 184.03L245.71 180.53L244.85 177.03L243.97 173.46C243.05 169.74 239.28 167.46 235.56 168.38L233.31 168.93C231.51 169.37 229.99 170.49 229.03 172.08C228.07 173.67 227.79 175.53 228.23 177.34L229.11 180.92ZM230.74 173.12C231.42 171.99 232.51 171.19 233.79 170.88L236.04 170.33C236.44 170.23 236.83 170.19 237.22 170.19C239.44 170.19 241.47 171.7 242.02 173.95L242.66 176.55L239.99 177.21C239.45 177.34 239.13 177.88 239.26 178.42C239.37 178.88 239.78 179.18 240.23 179.18C240.31 179.18 240.39 179.17 240.47 179.15L243.14 178.49L243.53 180.05L240.86 180.71C240.32 180.84 240 181.38 240.13 181.92C240.24 182.38 240.65 182.68 241.1 182.68C241.18 182.68 241.26 182.67 241.34 182.65L244.01 181.99L244.4 183.55L241.73 184.21C241.19 184.34 240.87 184.88 241 185.42C241.11 185.88 241.52 186.18 241.97 186.18C242.05 186.18 242.13 186.17 242.21 186.15L244.88 185.49L245.34 187.35C245.66 188.63 245.45 189.96 244.77 191.09C244.09 192.22 243 193.02 241.72 193.33L239.47 193.88C238.19 194.2 236.86 193.99 235.73 193.31C234.6 192.63 233.8 191.54 233.49 190.26L233.03 188.4L235.7 187.74C236.24 187.61 236.56 187.07 236.43 186.53C236.3 185.99 235.76 185.66 235.22 185.8L232.55 186.46L232.16 184.9L234.83 184.24C235.37 184.11 235.69 183.57 235.56 183.03C235.43 182.49 234.89 182.16 234.35 182.3L231.68 182.96L231.29 181.4L233.96 180.74C234.5 180.61 234.82 180.07 234.69 179.53C234.56 178.99 234.02 178.66 233.48 178.8L230.81 179.46L230.17 176.86C229.85 175.58 230.05 174.26 230.74 173.12Z" fill="#BAC8CF"/>
<path d="M250.19 185.33L249.39 182.08C249.26 181.54 248.72 181.21 248.18 181.35C247.64 181.48 247.32 182.02 247.45 182.56L248.25 185.81C249.49 190.82 246.44 195.9 241.46 197.13C236.48 198.35 231.42 195.28 230.18 190.27L229.38 187.02C229.25 186.48 228.71 186.15 228.17 186.29C227.63 186.42 227.31 186.96 227.44 187.5L228.24 190.75C229.52 195.93 234.16 199.41 239.25 199.41C239.82 199.41 240.39 199.35 240.96 199.26L241.96 203.32L238 204.3C237.74 204.36 237.52 204.53 237.38 204.75C237.24 204.98 237.2 205.25 237.26 205.51L238.01 208.54C238.12 209 238.53 209.3 238.98 209.3C239.06 209.3 239.14 209.29 239.22 209.27L249.08 206.84C249.34 206.78 249.56 206.61 249.7 206.39C249.84 206.16 249.88 205.89 249.82 205.63L249.07 202.6C248.94 202.06 248.4 201.73 247.86 201.87L243.9 202.85L242.9 198.8C248.37 196.91 251.61 191.08 250.19 185.33ZM247.62 205.12L239.7 207.07L239.43 205.98L243.39 205L247.35 204.02L247.62 205.12Z" fill="#BAC8CF"/>
<path d="M15.7801 85.1401C13.6501 83.6301 10.5101 83.5401 7.13013 84.8201C8.25013 80.7101 7.97013 77.4601 6.31013 75.5501C5.37013 74.4601 3.54013 73.3201 0.19013 74.0201C-0.13987 74.0901 -0.41987 74.3201 -0.53987 74.6401L-6.74987 90.7901L-14.2599 92.3701C-14.7999 92.4801 -15.1499 93.0101 -15.0299 93.5501L-11.5799 109.94C-11.5299 110.2 -11.3699 110.43 -11.1499 110.57C-10.9899 110.68 -10.7999 110.73 -10.5999 110.73C-10.5299 110.73 -10.4599 110.72 -10.3899 110.71L12.4701 105.89C14.0401 105.56 15.2601 104.33 15.5901 102.76L18.0201 91.0401C18.3801 88.5601 17.5701 86.4001 15.7801 85.1401ZM-12.8599 94.1201L-6.77987 92.8401L-3.73987 107.27L-9.81987 108.55L-12.8599 94.1201ZM16.0501 90.6901L13.6301 102.35C13.4601 103.14 12.8501 103.77 12.0601 103.93L-1.77987 106.85L-4.96987 91.7301L1.12013 75.8801C2.36013 75.7001 3.85013 75.7801 4.79013 76.8601C6.22013 78.5001 6.13013 81.9501 4.54013 86.3101C4.40013 86.7001 4.51013 87.1301 4.82013 87.4101C5.13013 87.6801 5.58013 87.73 5.94013 87.54C9.37013 85.72 12.6901 85.4301 14.6001 86.7701C15.8101 87.6101 16.3001 88.9901 16.0501 90.6901Z" fill="#BAC8CF"/>
<path d="M49.8701 194.06L50.1201 193.55L52.2301 194.57C52.7201 194.81 53.2501 194.93 53.7801 194.93C54.1801 194.93 54.5801 194.86 54.9601 194.73C55.8601 194.41 56.5901 193.77 57.0101 192.9L61.5401 183.56C62.4001 181.78 61.6601 179.63 59.8901 178.77L57.7801 177.75L59.7001 173.8C61.1101 170.88 55.6901 166.62 50.0601 163.89C47.0901 162.45 44.1001 161.45 41.6601 161.08C38.0501 160.53 36.7501 161.53 36.3001 162.46L26.4801 182.72C25.3201 185.11 26.3101 188 28.7001 189.15L43.4601 196.31C44.1201 196.63 44.8301 196.79 45.5401 196.79C46.0701 196.79 46.6101 196.7 47.1301 196.52C48.3301 196.08 49.3101 195.21 49.8701 194.06ZM59.0101 180.56C59.7901 180.94 60.1201 181.89 59.7301 182.68L55.2001 192.02C55.0101 192.4 54.6901 192.69 54.2901 192.83C53.8901 192.97 53.4701 192.95 53.0901 192.76L50.9801 191.74L56.8901 179.54L59.0101 180.56ZM39.7501 162.9C40.1801 162.9 40.7101 162.94 41.3501 163.04C43.6001 163.38 46.3801 164.32 49.1801 165.68C55.7101 168.85 58.2501 172.19 57.9001 172.92C57.5401 173.65 53.3501 173.73 46.8201 170.56C44.0201 169.2 41.5701 167.6 39.9001 166.05C38.1401 164.41 38.0101 163.51 38.1001 163.32C38.1601 163.18 38.6001 162.9 39.7501 162.9ZM44.3201 194.5L29.5601 187.34C28.1701 186.67 27.5901 184.98 28.2701 183.58L36.9301 165.71C37.3101 166.25 37.8201 166.85 38.5301 167.51C39.3101 168.24 40.2501 168.97 41.3001 169.69L39.5501 173.3L38.3401 172.71C38.1001 172.59 37.8301 172.58 37.5801 172.67C37.3301 172.76 37.1201 172.94 37.0101 173.18L34.2301 178.92C33.9901 179.42 34.2001 180.02 34.6901 180.26L38.9101 182.3C39.0501 182.37 39.2001 182.4 39.3501 182.4C39.4601 182.4 39.5701 182.38 39.6801 182.34C39.9301 182.25 40.1401 182.07 40.2501 181.83L43.0301 176.09C43.2701 175.59 43.0601 174.99 42.5701 174.75L41.3601 174.16L43.0101 170.76C43.9401 171.31 44.9201 171.85 45.9501 172.35C49.4701 174.06 53.4201 175.33 56.2201 175.33C56.4001 175.33 56.5701 175.32 56.7401 175.31L48.0801 193.17C47.7501 193.85 47.1801 194.36 46.4701 194.61C45.7501 194.87 44.9901 194.82 44.3201 194.5ZM40.7901 176.12L38.8801 180.06L36.4601 178.89L38.3701 174.95L40.7901 176.12Z" fill="#BAC8CF"/>
<path d="M207.4 66.1L186.98 54.51C186 53.95 184.83 53.96 183.85 54.53C182.87 55.1 182.28 56.12 182.28 57.26V80.44C182.28 81.58 182.86 82.6 183.85 83.17C184.34 83.46 184.88 83.6 185.43 83.6C185.96 83.6 186.49 83.46 186.98 83.19L207.4 71.6C208.4 71.03 209 70.01 209 68.85C209 67.69 208.4 66.67 207.4 66.1ZM206.42 69.85L186 81.44C185.49 81.73 185.04 81.53 184.87 81.43C184.7 81.33 184.3 81.03 184.3 80.43V57.25C184.3 56.65 184.7 56.35 184.87 56.25C184.97 56.19 185.18 56.09 185.45 56.09C185.62 56.09 185.81 56.13 186 56.24L206.42 67.83C206.95 68.13 207 68.63 207 68.84C207 69.05 206.94 69.55 206.42 69.85Z" fill="#BAC8CF"/>
<path d="M275.36 99.0899C278.17 96.7599 281.71 95.6699 285.33 96.0199C292.81 96.7399 298.3 103.44 297.58 110.96L295.98 110.81C294.17 110.64 292.57 111.96 292.39 113.77L290.76 130.71C290.59 132.51 291.91 134.12 293.72 134.3L298.9 134.8C299.01 134.81 299.11 134.82 299.22 134.82C299.98 134.82 300.71 134.56 301.3 134.07C301.98 133.51 302.4 132.72 302.48 131.85L302.75 129.08L305.73 128.69C306.99 128.53 307.96 127.52 308.08 126.25L308.54 121.47C308.66 120.2 307.91 119.03 306.7 118.63L303.84 117.68L304.11 114.91C304.19 114.04 303.93 113.18 303.37 112.5C302.81 111.82 302.02 111.4 301.15 111.32L299.55 111.17C300.37 102.55 294.07 94.8699 285.5 94.0499C281.34 93.6499 277.28 94.9 274.06 97.57C270.84 100.24 268.85 104 268.44 108.17L266.84 108.02C265.05 107.85 263.43 109.17 263.25 110.98L262.98 113.75L260 114.14C258.74 114.3 257.77 115.31 257.65 116.58L257.19 121.36C257.07 122.63 257.83 123.8 259.03 124.2L261.89 125.15L261.62 127.92C261.54 128.79 261.8 129.65 262.35 130.33C262.9 131.01 263.7 131.43 264.57 131.51L269.75 132.01C269.86 132.02 269.96 132.03 270.07 132.03C271.74 132.03 273.18 130.76 273.34 129.06L274.97 112.12C275.05 111.25 274.79 110.39 274.23 109.71C273.67 109.03 272.88 108.61 272.01 108.53L270.41 108.38C270.81 104.71 272.55 101.42 275.36 99.0899ZM303.66 119.71L306.08 120.51C306.4 120.62 306.6 120.92 306.56 121.26L306.1 126.04C306.07 126.38 305.81 126.64 305.48 126.68L302.95 127.01L303.3 123.35L303.66 119.71ZM301.85 113.76C302.07 114.03 302.17 114.36 302.14 114.7L301.32 123.17L300.85 128.07L300.51 131.64C300.48 131.98 300.31 132.29 300.05 132.51C299.79 132.73 299.45 132.83 299.11 132.8L293.93 132.3C293.22 132.23 292.7 131.6 292.77 130.89L294.4 113.95C294.46 113.28 295.03 112.79 295.68 112.79C295.72 112.79 295.76 112.79 295.81 112.8L298.4 113.05L300.99 113.3C301.32 113.33 301.63 113.5 301.85 113.76ZM259.21 121.53L259.67 116.75C259.7 116.41 259.96 116.15 260.29 116.11L262.82 115.78L262.12 123.09L259.7 122.29C259.37 122.18 259.17 121.87 259.21 121.53ZM272.73 110.96C272.95 111.23 273.05 111.56 273.02 111.9L271.39 128.84C271.36 129.18 271.19 129.49 270.93 129.71C270.66 129.93 270.33 130.03 269.99 130L264.81 129.5C264.47 129.47 264.16 129.3 263.94 129.04C263.72 128.78 263.62 128.44 263.65 128.1L264.3 121.32L264.94 114.72L265.28 111.15C265.35 110.44 265.99 109.92 266.69 109.99L269.28 110.24L271.87 110.49C272.2 110.53 272.51 110.69 272.73 110.96Z" fill="#BAC8CF"/>
<path d="M200.99 243.12L192.85 241.93C192.5 241.88 192.21 241.66 192.05 241.34L188.41 233.93C187.89 232.87 186.84 232.21 185.66 232.21C184.48 232.21 183.43 232.87 182.91 233.93L179.27 241.34C179.11 241.66 178.81 241.88 178.47 241.93L170.34 243.12C169.18 243.29 168.23 244.09 167.87 245.21C167.5 246.33 167.8 247.54 168.64 248.37L174.53 254.14C174.78 254.39 174.9 254.75 174.84 255.1L173.45 263.25C173.25 264.42 173.72 265.57 174.68 266.26C175.22 266.65 175.84 266.84 176.47 266.84C176.96 266.84 177.45 266.72 177.9 266.48L185.18 262.64C185.49 262.47 185.86 262.48 186.17 262.64L193.44 266.48C194.48 267.03 195.71 266.94 196.66 266.25C197.62 265.56 198.09 264.4 197.89 263.24L196.5 255.09C196.44 254.74 196.56 254.38 196.81 254.13L202.7 248.36C203.54 247.53 203.84 246.32 203.47 245.2C203.1 244.09 202.15 243.29 200.99 243.12ZM201.29 246.94L195.4 252.71C194.68 253.42 194.35 254.43 194.52 255.43L195.91 263.58C195.98 264 195.82 264.39 195.48 264.64C195.15 264.88 194.73 264.91 194.36 264.72L187.09 260.88C186.2 260.41 185.13 260.41 184.23 260.88L176.95 264.72C176.59 264.91 176.17 264.88 175.84 264.64C175.5 264.39 175.34 264 175.41 263.58L176.8 255.44C176.97 254.44 176.64 253.43 175.92 252.72L170.03 246.95C169.73 246.66 169.63 246.24 169.76 245.84C169.89 245.44 170.21 245.17 170.62 245.11L178.75 243.92C179.75 243.78 180.61 243.15 181.06 242.24L184.7 234.83C184.88 234.45 185.24 234.23 185.65 234.23C186.06 234.23 186.42 234.45 186.61 234.83L190.25 242.24C190.7 243.15 191.56 243.78 192.56 243.92L200.69 245.11C201.1 245.17 201.42 245.44 201.55 245.84C201.69 246.23 201.59 246.65 201.29 246.94Z" fill="#BAC8CF"/>
<path d="M92.6901 252.69C93.5801 251 93.7801 248.96 93.0601 247.04L92.2301 244.84C91.5801 243.13 90.3 241.76 88.6301 241.01C87.9401 240.7 87.2101 240.51 86.4701 240.44C82.2001 236.16 76.0401 234.7 70.7101 236.71C66.9701 238.13 64.0601 241.02 62.5101 244.87C61.7401 246.78 61.3501 248.81 61.3401 250.86L58.7101 251.86C56.7501 252.6 55.7601 254.81 56.5101 256.77L62.7501 273.23C63.3301 274.75 64.7801 275.7 66.3201 275.7C66.7701 275.7 67.2201 275.62 67.6601 275.45L69.2401 274.85L71.4001 280.56C71.9901 282.1 73.4201 283.07 74.9001 283.07C75.3001 283.07 75.7101 283 76.1101 282.85L79.3201 281.63C81.1701 280.93 82.0801 278.76 81.3301 276.79L79.5201 272.02C79.3601 271.59 79.3601 271.13 79.5201 270.73C79.67 270.35 79.9501 270.07 80.3001 269.94L85.5601 267.95C86.3201 267.66 87.2001 268.13 87.5201 268.99L89.3301 273.76C89.6801 274.7 90.3601 275.45 91.2301 275.89C92.1301 276.34 93.1301 276.39 94.0401 276.05L97.2501 274.84C99.1001 274.14 100.01 271.97 99.2601 270L92.6901 252.69ZM90.3501 245.54L91.1801 247.74C92.1301 250.25 90.8601 253.06 88.3501 254.01L81.8801 256.46C79.3701 257.42 76.5601 256.14 75.6001 253.63L74.7701 251.43C73.82 248.92 75.0901 246.11 77.6001 245.15L84.0701 242.7C84.6301 242.49 85.2101 242.38 85.8001 242.38C86.4801 242.38 87.1601 242.52 87.8001 242.81C88.9801 243.36 89.8901 244.33 90.3501 245.54ZM66.9301 273.58C66.0001 273.93 64.9601 273.46 64.6001 272.52L58.3601 256.06C58.0101 255.12 58.4701 254.08 59.4001 253.73L61.4601 252.95C61.6301 254.31 61.9401 255.67 62.4401 256.99L68.5001 272.98L66.9301 273.58ZM96.5301 272.97L93.3201 274.18C92.9401 274.33 92.5101 274.3 92.1101 274.1C91.6901 273.89 91.3601 273.52 91.1801 273.05L89.3701 268.28C88.6501 266.39 86.6201 265.4 84.8301 266.08L79.5701 268.07C78.6901 268.4 78.0101 269.08 77.6401 269.98C77.2901 270.85 77.2801 271.83 77.6301 272.73L79.4401 277.5C79.7901 278.43 79.41 279.44 78.59 279.76L75.3801 280.98C74.5601 281.29 73.6001 280.79 73.2501 279.85L70.7301 273.21L64.3201 256.29C63.7601 254.8 63.4501 253.26 63.3601 251.73C63.4001 251.55 63.4001 251.37 63.3401 251.19C63.3101 249.28 63.6401 247.4 64.3501 245.63C65.6901 242.3 68.2001 239.8 71.4101 238.59C75.4901 237.04 80.17 237.89 83.7701 240.72C83.6301 240.76 83.5001 240.8 83.3601 240.85L76.8901 243.3C73.3501 244.64 71.5601 248.61 72.9001 252.16L73.7301 254.36C74.7701 257.1 77.3901 258.79 80.1601 258.79C80.9701 258.79 81.7901 258.65 82.5801 258.34L89.0501 255.89C89.8801 255.57 90.6201 255.11 91.2401 254.54L97.3701 270.71C97.7301 271.64 97.3501 272.66 96.5301 272.97Z" fill="#BAC8CF"/>
<path d="M307.36 244.03C304.7 242.75 301.33 242.65 298.8 244.33C298.7 243.05 298.25 241.8 297.45 240.63C295.62 237.94 292.31 236.3 289.18 236.53C286.46 236.73 284.25 238.31 282.96 240.98C278.39 250.45 282.5 257.32 287.71 266.02C287.89 266.32 288.22 266.51 288.57 266.51C288.61 266.51 288.66 266.51 288.7 266.5C298.75 265.16 306.69 264.09 311.25 254.62C313.61 249.78 310.89 245.73 307.36 244.03ZM309.47 253.77C305.64 261.71 299.51 263.04 289.1 264.45C283.72 255.43 280.94 249.81 284.77 241.87C286.01 239.31 287.93 238.65 289.33 238.54C289.47 238.53 289.62 238.52 289.76 238.52C292.03 238.52 294.46 239.81 295.8 241.77C296.98 243.5 297.13 245.48 296.23 247.35C296.16 247.49 296.13 247.64 296.13 247.78C296.13 248.15 296.34 248.51 296.7 248.68C297.2 248.92 297.8 248.71 298.03 248.21C299.69 244.77 303.54 244.41 306.49 245.83C309.04 247.06 311.35 249.88 309.47 253.77Z" fill="#BAC8CF"/>
<path d="M390.76 85.1401C388.63 83.6301 385.49 83.5401 382.11 84.8201C383.23 80.7101 382.95 77.4601 381.29 75.5501C380.35 74.4601 378.52 73.3201 375.17 74.0201C374.84 74.0901 374.56 74.3201 374.44 74.6401L368.23 90.7901L360.73 92.3701C360.19 92.4801 359.84 93.0101 359.96 93.5501L363.41 109.94C363.46 110.2 363.62 110.43 363.84 110.57C364 110.68 364.19 110.73 364.39 110.73C364.46 110.73 364.53 110.72 364.6 110.71L387.46 105.89C389.03 105.56 390.25 104.33 390.58 102.76L393.01 91.0401C393.37 88.5601 392.55 86.4001 390.76 85.1401ZM362.12 94.1201L368.2 92.8401L371.24 107.27L365.16 108.55L362.12 94.1201ZM391.03 90.6901L388.61 102.35C388.44 103.14 387.83 103.77 387.04 103.93L373.2 106.85L370.01 91.7301L376.11 75.8801C377.35 75.7001 378.84 75.7801 379.78 76.8601C381.21 78.5001 381.12 81.9501 379.53 86.3101C379.39 86.7001 379.5 87.1301 379.82 87.4101C380.13 87.6801 380.58 87.73 380.94 87.54C384.37 85.72 387.69 85.4301 389.6 86.7701C390.79 87.6101 391.28 88.9901 391.03 90.6901Z" fill="#BAC8CF"/>
<path d="M178.45 141.15L173.32 122.92C172.07 118.48 169.14 114.85 165.07 112.69C161 110.53 156.35 110.15 151.96 111.6C143.5 114.41 138.81 123.54 141.3 132.38L146.31 150.19C146.51 150.91 147.12 151.41 147.87 151.48C147.92 151.48 147.97 151.49 148.02 151.49C148.7 151.49 149.32 151.1 149.62 150.48L150.92 147.73C151.11 147.33 151.44 147.05 151.86 146.93C152.28 146.81 152.72 146.88 153.08 147.12L154.96 148.35C155.8 148.9 156.84 149.06 157.82 148.79C158.79 148.52 159.6 147.84 160.03 146.93L160.99 144.9C161.18 144.5 161.51 144.22 161.93 144.1C162.35 143.98 162.79 144.05 163.15 144.29L165.03 145.52C165.87 146.07 166.92 146.23 167.89 145.96C168.86 145.69 169.67 145.01 170.1 144.1L171.06 142.07C171.25 141.67 171.58 141.39 172.01 141.27C172.43 141.15 172.86 141.22 173.23 141.46L175.78 143.13C176.4 143.54 177.2 143.52 177.8 143.08C178.4 142.64 178.65 141.87 178.45 141.15ZM145.8 127.1C146.07 127.02 146.34 126.99 146.61 126.99C147.92 126.99 149.12 127.85 149.49 129.17C149.71 129.94 149.61 130.75 149.22 131.44C148.83 132.14 148.19 132.64 147.42 132.85C145.84 133.3 144.18 132.37 143.73 130.78C143.29 129.2 144.21 127.55 145.8 127.1ZM174.32 139.77C173.48 139.22 172.43 139.06 171.46 139.33C170.49 139.6 169.68 140.28 169.25 141.19L168.29 143.22C168.1 143.62 167.77 143.9 167.35 144.02C166.93 144.14 166.5 144.07 166.13 143.83L164.25 142.6C163.41 142.05 162.37 141.89 161.39 142.16C160.41 142.43 159.61 143.11 159.18 144.02L158.22 146.05C158.03 146.45 157.7 146.73 157.28 146.85C156.86 146.97 156.43 146.9 156.06 146.66L154.18 145.43C153.34 144.88 152.29 144.72 151.32 144.99C150.35 145.26 149.54 145.94 149.11 146.85L148.07 149.05L143.88 134.12C144.68 134.65 145.63 134.96 146.62 134.96C147.07 134.96 147.52 134.9 147.97 134.77C149.25 134.41 150.32 133.57 150.97 132.41C151.62 131.25 151.78 129.9 151.42 128.62C150.67 125.97 147.91 124.42 145.27 125.17C144.19 125.47 143.31 126.12 142.68 126.95C142.93 120.9 146.72 115.45 152.61 113.49C156.47 112.21 160.57 112.54 164.15 114.45C167.73 116.35 170.31 119.55 171.41 123.45L176.37 141.1L174.32 139.77Z" fill="#BAC8CF"/>
<path d="M161.56 122.12C160.4 121.47 159.05 121.31 157.77 121.67C156.49 122.03 155.42 122.87 154.77 124.03C154.12 125.19 153.96 126.54 154.32 127.82C154.94 130.02 156.95 131.46 159.13 131.46C159.58 131.46 160.03 131.4 160.48 131.27C163.13 130.52 164.68 127.76 163.93 125.12C163.56 123.83 162.72 122.77 161.56 122.12ZM161.72 127.93C161.33 128.63 160.69 129.13 159.92 129.35C158.33 129.8 156.68 128.87 156.23 127.28C156.01 126.51 156.11 125.7 156.5 125.01C156.89 124.32 157.53 123.81 158.3 123.6C158.57 123.52 158.84 123.49 159.11 123.49C159.61 123.49 160.11 123.62 160.57 123.87C161.27 124.26 161.77 124.9 161.98 125.67C162.21 126.43 162.11 127.23 161.72 127.93Z" fill="#BAC8CF"/>
<path d="M142.04 178.93C141.68 178.77 141.26 178.84 140.96 179.11C140.26 179.76 139.14 179.9 138.4 179.88C137.75 179.88 137.1 179.8 136.41 179.71C135.93 179.65 135.45 179.59 134.97 179.55C132.07 179.34 129.39 180.07 127.43 181.6C125.3 183.27 124.97 186.49 125.38 189.14L123.3 191.34L115.74 183.78C115.72 183.76 115.69 183.75 115.66 183.73C115.62 183.7 115.58 183.67 115.54 183.64C115.47 183.6 115.4 183.57 115.33 183.55C115.3 183.54 115.28 183.52 115.25 183.51C115.23 183.51 115.22 183.51 115.2 183.51C115.18 183.51 115.16 183.49 115.13 183.49L109.96 183C109.67 182.98 109.37 183.08 109.16 183.29C108.95 183.5 108.84 183.79 108.87 184.09L109.36 189.26C109.36 189.28 109.37 189.3 109.38 189.33C109.38 189.35 109.38 189.37 109.38 189.39C109.39 189.43 109.41 189.46 109.42 189.49C109.44 189.54 109.46 189.6 109.48 189.65C109.51 189.7 109.55 189.75 109.58 189.8C109.6 189.83 109.61 189.86 109.64 189.88L117.36 197.6L109.32 206.09C108.95 206.48 108.96 207.1 109.34 207.48L113.01 211.15C113.2 211.35 113.46 211.44 113.72 211.44C113.97 211.44 114.21 211.35 114.41 211.17L122.9 203.13L131.3 211.49C131.49 211.68 131.75 211.78 132.01 211.78C132.27 211.78 132.52 211.68 132.72 211.49L137.41 206.8C137.6 206.61 137.7 206.36 137.7 206.09C137.7 205.82 137.59 205.57 137.41 205.38L134.47 202.45C134.46 202.44 134.45 202.42 134.44 202.4C134.43 202.39 134.41 202.38 134.39 202.37L129.18 197.19L131.34 195.15C131.82 195.26 132.31 195.33 132.82 195.33C135.03 195.33 137.39 194.39 138.75 193.2C140.44 191.72 141.63 189.51 142.2 186.82C142.69 184.5 142.68 182.13 142.67 179.84C142.64 179.44 142.4 179.09 142.04 178.93ZM126.89 196.58L123.91 193.6L126.46 190.91L129.58 194.03L126.89 196.58ZM113.71 185.38C113.22 186.56 112.41 187.37 111.23 187.86L110.97 185.12L113.71 185.38ZM112.19 189.61C113.68 188.93 114.78 187.83 115.46 186.34L121.92 192.8L121.79 192.93L118.74 196.15L112.19 189.61ZM113.73 209.05L111.44 206.76L122.54 195.05L125.44 197.95L113.73 209.05ZM131.99 209.37L130.42 207.81L133.69 204.54L135.26 206.1L131.99 209.37ZM132.28 203.13L129 206.4L124.33 201.76L127.55 198.71L127.69 198.58L132.28 203.13ZM140.21 186.41C139.88 187.99 139.12 190.2 137.4 191.7C135.92 193 133.24 193.65 131.53 193.15L127.38 189C127.01 186.84 127.26 184.27 128.66 183.18C130.23 181.95 132.41 181.37 134.82 181.55C135.27 181.58 135.71 181.64 136.16 181.7C136.88 181.79 137.63 181.88 138.39 181.89C139.24 181.88 139.97 181.78 140.63 181.56C140.62 183.19 140.54 184.84 140.21 186.41Z" fill="#BAC8CF"/>
</g>
<defs>
<clipPath id="clip0">
<rect width="375" height="375" fill="white" transform="translate(0 250)"/>
</clipPath>
<clipPath id="clip1">
<rect width="375" height="250" fill="white"/>
</clipPath>
</defs>
</svg>
