<svg width="42" height="42" viewBox="0 0 42 42" fill="none" xmlns="http://www.w3.org/2000/svg">
<path d="M24.2168 21.74H22.1655L23.2014 19.1248L24.2168 21.74Z" fill="#0D6DD8"/>
<mask id="mask0" mask-type="alpha" maskUnits="userSpaceOnUse" x="1" y="12" width="41" height="18">
<path d="M1.90852 26.9776L6.60013 13.875C6.86921 12.8739 7.99189 12 9.00012 12H35.1599C36.1683 12 37.0528 12.6931 37.3219 13.6941L40.9186 27.0723C41.1056 27.768 40.9664 28.5136 40.5421 29.0882C40.1178 29.6627 39.4573 30 38.7567 30H4.045H4.04342C2.80457 30 1.80015 28.9654 1.80015 27.6891C1.80015 27.4409 1.83813 27.2017 1.90852 26.9776ZM28.5395 18.5495V24.2963C28.5395 24.5876 28.7689 24.8237 29.0516 24.8237H29.6007C29.8835 24.8237 30.1128 24.5876 30.1128 24.2963V18.5495H31.7761C32.0589 18.5495 32.2881 18.3134 32.2881 18.0221V17.7036C32.2881 17.4123 32.0589 17.1762 31.7761 17.1762H26.8812C26.5985 17.1762 26.3692 17.4123 26.3692 17.7036V18.0221C26.3692 18.3134 26.5985 18.5495 26.8812 18.5495H28.5395ZM19.8735 24.5919C19.9686 24.7369 20.1276 24.8237 20.2976 24.8237H20.9002C21.1121 24.8237 21.3021 24.6893 21.3782 24.4855L21.8921 23.1084H24.7579L25.2405 24.4765C25.3141 24.685 25.5064 24.8238 25.7218 24.8238H26.285C26.4541 24.8238 26.6123 24.7379 26.7077 24.594C26.8031 24.4504 26.8235 24.2672 26.7622 24.1049L24.2695 17.5123C24.1927 17.3097 24.0034 17.1763 23.7923 17.1763H22.8604C22.6511 17.1763 22.4628 17.3075 22.385 17.5077L19.8225 24.1003C19.7591 24.2627 19.7783 24.4468 19.8735 24.5919ZM13.1706 24.5454C13.2598 24.7167 13.4331 24.8236 13.622 24.8236H14.2844C14.4589 24.8236 14.6214 24.7322 14.7155 24.5808L16.1643 22.2528L17.618 24.5815C17.7123 24.7324 17.8745 24.8236 18.0486 24.8236H18.7085C18.8967 24.8236 19.0695 24.7175 19.1591 24.547C19.2485 24.3765 19.2399 24.1693 19.137 24.0071L17.12 20.8349L18.9085 17.9903C19.0106 17.8281 19.0182 17.6214 18.9286 17.4516C18.839 17.2818 18.6665 17.1761 18.4787 17.1761H17.8628C17.6863 17.1761 17.522 17.2699 17.4284 17.4242L16.1347 19.559L14.87 17.4283C14.7769 17.2716 14.6114 17.176 14.4332 17.176H13.83C13.6426 17.176 13.4706 17.2812 13.3807 17.4503C13.291 17.6194 13.2977 17.8255 13.3986 17.9878L15.2037 20.891L13.1957 24.004C13.0909 24.1662 13.0814 24.3741 13.1706 24.5454ZM10.5118 24.2963C10.5118 24.5876 10.7411 24.8237 11.0239 24.8237H11.5731C11.8559 24.8237 12.0852 24.5876 12.0852 24.2963V17.7036C12.0852 17.4123 11.8559 17.1762 11.5731 17.1762H11.0239C10.7411 17.1762 10.5118 17.4123 10.5118 17.7036V24.2963Z" fill="#0D6DD8"/>
</mask>
<g mask="url(#mask0)">
<rect width="20.7999" height="18" transform="matrix(-1 0 0 1 21 12)" fill="#0D6DD8"/>
</g>
<path d="M17.7832 21.74H19.8345L18.7986 19.1248L17.7832 21.74Z" fill="#0D6DD8"/>
<mask id="mask1" mask-type="alpha" maskUnits="userSpaceOnUse" x="1" y="12" width="40" height="18">
<path d="M40.0915 26.9776L35.3999 13.875C35.1308 12.8739 34.0081 12 32.9999 12H6.84014C5.83172 12 4.94722 12.6931 4.67815 13.6941L1.08141 27.0723C0.894362 27.768 1.03365 28.5136 1.45793 29.0882C1.88221 29.6627 2.54269 30 3.24331 30H37.955H37.9566C39.1954 30 40.1999 28.9654 40.1999 27.6891C40.1999 27.4409 40.1619 27.2017 40.0915 26.9776ZM13.4605 18.5495V24.2963C13.4605 24.5876 13.2311 24.8237 12.9484 24.8237H12.3993C12.1165 24.8237 11.8872 24.5876 11.8872 24.2963V18.5495H10.2239C9.9411 18.5495 9.71187 18.3134 9.71187 18.0221V17.7036C9.71187 17.4123 9.9411 17.1762 10.2239 17.1762H15.1188C15.4015 17.1762 15.6308 17.4123 15.6308 17.7036V18.0221C15.6308 18.3134 15.4015 18.5495 15.1188 18.5495H13.4605ZM22.1265 24.5919C22.0314 24.7369 21.8724 24.8237 21.7024 24.8237H21.0998C20.8879 24.8237 20.6979 24.6893 20.6218 24.4855L20.1079 23.1084H17.2421L16.7595 24.4765C16.6859 24.685 16.4936 24.8238 16.2782 24.8238H15.715C15.5459 24.8238 15.3877 24.7379 15.2923 24.594C15.1969 24.4504 15.1765 24.2672 15.2378 24.1049L17.7305 17.5123C17.8073 17.3097 17.9966 17.1763 18.2077 17.1763H19.1396C19.3489 17.1763 19.5372 17.3075 19.615 17.5077L22.1775 24.1003C22.2409 24.2627 22.2217 24.4468 22.1265 24.5919ZM28.8294 24.5454C28.7402 24.7167 28.5669 24.8236 28.378 24.8236H27.7156C27.5411 24.8236 27.3786 24.7322 27.2845 24.5808L25.8357 22.2528L24.382 24.5815C24.2877 24.7324 24.1255 24.8236 23.9514 24.8236H23.2915C23.1033 24.8236 22.9305 24.7175 22.8409 24.547C22.7515 24.3765 22.7601 24.1693 22.863 24.0071L24.88 20.8349L23.0915 17.9903C22.9894 17.8281 22.9818 17.6214 23.0714 17.4516C23.161 17.2818 23.3335 17.1761 23.5213 17.1761H24.1372C24.3137 17.1761 24.478 17.2699 24.5716 17.4242L25.8653 19.559L27.13 17.4283C27.2231 17.2716 27.3886 17.176 27.5668 17.176H28.17C28.3574 17.176 28.5294 17.2812 28.6193 17.4503C28.709 17.6194 28.7023 17.8255 28.6014 17.9878L26.7963 20.891L28.8043 24.004C28.9091 24.1662 28.9186 24.3741 28.8294 24.5454ZM31.4882 24.2963C31.4882 24.5876 31.2589 24.8237 30.9761 24.8237H30.4269C30.1441 24.8237 29.9148 24.5876 29.9148 24.2963V17.7036C29.9148 17.4123 30.1441 17.1762 30.4269 17.1762H30.9761C31.2589 17.1762 31.4882 17.4123 31.4882 17.7036V24.2963Z" fill="#0D6DD8"/>
</mask>
<g mask="url(#mask1)">
<rect x="21" y="12" width="20.7999" height="18" fill="#0D6DD8"/>
</g>
<rect x="7.56006" y="15.6001" width="27.8399" height="10.8" fill="#0D6DD8"/>
<path d="M15.5338 17.6699V18.9999H13.4438V24.5999H11.8838V18.9999H9.79375V17.6699H15.5338ZM20.356 24.5999C20.2827 24.3599 20.1993 24.1132 20.106 23.8599C20.0193 23.6065 19.9327 23.3532 19.846 23.0999H17.146C17.0593 23.3532 16.9693 23.6065 16.876 23.8599C16.7893 24.1132 16.7093 24.3599 16.636 24.5999H15.016C15.276 23.8532 15.5227 23.1632 15.756 22.5299C15.9893 21.8965 16.216 21.2999 16.436 20.7399C16.6627 20.1799 16.8827 19.6499 17.096 19.1499C17.316 18.6432 17.5427 18.1499 17.776 17.6699H19.266C19.4927 18.1499 19.716 18.6432 19.936 19.1499C20.156 19.6499 20.376 20.1799 20.596 20.7399C20.8227 21.2999 21.0527 21.8965 21.286 22.5299C21.5193 23.1632 21.766 23.8532 22.026 24.5999H20.356ZM18.486 19.2399C18.4527 19.3399 18.4027 19.4765 18.336 19.6499C18.2693 19.8232 18.1927 20.0232 18.106 20.2499C18.0193 20.4765 17.9227 20.7265 17.816 20.9999C17.716 21.2732 17.6127 21.5599 17.506 21.8599H19.476C19.3693 21.5599 19.266 21.2732 19.166 20.9999C19.066 20.7265 18.9693 20.4765 18.876 20.2499C18.7893 20.0232 18.7127 19.8232 18.646 19.6499C18.5793 19.4765 18.526 19.3399 18.486 19.2399ZM27.2741 24.5999C27.0808 24.2132 26.8675 23.8232 26.6341 23.4299C26.4075 23.0299 26.1441 22.6232 25.8441 22.2099C25.7508 22.3299 25.6308 22.4965 25.4841 22.7099C25.3441 22.9232 25.2008 23.1499 25.0541 23.3899C24.9141 23.6299 24.7808 23.8599 24.6541 24.0799C24.5275 24.2999 24.4341 24.4732 24.3741 24.5999H22.5941C22.8875 24.0599 23.2275 23.4932 23.6141 22.8999C24.0075 22.3065 24.4441 21.6765 24.9241 21.0099L22.6941 17.6699H24.5841L25.9341 19.8299L27.2541 17.6699H29.0341L26.8341 21.0299C27.3941 21.7565 27.8641 22.4299 28.2441 23.0499C28.6241 23.6632 28.9241 24.1799 29.1441 24.5999H27.2741ZM30.0422 17.6699H31.6022V24.5999H30.0422V17.6699Z" fill="white"/>
</svg>
