<svg xmlns="http://www.w3.org/2000/svg" width="17" height="22" viewBox="0 0 17 22"><defs><style>.cls-1{fill:#bac8cf;fill-rule:evenodd}</style></defs><path id="trash_ico" class="cls-1" d="M435.278 259.639h-11.8a.994.994 0 0 0-.99 1V275a1 1 0 0 0 .99 1h11.8a1 1 0 0 0 .989-1v-14.361a.994.994 0 0 0-.989-1zM434.289 274h-9.819v-12.361h9.819V274zm2.612-17.643h-4.326V255a1 1 0 0 0-.989-1h-4.414a1 1 0 0 0-.989 1v1.357h-4.326a1 1 0 0 0 0 2H436.9a1 1 0 0 0 0-2zm-8.74 0V256h2.439v.357h-2.436zm1.218 16.465a.994.994 0 0 0 .989-1V264.2a.989.989 0 1 0-1.978 0v7.627a1 1 0 0 0 .989.995zm-2.956 0a1 1 0 0 0 .989-1V264.2a.989.989 0 1 0-1.978 0v7.627a1 1 0 0 0 .989.995zm5.912 0a1 1 0 0 0 .989-1V264.2a.989.989 0 1 0-1.978 0v7.627a1 1 0 0 0 .989.995z" transform="translate(-420.875 -254)"/></svg>