<svg width="76" height="76" fill="none" xmlns="http://www.w3.org/2000/svg"><g clip-path="url(#clip0)"><path d="M42.738 48.995l-.102-.28.102.28.076.278-.076-.279zM33.82 46.993c.026 0 .051 0 .076.026-.025-.026-.05-.026-.076-.026zM48.235 45.498l.583 1.217.633 1.317-1.216-2.533z" fill="#fff"/><path d="M76-.026H0v16.061l17.1 9.373c-.101.786-.127 1.596-.127 2.407 0 4.307 1.292 8.461 3.699 12.008.152.228.304.456.481.684.608.81 1.242 1.596 1.976 2.33.811.837 1.698 1.622 2.635 2.306.937.684 1.9 1.318 2.913 1.85a23.156 23.156 0 003.851 1.57l.405-1.773a35.617 35.617 0 01-4.433-1.393 3.526 3.526 0 01-.304-.127s.025.025.101.05c1.09.456 11.476 4.383 20.85-5.928 10.006-11.02 2.178-25.434 2.178-25.434S63.46 24.826 53.91 40.026c-1.292 2.052-2.786 3.597-4.433 4.712-.152.101-.279.203-.43.279.151-.102.278-.178.43-.28l.659 1.14a13.035 13.035 0 003.394-2.938c.431-.43.304-.33.71-.81a21.52 21.52 0 002.989-4.814 19.993 19.993 0 001.647-6.586c.05-.583.076-1.14.076-1.723 0-2.179-.33-4.332-.963-6.359L76 9.854v-9.88z" fill="#fff"/><path d="M0 31.185v.051l1.317.557L0 31.185z" fill="#0FC6EF"/><path d="M57.988 22.648c.634 2.052.963 4.18.963 6.358 0 .583-.025 1.166-.076 1.723L76 19.127V9.854L57.988 22.648zM20.647 39.799a21.324 21.324 0 01-3.699-12.008c0-.81.05-1.622.127-2.407L0 16.036v15.175l1.317.583 19.33 8.005z" fill="#FFD88A"/><path d="M25.739 45.119l-4.079 2.837L4.763 59.863c.785 0 1.849.456 2.989 1.266l17.43-11.83 3.47-2.356a17.508 17.508 0 01-2.913-1.824zM30.805 55.379l1.19-4.814-1.317.861-9.652 6.334 9.779-2.381z" fill="#FFC133"/><path d="M65.665 54.847c-1.14 1.216-1.977 2.533-2.407 3.648l1.773 2.634.203.102c1.216-.406 2.761-1.444 4.13-2.939 2.33-2.508 3.394-5.295 2.38-6.257-.709-.659-2.254-.254-3.926.912-.025.025-.076.05-.102.076a13.594 13.594 0 00-2.051 1.824zM65.107 61.281c.025 0 .05-.025.101-.025l-.101.025z" fill="#fff"/><path d="M29.716 14.997c-4.332-1.267-9.196 2.837-10.893 9.17-1.697 6.334.43 12.515 4.763 13.782 4.332 1.267 9.196-2.837 10.893-9.17 1.697-6.334-.43-12.49-4.762-13.782zm2.128 13.021c-1.292 4.864-5.04 8.006-8.334 7.043-3.319-.963-4.94-5.725-3.648-10.564 1.292-4.864 5.041-8.005 8.335-7.043 3.318.963 4.94 5.7 3.648 10.564z" fill="#FFC133"/><path d="M21.761 25.054c-.886 3.32.228 6.562 2.483 7.22 2.255.66 4.813-1.494 5.7-4.813.887-3.319-.228-6.561-2.483-7.22-2.254-.659-4.813 1.495-5.7 4.813z" fill="#FFC133"/><path d="M65.107 61.256h.101l.025-.026h-.025l-.177-.1.076.126z" fill="#0FC6EF"/><path d="M52.566 50.084l-2.761.684-5.979 1.444-1.216.304 7.778 2.128 8.841-2.153-6.663-2.407zM49.147 39.368c10.006-11.02 2.178-25.435 2.178-25.435-1.723-1.85-3.167-2.837-3.167-2.837s6.992 16.112-1.95 25.84C35.973 48.057 23.66 41.85 23.66 41.85c.938 1.115 1.9 2.28 4.636 3.471 1.115.43 11.476 4.357 20.85-5.953z" fill="#FFC133"/><path d="M42.61 52.516l-25.89 6.308-.76 1.748 31.286-5.194 3.142-.734-7.778-2.128z" fill="#fff"/><path d="M31.59 9.88l-2.66.608c-.582.126-1.038.633-1.013 1.393 0 .76.481 1.064 1.064.912l2.66-.608c.583-.127 1.039-.633 1.013-1.393-.025-.735-.481-1.039-1.064-.912zM23.104 42.813a24.643 24.643 0 01-1.976-2.33c-.177-.228-.33-.456-.481-.684l-19.33-8.03L0 31.235v8.436l21.66 8.31 4.079-2.838c-.938-.71-1.824-1.47-2.635-2.33zM58.9 30.73a20.15 20.15 0 01-1.647 6.586 21.519 21.519 0 01-2.99 4.813L76 28.677v-9.55L58.9 30.729z" fill="#FFC133"/><path d="M65.664 54.847a13.09 13.09 0 012.027-1.8c.025-.024.076-.05.101-.075 1.317-.912 2.559-1.368 3.37-1.19L53.528 42.94a13.454 13.454 0 01-3.394 2.939l2.432 4.23 6.662 2.407 4.003 6.004c.456-1.14 1.292-2.457 2.432-3.673zM63.384 58.697l.102.152-.102-.152z" fill="#FFD88A"/><path d="M43.7 52.237l-.633-2.102-.355-1.14-.481-1.571c-2.61.33-5.193.152-7.397-.254a27.381 27.381 0 01-1.9-.405l-.431 1.748-.507 2.027-1.19 4.813.152-.025 3.496-.861 2.584-.634 5.573-1.368 1.115-.279-.026.051z" fill="#FFC133"/><path d="M34.833 47.196c2.23.38 4.788.583 7.398.253l.48 1.571.355 1.115.608 2.102 6.992-1.697-1.874-3.85-.583-1.191c.43-.228.836-.507 1.267-.786 1.621-1.14 3.141-2.685 4.433-4.712 9.55-15.2-2.584-26.068-2.584-26.068s7.828 14.415-2.178 25.435c-9.374 10.31-19.76 6.384-20.85 5.928l-.101-.05s.101.05.304.126c.81.355 3.217 1.267 6.333 1.824z" fill="#FF8F33"/><path d="M47.246 55.379l1.14 4.408L13.3 66.703l2.66-6.131 31.286-5.193z" fill="#FFD88A"/><path d="M50.388 54.644l-3.141.71 1.14 4.407L13.3 66.703l-.709 1.646a1.27 1.27 0 01-.127.33c-.05.05-.076.126-.126.177a.554.554 0 01-.127.101 1.963 1.963 0 01-.405.178l41.724-6.131-3.142-8.36z" fill="#FFC133"/><path d="M28.652 46.968l-3.47 2.356-17.43 11.83c.177.127.33.254.507.38.253.203.506.431.76.66.253.227.506.48.76.734.329.33.633.684.912 1.039.152.202.304.38.456.582.557.76.962 1.495 1.216 2.154.025.05.05.126.076.177.152.405.228.785.202 1.115 0 .152-.025.278-.05.405l4.129-9.55 4.307-1.09 9.652-6.333 1.317-.862.507-2.026a22.312 22.312 0 01-3.851-1.571z" fill="#FFD88A"/><path d="M12.464 68.704c.126-.203.177-.431.177-.71 0-.329-.076-.709-.203-1.114-.253-.71-.684-1.52-1.292-2.356a12.92 12.92 0 00-1.368-1.622 13.837 13.837 0 00-2.026-1.748c-1.14-.81-2.204-1.266-2.99-1.266-.354 0-.658.101-.861.304-.025.025-.025.05-.05.05-.811.963.329 3.572 2.609 5.903 2.229 2.305 4.762 3.521 5.776 2.812a.444.444 0 00.126-.101c0-.051.051-.102.102-.152z" fill="#fff"/><path d="M48.235 45.498l2.457 5.042 1.875-.456-3.09-5.37c-.406.303-.811.556-1.242.785z" fill="#FFC133"/><path d="M54.264 42.13c-.38.455-.279.354-.71.81l17.633 8.841c.228.051.405.127.557.28 1.013.962-.05 3.748-2.381 6.256-1.394 1.495-2.914 2.534-4.13 2.94h-.025c-.025 0-.05.024-.101.024v-.025l-.076-.127-1.774-2.634-4.002-6.004-8.842 2.178 3.116 8.36-41.749 6.106c-1.19.228-3.395-.938-5.37-2.99-2.28-2.356-3.42-4.965-2.61-5.902.025-.026.025-.05.05-.05.203-.204.507-.305.862-.305l16.897-11.907L0 39.647v36.302l76 .076V28.652L54.264 42.13zM12.008 69.059z" fill="#FF8F33"/></g><defs><clipPath id="clip0"><path fill="#fff" d="M0 0h76v76H0z"/></clipPath></defs></svg>