<svg width="36" height="36" viewBox="0 0 36 36" fill="none" xmlns="http://www.w3.org/2000/svg">
<path fill-rule="evenodd" clip-rule="evenodd" d="M30.9745 12.9243C30.9135 11.5429 30.6901 10.5931 30.3701 9.77013C30.04 8.89657 29.5321 8.11446 28.8666 7.46429C28.2165 6.80401 27.4292 6.29094 26.5657 5.96595C25.738 5.64593 24.7932 5.42253 23.4117 5.36162C22.0199 5.29555 21.5781 5.28027 18.0481 5.28027C14.5181 5.28027 14.0763 5.29555 12.6897 5.35646C11.3082 5.41737 10.3584 5.64097 9.53565 5.9608C8.66188 6.29094 7.87978 6.79885 7.22961 7.46429C6.56933 8.11446 6.05646 8.90172 5.73127 9.76517C5.41125 10.5931 5.18785 11.5377 5.12694 12.9192C5.06087 14.311 5.04559 14.7528 5.04559 18.2828C5.04559 21.8128 5.06087 22.2546 5.12178 23.6413C5.18269 25.0228 5.40629 25.9725 5.72631 26.7955C6.05646 27.6691 6.56933 28.4512 7.22961 29.1013C7.87978 29.7616 8.66704 30.2747 9.53049 30.5997C10.3584 30.9197 11.303 31.1431 12.6847 31.204C14.0711 31.2651 14.5132 31.2802 18.0432 31.2802C21.5731 31.2802 22.015 31.2651 23.4016 31.204C24.7831 31.1431 25.7329 30.9197 26.5556 30.5997C28.303 29.9241 29.6844 28.5426 30.36 26.7955C30.6798 25.9676 30.9034 25.0228 30.9643 23.6413C31.0252 22.2546 31.0405 21.8128 31.0405 18.2828C31.0405 14.7528 31.0354 14.311 30.9745 12.9243ZM28.6331 23.5397C28.5772 24.8095 28.3639 25.4952 28.1861 25.9523C27.7492 27.085 26.8503 27.9839 25.7176 28.4208C25.2605 28.5986 24.5698 28.8119 23.305 28.8676C21.9336 28.9287 21.5223 28.9438 18.0533 28.9438C14.5842 28.9438 14.1678 28.9287 12.8014 28.8676C11.5316 28.8119 10.8459 28.5986 10.3888 28.4208C9.82512 28.2125 9.31205 27.8823 8.8956 27.4506C8.46387 27.029 8.13373 26.5211 7.92541 25.9574C7.74764 25.5003 7.53436 24.8095 7.47861 23.5449C7.4175 22.1735 7.40242 21.762 7.40242 18.2929C7.40242 14.8239 7.4175 14.4074 7.47861 13.0412C7.53436 11.7714 7.74764 11.0857 7.92541 10.6286C8.13373 10.0648 8.46387 9.55189 8.90076 9.13524C9.32217 8.70352 9.83008 8.37338 10.3939 8.16525C10.8511 7.98748 11.5419 7.7742 12.8065 7.71825C14.1779 7.65734 14.5894 7.64206 18.0582 7.64206C21.5325 7.64206 21.9438 7.65734 23.3102 7.71825C24.5799 7.7742 25.2656 7.98748 25.7227 8.16525C26.2864 8.37338 26.7995 8.70352 27.2159 9.13524C27.6476 9.55685 27.9778 10.0648 28.1861 10.6286C28.3639 11.0857 28.5772 11.7764 28.6331 13.0412C28.694 14.4126 28.7093 14.8239 28.7093 18.2929C28.7093 21.762 28.694 22.1683 28.6331 23.5397ZM18.0481 11.6037C14.3608 11.6037 11.3691 14.5953 11.3691 18.2828C11.3691 21.9703 14.3608 24.9618 18.0481 24.9618C21.7356 24.9618 24.7272 21.9703 24.7272 18.2828C24.7272 14.5953 21.7356 11.6037 18.0481 11.6037ZM18.0481 22.6153C15.656 22.6153 13.7156 20.6751 13.7156 18.2828C13.7156 15.8904 15.656 13.9502 18.0481 13.9502C20.4405 13.9502 22.3806 15.8904 22.3806 18.2828C22.3806 20.6751 20.4405 22.6153 18.0481 22.6153ZM24.9913 12.8991C25.8526 12.8991 26.5508 12.2009 26.5508 11.3398C26.5508 10.4785 25.8526 9.78054 24.9913 9.78054C24.1303 9.78054 23.4321 10.4785 23.4321 11.3398C23.4321 12.2009 24.1303 12.8991 24.9913 12.8991Z" fill="white"/>
</svg>
