<svg width="19" height="16" viewBox="0 0 19 16" fill="none" xmlns="http://www.w3.org/2000/svg">
<path fill-rule="evenodd" clip-rule="evenodd" d="M16.4632 5.11605C16.4304 4.37217 16.3101 3.86077 16.1378 3.41762C15.96 2.94724 15.6865 2.52611 15.3282 2.17601C14.9781 1.82048 14.5542 1.54421 14.0893 1.36921C13.6436 1.19689 13.1348 1.0766 12.391 1.0438C11.6415 1.00823 11.4036 1 9.50284 1C7.60208 1 7.36416 1.00823 6.61751 1.04102C5.87364 1.07382 5.36223 1.19422 4.91919 1.36644C4.4487 1.54421 4.02757 1.8177 3.67748 2.17601C3.32194 2.52611 3.04578 2.95002 2.87068 3.41495C2.69836 3.86077 2.57806 4.3694 2.54527 5.11327C2.50969 5.8627 2.50146 6.10062 2.50146 8.00139C2.50146 9.90216 2.50969 10.1401 2.54249 10.8867C2.57529 11.6306 2.69569 12.142 2.86801 12.5852C3.04578 13.0555 3.32194 13.4767 3.67748 13.8268C4.02757 14.1823 4.45148 14.4586 4.91642 14.6336C5.36223 14.8059 5.87086 14.9262 6.61484 14.959C7.36139 14.9919 7.59941 15 9.50017 15C11.4009 15 11.6389 14.9919 12.3855 14.959C13.1294 14.9262 13.6408 14.8059 14.0838 14.6336C15.0247 14.2698 15.7686 13.5259 16.1323 12.5852C16.3046 12.1393 16.425 11.6306 16.4578 10.8867C16.4906 10.1401 16.4988 9.90216 16.4988 8.00139C16.4988 6.10062 16.496 5.8627 16.4632 5.11605ZM15.2025 10.832C15.1723 11.5158 15.0575 11.885 14.9618 12.1311C14.7265 12.741 14.2425 13.2251 13.6326 13.4603C13.3864 13.556 13.0145 13.6709 12.3335 13.7009C11.5951 13.7338 11.3736 13.7419 9.50562 13.7419C7.63765 13.7419 7.41341 13.7338 6.67766 13.7009C5.99393 13.6709 5.62472 13.556 5.37857 13.4603C5.07506 13.3482 4.79879 13.1704 4.57455 12.9379C4.34208 12.7109 4.16431 12.4374 4.05214 12.1339C3.95642 11.8877 3.84157 11.5158 3.81155 10.8348C3.77865 10.0964 3.77053 9.87481 3.77053 8.00684C3.77053 6.13887 3.77865 5.91463 3.81155 5.17898C3.84157 4.49525 3.95642 4.12603 4.05214 3.87989C4.16431 3.57627 4.34208 3.30011 4.57733 3.07576C4.80424 2.84329 5.07773 2.66552 5.38135 2.55345C5.62749 2.45773 5.99948 2.34289 6.68043 2.31276C7.41886 2.27996 7.64043 2.27174 9.50829 2.27174C11.379 2.27174 11.6005 2.27996 12.3363 2.31276C13.02 2.34289 13.3892 2.45773 13.6353 2.55345C13.9389 2.66552 14.2151 2.84329 14.4394 3.07576C14.6718 3.30278 14.8496 3.57627 14.9618 3.87989C15.0575 4.12603 15.1723 4.49792 15.2025 5.17898C15.2353 5.9174 15.2435 6.13887 15.2435 8.00684C15.2435 9.87481 15.2353 10.0936 15.2025 10.832ZM9.50274 4.40492C7.51726 4.40492 5.90633 6.01574 5.90633 8.00133C5.90633 9.98693 7.51726 11.5977 9.50274 11.5977C11.4883 11.5977 13.0992 9.98693 13.0992 8.00133C13.0992 6.01574 11.4883 4.40492 9.50274 4.40492ZM9.50274 10.3342C8.21466 10.3342 7.16984 9.28952 7.16984 8.00133C7.16984 6.71315 8.21466 5.66843 9.50274 5.66843C10.7909 5.66843 11.8356 6.71315 11.8356 8.00133C11.8356 9.28952 10.7909 10.3342 9.50274 10.3342ZM13.2414 5.10243C13.7052 5.10243 14.0811 4.72649 14.0811 4.26283C14.0811 3.79907 13.7052 3.42323 13.2414 3.42323C12.7778 3.42323 12.4018 3.79907 12.4018 4.26283C12.4018 4.72649 12.7778 5.10243 13.2414 5.10243Z" fill="#0D6DD8"/>
</svg>
