<svg width="19" height="16" viewBox="0 0 19 16" fill="none" xmlns="http://www.w3.org/2000/svg">
<path d="M12.2419 2.67874C12.2419 1.19977 11.2746 0 9.50002 0C7.72351 0 6.82031 1.19977 6.82031 2.67874V3.31769H12.2415V2.67874H12.2419Z" fill="#0D6DD8"/>
<path d="M9.50002 9.64299C11.2746 9.64299 12.2419 8.44419 12.2419 6.96521V3.78592H6.82031V6.96473C6.82031 8.44419 7.72351 9.64299 9.50002 9.64299Z" fill="#0D6DD8"/>
<path d="M13.2502 3.21448V6.9652C13.2502 9.03297 11.8629 10.715 9.49997 10.715C7.13708 10.715 5.74973 9.03297 5.74973 6.9652V3.21448C5.15225 2.61701 4.67871 3.21448 4.67871 3.21448V6.95508C4.67871 6.95845 4.67871 6.96135 4.67871 6.9652C4.67871 9.44624 6.55407 11.4884 8.96422 11.7551V13.4193L6.82894 13.4241L6.28451 15H12.5389L12.0061 13.4178L10.0352 13.4183V11.7542C12.4463 11.487 14.3207 9.44527 14.3207 6.96424H14.3217V3.21448C13.664 2.55818 13.2502 3.21448 13.2502 3.21448Z" fill="#0D6DD8"/>
</svg>
