<svg width="19" height="16" viewBox="0 0 19 16" fill="none" xmlns="http://www.w3.org/2000/svg">
<path d="M15.993 4.50541C15.1473 4.50541 14.3669 4.24031 13.7403 3.7931C13.0216 3.28043 12.5052 2.52841 12.3229 1.66165C12.2777 1.44749 12.2534 1.22648 12.2511 1H9.83512V7.2462L9.83222 10.6675C9.83222 11.5822 9.20269 12.3578 8.33002 12.6306C8.07675 12.7097 7.80323 12.7472 7.51842 12.7324C7.15488 12.7135 6.8142 12.6097 6.5181 12.4421C5.88798 12.0856 5.46077 11.4387 5.44919 10.6988C5.43095 9.54224 6.41911 8.59934 7.64056 8.59934C7.88167 8.59934 8.11322 8.63659 8.33002 8.70423V6.99699V6.38327C8.10136 6.35123 7.86864 6.33452 7.63333 6.33452C6.29639 6.33452 5.04599 6.86033 4.15219 7.80761C3.47663 8.52348 3.07141 9.43681 3.00889 10.3945C2.92698 11.6526 3.41354 12.8486 4.35712 13.7309C4.49576 13.8605 4.64135 13.9807 4.7936 14.0916C5.60259 14.6807 6.59162 15 7.63333 15C7.86864 15 8.10136 14.9836 8.33002 14.9515C9.30312 14.8151 10.201 14.3937 10.9095 13.7309C11.7802 12.9167 12.2612 11.8358 12.2664 10.6853L12.254 5.5762C12.6693 5.87936 13.1235 6.13022 13.6109 6.32493C14.369 6.62755 15.1727 6.78091 16 6.78064V5.12077V4.50486C16.0005 4.50541 15.9936 4.50541 15.993 4.50541Z" fill="#0D6DD8"/>
</svg>
