<svg width="36" height="36" viewBox="0 0 36 36" fill="none" xmlns="http://www.w3.org/2000/svg">
<path d="M29.3914 11.5195C27.9076 11.5195 26.5385 11.028 25.4391 10.1987C24.1782 9.24809 23.2723 7.85363 22.9523 6.24641C22.8731 5.8493 22.8305 5.43949 22.8264 5.01953H18.5877V16.6017L18.5826 22.9458C18.5826 24.6419 17.4781 26.08 15.9471 26.5858C15.5027 26.7326 15.0228 26.8021 14.5231 26.7747C13.8853 26.7397 13.2876 26.5472 12.7681 26.2364C11.6626 25.5753 10.9131 24.3758 10.8928 23.0037C10.8608 20.8592 12.5945 19.1108 14.7374 19.1108C15.1605 19.1108 15.5667 19.1799 15.9471 19.3053V16.1396V15.0016C15.5459 14.9422 15.1376 14.9112 14.7248 14.9112C12.3792 14.9112 10.1854 15.8862 8.61729 17.6427C7.43206 18.9702 6.72112 20.6637 6.61143 22.4395C6.46772 24.7724 7.32135 26.99 8.97682 28.6262C9.22006 28.8664 9.47549 29.0893 9.7426 29.295C11.1619 30.3873 12.8971 30.9794 14.7248 30.9794C15.1376 30.9794 15.5459 30.9489 15.9471 30.8895C17.6543 30.6366 19.2296 29.8551 20.4727 28.6262C22.0002 27.1165 22.8442 25.1121 22.8533 22.9788L22.8315 13.5051C23.5602 14.0672 24.3569 14.5324 25.2121 14.8934C26.5421 15.4546 27.9523 15.7389 29.4036 15.7384V12.6606V11.5185C29.4046 11.5195 29.3924 11.5195 29.3914 11.5195Z" fill="white"/>
</svg>
