<svg width="36" height="36" viewBox="0 0 36 36" fill="none" xmlns="http://www.w3.org/2000/svg">
<path d="M34 8.078C32.81 8.6 31.542 8.946 30.22 9.114C31.58 8.302 32.618 7.026 33.106 5.488C31.838 6.244 30.438 6.778 28.946 7.076C27.742 5.794 26.026 5 24.154 5C20.522 5 17.598 7.948 17.598 11.562C17.598 12.082 17.642 12.582 17.75 13.058C12.296 12.792 7.47 10.178 4.228 6.196C3.662 7.178 3.33 8.302 3.33 9.512C3.33 11.784 4.5 13.798 6.244 14.964C5.19 14.944 4.156 14.638 3.28 14.156C3.28 14.176 3.28 14.202 3.28 14.228C3.28 17.416 5.554 20.064 8.536 20.674C8.002 20.82 7.42 20.89 6.816 20.89C6.396 20.89 5.972 20.866 5.574 20.778C6.424 23.376 8.836 25.286 11.704 25.348C9.472 27.094 6.638 28.146 3.57 28.146C3.032 28.146 2.516 28.122 2 28.056C4.906 29.93 8.35 31 12.064 31C24.136 31 30.736 21 30.736 12.332C30.736 12.042 30.726 11.762 30.712 11.484C32.014 10.56 33.108 9.406 34 8.078Z" fill="white"/>
</svg>
