<svg width="19" height="16" viewBox="0 0 19 16" fill="none" xmlns="http://www.w3.org/2000/svg">
<path d="M17.8485 11.9194C17.8028 11.8405 17.5201 11.2073 16.16 9.90591C14.7362 8.54315 14.9274 8.76443 16.6424 6.40809C17.687 4.97303 18.1046 4.09665 17.9739 3.722C17.8495 3.36488 17.0813 3.45909 17.0813 3.45909L14.5269 3.47443C14.5269 3.47443 14.3377 3.44814 14.1964 3.53468C14.0593 3.62013 13.9711 3.81731 13.9711 3.81731C13.9711 3.81731 13.5663 4.92811 13.0265 5.8724C11.8885 7.86505 11.4326 7.97022 11.2467 7.84643C10.8142 7.55832 10.9226 6.68743 10.9226 6.06959C10.9226 4.13828 11.2063 3.33311 10.369 3.12498C10.0906 3.05596 9.88658 3.00995 9.17571 3.00228C8.26402 2.99242 7.49153 3.00557 7.05481 3.22576C6.76366 3.37255 6.53946 3.7001 6.67653 3.71872C6.84548 3.74172 7.22801 3.82498 7.43096 4.1098C7.69342 4.47678 7.68385 5.30276 7.68385 5.30276C7.68385 5.30276 7.83474 7.57585 7.33214 7.85848C6.9868 8.05238 6.51395 7.65692 5.49919 5.8483C4.97959 4.92263 4.58644 3.89837 4.58644 3.89837C4.58644 3.89837 4.511 3.70776 4.37605 3.60589C4.21241 3.4821 3.98289 3.44266 3.98289 3.44266L1.55384 3.458C1.55384 3.458 1.18938 3.46895 1.05549 3.63218C0.936483 3.77787 1.04593 4.07803 1.04593 4.07803C1.04593 4.07803 2.94794 8.66474 5.10073 10.9773C7.07606 13.097 9.3181 12.9579 9.3181 12.9579H10.3339C10.3339 12.9579 10.641 12.9228 10.7972 12.7486C10.9417 12.5887 10.9364 12.2885 10.9364 12.2885C10.9364 12.2885 10.9162 10.8831 11.5495 10.676C12.1732 10.4723 12.9744 12.0344 13.8234 12.6358C14.4652 13.0904 14.953 12.9907 14.953 12.9907L17.2237 12.9579C17.2237 12.9579 18.4116 12.8823 17.8485 11.9194Z" fill="#0D6DD8"/>
</svg>
