<svg width="19" height="16" viewBox="0 0 19 16" fill="none" xmlns="http://www.w3.org/2000/svg">
<path d="M16.6909 4.72124C16.5181 4.04818 16.0114 3.51762 15.3689 3.33638C14.1951 3 9.49983 3 9.49983 3C9.49983 3 4.80472 3 3.63092 3.32363C3.00076 3.50467 2.48175 4.04828 2.3089 4.72124C2 5.95056 2 8.5 2 8.5C2 8.5 2 11.0623 2.3089 12.2788C2.48193 12.9517 2.98841 13.4823 3.63102 13.6635C4.81708 14 9.50001 14 9.50001 14C9.50001 14 14.1951 14 15.3689 13.6764C16.0115 13.4952 16.5181 12.9647 16.6911 12.2917C16.9999 11.0623 16.9999 8.51295 16.9999 8.51295C16.9999 8.51295 17.0123 5.95056 16.6909 4.72124ZM8.00496 10.8553V6.14473L11.9093 8.5L8.00496 10.8553Z" fill="black"/>
<path d="M16.6909 4.72124C16.5181 4.04818 16.0114 3.51762 15.3689 3.33638C14.1951 3 9.49983 3 9.49983 3C9.49983 3 4.80472 3 3.63092 3.32363C3.00076 3.50467 2.48175 4.04828 2.3089 4.72124C2 5.95056 2 8.5 2 8.5C2 8.5 2 11.0623 2.3089 12.2788C2.48193 12.9517 2.98841 13.4823 3.63102 13.6635C4.81708 14 9.50001 14 9.50001 14C9.50001 14 14.1951 14 15.3689 13.6764C16.0115 13.4952 16.5181 12.9647 16.6911 12.2917C16.9999 11.0623 16.9999 8.51295 16.9999 8.51295C16.9999 8.51295 17.0123 5.95056 16.6909 4.72124ZM8.00496 10.8553V6.14473L11.9093 8.5L8.00496 10.8553Z" fill="#0D6DD8"/>
</svg>
