<svg width="42" height="60" viewBox="0 0 42 60" fill="none" xmlns="http://www.w3.org/2000/svg">
<path d="M41.55 55.71H0.459991V59.25H41.55V55.71Z" fill="#3372FF"/>
<path d="M32.87 7.41H41.54V55.71H0.459991V7.41H9.12999" fill="#319EFF"/>
<path d="M10.55 25.2L7.22 21.87L8.64 20.46L10.55 22.37L15.19 17.74L16.6 19.15L10.55 25.2Z" fill="white"/>
<path d="M34.77 21.11H20.29V23.11H34.77V21.11Z" fill="white"/>
<path d="M10.55 35.55L7.22 32.22L8.64 30.81L10.55 32.72L15.19 28.09L16.6 29.5L10.55 35.55Z" fill="white"/>
<path d="M34.77 31.46H20.29V33.46H34.77V31.46Z" fill="white"/>
<path d="M10.55 46.01L7.22 42.68L8.64 41.27L10.55 43.18L15.19 38.55L16.6 39.96L10.55 46.01Z" fill="white"/>
<path d="M34.77 41.92H20.29V43.92H34.77V41.92Z" fill="white"/>
<path d="M28.85 3.78V0.74H13.15V3.78H8.97V11.55H13.15H28.85H33.03V3.78H28.85Z" fill="#D6ECFC"/>
</svg>
