<svg width="42" height="60" fill="none" xmlns="http://www.w3.org/2000/svg"><path d="M41.55 55.71H.46v3.54h41.09v-3.54z" fill="#3372FF"/><path d="M32.87 7.41h8.67v48.3H.46V7.41h8.67" fill="#319EFF"/><path d="M10.55 25.2l-3.33-3.33 1.42-1.41 1.91 1.91 4.64-4.63 1.41 1.41-6.05 6.05zM34.77 21.11H20.29v2h14.48v-2zM10.55 35.55l-3.33-3.33 1.42-1.41 1.91 1.91 4.64-4.63 1.41 1.41-6.05 6.05zM34.77 31.46H20.29v2h14.48v-2zM10.55 46.01l-3.33-3.33 1.42-1.41 1.91 1.91 4.64-4.63 1.41 1.41-6.05 6.05zM34.77 41.92H20.29v2h14.48v-2z" fill="#fff"/><path d="M28.85 3.78V.74h-15.7v3.04H8.97v7.77h24.06V3.78h-4.18z" fill="#D6ECFC"/></svg>