<svg width="46" height="46" viewBox="0 0 46 46" fill="none" xmlns="http://www.w3.org/2000/svg">
<path d="M46 0H0V46H46V0Z" fill="white"/>
<path d="M14.77 2.9H2.9V14.77H14.77V2.9ZM10.77 10.77H6.9V6.9H10.77V10.77Z" fill="#333333"/>
<path d="M2.9 43.1H14.77V31.23H2.9V43.1ZM6.9 35.23H10.77V39.1H6.9V35.23Z" fill="#333333"/>
<path d="M31.23 2.9V14.77H43.1V2.9H31.23ZM39.1 10.77H35.23V6.9H39.1V10.77Z" fill="#333333"/>
<path d="M35.93 28.77C31.97 28.77 28.77 31.98 28.77 35.93C28.77 39.89 31.98 43.09 35.93 43.09C39.88 43.09 43.09 39.88 43.09 35.93C43.1 31.98 39.89 28.77 35.93 28.77ZM34.75 39.19L31.84 36.28L33.08 35.04L34.75 36.71L38.8 32.66L40.04 33.9L34.75 39.19Z" fill="#333333"/>
<path d="M17.39 3.56V5.52V14.77H20.01V5.52H28.61V2.9H17.39V3.56Z" fill="#333333"/>
<path d="M14.77 20.03V17.41H12.15H2.9V20.03H12.15V25.98H9.53V28.61H12.15H14.77H28.61V25.98H14.77V20.03Z" fill="#333333"/>
<path d="M33.85 17.4H31.23V25.98H33.85V17.4Z" fill="#333333"/>
<path d="M23.36 40.48H20.01V37.88H17.39V40.51H20.01V43.1H23.36H25.98V31.23H23.36V40.48Z" fill="#333333"/>
<path d="M20.01 20.83V20.03V17.39H17.39V20.03V20.83V22.65H20.01V20.83Z" fill="#333333"/>
<path d="M25.26 20.03H22.64V22.65H25.26V20.03Z" fill="#333333"/>
<path d="M28.6 12.15H25.98V14.77H28.6V12.15Z" fill="#333333"/>
<path d="M25.98 9.46H23.36V12.08H25.98V9.46Z" fill="#333333"/>
<path d="M20.01 31.23H17.39V33.85H20.01V31.23Z" fill="#333333"/>
<path d="M43.1 17.41H40.48V20.03H43.1V17.41Z" fill="#333333"/>
<path d="M40.47 22.65H37.85V25.27H40.47V22.65Z" fill="#333333"/>
<path d="M5.52 25.98H2.9V28.6H5.52V25.98Z" fill="#333333"/>
<path d="M8.14 23.36H5.52V25.98H8.14V23.36Z" fill="#333333"/>
</svg>
