<svg width="46" height="46" fill="none" xmlns="http://www.w3.org/2000/svg"><path d="M46 0H0v46h46V0z" fill="#fff"/><path d="M14.77 2.9H2.9v11.87h11.87V2.9zm-4 7.87H6.9V6.9h3.87v3.87zM2.9 43.1h11.87V31.23H2.9V43.1zm4-7.87h3.87v3.87H6.9v-3.87zM31.23 2.9v11.87H43.1V2.9H31.23zm7.87 7.87h-3.87V6.9h3.87v3.87zM35.93 28.77a7.16 7.16 0 00-7.16 7.16 7.16 7.16 0 1014.32 0c.01-3.95-3.2-7.16-7.16-7.16zm-1.18 10.42l-2.91-2.91 1.24-1.24 1.67 1.67 4.05-4.05 1.24 1.24-5.29 5.29zM17.39 3.56v11.21h2.62V5.52h8.6V2.9H17.39v.66zM14.77 20.03v-2.62H2.9v2.62h9.25v5.95H9.53v2.63h19.08v-2.63H14.77v-5.95zM33.85 17.4h-2.62v8.58h2.62V17.4zM23.36 40.48h-3.35v-2.6h-2.62v2.63h2.62v2.59H25.98V31.23h-2.62v9.25z" fill="#333"/><path d="M20.01 20.83V17.39h-2.62V22.65h2.62v-1.82zM25.26 20.03h-2.62v2.62h2.62v-2.62zM28.6 12.15h-2.62v2.62h2.62v-2.62zM25.98 9.46h-2.62v2.62h2.62V9.46zM20.01 31.23h-2.62v2.62h2.62v-2.62zM43.1 17.41h-2.62v2.62h2.62v-2.62zM40.47 22.65h-2.62v2.62h2.62v-2.62zM5.52 25.98H2.9v2.62h2.62v-2.62zM8.14 23.36H5.52v2.62h2.62v-2.62z" fill="#333"/></svg>