<svg width="46" height="56" fill="none" xmlns="http://www.w3.org/2000/svg"><path d="M.92 5.68v23.08c0 8.2 3.77 16.02 10.37 20.89 3.45 2.55 7.37 4.46 11.71 5.77 4.34-1.31 8.25-3.22 11.71-5.77 6.6-4.87 10.37-12.69 10.37-20.89V5.68C30.36 1.54 15.64 1.54.92 5.68z" fill="#3372FF"/><path d="M.92 3.68v23.08c0 8.2 3.77 16.02 10.37 20.89 3.45 2.55 7.37 4.46 11.71 5.77 4.34-1.31 8.25-3.22 11.71-5.77 6.6-4.87 10.37-12.69 10.37-20.89V3.68C30.36-.46 15.64-.46.92 3.68z" fill="#319EFF"/><path d="M35.2 18.71h-8.57v-8.57h-7.25v8.57H10.8v7.26h8.58v8.57h7.25v-8.57h8.57v-7.26z" fill="#fff"/></svg>