<svg width="236" height="130" fill="none" xmlns="http://www.w3.org/2000/svg"><g clip-path="url(#clip0)"><path d="M59.754 78.071h-12.67l.288-1.574a14.013 14.013 0 013.483-1.133l3.12-14.663 1.05-4.282h-.295l-2.13 3.917-11.332 17.735H39.16L35.2 60.58l-.582-4.274h-.355l-.944 4.647-3.022 14.145a9.29 9.29 0 013.264 1.392l-.287 1.574H23l.287-1.574a13.45 13.45 0 013.71-1.43L31.25 55.21a7.443 7.443 0 01-3.09-1.17l.325-1.575H40.18l2.727 13.826.363 3.43 1.745-3.506 9.066-13.75h11.09l-.287 1.574a10.404 10.404 0 01-3.271 1.171l-4.329 20.192a7.315 7.315 0 012.735 1.095l-.265 1.574z" fill="#231F20"/><path d="M73.225 59.348c5.084 0 8.31 2.486 8.31 7.498 0 6.328-4.284 11.666-12.088 11.666-4.752 0-8.393-2.456-8.393-7.787 0-5.331 3.883-11.377 12.17-11.377zM67.52 72.276c0 2.64 1.05 3.917 2.757 3.917 2.758 0 4.835-4.723 4.835-10.35 0-2.853-.951-4.092-2.478-4.092-3.807-.023-5.114 6.046-5.114 10.502v.023zM98.79 73.645a11.275 11.275 0 01-3.875 3.5 11.192 11.192 0 01-5.024 1.367c-4.36 0-7.23-2.525-7.23-6.844 0-6.693 4.472-12.32 11.876-12.32 2.508 0 4.684.7 5.341 1.315.182 1.134-1.193 3.803-2.833 4.563l-2.432-3.468c-2.546 0-5.523 3.4-5.523 8.921 0 2.959 1.42 4.312 3.634 4.312 2.07 0 3.959-1.391 4.978-2.342l1.088.996zM110.312 69.88l-1.27-.364-1.631 8.555h-6.362l2.977-15.392-2.644-.586v-1.43a30.661 30.661 0 018.794-1.315l.831.403-1.564 7.787h1.345a19.092 19.092 0 004.291-4.639 12.414 12.414 0 00-.113-3.11 15.657 15.657 0 014.177-.48 11.267 11.267 0 013.778.48c-1.345 3.179-5.923 6.327-7.812 7.605a40.418 40.418 0 005.288 7.863h1.995l.038 1.43a12.032 12.032 0 01-5.818 1.757c-1.307 0-2.326-.48-3.339-2.053a34.424 34.424 0 01-2.961-6.51z" fill="#231F20"/><path d="M136.247 67.941c3.672.183 4.873 2.122 4.873 3.688 0 3.149-3.853 6.845-10.796 6.845-4.895 0-7.985-2.783-7.985-6.951a12.148 12.148 0 011.182-5.375 12.082 12.082 0 013.426-4.291c2.108-1.605 4.579-2.487 9.013-2.487 3.196 0 5.734 1.24 5.734 3.803 0 2.023-2.289 3.931-5.447 4.768zm-4.215 1.521c-.756.114-2.101.182-2.901.22-.204.91-.291 1.844-.257 2.776 0 2.282.801 3.734 2.47 3.734 1.511 0 3.234-1.68 3.234-3.916 0-2.053-.801-2.578-2.546-2.814zm-2.72-1.68c3.634.144 6.135-2.084 6.135-4.457 0-.844-.325-1.575-1.232-1.575-1.889-.022-3.74 1.628-4.903 6.008v.023zM155.354 72.991c-1.383 2.844-4.065 5.522-7.774 5.522-2.833 0-4.79-1.94-4.79-5.895 0-7.817 4.722-13.232 11.944-13.232a8.876 8.876 0 013.498.844 18.374 18.374 0 015.772-.76l-2.977 15.795h2.766v1.43a13.24 13.24 0 01-6.097 1.757c-1.964 0-2.803-1.065-2.803-1.978.053-1.188.251-2.366.589-3.506l-.128.023zm.468-2.966l1.353-7.787a3.624 3.624 0 00-1.859-.51c-3.921 0-6.097 5.263-6.097 10.312 0 2.373.506 3.18 1.632 3.18 1.813 0 3.883-2.632 4.971-5.195z" fill="#231F20"/><path fill-rule="evenodd" clip-rule="evenodd" d="M170.924 45.887H212v38.922c0 4.198-2.674 7.157-7.849 7.157h-4.836a10.412 10.412 0 00-4.237.694 10.455 10.455 0 00-3.604 2.348 10.505 10.505 0 00-3.61-2.346 10.444 10.444 0 00-4.24-.696h-4.828c-5.182 0-7.872-2.959-7.872-7.157V45.887z" fill="#A80230"/><path d="M180.625 66.063h-1.088a25.875 25.875 0 01-.824-4.563 12.185 12.185 0 016.966-2.114c4.533 0 5.93 2.198 5.93 4.365 0 4.654-6.225 7.978-10.289 10.168l-1.813.89v.106l1.866-.16h5.054l2.07-3.011h1.095a43.82 43.82 0 01-.695 6.692h-13.908l.43-2.167c4.224-2.89 11.801-7.765 11.801-12.45 0-1.308-.876-2.281-2.735-2.281a7.45 7.45 0 00-1.836.213l-2.024 4.312zM205.201 78.459h-9.58l.272-1.339a19.007 19.007 0 012.818-.639l.612-2.623h-8.605l.295-1.56 14.15-12.928h1.858l-2.636 12.503h3.566l-.401 1.954h-3.588l-.582 2.624a9.662 9.662 0 012.1.639l-.279 1.369zm-4.39-11.59l.756-1.848h-.083l-1.572 1.848-4.918 4.335-1.352.89 2.153-.19h3.913l1.103-5.035z" fill="#fff"/><path d="M32.776 45.027h-1.64v-7.331h-3.218v-1.453h8.061v1.453h-3.203v7.331zM44.365 40.563v.395h-5.96c0 2.373.83 2.86 2.598 2.86a9.49 9.49 0 002.486-.418l.294 1.369c-.964.293-1.962.456-2.969.486-2.576 0-4.147-1.072-4.147-4.677 0-3.483 1.428-4.563 3.996-4.563 2.569 0 3.702.882 3.702 4.548zm-5.938-.928h4.253c-.09-1.87-.574-2.281-1.979-2.281-1.587.015-2.138.532-2.274 2.281zM48.687 37.696c-.167 3.536-.983 7.605-3.423 7.605l-.257-1.696c1.171 0 2.033-2.86 2.169-7.362h5.719v8.784H51.27v-7.331h-2.584zM62.399 40.563v.395h-5.961c0 2.373.83 2.86 2.599 2.86a9.436 9.436 0 002.493-.403l.294 1.369c-.961.293-1.957.457-2.961.487-2.622 0-4.133-1.073-4.133-4.708 0-3.483 1.428-4.563 3.997-4.563s3.672.897 3.672 4.563zm-5.938-.928h4.245c-.083-1.87-.566-2.281-1.979-2.281-1.579.015-2.13.532-2.266 2.281zM69.651 45.027c-1.707-3.293-2.893-3.97-4.034-4.19v4.19H64v-8.784h1.617v4.229c.756-.693 2.138-2.282 3.777-4.229h1.957a30.718 30.718 0 01-3.596 4c.922.365 1.753.837 3.838 4.784h-1.942zM79.45 44.578c-1.208.456-2.488.69-3.778.693-2.636 0-3.61-.654-3.61-2.944.044-2.524 1.48-2.897 3.474-2.897.783.003 1.563.09 2.327.258 0-1.832-.46-2.235-2.372-2.235a7.435 7.435 0 00-2.584.403l-.347-1.422c1.04-.28 2.111-.426 3.188-.434 2.569 0 3.702.76 3.702 3.415v5.163zm-1.587-3.673a9.01 9.01 0 00-2.032-.19c-1.51 0-1.98.152-1.98 1.521 0 1.37.394 1.704 1.965 1.704.696 0 1.387-.112 2.047-.335v-2.7zM83.122 41.027v4h-1.64v-8.784h1.64v3.377h4.094v-3.377h1.64v8.784h-1.64v-4h-4.094zM97.914 44.578c-1.208.456-2.487.69-3.777.693-2.637 0-3.612-.654-3.612-2.944.038-2.524 1.481-2.897 3.49-2.897.783.003 1.563.09 2.328.258 0-1.832-.461-2.235-2.38-2.235a7.419 7.419 0 00-2.576.403l-.393-1.422A12.668 12.668 0 0194.212 36c2.561 0 3.702.76 3.702 3.415v5.163zm-1.587-3.673a9.008 9.008 0 00-2.032-.19c-1.51 0-1.98.152-1.98 1.521 0 1.37.394 1.704 1.965 1.704.696 0 1.388-.113 2.047-.335v-2.7zM102.681 37.696c-.166 3.536-.974 7.605-3.422 7.605l-.257-1.696c1.171 0 2.025-2.86 2.183-7.362h5.719v8.784h-1.639v-7.331h-2.584z" fill="#231F20"/></g><defs><clipPath id="clip0"><path fill="#fff" transform="translate(23 36)" d="M0 0h189v59H0z"/></clipPath></defs></svg>